<svg xmlns="http://www.w3.org/2000/svg" xmlns:xlink="http://www.w3.org/1999/xlink" x="0px" y="0px" width="18px" height="18px" viewBox="0 0 18 18"><path d="m14.25,3.75H3.75c-1.1046,0-2,.8955-2,2v6.5c0,1.1045.8954,2,2,2h10.5c1.1046,0,2-.8955,2-2v-6.5c0-1.1045-.8954-2-2-2Zm-5.25,7.25c-1.1046,0-2-.8955-2-2s.8954-2,2-2,2,.8955,2,2-.8954,2-2,2Z" fill="#000" opacity=".3" stroke-width="0" data-color="color-2"></path><path d="m2,14.25h12.25c1.1046,0,2-.8954,2-2v-4.2618" fill="none" stroke="#000" stroke-linecap="round" stroke-linejoin="round" stroke-width="1.5"></path><path d="m16,3.75H3.75c-1.1046,0-2,.8954-2,2v4.2735" fill="none" stroke="#000" stroke-linecap="round" stroke-linejoin="round" stroke-width="1.5"></path><polyline points="14.25 1.75 16.25 3.75 14.25 5.75" fill="none" stroke="#000" stroke-linecap="round" stroke-linejoin="round" stroke-width="1.5"></polyline><polyline points="3.75 16.25 1.75 14.25 3.75 12.25" fill="none" stroke="#000" stroke-linecap="round" stroke-linejoin="round" stroke-width="1.5"></polyline><circle cx="9" cy="9" r="2" fill="none" stroke="#000" stroke-linecap="round" stroke-linejoin="round" stroke-width="1.5"></circle><circle cx="4.25" cy="9" r=".75" stroke-width="0" fill="#000"></circle><circle cx="13.75" cy="9" r=".75" stroke-width="0" fill="#000"></circle></svg>