<svg width="29" height="21" viewBox="0 0 29 21" fill="none" xmlns="http://www.w3.org/2000/svg">
<path d="M19.0331 0.112513C19.897 -0.118943 20.8179 0.00983682 21.5849 0.469935L27.3564 3.93283C28.8617 4.83601 29.3964 6.75931 28.5731 8.30978L25.329 14.4201C24.8995 15.2288 24.1529 15.8227 23.2685 16.0598L6.7167 20.4943C4.95647 20.9659 3.14756 19.9215 2.67569 18.1613L0.113187 8.59786C-0.358257 6.83762 0.686027 5.02863 2.44619 4.55685L19.0331 0.112513ZM5.28702 6.79513L2.73721 11.1447L4.60635 12.2863L5.82119 10.1594L7.60342 16.8088L10.162 16.1233L7.50284 6.20138L5.28702 6.79513ZM18.6259 8.54611C17.9244 5.92806 15.9016 3.79133 13.0009 4.56857C10.1003 5.3458 9.41662 8.2074 10.1181 10.8254C10.8196 13.4434 12.8464 15.5947 15.747 14.8176C18.6476 14.0404 19.3273 11.1641 18.6259 8.54611ZM13.6064 6.82931C14.7964 6.51044 15.5677 7.48419 16.038 9.23947C16.5082 10.9946 16.3314 12.2379 15.1415 12.5568C13.9515 12.8757 13.1763 11.8873 12.706 10.132C12.2357 8.37695 12.4166 7.1483 13.6064 6.82931ZM23.3983 4.73654L21.2792 11.4299L22.1103 11.2072L24.2372 4.51095L23.3983 4.73654ZM26.3476 8.64865C26.1318 7.84325 25.3596 7.3614 24.4257 7.61154C23.4917 7.8618 23.0722 8.66252 23.288 9.46798C23.5015 10.2649 24.2632 10.7407 25.1972 10.4904C26.1308 10.2401 26.5608 9.4453 26.3476 8.64865ZM24.6689 8.51974C24.943 8.44629 25.2071 8.54046 25.3105 8.92599C25.4115 9.30301 25.2272 9.50877 24.953 9.58224C24.679 9.65549 24.4261 9.56648 24.3251 9.18966C24.222 8.80431 24.3947 8.59319 24.6689 8.51974ZM22.2294 6.50997C22.0136 5.70452 21.2413 5.22226 20.2987 5.47482C19.3649 5.72505 18.9464 6.52592 19.162 7.33126C19.3755 8.12815 20.1362 8.60399 21.0702 8.35372C22.0126 8.10118 22.4428 7.30676 22.2294 6.50997ZM20.5419 6.38302C20.8161 6.30955 21.0802 6.40466 21.1835 6.79025C21.282 7.15842 21.1011 7.37201 20.8271 7.44552C20.5615 7.51667 20.3057 7.42015 20.2069 7.05197C20.1036 6.66647 20.2764 6.45425 20.5419 6.38302Z" fill="white"/>
</svg>
