<svg width="29" height="21" viewBox="0 0 29 21" fill="none" xmlns="http://www.w3.org/2000/svg">
<path d="M19.0332 0.112241C19.8971 -0.119162 20.8181 0.0105673 21.585 0.470639L27.3565 3.93255C28.862 4.83573 29.3967 6.75991 28.5732 8.31048L25.3291 14.4199C24.8996 15.2286 24.153 15.8224 23.2686 16.0595L6.7168 20.4951C4.95645 20.9666 3.14747 19.9214 2.67579 18.1611L0.113288 8.59857C-0.358411 6.83816 0.685918 5.02833 2.4463 4.55658L19.0332 0.112241ZM5.79786 6.69134L3.24903 11.041L5.11719 12.1826L6.33301 10.0556L8.11426 16.704L10.6729 16.0185L8.01466 6.09662L5.79786 6.69134ZM9.22364 5.77337L10.794 11.6337L12.6797 11.5908C13.0905 10.9229 13.6553 10.5325 14.4434 10.3212C15.4696 10.0462 16.1184 10.3825 16.2979 11.0517C16.4613 11.6615 16.0692 12.3408 14.9834 12.6318C14.0314 12.8869 13.0021 12.7961 12.1465 12.3398L11.2461 14.5107C12.3926 15.1598 13.8641 15.355 15.6191 14.8847C18.1923 14.1951 19.447 12.3919 18.8731 10.2499C18.3348 8.24205 16.5053 7.42546 14.8096 7.87982C13.9321 8.11504 13.246 8.64963 12.8936 9.23822L12.3799 7.31927L17.0205 6.07513L16.4229 3.84369L9.22364 5.77337ZM23.3691 4.73724L21.251 11.4306L22.082 11.2079L24.209 4.51165L23.3691 4.73724ZM26.3184 8.64837C26.1024 7.8434 25.331 7.3614 24.3975 7.61126C23.4635 7.86153 23.044 8.66323 23.2598 9.46869C23.4733 10.2653 24.2343 10.7411 25.168 10.4911C26.102 10.2409 26.5319 9.44526 26.3184 8.64837ZM24.6406 8.52044C24.9148 8.44704 25.1789 8.54117 25.2822 8.92669C25.3832 9.30365 25.199 9.50948 24.9248 9.58294C24.6507 9.65625 24.3979 9.56723 24.2969 9.19037C24.1937 8.80492 24.3665 8.5939 24.6406 8.52044ZM22.2012 6.51068C21.9854 5.70524 21.213 5.22301 20.2705 5.47552C19.3367 5.72574 18.9172 6.52665 19.1328 7.33197C19.3463 8.12886 20.108 8.60469 21.042 8.35443C21.9843 8.10187 22.4144 7.30738 22.2012 6.51068ZM20.5137 6.38373C20.7878 6.31028 21.0519 6.40478 21.1553 6.78998C21.254 7.15828 21.0728 7.37267 20.7988 7.44623C20.5333 7.51737 20.2775 7.42073 20.1787 7.05267C20.0754 6.66712 20.2481 6.45493 20.5137 6.38373Z" fill="white"/>
</svg>
