<svg width="29" height="21" viewBox="0 0 29 21" fill="none" xmlns="http://www.w3.org/2000/svg">
<path d="M19.0332 0.112241C19.8971 -0.119162 20.8181 0.0105673 21.585 0.470639L27.3565 3.93255C28.862 4.83573 29.3967 6.75991 28.5732 8.31048L25.3291 14.4199C24.8996 15.2286 24.153 15.8224 23.2686 16.0595L6.7168 20.4951C4.95645 20.9666 3.14747 19.9214 2.67579 18.1611L0.113288 8.59857C-0.358411 6.83816 0.685918 5.02833 2.4463 4.55658L19.0332 0.112241ZM10.2168 8.87103C9.68669 6.89262 7.65476 6.03335 5.31934 6.65912C3.93594 7.0298 2.49037 7.94339 1.74512 9.38665L3.61329 10.704C4.14793 9.84335 4.869 9.2031 5.96973 8.90814C6.69862 8.71283 7.43393 8.89891 7.61329 9.5683C7.88031 10.5649 7.2608 11.4647 3.79493 15.7255L4.32911 17.7187L12.1084 15.6337L11.5107 13.4023L7.88087 14.3749C9.88764 11.988 10.6271 10.4031 10.2168 8.87103ZM19.6826 8.29486C18.981 5.67703 16.9581 3.54117 14.0576 4.3183C11.157 5.09552 10.4724 7.95711 11.1738 10.5751C11.8753 13.1932 13.9031 15.3445 16.8037 14.5673C19.7044 13.7901 20.3841 10.9129 19.6826 8.29486ZM14.6631 6.57904C15.8531 6.26017 16.6244 7.23391 17.0947 8.98919C17.5649 10.7441 17.388 11.9876 16.1982 12.3066C15.0083 12.6254 14.233 11.6369 13.7627 9.88177C13.2924 8.12658 13.4732 6.89798 14.6631 6.57904ZM24.0293 4.6806L21.9111 11.3749L22.7422 11.1513L24.8691 4.45599L24.0293 4.6806ZM26.9785 8.59271C26.7626 7.78746 25.9905 7.30538 25.0566 7.5556C24.1229 7.80597 23.7041 8.60767 23.9199 9.41302C24.1336 10.2096 24.8944 10.6846 25.8281 10.4345C26.7621 10.1842 27.192 9.3896 26.9785 8.59271ZM25.3008 8.4638C25.5748 8.39052 25.8391 8.48562 25.9424 8.87103C26.0432 9.24787 25.8591 9.45285 25.585 9.5263C25.3108 9.59973 25.058 9.51168 24.957 9.1347C24.8537 8.74913 25.0266 8.53727 25.3008 8.4638ZM22.8613 6.45404C22.6454 5.64879 21.8731 5.16738 20.9307 5.41986C19.9968 5.6701 19.5773 6.47092 19.793 7.2763C20.0065 8.07319 20.7682 8.54903 21.7022 8.29876C22.6446 8.04616 23.0748 7.25088 22.8613 6.45404ZM21.1738 6.32806C21.448 6.25461 21.7121 6.34895 21.8154 6.73431C21.9141 7.10262 21.733 7.31701 21.459 7.39056C21.1934 7.46174 20.9376 7.36448 20.8389 6.99603C20.7357 6.61063 20.9083 6.39925 21.1738 6.32806Z" fill="white"/>
</svg>
