<svg width="29" height="21" viewBox="0 0 29 21" fill="none" xmlns="http://www.w3.org/2000/svg">
<path d="M19.0331 0.112476C19.8969 -0.118974 20.818 0.00995858 21.5849 0.469898L27.3574 3.93279C28.8624 4.83601 29.3972 6.75941 28.5742 8.30974L25.329 14.4201C24.8995 15.2287 24.153 15.8228 23.2685 16.0597L6.71772 20.4943C4.95737 20.966 3.14754 19.9216 2.67573 18.1613L0.113226 8.5988C-0.358482 6.83837 0.686773 5.02852 2.44721 4.55681L19.0331 0.112476ZM10.0703 8.93377C9.5175 6.99156 7.51672 6.18196 5.24116 6.82927C3.8932 7.21287 2.49263 8.12865 1.7851 9.55193L3.63178 10.8127C4.14185 9.96258 4.83828 9.32631 5.86713 9.03337C6.62092 8.81886 7.34339 8.98961 7.53315 9.65642C7.80494 10.6129 7.21201 11.503 3.88569 15.7238L4.43842 17.6662L12.0195 15.509L11.4013 13.3342L7.67573 14.3947C9.79179 11.9749 10.4909 10.4123 10.0703 8.93377ZM10.7382 5.42107L12.3515 11.09L14.1962 11.0197C14.5923 10.3742 15.136 9.96783 15.9042 9.7492C16.904 9.46493 17.5512 9.81415 17.7451 10.4953C17.9222 11.1185 17.5616 11.8318 16.5039 12.133C15.5761 12.397 14.5385 12.3321 13.6943 11.8986L12.8349 13.9455C13.9852 14.5739 15.4244 14.7281 17.1347 14.2414C19.6424 13.5277 20.8469 11.7584 20.2529 9.67107C19.7 7.72893 17.8975 6.95669 16.2451 7.42693C15.3901 7.67033 14.7273 8.20396 14.3085 8.82439L13.7431 6.83806L18.3535 5.52654L17.7548 3.42498L10.7382 5.42107ZM23.7275 4.6906L21.6093 11.384L22.4404 11.1613L24.5673 4.46599L23.7275 4.6906ZM26.6767 8.60271C26.4608 7.79739 25.6887 7.31536 24.7548 7.5656C23.821 7.81595 23.4023 8.61765 23.6181 9.42302C23.8318 10.2196 24.5926 10.6946 25.5263 10.4445C26.4603 10.1942 26.8902 9.3996 26.6767 8.60271ZM24.999 8.4738C25.273 8.40056 25.5373 8.49565 25.6406 8.88103C25.7414 9.25779 25.5572 9.46286 25.2831 9.5363C25.009 9.60975 24.7563 9.52164 24.6552 9.1447C24.5519 8.75911 24.7248 8.54728 24.999 8.4738ZM22.5585 6.46404C22.3426 5.65888 21.5712 5.17744 20.6289 5.42986C19.6949 5.68011 19.2754 6.48088 19.4912 7.2863C19.7047 8.08319 20.4663 8.55903 21.4003 8.30877C22.3427 8.05614 22.772 7.26086 22.5585 6.46404ZM20.872 6.33806C21.1462 6.2646 21.4103 6.35886 21.5136 6.74431C21.6123 7.11259 21.4311 7.32699 21.1572 7.40056C20.8915 7.47174 20.6358 7.37448 20.5371 7.00603C20.4338 6.62053 20.6064 6.40924 20.872 6.33806Z" fill="white"/>
</svg>
