<svg width="24" height="24" viewBox="0 0 24 24" fill="none" xmlns="http://www.w3.org/2000/svg">
<g clip-path="url(#clip0_11_185)">
<path d="M14.4 3.41858C14.445 3.29566 14.5267 3.18954 14.634 3.11457C14.7413 3.0396 14.8691 2.9994 15 2.9994C15.1309 2.9994 15.2586 3.0396 15.3659 3.11457C15.4732 3.18954 15.5549 3.29566 15.6 3.41858L16.2105 5.08658C16.6892 6.39466 17.4475 7.58259 18.4325 8.56755C19.4174 9.55251 20.6054 10.3108 21.9135 10.7896L23.5815 11.4001C23.7044 11.4451 23.8105 11.5268 23.8855 11.6341C23.9604 11.7414 24.0006 11.8692 24.0006 12.0001C24.0006 12.131 23.9604 12.2587 23.8855 12.366C23.8105 12.4733 23.7044 12.555 23.5815 12.6001L21.9135 13.2106C20.6054 13.6893 19.4174 14.4476 18.4325 15.4326C17.4475 16.4176 16.6892 17.6055 16.2105 18.9136L15.6 20.5816C15.5549 20.7045 15.4732 20.8106 15.3659 20.8856C15.2586 20.9606 15.1309 21.0008 15 21.0008C14.8691 21.0008 14.7413 20.9606 14.634 20.8856C14.5267 20.8106 14.445 20.7045 14.4 20.5816L13.7895 18.9136C13.3107 17.6055 12.5524 16.4176 11.5674 15.4326C10.5825 14.4476 9.39454 13.6893 8.08646 13.2106L6.41846 12.6001C6.29554 12.555 6.18942 12.4733 6.11445 12.366C6.03948 12.2587 5.99928 12.131 5.99928 12.0001C5.99928 11.8692 6.03948 11.7414 6.11445 11.6341C6.18942 11.5268 6.29554 11.4451 6.41846 11.4001L8.08646 10.7896C9.39454 10.3108 10.5825 9.55251 11.5674 8.56755C12.5524 7.58259 13.3107 6.39466 13.7895 5.08658L14.4 3.41858ZM7.99946 16.6741C8.01835 16.6229 8.0525 16.5787 8.09729 16.5474C8.14208 16.5162 8.19536 16.4995 8.24996 16.4995C8.30455 16.4995 8.35784 16.5162 8.40263 16.5474C8.44742 16.5787 8.48156 16.6229 8.50046 16.6741L8.75396 17.3701C8.95355 17.915 9.26952 18.4098 9.67986 18.8202C10.0902 19.2305 10.5851 19.5465 11.13 19.7461L11.826 19.9996C11.8772 20.0185 11.9214 20.0526 11.9526 20.0974C11.9838 20.1422 12.0006 20.1955 12.0006 20.2501C12.0006 20.3047 11.9838 20.358 11.9526 20.4027C11.9214 20.4475 11.8772 20.4817 11.826 20.5006L11.13 20.7541C10.5851 20.9537 10.0902 21.2696 9.67986 21.68C9.26952 22.0903 8.95355 22.5852 8.75396 23.1301L8.50046 23.8261C8.48156 23.8773 8.44742 23.9215 8.40263 23.9527C8.35784 23.9839 8.30455 24.0007 8.24996 24.0007C8.19536 24.0007 8.14208 23.9839 8.09729 23.9527C8.0525 23.9215 8.01835 23.8773 7.99946 23.8261L7.74596 23.1301C7.54636 22.5852 7.23039 22.0903 6.82005 21.68C6.40971 21.2696 5.91486 20.9537 5.36996 20.7541L4.67396 20.5006C4.62273 20.4817 4.57853 20.4475 4.54732 20.4027C4.5161 20.358 4.49936 20.3047 4.49936 20.2501C4.49936 20.1955 4.5161 20.1422 4.54732 20.0974C4.57853 20.0526 4.62273 20.0185 4.67396 19.9996L5.36996 19.7461C5.91486 19.5465 6.40971 19.2305 6.82005 18.8202C7.23039 18.4098 7.54636 17.915 7.74596 17.3701L7.99946 16.6741ZM4.19996 0.210078C4.22247 0.14862 4.26332 0.0955608 4.31698 0.0580756C4.37063 0.0205903 4.4345 0.000488281 4.49996 0.000488281C4.56541 0.000488281 4.62928 0.0205903 4.68294 0.0580756C4.73659 0.0955608 4.77744 0.14862 4.79996 0.210078L5.10446 1.04408C5.34447 1.69777 5.72383 2.29141 6.21623 2.7838C6.70863 3.2762 7.30227 3.65557 7.95596 3.89558L8.78996 4.20008C8.85141 4.22259 8.90447 4.26344 8.94196 4.3171C8.97944 4.37075 8.99955 4.43463 8.99955 4.50008C8.99955 4.56553 8.97944 4.6294 8.94196 4.68306C8.90447 4.73671 8.85141 4.77756 8.78996 4.80008L7.95596 5.10458C7.30227 5.34459 6.70863 5.72395 6.21623 6.21635C5.72383 6.70875 5.34447 7.30239 5.10446 7.95608L4.79996 8.79008C4.77744 8.85154 4.73659 8.9046 4.68294 8.94208C4.62928 8.97957 4.56541 8.99967 4.49996 8.99967C4.4345 8.99967 4.37063 8.97957 4.31698 8.94208C4.26332 8.9046 4.22247 8.85154 4.19996 8.79008L3.89546 7.95608C3.65545 7.30239 3.27608 6.70875 2.78368 6.21635C2.29128 5.72395 1.69764 5.34459 1.04396 5.10458L0.209956 4.80008C0.148498 4.77756 0.0954387 4.73671 0.0579535 4.68306C0.0204683 4.6294 0.000366211 4.56553 0.000366211 4.50008C0.000366211 4.43463 0.0204683 4.37075 0.0579535 4.3171C0.0954387 4.26344 0.148498 4.22259 0.209956 4.20008L1.04396 3.89558C1.69764 3.65557 2.29128 3.2762 2.78368 2.7838C3.27608 2.29141 3.65545 1.69777 3.89546 1.04408L4.19996 0.210078Z" fill="#292632"/>
</g>
<defs>
<clipPath id="clip0_11_185">
<rect width="24" height="24" fill="white"/>
</clipPath>
</defs>
</svg>
