<svg width="24" height="24" viewBox="0 0 24 24" fill="none" xmlns="http://www.w3.org/2000/svg">
<path d="M16.4998 3C18.6756 3.00015 20.4363 4.76164 20.4363 6.9375C20.4362 8.08677 19.9446 9.12027 19.1609 9.84082C19.6178 10.8391 19.8744 11.9539 19.8708 13.1279C19.8708 14.9979 19.2202 16.7166 18.1306 18.0664L19.6248 19.5605C19.955 19.8874 19.9549 20.4215 19.6248 20.752C19.2979 21.0823 18.7638 21.0823 18.4333 20.752L16.9353 19.2549C14.0423 21.5889 9.92228 21.5643 7.05737 19.2549L5.56323 20.749C5.23636 21.0791 4.70219 21.0791 4.37183 20.749C4.04139 20.4221 4.04139 19.8871 4.37183 19.5566L5.86597 18.0625C4.77984 16.7127 4.12574 14.9941 4.12573 13.124C4.12573 11.9534 4.38261 10.8392 4.8396 9.84082C4.05578 9.12027 3.56334 8.08684 3.56323 6.9375C3.56323 4.76154 5.32477 3 7.50073 3C9.09299 3.00015 10.4641 3.94243 11.0828 5.30273C11.6908 5.23246 12.3097 5.23244 12.9177 5.30273C13.5364 3.94232 14.9073 3 16.4998 3ZM11.9998 6.9375C8.56891 6.93758 5.81323 9.71425 5.81323 13.124C5.81324 16.5443 8.57946 19.3105 11.9998 19.3105C15.4201 19.3105 18.1872 16.5444 18.1873 13.124C18.1873 9.70717 15.4236 6.9375 11.9998 6.9375ZM11.5203 9.68164C11.7212 9.68164 11.9143 9.76127 12.0564 9.90332C12.1984 10.0454 12.2781 10.2386 12.2781 10.4395V13.4609L14.3259 14.2812C14.5064 14.3599 14.6496 14.5054 14.7244 14.6875C14.7991 14.8697 14.7994 15.074 14.7263 15.2568C14.6532 15.4396 14.5115 15.5867 14.3318 15.667C14.1521 15.7471 13.9482 15.754 13.7634 15.6865L11.239 14.6768C11.0987 14.6205 10.9781 14.5236 10.8933 14.3984C10.8085 14.2732 10.7635 14.1249 10.7634 13.9736V10.4395C10.7634 10.2386 10.8431 10.0454 10.9851 9.90332C11.1271 9.76145 11.3195 9.68168 11.5203 9.68164ZM7.50073 4.6875C6.25984 4.6875 5.25073 5.69661 5.25073 6.9375C5.25082 7.46811 5.43663 7.95679 5.74585 8.33984C6.66334 7.13762 7.92236 6.20952 9.37769 5.69629C8.97349 5.08824 8.28448 4.68763 7.50073 4.6875ZM16.4998 4.6875C15.7158 4.6875 15.0265 5.08815 14.6257 5.69629C16.0775 6.20952 17.3366 7.13762 18.2576 8.33984C18.5633 7.95679 18.7487 7.46809 18.7488 6.9375C18.7488 5.6967 17.7405 4.68766 16.4998 4.6875Z" fill="#292632"/>
</svg>
