<svg width="24" height="24" viewBox="0 0 24 24" fill="none" xmlns="http://www.w3.org/2000/svg">
<path fill-rule="evenodd" clip-rule="evenodd" d="M12.2533 5.32868C12.1451 5.12625 11.8549 5.12625 11.7467 5.32869L4.75994 18.4007C4.65768 18.5921 4.79631 18.8233 5.01323 18.8233H18.9867C19.2037 18.8233 19.3423 18.5921 19.24 18.4007L12.2533 5.32868ZM10.2269 4.51638C10.9843 3.09936 13.0157 3.09936 13.7731 4.51638L20.7598 17.5884C21.4757 18.9276 20.5053 20.5466 18.9867 20.5466H5.01323C3.49471 20.5466 2.52436 18.9276 3.24015 17.5884L10.2269 4.51638ZM13.1488 15.9512C13.1488 16.5857 12.6345 17.1001 12 17.1001C11.3655 17.1001 10.8512 16.5857 10.8512 15.9512C10.8512 15.3167 11.3655 14.8024 12 14.8024C12.6345 14.8024 13.1488 15.3167 13.1488 15.9512ZM12.8616 9.91988C12.8616 9.44402 12.4759 9.05826 12 9.05826C11.5242 9.05826 11.1384 9.44402 11.1384 9.91988V12.792C11.1384 13.2678 11.5242 13.6536 12 13.6536C12.4759 13.6536 12.8616 13.2678 12.8616 12.792V9.91988Z" fill="#292632"/>
</svg>
