<svg width="24" height="24" viewBox="0 0 24 24" fill="none" xmlns="http://www.w3.org/2000/svg">
<path fill-rule="evenodd" clip-rule="evenodd" d="M8.02838 3.24713C8.18661 3.08889 8.40123 3 8.625 3H15.375C15.5988 3 15.8134 3.08889 15.9716 3.24713L20.7528 8.02838C20.9111 8.18661 21 8.40123 21 8.625V15.375C21 15.5988 20.9111 15.8134 20.7528 15.9716L15.9716 20.7528C15.8134 20.9111 15.5988 21 15.375 21H8.625C8.40123 21 8.18661 20.9111 8.02838 20.7528L3.24713 15.9716C3.08889 15.8134 3 15.5988 3 15.375V8.625C3 8.40123 3.08889 8.18661 3.24713 8.02838L8.02838 3.24713ZM8.97449 4.6875L4.6875 8.97449V15.0255L8.97449 19.3125H15.0255L19.3125 15.0255V8.97449L15.0255 4.6875H8.97449ZM12 7.5C12.466 7.5 12.8438 7.87776 12.8438 8.34375V12.2812C12.8438 12.7472 12.466 13.125 12 13.125C11.534 13.125 11.1562 12.7472 11.1562 12.2812V8.34375C11.1562 7.87776 11.534 7.5 12 7.5ZM12 16.5C12.6213 16.5 13.125 15.9963 13.125 15.375C13.125 14.7537 12.6213 14.25 12 14.25C11.3787 14.25 10.875 14.7537 10.875 15.375C10.875 15.9963 11.3787 16.5 12 16.5Z" fill="#292632"/>
</svg>
