<svg width="24" height="24" viewBox="0 0 24 24" fill="none" xmlns="http://www.w3.org/2000/svg">
<path fill-rule="evenodd" clip-rule="evenodd" d="M12.7198 15.9123C12.9107 15.7215 13.0179 15.4626 13.0179 15.1927C13.0179 14.9228 12.9107 14.6639 12.7198 14.4731C12.529 14.2822 12.2701 14.175 12.0002 14.175C11.7303 14.175 11.4714 14.2822 11.2806 14.4731C11.0897 14.6639 10.9825 14.9228 10.9825 15.1927C10.9825 15.4626 11.0897 15.7215 11.2806 15.9123C11.4714 16.1032 11.7303 16.2104 12.0002 16.2104C12.2701 16.2104 12.529 16.1032 12.7198 15.9123Z" fill="#292632"/>
<path fill-rule="evenodd" clip-rule="evenodd" d="M12.8183 8.60714C12.8183 8.39016 12.7321 8.18206 12.5787 8.02863C12.4253 7.8752 12.2172 7.789 12.0002 7.789C11.7832 7.789 11.5751 7.8752 11.4217 8.02863C11.2682 8.18206 11.182 8.39016 11.182 8.60714V12.1993C11.182 12.4162 11.2682 12.6243 11.4217 12.7778C11.5751 12.9312 11.7832 13.0174 12.0002 13.0174C12.2172 13.0174 12.4253 12.9312 12.5787 12.7778C12.7321 12.6243 12.8183 12.4162 12.8183 12.1993V8.60714Z" fill="#292632"/>
<path fill-rule="evenodd" clip-rule="evenodd" d="M12.0002 2.99951C7.02963 2.99951 3 7.02914 3 11.9997C3 16.9703 7.02963 20.9999 12.0002 20.9999C16.9707 20.9999 21.0004 16.9703 21.0004 11.9997C21.0004 7.02914 16.9707 2.99951 12.0002 2.99951ZM4.63628 11.9997C4.63628 10.0467 5.41212 8.17363 6.79312 6.79263C8.17412 5.41163 10.0472 4.6358 12.0002 4.6358C13.9532 4.6358 15.8262 5.41163 17.2072 6.79263C18.5882 8.17363 19.3641 10.0467 19.3641 11.9997C19.3641 13.9527 18.5882 15.8258 17.2072 17.2068C15.8262 18.5878 13.9532 19.3636 12.0002 19.3636C10.0472 19.3636 8.17412 18.5878 6.79312 17.2068C5.41212 15.8258 4.63628 13.9527 4.63628 11.9997Z" fill="#292632"/>
</svg>
