<svg width="24" height="24" viewBox="0 0 24 24" fill="none" xmlns="http://www.w3.org/2000/svg">
<path fill-rule="evenodd" clip-rule="evenodd" d="M16.0403 12.707C16.4308 12.3165 16.4308 11.6833 16.0403 11.2928L11.0404 6.29286C10.6499 5.90233 10.0167 5.90233 9.62618 6.29286C9.23566 6.68339 9.23566 7.31646 9.62618 7.70699L12.919 10.9999L3.99999 10.9999C3.44772 10.9999 3 11.4476 3 11.9999C3 12.5522 3.44772 12.9999 3.99999 12.9999L12.919 12.9999L9.62618 16.2927C9.23566 16.6833 9.23566 17.3164 9.62618 17.707C10.0167 18.0975 10.6499 18.0975 11.0404 17.707L16.0403 12.707ZM19 17.6665C19 18.2188 19.4477 18.6665 20 18.6665C20.5523 18.6665 21 18.2188 21 17.6665L21 6.33326C21 5.781 20.5523 5.33327 20 5.33327C19.4477 5.33327 19 5.781 19 6.33326L19 17.6665Z" fill="#292632"/>
</svg>
