<svg width="24" height="24" viewBox="0 0 24 24" fill="none" xmlns="http://www.w3.org/2000/svg">
<path fill-rule="evenodd" clip-rule="evenodd" d="M7.95982 11.293C7.56929 11.6835 7.56929 12.3167 7.95982 12.7072L12.9597 17.7071C13.3503 18.0977 13.9834 18.0977 14.3739 17.7071C14.7645 17.3166 14.7645 16.6835 14.3739 16.293L11.0811 13.0001L20.0001 13.0001C20.5524 13.0001 21.0001 12.5524 21.0001 12.0001C21.0001 11.4478 20.5524 11.0001 20.0001 11.0001L11.0811 11.0001L14.3739 7.70725C14.7645 7.31673 14.7645 6.68357 14.3739 6.29305C13.9834 5.90253 13.3503 5.90253 12.9597 6.29305L7.95982 11.293ZM5.00011 6.33349C5.00011 5.78121 4.55238 5.3335 4.00011 5.3335C3.44785 5.3335 3.00012 5.78121 3.00012 6.33349L3.00012 17.6667C3.00012 18.219 3.44785 18.6667 4.00011 18.6667C4.55238 18.6667 5.00011 18.219 5.00011 17.6667L5.00011 6.33349Z" fill="#292632"/>
</svg>
