<svg width="24" height="24" viewBox="0 0 24 24" fill="none" xmlns="http://www.w3.org/2000/svg">
<path fill-rule="evenodd" clip-rule="evenodd" d="M3 3.9C3 3.40294 3.40294 3 3.9 3H10.2C10.6971 3 11.1 3.40294 11.1 3.9V10.2C11.1 10.6971 10.6971 11.1 10.2 11.1H3.9C3.40294 11.1 3 10.6971 3 10.2V3.9ZM4.8 4.8V9.3H9.3V4.8H4.8Z" fill="#292632"/>
<path fill-rule="evenodd" clip-rule="evenodd" d="M12.9001 3.9C12.9001 3.40294 13.3031 3 13.8001 3H20.1001C20.5972 3 21.0001 3.40294 21.0001 3.9V10.2C21.0001 10.6971 20.5972 11.1 20.1001 11.1H13.8001C13.3031 11.1 12.9001 10.6971 12.9001 10.2V3.9ZM14.7001 4.8V9.3H19.2001V4.8H14.7001Z" fill="#292632"/>
<path fill-rule="evenodd" clip-rule="evenodd" d="M3.9 12.9C3.40294 12.9 3 13.3029 3 13.8V20.1C3 20.597 3.40294 21 3.9 21H10.2C10.6971 21 11.1 20.597 11.1 20.1V13.8C11.1 13.3029 10.6971 12.9 10.2 12.9H3.9ZM4.8 19.2V14.7H9.3V19.2H4.8Z" fill="#292632"/>
<path d="M16.9499 13.35C17.447 13.35 17.8499 13.753 17.8499 14.25V16.0501H19.6502C20.1473 16.0501 20.5502 16.4531 20.5502 16.9501C20.5502 17.4472 20.1473 17.8501 19.6502 17.8501H17.8499V19.65C17.8499 20.1471 17.447 20.55 16.9499 20.55C16.4529 20.55 16.0499 20.1471 16.0499 19.65V17.8501H14.2502C13.7532 17.8501 13.3502 17.4472 13.3502 16.9501C13.3502 16.4531 13.7532 16.0501 14.2502 16.0501H16.0499V14.25C16.0499 13.753 16.4529 13.35 16.9499 13.35Z" fill="#292632"/>
</svg>
