<svg width="24" height="24" viewBox="0 0 24 24" fill="none" xmlns="http://www.w3.org/2000/svg">
<path fill-rule="evenodd" clip-rule="evenodd" d="M4.96875 5.8125C4.89416 5.8125 4.82262 5.84213 4.76987 5.89487C4.71713 5.94762 4.6875 6.01916 4.6875 6.09375V7.78125C4.6875 7.9365 4.8135 8.0625 4.96875 8.0625H19.0312C19.1058 8.0625 19.1774 8.03287 19.2301 7.98013C19.2829 7.92738 19.3125 7.85584 19.3125 7.78125V6.09375C19.3125 6.01916 19.2829 5.94762 19.2301 5.89487C19.1774 5.84213 19.1058 5.8125 19.0312 5.8125H4.96875ZM3 6.09375C3 5.007 3.882 4.125 4.96875 4.125H19.0312C20.118 4.125 21 5.007 21 6.09375V7.78125C21 8.3034 20.7926 8.80416 20.4233 9.17337C20.0541 9.54258 19.5534 9.75 19.0312 9.75H4.96875C4.4466 9.75 3.94585 9.54258 3.57663 9.17337C3.20742 8.80416 3 8.3034 3 7.78125V6.09375ZM4.96875 10.875C5.19252 10.875 5.40714 10.9639 5.56537 11.1221C5.7236 11.2804 5.8125 11.495 5.8125 11.7188V17.9062C5.8125 18.0615 5.9385 18.1875 6.09375 18.1875H17.9062C17.9808 18.1875 18.0524 18.1579 18.1051 18.1051C18.1579 18.0524 18.1875 17.9808 18.1875 17.9062V11.7188C18.1875 11.495 18.2764 11.2804 18.4347 11.1221C18.5928 10.9639 18.8075 10.875 19.0312 10.875C19.255 10.875 19.4697 10.9639 19.6278 11.1221C19.7861 11.2804 19.875 11.495 19.875 11.7188V17.9062C19.875 18.4284 19.6676 18.9291 19.2983 19.2983C18.9291 19.6676 18.4284 19.875 17.9062 19.875H6.09375C5.5716 19.875 5.07084 19.6676 4.70163 19.2983C4.33242 18.9291 4.125 18.4284 4.125 17.9062V11.7188C4.125 11.495 4.2139 11.2804 4.37213 11.1221C4.53036 10.9639 4.74498 10.875 4.96875 10.875ZM10.0312 12C9.80748 12 9.59286 12.0889 9.43463 12.2471C9.2764 12.4054 9.1875 12.62 9.1875 12.8438C9.1875 13.0675 9.2764 13.2821 9.43463 13.4404C9.59286 13.5986 9.80748 13.6875 10.0312 13.6875H13.9688C14.1925 13.6875 14.4072 13.5986 14.5653 13.4404C14.7236 13.2821 14.8125 13.0675 14.8125 12.8438C14.8125 12.62 14.7236 12.4054 14.5653 12.2471C14.4072 12.0889 14.1925 12 13.9688 12H10.0312Z" fill="#292632"/>
</svg>
