<svg width="24" height="24" viewBox="0 0 24 24" fill="none" xmlns="http://www.w3.org/2000/svg">
<path fill-rule="evenodd" clip-rule="evenodd" d="M8.35464 13.766C6.92313 12.6695 6 10.9425 6 9C6 5.68629 8.68629 3 12 3C15.3137 3 18 5.68629 18 9C18 10.9421 17.0772 12.6688 15.6462 13.7654L16.4935 20.1514C16.5314 20.4368 16.4025 20.7188 16.1618 20.8769C15.9211 21.035 15.6111 21.0413 15.3641 20.8931L12 18.8746L8.63589 20.8931C8.38894 21.0413 8.07895 21.035 7.83824 20.8768C7.59753 20.7187 7.46863 20.4367 7.50655 20.1513L8.35464 13.766ZM7.5 9C7.5 6.51472 9.51472 4.5 12 4.5C14.4853 4.5 16.5 6.51472 16.5 9C16.5 10.5611 15.7051 11.9366 14.4979 12.7436C14.4551 12.7658 14.4149 12.7918 14.3777 12.8213C13.6878 13.2515 12.8729 13.5 12 13.5C9.51472 13.5 7.5 11.4853 7.5 9ZM14.2396 14.5681C13.5476 14.8467 12.7917 15 12 15C11.2086 15 10.453 14.8468 9.76124 14.5684L9.19835 18.8064L11.6141 17.3569C11.8517 17.2144 12.1484 17.2144 12.3859 17.3569L14.8019 18.8065L14.2396 14.5681Z" fill="#292632"/>
</svg>
