<svg xmlns="http://www.w3.org/2000/svg" width="14" height="14" viewBox="8 8 14 14" fill="none">
<path d="M19.957 8.83097C20.2986 8.48981 20.8519 8.48977 21.1935 8.83097C21.5349 9.17264 21.535 9.72713 21.1935 10.0688L16.2497 15.0114L21.1935 19.9565C21.5351 20.2982 21.5352 20.8514 21.1935 21.193C20.8519 21.5347 20.2987 21.5346 19.957 21.193L15.0119 16.2492L10.0693 21.193C9.72765 21.5347 9.17321 21.5345 8.83148 21.193C8.49022 20.8514 8.49013 20.2981 8.83148 19.9565L13.7753 15.0114L8.83148 10.0688C8.48977 9.72706 8.48977 9.17268 8.83148 8.83097C9.17319 8.48929 9.72757 8.48928 10.0693 8.83097L15.0119 13.7748L19.957 8.83097Z" fill="white"/>
</svg>
