<svg width="24" height="24" viewBox="0 0 24 24" fill="none" xmlns="http://www.w3.org/2000/svg">
<path fill-rule="evenodd" clip-rule="evenodd" d="M12 4.68749C10.8785 4.68749 9.86762 5.15528 9.14943 5.90871C8.82791 6.24601 8.29383 6.2588 7.95653 5.93727C7.61924 5.61575 7.60645 5.08167 7.92797 4.74438C8.95139 3.67074 10.3981 3 12 3C15.1066 3 17.625 5.51838 17.625 8.62496V11.2953C17.625 11.7612 17.2472 12.139 16.7813 12.139C16.3152 12.139 15.9375 11.7612 15.9375 11.2953V8.62496C15.9375 6.45035 14.1746 4.68749 12 4.68749ZM7.70517 7.84815L4.33867 5.41034C3.96125 5.13703 3.43373 5.22143 3.16042 5.59885C2.88711 5.97628 2.97152 6.5038 3.34894 6.7771L6.37503 8.96841V11.9406C6.37503 11.9961 6.3586 12.0504 6.3278 12.0966L4.41179 14.9706C4.22482 15.251 4.12505 15.5806 4.12505 15.9176C4.12505 16.8606 4.88942 17.6249 5.83234 17.6249H18.3292L19.6614 18.5895C20.0388 18.8628 20.5663 18.7785 20.8396 18.401C21.1129 18.0236 21.0284 17.4961 20.651 17.2227L19.1047 16.103C19.0995 16.0992 19.0944 16.0955 19.0892 16.0918L7.72247 7.86067C7.71675 7.85643 7.71099 7.85225 7.70517 7.84815ZM15.9988 15.9374L8.06252 10.1904V11.9406C8.06252 12.3292 7.94748 12.7092 7.73187 13.0326L5.81587 15.9066C5.81369 15.9098 5.81254 15.9137 5.81254 15.9176C5.81254 15.9219 5.81324 15.9239 5.81375 15.925C5.81449 15.9268 5.81593 15.9292 5.81834 15.9316C5.82074 15.934 5.82313 15.9355 5.82489 15.9362C5.82608 15.9367 5.82804 15.9374 5.83234 15.9374H15.9988ZM12 20.9999C13.1476 20.9999 14.0945 20.1407 14.2326 19.0306C14.2518 18.8764 14.1241 18.7499 13.9687 18.7499H10.0313C9.87593 18.7499 9.74816 18.8764 9.76734 19.0306C9.9055 20.1407 10.8524 20.9999 12 20.9999Z" fill="#292632"/>
</svg>
