<svg width="24" height="24" viewBox="0 0 24 24" fill="none" xmlns="http://www.w3.org/2000/svg">
<path fill-rule="evenodd" clip-rule="evenodd" d="M12 3C8.8934 3 6.375 5.5184 6.375 8.625V11.9406C6.375 11.9962 6.35856 12.0504 6.32776 12.0966L4.41174 14.9707C4.22476 15.2511 4.125 15.5807 4.125 15.9177C4.125 16.8607 4.88938 17.625 5.83229 17.625H18.1677C19.1107 17.625 19.875 16.8607 19.875 15.9177C19.875 15.5807 19.7752 15.2511 19.5882 14.9707L17.6722 12.0966C17.6414 12.0504 17.625 11.9962 17.625 11.9406V8.625C17.625 5.5184 15.1066 3 12 3ZM8.0625 8.625C8.0625 6.45037 9.82537 4.6875 12 4.6875C14.1746 4.6875 15.9375 6.45037 15.9375 8.625V11.9406C15.9375 12.3293 16.0526 12.7093 16.2681 13.0327L18.1841 15.9067C18.1864 15.9099 18.1875 15.9138 18.1875 15.9177C18.1875 15.9202 18.187 15.9232 18.187 15.9232L18.1863 15.9251C18.1863 15.9251 18.1841 15.9293 18.1816 15.9316C18.1793 15.9341 18.1751 15.9363 18.1751 15.9363C18.1751 15.9363 18.172 15.9375 18.1677 15.9375H5.83229C5.828 15.9375 5.82484 15.9363 5.82484 15.9363C5.82484 15.9363 5.8207 15.9341 5.81829 15.9316C5.8159 15.9293 5.8137 15.9251 5.8137 15.9251C5.8137 15.9251 5.8125 15.922 5.8125 15.9177C5.8125 15.9138 5.81366 15.9099 5.81582 15.9067L7.73185 13.0327C7.94745 12.7093 8.0625 12.3293 8.0625 11.9406V8.625Z" fill="#292632"/>
<path d="M14.2327 19.0307C14.0945 20.1408 13.1476 21 12 21C10.8524 21 9.90549 20.1408 9.76733 19.0307C9.74815 18.8766 9.87591 18.75 10.0312 18.75H13.9687C14.1241 18.75 14.2518 18.8766 14.2327 19.0307Z" fill="#292632"/>
</svg>
