<svg xmlns="http://www.w3.org/2000/svg" width="20" height="22" viewBox="5 3 20 22" fill="none">
<path fill-rule="evenodd" clip-rule="evenodd" d="M17 6C17.5523 6 18 5.55228 18 5C18 4.68153 17.7926 4.44573 17.5667 4.18891C17.2966 3.88178 17 3.54459 17 3C17 3.57367 16.6709 3.96559 16.3903 4.29976C16.1818 4.5481 16 4.76455 16 5C16 5.55228 16.4477 6 17 6ZM22 6C22 6.55228 21.5523 7 21 7C20.4477 7 20 6.55228 20 6C20 5.76455 20.1818 5.5481 20.3903 5.29976C20.6709 4.96559 21 4.57367 21 4C21 4.54459 21.2966 4.88178 21.5667 5.18891C21.7926 5.44573 22 5.68153 22 6ZM16.25 11V10.7795C15.8427 10.7601 15.4253 10.75 15 10.75C14.9164 10.75 14.833 10.7504 14.75 10.7512V14C14.75 14.4142 14.4142 14.75 14 14.75C13.5858 14.75 13.25 14.4142 13.25 14V10.8083C13.0813 10.8197 12.9146 10.8327 12.75 10.8473V11C12.75 11.4142 12.4142 11.75 12 11.75C11.5961 11.75 11.2668 11.4307 11.2506 11.0308C10.7153 11.1158 10.2128 11.2181 9.75 11.335V13C9.75 13.4142 9.41421 13.75 9 13.75C8.58579 13.75 8.25 13.4142 8.25 13V11.8221C7.78804 12.0152 7.42785 12.2193 7.17188 12.4209C6.80193 12.7124 6.75 12.9141 6.75 13C6.75 13.0859 6.80193 13.2876 7.17188 13.5791C7.53338 13.8639 8.10272 14.1534 8.87305 14.4102C10.4065 14.9213 12.5729 15.25 15 15.25C17.4271 15.25 19.5935 14.9213 21.127 14.4102C21.8973 14.1534 22.4666 13.8639 22.8281 13.5791C23.1981 13.2876 23.25 13.0859 23.25 13C23.25 12.9141 23.1981 12.7124 22.8281 12.4209C22.5721 12.2193 22.212 12.0152 21.75 11.8221V12C21.75 12.4142 21.4142 12.75 21 12.75C20.5858 12.75 20.25 12.4142 20.25 12V11.335C20.0881 11.2941 19.9213 11.255 19.75 11.2178V14C19.75 14.4142 19.4142 14.75 19 14.75C18.5858 14.75 18.25 14.4142 18.25 14V10.9578C18.086 10.9359 17.9192 10.9156 17.75 10.8969V11C17.75 11.4142 17.4142 11.75 17 11.75C16.5858 11.75 16.25 11.4142 16.25 11ZM12.75 9.3418C13.0953 9.31307 13.4475 9.29085 13.8055 9.27547C13.8675 9.25886 13.9327 9.25 14 9.25C14.048 9.25 14.095 9.25451 14.1405 9.26314C14.4239 9.25443 14.7106 9.25 15 9.25C15.4231 9.25 15.8404 9.25947 16.25 9.27791V7C16.25 6.58579 16.5858 6.25 17 6.25C17.4142 6.25 17.75 6.58579 17.75 7V9.38843C17.9927 9.41354 18.2315 9.44192 18.4659 9.47343C18.6019 9.3355 18.791 9.25 19 9.25C19.2962 9.25 19.5523 9.42168 19.6742 9.67095C19.8704 9.70913 20.0625 9.74969 20.25 9.79253V8C20.25 7.58579 20.5858 7.25 21 7.25C21.4142 7.25 21.75 7.58579 21.75 8V10.2176C22.5457 10.4948 23.2395 10.8355 23.7568 11.2432C24.2977 11.6694 24.75 12.2575 24.75 13V21C24.75 21.7425 24.2977 22.3306 23.7568 22.7568C23.2076 23.1897 22.4594 23.547 21.6016 23.833C19.8777 24.4076 17.5435 24.75 15 24.75C12.4565 24.75 10.1223 24.4076 8.39844 23.833C7.54061 23.547 6.79244 23.1897 6.24316 22.7568C5.70226 22.3306 5.25 21.7425 5.25 21V13C5.25 12.2575 5.70226 11.6694 6.24316 11.2432C6.76052 10.8355 7.45432 10.4948 8.25 10.2176V9C8.25 8.58579 8.58579 8.25 9 8.25C9.41421 8.25 9.75 8.58579 9.75 9V9.79253C10.2229 9.68448 10.7247 9.59097 11.25 9.51347V7C11.25 6.58579 11.5858 6.25 12 6.25C12.4142 6.25 12.75 6.58579 12.75 7V9.3418ZM23.25 15.1031V21C23.25 21.0859 23.1981 21.2876 22.8281 21.5791C22.4666 21.8639 21.8973 22.1534 21.127 22.4102C19.5935 22.9213 17.4271 23.25 15 23.25C12.5729 23.25 10.4065 22.9213 8.87305 22.4102C8.10272 22.1534 7.53338 21.8639 7.17188 21.5791C6.80193 21.2876 6.75 21.0859 6.75 21V15.1031C7.22051 15.3844 7.78108 15.6272 8.39844 15.833C10.1223 16.4076 12.4565 16.75 15 16.75C17.5435 16.75 19.8777 16.4076 21.6016 15.833C22.2189 15.6272 22.7795 15.3844 23.25 15.1031ZM13 5C13 5.55228 12.5523 6 12 6C11.4477 6 11 5.55228 11 5C11 4.76455 11.1818 4.5481 11.3903 4.29976C11.6709 3.96559 12 3.57367 12 3C12 3.54459 12.2966 3.88178 12.5667 4.18891C12.7926 4.44573 13 4.68153 13 5ZM9 8C9.55228 8 10 7.55228 10 7C10 6.68153 9.7926 6.44573 9.56671 6.18891C9.29658 5.88178 9 5.54459 9 5C9 5.57367 8.6709 5.96559 8.39029 6.29976C8.18176 6.5481 8 6.76455 8 7C8 7.55228 8.44772 8 9 8ZM15 8C15 8.55228 14.5523 9 14 9C13.4477 9 13 8.55228 13 8C13 7.76454 13.1818 7.5481 13.3903 7.29976C13.6709 6.96559 14 6.57367 14 6C14 6.54459 14.2966 6.88178 14.5667 7.18891C14.7926 7.44573 15 7.68153 15 8ZM19 9C19.5523 9 20 8.55228 20 8C20 7.68153 19.7926 7.44573 19.5667 7.18891C19.2966 6.88178 19 6.54459 19 6C19 6.57367 18.6709 6.96559 18.3903 7.29976C18.1818 7.5481 18 7.76454 18 8C18 8.55228 18.4477 9 19 9Z" fill="white"/>
</svg>
