<svg width="24" height="24" viewBox="0 0 24 24" fill="none" xmlns="http://www.w3.org/2000/svg">
<path fill-rule="evenodd" clip-rule="evenodd" d="M7.82141 4.92857C7.64389 4.92857 7.49998 5.07248 7.49998 5.25V17.9925L11.387 14.7914C11.7431 14.4981 12.2569 14.4981 12.613 14.7914L16.5 17.9925V5.25C16.5 5.07248 16.3561 4.92857 16.1786 4.92857H7.82141ZM5.57141 5.25C5.57141 4.00736 6.57877 3 7.82141 3H16.1786C17.4212 3 18.4286 4.00736 18.4286 5.25V20.0357C18.4286 20.4088 18.2133 20.7485 17.8758 20.9078C17.5383 21.067 17.1394 21.0172 16.8512 20.78L12 16.7849L7.1487 20.78C6.86066 21.0172 6.46161 21.067 6.12415 20.9078C5.78669 20.7485 5.57141 20.4088 5.57141 20.0357V5.25Z" fill="#292632"/>
</svg>
