<svg width="24" height="24" viewBox="0 0 24 24" fill="none" xmlns="http://www.w3.org/2000/svg">
<path fill-rule="evenodd" clip-rule="evenodd" d="M3.20264 3.18334C2.7713 2.87099 2.16842 2.96745 1.85607 3.39879C1.54372 3.83013 1.64018 4.43301 2.07152 4.74536L5.52992 7.24973V20.0357C5.52992 20.4025 5.7381 20.7377 6.067 20.9002C6.3959 21.0627 6.78853 21.0245 7.07996 20.8017L11.9585 17.0711L16.8369 20.8017C17.1284 21.0245 17.5211 21.0627 17.85 20.9002C18.1788 20.7377 18.387 20.4025 18.387 20.0357V16.56L20.7143 18.2452C21.1456 18.5577 21.7485 18.4612 22.0609 18.0299C22.3732 17.5985 22.2768 16.9956 21.8454 16.6832L17.9965 13.8962C17.9906 13.8918 17.9847 13.8875 17.9788 13.8833L7.068 5.98239C7.06214 5.97803 7.05621 5.97375 7.05024 5.96953L3.20264 3.18334ZM7.45848 8.64626V18.0844L11.3727 15.0911C11.7185 14.8268 12.1985 14.8268 12.5442 15.0911L16.4584 18.0844V15.1635L7.45848 8.64626ZM9.21347 3.00008C8.68092 3.00008 8.24919 3.43181 8.24919 3.96436C8.24919 4.49691 8.68092 4.92864 9.21347 4.92864H16.137C16.3146 4.92864 16.4584 5.07255 16.4584 5.25007V9.90898C16.4584 10.4415 16.8902 10.8733 17.4227 10.8733C17.9553 10.8733 18.387 10.4415 18.387 9.90898V5.25007C18.387 4.00743 17.3796 3.00008 16.137 3.00008H9.21347Z" fill="#292632"/>
</svg>
