<svg width="19" height="20" viewBox="0 0 19 20" fill="none" xmlns="http://www.w3.org/2000/svg">
<path d="M18.1142 3.40009C18.4614 3.74724 18.4614 4.3111 18.1142 4.65825C17.767 5.00489 17.2038 5.00454 16.8568 4.65756L16.2284 4.02917L14.3425 5.91502L16.2291 7.80156C16.5757 8.14868 16.5759 8.71132 16.2291 9.05833C15.8821 9.40505 15.3187 9.40561 14.9716 9.05902L14.3425 8.42994L8.0573 14.7152L7.98963 14.776C7.66226 15.0431 7.18875 15.0413 6.86268 14.7718L6.79984 14.7145L5.54306 15.9713C5.21758 16.2968 4.70243 16.3176 4.35327 16.0327L4.2856 15.972L2.39975 17.8578C2.05271 18.2047 1.49012 18.2046 1.14298 17.8578C0.795875 17.5107 0.795961 16.9482 1.14298 16.601L3.02883 14.7152L2.96806 14.6475C2.68298 14.2984 2.70326 13.7826 3.02883 13.457L4.2856 12.2003L4.22484 12.1326C3.94008 11.7835 3.96016 11.2689 4.2856 10.9435L10.5708 4.65825L9.94315 4.03055C9.59609 3.68349 9.59627 3.11957 9.94315 2.7724C10.2903 2.42543 10.8535 2.426 11.2006 2.77309L13.0858 4.65825L14.9716 2.7724L14.3425 2.14332C13.9959 1.79631 13.996 1.23364 14.3425 0.88655C14.6896 0.539504 15.2528 0.539022 15.6 0.88586L18.1142 3.40009ZM8.68638 9.05764L9.94315 10.3144L13.0851 7.17248L11.8283 5.91571L8.68638 9.05764Z" fill="white"/>
<path d="M13.7756 19.1144C16.0596 19.1144 17.9448 17.2291 17.9448 14.9491C17.9448 12.6691 16.0556 10.7839 13.7716 10.7839C11.4916 10.7839 9.61035 12.6691 9.61035 14.9491C9.61035 17.2291 11.4956 19.1144 13.7756 19.1144ZM13.7675 16.8263C13.5218 16.8263 13.3728 16.6491 13.3728 16.3953V15.3479H12.261C12.0112 15.3479 11.8259 15.1989 11.8259 14.9572C11.8259 14.7074 12.0031 14.5544 12.261 14.5544H13.3728V13.4466C13.3728 13.1928 13.5218 13.0156 13.7675 13.0156C14.0133 13.0156 14.1704 13.1848 14.1704 13.4466V14.5544H15.2862C15.544 14.5544 15.7172 14.7074 15.7172 14.9572C15.7172 15.1989 15.54 15.3479 15.2862 15.3479H14.1704V16.3953C14.1704 16.6571 14.0133 16.8263 13.7675 16.8263Z" fill="white"/>
</svg>
