<svg width="24" height="24" viewBox="0 0 24 24" fill="none" xmlns="http://www.w3.org/2000/svg">
<path fill-rule="evenodd" clip-rule="evenodd" d="M10.5938 3.5625C10.0716 3.5625 9.57085 3.76992 9.20163 4.13913C8.83242 4.50835 8.625 5.00911 8.625 5.53125V6.9375H4.96875C4.44661 6.9375 3.94585 7.14492 3.57663 7.51413C3.20742 7.88335 3 8.38411 3 8.90625L3 18.4688C3 19.5555 3.882 20.4375 4.96875 20.4375H19.0312C19.5534 20.4375 20.0542 20.2301 20.4234 19.8609C20.7926 19.4917 21 18.9909 21 18.4688V8.90625C21 8.38411 20.7926 7.88335 20.4234 7.51413C20.0542 7.14492 19.5534 6.9375 19.0312 6.9375H15.375V5.53125C15.375 5.00911 15.1676 4.50835 14.7984 4.13913C14.4292 3.76992 13.9284 3.5625 13.4062 3.5625H10.5938ZM13.6875 6.9375V5.53125C13.6875 5.45666 13.6579 5.38512 13.6051 5.33238C13.5524 5.27963 13.4808 5.25 13.4062 5.25H10.5938C10.5192 5.25 10.4476 5.27963 10.3949 5.33238C10.3421 5.38512 10.3125 5.45666 10.3125 5.53125V6.9375H13.6875ZM8.625 8.625H4.96875C4.89416 8.625 4.82262 8.65463 4.76988 8.70738C4.71713 8.76012 4.6875 8.83166 4.6875 8.90625V10.3125C4.6875 10.9092 4.92455 11.4815 5.34651 11.9035C5.76847 12.3254 6.34076 12.5625 6.9375 12.5625H17.0625C17.6592 12.5625 18.2315 12.3254 18.6535 11.9035C19.0754 11.4815 19.3125 10.9092 19.3125 10.3125V8.90625C19.3125 8.83166 19.2829 8.76012 19.2301 8.70738C19.1774 8.65463 19.1058 8.625 19.0312 8.625H8.625ZM6.9375 14.25C6.13288 14.2514 5.34732 14.0051 4.6875 13.5446V18.4688C4.6875 18.624 4.8135 18.75 4.96875 18.75H19.0312C19.1058 18.75 19.1774 18.7204 19.2301 18.6676C19.2829 18.6149 19.3125 18.5433 19.3125 18.4688V13.5446C18.6527 14.0051 17.8671 14.2514 17.0625 14.25H6.9375Z" fill="#292632"/>
</svg>
