<svg width="24" height="24" viewBox="0 0 24 24" fill="none" xmlns="http://www.w3.org/2000/svg">
<path fill-rule="evenodd" clip-rule="evenodd" d="M8.34375 3C8.80974 3 9.1875 3.37776 9.1875 3.84375V5.25H14.8125V3.84375C14.8125 3.37776 15.1903 3 15.6562 3C16.1222 3 16.5 3.37776 16.5 3.84375V5.25H17.9062C18.9936 5.25 19.875 6.13144 19.875 7.21875V19.0312C19.875 20.1186 18.9936 21 17.9062 21H6.09375C5.00644 21 4.125 20.1186 4.125 19.0312V7.21875C4.125 6.13144 5.00644 5.25 6.09375 5.25H7.5V3.84375C7.5 3.37776 7.87776 3 8.34375 3ZM17.9062 6.9375C18.0616 6.9375 18.1875 7.06342 18.1875 7.21875V9.75H5.8125V7.21875C5.8125 7.06342 5.93842 6.9375 6.09375 6.9375H17.9062ZM5.8125 11.4375V19.0312C5.8125 19.1866 5.93842 19.3125 6.09375 19.3125H17.9062C18.0616 19.3125 18.1875 19.1866 18.1875 19.0312V11.4375H5.8125Z" fill="#292632"/>
<path d="M7.92188 14.9219H9.32812C9.56016 14.9219 9.75 14.7583 9.75 14.5584V13.3467C9.75 13.1468 9.56016 12.9832 9.32812 12.9832H7.92188C7.68984 12.9832 7.5 13.1468 7.5 13.3467V14.5584C7.5 14.7583 7.68984 14.9219 7.92188 14.9219Z" fill="#292632"/>
<path d="M13.125 13.3467V14.5584C13.125 14.7583 12.9352 14.9219 12.7031 14.9219H11.2969C11.0648 14.9219 10.875 14.7583 10.875 14.5584V13.3467C10.875 13.1468 11.0648 12.9832 11.2969 12.9832H12.7031C12.9352 12.9832 13.125 13.1468 13.125 13.3467Z" fill="#292632"/>
<path d="M16.5 13.3467V14.5584C16.5 14.7583 16.3102 14.9219 16.0781 14.9219H14.6719C14.4398 14.9219 14.25 14.7583 14.25 14.5584V13.3467C14.25 13.1468 14.4398 12.9832 14.6719 12.9832H16.0781C16.3102 12.9832 16.5 13.1468 16.5 13.3467Z" fill="#292632"/>
<path d="M13.125 16.2547V17.4664C13.125 17.6663 12.9352 17.8299 12.7031 17.8299H11.2969C11.0648 17.8299 10.875 17.6663 10.875 17.4664V16.2547C10.875 16.0548 11.0648 15.8912 11.2969 15.8912H12.7031C12.9352 15.8912 13.125 16.0548 13.125 16.2547Z" fill="#292632"/>
<path d="M9.75 16.2547V17.4664C9.75 17.6663 9.56016 17.8299 9.32812 17.8299H7.92188C7.68984 17.8299 7.5 17.6663 7.5 17.4664V16.2547C7.5 16.0548 7.68984 15.8912 7.92188 15.8912H9.32812C9.56016 15.8912 9.75 16.0548 9.75 16.2547Z" fill="#292632"/>
<path d="M16.5 16.2547V17.4664C16.5 17.6663 16.3102 17.8299 16.0781 17.8299H14.6719C14.4398 17.8299 14.25 17.6663 14.25 17.4664V16.2547C14.25 16.0548 14.4398 15.8912 14.6719 15.8912H16.0781C16.3102 15.8912 16.5 16.0548 16.5 16.2547Z" fill="#292632"/>
</svg>
