<svg width="24" height="24" viewBox="0 0 24 24" fill="none" xmlns="http://www.w3.org/2000/svg">
<path fill-rule="evenodd" clip-rule="evenodd" d="M8.34375 3C8.80974 3 9.1875 3.37776 9.1875 3.84375V5.25H14.8125V3.84375C14.8125 3.37776 15.1903 3 15.6562 3C16.1222 3 16.5 3.37776 16.5 3.84375V5.25H17.9062C18.9936 5.25 19.875 6.13144 19.875 7.21875V19.0312C19.875 20.1186 18.9936 21 17.9062 21H6.09375C5.00644 21 4.125 20.1186 4.125 19.0312V7.21875C4.125 6.13144 5.00644 5.25 6.09375 5.25H7.5V3.84375C7.5 3.37776 7.87776 3 8.34375 3ZM17.9062 6.9375C18.0616 6.9375 18.1875 7.06342 18.1875 7.21875V9.75H5.8125V7.21875C5.8125 7.06342 5.93842 6.9375 6.09375 6.9375H17.9062ZM5.8125 11.4375V19.0312C5.8125 19.1866 5.93842 19.3125 6.09375 19.3125H17.9062C18.0616 19.3125 18.1875 19.1866 18.1875 19.0312V11.4375H5.8125Z" fill="#292632"/>
</svg>
