<svg width="24" height="24" viewBox="0 0 24 24" fill="none" xmlns="http://www.w3.org/2000/svg">
<path fill-rule="evenodd" clip-rule="evenodd" d="M12 9C9.92893 9 8.25 10.6789 8.25 12.75C8.25 14.8211 9.92893 16.5 12 16.5C14.0711 16.5 15.75 14.8211 15.75 12.75C15.75 10.6789 14.0711 9 12 9ZM9.75 12.75C9.75 11.5074 10.7574 10.5 12 10.5C13.2426 10.5 14.25 11.5074 14.25 12.75C14.25 13.9926 13.2426 15 12 15C10.7574 15 9.75 13.9926 9.75 12.75Z" fill="#292632"/>
<path fill-rule="evenodd" clip-rule="evenodd" d="M9.75 4.5C9.49924 4.5 9.26506 4.62533 9.12596 4.83397L7.84861 6.75H5.25C4.65326 6.75 4.08097 6.98705 3.65901 7.40901C3.23705 7.83097 3 8.40326 3 9V17.25C3 17.8467 3.23705 18.419 3.65901 18.841C4.08097 19.2629 4.65326 19.5 5.25 19.5H18.75C19.3467 19.5 19.919 19.2629 20.341 18.841C20.7629 18.419 21 17.8467 21 17.25V9C21 8.40326 20.7629 7.83097 20.341 7.40901C19.919 6.98705 19.3467 6.75 18.75 6.75H16.1514L14.874 4.83397C14.7349 4.62533 14.5008 4.5 14.25 4.5H9.75ZM8.87404 7.91602L10.1514 6H13.8486L15.126 7.91602C15.2651 8.12467 15.4992 8.25 15.75 8.25H18.75C18.9489 8.25 19.1397 8.32902 19.2803 8.46967C19.421 8.61032 19.5 8.80109 19.5 9V17.25C19.5 17.4489 19.421 17.6397 19.2803 17.7803C19.1397 17.921 18.9489 18 18.75 18H5.25C5.05109 18 4.86032 17.921 4.71967 17.7803C4.57902 17.6397 4.5 17.4489 4.5 17.25V9C4.5 8.80109 4.57902 8.61032 4.71967 8.46967C4.86032 8.32902 5.05109 8.25 5.25 8.25H8.25C8.50076 8.25 8.73494 8.12467 8.87404 7.91602Z" fill="#292632"/>
</svg>
