<svg width="24" height="24" viewBox="0 0 24 24" fill="none" xmlns="http://www.w3.org/2000/svg">
<path d="M8.90625 13.4062H8.34375C8.03437 13.4062 7.78125 13.6594 7.78125 13.9688V14.5312C7.78125 14.8406 8.03437 15.0938 8.34375 15.0938H8.90625C9.21563 15.0938 9.46875 14.8406 9.46875 14.5312V13.9688C9.46875 13.6594 9.21563 13.4062 8.90625 13.4062ZM7.78125 11.7188C7.78125 11.4094 7.52813 11.1562 7.21875 11.1562H6.65625C6.34687 11.1562 6.09375 11.4094 6.09375 11.7188V12.2812C6.09375 12.5906 6.34687 12.8438 6.65625 12.8438H7.21875C7.52813 12.8438 7.78125 12.5906 7.78125 12.2812V11.7188ZM11.1562 11.7188C11.1562 11.4094 10.9031 11.1562 10.5938 11.1562H10.0312C9.72187 11.1562 9.46875 11.4094 9.46875 11.7188V12.2812C9.46875 12.5906 9.72187 12.8438 10.0312 12.8438H10.5938C10.9031 12.8438 11.1562 12.5906 11.1562 12.2812V11.7188ZM15.6562 13.4062H15.0938C14.7844 13.4062 14.5312 13.6594 14.5312 13.9688V14.5312C14.5312 14.8406 14.7844 15.0938 15.0938 15.0938H15.6562C15.9656 15.0938 16.2188 14.8406 16.2188 14.5312V13.9688C16.2188 13.6594 15.9656 13.4062 15.6562 13.4062ZM17.3438 11.1562H16.7812C16.4719 11.1562 16.2188 11.4094 16.2188 11.7188V12.2812C16.2188 12.5906 16.4719 12.8438 16.7812 12.8438H17.3438C17.6531 12.8438 17.9062 12.5906 17.9062 12.2812V11.7188C17.9062 11.4094 17.6531 11.1562 17.3438 11.1562ZM20.9789 16.3418L20.0824 10.0734C19.9629 9.24375 19.2527 8.625 18.4125 8.625H10.3125V7.5H13.6875C13.9969 7.5 14.25 7.24688 14.25 6.9375V3.5625C14.25 3.25312 13.9969 3 13.6875 3H4.6875C4.37812 3 4.125 3.25312 4.125 3.5625V6.9375C4.125 7.24688 4.37812 7.5 4.6875 7.5H8.0625V8.625H5.5875C4.74727 8.625 4.03711 9.24375 3.91758 10.0734L3.02109 16.3418C3.00703 16.4473 3 16.5527 3 16.6617V19.3125C3 20.2441 3.75586 21 4.6875 21H19.3125C20.2441 21 21 20.2441 21 19.3125V16.6582C21 16.5527 20.993 16.4473 20.9789 16.3418ZM5.8125 5.8125V4.6875H12.5625V5.8125H5.8125ZM5.5875 10.3125H18.409L19.2141 15.9375H4.78594L5.5875 10.3125ZM19.3125 19.3125H4.6875V17.625H19.3125V19.3125ZM14.5312 11.7188C14.5312 11.4094 14.2781 11.1562 13.9688 11.1562H13.4062C13.0969 11.1562 12.8438 11.4094 12.8438 11.7188V12.2812C12.8438 12.5906 13.0969 12.8438 13.4062 12.8438H13.9688C14.2781 12.8438 14.5312 12.5906 14.5312 12.2812V11.7188ZM12.2812 13.4062H11.7188C11.4094 13.4062 11.1562 13.6594 11.1562 13.9688V14.5312C11.1562 14.8406 11.4094 15.0938 11.7188 15.0938H12.2812C12.5906 15.0938 12.8438 14.8406 12.8438 14.5312V13.9688C12.8438 13.6594 12.5906 13.4062 12.2812 13.4062Z" fill="#292632"/>
</svg>
