<svg width="12" height="21" viewBox="0 0 12 21" fill="none" xmlns="http://www.w3.org/2000/svg">
<path d="M11.8 20.4L10.3 14.6H10.4C11 14.6 11.4 14.1 11.4 13.6V12.7C11.4 12.1 10.9 11.7 10.4 11.7L3.8 11.9L3 1C3 0.4 2.5 0 1.9 0L1 0.0999999C0.4 0.0999999 0 0.6 0 1.2L0.8 13.9C0.8 14 0.8 14.1 0.9 14.2C1.1 14.6 1.4 14.9 1.9 14.9H2L0.5 20.4C0.4 20.6 0.6 20.9 0.8 20.9C1 21 1.3 20.8 1.3 20.6L1.9 18.2H10.1L10.7 20.6C10.8 20.8 11 21 11.2 20.9C11.8 20.9 11.9 20.6 11.8 20.4ZM2.3 17.3L2.9 14.9L9.3 14.7L10 17.3H2.3Z" fill="white"/>
</svg>
