<svg width="24" height="24" viewBox="0 0 24 24" fill="none" xmlns="http://www.w3.org/2000/svg">
<path fill-rule="evenodd" clip-rule="evenodd" d="M20.6705 5.75752C20.8815 5.96879 21 6.2552 21 6.55381C21 6.85242 20.8815 7.13881 20.6705 7.3501L9.7779 18.2427C9.56662 18.4536 9.28022 18.5722 8.98162 18.5722C8.68301 18.5722 8.3966 18.4536 8.18533 18.2427L3.30243 13.3598C3.10339 13.1462 2.99504 12.8637 3.00017 12.5717C3.00533 12.2798 3.12358 12.0013 3.33005 11.7948C3.5365 11.5884 3.81503 11.4701 4.10695 11.465C4.39888 11.4598 4.68139 11.5682 4.89501 11.7672L8.98162 15.8538L19.0779 5.75752C19.2892 5.5465 19.5755 5.42798 19.8742 5.42798C20.1728 5.42798 20.4593 5.5465 20.6705 5.75752Z" fill="#292632"/>
</svg>
