<svg width="24" height="24" viewBox="0 0 24 24" fill="none" xmlns="http://www.w3.org/2000/svg">
<path fill-rule="evenodd" clip-rule="evenodd" d="M12 21C16.9706 21 21 16.9706 21 12C21 7.02943 16.9706 3 12 3C7.02943 3 3 7.02943 3 12C3 16.9706 7.02943 21 12 21ZM16.2528 10.0654C16.5824 9.73587 16.5824 9.20163 16.2528 8.87213C15.9233 8.54263 15.3892 8.54263 15.0597 8.87213L10.5938 13.338L8.94037 11.6846C8.61087 11.3551 8.07663 11.3551 7.74713 11.6846C7.41763 12.0141 7.41763 12.5484 7.74713 12.8779L9.99713 15.1278C10.3266 15.4574 10.8609 15.4574 11.1904 15.1278L16.2528 10.0654Z" fill="#292632"/>
</svg>
