<svg width="24" height="24" viewBox="0 0 24 24" fill="none" xmlns="http://www.w3.org/2000/svg">
<path d="M16.2529 10.0654C16.5824 9.73587 16.5824 9.20163 16.2529 8.87213C15.9234 8.54262 15.3891 8.54262 15.0596 8.87213L10.5938 13.338L8.94037 11.6846C8.61087 11.3551 8.07663 11.3551 7.74713 11.6846C7.41762 12.0141 7.41762 12.5484 7.74713 12.8779L9.99713 15.1279C10.3266 15.4574 10.8609 15.4574 11.1904 15.1279L16.2529 10.0654Z" fill="#292632"/>
<path fill-rule="evenodd" clip-rule="evenodd" d="M3 12C3 7.02944 7.02944 3 12 3C16.9706 3 21 7.02944 21 12C21 16.9706 16.9706 21 12 21C7.02944 21 3 16.9706 3 12ZM4.6875 12C4.6875 7.96142 7.96142 4.6875 12 4.6875C16.0386 4.6875 19.3125 7.96142 19.3125 12C19.3125 16.0386 16.0386 19.3125 12 19.3125C7.96142 19.3125 4.6875 16.0386 4.6875 12Z" fill="#292632"/>
</svg>
