<svg width="16" height="16" viewBox="0 0 16 16" fill="none" xmlns="http://www.w3.org/2000/svg">
<path fill-rule="evenodd" clip-rule="evenodd" d="M3.57866 12.042H2.3169C0.767383 12.042 0 11.2746 0 9.75461V2.28739C0 0.767383 0.767383 0 2.3169 0H9.7251C11.2599 0 12.0346 0.767383 12.0346 2.28739V3.41633H13.3038C14.8385 3.41633 15.6133 4.18371 15.6133 5.70372V13.1709C15.6133 14.6909 14.8385 15.4583 13.3038 15.4583H5.89556C4.34604 15.4583 3.57866 14.6909 3.57866 13.1709V12.042ZM1.18797 9.6882C1.18797 10.4556 1.59379 10.854 2.33166 10.854H3.57866V5.70372C3.57866 4.17633 4.34604 3.41633 5.89556 3.41633H10.8467V2.3538C10.8467 1.58642 10.4334 1.18797 9.70296 1.18797H2.33166C1.59379 1.18797 1.18797 1.58642 1.18797 2.3538V9.6882ZM9.15297 12.6039C9.03796 12.7744 8.87535 12.8617 8.66515 12.8617C8.45892 12.8617 8.31218 12.7823 8.17337 12.6078L6.11898 10.0458C6.01586 9.92284 5.97223 9.80386 5.97223 9.68091C5.97223 9.40329 6.17847 9.20103 6.46402 9.20103C6.63852 9.20103 6.76147 9.26448 6.88045 9.41916L8.64532 11.6837L12.0839 6.23049C12.2028 6.04409 12.3218 5.9727 12.5161 5.9727C12.8017 5.9727 13 6.16703 13 6.44862C13 6.5557 12.9643 6.66675 12.881 6.79763L9.15297 12.6039Z" fill="white"/>
</svg>
