<svg width="24" height="24" viewBox="0 0 24 24" fill="none" xmlns="http://www.w3.org/2000/svg">
<path fill-rule="evenodd" clip-rule="evenodd" d="M11.0909 3.37658C11.593 2.87447 12.4071 2.87447 12.9092 3.37658L19.3378 9.80515C19.8399 10.3073 19.8399 11.1213 19.3378 11.6234C18.8357 12.1255 18.0216 12.1255 17.5195 11.6234L12.0001 6.10399L6.48062 11.6234C5.97852 12.1255 5.16445 12.1255 4.66234 11.6234C4.16024 11.1213 4.16024 10.3073 4.66234 9.80515L11.0909 3.37658Z" fill="#292632"/>
<path fill-rule="evenodd" clip-rule="evenodd" d="M11.0909 12.3766C11.593 11.8745 12.4071 11.8745 12.9092 12.3766L19.3378 18.8051C19.8399 19.3073 19.8399 20.1213 19.3378 20.6234C18.8357 21.1255 18.0216 21.1255 17.5195 20.6234L12.0001 15.104L6.48062 20.6234C5.97852 21.1255 5.16445 21.1255 4.66234 20.6234C4.16024 20.1213 4.16024 19.3073 4.66234 18.8051L11.0909 12.3766Z" fill="#292632"/>
</svg>
