<svg width="24" height="24" viewBox="0 0 24 24" fill="none" xmlns="http://www.w3.org/2000/svg">
<path fill-rule="evenodd" clip-rule="evenodd" d="M11.6234 4.66222C12.1255 5.16432 12.1255 5.97839 11.6234 6.4805L6.10399 11.9999L11.6234 17.5194C12.1255 18.0215 12.1255 18.8355 11.6234 19.3376C11.1213 19.8397 10.3073 19.8397 9.80515 19.3376L3.37658 12.9091C2.87447 12.407 2.87447 11.5929 3.37658 11.0908L9.80515 4.66222C10.3073 4.16012 11.1213 4.16012 11.6234 4.66222Z" fill="#292632"/>
<path fill-rule="evenodd" clip-rule="evenodd" d="M20.6234 4.66222C21.1255 5.16432 21.1255 5.97839 20.6234 6.4805L15.104 11.9999L20.6234 17.5194C21.1255 18.0215 21.1255 18.8355 20.6234 19.3376C20.1213 19.8397 19.3073 19.8397 18.8051 19.3376L12.3766 12.9091C11.8745 12.407 11.8745 11.5929 12.3766 11.0908L18.8051 4.66222C19.3073 4.16012 20.1213 4.16012 20.6234 4.66222Z" fill="#292632"/>
</svg>
