<svg width="24" height="24" viewBox="0 0 24 24" fill="none" xmlns="http://www.w3.org/2000/svg">
<path fill-rule="evenodd" clip-rule="evenodd" d="M4.66234 12.3766C5.16445 11.8745 5.97852 11.8745 6.48062 12.3766L12.0001 17.896L17.5195 12.3766C18.0216 11.8745 18.8357 11.8745 19.3378 12.3766C19.8399 12.8787 19.8399 13.6927 19.3378 14.1949L12.9092 20.6234C12.4071 21.1255 11.593 21.1255 11.0909 20.6234L4.66234 14.1949C4.16024 13.6927 4.16024 12.8787 4.66234 12.3766Z" fill="#292632"/>
<path fill-rule="evenodd" clip-rule="evenodd" d="M4.66234 3.37658C5.16445 2.87447 5.97852 2.87447 6.48062 3.37658L12.0001 8.89601L17.5195 3.37658C18.0216 2.87447 18.8357 2.87447 19.3378 3.37658C19.8399 3.87868 19.8399 4.69275 19.3378 5.19485L12.9092 11.6234C12.4071 12.1255 11.593 12.1255 11.0909 11.6234L4.66234 5.19485C4.16024 4.69275 4.16024 3.87868 4.66234 3.37658Z" fill="#292632"/>
</svg>
