<svg width="24" height="24" viewBox="0 0 24 24" fill="none" xmlns="http://www.w3.org/2000/svg">
<path fill-rule="evenodd" clip-rule="evenodd" d="M12.3766 4.66222C12.8787 4.16012 13.6927 4.16012 14.1949 4.66222L20.6234 11.0908C21.1255 11.5929 21.1255 12.407 20.6234 12.9091L14.1949 19.3376C13.6927 19.8397 12.8787 19.8397 12.3766 19.3376C11.8745 18.8355 11.8745 18.0215 12.3766 17.5194L17.896 11.9999L12.3766 6.4805C11.8745 5.97839 11.8745 5.16432 12.3766 4.66222Z" fill="#292632"/>
<path fill-rule="evenodd" clip-rule="evenodd" d="M3.37658 4.66222C3.87868 4.16012 4.69275 4.16012 5.19485 4.66222L11.6234 11.0908C12.1255 11.5929 12.1255 12.407 11.6234 12.9091L5.19485 19.3376C4.69275 19.8397 3.87868 19.8397 3.37658 19.3376C2.87447 18.8355 2.87447 18.0215 3.37658 17.5194L8.89601 11.9999L3.37658 6.4805C2.87447 5.97839 2.87447 5.16432 3.37658 4.66222Z" fill="#292632"/>
</svg>
