<svg width="13" height="17" viewBox="0 0 13 17" fill="none" xmlns="http://www.w3.org/2000/svg">
<path fill-rule="evenodd" clip-rule="evenodd" d="M11.8216 4.08168L8.74985 7.15347V15.8218C8.74985 16.474 8.22385 17 7.57163 17C6.9194 17 6.39341 16.474 6.39341 15.8218V11.7822H5.72014V15.8218C5.72014 16.474 5.19415 17 4.54192 17C3.8897 17 3.36371 16.474 3.36371 15.8218V7.15347L0.291925 4.08168C-0.0973082 3.68193 -0.0973082 3.05074 0.291925 2.65099C0.691677 2.26176 1.32286 2.26176 1.72262 2.65099L4.12113 5.04951H7.99242L10.3909 2.65099C10.7907 2.26176 11.4219 2.26176 11.8216 2.65099C12.2109 3.05074 12.2109 3.68193 11.8216 4.08168ZM8.41321 2.35644C8.41321 3.66089 7.36123 4.71287 6.05678 4.71287C4.75232 4.71287 3.70034 3.66089 3.70034 2.35644C3.70034 1.05198 4.75232 0 6.05678 0C7.36123 0 8.41321 1.05198 8.41321 2.35644Z" fill="white"/>
</svg>
