<svg width="24" height="24" viewBox="0 0 24 24" fill="none" xmlns="http://www.w3.org/2000/svg">
<path fill-rule="evenodd" clip-rule="evenodd" d="M4.6875 12C4.68749 10.6257 5.07477 9.27919 5.80493 8.11488C6.5351 6.95057 7.57858 6.0156 8.81577 5.41715C10.0529 4.8187 11.4337 4.58101 12.7998 4.73132C14.1659 4.88163 15.462 5.41387 16.5394 6.267L6.267 16.5394C5.24186 15.2487 4.685 13.6483 4.6875 12ZM7.46062 17.733C8.86651 18.8463 10.6325 19.4042 12.4228 19.3005C14.2131 19.1968 15.9029 18.4391 17.171 17.171C18.4391 15.9029 19.1968 14.2131 19.3005 12.4228C19.4042 10.6325 18.8463 8.86651 17.733 7.46062L7.46062 17.733ZM12 3C9.61305 3 7.32387 3.94821 5.63604 5.63604C3.94821 7.32387 3 9.61305 3 12C3 14.3869 3.94821 16.6762 5.63604 18.364C7.32387 20.0517 9.61305 21 12 21C14.3869 21 16.6762 20.0517 18.364 18.364C20.0517 16.6762 21 14.3869 21 12C21 9.61305 20.0517 7.32387 18.364 5.63604C16.6762 3.94821 14.3869 3 12 3Z" fill="#292632"/>
</svg>
