<svg width="24" height="24" viewBox="0 0 24 24" fill="none" xmlns="http://www.w3.org/2000/svg">
<path fill-rule="evenodd" clip-rule="evenodd" d="M9.10713 3C8.57458 3 8.14285 3.43173 8.14285 3.96429V7.82143C8.14285 8.35398 8.57458 8.78571 9.10713 8.78571H14.8928C15.4254 8.78571 15.8571 8.35398 15.8571 7.82143V3.96429C15.8571 3.43173 15.4254 3 14.8928 3H9.10713ZM10.0714 6.85714V4.92857H13.9286V6.85714H10.0714ZM6.37569 6.25671C6.83668 5.99004 6.9942 5.40016 6.72753 4.93918C6.46088 4.47819 5.87099 4.32066 5.41001 4.58733C4.74 4.97491 4.28571 5.7017 4.28571 6.53573V18.75C4.28571 19.9926 5.29306 21 6.53571 21H17.4643C18.7069 21 19.7143 19.9926 19.7143 18.75V6.53573C19.7143 5.7017 19.26 4.97491 18.5899 4.58733C18.129 4.32066 17.5391 4.47819 17.2724 4.93918C17.0058 5.40016 17.1633 5.99004 17.6243 6.25671C17.7228 6.31374 17.7857 6.41797 17.7857 6.53573V18.75C17.7857 18.9276 17.6418 19.0714 17.4643 19.0714H6.53571C6.35819 19.0714 6.21428 18.9276 6.21428 18.75V6.53573C6.21428 6.41797 6.2771 6.31374 6.37569 6.25671Z" fill="#292632"/>
</svg>
