<svg width="24" height="24" viewBox="0 0 24 24" fill="none" xmlns="http://www.w3.org/2000/svg">
<path fill-rule="evenodd" clip-rule="evenodd" d="M4.6875 12C4.6875 10.0606 5.45792 8.20064 6.82929 6.82929C8.20064 5.45792 10.0606 4.6875 12 4.6875C13.9394 4.6875 15.7994 5.45792 17.1707 6.82929C18.5421 8.20064 19.3125 10.0606 19.3125 12C19.3125 13.9394 18.5421 15.7994 17.1707 17.1707C15.7994 18.5421 13.9394 19.3125 12 19.3125C10.0606 19.3125 8.20064 18.5421 6.82929 17.1707C5.45792 15.7994 4.6875 13.9394 4.6875 12ZM12 3C9.61305 3 7.32387 3.94821 5.63604 5.63604C3.94821 7.32387 3 9.61305 3 12C3 14.3869 3.94821 16.6762 5.63604 18.364C7.32387 20.0517 9.61305 21 12 21C14.3869 21 16.6762 20.0517 18.364 18.364C20.0517 16.6762 21 14.3869 21 12C21 9.61305 20.0517 7.32387 18.364 5.63604C16.6762 3.94821 14.3869 3 12 3ZM12.5625 8.71664C12.5625 8.49286 12.4736 8.27825 12.3154 8.12002C12.1571 7.96179 11.9425 7.87289 11.7188 7.87289C11.495 7.87289 11.2804 7.96179 11.1221 8.12002C10.9639 8.27825 10.875 8.49286 10.875 8.71664V12.6541C10.875 12.8226 10.9255 12.9873 11.02 13.1268C11.1144 13.2664 11.2485 13.3745 11.4049 13.4371L14.2174 14.5621C14.4234 14.6374 14.6506 14.6294 14.8509 14.54C15.0511 14.4506 15.2087 14.2867 15.2902 14.083C15.3716 13.8794 15.3706 13.6521 15.2874 13.4492C15.2041 13.2463 15.045 13.0838 14.844 12.9961L12.5625 12.0826V8.71664Z" fill="#292632"/>
</svg>
