<svg width="24" height="24" viewBox="0 0 24 24" fill="none" xmlns="http://www.w3.org/2000/svg">
<path d="M3 4.96875C3 3.882 3.882 3 4.96875 3H19.0312C20.118 3 21 3.882 21 4.96875V19.0312C21 19.5534 20.7926 20.0542 20.4234 20.4234C20.0542 20.7926 19.5534 21 19.0312 21H4.96875C4.44661 21 3.94585 20.7926 3.57663 20.4234C3.20742 20.0542 3 19.5534 3 19.0312V4.96875ZM4.96875 4.6875C4.89416 4.6875 4.82262 4.71713 4.76988 4.76988C4.71713 4.82262 4.6875 4.89416 4.6875 4.96875V19.0312C4.6875 19.1865 4.8135 19.3125 4.96875 19.3125H19.0312C19.1058 19.3125 19.1774 19.2829 19.2301 19.2301C19.2829 19.1774 19.3125 19.1058 19.3125 19.0312V4.96875C19.3125 4.89416 19.2829 4.82262 19.2301 4.76988C19.1774 4.71713 19.1058 4.6875 19.0312 4.6875H4.96875ZM13.3725 9.15375C13.5307 8.99574 13.7452 8.90699 13.9688 8.90699C14.1923 8.90699 14.4068 8.99574 14.565 9.15375L16.815 11.4037C16.973 11.562 17.0618 11.7764 17.0618 12C17.0618 12.2236 16.973 12.438 16.815 12.5962L14.565 14.8462C14.4619 14.9573 14.3307 15.0385 14.1853 15.0813C14.0399 15.124 13.8856 15.1268 13.7388 15.0893C13.592 15.0517 13.458 14.9753 13.3509 14.8679C13.2439 14.7606 13.1678 14.6264 13.1306 14.4795C13.093 14.3328 13.0957 14.1787 13.1382 14.0334C13.1808 13.8881 13.2617 13.757 13.3725 13.6538L15.0262 12L13.3725 10.3463C13.2145 10.188 13.1257 9.97359 13.1257 9.75C13.1257 9.52641 13.2145 9.31195 13.3725 9.15375ZM10.6275 10.3463L8.97375 12L10.6275 13.6538C10.7386 13.7569 10.8198 13.8881 10.8625 14.0335C10.9053 14.1789 10.908 14.3331 10.8705 14.48C10.833 14.6268 10.7565 14.7608 10.6492 14.8678C10.5419 14.9749 10.4077 15.051 10.2607 15.0881C10.1141 15.1257 9.95998 15.1231 9.81467 15.0805C9.66937 15.038 9.53821 14.957 9.435 14.8462L7.185 12.5962C7.02699 12.438 6.93824 12.2236 6.93824 12C6.93824 11.7764 7.02699 11.562 7.185 11.4037L9.435 9.15375C9.59504 9.00479 9.8066 8.92367 10.0252 8.92745C10.2438 8.93123 10.4524 9.0196 10.6073 9.174C10.7616 9.3288 10.85 9.53743 10.8538 9.75604C10.8576 9.97465 10.7765 10.1862 10.6275 10.3463Z" fill="#292632"/>
</svg>
