<svg width="24" height="24" viewBox="0 0 24 24" fill="none" xmlns="http://www.w3.org/2000/svg">
<path fill-rule="evenodd" clip-rule="evenodd" d="M4.19945 5.69979C4.19945 5.62023 4.23106 5.54391 4.28732 5.48764C4.34359 5.43138 4.41991 5.39977 4.49947 5.39977H14.7004C14.7799 5.39977 14.8563 5.43138 14.9125 5.48764C14.9688 5.54391 15.0004 5.62023 15.0004 5.69979V12.3004C15.0004 12.3799 14.9688 12.4562 14.9125 12.5125C14.8563 12.5688 14.7799 12.6004 14.7004 12.6004H10.5C10.2614 12.6006 10.0326 12.6956 9.86394 12.8644L6.59966 16.1287V13.5005C6.59966 13.2618 6.50483 13.0328 6.33603 12.864C6.16724 12.6952 5.93829 12.6004 5.69958 12.6004H4.49947C4.41991 12.6004 4.34359 12.5688 4.28732 12.5125C4.23106 12.4562 4.19945 12.3799 4.19945 12.3004V5.69979ZM4.49947 3.59961C3.94247 3.59961 3.40828 3.82087 3.01442 4.21473C2.62056 4.6086 2.39929 5.14279 2.39929 5.69979V12.3004C2.39929 13.4597 3.34017 14.4005 4.49947 14.4005H4.7995V16.2523C4.79962 16.5981 4.90224 16.936 5.09438 17.2234C5.28652 17.5109 5.55956 17.7349 5.87899 17.8672C6.19843 17.9994 6.5499 18.0341 6.88901 17.9667C7.22812 17.8992 7.53963 17.7329 7.78416 17.4884L10.8732 14.4005H14.7004C15.2573 14.4005 15.7915 14.1793 16.1854 13.7854C16.5792 13.3916 16.8005 12.8574 16.8005 12.3004V5.69979C16.8005 5.14279 16.5792 4.6086 16.1854 4.21473C15.7915 3.82087 15.2573 3.59961 14.7004 3.59961H4.49947ZM19.8008 8.1C19.8008 8.02043 19.7692 7.94412 19.713 7.88785C19.6567 7.83159 19.5803 7.79998 19.5008 7.79998H18.9007C18.662 7.79998 18.433 7.70514 18.2643 7.53635C18.0955 7.36755 18.0007 7.13861 18.0007 6.8999C18.0007 6.66118 18.0955 6.43224 18.2643 6.26345C18.433 6.09465 18.662 5.99982 18.9007 5.99982H19.5008C20.6601 5.99982 21.601 6.9407 21.601 8.1V14.7006C21.601 15.2575 21.3797 15.7917 20.9858 16.1856C20.5919 16.5795 20.0577 16.8008 19.5008 16.8008H19.2008V18.6525C19.2006 18.9983 19.098 19.3362 18.9059 19.6236C18.7138 19.9111 18.4407 20.1351 18.1213 20.2674C17.8018 20.3996 17.4504 20.4343 17.1113 20.3669C16.7721 20.2994 16.4607 20.1331 16.2161 19.8886L13.4643 17.1368C13.3758 17.0543 13.3049 16.955 13.2557 16.8446C13.2065 16.7342 13.18 16.615 13.1779 16.4941C13.1758 16.3733 13.198 16.2533 13.2433 16.1412C13.2886 16.0291 13.3559 15.9273 13.4414 15.8419C13.5269 15.7563 13.6287 15.689 13.7408 15.6437C13.8528 15.5985 13.9729 15.5762 14.0937 15.5783C14.2146 15.5805 14.3338 15.6069 14.4441 15.6561C14.5546 15.7053 14.6539 15.7762 14.7364 15.8647L17.4006 18.5289V15.9007C17.4006 15.662 17.4954 15.433 17.6643 15.2643C17.833 15.0954 18.062 15.0006 18.3007 15.0006H19.5008C19.5803 15.0006 19.6567 14.969 19.713 14.9128C19.7692 14.8565 19.8008 14.7801 19.8008 14.7006V8.1Z" fill="#292632"/>
</svg>
