<svg width="24" height="24" viewBox="0 0 24 24" fill="none" xmlns="http://www.w3.org/2000/svg">
<path fill-rule="evenodd" clip-rule="evenodd" d="M5.25 4.92894C5.16476 4.92894 5.083 4.9628 5.02271 5.02308C4.96244 5.08336 4.92857 5.16512 4.92857 5.25037V14.8932C4.92857 15.0707 5.07257 15.2147 5.25 15.2147H7.82143C8.07717 15.2147 8.32245 15.3162 8.50328 15.4971C8.68412 15.6779 8.78571 15.9232 8.78571 16.1789V18.9947L12.2829 15.4975C12.4635 15.3166 12.7086 15.2149 12.9643 15.2147H18.75C18.8352 15.2147 18.917 15.1808 18.9773 15.1205C19.0376 15.0602 19.0714 14.9785 19.0714 14.8932V5.25037C19.0714 5.16512 19.0376 5.08336 18.9773 5.02308C18.917 4.9628 18.8352 4.92894 18.75 4.92894H5.25ZM3 5.25037C3 4.00837 4.008 3.00037 5.25 3.00037H18.75C19.992 3.00037 21 4.00837 21 5.25037V14.8932C21 15.4899 20.7629 16.0622 20.3409 16.4842C19.919 16.9061 19.3467 17.1432 18.75 17.1432H13.3629L10.0547 20.4514C9.79274 20.7133 9.459 20.8915 9.09571 20.9637C8.73241 21.036 8.35586 20.9988 8.01364 20.8571C7.67142 20.7155 7.3789 20.4754 7.17306 20.1675C6.96721 19.8596 6.85727 19.4975 6.85714 19.1271V17.1432H5.25C4.65326 17.1432 4.08096 16.9061 3.65901 16.4842C3.23705 16.0622 3 15.4899 3 14.8932V5.25037Z" fill="#292632"/>
<path d="M9.3 8.86664C8.80295 8.86664 8.4 9.26959 8.4 9.76664C8.4 10.2637 8.80295 10.6666 9.3 10.6666H14.7C15.1971 10.6666 15.6 10.2637 15.6 9.76664C15.6 9.26959 15.1971 8.86664 14.7 8.86664H9.3Z" fill="#292632"/>
</svg>
