<svg width="24" height="24" viewBox="0 0 24 24" fill="none" xmlns="http://www.w3.org/2000/svg">
<path fill-rule="evenodd" clip-rule="evenodd" d="M5.25 4.92894C5.16476 4.92894 5.083 4.9628 5.02271 5.02308C4.96244 5.08336 4.92857 5.16512 4.92857 5.25037V14.8932C4.92857 15.0707 5.07257 15.2147 5.25 15.2147H7.82143C8.07717 15.2147 8.32245 15.3162 8.50328 15.4971C8.68412 15.6779 8.78571 15.9232 8.78571 16.1789V18.9947L12.2829 15.4975C12.4635 15.3166 12.7086 15.2149 12.9643 15.2147H18.75C18.8352 15.2147 18.917 15.1808 18.9773 15.1205C19.0376 15.0602 19.0714 14.9785 19.0714 14.8932V5.25037C19.0714 5.16512 19.0376 5.08336 18.9773 5.02308C18.917 4.9628 18.8352 4.92894 18.75 4.92894H5.25ZM3 5.25037C3 4.00837 4.008 3.00037 5.25 3.00037H18.75C19.992 3.00037 21 4.00837 21 5.25037V14.8932C21 15.4899 20.7629 16.0622 20.3409 16.4842C19.919 16.9061 19.3467 17.1432 18.75 17.1432H13.3629L10.0547 20.4514C9.79274 20.7133 9.459 20.8915 9.09571 20.9637C8.73241 21.036 8.35586 20.9988 8.01364 20.8571C7.67142 20.7155 7.3789 20.4754 7.17306 20.1675C6.96721 19.8596 6.85727 19.4975 6.85714 19.1271V17.1432H5.25C4.65326 17.1432 4.08096 16.9061 3.65901 16.4842C3.23705 16.0622 3 15.4899 3 14.8932V5.25037Z" fill="#292632"/>
<path d="M9.78412 6.45617C9.45462 6.12667 8.92039 6.12667 8.59088 6.45617C8.26138 6.78568 8.26138 7.31991 8.59088 7.64942L10.8068 9.86529L8.59088 12.0812C8.26137 12.4107 8.26137 12.9449 8.59088 13.2744C8.92038 13.6039 9.45462 13.6039 9.78412 13.2744L12 11.0585L14.2159 13.2744C14.5454 13.6039 15.0796 13.6039 15.4091 13.2744C15.7386 12.9449 15.7386 12.4107 15.4091 12.0812L13.1932 9.86529L15.4091 7.64942C15.7386 7.31992 15.7386 6.78568 15.4091 6.45618C15.0796 6.12667 14.5454 6.12667 14.2159 6.45618L12 8.67205L9.78412 6.45617Z" fill="#292632"/>
</svg>
