<svg width="24" height="24" viewBox="0 0 24 24" fill="none" xmlns="http://www.w3.org/2000/svg">
<path fill-rule="evenodd" clip-rule="evenodd" d="M16.2454 8.78961C16.3433 8.49561 16.2668 8.17147 16.0477 7.95234C15.8286 7.7332 15.5044 7.65669 15.2104 7.75469L10.0068 9.48923C9.76247 9.57067 9.57076 9.76238 9.48932 10.0067L7.75478 15.2103C7.65678 15.5043 7.7333 15.8285 7.95243 16.0476C8.17157 16.2667 8.4957 16.3433 8.7897 16.2453L13.9933 14.5107C14.2377 14.4293 14.4294 14.2376 14.5108 13.9932L16.2454 8.78961ZM9.82463 14.1754L10.9123 10.9123L14.1755 9.82454L13.0878 13.0877L9.82463 14.1754Z" fill="#292632"/>
<path fill-rule="evenodd" clip-rule="evenodd" d="M12 3C7.02944 3 3 7.02944 3 12C3 16.9706 7.02944 21 12 21C16.9706 21 21 16.9706 21 12C21 7.02944 16.9706 3 12 3ZM4.63636 12C4.63636 7.93318 7.93318 4.63636 12 4.63636C16.0668 4.63636 19.3636 7.93318 19.3636 12C19.3636 16.0668 16.0668 19.3636 12 19.3636C7.93318 19.3636 4.63636 16.0668 4.63636 12Z" fill="#292632"/>
</svg>
