<svg xmlns="http://www.w3.org/2000/svg" width="20" height="17" viewBox="5 6 20 17" fill="none">
<path d="M22.1298 9.12H19.7498V8C19.7498 7.46957 19.5391 6.96086 19.164 6.58579C18.7889 6.21071 18.2802 6 17.7498 6H12.2798C11.7494 6 11.2407 6.21071 10.8656 6.58579C10.4905 6.96086 10.2798 7.46957 10.2798 8V9.12H7.8698C7.1882 9.12 6.53451 9.39077 6.05254 9.87274C5.57057 10.3547 5.2998 11.0084 5.2998 11.69V20.1C5.2998 20.7816 5.57057 21.4353 6.05254 21.9173C6.53451 22.3992 7.1882 22.67 7.8698 22.67H22.1298C22.8114 22.67 23.4651 22.3992 23.9471 21.9173C24.429 21.4353 24.6998 20.7816 24.6998 20.1V11.69C24.6998 11.0084 24.429 10.3547 23.9471 9.87274C23.4651 9.39077 22.8114 9.12 22.1298 9.12ZM11.6498 8C11.6498 7.91727 11.6661 7.83534 11.6978 7.75891C11.7294 7.68247 11.7758 7.61302 11.8343 7.55452C11.8928 7.49602 11.9623 7.44962 12.0387 7.41796C12.1151 7.3863 12.1971 7.37 12.2798 7.37H17.7198C17.8869 7.37 18.0471 7.43638 18.1653 7.55452C18.2834 7.67267 18.3498 7.83291 18.3498 8V9.12H11.6498V8ZM7.8698 21.32C7.71186 21.3201 7.55552 21.2883 7.41021 21.2264C7.2649 21.1645 7.13362 21.0738 7.0243 20.9598C6.91497 20.8458 6.82986 20.7109 6.77409 20.5631C6.71833 20.4153 6.69305 20.2578 6.6998 20.1V11.69C6.6998 11.3797 6.82307 11.0821 7.04249 10.8627C7.26191 10.6433 7.5595 10.52 7.8698 10.52H10.2498V21.32H7.8698ZM11.6498 21.32V10.52H18.3498V21.32H11.6498ZM23.2998 20.1C23.3066 20.2578 23.2813 20.4153 23.2255 20.5631C23.1697 20.7109 23.0846 20.8458 22.9753 20.9598C22.866 21.0738 22.7347 21.1645 22.5894 21.2264C22.4441 21.2883 22.2877 21.3201 22.1298 21.32H19.7498V10.52H22.1298C22.4401 10.52 22.7377 10.6433 22.9571 10.8627C23.1765 11.0821 23.2998 11.3797 23.2998 11.69V20.1Z" fill="white"/>
</svg>
