<svg width="24" height="24" viewBox="0 0 24 24" fill="none" xmlns="http://www.w3.org/2000/svg">
<path d="M14.25 13.9688C14.25 13.5028 14.6278 13.125 15.0938 13.125H16.7812C17.2472 13.125 17.625 13.5028 17.625 13.9688C17.625 14.4347 17.2472 14.8125 16.7812 14.8125H15.0938C14.6278 14.8125 14.25 14.4347 14.25 13.9688Z" fill="#292632"/>
<path fill-rule="evenodd" clip-rule="evenodd" d="M4.96875 5.25C3.88144 5.25 3 6.13144 3 7.21875V16.7812C3 17.8686 3.88144 18.75 4.96875 18.75H19.0312C20.1186 18.75 21 17.8686 21 16.7812V7.21875C21 6.13144 20.1186 5.25 19.0312 5.25H4.96875ZM19.3125 8.625V7.21875C19.3125 7.06342 19.1866 6.9375 19.0312 6.9375H4.96875C4.81342 6.9375 4.6875 7.06342 4.6875 7.21875V8.625H19.3125ZM4.6875 10.3125H19.3125V16.7812C19.3125 16.9366 19.1866 17.0625 19.0312 17.0625H4.96875C4.81342 17.0625 4.6875 16.9366 4.6875 16.7812V10.3125Z" fill="#292632"/>
</svg>
