<svg width="24" height="24" viewBox="0 0 24 24" fill="none" xmlns="http://www.w3.org/2000/svg">
<path fill-rule="evenodd" clip-rule="evenodd" d="M12.75 3.75C12.75 3.33579 12.4142 3 12 3C11.5858 3 11.25 3.33579 11.25 3.75V6H10.125C9.22989 6 8.37145 6.35558 7.73851 6.98851C7.10558 7.62145 6.75 8.47989 6.75 9.375C6.75 10.2701 7.10558 11.1285 7.73851 11.7615C8.37145 12.3944 9.22989 12.75 10.125 12.75H11.25V16.5H7.5C7.08579 16.5 6.75 16.8358 6.75 17.25C6.75 17.6642 7.08579 18 7.5 18H11.25V20.25C11.25 20.6642 11.5858 21 12 21C12.4142 21 12.75 20.6642 12.75 20.25V18H13.875C14.7701 18 15.6286 17.6444 16.2615 17.0115C16.8944 16.3785 17.25 15.5201 17.25 14.625C17.25 13.7299 16.8944 12.8715 16.2615 12.2385C15.6286 11.6056 14.7701 11.25 13.875 11.25H12.75V7.5H15.75C16.1642 7.5 16.5 7.16421 16.5 6.75C16.5 6.33579 16.1642 6 15.75 6H12.75V3.75ZM11.25 7.5H10.125C9.62772 7.5 9.15081 7.69754 8.79917 8.04917C8.44754 8.40081 8.25 8.87772 8.25 9.375C8.25 9.87228 8.44754 10.3492 8.79917 10.7008C9.15081 11.0525 9.62772 11.25 10.125 11.25H11.25V7.5ZM12.75 12.75V16.5H13.875C14.3723 16.5 14.8492 16.3025 15.2008 15.9508C15.5525 15.5992 15.75 15.1223 15.75 14.625C15.75 14.1277 15.5525 13.6508 15.2008 13.2992C14.8492 12.9475 14.3723 12.75 13.875 12.75H12.75Z" fill="#292632"/>
</svg>
