<svg width="24" height="24" viewBox="0 0 24 24" fill="none" xmlns="http://www.w3.org/2000/svg">
<path d="M20.1 6.59998H3.9C3.40303 6.59998 3 7.00301 3 7.49998V16.5C3 16.9969 3.40303 17.4 3.9 17.4H20.1C20.597 17.4 21 16.9969 21 16.5V7.49998C21 7.00301 20.597 6.59998 20.1 6.59998ZM19.65 14.25C18.6558 14.25 17.85 15.0558 17.85 16.05H6.15C6.15 15.0558 5.34422 14.25 4.35 14.25V9.74998C5.34422 9.74998 6.15 8.94419 6.15 7.94998H17.85C17.85 8.94419 18.6558 9.74998 19.65 9.74998V14.25ZM12 9.29998C10.7574 9.29998 9.75 10.5088 9.75 12C9.75 13.4909 10.7572 14.7 12 14.7C13.2423 14.7 14.25 13.4914 14.25 12C14.25 10.5088 13.2426 9.29998 12 9.29998Z" fill="#292632"/>
</svg>
