<svg width="24" height="24" viewBox="0 0 24 24" fill="none" xmlns="http://www.w3.org/2000/svg">
<path fill-rule="evenodd" clip-rule="evenodd" d="M11.2929 16.0403C11.6834 16.4308 12.3166 16.4308 12.7071 16.0403L17.707 11.0404C18.0975 10.6499 18.0975 10.0167 17.707 9.62618C17.3165 9.23566 16.6834 9.23566 16.2929 9.62618L13 12.919V3.99999C13 3.44772 12.5523 3 12 3C11.4477 3 11 3.44772 11 3.99999V12.919L7.70713 9.62618C7.31661 9.23566 6.68344 9.23566 6.29293 9.62618C5.90241 10.0167 5.90241 10.6499 6.29293 11.0404L11.2929 16.0403ZM6.33337 19C5.78109 19 5.33337 19.4477 5.33337 20C5.33337 20.5523 5.78109 21 6.33337 21H17.6666C18.2189 21 18.6666 20.5523 18.6666 20C18.6666 19.4477 18.2189 19 17.6666 19H6.33337Z" fill="#292632"/>
</svg>
