<svg width="24" height="24" viewBox="0 0 24 24" fill="none" xmlns="http://www.w3.org/2000/svg">
<path fill-rule="evenodd" clip-rule="evenodd" d="M16.2927 4.72229C17.5353 4.72229 18.5427 5.72965 18.5427 6.97229V7.07765C18.688 7.04312 18.8395 7.02484 18.9954 7.02484H19.5184C20.5953 7.02484 21.4684 7.89789 21.4684 8.97484V10.6133C21.4958 10.6115 21.5234 10.6106 21.5513 10.6106C22.2357 10.6106 22.7904 11.1654 22.7904 11.8497V12.1505C22.7904 12.8349 22.2357 13.3897 21.5513 13.3897C21.5234 13.3897 21.4958 13.3887 21.4684 13.3869V15.025C21.4684 16.102 20.5953 16.9751 19.5184 16.9751H18.9954C18.8395 16.9751 18.688 16.9568 18.5427 16.9222V17.0279C18.5427 18.2705 17.5353 19.2779 16.2927 19.2779H15.7452C14.5026 19.2779 13.4952 18.2705 13.4952 17.0279V13.1179H10.5022V17.0279C10.5022 18.2705 9.49483 19.2779 8.25219 19.2779H7.70725C6.46461 19.2779 5.45725 18.2705 5.45725 17.0279V16.9214C5.31089 16.9565 5.15812 16.9751 5.001 16.9751H4.48159C3.40463 16.9751 2.53159 16.102 2.53159 15.025V13.3869C2.50424 13.3887 2.47664 13.3897 2.44884 13.3897C1.76462 13.3897 1.20996 12.835 1.20996 12.1508V11.8495C1.20996 11.1653 1.76462 10.6106 2.44884 10.6106C2.47664 10.6106 2.50424 10.6115 2.53159 10.6133V8.97484C2.53159 7.89789 3.40463 7.02484 4.48159 7.02484H5.001C5.15812 7.02484 5.31089 7.04342 5.45725 7.07851V6.97229C5.45725 5.72965 6.4646 4.72229 7.70725 4.72229H8.25219C9.49483 4.72229 10.5022 5.72965 10.5022 6.97229V10.8824H13.4952V6.97229C13.4952 5.72965 14.5026 4.72229 15.7452 4.72229H16.2927ZM17.0427 6.97229V17.0279C17.0427 17.4421 16.7069 17.7779 16.2927 17.7779H15.7452C15.331 17.7779 14.9952 17.4421 14.9952 17.0279L14.9952 6.97229C14.9952 6.55808 15.331 6.22229 15.7452 6.22229H16.2927C16.7069 6.22229 17.0427 6.55808 17.0427 6.97229ZM19.9684 15.025V8.97484C19.9684 8.72631 19.7669 8.52484 19.5184 8.52484H18.9954C18.7468 8.52484 18.5454 8.72631 18.5454 8.97484V15.0251C18.5454 15.2736 18.7468 15.4751 18.9954 15.4751H19.5184C19.7669 15.4751 19.9684 15.2736 19.9684 15.025ZM6.95725 17.0279V6.97229C6.95725 6.55808 7.29303 6.22229 7.70725 6.22229H8.25219C8.6664 6.22229 9.00219 6.55808 9.00219 6.97229V17.0279C9.00219 17.4421 8.6664 17.7779 8.25219 17.7779H7.70725C7.29303 17.7779 6.95725 17.4421 6.95725 17.0279ZM4.03159 8.97484V15.025C4.03159 15.2736 4.23306 15.4751 4.48159 15.4751H5.001C5.24953 15.4751 5.451 15.2736 5.451 15.0251V8.97484C5.451 8.72631 5.24953 8.52484 5.001 8.52484H4.48159C4.23306 8.52484 4.03159 8.72632 4.03159 8.97484Z" fill="#292632"/>
</svg>
