<svg width="20" height="14" viewBox="0 0 20 14" fill="none" xmlns="http://www.w3.org/2000/svg">
<path d="M19.75 6H19V3.75C19 2.8125 18.1875 2 17.25 2H16.25C16.1562 2 16.0625 2.03125 16 2.03125V1.75C16 0.8125 15.1875 0 14.25 0H13.25C12.2812 0 11.5 0.8125 11.5 1.75V6H8.5V1.75C8.5 0.8125 7.6875 0 6.75 0H5.75C4.78125 0 4 0.8125 4 1.75V2.03125C3.90625 2.03125 3.8125 2 3.75 2H2.75C1.78125 2 1 2.8125 1 3.75V6H0.25C0.09375 6 0 6.125 0 6.25V7.75C0 7.90625 0.09375 8 0.25 8H1V10.25C1 11.2188 1.78125 12 2.75 12H3.75C3.8125 12 3.90625 12 4 12V12.25C4 13.2188 4.78125 14 5.75 14H6.75C7.6875 14 8.5 13.2188 8.5 12.25V8H11.5V12.25C11.5 13.2188 12.2812 14 13.25 14H14.25C15.1875 14 16 13.2188 16 12.25V12C16.0625 12 16.1562 12 16.25 12H17.25C18.1875 12 19 11.2188 19 10.25V8H19.75C19.875 8 20 7.90625 20 7.75V6.25C20 6.125 19.875 6 19.75 6ZM3.75 10.5H2.75C2.59375 10.5 2.5 10.4062 2.5 10.25V3.75C2.5 3.625 2.59375 3.5 2.75 3.5H3.75C3.875 3.5 4 3.625 4 3.75V10.25C4 10.4062 3.875 10.5 3.75 10.5ZM7 12.25C7 12.4062 6.875 12.5 6.75 12.5H5.75C5.59375 12.5 5.5 12.4062 5.5 12.25V1.75C5.5 1.625 5.59375 1.5 5.75 1.5H6.75C6.875 1.5 7 1.625 7 1.75V12.25ZM14.5 12.25C14.5 12.4062 14.375 12.5 14.25 12.5H13.25C13.0938 12.5 13 12.4062 13 12.25V1.75C13 1.625 13.0938 1.5 13.25 1.5H14.25C14.375 1.5 14.5 1.625 14.5 1.75V12.25ZM17.5 10.25C17.5 10.4062 17.375 10.5 17.25 10.5H16.25C16.0938 10.5 16 10.4062 16 10.25V3.75C16 3.625 16.0938 3.5 16.25 3.5H17.25C17.375 3.5 17.5 3.625 17.5 3.75V10.25Z" fill="white"/>
</svg>
