<svg width="24" height="24" viewBox="0 0 24 24" fill="none" xmlns="http://www.w3.org/2000/svg">
<path fill-rule="evenodd" clip-rule="evenodd" d="M3 10.5938C3 9.50644 3.88144 8.625 4.96875 8.625H6.65625C7.12224 8.625 7.5 9.00276 7.5 9.46875C7.5 9.93474 7.12224 10.3125 6.65625 10.3125H4.96875C4.81342 10.3125 4.6875 10.4384 4.6875 10.5938V19.0312C4.6875 19.1866 4.81342 19.3125 4.96875 19.3125H13.4062C13.5616 19.3125 13.6875 19.1866 13.6875 19.0312V17.3438C13.6875 16.8778 14.0653 16.5 14.5312 16.5C14.9972 16.5 15.375 16.8778 15.375 17.3438V19.0312C15.375 20.1186 14.4936 21 13.4062 21H4.96875C3.88144 21 3 20.1186 3 19.0312V10.5938Z" fill="#292632"/>
<path fill-rule="evenodd" clip-rule="evenodd" d="M8.625 4.96875C8.625 3.88144 9.50644 3 10.5938 3H19.0312C20.1186 3 21 3.88144 21 4.96875V13.4062C21 14.4936 20.1186 15.375 19.0312 15.375H10.5938C9.50644 15.375 8.625 14.4936 8.625 13.4062V4.96875ZM10.5938 4.6875C10.4384 4.6875 10.3125 4.81342 10.3125 4.96875V13.4062C10.3125 13.5616 10.4384 13.6875 10.5938 13.6875H19.0312C19.1866 13.6875 19.3125 13.5616 19.3125 13.4062V4.96875C19.3125 4.81342 19.1866 4.6875 19.0312 4.6875H10.5938Z" fill="#292632"/>
</svg>
