<svg width="24" height="24" viewBox="0 0 24 24" fill="none" xmlns="http://www.w3.org/2000/svg">
<path fill-rule="evenodd" clip-rule="evenodd" d="M18.4604 3C17.7868 3 17.1408 3.26759 16.6645 3.74389L8.93436 11.474C8.83008 11.5783 8.7561 11.7089 8.72033 11.852L7.90664 15.1068C7.83731 15.3841 7.91856 15.6774 8.12067 15.8795C8.32277 16.0816 8.6161 16.1628 8.89339 16.0935L12.1482 15.2798C12.2912 15.2441 12.4219 15.1701 12.5262 15.0658L20.2563 7.33571C20.7326 6.8594 21.0002 6.2134 21.0002 5.5398C21.0002 4.8662 20.7326 4.22019 20.2563 3.74389C19.78 3.26759 19.134 3 18.4604 3ZM17.8152 4.89463C17.9863 4.72352 18.2184 4.62739 18.4604 4.62739C18.7023 4.62739 18.9344 4.72352 19.1055 4.89463C19.2766 5.06574 19.3728 5.29781 19.3728 5.5398C19.3728 5.78178 19.2766 6.01386 19.1055 6.18497L11.5348 13.7557L9.81435 14.1858L10.2445 12.4654L17.8152 4.89463Z" fill="#292632"/>
<path d="M5.44108 4.72614C4.79367 4.72614 4.17277 4.98332 3.71498 5.44111C3.25718 5.8989 3 6.5198 3 7.16722V18.5589C3 19.2063 3.25718 19.8272 3.71498 20.285C4.17277 20.7428 4.79367 21 5.44108 21H16.8328C17.4802 21 18.1011 20.7428 18.5589 20.285C19.0167 19.8272 19.2739 19.2063 19.2739 18.5589V12.8631C19.2739 12.4137 18.9096 12.0494 18.4602 12.0494C18.0108 12.0494 17.6465 12.4137 17.6465 12.8631V18.5589C17.6465 18.7747 17.5608 18.9817 17.4082 19.1343C17.2556 19.2869 17.0486 19.3726 16.8328 19.3726H5.44108C5.22528 19.3726 5.01831 19.2869 4.86571 19.1343C4.71312 18.9817 4.62739 18.7747 4.62739 18.5589V7.16722C4.62739 6.95141 4.71312 6.74445 4.86571 6.59185C5.01831 6.43925 5.22528 6.35352 5.44108 6.35352H11.1369C11.5863 6.35352 11.9506 5.98922 11.9506 5.53983C11.9506 5.09044 11.5863 4.72614 11.1369 4.72614H5.44108Z" fill="#292632"/>
</svg>
