<svg width="14" height="15" viewBox="0 0 14 15" fill="none" xmlns="http://www.w3.org/2000/svg">
<path d="M9.3616 9.38352L6.578 12.1671L3.7651 9.38352C1.6848 9.47143 0.0146476 11.2002 0.0146476 13.3098V13.5735C0.0146476 14.3647 0.629967 14.98 1.42109 14.98H11.7349C12.4968 14.98 13.1414 14.3647 13.1414 13.5735V13.3098C13.1414 11.2002 11.4419 9.47143 9.3616 9.38352ZM0.395557 2.32208L0.600667 2.38069V4.08013C0.395557 4.19733 0.249057 4.43173 0.249057 4.66612C0.249057 4.92982 0.366257 5.13493 0.571357 5.25213L0.102547 7.06883C0.0439468 7.27393 0.161147 7.47903 0.336957 7.47903H1.5383C1.7141 7.47903 1.8313 7.27393 1.7727 7.06883L1.30388 5.25213C1.509 5.13493 1.6555 4.92982 1.6555 4.66612C1.6555 4.43173 1.509 4.19733 1.30388 4.08013V2.55652L3.2377 2.99603C2.974 3.52343 2.8275 4.08012 2.8275 4.66612C2.8275 6.74652 4.4977 8.41663 6.578 8.41663C8.6291 8.41663 10.3285 6.74652 10.3285 4.66612C10.3285 4.08012 10.1527 3.52343 9.9183 2.99603L12.7312 2.32208C13.2586 2.20488 13.2586 1.53097 12.7312 1.41377L7.1347 0.065925C6.7538 -0.021975 6.3729 -0.021975 5.992 0.065925L0.395557 1.41377C-0.131853 1.53097 -0.131853 2.20488 0.395557 2.32208Z" fill="white"/>
</svg>
