<svg xmlns="http://www.w3.org/2000/svg" width="21" height="20" viewBox="5 5 21 20" fill="none">
<path d="M18.0005 24.9102H12.1305V20.1602L8.00055 22.5302L5.06055 17.4302L9.18055 15.0202L5.07055 12.6802L8.00055 7.5802L12.1205 9.9502V5.2002H18.0005V9.9502L22.1205 7.5802L25.0605 12.6802L21.0005 15.0202L25.1105 17.3902L22.1705 22.4902L18.0005 20.1602V24.9102ZM13.1105 23.9102H17.0005V18.4302L21.7505 21.1702L23.7005 17.8002L19.0005 15.0202L23.7505 12.2702L21.7705 8.9402L17.0005 11.6802V6.2002H13.1305V11.6802L8.38055 8.9402L6.38055 12.3102L11.1805 15.0202L6.43055 17.8002L8.43055 21.1702L13.1805 18.4302L13.1105 23.9102Z" fill="white"/>
<path d="M14.6895 11.6098C14.6895 11.6098 14.7395 11.2598 14.9595 11.2598C15.1795 11.2598 15.2895 11.4498 15.2795 11.6798C15.2695 11.9098 15.1395 20.0998 15.1095 20.1898C15.0795 20.2798 15.0295 20.1898 15.0295 20.1898L14.6895 11.6098Z" fill="white"/>
<path d="M15.1704 19.8998C15.1098 19.8998 15.0499 19.8853 14.996 19.8575C14.9421 19.8297 14.8956 19.7893 14.8604 19.7398C14.834 19.6969 14.8166 19.649 14.8094 19.5991C14.8021 19.5492 14.8051 19.4983 14.8182 19.4496C14.8313 19.4009 14.8543 19.3554 14.8856 19.3159C14.9169 19.2764 14.956 19.2437 15.0004 19.2198C14.9084 19.1274 14.8248 19.027 14.7504 18.9198L14.5604 18.6498C14.4989 18.4872 14.475 18.3127 14.4906 18.1395C14.5061 17.9663 14.5608 17.7989 14.6504 17.6498C14.734 17.5316 14.8242 17.418 14.9204 17.3098L15.0604 17.1398L14.7504 16.9098C14.6291 16.8296 14.5123 16.7428 14.4004 16.6498C14.2056 16.4973 14.0742 16.2779 14.0317 16.034C13.9892 15.7902 14.0386 15.5393 14.1704 15.3298C14.3573 15.1458 14.5654 14.9846 14.7904 14.8498L15.2004 14.5698C15.1791 14.5383 15.1519 14.5112 15.1204 14.4898C14.6657 14.0974 14.2535 13.6583 13.8904 13.1798C13.7851 12.9454 13.7644 12.6816 13.8319 12.4336C13.8994 12.1855 14.0508 11.9686 14.2604 11.8198C14.4199 11.7245 14.5979 11.6645 14.7824 11.6438C14.967 11.6231 15.1539 11.6422 15.3304 11.6998C15.4235 11.7318 15.5006 11.7987 15.5453 11.8864C15.5901 11.974 15.5991 12.0757 15.5704 12.1698C15.5567 12.2165 15.5339 12.2599 15.5033 12.2977C15.4727 12.3355 15.435 12.3669 15.3923 12.3902C15.3495 12.4134 15.3027 12.428 15.2543 12.433C15.206 12.4381 15.1571 12.4336 15.1104 12.4198V12.4198C14.981 12.3741 14.8399 12.3741 14.7104 12.4198C14.6411 12.4645 14.5886 12.5311 14.5615 12.609C14.5343 12.6869 14.5339 12.7717 14.5604 12.8498C14.8839 13.2316 15.2348 13.5892 15.6104 13.9198C15.7147 14.0061 15.8003 14.1126 15.8622 14.2329C15.9241 14.3532 15.9609 14.4849 15.9704 14.6198C15.9716 14.7121 15.9515 14.8035 15.9116 14.8867C15.8717 14.97 15.8131 15.0429 15.7404 15.0998C15.6304 15.1898 15.4204 15.3298 15.2104 15.4798C15.0527 15.5752 14.9023 15.6821 14.7604 15.7998C14.7604 15.7998 14.7604 15.9698 14.9004 16.0898L15.1904 16.3098C15.6304 16.6298 15.9604 16.8598 15.8804 17.2098C15.7931 17.4286 15.6601 17.6264 15.4904 17.7898C15.4246 17.8617 15.3644 17.9386 15.3104 18.0198C15.2536 18.1023 15.2223 18.1997 15.2204 18.2998C15.2588 18.357 15.3023 18.4106 15.3504 18.4598C15.452 18.5921 15.5423 18.7326 15.6204 18.8798C15.7062 19.0351 15.7342 19.2157 15.6994 19.3896C15.6646 19.5635 15.5693 19.7195 15.4304 19.8298C15.3939 19.8581 15.3521 19.8788 15.3075 19.8908C15.2628 19.9028 15.2163 19.9059 15.1704 19.8998Z" fill="white"/>
</svg>
