<svg xmlns="http://www.w3.org/2000/svg" width="21" height="14" viewBox="5 8 21 14" fill="none">
<path fill-rule="evenodd" clip-rule="evenodd" d="M5.40723 21.2286H25.4072V8H5.40723V21.2286ZM6.1379 20.5037H24.6773V8.72493H6.1379V20.5037ZM18.4854 15.8388H22.3203V15.1506H18.5995C18.5775 15.3846 18.5369 15.6137 18.4854 15.8388ZM13.0551 10.6363C10.8445 10.6363 9.04562 12.4204 9.04562 14.6143C9.04562 15.4607 9.31576 16.245 9.7715 16.8901C10.2774 16.1815 10.995 15.6639 11.813 15.4007C11.4611 15.0713 11.2398 14.6062 11.2398 14.0899C11.2398 13.0962 12.0543 12.2881 13.0551 12.2881C14.0573 12.2881 14.8719 13.0962 14.8719 14.0899C14.8719 14.6062 14.6499 15.0713 14.2979 15.4007C15.1159 15.6639 15.8335 16.1815 16.3401 16.8901C16.7959 16.245 17.0653 15.4607 17.0653 14.6143C17.0653 12.4204 15.2664 10.6363 13.0551 10.6363ZM13.0551 12.9769C12.4372 12.9769 11.9333 13.4761 11.9333 14.0899C11.9333 14.7037 12.4372 15.2036 13.0551 15.2036C13.6745 15.2036 14.1776 14.7037 14.1776 14.0899C14.1776 13.4761 13.6745 12.9769 13.0551 12.9769ZM13.0551 18.593C13.1892 18.593 13.3218 18.5862 13.4524 18.5733C14.3625 18.4819 15.2204 18.0815 15.8755 17.4371C15.2658 16.4775 14.2065 15.8917 13.0551 15.8917C11.9051 15.8917 10.8459 16.4775 10.2355 17.4371C10.8912 18.0815 11.7484 18.4819 12.6585 18.5733C12.7891 18.5862 12.9218 18.593 13.0551 18.593ZM9.54672 17.7153L9.38588 17.5366L9.38931 17.5305C8.7418 16.7312 8.35205 15.7178 8.35205 14.6143C8.35205 12.0412 10.4616 9.94751 13.0551 9.94751C15.6493 9.94751 17.7596 12.0412 17.7596 14.6143C17.7596 15.7178 17.3698 16.7312 16.7223 17.5305L16.7251 17.5366L16.5649 17.7153C16.5577 17.7232 16.5502 17.7302 16.5429 17.7371C16.5356 17.744 16.5285 17.7508 16.5216 17.7583C16.435 17.8531 16.3443 17.9431 16.2501 18.0304C16.224 18.0543 16.1979 18.0781 16.1717 18.1013C16.0748 18.1859 15.9751 18.2664 15.8713 18.3441L15.8537 18.3574L15.8537 18.3574C15.8343 18.3721 15.8151 18.3866 15.795 18.4007C15.6858 18.4791 15.5723 18.5514 15.4562 18.6203L15.435 18.6334L15.435 18.6334C15.4209 18.6422 15.4069 18.651 15.3922 18.6592C15.2678 18.7301 15.14 18.7949 15.0087 18.8549C14.9996 18.859 14.9908 18.8633 14.9821 18.8676L14.9647 18.8761C14.8258 18.9374 14.6835 18.992 14.5378 19.0404C14.5337 19.0418 14.5294 19.0435 14.5251 19.0452L14.5184 19.0478L14.5124 19.05C14.3646 19.0977 14.2141 19.1379 14.0608 19.1714C14.0539 19.1734 14.0463 19.1755 14.0388 19.1768C13.8917 19.2082 13.7418 19.2321 13.5892 19.2491C13.5827 19.2498 13.5762 19.251 13.5696 19.2522C13.5631 19.2534 13.5566 19.2546 13.55 19.2552C13.3871 19.2723 13.2229 19.2812 13.0551 19.2812C12.8881 19.2812 12.7238 19.2723 12.5609 19.2552C12.5526 19.2544 12.5439 19.2528 12.5354 19.2513L12.5354 19.2513C12.5299 19.2502 12.5244 19.2492 12.519 19.2484C12.3677 19.2314 12.2186 19.2082 12.0729 19.1775C12.0684 19.1765 12.0639 19.1753 12.0595 19.1741C12.0566 19.1733 12.0537 19.1726 12.0509 19.1718C12.0493 19.1714 12.0477 19.171 12.0461 19.1707C11.8941 19.1373 11.7457 19.097 11.5999 19.05C11.5944 19.0483 11.5891 19.0462 11.5838 19.0442C11.5785 19.0421 11.5731 19.0401 11.5676 19.0384C11.4247 18.9906 11.2844 18.9368 11.1476 18.8767C11.1394 18.873 11.1314 18.8689 11.1233 18.8648L11.1232 18.8648C11.1152 18.8607 11.1071 18.8566 11.0988 18.8529C10.9689 18.7935 10.8424 18.7301 10.7194 18.6599C10.703 18.6505 10.6869 18.6404 10.6709 18.6303L10.6527 18.619C10.5372 18.5508 10.4252 18.4785 10.3173 18.4014C10.2905 18.3823 10.2644 18.3626 10.2383 18.3428L10.2383 18.3428L10.2383 18.3428L10.2382 18.3427C10.1351 18.2657 10.0355 18.1859 9.93922 18.1006C9.92346 18.0871 9.90794 18.073 9.89238 18.0589L9.89222 18.0587L9.89207 18.0586C9.88194 18.0494 9.8718 18.0402 9.86155 18.0311C9.76669 17.9431 9.67526 17.8517 9.58728 17.7556C9.58149 17.7495 9.57542 17.7437 9.56933 17.7379C9.56168 17.7306 9.55399 17.7233 9.54672 17.7153ZM17.1377 18.3683H22.3206V17.6802H17.6917C17.5261 17.925 17.3384 18.1535 17.1377 18.3683ZM22.3203 12.6208V13.309H18.4648C18.407 13.073 18.3342 12.8432 18.2476 12.6208H22.3203Z" fill="white"/>
</svg>
