<svg width="24" height="24" viewBox="0 0 24 24" fill="none" xmlns="http://www.w3.org/2000/svg">
<path d="M9.57268 4.4917H4.78846C4.62911 4.4917 4.5 4.62085 4.5 4.78016V9.56443C4.5 9.82141 4.81072 9.95012 4.99245 9.76839L6.77269 7.98817L10.7845 12L6.77269 16.0119L4.99245 14.2317C4.81072 14.0499 4.5 14.1786 4.5 14.4356L4.5 19.2199C4.5 19.3792 4.62911 19.5084 4.78846 19.5084H9.57268C9.82975 19.5084 9.9584 19.1976 9.77667 19.0159L7.99644 17.2357L12 13.2322L16.0035 17.2357L14.2233 19.0159C14.0416 19.1976 14.1702 19.5084 14.4273 19.5084H19.2115C19.3709 19.5084 19.5 19.3792 19.5 19.2199V14.4356C19.5 14.1786 19.1893 14.0499 19.0075 14.2317L17.2273 16.0119L13.2155 12L17.2273 7.98817L19.0075 9.76839C19.1893 9.95012 19.5 9.82141 19.5 9.56443V4.78016C19.5 4.62085 19.3709 4.4917 19.2115 4.4917H14.4273C14.1702 4.4917 14.0416 4.80241 14.2233 4.98413L16.0035 6.76435L12 10.7679L7.99644 6.76435L9.77667 4.98413C9.9584 4.80241 9.82975 4.4917 9.57268 4.4917Z" fill="#292632"/>
</svg>
