<svg width="24" height="24" viewBox="0 0 24 24" fill="none" xmlns="http://www.w3.org/2000/svg">
<g clip-path="url(#clip0_11_377)">
<path fill-rule="evenodd" clip-rule="evenodd" d="M3.95112 21.3804C3.57257 21.759 2.95881 21.759 2.58026 21.3804C2.20171 21.0019 2.20171 20.3881 2.58026 20.0096C3.13709 19.4527 3.53825 18.7597 3.74373 17.9995L4.53482 15.0727C4.59299 14.8576 4.70654 14.6614 4.86415 14.5038L9.80334 9.56458C8.89729 8.34862 8.99627 6.6202 10.1003 5.5162C11.2042 4.41221 12.9327 4.31324 14.1486 5.21928L16.1165 3.2514C17.3722 1.99574 19.408 1.99574 20.6637 3.2514C21.9193 4.50707 21.9193 6.54291 20.6637 7.79857L18.6959 9.76636C19.6025 10.9824 19.5037 12.7112 18.3995 13.8155C17.2953 14.9197 15.5664 15.0185 14.3504 14.1118L9.41132 19.0509C9.25371 19.2085 9.05753 19.3221 8.84235 19.3803L6.149 20.1083C5.31778 20.3329 4.55997 20.7716 3.95112 21.3804ZM12.9697 12.7773L11.1378 10.9454L6.34343 15.7398L5.66485 18.2502L8.17531 17.5717L12.9697 12.7773ZM17.2983 11.164L17.2961 11.1662C17.238 11.0278 17.1526 10.8981 17.0399 10.7854L16.0007 9.74623L19.306 6.44093C19.8119 5.93507 19.8119 5.11491 19.306 4.60905C18.8002 4.10319 17.98 4.10319 17.4742 4.60905L14.1689 7.91434L13.1304 6.87585C13.0174 6.76289 12.8874 6.67737 12.7486 6.6193L12.7509 6.61706C12.321 6.4387 11.8074 6.5243 11.4579 6.87385C10.995 7.33676 10.995 8.08727 11.4579 8.55017L15.3655 12.4578C15.8284 12.9207 16.579 12.9207 17.0419 12.4578C17.3917 12.108 17.4771 11.594 17.2983 11.164Z" fill="#292632"/>
</g>
<defs>
<clipPath id="clip0_11_377">
<rect width="24" height="24" fill="white"/>
</clipPath>
</defs>
</svg>
