<svg width="24" height="24" viewBox="0 0 24 24" fill="none" xmlns="http://www.w3.org/2000/svg">
<path fill-rule="evenodd" clip-rule="evenodd" d="M3.16042 5.59894C3.43373 5.22151 3.96125 5.13712 4.33867 5.41042L20.651 17.2228C21.0284 17.4961 21.1129 18.0236 20.8396 18.401C20.5663 18.7785 20.0388 18.863 19.6614 18.5896L17.1316 16.7578C15.7638 17.8374 14.0161 18.75 12 18.75C9.77099 18.75 7.87035 17.6344 6.44998 16.4127C5.02186 15.1846 3.99056 13.774 3.48339 13.011C3.0752 12.397 3.07393 11.605 3.48291 10.9897C3.88124 10.3904 4.60255 9.39213 5.58512 8.39649L3.34894 6.77719C2.97152 6.50388 2.88711 5.97636 3.16042 5.59894ZM6.96981 9.39919C5.99872 10.3465 5.27784 11.3377 4.8883 11.9238C4.87079 11.9501 4.86419 11.9761 4.8642 11.9999C4.86421 12.0237 4.87089 12.0501 4.88873 12.0769C5.35289 12.7752 6.28571 14.0458 7.5503 15.1334C8.82263 16.2276 10.3433 17.0625 12 17.0625C13.3439 17.0625 14.5981 16.513 15.7019 15.7224L13.1947 13.9069C12.8485 14.1242 12.4389 14.2499 11.9999 14.2499C10.7573 14.2499 9.74995 13.2426 9.74995 12C9.74995 11.8137 9.77257 11.6328 9.81523 11.4597L6.96981 9.39919ZM12 6.93754C11.4191 6.93754 10.8563 7.03962 10.3139 7.21997C9.87171 7.367 9.39406 7.12772 9.24703 6.68553C9.10001 6.24336 9.33928 5.76571 9.78147 5.61868C10.4759 5.38778 11.2185 5.25006 12 5.25006C14.229 5.25006 16.1297 6.36568 17.55 7.58724C18.9781 8.81546 20.0094 10.226 20.5166 10.989C20.9253 11.6037 20.9252 12.3964 20.5166 13.0111C20.3921 13.1983 20.2375 13.4225 20.0544 13.672C19.7788 14.0477 19.2507 14.1289 18.8751 13.8533C18.4993 13.5776 18.4181 13.0496 18.6937 12.6739C18.86 12.4473 18.9997 12.2446 19.1112 12.0769C19.1436 12.0281 19.1436 11.9718 19.1112 11.9231C18.6471 11.2248 17.7143 9.95423 16.4497 8.86664C15.1774 7.77241 13.6567 6.93754 12 6.93754Z" fill="#292632"/>
</svg>
