<svg width="24" height="24" viewBox="0 0 24 24" fill="none" xmlns="http://www.w3.org/2000/svg">
<path fill-rule="evenodd" clip-rule="evenodd" d="M4.74613 11.9216C5.2196 11.2093 6.17111 9.91325 7.46108 8.80386C8.75892 7.68767 10.3101 6.83607 12 6.83607C13.6899 6.83607 15.2411 7.68767 16.5389 8.80386C17.8289 9.91325 18.7804 11.2093 19.2539 11.9216C19.2869 11.9714 19.2869 12.0287 19.2539 12.0785C18.7804 12.7908 17.8289 14.0869 16.5389 15.1962C15.2411 16.3124 13.6899 17.164 12 17.164C10.3101 17.164 8.75892 16.3124 7.46108 15.1962C6.17111 14.0869 5.2196 12.7908 4.74613 12.0785C4.71306 12.0287 4.71306 11.9714 4.74613 11.9216ZM12 5.11475C9.72628 5.11475 7.78754 6.25274 6.33868 7.4988C4.88193 8.75163 3.82994 10.1904 3.3126 10.9687C2.8958 11.5958 2.8958 12.4043 3.3126 13.0314C3.82994 13.8097 4.88193 15.2484 6.33868 16.5013C7.78754 17.7473 9.72628 18.8854 12 18.8854C14.2737 18.8854 16.2124 17.7473 17.6613 16.5013C19.118 15.2484 20.1701 13.8097 20.6874 13.0314C21.1042 12.4043 21.1042 11.5958 20.6874 10.9687C20.1701 10.1904 19.118 8.75163 17.6613 7.4988C16.2124 6.25274 14.2737 5.11475 12 5.11475ZM12 14.2952C13.2675 14.2952 14.2951 13.2676 14.2951 12.0001C14.2951 10.7325 13.2675 9.70495 12 9.70495C10.7324 9.70495 9.70488 10.7325 9.70488 12.0001C9.70488 13.2676 10.7324 14.2952 12 14.2952Z" fill="#292632"/>
</svg>
