<svg width="24" height="24" viewBox="0 0 24 24" fill="none" xmlns="http://www.w3.org/2000/svg">
<path fill-rule="evenodd" clip-rule="evenodd" d="M6.89999 4.8C6.82043 4.8 6.74412 4.83161 6.68785 4.88786C6.6316 4.94413 6.59999 5.02044 6.59999 5.1V18.9C6.59999 19.0656 6.73439 19.2 6.89999 19.2H17.1C17.1795 19.2 17.2559 19.1684 17.3121 19.1122C17.3684 19.0559 17.4 18.9796 17.4 18.9V10.2H14.1C13.543 10.2 13.0089 9.97876 12.6151 9.58493C12.2212 9.1911 12 8.65696 12 8.1V4.8H6.89999ZM13.8 5.472V8.1C13.8 8.2656 13.9344 8.4 14.1 8.4H16.728L13.8 5.472ZM4.79999 5.1C4.79999 3.9408 5.74079 3 6.89999 3H13.0032C13.56 3 14.094 3.2208 14.4876 3.6156L18.5844 7.7124C18.9792 8.106 19.2 8.64 19.2 9.1968V18.9C19.2 19.4569 18.9787 19.991 18.5849 20.3849C18.191 20.7787 17.6569 21 17.1 21H6.89999C6.34303 21 5.80889 20.7787 5.41506 20.3849C5.02123 19.991 4.79999 19.4569 4.79999 18.9V5.1Z" fill="#292632"/>
</svg>
