<svg width="21" height="20" viewBox="0 0 21 20" fill="none" xmlns="http://www.w3.org/2000/svg">
<path d="M12.94 19.71H7.07V14.96L2.94 17.33L0 12.23L4.12 9.82L0.0100002 7.48L2.94 2.38L7.06 4.75V0H12.94V4.75L17.06 2.38L20 7.48L15.94 9.82L20.05 12.19L17.11 17.29L12.94 14.96V19.71ZM8.05 18.71H11.94V13.23L16.69 15.97L18.64 12.6L13.94 9.82L18.69 7.07L16.71 3.74L11.94 6.48V1H8.07V6.48L3.32 3.74L1.32 7.11L6.12 9.82L1.37 12.6L3.37 15.97L8.12 13.23L8.05 18.71Z" fill="white"/>
<path d="M9.62891 6.41006C9.62891 6.41006 9.67891 6.06006 9.89891 6.06006C10.1189 6.06006 10.2289 6.25006 10.2189 6.48006C10.2089 6.71006 10.0789 14.9001 10.0489 14.9901C10.0189 15.0801 9.96891 14.9901 9.96891 14.9901L9.62891 6.41006Z" fill="white"/>
<path d="M10.1099 14.7001C10.0492 14.7001 9.98939 14.6856 9.93546 14.6578C9.88152 14.63 9.83504 14.5896 9.7999 14.5401C9.77346 14.4972 9.75607 14.4493 9.7488 14.3994C9.74154 14.3495 9.74456 14.2986 9.75767 14.2499C9.77078 14.2012 9.79371 14.1557 9.82505 14.1162C9.85639 14.0767 9.89547 14.044 9.9399 14.0201C9.84788 13.9277 9.76422 13.8273 9.6899 13.7201L9.4999 13.4501C9.43831 13.2875 9.41442 13.113 9.43 12.9398C9.44559 12.7666 9.50026 12.5991 9.5899 12.4501C9.6735 12.3318 9.76364 12.2183 9.8599 12.1101L9.9999 11.9401L9.6899 11.7101C9.5686 11.6299 9.45176 11.5431 9.3399 11.4501C9.14501 11.2976 9.01362 11.0782 8.97114 10.8343C8.92865 10.5905 8.9781 10.3396 9.1099 10.1301C9.29676 9.94605 9.50489 9.78491 9.7299 9.65012L10.1399 9.37012C10.1186 9.33862 10.0914 9.31147 10.0599 9.29012C9.60518 8.89771 9.19292 8.45863 8.8299 7.98012C8.72457 7.74565 8.70387 7.48189 8.77135 7.23386C8.83883 6.98583 8.9903 6.76891 9.1999 6.62012C9.35933 6.52484 9.53732 6.46483 9.7219 6.44413C9.90647 6.42343 10.0933 6.44252 10.2699 6.50012C10.363 6.53212 10.44 6.59899 10.4848 6.68666C10.5296 6.77433 10.5386 6.87595 10.5099 6.97012C10.4961 7.01675 10.4733 7.06021 10.4427 7.09802C10.4122 7.13583 10.3744 7.16724 10.3317 7.19046C10.289 7.21368 10.2421 7.22825 10.1938 7.23334C10.1454 7.23843 10.0965 7.23393 10.0499 7.22012V7.22012C9.92049 7.17436 9.77931 7.17436 9.6499 7.22012C9.58053 7.2648 9.52809 7.33139 9.50091 7.40931C9.47373 7.48722 9.47338 7.57198 9.4999 7.65012C9.82337 8.03189 10.1743 8.38951 10.5499 8.72012C10.6541 8.80637 10.7398 8.91289 10.8017 9.03321C10.8636 9.15353 10.9004 9.28515 10.9099 9.42012C10.9111 9.51243 10.8909 9.60376 10.851 9.68702C10.8111 9.77027 10.7526 9.8432 10.6799 9.90012C10.5699 9.99012 10.3599 10.1301 10.1499 10.2801C9.99216 10.3755 9.84175 10.4824 9.6999 10.6001C9.6999 10.6001 9.6999 10.7701 9.8399 10.8901L10.1299 11.1101C10.5699 11.4301 10.8999 11.6601 10.8199 12.0101C10.7325 12.2289 10.5996 12.4267 10.4299 12.5901C10.364 12.662 10.3038 12.7389 10.2499 12.8201C10.1931 12.9026 10.1618 13 10.1599 13.1001C10.1983 13.1573 10.2418 13.2109 10.2899 13.2601C10.3914 13.3924 10.4817 13.5329 10.5599 13.6801C10.6457 13.8354 10.6737 14.016 10.6389 14.1899C10.6041 14.3638 10.5088 14.5198 10.3699 14.6301C10.3333 14.6584 10.2915 14.6791 10.2469 14.6911C10.2023 14.7031 10.1557 14.7062 10.1099 14.7001Z" fill="white"/>
</svg>
