<svg width="24" height="24" viewBox="0 0 24 24" fill="none" xmlns="http://www.w3.org/2000/svg">
<path d="M18 3C18.5593 3 19.0718 3.31152 19.3301 3.80762C19.5883 4.3037 19.5492 4.90218 19.2285 5.36035L17.2061 8.25L19.2285 11.1396C19.5492 11.5978 19.5883 12.1963 19.3301 12.6924C19.0718 13.1885 18.5593 13.5 18 13.5H7.5V19.5H9.75C10.1642 19.5 10.5 19.8358 10.5 20.25C10.5 20.6642 10.1642 21 9.75 21H3.75C3.33579 21 3 20.6642 3 20.25C3 19.8358 3.33579 19.5 3.75 19.5H6V4.5C6 3.67157 6.67157 3 7.5 3H18ZM7.5 12H18L15.375 8.25L18 4.5H7.5V12Z" fill="#292632"/>
</svg>
