<svg width="24" height="24" viewBox="0 0 24 24" fill="none" xmlns="http://www.w3.org/2000/svg">
<path fill-rule="evenodd" clip-rule="evenodd" d="M5.45455 5.4546C5.23755 5.4546 5.02944 5.5408 4.876 5.69424C4.72256 5.84768 4.63636 6.05579 4.63636 6.27278V17.7273C4.63636 17.9443 4.72256 18.1524 4.876 18.3059C5.02944 18.4593 5.23755 18.5455 5.45455 18.5455H18.5455C18.7624 18.5455 18.9706 18.4593 19.124 18.3059C19.2774 18.1524 19.3636 17.9443 19.3636 17.7273V8.72733C19.3636 8.51033 19.2774 8.30223 19.124 8.14879C18.9706 7.99535 18.7625 7.90915 18.5455 7.90915H11.1818C10.9083 7.90915 10.6528 7.77243 10.501 7.54481L9.10758 5.4546H5.45455ZM3.71892 4.53716C4.17924 4.07684 4.80356 3.81824 5.45455 3.81824H9.54545C9.81902 3.81824 10.0745 3.95496 10.2262 4.18257L11.6197 6.27278H18.5455C19.1964 6.27278 19.8208 6.53139 20.2811 6.9917C20.7414 7.45202 21 8.07634 21 8.72733V17.7273C21 18.3783 20.7414 19.0026 20.2811 19.463C19.8208 19.9233 19.1964 20.1819 18.5455 20.1819H5.45455C4.80356 20.1819 4.17924 19.9233 3.71892 19.463C3.2586 19.0026 3 18.3783 3 17.7273V6.27278C3 5.6218 3.2586 4.99747 3.71892 4.53716Z" fill="#292632"/>
</svg>
