<svg width="24" height="24" viewBox="0 0 24 24" fill="none" xmlns="http://www.w3.org/2000/svg">
<path fill-rule="evenodd" clip-rule="evenodd" d="M11.3574 4.7153C11.569 4.69691 11.7833 4.6875 12 4.6875C12.2167 4.6875 12.431 4.69691 12.6426 4.7153C12.6825 4.71876 12.7642 4.75668 12.7964 4.8798L13.1216 6.12325C13.2866 6.75386 13.7394 7.21062 14.2436 7.46032C14.4388 7.557 14.627 7.66597 14.8071 7.78623C15.2758 8.09919 15.8983 8.26316 16.5273 8.09059L17.7681 7.75014C17.8906 7.71652 17.9644 7.7681 17.9876 7.80103C18.2334 8.15079 18.4492 8.52289 18.6314 8.91361C18.6481 8.94945 18.6563 9.03891 18.5657 9.12839L17.6491 10.0342C17.1861 10.4916 17.0165 11.1113 17.0521 11.6728C17.059 11.7809 17.0625 11.89 17.0625 12C17.0625 12.11 17.059 12.2191 17.0521 12.3272C17.0165 12.8887 17.1861 13.5084 17.6491 13.9658L18.5657 14.8716C18.6563 14.9611 18.6481 15.0505 18.6314 15.0864C18.4492 15.4771 18.2334 15.8492 17.9876 16.1989C17.9644 16.2319 17.8906 16.2834 17.7681 16.2499L16.5273 15.9094C15.8983 15.7368 15.2758 15.9008 14.8071 16.2138C14.627 16.3341 14.4388 16.443 14.2436 16.5397C13.7394 16.7894 13.2866 17.2461 13.1216 17.8768L12.7964 19.1202C12.7642 19.2433 12.6825 19.2812 12.6426 19.2847C12.431 19.303 12.2167 19.3125 12 19.3125C11.7833 19.3125 11.569 19.303 11.3574 19.2847C11.3175 19.2812 11.2358 19.2433 11.2036 19.1202L10.8783 17.8767C10.7134 17.2461 10.2606 16.7894 9.75644 16.5397C9.56124 16.443 9.37308 16.3341 9.19298 16.2138C8.72428 15.9008 8.10166 15.7368 7.47274 15.9094L6.23188 16.2499C6.10935 16.2834 6.03554 16.2319 6.01239 16.1989C5.76661 15.8492 5.5508 15.4771 5.36861 15.0864C5.35189 15.0505 5.34369 14.9611 5.43424 14.8716L6.35098 13.9658C6.81394 13.5083 6.98362 12.8886 6.94789 12.3271C6.94103 12.2191 6.93753 12.11 6.93753 12C6.93753 11.89 6.94103 11.7809 6.94789 11.6729C6.98362 11.1114 6.81394 10.4917 6.35098 10.0342L5.43424 9.12839C5.34369 9.03892 5.35189 8.94946 5.36861 8.91362C5.5508 8.52289 5.76661 8.15079 6.0124 7.80103C6.03554 7.7681 6.10935 7.71653 6.23188 7.75014L7.47274 8.0906C8.10166 8.26317 8.72428 8.0992 9.19298 7.78624C9.37308 7.66599 9.56124 7.55703 9.75644 7.46034C10.2605 7.21064 10.7134 6.75388 10.8783 6.12328L11.2036 4.8798C11.2358 4.75668 11.3175 4.71876 11.3574 4.7153ZM12 3C11.7344 3 11.4714 3.01153 11.2113 3.03414C10.3756 3.10678 9.76115 3.72567 9.57097 4.4528L9.24574 5.6963C9.2261 5.77143 9.15698 5.87411 9.00742 5.94819C8.74686 6.07725 8.49592 6.22258 8.25591 6.38284C8.11756 6.47521 7.99425 6.48383 7.91925 6.46326L6.67839 6.12279C5.95475 5.92424 5.11305 6.14583 4.63171 6.83079C4.32939 7.26102 4.06368 7.71907 3.83921 8.20045C3.48487 8.96034 3.71418 9.80113 4.24817 10.3288L5.16491 11.2346C5.22019 11.2892 5.27434 11.4001 5.2638 11.5657C5.25467 11.7094 5.25003 11.8542 5.25003 12C5.25003 12.1458 5.25467 12.2906 5.2638 12.4343C5.27434 12.5999 5.22019 12.7108 5.16491 12.7654L4.24817 13.6712C3.71417 14.1989 3.48487 15.0396 3.83921 15.7996C4.06368 16.281 4.32939 16.7389 4.63171 17.1691C5.11305 17.8542 5.95475 18.0758 6.67839 17.8772L7.91925 17.5368C7.99425 17.5162 8.11757 17.5248 8.25591 17.6171C8.49592 17.7774 8.74686 17.9228 9.00742 18.0518C9.15698 18.1259 9.2261 18.2286 9.24574 18.3037L9.57097 19.5472C9.76115 20.2744 10.3756 20.8932 11.2113 20.9659C11.4714 20.9885 11.7344 21 12 21C12.2656 21 12.5286 20.9885 12.7887 20.9659C13.6244 20.8932 14.2389 20.2744 14.429 19.5472L14.7542 18.3037C14.7739 18.2286 14.843 18.126 14.9926 18.0518C15.2532 17.9228 15.5042 17.7774 15.7441 17.6171C15.8825 17.5248 16.0058 17.5162 16.0808 17.5368L17.3216 17.8772C18.0453 18.0758 18.8869 17.8542 19.3683 17.1693C19.6706 16.739 19.9363 16.281 20.1607 15.7996C20.5151 15.0396 20.2859 14.1989 19.7518 13.6712L18.8352 12.7655C18.7798 12.7109 18.7257 12.5999 18.7363 12.4343C18.7454 12.2906 18.75 12.1458 18.75 12C18.75 11.8542 18.7454 11.7094 18.7363 11.5657C18.7257 11.4001 18.7798 11.2891 18.8352 11.2345L19.7518 10.3288C20.2859 9.80112 20.5151 8.96033 20.1607 8.20044C19.9363 7.71906 19.6706 7.261 19.3683 6.83079C18.8869 6.14581 18.0453 5.92424 17.3216 6.12279L16.0808 6.46323C16.0058 6.48381 15.8825 6.4752 15.7441 6.38283C15.5042 6.22256 15.2532 6.07721 14.9926 5.94814C14.843 5.87407 14.7739 5.77139 14.7542 5.69625L14.429 4.4528C14.2389 3.72567 13.6244 3.10678 12.7887 3.03414C12.5286 3.01153 12.2656 3 12 3ZM13.6875 12C13.6875 12.932 12.932 13.6875 12 13.6875C11.068 13.6875 10.3125 12.932 10.3125 12C10.3125 11.068 11.068 10.3125 12 10.3125C12.932 10.3125 13.6875 11.068 13.6875 12ZM15.375 12C15.375 13.864 13.864 15.375 12 15.375C10.136 15.375 8.625 13.864 8.625 12C8.625 10.136 10.136 8.625 12 8.625C13.864 8.625 15.375 10.136 15.375 12Z" fill="#292632"/>
</svg>
