<svg width="24" height="24" viewBox="0 0 24 24" fill="none" xmlns="http://www.w3.org/2000/svg">
<path fill-rule="evenodd" clip-rule="evenodd" d="M8.34375 4.6875C7.56709 4.6875 6.9375 5.31709 6.9375 6.09375C6.9375 6.87041 7.56709 7.5 8.34375 7.5H10.9411C10.679 6.58024 10.3312 5.92379 9.95313 5.4827C9.46934 4.91827 8.92437 4.6875 8.34375 4.6875ZM5.25 6.09375C5.25 6.60012 5.37166 7.07809 5.58733 7.5H4.96875C3.88144 7.5 3 8.38144 3 9.46875V11.7188C3 12.5041 3.45986 13.1821 4.125 13.498V19.0312C4.125 20.1186 5.00644 21 6.09375 21H17.9062C18.9936 21 19.875 20.1186 19.875 19.0312V13.498C20.5401 13.1821 21 12.5041 21 11.7188V9.46875C21 8.38144 20.1186 7.5 19.0312 7.5H18.4126C18.6284 7.07809 18.75 6.60012 18.75 6.09375C18.75 4.38512 17.3649 3 15.6562 3C14.5494 3 13.5475 3.47235 12.7656 4.38449C12.4778 4.72024 12.2224 5.11188 12 5.55717C11.7776 5.11188 11.5222 4.72024 11.2344 4.38449C10.4525 3.47235 9.45063 3 8.34375 3C6.63512 3 5.25 4.38512 5.25 6.09375ZM13.0589 7.5H15.6562C16.433 7.5 17.0625 6.87041 17.0625 6.09375C17.0625 5.31709 16.433 4.6875 15.6562 4.6875C15.0756 4.6875 14.5307 4.91827 14.0469 5.4827C13.6688 5.92379 13.321 6.58024 13.0589 7.5ZM4.96875 9.1875C4.81342 9.1875 4.6875 9.31342 4.6875 9.46875V11.7188C4.6875 11.8741 4.81342 12 4.96875 12H11.1562V9.1875H4.96875ZM12.8438 9.1875V12H19.0312C19.1866 12 19.3125 11.8741 19.3125 11.7188V9.46875C19.3125 9.31342 19.1866 9.1875 19.0312 9.1875H12.8438ZM12.8438 13.6875H18.1875V19.0312C18.1875 19.1866 18.0616 19.3125 17.9062 19.3125H12.8438V13.6875ZM11.1562 13.6875V19.3125H6.09375C5.93842 19.3125 5.8125 19.1866 5.8125 19.0312V13.6875H11.1562Z" fill="#292632"/>
</svg>
