<svg width="24" height="24" viewBox="0 0 24 24" fill="none" xmlns="http://www.w3.org/2000/svg">
<path fill-rule="evenodd" clip-rule="evenodd" d="M4.6875 4.96875C4.6875 4.50276 4.30974 4.125 3.84375 4.125C3.37776 4.125 3 4.50276 3 4.96875V19.0312C3 19.4972 3.37776 19.875 3.84375 19.875H20.1562C20.6222 19.875 21 19.4972 21 19.0312C21 18.5653 20.6222 18.1875 20.1562 18.1875H4.6875V4.96875ZM20.7528 7.81537C21.0824 7.48587 21.0824 6.95163 20.7528 6.62213C20.4233 6.29263 19.8892 6.29263 19.5597 6.62213L14.25 11.9318L11.4716 9.15338C11.1421 8.82388 10.6079 8.82388 10.2784 9.15338L6.62213 12.8096C6.29263 13.1391 6.29263 13.6734 6.62213 14.0029C6.95163 14.3323 7.48587 14.3323 7.81537 14.0029L10.875 10.9432L13.6534 13.7216C13.8116 13.8799 14.0262 13.9688 14.25 13.9688C14.4738 13.9688 14.6884 13.8799 14.8466 13.7216L20.7528 7.81537Z" fill="#292632"/>
</svg>
