<svg width="24" height="24" viewBox="0 0 24 24" fill="none" xmlns="http://www.w3.org/2000/svg">
<path d="M4.35 5.0625C4.35 4.75184 4.04779 4.5 3.675 4.5C3.30221 4.5 3 4.75184 3 5.0625V18.9375C3 19.2482 3.30221 19.5 3.675 19.5H20.325C20.6978 19.5 21 19.2482 21 18.9375C21 18.6268 20.6978 18.375 20.325 18.375H4.35V5.0625Z" fill="#292632"/>
<path d="M12.675 5.077C13.0478 5.077 13.35 5.32884 13.35 5.6395V15.7645C13.35 16.0752 13.0478 16.327 12.675 16.327C12.3022 16.327 12 16.0752 12 15.7645V5.6395C12 5.32884 12.3022 5.077 12.675 5.077Z" fill="#292632"/>
<path d="M9.3 9.35874C9.3 9.04808 8.99779 8.79624 8.625 8.79624C8.25221 8.79624 7.95 9.04808 7.95 9.35874V15.7337C7.95 16.0444 8.25221 16.2962 8.625 16.2962C8.99779 16.2962 9.3 16.0444 9.3 15.7337V9.35874Z" fill="#292632"/>
<path d="M17.4 12.3587C17.4 12.0481 17.0978 11.7962 16.725 11.7962C16.3522 11.7962 16.05 12.0481 16.05 12.3587V15.7337C16.05 16.0444 16.3522 16.2962 16.725 16.2962C17.0978 16.2962 17.4 16.0444 17.4 15.7337V12.3587Z" fill="#292632"/>
<path d="M4.35 5.0625C4.35 4.75184 4.04779 4.5 3.675 4.5C3.30221 4.5 3 4.75184 3 5.0625V18.9375C3 19.2482 3.30221 19.5 3.675 19.5H20.325C20.6978 19.5 21 19.2482 21 18.9375C21 18.6268 20.6978 18.375 20.325 18.375H4.35V5.0625Z" stroke="#292632" stroke-width="0.375" stroke-linecap="round" stroke-linejoin="round"/>
<path d="M12.675 5.077C13.0478 5.077 13.35 5.32884 13.35 5.6395V15.7645C13.35 16.0752 13.0478 16.327 12.675 16.327C12.3022 16.327 12 16.0752 12 15.7645V5.6395C12 5.32884 12.3022 5.077 12.675 5.077Z" stroke="#292632" stroke-width="0.375" stroke-linecap="round" stroke-linejoin="round"/>
<path d="M9.3 9.35874C9.3 9.04808 8.99779 8.79624 8.625 8.79624C8.25221 8.79624 7.95 9.04808 7.95 9.35874V15.7337C7.95 16.0444 8.25221 16.2962 8.625 16.2962C8.99779 16.2962 9.3 16.0444 9.3 15.7337V9.35874Z" stroke="#292632" stroke-width="0.375" stroke-linecap="round" stroke-linejoin="round"/>
<path d="M17.4 12.3587C17.4 12.0481 17.0978 11.7962 16.725 11.7962C16.3522 11.7962 16.05 12.0481 16.05 12.3587V15.7337C16.05 16.0444 16.3522 16.2962 16.725 16.2962C17.0978 16.2962 17.4 16.0444 17.4 15.7337V12.3587Z" stroke="#292632" stroke-width="0.375" stroke-linecap="round" stroke-linejoin="round"/>
</svg>
