<svg width="24" height="24" viewBox="0 0 24 24" fill="none" xmlns="http://www.w3.org/2000/svg">
<path fill-rule="evenodd" clip-rule="evenodd" d="M3.9 3C3.40294 3 3 3.40294 3 3.9V10.2C3 10.6971 3.40294 11.1 3.9 11.1H10.2C10.6971 11.1 11.1 10.6971 11.1 10.2V3.9C11.1 3.40294 10.6971 3 10.2 3H3.9ZM4.8 9.3V4.8H9.3V9.3H4.8Z" fill="#292632"/>
<path fill-rule="evenodd" clip-rule="evenodd" d="M13.8001 3C13.3031 3 12.9001 3.40294 12.9001 3.9V10.2C12.9001 10.6971 13.3031 11.1 13.8001 11.1H20.1001C20.5972 11.1 21.0001 10.6971 21.0001 10.2V3.9C21.0001 3.40294 20.5972 3 20.1001 3H13.8001ZM14.7001 9.3V4.8H19.2001V9.3H14.7001Z" fill="#292632"/>
<path fill-rule="evenodd" clip-rule="evenodd" d="M12.9001 13.8C12.9001 13.3029 13.3031 12.9 13.8001 12.9H20.1001C20.5972 12.9 21.0001 13.3029 21.0001 13.8V20.1C21.0001 20.597 20.5972 21 20.1001 21H13.8001C13.3031 21 12.9001 20.597 12.9001 20.1V13.8ZM14.7001 14.7V19.2H19.2001V14.7H14.7001Z" fill="#292632"/>
<path fill-rule="evenodd" clip-rule="evenodd" d="M3.9 12.9C3.40294 12.9 3 13.3029 3 13.8V20.1C3 20.597 3.40294 21 3.9 21H10.2C10.6971 21 11.1 20.597 11.1 20.1V13.8C11.1 13.3029 10.6971 12.9 10.2 12.9H3.9ZM4.8 19.2V14.7H9.3V19.2H4.8Z" fill="#292632"/>
</svg>
