<svg xmlns="http://www.w3.org/2000/svg" width="14" height="14" viewBox="8 8 14 14" fill="none">
<path d="M14.1515 11.9045C13.7016 11.8192 13.1454 12.0542 12.9313 12.9323C12.8243 13.4031 12.846 14.1742 12.8887 14.9879V15.1376C12.8887 15.33 12.739 15.4805 12.5458 15.4588C12.3961 15.437 12.2891 15.3091 12.2891 15.1594V15.0306C12.2673 14.3883 12.2464 13.8313 12.2673 13.3605C12.2891 13.1681 12.31 12.975 12.3526 12.8253C12.5023 12.1403 12.8661 11.7122 13.2734 11.4981C13.4657 10.834 13.6372 10.2135 13.8086 9.84972C14.2586 8.77925 12.9305 8.00818 12.2029 8.9507C11.4536 9.87063 9.18465 13.1891 9.20563 14.9663C9.20563 15.78 9.39798 17.0428 9.71911 18.2203C9.76176 18.4126 9.71911 18.6058 9.59032 18.7555L9.07684 19.376C8.92714 19.5684 8.94805 19.8469 9.11949 19.9965L11.3039 21.8172C11.4962 21.9669 11.7747 21.946 11.9244 21.7528C12.2238 21.3672 12.7381 20.7467 13.1446 20.1688C14.0009 19.0131 14.5579 17.6849 14.665 17.0219C14.7503 16.4223 14.772 15.5876 14.7503 14.7521C14.7285 14.0454 14.7076 13.2961 14.7929 12.6755C14.8581 12.2474 14.5153 11.9689 14.1515 11.9045L14.1515 11.9045ZM21.1521 19.3551L20.6386 18.7346C20.5098 18.5849 20.4672 18.3917 20.5098 18.1994C20.831 17.0218 21.0233 15.7591 21.0233 14.9454C21.0451 13.1682 18.7753 9.84975 18.0479 8.88633C17.3203 7.94466 15.9922 8.71489 16.4422 9.78535C16.5919 10.1491 16.7851 10.7705 16.9774 11.4337C17.3838 11.6478 17.7267 12.076 17.8982 12.7609C17.9408 12.9323 17.9626 13.1038 17.9835 13.2961C18.0261 13.767 18.0052 14.3448 17.9617 14.9662V15.095C17.9617 15.2447 17.8547 15.3944 17.705 15.3944C17.5126 15.4161 17.3412 15.2656 17.3621 15.0733V14.9236C17.4047 14.1098 17.4265 13.3396 17.3194 12.8679C17.1054 11.9898 16.5484 11.7548 16.0993 11.8401C15.7355 11.9045 15.3926 12.183 15.4353 12.6321C15.4997 13.2526 15.4997 14.0019 15.4779 14.7086C15.4562 15.5223 15.4779 16.3787 15.5632 16.9784C15.6703 17.6424 16.2272 18.9696 17.0836 20.1254C17.5118 20.6823 18.0044 21.3246 18.3038 21.7093C18.4535 21.9017 18.732 21.9234 18.9243 21.7737L21.1095 19.9757C21.281 19.826 21.3019 19.5475 21.1522 19.3551L21.1521 19.3551Z" fill="white"/>
</svg>
