<svg width="26" height="15" viewBox="0 0 26 15" fill="none" xmlns="http://www.w3.org/2000/svg">
<path d="M5.63216 3.01596L5.75 2.25L2.75 1.75L0.75 7.75L4.75 8.75L4.92246 7.62903M5.63216 3.01596C8.25 3.01596 10.25 0.75 12.25 0.75C14.25 0.75 15.25 1.25 15.6536 2.39588M5.63216 3.01596L4.92246 7.62903M20.3594 3.01596L21.25 9.25L25.25 7.75L22.75 1.75L20.25 2.25L20.3594 3.01596ZM20.3594 3.01596C17.2516 3.19296 16.7801 2.66417 15.6536 2.39588M17.75 11.25C19.25 12 20.55 10.55 19.75 9.75C18.95 8.95 16.25 8.25 13.75 5.25C13.0833 5.41667 11.45 5.75 10.25 5.75C8.75 5.75 7.25 4.75 8.75 4.25C10.25 3.75 11.75 2.25 14.25 2.25C14.8593 2.25 15.2905 2.30941 15.6536 2.39588M17.75 11.25C16.7381 10.744 14.25 9.25 13.25 8.25M17.75 11.25C17.25 12.25 16.25 12.75 14.75 12.25M14.75 12.25C13.6767 11.8922 12.5833 11.0833 12.25 10.75M14.75 12.25C14.25 13.25 13.25 13.75 11.75 13.25C10.4084 12.8028 8.25 11.75 7.25 10.75C6.25 9.75 6.09491 8.00805 4.92246 7.62903" stroke="white" stroke-width="1.5" stroke-linecap="round" stroke-linejoin="round"/>
</svg>
