<svg width="13" height="14" viewBox="0 0 13 14" fill="none" xmlns="http://www.w3.org/2000/svg">
<path d="M5.17494 3.44256C4.725 3.35726 4.16887 3.59226 3.95478 4.47038C3.84773 4.94121 3.86948 5.71229 3.91213 6.52601V6.67571C3.91213 6.86806 3.76243 7.0186 3.56924 6.99685C3.41954 6.9751 3.3125 6.84715 3.3125 6.69746V6.56867C3.29075 5.92639 3.26985 5.36941 3.29075 4.89858C3.3125 4.70623 3.33341 4.51304 3.37606 4.36335C3.52575 3.67842 3.88954 3.25024 4.29683 3.03614C4.48918 2.37211 4.66061 1.75159 4.83206 1.3878C5.28199 0.317339 3.95394 -0.453737 3.22636 0.488785C2.47704 1.40872 0.208087 4.72717 0.229068 6.50436C0.229068 7.31808 0.421417 8.58088 0.742547 9.75835C0.785199 9.9507 0.742547 10.1439 0.613758 10.2936L0.100278 10.9141C-0.0494196 11.1065 -0.0285113 11.3849 0.14293 11.5346L2.32732 13.3553C2.51967 13.505 2.79815 13.484 2.94784 13.2909C3.24723 12.9053 3.76156 12.2848 4.168 11.7069C5.02437 10.5512 5.58135 9.22302 5.6884 8.55997C5.7737 7.96034 5.79544 7.12572 5.7737 6.29016C5.75196 5.58349 5.73105 4.83416 5.81635 4.21364C5.88158 3.78545 5.5387 3.50696 5.17491 3.44256L5.17494 3.44256ZM12.1755 10.8932L11.6621 10.2727C11.5333 10.123 11.4906 9.92978 11.5333 9.73744C11.8544 8.55993 12.0468 7.29721 12.0468 6.48345C12.0685 4.70631 9.79879 1.38783 9.0713 0.424415C8.34373 -0.517249 7.01567 0.252974 7.46561 1.32343C7.6153 1.68722 7.8085 2.3086 8.00084 2.97177C8.40727 3.18587 8.75016 3.61405 8.92161 4.29898C8.96426 4.47042 8.986 4.64187 9.00691 4.83421C9.04956 5.30504 9.02865 5.88292 8.98517 6.5043V6.63309C8.98517 6.78279 8.87812 6.93248 8.72843 6.93248C8.53608 6.95422 8.36464 6.80369 8.38554 6.61134V6.46164C8.42819 5.64792 8.44993 4.8777 8.34288 4.40601C8.12879 3.52789 7.57181 3.2929 7.12273 3.37819C6.75894 3.44259 6.41605 3.72109 6.4587 4.17017C6.52309 4.79069 6.52309 5.54002 6.50135 6.24669C6.47961 7.06042 6.50135 7.91679 6.58665 8.5165C6.6937 9.18053 7.25068 10.5077 8.10705 11.6634C8.53524 12.2204 9.02782 12.8627 9.32721 13.2474C9.47691 13.4397 9.75539 13.4615 9.94773 13.3118L12.133 11.5138C12.3044 11.3641 12.3253 11.0856 12.1756 10.8932L12.1755 10.8932Z" fill="white"/>
</svg>
