<svg width="20" height="18" viewBox="0 0 20 18" fill="none" xmlns="http://www.w3.org/2000/svg">
<path d="M9.7561 1.77138C11.0181 0.458719 13.0002 -0.282032 15.3147 0.101462C18.2072 0.580817 20.6177 3.51477 19.3674 7.2958C18.5954 9.63033 16.7331 11.6288 14.9163 13.2626C14.0001 14.0864 13.0647 14.8441 12.2551 15.5126C11.4381 16.1873 10.7672 16.7573 10.3127 17.246C10.2942 17.2669 10.2744 17.2873 10.2532 17.3065C10.2027 17.3521 10.146 17.3865 10.0881 17.4159C10.0695 17.4253 10.0507 17.4335 10.0315 17.4413C10.0063 17.4515 9.98119 17.4603 9.95532 17.4677C9.93362 17.4738 9.91198 17.4791 9.88989 17.4833C9.86487 17.488 9.83997 17.4909 9.81469 17.4931C9.79218 17.495 9.7699 17.497 9.74731 17.497C9.72244 17.4969 9.69783 17.4956 9.67309 17.4931C9.64876 17.4906 9.62488 17.4862 9.60082 17.4813C9.57769 17.4766 9.55513 17.4707 9.53247 17.4638C9.51039 17.4571 9.48856 17.4501 9.46704 17.4413C9.4417 17.431 9.41709 17.4194 9.39282 17.4061C9.36734 17.3923 9.34173 17.3783 9.31762 17.3612C9.29304 17.3438 9.26906 17.3253 9.24633 17.3046C9.24479 17.3032 9.24298 17.3021 9.24145 17.3007L9.1936 17.2528C8.74949 16.7618 8.08939 16.1874 7.28344 15.5067C6.49203 14.8384 5.57684 14.0807 4.6809 13.2567C2.90315 11.6218 1.08355 9.62316 0.329341 7.29092C-0.887059 3.52866 1.45171 0.584867 4.30395 0.101462C6.57661 -0.283568 8.51973 0.460405 9.7561 1.77138ZM15.0696 1.58095C12.8743 1.2172 11.1986 2.1231 10.3801 3.38857C10.3493 3.43612 10.3125 3.47748 10.2737 3.51552C10.2468 3.54177 10.2181 3.5663 10.1868 3.58877C10.1784 3.59479 10.17 3.6007 10.1614 3.60635C10.1576 3.60884 10.1545 3.61269 10.1506 3.61513C10.121 3.63384 10.0899 3.6489 10.0588 3.66299C10.0502 3.66689 10.0413 3.67016 10.0325 3.67373C10.0101 3.68286 9.98693 3.68837 9.96411 3.69521C9.9394 3.70257 9.9152 3.71093 9.88989 3.71572C9.86524 3.72039 9.84047 3.72137 9.81567 3.72353C9.79285 3.72554 9.77028 3.7285 9.74731 3.72842C9.72002 3.72828 9.69328 3.72467 9.66625 3.72158C9.64537 3.71922 9.6245 3.71792 9.60375 3.71377C9.5798 3.70897 9.55683 3.70133 9.53344 3.69424C9.50667 3.68608 9.47945 3.67918 9.45336 3.66787C9.4492 3.66607 9.4448 3.66486 9.44067 3.66299C9.40743 3.64785 9.3746 3.63067 9.34301 3.61025C9.33735 3.60659 9.33194 3.60232 9.32641 3.59853C9.32216 3.59562 9.31791 3.59275 9.31372 3.58974C9.27855 3.56459 9.24655 3.53657 9.21704 3.50674C9.18708 3.47631 9.15906 3.44335 9.13403 3.40713C9.13176 3.40386 9.1294 3.40066 9.12719 3.39736C9.12369 3.39212 9.11984 3.38709 9.11645 3.38174C8.3162 2.11634 6.68509 1.21881 4.55395 1.57998C2.56873 1.91653 0.831682 3.97113 1.7561 6.82998C2.38361 8.77025 3.94987 10.5469 5.69653 12.1532C6.56268 12.9498 7.44459 13.68 8.25122 14.3612C8.79574 14.8211 9.31421 15.2679 9.7561 15.6894C10.2088 15.2663 10.7407 14.8173 11.3 14.3554C12.1248 13.6743 13.0273 12.9441 13.9133 12.1474C15.701 10.5398 17.3026 8.76329 17.9436 6.8251C18.8828 3.98496 17.1243 1.92148 15.0696 1.58095ZM4.01 3.12881C4.72189 2.74369 5.60645 2.74427 6.48754 3.03799C6.88032 3.16908 7.09214 3.59434 6.96118 3.9872C6.83003 4.37975 6.40565 4.59255 6.01293 4.46181C5.39404 4.25551 4.9651 4.31764 4.72387 4.44814C4.50971 4.56404 4.3324 4.7914 4.31176 5.22256C4.26695 6.1667 5.02537 7.96116 7.72485 10.1698C8.04517 10.4322 8.0925 10.904 7.83032 11.2245C7.56803 11.5449 7.09519 11.5921 6.77465 11.33C3.97481 9.03908 2.73381 6.83207 2.81372 5.15127C2.85576 4.27053 3.27141 3.52847 4.01 3.12881ZM13.2502 2.9999C13.6643 3.00003 14.0002 3.33577 14.0002 3.7499C14.0001 4.16389 13.6642 4.49977 13.2502 4.4999C12.7861 4.4999 12.4801 4.72098 12.2639 4.98037C12.1538 5.11257 12.0741 5.24772 12.0227 5.35049C11.9975 5.40088 11.9801 5.44178 11.97 5.4667C11.9661 5.47635 11.9628 5.48379 11.9612 5.48818V5.4872C11.83 5.87973 11.4056 6.09253 11.0129 5.96181C10.6201 5.83085 10.4075 5.40549 10.5383 5.0126L11.2502 5.2499C10.5754 5.02496 10.5401 5.01257 10.5383 5.01162H10.5393V5.00967L10.5432 4.99795C10.5454 4.99167 10.5487 4.98356 10.552 4.97451C10.5587 4.9563 10.5679 4.9325 10.5793 4.9042C10.6024 4.84714 10.6359 4.76953 10.6809 4.67959C10.7701 4.50131 10.9097 4.26172 11.1116 4.01943C11.5204 3.5289 12.2146 2.9999 13.2502 2.9999Z" fill="white"/>
</svg>
