<svg width="23" height="18" viewBox="0 0 23 18" fill="none" xmlns="http://www.w3.org/2000/svg">
<path d="M7.03223 1.23877C7.9502 0.314837 9.36635 -0.1998 11.0117 0.0727539C13.1134 0.421022 14.8633 2.5538 13.957 5.29443C13.9418 5.34046 13.9236 5.38549 13.9072 5.43115C14.3357 5.63868 14.7145 5.9129 15.0322 6.23877C15.9503 5.31472 17.3673 4.80014 19.0127 5.07275C21.114 5.42137 22.8633 7.55503 21.957 10.2954C21.4 11.9793 20.0593 13.4158 18.7607 14.5835C18.1052 15.173 17.4359 15.715 16.8584 16.1919C16.2692 16.6785 15.79 17.0858 15.4688 17.4331C15.4622 17.4402 15.4531 17.4449 15.4463 17.4517C15.4406 17.4573 15.4367 17.4648 15.4307 17.4702C15.4223 17.4778 15.4111 17.4827 15.4023 17.4897C15.3864 17.5027 15.3704 17.5148 15.3535 17.5259C15.3363 17.5371 15.3188 17.5469 15.3008 17.5562C15.2852 17.5641 15.27 17.5721 15.2539 17.5786C15.2315 17.5878 15.2087 17.5947 15.1855 17.6011C15.1722 17.6047 15.159 17.6081 15.1455 17.6108C15.1221 17.6155 15.0989 17.6187 15.0752 17.6206C15.0589 17.6219 15.0427 17.6226 15.0264 17.6226C15.007 17.6225 14.988 17.6215 14.9688 17.6196C14.9487 17.6177 14.929 17.6148 14.9092 17.6108C14.8887 17.6067 14.8687 17.6015 14.8486 17.5952C14.8345 17.5908 14.8205 17.5861 14.8066 17.5806C14.7832 17.5713 14.7606 17.5607 14.7383 17.5483C14.7254 17.5412 14.7126 17.534 14.7002 17.5259C14.6808 17.5132 14.6626 17.499 14.6445 17.4839C14.6371 17.4777 14.6283 17.473 14.6211 17.4663C14.6152 17.4608 14.6102 17.4534 14.6045 17.4478C14.5977 17.4409 14.5895 17.4354 14.583 17.4282C14.2692 17.0812 13.8008 16.6737 13.2246 16.187C13.1382 16.1141 13.0492 16.0393 12.959 15.9634C12.4596 15.5432 11.9071 15.0779 11.3643 14.5786C10.3646 13.6593 9.34202 12.5735 8.68555 11.3335C8.17484 11.7579 7.75819 12.1203 7.46875 12.4331C7.46184 12.4406 7.4525 12.4456 7.44531 12.4526C7.43966 12.4582 7.4356 12.4658 7.42969 12.4712C7.42099 12.479 7.41039 12.4845 7.40137 12.4917C7.38589 12.5041 7.3699 12.5152 7.35352 12.5259C7.33656 12.537 7.31947 12.547 7.30176 12.5562C7.28439 12.5651 7.26704 12.5734 7.24902 12.5806C7.23098 12.5878 7.21284 12.5938 7.19434 12.5991C7.17555 12.6046 7.15684 12.6092 7.1377 12.6128C7.11755 12.6165 7.09749 12.6189 7.07715 12.6206C7.06018 12.622 7.04339 12.6226 7.02637 12.6226C7.00671 12.6225 6.98733 12.6216 6.96777 12.6196C6.94742 12.6176 6.92734 12.615 6.90723 12.6108C6.8911 12.6075 6.87522 12.6038 6.85938 12.5991C6.83674 12.5925 6.81487 12.5841 6.79297 12.5747C6.77943 12.5689 6.76609 12.563 6.75293 12.5562C6.73254 12.5456 6.71271 12.5341 6.69336 12.521C6.67857 12.511 6.66441 12.5002 6.65039 12.4888C6.64074 12.4809 6.62939 12.4749 6.62012 12.4663C6.61281 12.4596 6.60748 12.4509 6.60059 12.4438C6.59514 12.4383 6.58828 12.434 6.58301 12.4282C6.26932 12.0813 5.80074 11.6746 5.22461 11.188C4.66016 10.7113 4.00531 10.1691 3.36426 9.57959C2.09341 8.41087 0.782445 6.97379 0.238281 5.2915C-0.642984 2.5661 1.05302 0.425478 3.12695 0.0737305C4.74335 -0.200209 6.1324 0.316384 7.03223 1.23877ZM14.5205 7.51318C13.9634 6.63238 12.8251 6.00263 11.3281 6.25635C9.94757 6.49024 8.73242 7.91859 9.37988 9.92139C9.82257 11.2902 10.9307 12.5489 12.1768 13.6948C12.6984 14.1747 13.2279 14.6209 13.7275 15.0415C13.8189 15.1185 13.9099 15.1948 13.999 15.27C14.3697 15.583 14.7245 15.8897 15.0322 16.1802C15.3477 15.8886 15.7128 15.5816 16.0938 15.2671C16.6833 14.7802 17.3267 14.2596 17.958 13.6919C19.2333 12.5451 20.3662 11.2855 20.8184 9.91846C21.4757 7.93094 20.2476 6.49487 18.8164 6.25732C17.2726 6.00156 16.102 6.63806 15.5322 7.51904C15.5297 7.52292 15.526 7.52599 15.5234 7.52979C15.5193 7.53592 15.5142 7.54137 15.5098 7.54736C15.4904 7.5737 15.47 7.59834 15.4473 7.62061C15.4387 7.629 15.4281 7.63513 15.4189 7.64307C15.3982 7.66105 15.3781 7.67907 15.3555 7.69385C15.353 7.69547 15.3512 7.69811 15.3486 7.69971C15.3379 7.70648 15.3254 7.71029 15.3145 7.71631C15.2932 7.72789 15.2724 7.73964 15.25 7.74854C15.2292 7.75688 15.2078 7.76219 15.1865 7.76807C15.1718 7.7721 15.1575 7.77687 15.1426 7.77979C15.1205 7.7841 15.0984 7.78581 15.0762 7.7876C15.0589 7.78901 15.0418 7.79061 15.0244 7.79053C15.0047 7.7904 14.9853 7.78867 14.9658 7.78662C14.9468 7.78466 14.928 7.78261 14.9092 7.77881C14.8893 7.77478 14.87 7.7692 14.8506 7.76318C14.8329 7.7577 14.8151 7.7528 14.7979 7.74561C14.7795 7.73801 14.7627 7.72768 14.7451 7.71826C14.7311 7.71073 14.7157 7.70554 14.7021 7.69678C14.6985 7.69439 14.695 7.69044 14.6914 7.68799C14.6791 7.67966 14.668 7.66994 14.6562 7.66064C14.6363 7.6448 14.6161 7.62968 14.5986 7.61182C14.5903 7.60323 14.5841 7.59266 14.5762 7.5835C14.5581 7.56259 14.5402 7.54193 14.5254 7.51904C14.524 7.51697 14.5218 7.51528 14.5205 7.51318ZM10.8164 1.25635C9.27256 1.00052 8.10107 1.6371 7.53125 2.51807C7.53029 2.51955 7.52831 2.5205 7.52734 2.52197C7.51283 2.54405 7.49606 2.56427 7.47852 2.58447C7.4686 2.59591 7.45984 2.60813 7.44922 2.61865C7.43303 2.63466 7.41475 2.64829 7.39648 2.6626C7.38401 2.67239 7.37249 2.68319 7.35938 2.69189C7.35562 2.69439 7.35246 2.69826 7.34863 2.70068C7.33258 2.71082 7.31444 2.71666 7.29785 2.7251C7.28284 2.73269 7.26847 2.74127 7.25293 2.74756C7.23022 2.7568 7.20688 2.76275 7.18359 2.76904C7.17021 2.77266 7.15716 2.7771 7.14355 2.77979C7.12083 2.78425 7.09809 2.7858 7.0752 2.7876C7.05857 2.78893 7.04212 2.79058 7.02539 2.79053C7.00303 2.79041 6.98112 2.78823 6.95898 2.78564C6.94402 2.78392 6.92894 2.78363 6.91406 2.78076C6.8824 2.77462 6.85162 2.76552 6.82129 2.75439C6.81607 2.75247 6.81085 2.75061 6.80566 2.74854C6.7779 2.73747 6.75156 2.72369 6.72559 2.7085C6.71811 2.70411 6.7095 2.70153 6.70215 2.69678C6.70012 2.69547 6.69829 2.69322 6.69629 2.69189C6.6753 2.67798 6.65698 2.66072 6.6377 2.64404C6.62569 2.63369 6.61258 2.62489 6.60156 2.61377C6.58702 2.59903 6.57467 2.58237 6.56152 2.56592C6.55 2.55154 6.5374 2.5382 6.52734 2.52295C6.52531 2.51987 6.52249 2.51729 6.52051 2.51416C5.96347 1.63331 4.82515 1.00276 3.32812 1.25635C1.94764 1.49035 0.732267 2.91955 1.37988 4.92236C1.82263 6.291 2.93087 7.55002 4.17676 8.6958C4.79398 9.26341 5.42238 9.78401 5.99902 10.271C6.36954 10.5839 6.72462 10.8898 7.03223 11.1802C7.34785 10.8885 7.7127 10.5808 8.09375 10.2661C8.13028 10.236 8.16622 10.2047 8.20312 10.1743C7.40637 7.50436 9.08255 5.41951 11.127 5.07275C11.7056 4.9747 12.2552 4.98011 12.7637 5.06689C12.782 5.0171 12.8008 4.96757 12.8174 4.91748C13.4746 2.92982 12.2475 1.49372 10.8164 1.25635Z" fill="white"/>
</svg>
