<svg width="24" height="24" viewBox="0 0 24 24" fill="none" xmlns="http://www.w3.org/2000/svg">
<path fill-rule="evenodd" clip-rule="evenodd" d="M7.78125 5.81262C6.27849 5.81262 4.6875 7.12236 4.6875 9.18762C4.6875 11.606 6.46546 13.8493 8.47279 15.5798C9.45225 16.4242 10.4358 17.1029 11.1765 17.5711C11.5096 17.7817 11.7918 17.9486 12 18.0677C12.2082 17.9486 12.4904 17.7817 12.8235 17.5711C13.5642 17.1029 14.5478 16.4242 15.5272 15.5798C17.5345 13.8493 19.3125 11.606 19.3125 9.18762C19.3125 7.12236 17.7215 5.81262 16.2188 5.81262C14.6739 5.81262 13.2839 6.92166 12.8113 8.57567C12.7078 8.93789 12.3767 9.18762 12 9.18762C11.6233 9.18762 11.2922 8.93789 11.1887 8.57567C10.7161 6.92166 9.32609 5.81262 7.78125 5.81262ZM12 19.0314C11.6124 19.7808 11.6121 19.7807 11.6119 19.7805L11.6093 19.7792L11.6032 19.776L11.5824 19.7651C11.5648 19.7558 11.5396 19.7424 11.5074 19.7249C11.4429 19.6902 11.3504 19.6393 11.2336 19.5733C11.0003 19.4411 10.6699 19.2474 10.2747 18.9975C9.48605 18.4989 8.43057 17.7714 7.37096 16.858C5.30016 15.0727 3 12.3942 3 9.18762C3 6.19039 5.34651 4.12512 7.78125 4.12512C9.52203 4.12512 11.047 5.02682 12 6.39757C12.953 5.02682 14.4779 4.12512 16.2188 4.12512C18.6535 4.12512 21 6.19039 21 9.18762C21 12.3942 18.6998 15.0727 16.629 16.858C15.5694 17.7714 14.5139 18.4989 13.7253 18.9975C13.3301 19.2474 12.9997 19.4411 12.7664 19.5733C12.6496 19.6393 12.5571 19.6902 12.4926 19.7249C12.4604 19.7424 12.4352 19.7558 12.4176 19.7651L12.3968 19.776L12.3907 19.7792L12.3881 19.7805C12.3879 19.7807 12.3876 19.7808 12 19.0314ZM12 19.0314L12.3881 19.7805C12.145 19.9063 11.855 19.9063 11.6119 19.7805L12 19.0314Z" fill="#292632"/>
</svg>
