<svg width="24" height="24" viewBox="0 0 24 24" fill="none" xmlns="http://www.w3.org/2000/svg">
<path fill-rule="evenodd" clip-rule="evenodd" d="M12.1826 5.19696C12.1307 5.1555 12.0662 5.13292 11.9998 5.13292C11.9334 5.13292 11.8689 5.1555 11.817 5.19696L5.66451 10.1189C5.63005 10.1465 5.60224 10.1814 5.58316 10.2212C5.56409 10.2609 5.55424 10.3045 5.55436 10.3486V18.5742C5.55436 18.7359 5.68561 18.8672 5.84733 18.8672H9.07005V12.7147C9.07005 12.4816 9.16265 12.258 9.32748 12.0932C9.49231 11.9284 9.71587 11.8358 9.94897 11.8358H14.0506C14.2837 11.8358 14.5073 11.9284 14.6721 12.0932C14.837 12.258 14.9295 12.4816 14.9295 12.7147V18.8672H18.1523C18.23 18.8672 18.3045 18.8363 18.3595 18.7814C18.4144 18.7264 18.4452 18.6519 18.4452 18.5742V10.3475C18.4451 10.3035 18.4353 10.2602 18.4162 10.2206C18.3971 10.1811 18.3694 10.1463 18.3351 10.1189L12.1826 5.19696ZM10.7177 3.82466C11.0814 3.53359 11.5334 3.375 11.9992 3.375C12.465 3.375 12.917 3.53359 13.2807 3.82466L19.4331 8.74664C19.9195 9.1357 20.2031 9.72518 20.2031 10.3486V18.5742C20.2031 19.1181 19.987 19.6397 19.6024 20.0243C19.2177 20.4089 18.6961 20.625 18.1523 20.625H14.0506C13.8175 20.625 13.594 20.5324 13.4291 20.3675C13.2643 20.2028 13.1717 19.9792 13.1717 19.7461V13.5936H10.8279V19.7461C10.8279 19.9792 10.7353 20.2028 10.5705 20.3675C10.4056 20.5324 10.1821 20.625 9.94897 20.625H5.84733C5.30342 20.625 4.78178 20.4089 4.39718 20.0243C4.01257 19.6397 3.79651 19.1181 3.79651 18.5742V10.3475C3.79651 9.72518 4.08011 9.1357 4.56645 8.74664L10.7189 3.82466H10.7177Z" fill="#292632"/>
</svg>
