<svg width="18" height="14" viewBox="0 0 18 14" fill="none" xmlns="http://www.w3.org/2000/svg">
<path d="M17.8125 6.71875L16 5.21875V2.21875C16 2.09375 15.875 1.96875 15.75 1.96875H14.75C14.5938 2 14.5 2.09375 14.5 2.21875V4L10.0938 0.375C9.8125 0.125 9.40625 0 9 0C8.5625 0 8.15625 0.125 7.875 0.375L0.15625 6.71875C0.0625 6.8125 0 6.9375 0 7.09375C0 7.21875 0.03125 7.34375 0.09375 7.40625L0.4375 7.8125C0.5 7.90625 0.65625 7.96875 0.8125 7.96875C0.9375 7.96875 1.03125 7.9375 1.125 7.875L2 7.15625V12.9688C2 13.5312 2.4375 13.9688 3 13.9688H7C7.53125 13.9688 7.96875 13.5312 8 12.9688V9.71875H10V12.9688C10 13.5312 10.4375 13.9688 11 13.9688H15C15.5312 13.9688 15.9688 13.5312 16 13V7.15625L16.8438 7.875C16.9375 7.9375 17.0312 8 17.1562 8C17.3125 8 17.4688 7.90625 17.5625 7.8125L17.875 7.40625C17.9375 7.34375 18 7.21875 18 7.09375C18 6.9375 17.9062 6.8125 17.8125 6.71875ZM14.4688 12.4688H11.5V9.21875C11.4688 8.6875 11.0312 8.25 10.5 8.21875H7.5C6.9375 8.25 6.5 8.6875 6.5 9.21875V12.4688H3.5V5.9375L9 1.40625L14.5 5.9375L14.4688 12.4688Z" fill="white"/>
</svg>
