<svg width="24" height="24" viewBox="0 0 24 24" fill="none" xmlns="http://www.w3.org/2000/svg">
<path fill-rule="evenodd" clip-rule="evenodd" d="M4.96875 5.8125C4.81342 5.8125 4.6875 5.93842 4.6875 6.09375V17.9062C4.6875 18.0616 4.81342 18.1875 4.96875 18.1875H6.02723C6.03765 18.1759 6.04845 18.1644 6.05963 18.1533L12.8967 11.3162C13.6385 10.5744 14.8317 10.5446 15.6097 11.2484L19.3125 14.5986V6.09375C19.3125 5.93842 19.1866 5.8125 19.0312 5.8125H4.96875ZM19.0312 18.1875H8.41188L14.0899 12.5095C14.1959 12.4035 14.3663 12.3992 14.4775 12.4998L19.3125 16.8743V17.9062C19.3125 18.0616 19.1866 18.1875 19.0312 18.1875ZM21 17.9062V16.5034V16.4969V6.09375C21 5.00644 20.1186 4.125 19.0312 4.125H4.96875C3.88144 4.125 3 5.00644 3 6.09375V17.9062C3 18.9936 3.88144 19.875 4.96875 19.875H19.0312C20.1186 19.875 21 18.9936 21 17.9062ZM9.1875 9.75C9.1875 10.0607 8.93566 10.3125 8.625 10.3125C8.31434 10.3125 8.0625 10.0607 8.0625 9.75C8.0625 9.43934 8.31434 9.1875 8.625 9.1875C8.93566 9.1875 9.1875 9.43934 9.1875 9.75ZM10.875 9.75C10.875 10.9926 9.86764 12 8.625 12C7.38236 12 6.375 10.9926 6.375 9.75C6.375 8.50736 7.38236 7.5 8.625 7.5C9.86764 7.5 10.875 8.50736 10.875 9.75Z" fill="#292632"/>
</svg>
