<svg width="24" height="24" viewBox="0 0 24 24" fill="none" xmlns="http://www.w3.org/2000/svg">
<path fill-rule="evenodd" clip-rule="evenodd" d="M12 4.6875C7.96142 4.6875 4.6875 7.96142 4.6875 12C4.6875 16.0386 7.96142 19.3125 12 19.3125C16.0386 19.3125 19.3125 16.0386 19.3125 12C19.3125 7.96142 16.0386 4.6875 12 4.6875ZM3 12C3 7.02943 7.02943 3 12 3C16.9706 3 21 7.02943 21 12C21 16.9706 16.9706 21 12 21C7.02943 21 3 16.9706 3 12ZM10.3125 11.7188C10.3125 11.2528 10.6903 10.875 11.1562 10.875H12.2812C12.7472 10.875 13.125 11.2528 13.125 11.7188V14.8125H13.4062C13.8722 14.8125 14.25 15.1903 14.25 15.6562C14.25 16.1222 13.8722 16.5 13.4062 16.5H11.1562C10.6903 16.5 10.3125 16.1222 10.3125 15.6562C10.3125 15.1903 10.6903 14.8125 11.1562 14.8125H11.4375V12.5625H11.1562C10.6903 12.5625 10.3125 12.1847 10.3125 11.7188ZM12 9.75C12.6213 9.75 13.125 9.24632 13.125 8.625C13.125 8.00368 12.6213 7.5 12 7.5C11.3787 7.5 10.875 8.00368 10.875 8.625C10.875 9.24632 11.3787 9.75 12 9.75Z" fill="#292632"/>
</svg>
