<svg width="19" height="22" viewBox="0 0 19 22" fill="none" xmlns="http://www.w3.org/2000/svg">
<path d="M8.58105 3.40698C11.0129 3.40698 12.9532 4.28117 14.2891 5.72144C15.6303 7.16765 16.4131 9.24053 16.4131 11.7156C16.4129 17.9096 11.76 20.4998 8.58105 20.4998C5.57898 20.4996 0.750237 17.9003 0.75 11.7156C0.75 9.24045 1.53269 7.16765 2.87402 5.72144C4.2098 4.28124 6.14939 3.40706 8.58105 3.40698Z" stroke="white" stroke-width="1.5"/>
<path d="M0.953125 11.2384C1.71592 10.0942 2.54227 9.80813 2.8601 9.80813L3.33685 8.3779C5.72057 7.42441 11.4415 7.42441 13.3485 8.3779L14.302 9.80813C14.7787 9.96704 15.8275 10.4756 16.2089 11.2384" stroke="white" stroke-width="1.5" stroke-linecap="round" stroke-linejoin="round"/>
<path d="M0.953125 14.0988C2.09731 16.7686 5.87948 17.436 7.62754 17.436" stroke="white" stroke-width="1.5" stroke-linecap="round" stroke-linejoin="round"/>
<path d="M7.15137 3.13372C7.62811 1.70349 8.5816 0.75 10.0118 0.75C13.1266 0.75 13.349 3.61047 15.256 6.94767M16.2095 15.0523C16.2095 16.9593 17.163 17.9128 18.1165 18.3895C17.163 19.8198 14.7793 20.2965 13.349 18.8663" stroke="white" stroke-width="1.5" stroke-linecap="round" stroke-linejoin="round"/>
</svg>
