<svg width="24" height="24" viewBox="0 0 24 24" fill="none" xmlns="http://www.w3.org/2000/svg">
<path d="M4.6875 13.6875C5.61948 13.6875 6.375 12.932 6.375 12C6.375 11.068 5.61948 10.3125 4.6875 10.3125C3.75552 10.3125 3 11.068 3 12C3 12.932 3.75552 13.6875 4.6875 13.6875Z" fill="#292632"/>
<path d="M12 13.6875C12.932 13.6875 13.6875 12.932 13.6875 12C13.6875 11.068 12.932 10.3125 12 10.3125C11.068 10.3125 10.3125 11.068 10.3125 12C10.3125 12.932 11.068 13.6875 12 13.6875Z" fill="#292632"/>
<path d="M21 12C21 12.932 20.2444 13.6875 19.3125 13.6875C18.3806 13.6875 17.625 12.932 17.625 12C17.625 11.068 18.3806 10.3125 19.3125 10.3125C20.2444 10.3125 21 11.068 21 12Z" fill="#292632"/>
</svg>
