<svg width="24" height="24" viewBox="0 0 24 24" fill="none" xmlns="http://www.w3.org/2000/svg">
<path d="M10.3125 4.6875C10.3125 5.61948 11.068 6.375 12 6.375C12.932 6.375 13.6875 5.61948 13.6875 4.6875C13.6875 3.75552 12.932 3 12 3C11.068 3 10.3125 3.75552 10.3125 4.6875Z" fill="#292632"/>
<path d="M10.3125 12C10.3125 12.932 11.068 13.6875 12 13.6875C12.932 13.6875 13.6875 12.932 13.6875 12C13.6875 11.068 12.932 10.3125 12 10.3125C11.068 10.3125 10.3125 11.068 10.3125 12Z" fill="#292632"/>
<path d="M12 21C11.068 21 10.3125 20.2444 10.3125 19.3125C10.3125 18.3806 11.068 17.625 12 17.625C12.932 17.625 13.6875 18.3806 13.6875 19.3125C13.6875 20.2444 12.932 21 12 21Z" fill="#292632"/>
</svg>
