<svg width="24" height="24" viewBox="0 0 24 24" fill="none" xmlns="http://www.w3.org/2000/svg">
<path fill-rule="evenodd" clip-rule="evenodd" d="M10.3125 9.1875C10.3125 6.70222 12.3272 4.6875 14.8125 4.6875C17.2977 4.6875 19.3125 6.70222 19.3125 9.1875C19.3125 11.6728 17.2977 13.6875 14.8125 13.6875C14.3122 13.6875 13.8327 13.6062 13.3854 13.4567C13.0821 13.3554 12.7475 13.4343 12.5214 13.6604L11.3693 14.8125H10.0312C9.56526 14.8125 9.1875 15.1903 9.1875 15.6562V16.9942L9.11926 17.0625H7.78125C7.31526 17.0625 6.9375 17.4403 6.9375 17.9062V19.2442L6.86926 19.3125H4.96875C4.81342 19.3125 4.6875 19.1866 4.6875 19.0312V17.1308L10.3396 11.4786C10.5657 11.2525 10.6446 10.918 10.5433 10.6146C10.3938 10.1673 10.3125 9.68774 10.3125 9.1875ZM14.8125 3C11.3952 3 8.625 5.77023 8.625 9.1875C8.625 9.68556 8.68402 10.1708 8.7957 10.6361L3.24713 16.1847C3.08889 16.3428 3 16.5575 3 16.7812V19.0312C3 20.1186 3.88144 21 4.96875 21H7.21875C7.44252 21 7.65714 20.9111 7.81537 20.7528L8.37787 20.1903C8.5361 20.0322 8.625 19.8175 8.625 19.5938V18.75H9.46875C9.69252 18.75 9.90714 18.6611 10.0654 18.5028L10.6279 17.9403C10.7861 17.7822 10.875 17.5675 10.875 17.3438V16.5H11.7188C11.9425 16.5 12.1571 16.4111 12.3154 16.2528L13.3639 15.2043C13.8292 15.3159 14.3145 15.375 14.8125 15.375C18.2298 15.375 21 12.6048 21 9.1875C21 5.77023 18.2298 3 14.8125 3ZM15.375 9.75C15.9963 9.75 16.5 9.24632 16.5 8.625C16.5 8.00368 15.9963 7.5 15.375 7.5C14.7537 7.5 14.25 8.00368 14.25 8.625C14.25 9.24632 14.7537 9.75 15.375 9.75Z" fill="#292632"/>
</svg>
