<svg width="24" height="24" viewBox="0 0 24 24" fill="none" xmlns="http://www.w3.org/2000/svg">
<path fill-rule="evenodd" clip-rule="evenodd" d="M12.8438 4.6875C12.8438 4.22151 12.466 3.84375 12 3.84375C11.534 3.84375 11.1563 4.22151 11.1563 4.6875V6.09374H10.0488C9.70616 6.09374 9.36947 6.18316 9.072 6.35313L7.62205 7.18168C7.57956 7.20597 7.53145 7.21874 7.48252 7.21874H4.96878C4.50279 7.21874 4.12503 7.5965 4.12503 8.06249C4.12503 8.52847 4.50279 8.90624 4.96878 8.90624H5.44977L3.07434 14.185C2.93049 14.5046 2.99928 14.88 3.24715 15.1278L3.84377 14.5312C3.24715 15.1278 3.24685 15.1275 3.24715 15.1278L3.24836 15.129L3.24965 15.1303L3.25249 15.1331L3.25917 15.1396L3.27659 15.1563C3.29 15.1689 3.30704 15.1844 3.32771 15.2025C3.36903 15.2386 3.42502 15.285 3.49573 15.3381C3.63702 15.444 3.8381 15.5772 4.09925 15.7077C4.6243 15.9703 5.3855 16.2187 6.37501 16.2187C7.36454 16.2187 8.12573 15.9703 8.65078 15.7077C8.91193 15.5772 9.11301 15.444 9.25431 15.3381C9.32501 15.285 9.38099 15.2386 9.42231 15.2025C9.44299 15.1844 9.46004 15.1689 9.47344 15.1563L9.49086 15.1396L9.49754 15.1331L9.50038 15.1303L9.50167 15.129C9.50198 15.1287 9.50287 15.1278 8.90626 14.5312L9.50288 15.1278C9.75076 14.88 9.81954 14.5046 9.67569 14.185L7.30026 8.90624H7.48252C7.82512 8.90624 8.16181 8.81682 8.45928 8.64685L9.90924 7.8183C9.95173 7.79401 9.99983 7.78124 10.0488 7.78124H11.1563V18.4687H8.34377C7.87778 18.4687 7.50002 18.8465 7.50002 19.3125C7.50002 19.7784 7.87778 20.1562 8.34377 20.1562H15.6562C16.1222 20.1562 16.5 19.7784 16.5 19.3125C16.5 18.8465 16.1222 18.4687 15.6562 18.4687H12.8438V7.78124H13.9512C14.0002 7.78124 14.0483 7.79401 14.0908 7.8183L15.5408 8.64685C15.8382 8.81682 16.1748 8.90624 16.5175 8.90624H16.6998L14.3243 14.185C14.1805 14.5046 14.2492 14.88 14.4971 15.1278L15.0937 14.5312C14.4971 15.1278 14.4969 15.1275 14.4971 15.1278L14.5024 15.1331L14.5092 15.1396L14.5266 15.1563C14.54 15.1689 14.557 15.1844 14.5777 15.2025C14.619 15.2386 14.675 15.285 14.7456 15.3381C14.8869 15.444 15.0881 15.5772 15.3492 15.7077C15.8742 15.9703 16.6354 16.2187 17.625 16.2187C18.6145 16.2187 19.3757 15.9703 19.9007 15.7077C20.1619 15.5772 20.363 15.444 20.5043 15.3381C20.5749 15.285 20.6309 15.2386 20.6722 15.2025C20.6929 15.1844 20.71 15.1689 20.7234 15.1563L20.7342 15.146L20.7409 15.1396L20.7475 15.1331L20.7503 15.1303L20.7517 15.129C20.752 15.1287 20.7529 15.1278 20.1562 14.5312L20.7529 15.1278C21.0007 14.88 21.0695 14.5046 20.9257 14.185L18.5503 8.90624H19.0312C19.4972 8.90624 19.875 8.52847 19.875 8.06249C19.875 7.5965 19.4972 7.21874 19.0312 7.21874H16.5175C16.4686 7.21874 16.4204 7.20597 16.378 7.18168L14.928 6.35313C14.6306 6.18316 14.2938 6.09374 13.9512 6.09374H12.8438V4.6875ZM4.90713 14.2243C5.22761 14.376 5.7147 14.5312 6.37501 14.5312C7.03534 14.5312 7.52242 14.376 7.84291 14.2243L6.37501 10.9623L4.90713 14.2243ZM16.1571 14.2243C16.4776 14.376 16.9647 14.5312 17.625 14.5312C18.2853 14.5312 18.7723 14.376 19.0929 14.2243L17.625 10.9623L16.1571 14.2243Z" fill="#292632"/>
</svg>
