<svg width="24" height="24" viewBox="0 0 24 24" fill="none" xmlns="http://www.w3.org/2000/svg">
<path fill-rule="evenodd" clip-rule="evenodd" d="M11.6343 3.08662C11.8646 2.97145 12.1357 2.97145 12.3661 3.08662L20.5477 7.17745C20.8249 7.31604 21 7.59934 21 7.90924C21 8.21914 20.8249 8.50244 20.5477 8.64103L12.3661 12.7319C12.1357 12.847 11.8646 12.847 11.6343 12.7319L3.45264 8.64103C3.17546 8.50244 3.00037 8.21914 3.00037 7.90924C3.00037 7.59934 3.17546 7.31604 3.45264 7.17745L11.6343 3.08662ZM5.64801 7.90924L12.0002 11.0853L18.3524 7.90924L12.0002 4.73315L5.64801 7.90924Z" fill="#292632"/>
<path d="M3.08656 15.725C3.28863 15.3208 3.78008 15.157 4.18424 15.3591L12 19.267L19.8158 15.3591C20.2199 15.157 20.7114 15.3208 20.9134 15.725C21.1155 16.1291 20.9517 16.6206 20.5475 16.8227L12.3659 20.9135C12.1356 21.0287 11.8644 21.0287 11.6341 20.9135L3.45245 16.8227C3.04829 16.6206 2.88448 16.1291 3.08656 15.725Z" fill="#292632"/>
<path d="M4.18424 11.2682C3.78008 11.0661 3.28863 11.23 3.08656 11.6341C2.88448 12.0383 3.04829 12.5297 3.45245 12.7318L11.6341 16.8226C11.8644 16.9378 12.1356 16.9378 12.3659 16.8226L20.5475 12.7318C20.9517 12.5297 21.1155 12.0383 20.9134 11.6341C20.7114 11.23 20.2199 11.0661 19.8158 11.2682L12 15.1761L4.18424 11.2682Z" fill="#292632"/>
</svg>
