<svg width="24" height="24" viewBox="0 0 24 24" fill="none" xmlns="http://www.w3.org/2000/svg">
<path fill-rule="evenodd" clip-rule="evenodd" d="M12 4.6875C9.34163 4.6875 7.5 6.58875 7.5 8.90625C7.5 10.0133 7.977 10.7344 8.607 11.4982L8.84775 11.7829C9.09862 12.0799 9.3765 12.4084 9.60487 12.7369C9.92437 13.1992 10.209 13.7449 10.3035 14.4131C10.326 14.6302 10.2636 14.8476 10.1292 15.0196C9.99487 15.1916 9.7991 15.3048 9.58303 15.3355C9.36695 15.3663 9.14738 15.3121 8.97042 15.1843C8.79346 15.0566 8.67288 14.8653 8.634 14.6505C8.589 14.3332 8.45063 14.0351 8.21775 13.6976C8.02739 13.4326 7.82388 13.1773 7.608 12.9326C7.5135 12.8201 7.41338 12.702 7.3065 12.5726C6.60113 11.7187 5.8125 10.6118 5.8125 8.90625C5.8125 5.59875 8.47087 3 12 3C15.5291 3 18.1875 5.59875 18.1875 8.90625C18.1875 10.6118 17.3989 11.7187 16.6935 12.5726C16.5866 12.702 16.4865 12.8201 16.392 12.9315C16.1591 13.2071 15.9611 13.4411 15.7834 13.6976C15.5494 14.0351 15.4121 14.3332 15.3671 14.6505C15.3515 14.7602 15.3144 14.8657 15.2579 14.9611C15.2015 15.0564 15.1268 15.1397 15.0381 15.2062C14.9495 15.2727 14.8486 15.3211 14.7413 15.3486C14.634 15.3761 14.5223 15.3822 14.4126 15.3666C14.3029 15.3509 14.1973 15.3138 14.102 15.2573C14.0066 15.2009 13.9233 15.1262 13.8568 15.0376C13.7903 14.9489 13.742 14.8481 13.7144 14.7407C13.6869 14.6334 13.6808 14.5217 13.6965 14.412C13.791 13.7449 14.0756 13.1992 14.3951 12.7369C14.6235 12.4084 14.9014 12.0799 15.1523 11.7829C15.2366 11.6839 15.3176 11.5882 15.3919 11.4982C16.023 10.7344 16.5 10.0133 16.5 8.90625C16.5 6.58875 14.6584 4.6875 12 4.6875ZM9.75 20.1562C9.75 19.9325 9.83889 19.7179 9.99713 19.5596C10.1554 19.4014 10.37 19.3125 10.5938 19.3125H13.4062C13.63 19.3125 13.8446 19.4014 14.0029 19.5596C14.1611 19.7179 14.25 19.9325 14.25 20.1562C14.25 20.38 14.1611 20.5946 14.0029 20.7529C13.8446 20.9111 13.63 21 13.4062 21H10.5938C10.37 21 10.1554 20.9111 9.99713 20.7529C9.83889 20.5946 9.75 20.38 9.75 20.1562ZM9.46875 16.5C9.24497 16.5 9.03036 16.5889 8.87213 16.7471C8.71389 16.9054 8.625 17.12 8.625 17.3438C8.625 17.5675 8.71389 17.7821 8.87213 17.9404C9.03036 18.0986 9.24497 18.1875 9.46875 18.1875H14.5312C14.755 18.1875 14.9696 18.0986 15.1279 17.9404C15.2861 17.7821 15.375 17.5675 15.375 17.3438C15.375 17.12 15.2861 16.9054 15.1279 16.7471C14.9696 16.5889 14.755 16.5 14.5312 16.5H9.46875Z" fill="#292632"/>
</svg>
