<svg width="24" height="24" viewBox="0 0 24 24" fill="none" xmlns="http://www.w3.org/2000/svg">
<path d="M11.7104 5.92491L13.3175 4.31781C13.7353 3.89993 14.2314 3.56846 14.7774 3.34231C15.3234 3.11615 15.9086 2.99976 16.4995 2.99976C17.0905 2.99976 17.6757 3.11615 18.2216 3.34231C18.7676 3.56846 19.2637 3.89993 19.6816 4.31781C20.0995 4.73568 20.4309 5.23177 20.6571 5.77775C20.8832 6.32373 20.9996 6.90891 20.9996 7.49987C20.9996 8.09083 20.8832 8.67601 20.6571 9.22199C20.4309 9.76797 20.0995 10.2641 19.6816 10.6819L16.4674 13.8961C16.0495 14.314 15.5534 14.6455 15.0075 14.8717C14.4615 15.0979 13.8763 15.2143 13.2853 15.2143C12.6943 15.2143 12.1092 15.0979 11.5632 14.8717C11.0172 14.6455 10.5211 14.314 10.1033 13.8961C9.93302 13.7132 9.84032 13.4715 9.84463 13.2216C9.84895 12.9718 9.94994 12.7334 10.1264 12.5565C10.3033 12.38 10.5417 12.279 10.7916 12.2747C11.0414 12.2704 11.2832 12.3631 11.4661 12.5333C11.7047 12.7727 11.9882 12.9626 12.3004 13.0922C12.6126 13.2218 12.9473 13.2885 13.2853 13.2885C13.6233 13.2885 13.958 13.2218 14.2702 13.0922C14.5824 12.9626 14.8659 12.7727 15.1046 12.5333L18.3188 9.31911C18.7778 8.8319 19.0289 8.18504 19.019 7.51574C19.009 6.84644 18.7387 6.20734 18.2654 5.73402C17.792 5.2607 17.153 4.99039 16.4836 4.98042C15.8143 4.97045 15.1675 5.22161 14.6803 5.68063L13.0732 7.28773C12.8903 7.45797 12.6485 7.55067 12.3987 7.54635C12.1488 7.54204 11.9104 7.44104 11.7335 7.26459C11.557 7.08768 11.456 6.84925 11.4517 6.59942C11.4474 6.34959 11.5401 6.10781 11.7104 5.92491ZM5.68051 18.3189C5.91915 18.5583 6.20268 18.7482 6.51487 18.8778C6.82705 19.0074 7.16174 19.0741 7.49975 19.0741C7.83776 19.0741 8.17245 19.0074 8.48463 18.8778C8.79681 18.7482 9.08035 18.5583 9.31899 18.3189L10.9261 16.7118C11.109 16.5415 11.3508 16.4488 11.6006 16.4532C11.8504 16.4575 12.0889 16.5585 12.2658 16.7349C12.4422 16.9118 12.5432 17.1503 12.5475 17.4001C12.5518 17.6499 12.4591 17.8917 12.2889 18.0746L10.6818 19.6817C10.2639 20.0996 9.76785 20.4311 9.22187 20.6572C8.67589 20.8834 8.09071 20.9998 7.49975 20.9998C6.30624 20.9998 5.16162 20.5256 4.31769 19.6817C3.47375 18.8378 2.99963 17.6931 2.99963 16.4996C2.99963 15.3061 3.47375 14.1615 4.31769 13.3176L7.53189 10.1034C7.94975 9.68547 8.44583 9.35397 8.99181 9.12781C9.5378 8.90164 10.123 8.78523 10.714 8.78523C11.3049 8.78523 11.8901 8.90164 12.4361 9.12781C12.9821 9.35397 13.4782 9.68547 13.896 10.1034C14.0662 10.2863 14.159 10.5281 14.1546 10.7779C14.1503 11.0277 14.0493 11.2661 13.8729 11.4431C13.696 11.6195 13.4575 11.7205 13.2077 11.7248C12.9579 11.7291 12.7161 11.6364 12.5332 11.4662C12.2946 11.2268 12.011 11.0369 11.6988 10.9073C11.3867 10.7777 11.052 10.711 10.714 10.711C10.3759 10.711 10.0413 10.7777 9.72907 10.9073C9.41689 11.0369 9.13335 11.2268 8.89471 11.4662L5.68051 14.6804C5.44113 14.919 5.25119 15.2026 5.1216 15.5148C4.992 15.8269 4.92529 16.1616 4.92529 16.4996C4.92529 16.8377 4.992 17.1723 5.1216 17.4845C5.25119 17.7967 5.44113 18.0802 5.68051 18.3189Z" fill="#292632"/>
</svg>
