<svg width="24" height="24" viewBox="0 0 24 24" fill="none" xmlns="http://www.w3.org/2000/svg">
<path fill-rule="evenodd" clip-rule="evenodd" d="M14.9127 3H20.6538C20.8451 3 21 3.15498 21 3.34615V9.08739C21 9.39577 20.6271 9.55023 20.409 9.33215L18.2727 7.19584L13.0805 12.3881C12.6749 12.7937 12.0174 12.7937 11.6119 12.3881C11.2063 11.9826 11.2063 11.3251 11.6119 10.9195L16.8042 5.72724L14.6679 3.59093C14.4498 3.37286 14.6042 3 14.9127 3ZM5.42308 4.38462C4.08485 4.38462 3 5.46946 3 6.80769V18.5769C3 19.9152 4.08485 21 5.42308 21H17.1923C18.5305 21 19.6154 19.9152 19.6154 18.5769V13.7308C19.6154 13.1572 19.1504 12.6923 18.5769 12.6923C18.0034 12.6923 17.5385 13.1572 17.5385 13.7308V18.5769C17.5385 18.7681 17.3835 18.9231 17.1923 18.9231H5.42308C5.2319 18.9231 5.07692 18.7681 5.07692 18.5769V6.80769C5.07692 6.61652 5.2319 6.46154 5.42308 6.46154H10.2692C10.8428 6.46154 11.3077 5.9966 11.3077 5.42308C11.3077 4.84956 10.8428 4.38462 10.2692 4.38462H5.42308Z" fill="#292632"/>
</svg>
