<svg width="24" height="24" viewBox="0 0 24 24" fill="none" xmlns="http://www.w3.org/2000/svg">
<path fill-rule="evenodd" clip-rule="evenodd" d="M5.40404 5.40011C5.40404 5.19227 5.2965 4.99924 5.11978 4.88986C4.94305 4.78049 4.72231 4.77035 4.5363 4.86307L3.33249 5.46312C3.0359 5.61096 2.91531 5.97125 3.06315 6.26785C3.21099 6.56445 3.57128 6.68503 3.86788 6.53719L4.20394 6.36967V9.60048H3.60019C3.26879 9.60048 3.00013 9.86914 3.00013 10.2005C3.00013 10.5319 3.26879 10.8006 3.60019 10.8006H6.0078C6.3392 10.8006 6.60786 10.5319 6.60786 10.2005C6.60786 9.86914 6.3392 9.60048 6.0078 9.60048H5.40404V5.40011ZM9 6.30005C9 5.803 9.40295 5.40005 9.9 5.40005H20.1C20.597 5.40005 21 5.803 21 6.30005C21 6.7971 20.597 7.20005 20.1 7.20005H9.9C9.40295 7.20005 9 6.7971 9 6.30005ZM9 12.3C9 11.803 9.40295 11.4 9.9 11.4H20.1C20.597 11.4 21 11.803 21 12.3C21 12.7971 20.597 13.2 20.1 13.2H9.9C9.40295 13.2 9 12.7971 9 12.3ZM9 18.3C9 17.803 9.40295 17.4 9.9 17.4H20.1C20.597 17.4 21 17.803 21 18.3C21 18.7971 20.597 19.2 20.1 19.2H9.9C9.40295 19.2 9 18.7971 9 18.3ZM4.10928 14.784L4.11244 14.7794C4.11758 14.7719 4.12777 14.7578 4.14287 14.739C4.1736 14.7009 4.22144 14.648 4.2849 14.5954C4.41143 14.4904 4.58051 14.4009 4.8003 14.4009C5.03468 14.4009 5.1686 14.4832 5.2505 14.5761C5.34203 14.6799 5.40374 14.8392 5.40374 15.0278C5.40374 15.5706 5.08078 15.8464 4.4437 16.3206L4.40166 16.3518C3.83028 16.7764 3.00015 17.3933 3.00015 18.5999C3.00015 18.759 3.06337 18.9117 3.1759 19.0242C3.28843 19.1368 3.44106 19.2 3.6002 19.2H6.00371C6.33511 19.2 6.60385 18.9314 6.60385 18.5999C6.60385 18.2686 6.3352 17.9999 6.0038 17.9999H4.37533C4.53334 17.7632 4.7969 17.5538 5.1603 17.2833L5.21629 17.2416C5.78119 16.8226 6.60385 16.2122 6.60385 15.0278C6.60385 14.5894 6.46187 14.1353 6.15067 13.7824C5.82985 13.4185 5.36203 13.2008 4.80032 13.2008C4.22402 13.2008 3.79304 13.444 3.51854 13.6718C3.38147 13.7856 3.27856 13.899 3.20866 13.9857C3.17345 14.0294 3.14586 14.0672 3.12579 14.0962C3.11574 14.1107 3.10751 14.1231 3.10111 14.133L3.09284 14.146L3.08971 14.151L3.0884 14.1531L3.08753 14.1546C2.91556 14.4379 3.00554 14.8073 3.28883 14.9793C3.57001 15.15 3.9357 15.0623 4.10928 14.784ZM3.60014 14.4663L3.08753 14.1546C3.08753 14.1546 3.08726 14.155 3.60014 14.4663Z" fill="#292632"/>
</svg>
