<svg width="24" height="24" viewBox="0 0 24 24" fill="none" xmlns="http://www.w3.org/2000/svg">
<path fill-rule="evenodd" clip-rule="evenodd" d="M4.28571 6.8572C4.99579 6.8572 5.57143 6.28156 5.57143 5.57148C5.57143 4.86141 4.99579 4.28577 4.28571 4.28577C3.57564 4.28577 3 4.86141 3 5.57148C3 6.28156 3.57564 6.8572 4.28571 6.8572ZM9.10714 4.92862C8.57459 4.92862 8.14286 5.36035 8.14286 5.89291C8.14286 6.42547 8.57459 6.8572 9.10714 6.8572H20.0357C20.5683 6.8572 21 6.42547 21 5.89291C21 5.36035 20.5683 4.92862 20.0357 4.92862H9.10714ZM9.10714 11.3572C8.57459 11.3572 8.14286 11.7889 8.14286 12.3215C8.14286 12.854 8.57459 13.2858 9.10714 13.2858H20.0357C20.5683 13.2858 21 12.854 21 12.3215C21 11.7889 20.5683 11.3572 20.0357 11.3572H9.10714ZM9.10714 17.7858C8.57459 17.7858 8.14286 18.2175 8.14286 18.7501C8.14286 19.2826 8.57459 19.7143 9.10714 19.7143H20.0357C20.5683 19.7143 21 19.2826 21 18.7501C21 18.2175 20.5683 17.7858 20.0357 17.7858H9.10714ZM5.57143 12.0001C5.57143 12.7101 4.99579 13.2858 4.28571 13.2858C3.57564 13.2858 3 12.7101 3 12.0001C3 11.29 3.57564 10.7143 4.28571 10.7143C4.99579 10.7143 5.57143 11.29 5.57143 12.0001ZM4.28571 19.7143C4.99579 19.7143 5.57143 19.1387 5.57143 18.4286C5.57143 17.7185 4.99579 17.1429 4.28571 17.1429C3.57564 17.1429 3 17.7185 3 18.4286C3 19.1387 3.57564 19.7143 4.28571 19.7143Z" fill="#292632"/>
</svg>
