<svg width="24" height="24" viewBox="0 0 24 24" fill="none" xmlns="http://www.w3.org/2000/svg">
<path d="M13.3176 19.5443C13.3176 20.2722 12.7275 20.8623 11.9995 20.8623C11.2716 20.8623 10.6815 20.2722 10.6815 19.5443C10.6815 18.8163 11.2716 18.2262 11.9995 18.2262C12.7275 18.2262 13.3176 18.8163 13.3176 19.5443Z" fill="#292632"/>
<path d="M13.7408 4.45565C13.7408 5.41734 12.9612 6.19695 11.9995 6.19695C11.0378 6.19695 10.2582 5.41734 10.2582 4.45565C10.2582 3.49396 11.0378 2.71436 11.9995 2.71436C12.9612 2.71436 13.7408 3.49396 13.7408 4.45565Z" fill="#292632"/>
<path d="M18.775 17.3255C18.775 18.1295 18.1232 18.7812 17.3193 18.7812C16.5153 18.7812 15.8635 18.1295 15.8635 17.3255C15.8635 16.5216 16.5153 15.8698 17.3193 15.8698C18.1232 15.8698 18.775 16.5216 18.775 17.3255Z" fill="#292632"/>
<path d="M7.80968 17.3255C7.80968 17.9587 7.29641 18.472 6.66326 18.472C6.0301 18.472 5.51683 17.9587 5.51683 17.3255C5.51683 16.6924 6.0301 16.1791 6.66326 16.1791C7.29641 16.1791 7.80968 16.6924 7.80968 17.3255Z" fill="#292632"/>
<path d="M21.1522 12.0001C21.1522 12.8882 20.4322 13.6082 19.5441 13.6082C18.6559 13.6082 17.936 12.8882 17.936 12.0001C17.936 11.1119 18.6559 10.392 19.5441 10.392C20.4322 10.392 21.1522 11.1119 21.1522 12.0001Z" fill="#292632"/>
<path d="M5.49601 12.0001C5.49601 12.5746 5.03026 13.0404 4.45574 13.0404C3.88121 13.0404 3.41547 12.5746 3.41547 12.0001C3.41547 11.4256 3.88121 10.9598 4.45574 10.9598C5.03026 10.9598 5.49601 11.4256 5.49601 12.0001Z" fill="#292632"/>
<path d="M19.0276 6.65764C19.0276 7.60104 18.2629 8.36581 17.3195 8.36581C16.3761 8.36581 15.6113 7.60104 15.6113 6.65764C15.6113 5.71425 16.3761 4.94947 17.3195 4.94947C18.2629 4.94947 19.0276 5.71425 19.0276 6.65764Z" fill="#292632"/>
<path d="M7.56428 6.65763C7.56428 7.1554 7.16076 7.55892 6.66299 7.55892C6.16522 7.55892 5.76169 7.1554 5.76169 6.65763C5.76169 6.15986 6.16522 5.75634 6.66299 5.75634C7.16076 5.75634 7.56428 6.15986 7.56428 6.65763Z" fill="#292632"/>
</svg>
