<svg width="24" height="24" viewBox="0 0 24 24" fill="none" xmlns="http://www.w3.org/2000/svg">
<path fill-rule="evenodd" clip-rule="evenodd" d="M16.2229 6.54026C16.7775 7.09476 17.2176 7.7531 17.5177 8.47768C17.818 9.20225 17.9724 9.97887 17.9724 10.7632C17.9724 11.5475 17.818 12.3241 17.5177 13.0486C17.2176 13.7732 16.7775 14.4316 16.2229 14.9861L12 19.2066L7.77709 14.9849C7.22254 14.4304 6.78263 13.7719 6.48252 13.0474C6.18239 12.3228 6.02791 11.5462 6.02791 10.762C6.02791 9.9777 6.18239 9.20112 6.48252 8.47655C6.78263 7.75198 7.22254 7.09362 7.77709 6.53906C8.33166 5.9845 8.99002 5.5446 9.71458 5.24447C10.4392 4.94434 11.2157 4.78988 12 4.78988C12.7843 4.78988 13.5609 4.94434 14.2854 5.24447C15.01 5.5446 15.6683 5.9845 16.2229 6.53906V6.54026ZM17.4888 16.252C18.5745 15.1664 19.3139 13.7832 19.6135 12.2774C19.9131 10.7715 19.7594 9.21067 19.1719 7.79219C18.5843 6.37371 17.5894 5.1613 16.3128 4.30829C15.0362 3.45529 13.5353 3 12 3C10.4647 3 8.9638 3.45529 7.68721 4.30829C6.41063 5.1613 5.41567 6.37371 4.82814 7.79219C4.24062 9.21067 4.08694 10.7715 4.38652 12.2774C4.6861 13.7832 5.42549 15.1664 6.51118 16.252L10.7329 20.4749C10.8993 20.6414 11.0968 20.7734 11.3142 20.8635C11.5316 20.9537 11.7647 21 12 21C12.2354 21 12.4684 20.9537 12.6858 20.8635C12.9032 20.7734 13.1008 20.6414 13.2671 20.4749L17.4888 16.252ZM12 13.1517C12.6335 13.1517 13.241 12.9 13.689 12.4521C14.1369 12.0042 14.3885 11.3966 14.3885 10.7632C14.3885 10.1297 14.1369 9.52216 13.689 9.07422C13.241 8.62628 12.6335 8.37464 12 8.37464C11.3665 8.37464 10.759 8.62628 10.3111 9.07422C9.86313 9.52216 9.61148 10.1297 9.61148 10.7632C9.61148 11.3966 9.86313 12.0042 10.3111 12.4521C10.759 12.9 11.3665 13.1517 12 13.1517Z" fill="#292632"/>
</svg>
