<svg width="17" height="17" viewBox="0 0 17 17" fill="none" xmlns="http://www.w3.org/2000/svg">
<path d="M4.89941 0.299805C2.3678 0.299805 0.299805 2.41915 0.299805 5.05273C0.29981 5.54385 0.340728 5.93184 0.453125 6.32324C0.566123 6.71672 0.755459 7.12792 1.06641 7.66113C1.69578 8.74034 2.78136 10.2487 4.64453 13.0342C4.76899 13.2196 5.02888 13.2196 5.15332 13.0342H5.1543C7.01743 10.2488 8.10306 8.74033 8.73242 7.66113C9.04328 7.12805 9.23173 6.71664 9.34473 6.32324C9.45712 5.93184 9.49902 5.54385 9.49902 5.05273C9.49902 2.41919 7.43098 0.299864 4.89941 0.299805ZM4.89941 2.64746C6.20116 2.64752 7.24121 3.73314 7.24121 5.05273C7.24116 6.37228 6.20113 7.45795 4.89941 7.45801C3.59765 7.45801 2.55767 6.37232 2.55762 5.05273C2.55762 3.73311 3.59762 2.64746 4.89941 2.64746Z" stroke="white" stroke-width="0.6"/>
<path d="M11.4014 3.16873C8.86975 3.16873 6.80176 5.28808 6.80176 7.92166C6.80176 8.41277 6.84268 8.80077 6.95508 9.19217C7.06808 9.58565 7.25741 9.99684 7.56836 10.5301C8.19773 11.6093 9.28331 13.1177 11.1465 15.9031C11.2709 16.0885 11.5308 16.0885 11.6553 15.9031H11.6562C13.5194 13.1177 14.605 11.6093 15.2344 10.5301C15.5452 9.99698 15.7337 9.58556 15.8467 9.19217C15.9591 8.80077 16.001 8.41277 16.001 7.92166C16.001 5.28811 13.9329 3.16879 11.4014 3.16873ZM11.4014 5.51639C12.7031 5.51645 13.7432 6.60207 13.7432 7.92166C13.7431 9.24121 12.7031 10.3269 11.4014 10.3269C10.0996 10.3269 9.05962 9.24124 9.05957 7.92166C9.05957 6.60203 10.0996 5.51639 11.4014 5.51639Z" fill="white" stroke="white" stroke-width="0.6"/>
</svg>
