<svg width="24" height="24" viewBox="0 0 24 24" fill="none" xmlns="http://www.w3.org/2000/svg">
<path fill-rule="evenodd" clip-rule="evenodd" d="M7.20005 7.8V10.2H6.90005C6.34309 10.2 5.80895 10.4212 5.41512 10.8151C5.02129 11.2089 4.80005 11.743 4.80005 12.3V18.9C4.80005 20.0592 5.74085 21 6.90005 21H17.1C17.657 21 18.1911 20.7787 18.5849 20.3849C18.9788 19.991 19.2 19.4569 19.2 18.9V12.3C19.2 11.743 18.9788 11.2089 18.5849 10.8151C18.1911 10.4212 17.657 10.2 17.1 10.2H16.8V7.8C16.8 6.52696 16.2944 5.30606 15.3941 4.40588C14.494 3.50571 13.2731 3 12 3C10.727 3 9.50611 3.50571 8.60593 4.40588C7.70576 5.30606 7.20005 6.52696 7.20005 7.8ZM15 10.2V7.8C15 7.00435 14.684 6.24128 14.1214 5.67868C13.5588 5.11607 12.7957 4.8 12 4.8C11.2044 4.8 10.4413 5.11607 9.87873 5.67868C9.31612 6.24128 9.00005 7.00435 9.00005 7.8V10.2H15ZM16.8 12H17.1C17.1796 12 17.2559 12.0316 17.3122 12.0879C17.3685 12.1441 17.4 12.2204 17.4 12.3V18.9C17.4 18.9796 17.3685 19.0559 17.3122 19.1122C17.2559 19.1684 17.1796 19.2 17.1 19.2H6.90005C6.82049 19.2 6.74418 19.1684 6.68791 19.1122C6.63166 19.0559 6.60005 18.9796 6.60005 18.9V12.3C6.60005 12.2204 6.63166 12.1441 6.68791 12.0879C6.74418 12.0316 6.82049 12 6.90005 12H16.8Z" fill="#292632"/>
</svg>
