<svg width="24" height="24" viewBox="0 0 24 24" fill="none" xmlns="http://www.w3.org/2000/svg">
<path fill-rule="evenodd" clip-rule="evenodd" d="M9.0002 7.80068C9.00009 7.15176 9.2104 6.52029 9.5996 6.00102C9.98879 5.48176 10.5359 5.10268 11.1588 4.9207C11.7817 4.73872 12.4468 4.76362 13.0543 4.99168C13.6618 5.21974 14.179 5.63865 14.5283 6.18557C14.6568 6.3867 14.8601 6.52852 15.0932 6.57982C15.3264 6.63113 15.5703 6.58773 15.7714 6.45915C15.9726 6.33058 16.1144 6.12738 16.1657 5.89425C16.217 5.66111 16.1735 5.41715 16.045 5.21602C15.4861 4.34102 14.6586 3.67085 13.6865 3.30604C12.7145 2.94123 11.6503 2.90146 10.6537 3.19268C9.65715 3.48391 8.78188 4.09044 8.15922 4.92127C7.53656 5.75209 7.20009 6.76243 7.20029 7.80068V10.2006H6.59912C6.12197 10.2009 5.66445 10.3907 5.32718 10.7282C4.98989 11.0657 4.80042 11.5233 4.80042 12.0005V19.2001C4.80042 19.6774 4.99005 20.1353 5.3276 20.4729C5.66514 20.8104 6.12296 21 6.60032 21H17.3998C17.8771 21 18.335 20.8104 18.6725 20.4729C19.0101 20.1353 19.1997 19.6774 19.1997 19.2001V12.0005C19.1997 11.5231 19.0101 11.0653 18.6725 10.7277C18.335 10.3902 17.8771 10.2006 17.3998 10.2006H9.0002V7.80068ZM8.10024 12.0005H6.60032V19.2001H17.3998V12.0005H8.10024Z" fill="#292632"/>
</svg>
