<svg width="21" height="20" viewBox="0 0 21 20" fill="none" xmlns="http://www.w3.org/2000/svg">
<path d="M20.208 17.0981C19.6499 17.3785 18.5997 17.8335 17.6864 17.8335C17.2185 17.83 16.7626 17.6845 16.3791 17.4162C14.0379 15.8568 14.838 13.987 16.4357 11.0939C17.112 9.86644 17.8096 8.60187 18.1207 7.29707C18.4545 5.89171 18.7581 3.84589 17.5406 2.29848C16.9674 1.57129 16.095 1.01128 14.953 0.632288C13.7626 0.239465 12.2303 0.0251414 10.3988 0.0037719L10.2731 0L9.80862 0.0037719C7.97649 0.027027 6.44354 0.241351 5.25502 0.632288C4.10986 1.01254 3.24 1.57506 2.66742 2.29974C1.4481 3.84715 1.75167 5.89296 2.08667 7.29832C2.40093 8.60564 3.0967 9.87021 3.77109 11.0952C5.36878 13.9864 6.16888 15.8581 3.82703 17.4174C3.44397 17.6856 2.98854 17.8311 2.52098 17.8348C1.60837 17.8348 0.557493 17.3797 0 17.0994L0.13513 17.3395C1.29286 19.0773 2.78055 20 4.43292 20C5.15823 20 5.92313 19.8246 6.70752 19.4777C7.5359 19.11 8.26561 18.4375 8.76025 17.5821C9.25489 16.7267 9.45162 15.8065 9.31083 14.9863C9.13862 14.2535 8.75711 13.2648 8.31526 12.1209C7.16194 9.13862 5.58499 5.06144 6.94698 3.0659C7.52208 2.22306 8.55473 1.81264 10.1028 1.80887C11.6533 1.81453 12.6872 2.22495 13.2604 3.0659C14.623 5.06018 13.0467 9.13862 11.8947 12.1165C11.4509 13.2611 11.0694 14.2535 10.8991 14.9769C10.7577 15.8053 10.9531 16.7267 11.4484 17.5821C11.9437 18.4375 12.6734 19.11 13.5018 19.479C14.2868 19.8246 15.0511 20 15.7751 20C17.4281 20 18.9177 19.0773 20.0792 17.3326L20.208 17.0981Z" fill="white"/>
</svg>
