<svg width="24" height="24" viewBox="0 0 24 24" fill="none" xmlns="http://www.w3.org/2000/svg">
<path fill-rule="evenodd" clip-rule="evenodd" d="M4.96885 5.25012C3.88156 5.25012 3.00014 6.13154 3.00014 7.21884V8.04657C2.99995 8.05671 2.99995 8.06686 3.00014 8.077V16.7812C3.00014 17.8685 3.88156 18.7499 4.96885 18.7499H19.0311C20.1184 18.7499 20.9998 17.8685 20.9998 16.7812V8.07681C21.0001 8.0668 21.0001 8.05678 20.9998 8.04676V7.21884C20.9998 6.13154 20.1184 5.25012 19.0311 5.25012H4.96885ZM19.3124 7.57916V7.21884C19.3124 7.06351 19.1865 6.93759 19.0311 6.93759H4.96885C4.81353 6.93759 4.68761 7.06351 4.68761 7.21884V7.57916L12 11.8657L19.3124 7.57916ZM4.68761 9.5352V16.7812C4.68761 16.9365 4.81353 17.0624 4.96885 17.0624H19.0311C19.1865 17.0624 19.3124 16.9365 19.3124 16.7812V9.5352L12.4267 13.5716C12.1632 13.7261 11.8368 13.7261 11.5733 13.5716L4.68761 9.5352Z" fill="#292632"/>
</svg>
