<svg width="24" height="24" viewBox="0 0 24 24" fill="none" xmlns="http://www.w3.org/2000/svg">
<path fill-rule="evenodd" clip-rule="evenodd" d="M19.0312 5.25C20.1184 5.25007 20.9999 6.13155 21 7.21875V12.0132C21 12.0132 21.0197 12.843 20.176 12.843C19.3322 12.843 19.3125 12.0132 19.3125 12.0132V9.53467L12.4263 13.5718C12.163 13.7259 11.837 13.7259 11.5737 13.5718L4.6875 9.53467V16.7812C4.68753 16.9365 4.81349 17.0624 4.96875 17.0625H10.4839C10.4839 17.0625 11.25 17.0625 11.25 17.9062C11.25 18.75 10.4839 18.75 10.4839 18.75H4.96875C3.88152 18.7499 3.00003 17.8685 3 16.7812V7.21875C3.00006 6.13154 3.88154 5.25006 4.96875 5.25H19.0312ZM4.96875 6.9375C4.81351 6.93756 4.68756 7.06351 4.6875 7.21875V7.5791L12 11.8652L19.3125 7.5791V7.21875C19.3124 7.06352 19.1865 6.93757 19.0312 6.9375H4.96875Z" fill="#292632"/>
<path fill-rule="evenodd" clip-rule="evenodd" d="M16.628 13.8268C14.4534 13.8268 12.6905 15.5896 12.6905 17.7643C12.6905 19.9389 14.4534 21.7018 16.628 21.7018C18.8026 21.7018 20.5655 19.9389 20.5655 17.7643C20.5655 15.5896 18.8026 13.8268 16.628 13.8268ZM15.1417 15.4427C15.5706 15.1676 16.0807 15.008 16.628 15.008C18.1503 15.008 19.3843 16.242 19.3843 17.7643C19.3843 18.3116 19.2247 18.8217 18.9496 19.2506L15.1417 15.4427ZM14.3064 16.278C14.0313 16.7068 13.8718 17.2169 13.8718 17.7643C13.8718 19.2865 15.1058 20.5205 16.628 20.5205C17.1754 20.5205 17.6855 20.361 18.1143 20.0858L14.3064 16.278Z" fill="#292632"/>
</svg>
