<svg width="24" height="24" viewBox="0 0 24 24" fill="none" xmlns="http://www.w3.org/2000/svg">
<path fill-rule="evenodd" clip-rule="evenodd" d="M19.0312 5.25C20.1184 5.25007 20.9999 6.13155 21 7.21875V12.0132C21 12.0132 21.0197 12.843 20.176 12.843C19.3322 12.843 19.3125 12.0132 19.3125 12.0132V9.53467L12.4263 13.5718C12.163 13.7259 11.837 13.7259 11.5737 13.5718L4.6875 9.53467V16.7812C4.68753 16.9365 4.81349 17.0624 4.96875 17.0625H10.4839C10.4839 17.0625 11.25 17.0625 11.25 17.9062C11.25 18.75 10.4839 18.75 10.4839 18.75H4.96875C3.88152 18.7499 3.00003 17.8685 3 16.7812V7.21875C3.00006 6.13154 3.88154 5.25006 4.96875 5.25H19.0312ZM4.96875 6.9375C4.81351 6.93756 4.68756 7.06351 4.6875 7.21875V7.5791L12 11.8652L19.3125 7.5791V7.21875C19.3124 7.06352 19.1865 6.93757 19.0312 6.9375H4.96875Z" fill="#292632"/>
<path d="M14.7002 15.5785C14.2032 15.5785 13.8002 15.9814 13.8002 16.4785C13.8002 16.9755 14.2032 17.3785 14.7002 17.3785H20.1002C20.5973 17.3785 21.0002 16.9755 21.0002 16.4785C21.0002 15.9814 20.5973 15.5785 20.1002 15.5785H14.7002Z" fill="#292632"/>
</svg>
