<svg width="24" height="24" viewBox="0 0 24 24" fill="none" xmlns="http://www.w3.org/2000/svg">
<path fill-rule="evenodd" clip-rule="evenodd" d="M9 3.75C8.85985 3.75 8.72868 3.78844 8.61645 3.85536L3.3779 6.84882C3.14421 6.98235 3 7.23086 3 7.5V19.5C3 19.7674 3.14232 20.0145 3.37355 20.1487C3.60479 20.2829 3.88998 20.2838 4.1221 20.1512L9.0236 17.3503L14.6511 20.1641C14.7484 20.2153 14.8584 20.2458 14.9752 20.2496C14.9835 20.2499 14.9917 20.25 15 20.25C15.1402 20.25 15.2713 20.2116 15.3835 20.1446L20.6221 17.1512C20.8558 17.0177 21 16.7691 21 16.5V4.5C21 4.23265 20.8577 3.98551 20.6264 3.85132C20.3952 3.71713 20.11 3.71617 19.8779 3.84882L14.9764 6.64967L9.34891 3.83593C9.24469 3.78106 9.12597 3.75 9 3.75ZM15.75 18.2076L19.5 16.0648V5.79239L15.75 7.93524V18.2076ZM14.25 7.96353L9.75 5.71353V16.0365L14.25 18.2865V7.96353ZM4.5 7.93524L8.25 5.79239V16.0648L4.5 18.2076V7.93524Z" fill="#292632"/>
</svg>
