<svg width="24" height="24" viewBox="0 0 24 24" fill="none" xmlns="http://www.w3.org/2000/svg">
<path fill-rule="evenodd" clip-rule="evenodd" d="M21.9372 1.92296C22.2808 2.08584 22.5 2.43216 22.5 2.81251L20.8947 2.04871V2.04869L20.8957 2.04779C20.8961 2.04755 20.8956 2.048 20.8942 2.04912L20.8753 2.06379C20.8557 2.07874 20.8222 2.10377 20.775 2.13747C20.6802 2.20487 20.5298 2.30693 20.3231 2.43236C19.9097 2.68318 19.271 3.02747 18.402 3.3751C16.6671 4.06906 14.0036 4.78055 10.3648 4.78126C10.038 4.57348 9.65026 4.45312 9.23438 4.45312H6.75C3.8505 4.45312 1.5 6.80363 1.5 9.70312C1.5 11.9069 2.85789 13.7936 4.78265 14.5721C4.78172 14.5896 4.78125 14.6073 4.78125 14.625C4.78125 17.6691 5.41934 19.784 5.84774 20.8602C6.1919 21.7247 7.02524 22.1719 7.83979 22.1719H9.4102C10.3091 22.1719 11.0222 21.662 11.4399 21.0467C11.855 20.435 12.0542 19.6167 11.8466 18.8205C11.5842 17.8141 11.3453 16.413 11.3438 14.6427C14.4855 14.7564 16.8266 15.4011 18.402 16.0312C19.271 16.3788 19.9097 16.723 20.3231 16.974C20.5298 17.0993 20.6802 17.2014 20.775 17.2688C20.8222 17.3025 20.8557 17.3276 20.8753 17.3425L20.8942 17.3571L20.8955 17.3583C21.1896 17.5969 21.5946 17.6456 21.9372 17.4834C22.2808 17.3205 22.5 16.9741 22.5 16.5938V2.81251L20.8942 2.04913L20.8947 2.04871C21.1888 1.80953 21.5944 1.76052 21.9372 1.92296ZM6.75274 14.9531C6.79603 17.537 7.34252 19.2921 7.67686 20.132C7.68235 20.1458 7.69092 20.1582 7.71213 20.1715C7.73641 20.1867 7.77958 20.2031 7.83979 20.2031H9.4102C9.51906 20.2031 9.675 20.1413 9.81091 19.941C9.94931 19.7372 9.9882 19.4962 9.94153 19.3172C9.6557 18.221 9.40451 16.7564 9.37742 14.9484C9.33014 14.9515 9.28244 14.9531 9.23438 14.9531H6.75274ZM11.3438 12.6727C14.758 12.7878 17.3456 13.4882 19.1332 14.2032C19.6725 14.4189 20.1383 14.6358 20.5312 14.8375V4.56872C20.1383 4.77058 19.6725 4.98731 19.1332 5.20305C17.3456 5.91811 14.758 6.61851 11.3438 6.73357V12.6727ZM20.8942 2.04913L20.8936 2.04953L20.8942 2.04912V2.04913ZM3.46875 9.70312C3.46875 7.89094 4.93782 6.42188 6.75 6.42188H9.23438C9.31204 6.42188 9.375 6.48484 9.375 6.5625V12.8438C9.375 12.9214 9.31204 12.9844 9.23438 12.9844H6.75C4.93782 12.9844 3.46875 11.5153 3.46875 9.70312Z" fill="#292632"/>
</svg>
