<svg width="20" height="22" viewBox="0 0 20 22" fill="none" xmlns="http://www.w3.org/2000/svg">
<path d="M12.8841 21.9907H4.19725V15.6036C3.18715 14.9447 0.510378 12.8663 0.0558327 9.06447C-0.499723 4.35019 3.18715 0.548343 6.82351 0.0921216C10.7629 -0.414791 14.3488 1.20733 15.5104 4.04604C16.1164 5.46539 17.1265 7.54373 17.9851 9.21655C18.7932 10.8387 19.2983 11.8018 19.4498 12.258C19.5003 12.4608 19.6013 12.6635 19.6518 12.8156C19.9043 13.3732 20.1063 13.8801 19.8538 14.3871C19.7528 14.5898 19.5003 14.8433 19.0457 14.9447C18.5407 15.046 17.4801 14.9447 16.672 14.8433C16.672 15.4009 16.672 16.1612 16.6215 16.9216C16.5205 18.1889 16.2175 19.5069 14.3993 19.6083C13.8942 19.6589 13.3387 19.6083 12.9346 19.6083L12.8841 21.9907ZM5.7124 20.47H11.4195V17.9354L12.2781 18.0368C12.2781 18.0368 13.4397 18.1889 14.2983 18.1382C14.8033 18.0875 15.0558 18.0875 15.1063 16.8709C15.2073 15.553 15.1063 14.0829 15.1063 14.0829L15.0558 13.1705L15.9649 13.3225C16.773 13.4239 17.7326 13.5253 18.2882 13.576C18.2882 13.5253 18.2882 13.5253 18.2377 13.4746C18.1366 13.2718 18.0861 13.0691 17.9851 12.8156C17.8841 12.4608 17.2276 11.2442 16.6215 9.97691C15.7629 8.25341 14.7023 6.17507 14.0962 4.70502C13.1871 2.5253 10.2073 1.25802 7.02553 1.66355C4.09624 1.9677 1.11644 5.05986 1.57098 8.9124C2.02553 12.7649 5.25785 14.5391 5.30836 14.5391L5.7124 14.7419V20.47Z" fill="white"/>
<path d="M8.79368 13.2709L8.28863 12.8147C7.73307 12.3078 5.0058 9.82392 4.55126 8.55664C4.24823 7.74558 4.50075 6.83314 5.10681 6.12346C5.71287 5.41378 6.57146 5.10963 7.43004 5.3124C8.08661 5.46447 8.59166 5.81931 8.9452 6.12346C9.45025 5.71793 10.2078 5.26171 11.0159 5.26171C11.8745 5.26171 12.6826 5.81931 13.1371 6.68106C13.5412 7.44143 13.5412 8.35387 13.1371 9.01286C12.5311 9.97599 9.60176 12.5612 9.29873 12.8654L8.79368 13.2709ZM6.9755 6.83314C6.72297 6.83314 6.47045 6.98521 6.26843 7.18797C6.06641 7.39074 5.91489 7.79627 6.0159 8.10042C6.16742 8.60733 7.53105 10.0267 8.84419 11.2433C10.0058 10.1788 11.5715 8.65802 11.925 8.15111C12.026 7.99903 12.026 7.6442 11.8745 7.39074C11.723 7.13728 11.4199 6.83314 11.0664 6.78244C10.4603 6.78244 9.80378 7.49212 9.60176 7.74558L8.9452 8.55664L8.38964 7.69489C8.38964 7.69489 7.88459 6.98521 7.22802 6.83314C7.07651 6.83314 7.026 6.83314 6.9755 6.83314Z" fill="white"/>
</svg>
