<svg width="22" height="12" viewBox="0 0 22 12" fill="none" xmlns="http://www.w3.org/2000/svg">
<path d="M8.06445 2.55957H3.07227V4.62305C3.5843 4.12724 4.41658 3.77539 5.36035 3.77539C7.18408 3.77556 8.79958 5.08747 8.7998 7.24707C8.7998 9.55105 7.05604 11.0234 4.28809 11.0234C2.40014 11.0234 0.975998 10.4316 0 9.47168L1.48828 7.53516C2.22425 8.22312 3.23191 8.59176 4.25586 8.5918C5.42386 8.5918 6 8.01537 6 7.35938C5.99993 6.63945 5.43987 6.12793 4.33594 6.12793C3.48797 6.12794 2.81562 6.36775 2.22363 6.92773L0.320312 6.46387V0.15918H8.06445V2.55957ZM13.8906 0C16.3136 0 17.7328 1.6208 18.2461 3.66406V4.43848H17.2461V7.22559H18.2461V7.34473C17.7329 9.39242 16.3137 11.0234 13.8906 11.0234C10.771 11.0232 9.31557 8.31965 9.31543 5.50391C9.31543 2.68802 10.7709 0.000215827 13.8906 0ZM13.8906 2.43164C12.6109 2.43187 12.0986 3.61609 12.0986 5.50391C12.0987 7.39149 12.611 8.59156 13.8906 8.5918C15.1705 8.5918 15.6825 7.39168 15.6826 5.50391C15.6826 3.61591 15.1706 2.43164 13.8906 2.43164Z" fill="white"/>
<path d="M18.6768 7.85352V6.84341H17.6768V4.86362H18.6768V3.85352H20.6667V4.86362H21.6768V6.84341H20.6667V7.85352H18.6768Z" fill="white"/>
</svg>
