<svg width="25" height="9" viewBox="0 0 25 9" fill="none" xmlns="http://www.w3.org/2000/svg">
<path d="M3.30469 0C5.33997 1.13843e-05 6.47738 0.873539 6.47754 2.19043C6.47754 3.12431 5.67534 3.83065 4.72949 3.98633C5.57959 4.07014 6.60938 4.72948 6.60938 5.87891C6.60909 7.27952 5.292 8.24901 3.30469 8.24902C1.77219 8.24902 0.622628 7.71053 0 6.99219L1.04199 5.63867C1.61667 6.20138 2.52627 6.50094 3.2207 6.50098C4.10672 6.50098 4.56152 6.14176 4.56152 5.6748C4.56147 5.20791 4.2262 4.94434 3.13672 4.94434C2.78955 4.94434 2.17953 4.95678 2.05957 4.96875V3.19629C2.21537 3.20825 2.83735 3.20801 3.13672 3.20801C3.96261 3.20801 4.4294 2.96911 4.42969 2.52637C4.42969 2.02349 3.85515 1.75977 3.08887 1.75977C2.35859 1.75984 1.63982 2.05896 1.07715 2.5498L0.107422 1.29297C0.777921 0.538657 1.83198 0 3.30469 0ZM10.7471 0C13.0815 0.000188232 14.1708 2.01106 14.1709 4.11816C14.1709 6.22535 13.0816 8.24883 10.7471 8.24902C8.4123 8.24902 7.32227 6.22545 7.32227 4.11816C7.32234 2.01096 8.41238 0 10.7471 0ZM18.2188 0C19.8578 0.00018024 20.8803 0.992406 21.3457 2.3125V2.69531H20.4131V5.29492H21.3457V5.92578C20.8805 7.24986 19.8582 8.24884 18.2188 8.24902C15.884 8.24902 14.7939 6.22545 14.7939 4.11816C14.794 2.01096 15.8841 0 18.2188 0ZM10.7471 1.81934C9.78927 1.81934 9.40531 2.70546 9.40527 4.11816C9.40527 5.531 9.78921 6.42969 10.7471 6.42969C11.7047 6.42948 12.0879 5.53084 12.0879 4.11816C12.0878 2.70562 11.7046 1.81954 10.7471 1.81934ZM18.2188 1.81934C17.2609 1.81934 16.877 2.70546 16.877 4.11816C16.877 5.531 17.2609 6.42969 18.2188 6.42969C19.1763 6.42941 19.5596 5.53078 19.5596 4.11816C19.5595 2.70568 19.1762 1.81961 18.2188 1.81934Z" fill="white"/>
<path d="M21.7269 5.86011V4.91819H20.7944V3.07204H21.7269V2.13013H23.5825V3.07204H24.5244V4.91819H23.5825V5.86011H21.7269Z" fill="white"/>
</svg>
