<svg width="22" height="12" viewBox="0 0 22 12" fill="none" xmlns="http://www.w3.org/2000/svg">
<path d="M17.7666 2.55957H12.7744V4.62402C13.2864 4.12807 14.1186 3.77643 15.0625 3.77637C15.9487 3.77637 16.7856 4.08617 17.4121 4.65234V7.22559H18.4121V8.11719C18.0226 9.91548 16.3927 11.0243 13.9912 11.0244C12.1032 11.0244 10.6791 10.4317 9.70312 9.47168L11.1904 7.53613C11.9264 8.22413 12.935 8.5918 13.959 8.5918C15.1266 8.59172 15.7029 8.01616 15.7031 7.36035C15.7031 6.64042 15.1429 6.12803 14.0391 6.12793C13.1911 6.12793 12.5187 6.36783 11.9268 6.92773L10.0225 6.46387V0.160156H17.7666V2.55957ZM4.32031 0C6.83215 0.000116704 8.63965 1.40822 8.63965 3.53613C8.63959 5.18398 7.47202 6.57584 4.81641 8.43164H8.71973V10.832H0.351562V8.68848C4.97537 5.34461 5.83977 4.60806 5.83984 3.53613C5.83984 2.81618 5.1521 2.43169 4.36816 2.43164C3.18416 2.43164 2.28753 2.87961 1.51953 3.59961L0 1.77637C1.136 0.528367 2.83231 0 4.32031 0Z" fill="white"/>
<path d="M18.8481 7.81592V6.80582H17.8481V4.82602H18.8481V3.81592H20.838V4.82602H21.8481V6.80582H20.838V7.81592H18.8481Z" fill="white"/>
</svg>
