<svg width="25" height="9" viewBox="0 0 25 9" fill="none" xmlns="http://www.w3.org/2000/svg">
<path d="M6.04883 1.91992H2.30469V3.46777C2.68869 3.09577 3.31251 2.83105 4.02051 2.83105C5.3885 2.83106 6.60059 3.81555 6.60059 5.43555C6.60057 7.16344 5.2926 8.26747 3.2168 8.26758C1.8008 8.26758 0.732 7.82352 0 7.10352L1.11621 5.65137C1.66819 6.16734 2.42442 6.44333 3.19238 6.44336C4.06837 6.44336 4.50097 6.01152 4.50098 5.51953C4.50098 4.97963 4.08064 4.59584 3.25293 4.5957C2.61709 4.5957 2.11286 4.77554 1.66895 5.19531L0.240234 4.84766V0.119141H6.04883V1.91992ZM10.6592 0C12.9989 0.000253077 14.0908 2.01606 14.0908 4.12793C14.0907 6.23965 12.9987 8.26732 10.6592 8.26758C8.31933 8.26758 7.22671 6.23978 7.22656 4.12793C7.22656 2.01593 8.31918 0 10.6592 0ZM18.1475 0C19.7584 0.000175 20.7771 0.9556 21.2559 2.24023V2.68945H20.3232V5.28906H21.2559V6.0166C20.7772 7.3052 19.7587 8.2674 18.1475 8.26758C15.8076 8.26758 14.715 6.23978 14.7148 4.12793C14.7148 2.01593 15.8075 0 18.1475 0ZM10.6592 1.82324C9.69918 1.82324 9.31445 2.71193 9.31445 4.12793C9.31453 5.54369 9.69927 6.44336 10.6592 6.44336C11.6188 6.44308 12.0029 5.54347 12.0029 4.12793C12.0029 2.71215 11.6189 1.82351 10.6592 1.82324ZM18.1475 1.82324C17.1875 1.82324 16.8027 2.71193 16.8027 4.12793C16.8028 5.54369 17.1876 6.44336 18.1475 6.44336C19.107 6.44308 19.4911 5.54347 19.4912 4.12793C19.4912 2.71215 19.1071 1.82351 18.1475 1.82324Z" fill="white"/>
<path d="M21.6371 5.85425V4.91233H20.7046V3.06618H21.6371V2.12427H23.4927V3.06618H24.4346V4.91233H23.4927V5.85425H21.6371Z" fill="white"/>
</svg>
