<svg width="25" height="9" viewBox="0 0 25 9" fill="none" xmlns="http://www.w3.org/2000/svg">
<path d="M9.7334 0C12.0679 0.00012305 13.1571 2.01103 13.1572 4.11816C13.1572 6.22538 12.068 8.2489 9.7334 8.24902C7.39862 8.24902 6.30859 6.22545 6.30859 4.11816C6.30867 2.01096 7.39871 0 9.7334 0ZM17.2051 0C18.952 0.000143318 20.0012 1.12625 20.4189 2.57617V2.69531H19.4863V5.29492H20.4189V5.66211C20.0012 7.11558 18.9522 8.24888 17.2051 8.24902C14.8703 8.24902 13.7803 6.22545 13.7803 4.11816C13.7804 2.01096 14.8704 0 17.2051 0ZM5.27637 8.10547H3.2168V2.75391L1.87598 4.10645L0.702148 2.87305L3.49219 0.119141H5.27637V8.10547ZM9.7334 1.81934C8.77559 1.81934 8.39262 2.70546 8.39258 4.11816C8.39258 5.531 8.77554 6.42969 9.7334 6.42969C10.6911 6.42955 11.0742 5.5309 11.0742 4.11816C11.0742 2.70556 10.691 1.81947 9.7334 1.81934ZM17.2051 1.81934C16.2473 1.81934 15.8633 2.70546 15.8633 4.11816C15.8633 5.531 16.2472 6.42969 17.2051 6.42969C18.1627 6.42948 18.5459 5.53084 18.5459 4.11816C18.5459 2.70562 18.1626 1.81954 17.2051 1.81934Z" fill="white"/>
<path d="M20.8002 5.86011V4.91819H19.8677V3.07204H20.8002V2.13013H22.6557V3.07204H23.5977V4.91819H22.6557V5.86011H20.8002Z" fill="white"/>
</svg>
