<svg width="25" height="9" viewBox="0 0 25 9" fill="none" xmlns="http://www.w3.org/2000/svg">
<path d="M13.5342 1.85547H9.72656V3.49609C10.1815 3.11298 10.8044 2.84965 11.5107 2.84961C12.8757 2.84961 14.085 3.83114 14.085 5.43555C14.0849 7.15955 12.7801 8.24892 10.709 8.24902C9.29631 8.24902 8.23061 7.8181 7.48828 7.08789L8.58984 5.71094C9.14055 6.22558 9.91847 6.50093 10.6846 6.50098C11.5585 6.50098 11.9901 6.03427 11.9902 5.51953C11.9902 4.95679 11.5703 4.5498 10.7441 4.5498C10.1098 4.5499 9.60696 4.74145 9.16406 5.14844L7.73926 4.80078V0.119141H13.5342V1.85547ZM18.1348 0C19.7811 0.000176014 20.8051 1.00126 21.2676 2.33008V2.69531H20.335V5.29492H21.2676V5.9082C20.8052 7.24098 19.7815 8.24885 18.1348 8.24902C15.8 8.24902 14.71 6.22545 14.71 4.11816C14.71 2.01096 15.8001 0 18.1348 0ZM3.23242 0C5.11202 1.98489e-05 6.4646 1.05308 6.46484 2.65723C6.46484 3.87845 5.59129 4.92075 3.44824 6.30957H6.52539V8.10547H0.262695V6.50098C3.72295 3.99858 4.37012 3.44746 4.37012 2.65723C4.36985 2.10676 3.85484 1.81935 3.23242 1.81934C2.38232 1.81934 1.71143 2.15457 1.13672 2.69336L0 1.3291C0.850098 0.395191 2.11891 0 3.23242 0ZM18.1348 1.81934C17.177 1.81934 16.793 2.70546 16.793 4.11816C16.793 5.531 17.1769 6.42969 18.1348 6.42969C19.0923 6.42942 19.4756 5.53079 19.4756 4.11816C19.4755 2.70567 19.0923 1.8196 18.1348 1.81934Z" fill="white"/>
<path d="M21.6488 5.86011V4.91819H20.7163V3.07204H21.6488V2.13013H23.5044V3.07204H24.4463V4.91819H23.5044V5.86011H21.6488Z" fill="white"/>
</svg>
