<svg width="24" height="24" viewBox="0 0 24 24" fill="none" xmlns="http://www.w3.org/2000/svg">
<path fill-rule="evenodd" clip-rule="evenodd" d="M13.8651 3.29016C14.1369 3.01836 14.5414 2.92834 14.9028 3.05922C18.4575 4.34649 21 7.75234 21 11.7545C21 16.8607 16.8607 21 11.7545 21C7.75234 21 4.34649 18.4575 3.05922 14.9028C2.92834 14.5414 3.01836 14.1369 3.29016 13.8651C3.56197 13.5933 3.96648 13.5033 4.3279 13.6341C5.09869 13.9133 5.93123 14.0659 6.80161 14.0659C10.8136 14.0659 14.0659 10.8136 14.0659 6.80161C14.0659 5.93123 13.9133 5.09869 13.6341 4.3279C13.5033 3.96648 13.5933 3.56197 13.8651 3.29016ZM15.9995 5.85866C16.031 6.16885 16.0471 6.48344 16.0471 6.80161C16.0471 11.9077 11.9077 16.0471 6.80161 16.0471C6.48344 16.0471 6.16886 16.031 5.85866 15.9995C7.17831 17.829 9.32822 19.0188 11.7545 19.0188C15.7665 19.0188 19.0188 15.7665 19.0188 11.7545C19.0188 9.32822 17.829 7.1783 15.9995 5.85866Z" fill="#292632"/>
</svg>
