<svg width="24" height="24" viewBox="0 0 24 24" fill="none" xmlns="http://www.w3.org/2000/svg">
<path fill-rule="evenodd" clip-rule="evenodd" d="M20.7489 3.25108C21.0051 3.50722 21.0725 3.89673 20.9175 4.2241L13.2032 20.5098C13.0482 20.837 12.7044 21.0315 12.3441 20.9958C11.9838 20.9601 11.6848 20.7019 11.597 20.3507L10.0075 13.9925L3.64927 12.403C3.29805 12.3152 3.03987 12.0162 3.00419 11.6559C2.96852 11.2956 3.16305 10.9518 3.49023 10.7968L19.7759 3.08253C20.1033 2.92746 20.4928 2.99493 20.7489 3.25108ZM6.3886 11.3208L10.9222 12.4542C11.2293 12.5309 11.4691 12.7707 11.5458 13.0778L12.6792 17.6114L18.3408 5.6592L6.3886 11.3208Z" fill="#292632"/>
</svg>
