<svg width="15" height="19" viewBox="0 0 15 19" fill="none" xmlns="http://www.w3.org/2000/svg">
<path d="M14.5423 5.23012L9.75438 0H0V18.4797H14.5423V5.23012ZM12.2291 5.23012H9.75438V2.52576L12.2291 5.23012ZM12.8414 16.7789H1.70085V1.69235H8.05353V6.93097H12.8329L12.8414 16.7789Z" fill="white"/>
<path d="M3.63949 8.70825C3.41394 8.70825 3.19763 8.79785 3.03815 8.95734C2.87866 9.11682 2.78906 9.33313 2.78906 9.55868C2.78906 9.78422 2.87866 10.0005 3.03815 10.16C3.19763 10.3195 3.41394 10.4091 3.63949 10.4091H7.94264C8.16819 10.4091 8.3845 10.3195 8.54398 10.16C8.70347 10.0005 8.79306 9.78422 8.79306 9.55868C8.79306 9.33313 8.70347 9.11682 8.54398 8.95734C8.3845 8.79785 8.16819 8.70825 7.94264 8.70825H3.63949Z" fill="white"/>
<path d="M2.78906 12.952C2.78906 13.1775 2.87866 13.3938 3.03815 13.5533C3.19763 13.7128 3.41394 13.8024 3.63949 13.8024H9.82208C10.0476 13.8024 10.2639 13.7128 10.4234 13.5533C10.5829 13.3938 10.6725 13.1775 10.6725 12.952C10.6725 12.7264 10.5829 12.5101 10.4234 12.3506C10.2639 12.1912 10.0476 12.1016 9.82208 12.1016H3.63949C3.41394 12.1016 3.19763 12.1912 3.03815 12.3506C2.87866 12.5101 2.78906 12.7264 2.78906 12.952Z" fill="white"/>
</svg>
