<svg width="24" height="24" viewBox="0 0 24 24" fill="none" xmlns="http://www.w3.org/2000/svg">
<path fill-rule="evenodd" clip-rule="evenodd" d="M4.68749 19.0312C4.68749 19.1865 4.81341 19.3124 4.96874 19.3124H7.49997V17.9062C7.49997 17.4402 7.87773 17.0624 8.34372 17.0624H11.1562C11.6222 17.0624 11.9999 17.4402 11.9999 17.9062V19.3124H14.5312C14.6865 19.3124 14.8124 19.1865 14.8124 19.0312V4.96874C14.8124 4.81341 14.6865 4.68749 14.5312 4.68749H4.96874C4.81341 4.68749 4.68749 4.81341 4.68749 4.96874V19.0312ZM4.96874 20.9999C3.88143 20.9999 3 20.1185 3 19.0312V4.96874C3 3.88143 3.88143 3 4.96874 3H14.5312C15.6185 3 16.4999 3.88143 16.4999 4.96874V19.0312C16.4999 19.1267 16.4932 19.2206 16.48 19.3125H19.0312C19.1865 19.3125 19.3124 19.1866 19.3124 19.0313V12.3209C19.3124 12.2268 19.2654 12.139 19.1872 12.0868L18.0007 11.2958C17.6129 11.0373 17.5081 10.5135 17.7667 10.1258C18.0251 9.73805 18.549 9.63327 18.9367 9.89175L20.1232 10.6828C20.6709 11.0479 20.9999 11.6626 20.9999 12.3209V19.0313C20.9999 20.1186 20.1185 21 19.0312 21H15.0937C15.017 21 14.9426 20.9898 14.8718 20.9705C14.7612 20.9899 14.6474 20.9999 14.5312 20.9999H11.1562C10.6902 20.9999 10.3125 20.6221 10.3125 20.1561V18.7499H9.18746V20.1561C9.18746 20.6221 8.8097 20.9999 8.34372 20.9999H4.96874ZM6.37498 7.21872C6.37498 6.75274 6.75274 6.37498 7.21872 6.37498H7.78122C8.2472 6.37498 8.62497 6.75274 8.62497 7.21872C8.62497 7.68471 8.2472 8.06247 7.78122 8.06247H7.21872C6.75274 8.06247 6.37498 7.68471 6.37498 7.21872ZM7.21872 9.74996C6.75274 9.74996 6.37498 10.1277 6.37498 10.5937C6.37498 11.0597 6.75274 11.4374 7.21872 11.4374H7.78122C8.2472 11.4374 8.62497 11.0597 8.62497 10.5937C8.62497 10.1277 8.2472 9.74996 7.78122 9.74996H7.21872ZM6.37498 13.9687C6.37498 13.5027 6.75274 13.1249 7.21872 13.1249H7.78122C8.2472 13.1249 8.62497 13.5027 8.62497 13.9687C8.62497 14.4347 8.2472 14.8124 7.78122 14.8124H7.21872C6.75274 14.8124 6.37498 14.4347 6.37498 13.9687ZM11.7187 13.1249C11.2527 13.1249 10.875 13.5027 10.875 13.9687C10.875 14.4347 11.2527 14.8124 11.7187 14.8124H12.2812C12.7472 14.8124 13.1249 14.4347 13.1249 13.9687C13.1249 13.5027 12.7472 13.1249 12.2812 13.1249H11.7187ZM10.875 10.5937C10.875 10.1277 11.2527 9.74996 11.7187 9.74996H12.2812C12.7472 9.74996 13.1249 10.1277 13.1249 10.5937C13.1249 11.0597 12.7472 11.4374 12.2812 11.4374H11.7187C11.2527 11.4374 10.875 11.0597 10.875 10.5937ZM11.7187 6.37498C11.2527 6.37498 10.875 6.75274 10.875 7.21872C10.875 7.68471 11.2527 8.06247 11.7187 8.06247H12.2812C12.7472 8.06247 13.1249 7.68471 13.1249 7.21872C13.1249 6.75274 12.7472 6.37498 12.2812 6.37498H11.7187Z" fill="#292632"/>
</svg>
