<svg width="24" height="24" viewBox="0 0 24 24" fill="none" xmlns="http://www.w3.org/2000/svg">
<path fill-rule="evenodd" clip-rule="evenodd" d="M17.4505 7.86431L12 4.71719L6.55064 7.86316L12.0011 11.0103L17.4505 7.86431ZM5.69317 9.35029V15.6422L11.1425 18.7882V12.4974L5.69317 9.35029ZM12.8598 18.7871L18.3068 15.6422V9.35258L12.8598 12.4974V18.7871ZM11.1414 3.23007C11.4024 3.07935 11.6986 3 12 3C12.3014 3 12.5976 3.07935 12.8586 3.23007L19.1666 6.8706C19.4278 7.02141 19.6446 7.23836 19.7954 7.49963C19.9462 7.76089 20.0254 8.05724 20.0252 8.35887V15.6422C20.0252 15.9437 19.9459 16.2398 19.7951 16.5008C19.6444 16.7619 19.4276 16.9787 19.1666 17.1294L12.8586 20.7699C12.5976 20.9207 12.3014 21 12 21C11.6986 21 11.4024 20.9207 11.1414 20.7699L4.83341 17.1294C4.57219 16.9786 4.35532 16.7616 4.20459 16.5003C4.05385 16.239 3.9746 15.9427 3.97479 15.6411V8.36001C3.9746 8.05839 4.05385 7.76204 4.20459 7.50078C4.35532 7.23951 4.57219 7.02255 4.83341 6.87175L11.1425 3.23121L11.1414 3.23007Z" fill="#292632"/>
</svg>
