<svg width="24" height="24" viewBox="0 0 24 24" fill="none" xmlns="http://www.w3.org/2000/svg">
<path fill-rule="evenodd" clip-rule="evenodd" d="M15.2314 4.59218C14.5975 4.59218 13.9896 4.84398 13.5414 5.2922L6.22535 12.6083C5.47838 13.3552 5.05873 14.3683 5.05873 15.4247C5.05873 16.4811 5.47838 17.4942 6.22535 18.2412C6.97233 18.9882 7.98544 19.4078 9.04183 19.4078C10.0982 19.4078 11.1113 18.9882 11.8583 18.2412L19.1744 10.9252C19.4852 10.6143 19.9893 10.6143 20.3002 10.9252C20.6111 11.236 20.6111 11.7401 20.3002 12.051L12.9841 19.367C11.9386 20.4126 10.5205 21 9.04183 21C7.56317 21 6.14508 20.4126 5.09951 19.367C4.05395 18.3215 3.46655 16.9034 3.46655 15.4247C3.46655 13.9461 4.05395 12.528 5.09951 11.4824L12.4156 4.16636C13.1624 3.41955 14.1753 3 15.2314 3C16.2876 3 17.3005 3.41955 18.0473 4.16636C18.7941 4.91317 19.2136 5.92606 19.2136 6.98221C19.2136 8.03836 18.7941 9.05125 18.0473 9.79806L10.7232 17.1141C10.2752 17.5622 9.66751 17.8139 9.03387 17.8139C8.40022 17.8139 7.79253 17.5622 7.34448 17.1141C6.89643 16.6661 6.64472 16.0584 6.64472 15.4247C6.64472 14.7911 6.89643 14.1834 7.34448 13.7353L14.1036 6.98418C14.4147 6.67347 14.9187 6.67377 15.2294 6.98485C15.5401 7.29592 15.5399 7.79998 15.2288 8.11068L8.47032 14.8612C8.32107 15.0106 8.23689 15.2135 8.23689 15.4247C8.23689 15.6361 8.32086 15.8388 8.47032 15.9883C8.61978 16.1377 8.8225 16.2217 9.03387 16.2217C9.24524 16.2217 9.44795 16.1377 9.59741 15.9883L16.9214 8.67222C17.3694 8.22403 17.6214 7.61594 17.6214 6.98221C17.6214 6.34833 17.3696 5.74042 16.9214 5.2922C16.4732 4.84398 15.8653 4.59218 15.2314 4.59218Z" fill="#292632"/>
</svg>
