<svg width="22" height="11" viewBox="0 0 22 11" fill="none" xmlns="http://www.w3.org/2000/svg">
<path d="M11.0058 5.33482C12.2605 5.33482 13.3401 4.16018 13.3401 2.6307C13.3401 1.11958 12.2546 0 11.0058 0C9.76287 0 8.67162 1.14405 8.67745 2.64294C8.67745 4.16018 9.75703 5.33482 11.0058 5.33482ZM4.27745 5.47553C5.3687 5.47553 6.30822 4.44772 6.30822 3.12013C6.30822 1.80478 5.36286 0.832036 4.27745 0.832036C3.19788 0.832036 2.24085 1.82925 2.24668 3.13237C2.24668 4.44772 3.19204 5.47553 4.27745 5.47553ZM17.7167 5.47553C18.808 5.47553 19.7533 4.44772 19.7533 3.13237C19.7533 1.82925 18.8021 0.832036 17.7167 0.832036C16.6371 0.832036 15.6859 1.80478 15.6859 3.12013C15.6859 4.44772 16.6313 5.47553 17.7167 5.47553ZM1.02706 11H5.45623C4.84934 10.0762 5.59045 8.21635 6.85093 7.20078C6.19735 6.74805 5.36286 6.41157 4.27745 6.41157C1.64562 6.41157 0 8.44883 0 10.1435C0 10.6941 0.285942 11 1.02706 11ZM20.9729 11C21.7141 11 22 10.6941 22 10.1435C22 8.44883 20.3544 6.41157 17.7225 6.41157C16.6313 6.41157 15.7968 6.74805 15.1491 7.20078C16.4037 8.21635 17.1448 10.0762 16.5379 11H20.9729ZM7.34111 11H14.6706C15.5867 11 15.9135 10.7247 15.9135 10.1863C15.9135 8.6079 14.0286 6.42992 11.0058 6.42992C7.97719 6.42992 6.09231 8.6079 6.09231 10.1863C6.09231 10.7247 6.4191 11 7.34111 11Z" fill="white"/>
</svg>
