<svg width="24" height="24" viewBox="0 0 24 24" fill="none" xmlns="http://www.w3.org/2000/svg">
<path fill-rule="evenodd" clip-rule="evenodd" d="M9.21657 7.42855C8.61057 7.42855 8.02938 7.66929 7.60087 8.09779C7.17237 8.52631 6.93163 9.10748 6.93163 9.7135C6.93163 10.3195 7.17237 10.9007 7.60087 11.3292C8.02938 11.7577 8.61057 11.9984 9.21657 11.9984C9.82257 11.9984 10.4038 11.7577 10.8323 11.3292C11.2608 10.9007 11.5015 10.3195 11.5015 9.7135C11.5015 9.10748 11.2608 8.52631 10.8323 8.09779C10.4038 7.66929 9.82257 7.42855 9.21657 7.42855ZM5.21792 9.7135C5.21784 9.05072 5.3825 8.39831 5.69711 7.81495C6.01171 7.2316 6.46638 6.7356 7.02022 6.37155C7.57407 6.0075 8.20973 5.78684 8.87001 5.7294C9.5303 5.67196 10.1945 5.77955 10.8029 6.04247C11.4113 6.30541 11.9448 6.71545 12.3554 7.23572C12.766 7.75598 13.0409 8.37015 13.1552 9.02298C13.2696 9.67582 13.2199 10.3468 13.0106 10.9757C12.8013 11.6046 12.439 12.1716 11.9562 12.6257C12.8666 13.0673 13.657 13.7221 14.2605 14.5343C14.8639 15.3466 15.2625 16.2924 15.4225 17.2915C15.4581 17.516 15.4031 17.7455 15.2694 17.9295C15.1358 18.1134 14.9346 18.2367 14.7102 18.2723C14.4857 18.308 14.2561 18.2529 14.0722 18.1192C13.8883 17.9857 13.7649 17.7845 13.7293 17.56C13.5565 16.4877 13.0073 15.5119 12.1804 14.8076C11.3535 14.1033 10.3028 13.7165 9.21657 13.7165C8.13036 13.7165 7.07966 14.1033 6.25272 14.8076C5.42579 15.5119 4.87669 16.4877 4.70381 17.56C4.68611 17.6712 4.64667 17.7777 4.58778 17.8737C4.52887 17.9697 4.45165 18.0531 4.36053 18.1191C4.26939 18.1853 4.16614 18.2327 4.05666 18.2588C3.94717 18.2851 3.8336 18.2895 3.72243 18.2717C3.61125 18.254 3.50465 18.2146 3.40872 18.1557C3.31278 18.0968 3.22939 18.0196 3.1633 17.9284C3.0972 17.8374 3.04971 17.7341 3.02352 17.6245C2.99733 17.5151 2.99296 17.4015 3.01067 17.2904C3.171 16.2916 3.56976 15.3463 4.17316 14.5345C4.77657 13.7226 5.56682 13.0682 6.47692 12.6268C6.07881 12.2533 5.76163 11.8019 5.54508 11.3008C5.32851 10.7997 5.21715 10.2594 5.21792 9.7135ZM15.5002 7.99979C15.2729 7.99979 15.0549 8.09006 14.8943 8.25076C14.7336 8.41145 14.6433 8.62938 14.6433 8.85664C14.6433 9.08389 14.7336 9.30183 14.8943 9.46253C15.0549 9.62322 15.2729 9.7135 15.5002 9.7135C15.8867 9.71352 16.2619 9.84423 16.5648 10.0844C16.8677 10.3246 17.0806 10.6601 17.1686 11.0365C17.2567 11.4128 17.215 11.808 17.0503 12.1576C16.8855 12.5073 16.6075 12.791 16.2611 12.9627C16.1182 13.0337 15.9981 13.1432 15.9141 13.2789C15.8301 13.4145 15.7857 13.5709 15.7858 13.7304V14.1326C15.7856 14.325 15.8501 14.512 15.969 14.6633C16.088 14.8146 16.2544 14.9215 16.4416 14.9666C17.8125 15.2968 18.9116 16.3375 19.3229 17.6765C19.3554 17.7845 19.4091 17.885 19.4807 17.9723C19.5523 18.0595 19.6404 18.1318 19.74 18.1849C19.8395 18.2379 19.9486 18.2708 20.0609 18.2817C20.1732 18.2925 20.2866 18.281 20.3945 18.248C20.5024 18.2149 20.6027 18.1608 20.6895 18.0888C20.7764 18.0169 20.8483 17.9284 20.901 17.8286C20.9536 17.7288 20.9861 17.6196 20.9964 17.5072C21.0068 17.3949 20.9948 17.2816 20.9612 17.1738C20.7325 16.4319 20.3552 15.7443 19.8524 15.1528C19.3496 14.5612 18.7318 14.0781 18.0365 13.7327C18.483 13.2414 18.7775 12.6309 18.8836 11.9754C18.9898 11.32 18.9034 10.6478 18.6348 10.0405C18.3661 9.43329 17.9268 8.91717 17.3704 8.55488C16.8139 8.19259 16.1642 7.99974 15.5002 7.99979Z" fill="#292632"/>
</svg>
