<svg width="24" height="24" viewBox="0 0 24 24" fill="none" xmlns="http://www.w3.org/2000/svg">
<path d="M19.7072 4.29289C20.0978 4.68342 20.0978 5.31658 19.7072 5.70711L5.70723 19.7071C5.3167 20.0976 4.68354 20.0976 4.29302 19.7071C3.90249 19.3166 3.90249 18.6834 4.29302 18.2929L18.293 4.29289C18.6835 3.90237 19.3167 3.90237 19.7072 4.29289Z" fill="#292632"/>
<path d="M4.50037 6.74997C4.50037 5.50733 5.50773 4.49997 6.75037 4.49997C7.99301 4.49997 9.00037 5.50733 9.00037 6.74997C9.00037 7.99261 7.99301 8.99997 6.75037 8.99997C5.50773 8.99997 4.50037 7.99261 4.50037 6.74997Z" fill="#292632"/>
<path d="M17.25 15C16.0074 15 15 16.0073 15 17.25C15 18.4926 16.0074 19.5 17.25 19.5C18.4926 19.5 19.5 18.4926 19.5 17.25C19.5 16.0073 18.4926 15 17.25 15Z" fill="#292632"/>
</svg>
