<svg width="24" height="24" viewBox="0 0 24 24" fill="none" xmlns="http://www.w3.org/2000/svg">
<path fill-rule="evenodd" clip-rule="evenodd" d="M15.4564 8.53071C15.4564 9.44765 15.0921 10.327 14.4438 10.9754C13.7954 11.6238 12.916 11.9881 11.9991 11.9881C11.0821 11.9881 10.2027 11.6238 9.55437 10.9754C8.90598 10.327 8.54173 9.44765 8.54173 8.53071C8.54173 7.61377 8.90598 6.73437 9.55437 6.086C10.2027 5.43762 11.0821 5.07337 11.9991 5.07337C12.916 5.07337 13.7954 5.43762 14.4438 6.086C15.0921 6.73437 15.4564 7.61377 15.4564 8.53071ZM15.5408 12.7805C16.4138 12.0526 17.0414 11.0733 17.3383 9.97607C17.6351 8.87878 17.5865 7.71671 17.1995 6.64795C16.8124 5.57919 16.1054 4.65562 15.1748 4.00289C14.2442 3.35017 13.1351 3 11.9984 3C10.8617 3 9.75256 3.35017 8.82194 4.00289C7.89132 4.65562 7.18436 5.57919 6.79728 6.64795C6.41018 7.71671 6.36172 8.87878 6.65851 9.97607C6.9553 11.0733 7.58292 12.0526 8.45599 12.7805C7.09461 13.4241 5.93388 14.4258 5.09808 15.6784C4.26227 16.9311 3.78285 18.3873 3.71113 19.8915C3.70446 20.1626 3.80417 20.4255 3.98893 20.6238C4.17368 20.8223 4.42878 20.9405 4.69961 20.9531C4.97043 20.9658 5.23544 20.8719 5.43789 20.6916C5.64034 20.5112 5.76414 20.2588 5.78277 19.9883C5.85817 18.3904 6.54601 16.8828 7.70354 15.7787C8.86106 14.6744 10.3993 14.0584 11.9991 14.0584C13.5988 14.0584 15.1371 14.6744 16.2946 15.7787C17.4521 16.8828 18.14 18.3904 18.2154 19.9883C18.2188 20.1265 18.2497 20.2624 18.3064 20.3884C18.3631 20.5144 18.4444 20.6278 18.5455 20.7219C18.6466 20.816 18.7655 20.889 18.8951 20.9366C19.0248 20.9842 19.1627 21.0054 19.3007 20.9989C19.4387 20.9925 19.574 20.9585 19.6987 20.899C19.8233 20.8395 19.9349 20.7559 20.0267 20.6527C20.1187 20.5495 20.189 20.4291 20.2336 20.2984C20.2784 20.1677 20.2965 20.0293 20.287 19.8915C20.2151 18.3872 19.7355 16.9308 18.8995 15.6781C18.0634 14.4255 16.9024 13.4239 15.5408 12.7805Z" fill="#292632"/>
</svg>
