<svg width="24" height="24" viewBox="0 0 24 24" fill="none" xmlns="http://www.w3.org/2000/svg">
<g clip-path="url(#clip0_11_534)">
<path d="M19.9783 -0.0628662C20.5582 -0.0628662 21.0283 0.407235 21.0283 0.987134V3.04965H23.091C23.6709 3.04965 24.141 3.51975 24.141 4.09965C24.141 4.67955 23.6709 5.14965 23.091 5.14965H21.0283V7.21213C21.0283 7.79203 20.5582 8.26213 19.9783 8.26213C19.3984 8.26213 18.9283 7.79203 18.9283 7.21213V5.14965H16.866C16.2861 5.14965 15.816 4.67955 15.816 4.09965C15.816 3.51975 16.2861 3.04965 16.866 3.04965H18.9283V0.987134C18.9283 0.407235 19.3984 -0.0628662 19.9783 -0.0628662Z" fill="#292632"/>
<path fill-rule="evenodd" clip-rule="evenodd" d="M13.7686 9.91321C13.4717 11.0105 12.8441 11.9897 11.9711 12.7176C13.3327 13.361 14.4937 14.3627 15.3298 15.6153C16.1658 16.8679 16.6454 18.3243 16.7173 19.8287C16.7268 19.9664 16.7087 20.1048 16.6639 20.2355C16.6193 20.3662 16.549 20.4867 16.457 20.5898C16.3652 20.693 16.2536 20.7767 16.129 20.8361C16.0043 20.8956 15.869 20.9296 15.731 20.936C15.593 20.9425 15.4551 20.9213 15.3254 20.8738C15.1958 20.8262 15.0769 20.7532 14.9758 20.659C14.8747 20.5649 14.7934 20.4515 14.7367 20.3256C14.68 20.1996 14.6491 20.0636 14.6457 19.9255C14.5703 18.3275 13.8824 16.82 12.7249 15.7158C11.5674 14.6116 10.0291 13.9955 8.42937 13.9955C6.82964 13.9955 5.29136 14.6116 4.13384 15.7158C2.97631 16.82 2.28846 18.3275 2.21307 19.9255C2.19444 20.196 2.07064 20.4484 1.86819 20.6287C1.66574 20.809 1.40073 20.9029 1.12991 20.8902C0.859075 20.8776 0.603978 20.7594 0.419232 20.5609C0.234471 20.3626 0.134761 20.0997 0.141427 19.8287C0.213146 18.3244 0.692569 16.8682 1.52837 15.6156C2.36418 14.363 3.52491 13.3612 4.88628 12.7176C4.01322 11.9897 3.3856 11.0105 3.08881 9.91321C2.79202 8.81591 2.84048 7.65385 3.22757 6.58509C3.61466 5.51632 4.32162 4.59276 5.25224 3.94003C6.18285 3.28731 7.29197 2.93713 8.42867 2.93713C9.56538 2.93713 10.6745 3.28731 11.6051 3.94003C12.5357 4.59276 13.2427 5.51632 13.6298 6.58509C14.0168 7.65385 14.0654 8.81591 13.7686 9.91321ZM10.8741 10.9125C11.5224 10.2642 11.8867 9.38479 11.8867 8.46784C11.8867 7.5509 11.5224 6.67151 10.8741 6.02313C10.2257 5.37475 9.34631 5.0105 8.42937 5.0105C7.51242 5.0105 6.63304 5.37475 5.98467 6.02313C5.33628 6.67151 4.97202 7.5509 4.97202 8.46784C4.97202 9.38479 5.33628 10.2642 5.98467 10.9125C6.63304 11.5609 7.51242 11.9252 8.42937 11.9252C9.34631 11.9252 10.2257 11.5609 10.8741 10.9125Z" fill="#292632"/>
</g>
<defs>
<clipPath id="clip0_11_534">
<rect width="24" height="24" fill="white"/>
</clipPath>
</defs>
</svg>
