<svg width="24" height="24" viewBox="0 0 24 24" fill="none" xmlns="http://www.w3.org/2000/svg">
<path fill-rule="evenodd" clip-rule="evenodd" d="M16.4986 19.7968C15.1752 20.562 13.6387 21 12 21C7.02943 21 3 16.9706 3 12C3 7.02943 7.02943 3 12 3C16.9706 3 21 7.02943 21 12C21 15.3203 19.2021 18.2206 16.5267 19.7805C16.5091 19.8014 16.499 19.8082 16.4986 19.7968ZM4.6875 12C4.6875 7.96142 7.96142 4.6875 12 4.6875C16.0386 4.6875 19.3125 7.96142 19.3125 12C19.3125 13.9799 18.5257 15.776 17.2477 17.0927C17.1689 16.951 17.0842 16.8122 16.9938 16.6767C16.3886 15.7701 15.5483 15.045 14.5627 14.5793C15.1946 14.0524 15.6489 13.3437 15.8638 12.5494C16.0786 11.7552 16.0435 10.9141 15.7633 10.1405C15.4831 9.36687 14.9714 8.69838 14.2978 8.22592C13.6242 7.75346 12.8214 7.5 11.9986 7.5C11.1759 7.5 10.373 7.75346 9.69945 8.22592C9.02584 8.69838 8.51413 9.36687 8.23395 10.1405C7.95376 10.9141 7.91869 11.7552 8.13351 12.5494C8.34834 13.3437 8.80262 14.0524 9.43456 14.5793C8.44917 15.0452 7.60901 15.7703 7.00403 16.6769C6.91396 16.8119 6.8296 16.9502 6.75109 17.0914C5.47381 15.7748 4.6875 13.9792 4.6875 12ZM7.93025 18.0763C9.09364 18.857 10.4936 19.3125 12 19.3125C13.5058 19.3125 14.9053 18.8574 16.0684 18.0772C15.8344 17.584 15.5105 17.1331 15.1083 16.7495C14.2705 15.9502 13.157 15.5043 11.9991 15.5043C10.8412 15.5043 9.72776 15.9502 8.88993 16.7495C8.48799 17.1329 8.1643 17.5835 7.93025 18.0763ZM13.7687 13.2728C14.238 12.8035 14.5016 12.167 14.5016 11.5032C14.5016 10.8395 14.238 10.203 13.7687 9.73371C13.2994 9.2644 12.6628 9.00075 11.9991 9.00075C11.3354 9.00075 10.6989 9.2644 10.2296 9.73371C9.76028 10.203 9.49662 10.8395 9.49662 11.5032C9.49662 12.167 9.76028 12.8035 10.2296 13.2728C10.6989 13.7421 11.3354 14.0057 11.9991 14.0057C12.6628 14.0057 13.2994 13.7421 13.7687 13.2728Z" fill="#292632"/>
</svg>
