<svg width="24" height="24" viewBox="0 0 24 24" fill="none" xmlns="http://www.w3.org/2000/svg">
<path d="M4.24541 3.80472L7.55788 3.04165C8.31743 2.86583 9.09104 3.25967 9.39697 3.97702L10.9266 7.54618C11.2079 8.20024 11.018 8.97385 10.466 9.42395L9.05939 10.5738C10.0651 12.4164 11.5842 13.9355 13.4268 14.9377L14.5766 13.5311C15.0268 12.979 15.8004 12.7892 16.4544 13.0705L20.0271 14.6001C20.7444 14.906 21.1348 15.6797 20.9625 16.4392L20.1994 19.7517C20.0306 20.4866 19.3836 21 18.6311 21C10.0194 21.0035 2.99709 14.0305 2.99709 5.37304C2.99709 4.62052 3.51048 3.9735 4.24541 3.80472ZM17.9643 19.3002C18.3145 19.3166 18.6202 19.073 18.6989 18.7313L19.1585 16.737C19.2399 16.3834 19.0566 16.0222 18.7231 15.8793L16.3648 14.8682C16.0576 14.7365 15.7004 14.824 15.4887 15.0827L14.4797 16.3164C14.1315 16.7421 13.5358 16.88 13.0482 16.6257C10.3774 15.233 8.76754 13.6273 7.37405 10.952C7.12015 10.4646 7.25818 9.86936 7.68361 9.52139L8.91789 8.51185C9.17661 8.30025 9.26408 7.94298 9.13238 7.63579L8.12133 5.27746C7.97836 4.94398 7.61717 4.76067 7.26359 4.84214L5.26931 5.30168C4.92764 5.38041 4.68396 5.68609 4.7004 6.03633C5.03719 13.2103 10.7903 18.9634 17.9643 19.3002Z" fill="#292632"/>
</svg>
