<svg width="24" height="24" viewBox="0 0 24 24" fill="none" xmlns="http://www.w3.org/2000/svg">
<path d="M4.2454 3.80472L7.55786 3.04165C8.31741 2.86583 9.09102 3.25967 9.39695 3.97702L10.9266 7.54618C11.2079 8.20024 11.018 8.97385 10.4659 9.42395L9.05937 10.5738C10.0651 12.4164 11.5842 13.9355 13.4268 14.9377L14.5766 13.5311C15.0267 12.979 15.8003 12.7892 16.4544 13.0705L20.0271 14.6001C20.7444 14.906 21.1348 15.6797 20.9624 16.4392L20.1994 19.7517C20.0306 20.4866 19.3836 21 18.6311 21C10.0194 21.0035 2.99707 14.0305 2.99707 5.37304C2.99707 4.62052 3.51047 3.9735 4.2454 3.80472ZM17.9643 19.3002C18.3145 19.3166 18.6202 19.073 18.6989 18.7313L19.1584 16.737C19.2399 16.3834 19.0566 16.0222 18.7231 15.8793L16.3648 14.8682C16.0576 14.7365 15.7003 14.824 15.4887 15.0827L14.4797 16.3164C14.1315 16.7421 13.5358 16.88 13.0482 16.6257C10.3774 15.233 8.76752 13.6273 7.37404 10.952C7.12014 10.4646 7.25816 9.86936 7.68359 9.52139L8.91787 8.51185C9.17659 8.30025 9.26406 7.94298 9.13236 7.63579L8.12131 5.27746C7.97834 4.94398 7.61715 4.76067 7.26358 4.84214L5.26929 5.30168C4.92762 5.38041 4.68395 5.68609 4.70039 6.03633C5.03717 13.2103 10.7903 18.9634 17.9643 19.3002Z" fill="#292632"/>
<path d="M17.6728 4.15556C17.4039 3.88663 16.9679 3.88663 16.6989 4.15556C16.43 4.42449 16.43 4.86051 16.6989 5.12944L18.5075 6.93795L16.6989 8.74647C16.43 9.0154 16.43 9.45142 16.6989 9.72035C16.9679 9.98928 17.4039 9.98928 17.6728 9.72035L19.4813 7.91183L21.2899 9.72035C21.5588 9.98928 21.9948 9.98928 22.2637 9.72035C22.5327 9.45142 22.5327 9.0154 22.2637 8.74647L20.4552 6.93796L22.2637 5.12945C22.5327 4.86052 22.5327 4.4245 22.2637 4.15557C21.9948 3.88664 21.5588 3.88664 21.2899 4.15557L19.4813 5.96408L17.6728 4.15556Z" fill="#292632"/>
</svg>
