<svg width="24" height="24" viewBox="0 0 24 24" fill="none" xmlns="http://www.w3.org/2000/svg">
<path d="M14.5767 13.5318C15.0268 12.9797 15.8005 12.7891 16.4546 13.0704L20.0273 14.5997C20.7447 14.9056 21.1342 15.68 20.9619 16.4395L20.1987 19.7515C20.03 20.4864 19.3837 20.9994 18.6313 20.9996C14.659 21.0012 11.0274 19.5157 8.26465 17.0679L9.45996 15.8726C11.7558 17.8787 14.7132 19.1477 17.9648 19.3004C18.3146 19.3165 18.6198 19.0731 18.6987 18.732L19.1587 16.7369C19.24 16.3836 19.0566 16.0231 18.7236 15.8799L16.3652 14.8677C16.0581 14.736 15.7009 14.8244 15.4893 15.0831L14.48 16.3165C14.1319 16.742 13.5364 16.8795 13.0488 16.6255C12.0381 16.0985 11.1794 15.5403 10.4268 14.9058L11.625 13.7076C12.181 14.1748 12.7839 14.5884 13.4268 14.938L14.5767 13.5318Z" fill="#292632"/>
<path d="M7.55859 3.04205C8.31784 2.86659 9.09103 3.25966 9.39697 3.97662L10.9263 7.54644C11.2075 8.20047 11.0184 8.9743 10.4663 9.42437L9.06006 10.5743C9.19172 10.7346 9.27683 10.8426 9.60182 11.272C9.60182 11.272 9.95553 11.7338 9.37511 12.2518C8.79469 12.7697 8.40211 12.4717 8.40211 12.4717C7.91061 11.8285 7.80071 11.7713 7.37402 10.9522C7.12015 10.4648 7.25779 9.86904 7.68311 9.52105L8.91797 8.51178C9.17663 8.30016 9.26352 7.94296 9.13184 7.6358L8.12109 5.2774C7.97815 4.94415 7.61753 4.76116 7.26416 4.84234L5.26904 5.3023C4.92761 5.38117 4.6843 5.68613 4.70068 6.03619C4.84391 9.08704 5.57896 11.2405 7.37402 13.4702C7.37402 13.4702 7.67952 13.935 7.09015 14.4443C6.50078 14.9536 6.17285 14.6713 6.17285 14.6713C3.94702 11.9738 2.99707 9.15321 2.99707 5.37262C2.99725 4.62041 3.51053 3.97413 4.24512 3.80523L7.55859 3.04205Z" fill="#292632"/>
<path d="M3.4395 19.4733C3.08933 19.8225 3.08933 20.3886 3.4395 20.7377C3.78967 21.0869 4.35741 21.0869 4.70759 20.7377L20.7397 4.52676C21.0899 4.1776 21.0899 3.61151 20.7397 3.26235C20.3896 2.9132 19.8218 2.9132 19.4717 3.26236L3.4395 19.4733Z" fill="#292632"/>
</svg>
