<svg width="24" height="24" viewBox="0 0 24 24" fill="none" xmlns="http://www.w3.org/2000/svg">
<path fill-rule="evenodd" clip-rule="evenodd" d="M12.0001 3.00208C11.7831 3.00208 11.575 3.08827 11.4215 3.24171C11.2681 3.39515 11.1819 3.60325 11.1819 3.82024V12.0019C11.1819 12.4538 11.5482 12.8201 12.0001 12.8201H20.1817C20.6336 12.8201 20.9999 12.4538 20.9999 12.0019C20.9999 10.82 20.7671 9.64974 20.3148 8.55783C19.8625 7.46592 19.1996 6.47378 18.3639 5.63807C17.5282 4.80236 16.5361 4.13943 15.4441 3.68715C14.3522 3.23486 13.1819 3.00208 12.0001 3.00208ZM12.8182 11.1838V4.68401C13.5043 4.76072 14.1776 4.93369 14.8179 5.19893C15.7113 5.56898 16.5231 6.11137 17.2068 6.79514C17.8906 7.4789 18.433 8.29065 18.8031 9.18403C19.0683 9.82437 19.2413 10.4977 19.318 11.1838H12.8182Z" fill="#292632"/>
<path d="M9.05474 5.24919C9.46889 5.06847 9.65811 4.58623 9.47739 4.17208C9.29666 3.75793 8.81442 3.56871 8.40027 3.74944C7.05289 4.33741 5.87005 5.2465 4.95517 6.39722C4.04029 7.54794 3.42123 8.90525 3.1521 10.3505C2.88297 11.7957 2.97197 13.2849 3.41133 14.6878C3.85068 16.0907 4.62701 17.3646 5.67244 18.3982C6.71786 19.4317 8.00056 20.1935 9.40839 20.6168C10.8162 21.0401 12.3063 21.1121 13.7484 20.8265C15.1905 20.5408 16.5406 19.9063 17.6808 18.9784C18.821 18.0504 19.7165 16.8572 20.2891 15.5032C20.4651 15.0871 20.2703 14.607 19.8542 14.431C19.438 14.255 18.9579 14.4498 18.7819 14.8659C18.3135 15.9738 17.5808 16.95 16.6479 17.7092C15.715 18.4685 14.6103 18.9876 13.4305 19.2213C12.2506 19.455 11.0314 19.3961 9.87956 19.0497C8.72771 18.7034 7.67822 18.0802 6.82287 17.2345C5.96752 16.3889 5.33235 15.3466 4.97288 14.1988C4.61341 13.0509 4.54058 11.8325 4.76078 10.6501C4.98098 9.46759 5.48748 8.35706 6.23602 7.41556C6.98456 6.47406 7.95234 5.73026 9.05474 5.24919Z" fill="#292632"/>
</svg>
