<svg width="24" height="24" viewBox="0 0 24 24" fill="none" xmlns="http://www.w3.org/2000/svg">
<path fill-rule="evenodd" clip-rule="evenodd" d="M7.02359 4.84325C6.74799 3.92458 7.4359 3 8.39502 3H15.6048C16.5639 3 17.2518 3.92458 16.9762 4.84325L15.2813 7.76585C15.2755 7.78492 15.2726 7.80472 15.2726 7.82463V10.1342C15.2726 10.1717 15.2829 10.2085 15.3025 10.2406L17.4944 12.6873C18.0752 13.6415 17.3883 14.8636 16.2713 14.8636H12.7808V19.5682C12.7808 19.9071 12.3388 21 11.9999 21C11.661 21 11.2137 19.9071 11.2137 19.5682V14.8636H7.72849C6.61147 14.8636 5.92464 13.6415 6.50543 12.6873L8.69735 10.2406C8.71686 10.2085 8.72718 10.1717 8.72718 10.1342V7.82463C8.72718 7.80472 8.72427 7.78492 8.71855 7.76585L7.02359 4.84325Z" fill="#292632"/>
</svg>
