<svg width="24" height="24" viewBox="0 0 24 24" fill="none" xmlns="http://www.w3.org/2000/svg">
<path fill-rule="evenodd" clip-rule="evenodd" d="M12 3C16.9706 3 21 7.02944 21 12C21 16.9706 16.9706 21 12 21C7.02944 21 3 16.9706 3 12C3 7.02944 7.02944 3 12 3ZM9.88037 7.0166C9.31643 7.0166 8.91132 7.56043 9.07324 8.10059L10.0708 9.81885C10.0742 9.83006 10.0752 9.8423 10.0752 9.854V11.2119C10.0752 11.234 10.0691 11.2561 10.0576 11.2749L8.76855 12.7134C8.42723 13.2744 8.83115 13.9935 9.48779 13.9937H11.5371V16.7593C11.5371 16.9586 11.8007 17.6016 12 17.6016C12.1993 17.6012 12.4585 16.9585 12.4585 16.7593V13.9937H14.5122C15.1686 13.9932 15.5726 13.2743 15.2314 12.7134L13.9424 11.2749C13.9309 11.2561 13.9248 11.234 13.9248 11.2119V9.854C13.9248 9.8423 13.9258 9.83006 13.9292 9.81885L14.9268 8.10059C15.0886 7.56046 14.6835 7.0166 14.1196 7.0166H9.88037Z" fill="#292632"/>
</svg>
