<svg width="24" height="24" viewBox="0 0 24 24" fill="none" xmlns="http://www.w3.org/2000/svg">
<path d="M19.0649 12C19.0649 8.09811 15.9019 4.93506 12 4.93506C8.09811 4.93506 4.93506 8.09811 4.93506 12C4.93506 15.9019 8.09811 19.0649 12 19.0649V21C7.02944 21 3 16.9706 3 12C3 7.02944 7.02944 3 12 3C16.9706 3 21 7.02944 21 12C21 16.9706 16.9706 21 12 21V19.0649C15.9019 19.0649 19.0649 15.9019 19.0649 12Z" fill="#292632"/>
<path fill-rule="evenodd" clip-rule="evenodd" d="M9.07355 8.10067C8.91148 7.56045 9.31601 7.01676 9.88001 7.01676H14.1197C14.6837 7.01676 15.0882 7.56045 14.9261 8.10067L13.9294 9.81929C13.9261 9.8305 13.9243 9.84214 13.9243 9.85385V11.212C13.9243 11.234 13.9304 11.2557 13.9419 11.2745L15.2308 12.7133C15.5724 13.2744 15.1685 13.9931 14.5116 13.9931H12.459V16.7596C12.459 16.9589 12.1991 17.6015 11.9998 17.6015C11.8005 17.6015 11.5375 16.9589 11.5375 16.7596V13.9931H9.48806C8.83121 13.9931 8.42732 13.2744 8.76885 12.7133L10.0578 11.2745C10.0693 11.2557 10.0753 11.234 10.0753 11.212V9.85385C10.0753 9.84214 10.0736 9.8305 10.0703 9.81929L9.07355 8.10067Z" fill="#292632"/>
</svg>
