<svg width="24" height="24" viewBox="0 0 24 24" fill="none" xmlns="http://www.w3.org/2000/svg">
<path d="M13.3372 7.82514C13.3372 7.617 13.3682 7.40943 13.428 7.20991L13.5057 6.99751C13.5356 6.92837 13.5689 6.86066 13.6067 6.79537L14.6863 4.93504H9.31327L10.3929 6.79537L10.4939 6.99751C10.5239 7.06668 10.5499 7.1376 10.5716 7.20991L10.6111 7.36079C10.6449 7.51292 10.6624 7.669 10.6624 7.82514V10.1337C10.6624 10.4279 10.6015 10.7183 10.4851 10.9862L10.3504 11.247C10.3196 11.2975 10.286 11.346 10.2508 11.3935L10.138 11.5312L8.887 12.9286H15.1126L13.8616 11.5312C13.822 11.4869 13.7842 11.4411 13.7488 11.3935L13.6492 11.247C13.4452 10.9118 13.3372 10.5261 13.3372 10.1337V7.82514ZM15.2723 10.1337C15.2723 10.1712 15.2821 10.2086 15.3016 10.2406L17.4944 12.6869C18.039 13.5815 17.4688 14.7114 16.4749 14.849L16.2713 14.8636H7.72831L7.52469 14.849C6.59673 14.7207 6.03852 13.7279 6.41141 12.8685L6.50516 12.6869L8.69657 10.2406C8.70635 10.2246 8.71499 10.2073 8.72001 10.1894L8.72733 10.1337V7.82514C8.72733 7.80523 8.72426 7.78415 8.71854 7.76508L7.02372 4.84275C6.76552 3.98138 7.35388 3.11478 8.21903 3.01025L8.39481 3H15.6048L15.7806 3.01025C16.6456 3.11488 17.234 3.98146 16.9759 4.84275L15.2811 7.76508C15.2753 7.78415 15.2723 7.80523 15.2723 7.82514V10.1337Z" fill="#292632"/>
<path d="M12.7808 14.7681V19.5682C12.7808 19.9071 12.3388 21 11.9999 21C11.661 21 11.2137 19.9071 11.2137 19.5682V14.7681H12.7808Z" fill="#292632"/>
</svg>
