<svg width="24" height="24" viewBox="0 0 24 24" fill="none" xmlns="http://www.w3.org/2000/svg">
<path fill-rule="evenodd" clip-rule="evenodd" d="M4.6875 12C4.6875 7.96142 7.96142 4.6875 12 4.6875C16.0386 4.6875 19.3125 7.96142 19.3125 12C19.3125 16.0386 16.0386 19.3125 12 19.3125C7.96142 19.3125 4.6875 16.0386 4.6875 12ZM12 3C7.02943 3 3 7.02943 3 12C3 16.9706 7.02943 21 12 21C16.9706 21 21 16.9706 21 12C21 7.02943 16.9706 3 12 3ZM10.1759 8.88057C9.98849 8.7681 9.75 8.90312 9.75 9.12174V14.8783C9.75 15.0969 9.98849 15.2319 10.1759 15.1194L14.973 12.2412C15.1551 12.1319 15.1551 11.8681 14.973 11.7588L10.1759 8.88057Z" fill="#292632"/>
</svg>
