<svg width="24" height="24" viewBox="0 0 24 24" fill="none" xmlns="http://www.w3.org/2000/svg">
<path fill-rule="evenodd" clip-rule="evenodd" d="M12 3C12.3113 3 12.6099 3.12368 12.8301 3.34383C13.0502 3.56398 13.1739 3.86258 13.1739 4.17391V10.8261H19.8261C20.1374 10.8261 20.4361 10.9498 20.6561 11.1699C20.8763 11.3901 21 11.6887 21 12C21 12.3113 20.8763 12.6099 20.6561 12.8301C20.4361 13.0502 20.1374 13.1739 19.8261 13.1739H13.1739V19.8261C13.1739 20.1374 13.0502 20.4361 12.8301 20.6561C12.6099 20.8763 12.3113 21 12 21C11.6887 21 11.3901 20.8763 11.1699 20.6561C10.9498 20.4361 10.8261 20.1374 10.8261 19.8261V13.1739H4.17391C3.86258 13.1739 3.56398 13.0502 3.34383 12.8301C3.12368 12.6099 3 12.3113 3 12C3 11.6887 3.12368 11.3901 3.34383 11.1699C3.56398 10.9498 3.86258 10.8261 4.17391 10.8261H10.8261V4.17391C10.8261 3.86258 10.9498 3.56398 11.1699 3.34383C11.3901 3.12368 11.6887 3 12 3Z" fill="#292632"/>
</svg>
