<svg width="24" height="24" viewBox="0 0 24 24" fill="none" xmlns="http://www.w3.org/2000/svg">
<path fill-rule="evenodd" clip-rule="evenodd" d="M4.6875 12C4.6875 7.96142 7.96142 4.6875 12 4.6875C16.0386 4.6875 19.3125 7.96142 19.3125 12C19.3125 16.0386 16.0386 19.3125 12 19.3125C7.96142 19.3125 4.6875 16.0386 4.6875 12ZM12 3C7.02943 3 3 7.02943 3 12C3 16.9706 7.02943 21 12 21C16.9706 21 21 16.9706 21 12C21 7.02943 16.9706 3 12 3ZM12.8438 8.34375C12.8438 7.87776 12.466 7.5 12 7.5C11.534 7.5 11.1562 7.87776 11.1562 8.34375V11.1562H8.34375C7.87776 11.1562 7.5 11.534 7.5 12C7.5 12.466 7.87776 12.8438 8.34375 12.8438H11.1562V15.6562C11.1562 16.1222 11.534 16.5 12 16.5C12.466 16.5 12.8438 16.1222 12.8438 15.6562V12.8438H15.6562C16.1222 12.8438 16.5 12.466 16.5 12C16.5 11.534 16.1222 11.1562 15.6562 11.1562H12.8438V8.34375Z" fill="#292632"/>
</svg>
