<svg width="24" height="24" viewBox="0 0 24 24" fill="none" xmlns="http://www.w3.org/2000/svg">
<path fill-rule="evenodd" clip-rule="evenodd" d="M6.27283 3.81818C6.27283 3.36631 6.63914 3 7.09101 3H16.9092C17.3611 3 17.7274 3.36631 17.7274 3.81818V8.72726H18.5455C19.1964 8.72726 19.8208 8.98587 20.2811 9.44618C20.7414 9.9065 21 10.5308 21 11.1818V15.2727C21 15.9237 20.7414 16.548 20.2811 17.0083C19.8208 17.4687 19.1964 17.7273 18.5455 17.7273H17.7274V20.1818C17.7274 20.6337 17.3611 21 16.9092 21H7.09101C6.63914 21 6.27283 20.6337 6.27283 20.1818V17.7273H5.45455C4.80356 17.7273 4.17924 17.4687 3.71892 17.0083C3.2586 16.548 3 15.9237 3 15.2727V11.1818C3 10.5308 3.2586 9.9065 3.71892 9.44618C4.17924 8.98587 4.80356 8.72726 5.45455 8.72726H6.27283V3.81818ZM6.27283 16.0909V13.6364C6.27283 13.1845 6.63914 12.8182 7.09101 12.8182H16.9092C17.3611 12.8182 17.7274 13.1845 17.7274 13.6364V16.0909H18.5455C18.7624 16.0909 18.9706 16.0047 19.124 15.8513C19.2774 15.6978 19.3636 15.4897 19.3636 15.2727V11.1818C19.3636 10.9648 19.2774 10.7567 19.124 10.6033C18.9706 10.4498 18.7624 10.3636 18.5455 10.3636H16.913L16.9092 10.3636L16.9054 10.3636H7.0948L7.09101 10.3636L7.08722 10.3636H5.45455C5.23755 10.3636 5.02944 10.4498 4.876 10.6033C4.72256 10.7567 4.63636 10.9648 4.63636 11.1818V15.2727C4.63636 15.4897 4.72256 15.6978 4.876 15.8513C5.02944 16.0047 5.23755 16.0909 5.45455 16.0909H6.27283ZM16.091 16.8962V14.4546H7.90919V19.3637H16.091V16.922C16.0909 16.9177 16.0909 16.9134 16.0909 16.9091C16.0909 16.9048 16.0909 16.9005 16.091 16.8962ZM16.091 4.63636V8.72726H7.90919V4.63636H16.091Z" fill="#292632"/>
</svg>
