<svg width="21" height="13" viewBox="0 0 21 13" fill="none" xmlns="http://www.w3.org/2000/svg">
<path d="M16 10C16.5523 10 17 10.4477 17 11V12C17 12.5177 16.6066 12.9438 16.1025 12.9951L16 13H11L10.8975 12.9951C10.427 12.9472 10.0528 12.573 10.0049 12.1025L10 12V11C10 10.4477 10.4477 10 11 10H16ZM3.36914 0.224609C3.76191 -0.0957023 4.34093 -0.0731331 4.70703 0.292969L7.70703 3.29297C8.09751 3.68348 8.09751 4.31652 7.70703 4.70703C7.31652 5.09754 6.6835 5.09752 6.29297 4.70703L5 3.41406V10C5 10.5523 4.55225 11 4 11C3.44772 11 3 10.5523 3 10V3.41406L1.70703 4.70703C1.31652 5.09754 0.683496 5.09752 0.292969 4.70703C-0.0975555 4.31651 -0.0975555 3.68349 0.292969 3.29297L3.29297 0.292969L3.36914 0.224609ZM18 5C18.5523 5.00004 19 5.44774 19 6V7C19 7.51765 18.6066 7.94375 18.1025 7.99512L18 8H11L10.8975 7.99512C10.427 7.94722 10.0528 7.57296 10.0049 7.10254L10 7V6C10 5.44772 10.4477 5 11 5H18ZM20 0C20.5523 4.07147e-05 21 0.44774 21 1V2C21 2.51765 20.6066 2.94375 20.1025 2.99512L20 3H11L10.8975 2.99512C10.427 2.94722 10.0528 2.57296 10.0049 2.10254L10 2V1C10 0.447715 10.4477 1.61064e-08 11 0H20Z" fill="white"/>
</svg>
