<svg width="24" height="24" viewBox="0 0 24 24" fill="none" xmlns="http://www.w3.org/2000/svg">
<path fill-rule="evenodd" clip-rule="evenodd" d="M12 4.6875C7.96142 4.6875 4.6875 7.96142 4.6875 12C4.6875 16.0386 7.96142 19.3125 12 19.3125C16.0386 19.3125 19.3125 16.0386 19.3125 12C19.3125 7.96142 16.0386 4.6875 12 4.6875ZM3 12C3 7.02943 7.02943 3 12 3C16.9706 3 21 7.02943 21 12C21 16.9706 16.9706 21 12 21C7.02943 21 3 16.9706 3 12ZM13.125 15.375C13.125 15.9963 12.6213 16.5 12 16.5C11.3787 16.5 10.875 15.9963 10.875 15.375C10.875 14.7537 11.3787 14.25 12 14.25C12.6213 14.25 13.125 14.7537 13.125 15.375ZM10.7859 9.84609C10.8765 9.66493 10.9991 9.50944 11.1672 9.39736C11.3301 9.2888 11.5851 9.1875 12 9.1875C12.3147 9.1875 12.622 9.28488 12.8297 9.44062C13.0148 9.57947 13.125 9.76135 13.125 10.0312C13.125 10.2299 13.0791 10.328 13.0382 10.3894C12.9872 10.4659 12.8991 10.5506 12.7273 10.6652C12.6413 10.7225 12.5489 10.7781 12.436 10.8459L12.4291 10.85L12.4291 10.85C12.3237 10.9133 12.1992 10.988 12.0768 11.0695C11.8268 11.2362 11.5281 11.468 11.2979 11.8134C11.0395 12.2011 11.1443 12.725 11.532 12.9834C11.9198 13.2419 12.4436 13.1371 12.7021 12.7494C12.7531 12.6728 12.8411 12.5881 13.013 12.4735C13.0989 12.4163 13.1914 12.3606 13.3042 12.2929L13.3112 12.2887L13.3113 12.2886C13.4167 12.2254 13.5411 12.1507 13.6634 12.0692C13.9133 11.9026 14.2121 11.6708 14.4423 11.3255C14.6827 10.9649 14.8125 10.5357 14.8125 10.0312C14.8125 9.17615 14.407 8.51428 13.8422 8.09063C13.2998 7.68387 12.6228 7.5 12 7.5C11.2899 7.5 10.7012 7.67995 10.2312 7.99327C9.7665 8.30306 9.46724 8.71007 9.27658 9.09141C9.06817 9.5082 9.23711 10.015 9.65391 10.2234C10.0707 10.4318 10.5775 10.2629 10.7859 9.84609Z" fill="#292632"/>
</svg>
