<svg width="24" height="24" viewBox="0 0 24 24" fill="none" xmlns="http://www.w3.org/2000/svg">
<path d="M3.39234 13.4237C3.28689 13.4693 3.18855 13.5359 3.10381 13.6233C3.09038 13.6371 3.07739 13.6514 3.06486 13.666C3.00024 13.7417 2.95025 13.8254 2.9148 13.9134C2.87873 14.0029 2.85771 14.0969 2.8516 14.1916C2.85035 14.2111 2.84973 14.2305 2.84973 14.25C2.84973 14.2501 2.84973 14.2498 2.84973 14.25L2.84973 18.75C2.84973 19.247 3.25267 19.65 3.74973 19.65C4.24679 19.65 4.64973 19.247 4.64973 18.75L4.64973 16.3307L6.60347 18.1665C7.51519 19.0752 8.64155 19.7392 9.87826 20.097C11.1196 20.456 12.4317 20.4948 13.6921 20.2096C14.9525 19.9244 16.1201 19.3246 17.086 18.4661C18.0519 17.6076 18.7846 16.5184 19.2157 15.3002C19.3815 14.8316 19.136 14.3174 18.6674 14.1515C18.1989 13.9857 17.6846 14.2312 17.5188 14.6997C17.1891 15.6313 16.6288 16.4642 15.8902 17.1207C15.1516 17.7772 14.2587 18.2359 13.2949 18.454C12.3311 18.6721 11.3277 18.6424 10.3784 18.3678C9.42912 18.0933 8.56487 17.5827 7.86628 16.8837L7.84603 16.8641L6.02183 15.15H8.24972C8.74678 15.15 9.14972 14.747 9.14972 14.25C9.14972 13.7529 8.74678 13.35 8.24972 13.35H3.74973C3.62274 13.35 3.50189 13.3763 3.39234 13.4237Z" fill="#292632"/>
<path d="M20.6074 11.3261C20.7129 11.2806 20.8112 11.214 20.8959 11.1266C20.9094 11.1128 20.9224 11.0985 20.9349 11.0838C20.9995 11.0082 21.0495 10.9245 21.085 10.8365C21.1269 10.7325 21.15 10.6189 21.15 10.4999L21.15 5.99991C21.15 5.50286 20.7471 5.09991 20.25 5.09991C19.753 5.09991 19.35 5.50286 19.35 5.99991L19.35 8.41923L17.3963 6.58339C16.4846 5.67467 15.3582 5.01065 14.1215 4.65293C12.8801 4.29387 11.568 4.25511 10.3076 4.5403C9.04724 4.82548 7.87963 5.4253 6.91375 6.28378C5.94787 7.14226 5.2152 8.23144 4.7841 9.44967C4.61829 9.91825 4.86373 10.4325 5.33231 10.5983C5.80089 10.7642 6.31517 10.5187 6.48099 10.0501C6.81065 9.11855 7.37093 8.28566 8.10954 7.62917C8.84816 6.97268 9.74104 6.51399 10.7049 6.29591C11.6687 6.07783 12.6721 6.10747 13.6214 6.38205C14.5706 6.65663 15.4349 7.16721 16.1335 7.86614L16.1537 7.88579L17.9779 9.59991L15.75 9.5999C15.253 9.5999 14.85 10.0028 14.85 10.4999C14.85 10.997 15.253 11.3999 15.75 11.3999L20.25 11.3999C20.377 11.3999 20.4979 11.3736 20.6074 11.3261Z" fill="#292632"/>
</svg>
