<svg width="24" height="24" viewBox="0 0 24 24" fill="none" xmlns="http://www.w3.org/2000/svg">
<path d="M15.4517 3.2199C15.4244 3.19254 15.3942 3.1697 15.3623 3.15139C15.2258 3.05596 15.0598 3 14.8808 3C14.4157 3 14.0386 3.37794 14.0386 3.84416C14.0386 4.03171 14.0996 4.20497 14.2028 4.34509C14.2196 4.37111 14.2395 4.39568 14.2626 4.41827L14.2727 4.4282C14.2853 4.44138 14.2983 4.45414 14.3117 4.46648L16.227 6.3441H8.35469C5.40211 6.3441 3 8.75161 3 11.7108C3 12.66 3.24728 13.5522 3.68051 14.3266C3.89787 14.7151 4.11444 14.9444 4.50454 14.9444C4.97878 14.9444 5.36323 14.5591 5.36323 14.0837C5.36323 13.9016 5.30674 13.7326 5.21036 13.5935L5.20902 13.5912C4.8802 13.0409 4.69095 12.3976 4.69095 11.7108C4.69095 9.68609 6.3345 8.03886 8.35469 8.03886H16.227L14.2626 9.96466C14.2355 9.99118 14.2128 10.0204 14.1944 10.0516C14.0963 10.1896 14.0386 10.3584 14.0386 10.5408C14.0386 11.007 14.4157 11.3849 14.8808 11.3849C15.0677 11.3849 15.2403 11.324 15.38 11.2208C15.4054 11.2045 15.4295 11.1853 15.4517 11.163L19.1154 7.49106C19.2805 7.32558 19.2805 7.05731 19.1154 6.89186L15.4517 3.2199Z" fill="#292632"/>
<path d="M15.6453 17.6526C18.5979 17.6526 21 15.2451 21 12.2859C21 11.3367 20.7527 10.4444 20.3195 9.67011C20.1021 9.28163 19.8856 9.05234 19.4955 9.05234C19.0212 9.05234 18.6368 9.43764 18.6368 9.91295C18.6368 10.0951 18.6933 10.2641 18.7896 10.4032L18.791 10.4055C19.1198 10.9558 19.309 11.5991 19.309 12.2859C19.309 14.3106 17.6655 15.9578 15.6453 15.9578H7.77304L9.73743 14.032L9.74506 14.0243C9.92957 13.8695 10.0469 13.6369 10.0469 13.3768C10.0469 12.9106 9.66981 12.5327 9.20464 12.5327C8.96678 12.5327 8.75194 12.6315 8.59878 12.7904C8.58114 12.8033 8.56426 12.8177 8.54834 12.8337L4.88461 16.5056C4.71953 16.6711 4.71953 16.9394 4.88461 17.1048L8.47775 20.706C8.63221 20.886 8.86111 21 9.11657 21C9.58174 21 9.95884 20.6221 9.95884 20.1558C9.95884 19.9839 9.90753 19.8239 9.81943 19.6905C9.79901 19.6499 9.77168 19.612 9.73743 19.5784L7.77304 17.6526H15.6453Z" fill="#292632"/>
</svg>
