<svg width="15" height="16" viewBox="0 0 15 16" fill="none" xmlns="http://www.w3.org/2000/svg">
<path d="M9.59009 3.26L10.8401 1.67L9.88009 0H4.62009L3.62009 1.67L7.25009 6.25L8.61009 4.51C9.80675 4.6983 10.9025 5.29159 11.7143 6.19073C12.5261 7.08988 13.0047 8.24039 13.0701 9.45C13.0701 12.26 10.4601 14.55 7.25009 14.55C4.04009 14.55 1.43009 12.26 1.43009 9.45C1.48408 8.32153 1.90341 7.24118 2.6249 6.37179C3.34638 5.5024 4.33091 4.89109 5.43009 4.63L4.48009 3.42C3.21194 3.84609 2.10379 4.64862 1.30339 5.72059C0.50298 6.79256 0.0483457 8.08305 9.12574e-05 9.42C-0.0199087 13.06 3.25009 16 7.25009 16C11.2501 16 14.5201 13.06 14.5201 9.45C14.4698 8.02624 13.9636 6.65627 13.076 5.54188C12.1885 4.42749 10.9665 3.62759 9.59009 3.26ZM7.25009 5.09L7.98009 0.73L9.43009 2.18L7.25009 5.09Z" fill="white"/>
</svg>
