<svg width="24" height="24" viewBox="0 0 24 24" fill="none" xmlns="http://www.w3.org/2000/svg">
<path d="M21.2497 2.75043C16.0132 2.99512 11.2008 5.70311 8.28077 10.0587C6.32319 9.71614 4.31667 10.2055 2.75061 11.4127V12.5873C7.53036 12.5873 11.3966 16.4535 11.4129 21.2169V21.2332H12.5874C13.7946 19.6672 14.3003 17.6607 13.9414 15.7031C18.297 12.7993 21.005 7.98695 21.2497 2.75043ZM12.9953 8.93311C12.9953 7.79119 13.9251 6.86134 15.067 6.86134C16.209 6.86134 17.1388 7.79119 17.1388 8.93311C17.1388 10.075 16.209 11.0049 15.067 11.0049C13.9251 11.0049 12.9953 10.075 12.9953 8.93311Z" fill="#292632"/>
<path d="M5.67091 16.7797C4.46374 16.4371 3.19131 17.1223 2.84874 18.3458C2.78348 18.5415 2.76717 18.7536 2.76717 18.9657V21.2495H5.05101C5.24677 21.2495 5.42621 21.2332 5.60566 21.1843C6.82915 20.8743 7.56324 19.6345 7.25329 18.411C7.04122 17.6117 6.43763 17.0081 5.67091 16.7797Z" fill="#292632"/>
</svg>
