<svg width="24" height="24" viewBox="0 0 24 24" fill="none" xmlns="http://www.w3.org/2000/svg">
<path d="M12.3535 3.74928C10.5646 3.49554 8.74164 3.83009 7.15941 4.70252C5.57717 5.57495 4.32135 6.93799 3.58118 8.58624C2.84101 10.2345 2.6566 12.0787 3.05572 13.8408C3.45485 15.603 4.4159 17.1878 5.79404 18.3562C7.17218 19.5247 8.89276 20.2136 10.6965 20.3191C12.5002 20.4246 14.2894 19.941 15.7944 18.9413C17.2994 17.9415 18.4387 16.4796 19.0405 14.776C19.2187 14.2717 18.9543 13.7185 18.4501 13.5404C17.9458 13.3622 17.3926 13.6266 17.2145 14.1308C16.7525 15.4385 15.878 16.5607 14.7227 17.3281C13.5675 18.0956 12.1941 18.4667 10.8096 18.3857C9.42505 18.3047 8.10434 17.7759 7.04647 16.879C5.98861 15.9821 5.25091 14.7657 4.94454 13.413C4.63817 12.0604 4.77973 10.6448 5.34788 9.3796C5.91604 8.1144 6.88001 7.06813 8.09453 6.39846C9.30905 5.72878 10.7083 5.47198 12.0815 5.66675C13.4547 5.86153 14.7273 6.49732 15.7077 7.47832L15.7288 7.49879L17.7409 9.39351H15.2714C14.7366 9.39351 14.3031 9.82705 14.3031 10.3618C14.3031 10.8966 14.7366 11.3302 15.2714 11.3302H20.1814C20.331 11.3302 20.4726 11.2963 20.5991 11.2357C20.7042 11.1855 20.8019 11.1154 20.8865 11.0256C21.0661 10.8349 21.1533 10.5905 21.1498 10.3478V5.45185C21.1498 4.91706 20.7162 4.48352 20.1814 4.48352C19.6466 4.48352 19.2131 4.91706 19.2131 5.45185V8.1197L17.0669 6.09866C15.7911 4.8267 14.1374 4.00232 12.3535 3.74928Z" fill="#292632"/>
</svg>
