<svg width="24" height="24" viewBox="0 0 24 24" fill="none" xmlns="http://www.w3.org/2000/svg">
<path d="M16.8487 4.7077C15.2677 3.8337 13.4455 3.49719 11.6566 3.74888C9.87272 3.99986 8.21835 4.82221 6.94133 6.09246L4.78632 8.11742V5.44644C4.78632 4.9117 4.35283 4.47821 3.81809 4.47821C3.28335 4.47821 2.84985 4.9117 2.84985 5.44644V10.3559C2.84985 10.3566 2.84985 10.3574 2.84986 10.3582C2.84987 10.3663 2.84999 10.3743 2.85021 10.3823C2.85342 10.5018 2.87826 10.6158 2.92096 10.7207C2.95749 10.8106 3.00813 10.8962 3.073 10.9742C3.09037 10.9951 3.1086 11.0153 3.12764 11.0346C3.21632 11.1249 3.31858 11.1942 3.42811 11.2423C3.54742 11.2949 3.67935 11.3241 3.81809 11.3241H8.72749C9.26223 11.3241 9.69573 10.8906 9.69573 10.3559C9.69573 9.82111 9.26223 9.38762 8.72749 9.38762H6.26244L8.27772 7.49395L8.29876 7.47357C9.28011 6.49388 10.5533 5.85965 11.9264 5.66646C13.2996 5.47327 14.6983 5.73157 15.9119 6.40245C17.1254 7.07332 18.0881 8.12043 18.6548 9.386C19.2216 10.6516 19.3616 12.067 19.0539 13.4191C18.7463 14.7712 18.0075 15.9867 16.9489 16.8824C15.8904 17.7782 14.5694 18.3056 13.185 18.3853C11.8006 18.4649 10.4279 18.0925 9.27354 17.3242C8.11921 16.5558 7.24586 15.4331 6.78507 14.1253C6.60738 13.6209 6.05447 13.3561 5.55012 13.5338C5.04576 13.7115 4.78095 14.2644 4.95864 14.7688C5.55894 16.4726 6.69671 17.9352 8.20053 18.9362C9.70436 19.9372 11.4928 20.4223 13.2963 20.3185C15.0998 20.2147 16.8207 19.5276 18.1998 18.3607C19.5788 17.1938 20.5413 15.6103 20.9421 13.8488C21.343 12.0874 21.1605 10.2433 20.4222 8.59458C19.6839 6.94584 18.4298 5.5817 16.8487 4.7077Z" fill="#292632"/>
</svg>
