<svg width="20" height="19" viewBox="0 0 20 19" fill="none" xmlns="http://www.w3.org/2000/svg">
<path d="M15.1918 0C14.0346 0 13.0975 0.937078 13.0975 2.0943C13.0975 3.25152 14.0346 4.1886 15.1918 4.1886C16.349 4.1886 17.2861 3.25152 17.2861 2.0943C17.2861 0.937078 16.349 0 15.1918 0V0ZM8.68297 2.32695C8.32305 2.32145 8.00729 2.54144 7.79325 2.71712L4.91878 5.0783C4.528 5.39926 4.4747 5.97412 4.79565 6.36489C5.11646 6.75567 5.68459 6.81585 6.07555 6.49489L8.553 4.45546L10.4624 4.85234L7.47169 9.47183L5.36366 12.141C3.87187 12.0817 2.4956 11.904 1.20252 11.785C0.594188 11.729 0.0609052 12.1689 0.00482363 12.7774C-0.0512423 13.3859 0.38766 13.9409 0.997201 13.982C2.51344 14.084 4.03221 14.1812 5.54864 14.2831C5.93927 14.3094 6.22647 14.3026 6.49992 14.0915C6.61954 13.9991 6.70646 13.8827 6.80102 13.7631C7.35574 13.0615 8.46403 11.6552 8.46403 11.6552L11.4823 13.7836L9.8877 16.8565C9.61547 17.3799 9.81605 18.0215 10.3394 18.2937C10.8628 18.5659 11.5046 18.3654 11.7767 17.842L13.7545 14.0367C13.8247 13.9018 13.8505 13.7533 13.871 13.6123C13.9278 13.221 13.7908 12.8185 13.4465 12.5719L10.5994 10.5325L12.9468 6.93939L13.9939 8.80103C14.1491 9.07571 14.4349 9.27155 14.774 9.28011C16.1073 9.31341 18.7709 9.3759 18.7709 9.3759C19.2764 9.38858 19.6959 8.99169 19.7086 8.48618C19.7213 7.98066 19.3244 7.56118 18.8189 7.54847L15.6911 7.47316L14.1033 4.65336C13.8423 4.18957 13.0686 3.21964 12.3923 3.07924L8.84059 2.34045C8.78773 2.32945 8.73457 2.32746 8.68324 2.3267L8.68297 2.32695Z" fill="white"/>
</svg>
