<svg width="24" height="24" viewBox="0 0 24 24" fill="none" xmlns="http://www.w3.org/2000/svg">
<path fill-rule="evenodd" clip-rule="evenodd" d="M11.1001 2.77502C6.50237 2.77502 2.77515 6.50225 2.77515 11.1C2.77515 15.6978 6.50237 19.425 11.1001 19.425C12.9934 19.425 14.739 18.793 16.1376 17.7285L19.3046 20.8954C19.7439 21.3348 20.4562 21.3348 20.8955 20.8954C21.3349 20.4561 21.3349 19.7438 20.8955 19.3044L17.7286 16.1375C18.7931 14.7389 19.4251 12.9933 19.4251 11.1C19.4251 6.50225 15.6979 2.77502 11.1001 2.77502ZM15.4868 15.3027C16.5326 14.2115 17.1751 12.7308 17.1751 11.1C17.1751 7.74489 14.4553 5.02502 11.1001 5.02502C7.74501 5.02502 5.02514 7.74489 5.02514 11.1C5.02514 14.4551 7.74501 17.175 11.1001 17.175C12.7309 17.175 14.2116 16.5324 15.3028 15.4867C15.3295 15.453 15.3584 15.4206 15.3896 15.3894C15.4207 15.3583 15.4532 15.3294 15.4868 15.3027Z" fill="#292632"/>
</svg>
