<svg width="21" height="15" viewBox="0 0 21 15" fill="none" xmlns="http://www.w3.org/2000/svg">
<path d="M20.197 6.66211C19.4646 5.85352 18.2341 5.49023 16.2009 5.49023C13.9919 5.49023 12.6794 5.90039 11.9353 6.82031C11.7067 7.10742 11.5427 7.42969 11.4372 7.80469C11.1267 7.74609 10.8103 7.7168 10.488 7.7168C10.1657 7.7168 9.84932 7.74609 9.53877 7.80469C9.4333 7.43555 9.26924 7.10742 9.04073 6.82031C8.30244 5.90039 6.98994 5.49023 4.78096 5.49023C2.75362 5.49023 1.51729 5.85352 0.784866 6.66211C-0.076462 7.61719 -0.0647434 9.02344 0.0641628 10.2773C0.321975 12.8145 1.92744 14.1035 4.83369 14.1035C6.2751 14.1035 7.2419 13.8398 7.97432 13.2422C8.70088 12.6504 9.16377 11.7598 9.47432 10.3535C9.56807 9.91992 9.62666 9.52734 9.6501 9.1582C9.92549 9.09961 10.2009 9.06445 10.488 9.06445C10.7692 9.06445 11.0505 9.09375 11.32 9.1582C11.3435 9.52148 11.4021 9.91992 11.4958 10.3535C11.8064 11.7598 12.2692 12.6504 12.9958 13.2422C13.7282 13.8398 14.7009 14.1035 16.1364 14.1035C19.0427 14.1035 20.6481 12.8145 20.906 10.2773C21.0466 9.02344 21.0583 7.61719 20.197 6.66211ZM8.16768 10.0605C7.92744 11.1504 7.61104 11.8066 7.13643 12.1934C6.66182 12.5801 5.95284 12.7559 4.84541 12.7559C2.63057 12.7559 1.60518 11.9707 1.41182 10.1367C1.27705 8.80078 1.39424 8.00391 1.79268 7.56445C2.23799 7.06641 3.19307 6.83789 4.78682 6.83789C6.50362 6.83789 7.55244 7.10742 8.00362 7.66406C8.36104 8.12695 8.41963 8.90625 8.16768 10.0605ZM19.5759 10.1367C19.3884 11.9707 18.363 12.7559 16.1423 12.7559C15.0349 12.7559 14.3259 12.5859 13.8513 12.1934C13.3767 11.8066 13.0544 11.1504 12.82 10.0605C12.5681 8.90625 12.6208 8.12109 12.9899 7.66406C13.4411 7.10742 14.4899 6.83789 16.2067 6.83789C17.8005 6.83789 18.7497 7.06641 19.2009 7.56445C19.5935 8.00977 19.7106 8.80078 19.5759 10.1367Z" fill="white"/>
<path d="M4.49966 4.14845C8.41372 3.75002 12.5739 3.75002 16.4938 4.15431C16.5172 4.15431 16.5407 4.16017 16.5641 4.16017C16.9039 4.16017 17.1969 3.90236 17.2321 3.55666C17.2731 3.18752 17.0036 2.85353 16.6286 2.81837C12.6207 2.40822 8.36685 2.40236 4.3649 2.81252C3.99576 2.84767 3.72623 3.18166 3.76138 3.5508C3.79654 3.91408 4.12466 4.18361 4.49966 4.14845Z" fill="white"/>
<path d="M7.28287 1.50002C9.38052 1.28908 11.6129 1.28909 13.7106 1.50588C13.734 1.50588 13.7575 1.51174 13.7809 1.51174C14.1207 1.51174 14.4137 1.25393 14.4489 0.908228C14.4899 0.539089 14.2204 0.205106 13.8454 0.16995C11.6598 -0.0527052 9.33364 -0.0585645 7.1481 0.164091C6.77896 0.199247 6.50943 0.533229 6.54459 0.902368C6.57974 1.27151 6.90787 1.54104 7.28287 1.50002Z" fill="white"/>
<path d="M3.93701 10.1016C3.69092 10.0781 3.4917 9.86719 3.4917 9.62109V9.61523C3.4917 8.95312 4.09521 8.41406 4.83936 8.41406C5.5835 8.41406 6.18701 8.95312 6.18701 9.61523V9.62109C6.18701 9.86719 5.98779 10.0781 5.7417 10.1016C5.44873 10.1309 5.14404 10.1484 4.83936 10.1484C4.53467 10.1484 4.23584 10.1309 3.93701 10.1016Z" fill="white"/>
<path d="M15.2456 10.1016C14.9995 10.0781 14.8003 9.86719 14.8003 9.62109V9.61523C14.8003 8.95312 15.4038 8.41406 16.1479 8.41406C16.8921 8.41406 17.4956 8.95312 17.4956 9.61523V9.62109C17.4956 9.86719 17.2964 10.0781 17.0503 10.1016C16.7573 10.1309 16.4526 10.1484 16.1479 10.1484C15.8433 10.1484 15.5444 10.1309 15.2456 10.1016Z" fill="white"/>
</svg>
