<svg width="25" height="13" viewBox="0 0 25 13" fill="none" xmlns="http://www.w3.org/2000/svg">
<path d="M10.3171 0.0537424C10.9627 0.0854249 11.4766 0.845877 11.8181 1.46585C11.9008 1.56639 11.9836 1.66738 12.0388 1.73441C12.238 1.90807 12.4104 2.0483 12.6433 2.19437C12.671 2.22749 12.7319 2.23336 12.7595 2.26663L12.8991 2.09573C13.0117 1.89043 13.3241 1.85886 13.4958 1.99905C13.7008 2.11169 13.7325 2.42304 13.5925 2.59476L13.486 2.73929C13.8075 2.92478 14.1567 3.14363 14.4782 3.32913L14.6247 3.09671C14.7373 2.8914 15.0496 2.85983 15.2214 3.00003C15.4007 3.09859 15.4469 3.34923 15.362 3.52542L15.2448 3.71292C15.6276 3.9044 15.9492 4.09014 16.3044 4.24808L16.4782 4.04886C16.5908 3.84355 16.9032 3.81198 17.0749 3.95218C17.2799 4.06483 17.3116 4.37618 17.1716 4.54788L17.1042 4.60355C17.7536 4.91354 18.2255 5.14399 18.3757 5.18948L18.6481 5.2471L23.3288 6.34964C24.8074 6.70916 25.0284 7.93494 24.9079 8.54105C24.7142 10.2211 22.325 11.287 20.6804 11.6836C17.2744 12.4037 8.0882 12.5323 1.24971 11.0664C0.160134 10.8371 -0.4216 9.51496 0.528028 8.00101C0.589365 7.04948 1.35782 3.26299 1.54365 1.98343C1.61281 1.58859 2.04306 1.28991 2.46553 1.39261C3.6165 1.62772 3.84731 2.11418 4.1335 2.66702C4.34266 3.05792 4.5956 3.63823 5.43623 3.56546C5.96534 3.52408 6.79493 3.5735 9.30244 2.24124C9.336 2.21362 9.36909 2.18593 9.3415 2.15238L9.20576 1.64456C9.01051 0.791793 9.644 -0.0112482 10.3171 0.0537424ZM1.17549 8.65042C0.871419 9.23864 0.754593 10.1224 1.42158 10.2491C8.47719 11.7051 17.235 11.5354 20.4851 10.8311C21.1484 10.6792 22.6833 10.1483 23.4948 9.42386C22.028 9.89941 19.8382 10.1808 19.1589 10.1768C9.14369 10.2563 3.97305 9.10692 1.17549 8.65042ZM10.2956 0.916047C10.1732 0.904184 10.0274 1.1376 10.0925 1.42191L10.2282 1.92874C10.3426 2.3413 10.1454 2.78588 9.75459 2.99515C8.6825 3.53988 6.76708 4.49723 5.50947 4.40628C4.0781 4.51466 3.62787 3.42027 3.41865 3.02933C3.18201 2.6052 3.07719 2.40991 2.44404 2.25589C2.01333 4.46897 1.53107 6.89354 1.44209 7.81155C4.63441 8.33719 9.59955 9.37394 19.1862 9.25296C19.8041 9.25108 22.7121 8.88417 24.1081 8.18558C24.1101 7.84605 23.9469 7.30473 23.1911 7.1387L18.1765 5.97366C18.1488 5.9401 18.1152 5.96719 18.0876 5.93363C18.0264 5.92769 17.404 5.65178 16.5769 5.26273L15.9704 6.09964C15.8578 6.30474 15.5464 6.33641 15.3747 6.19632C15.1694 6.08376 15.1378 5.77138 15.278 5.59964L15.7438 4.9346C15.3887 4.77666 15.0671 4.59093 14.6843 4.39945L14.1169 5.14749C14.0043 5.35278 13.6929 5.38432 13.5212 5.24417C13.3159 5.13162 13.2844 4.82022 13.4245 4.64847L13.9519 3.98929C13.6301 3.80369 13.2804 3.58407 12.9587 3.39847L12.3913 4.14652C12.2787 4.35165 11.9673 4.38331 11.7956 4.2432C11.5903 4.13063 11.5587 3.81826 11.6989 3.64652L12.2321 2.92679C12.1709 2.92086 12.1709 2.92032 12.1433 2.88675C11.9439 2.71304 11.7108 2.56729 11.5114 2.39359C11.3397 2.25341 11.202 2.0851 11.0974 1.88968C10.7619 1.20855 10.418 0.927943 10.2956 0.916047ZM2.94502 6.01077L4.43525 6.24808C4.67983 6.27186 4.81229 6.50055 4.78877 6.74515C4.76504 6.98996 4.53553 7.12239 4.29072 7.09866L2.80049 6.86136C2.58928 6.81001 2.3957 6.5755 2.44697 6.36429C2.4707 6.11948 2.70021 5.98705 2.94502 6.01077Z" fill="white"/>
<path d="M10.3171 0.0537424L10.3123 0.103566L10.3146 0.103682L10.3171 0.0537424ZM11.8181 1.46585L11.7735 1.49039L11.7795 1.49763L11.8181 1.46585ZM12.0388 1.73441L11.9996 1.76662L12.0059 1.7721L12.0388 1.73441ZM12.6433 2.19437L12.6816 2.16225L12.6765 2.1562L12.6698 2.15201L12.6433 2.19437ZM12.7595 2.26663L12.721 2.29854L12.7597 2.34532L12.7982 2.29827L12.7595 2.26663ZM12.8991 2.09573L12.9385 2.12791L12.943 2.11977L12.8991 2.09573ZM13.4958 1.99905L13.4636 2.03844L13.4717 2.04288L13.4958 1.99905ZM13.5925 2.59476L13.5537 2.56313L13.5522 2.56511L13.5925 2.59476ZM13.486 2.73929L13.4458 2.70964L13.4126 2.75466L13.4611 2.7826L13.486 2.73929ZM14.4782 3.32913L14.4532 3.37244L14.4949 3.39647L14.5205 3.35579L14.4782 3.32913ZM14.6247 3.09671L14.6671 3.12342L14.6686 3.12075L14.6247 3.09671ZM15.2214 3.00003L15.1892 3.03942L15.1973 3.04385L15.2214 3.00003ZM15.362 3.52542L15.4047 3.55208L15.4071 3.54712L15.362 3.52542ZM15.2448 3.71292L15.2024 3.68642L15.1733 3.73304L15.2225 3.75764L15.2448 3.71292ZM16.3044 4.24808L16.2841 4.29377L16.3178 4.30876L16.3421 4.28095L16.3044 4.24808ZM16.4782 4.04886L16.5168 4.08251L16.5221 4.0729L16.4782 4.04886ZM17.0749 3.95218L17.0428 3.99156L17.0508 3.996L17.0749 3.95218ZM17.1716 4.54788L17.2041 4.58719L17.2103 4.57948L17.1716 4.54788ZM17.1042 4.60355L17.0724 4.565L17.0119 4.61491L17.0827 4.64867L17.1042 4.60355ZM18.3757 5.18948L18.3611 5.23751L18.3653 5.2384L18.3757 5.18948ZM18.6481 5.2471L18.6596 5.19842L18.6585 5.19818L18.6481 5.2471ZM23.3288 6.34964L23.3406 6.30105L23.3403 6.30097L23.3288 6.34964ZM24.9079 8.54105L24.8587 8.53127L24.8582 8.53532L24.9079 8.54105ZM20.6804 11.6836L20.6907 11.7326L20.6921 11.7322L20.6804 11.6836ZM1.24971 11.0664L1.26019 11.0175L1.26 11.0175L1.24971 11.0664ZM0.528028 8.00101L0.570385 8.02758L0.57711 8.01685L0.577924 8.00422L0.528028 8.00101ZM1.54365 1.98343L1.49438 1.9748L1.49417 1.97624L1.54365 1.98343ZM2.46553 1.39261L2.45371 1.44123L2.45552 1.4416L2.46553 1.39261ZM4.1335 2.66702L4.08909 2.69001L4.08941 2.69061L4.1335 2.66702ZM5.43623 3.56546L5.43233 3.51561L5.43192 3.51565L5.43623 3.56546ZM9.30244 2.24124L9.32638 2.2863L9.33422 2.27984L9.30244 2.24124ZM9.3415 2.15238L9.2932 2.16529L9.296 2.17576L9.30288 2.18413L9.3415 2.15238ZM9.20576 1.64456L9.15699 1.65573L9.15746 1.65747L9.20576 1.64456ZM1.17549 8.65042L1.18354 8.60108L1.14773 8.59523L1.13107 8.62746L1.17549 8.65042ZM1.42158 10.2491L1.43169 10.2001L1.43091 10.1999L1.42158 10.2491ZM20.4851 10.8311L20.4956 10.88L20.4962 10.8798L20.4851 10.8311ZM23.4948 9.42386L23.5281 9.46116L23.4794 9.3763L23.4948 9.42386ZM19.1589 10.1768L19.1592 10.1268L19.1585 10.1268L19.1589 10.1768ZM10.2956 0.916047L10.3004 0.866281L10.3004 0.86628L10.2956 0.916047ZM10.0925 1.42191L10.0437 1.43308L10.0442 1.43484L10.0925 1.42191ZM10.2282 1.92874L10.1799 1.94168L10.18 1.94211L10.2282 1.92874ZM9.75459 2.99515L9.77724 3.03973L9.77819 3.03923L9.75459 2.99515ZM5.50947 4.40628L5.51312 4.35586L5.5057 4.35642L5.50947 4.40628ZM3.41865 3.02933L3.46274 3.00573L3.46232 3.00497L3.41865 3.02933ZM2.44404 2.25589L2.45586 2.20731L2.40497 2.19493L2.39496 2.24634L2.44404 2.25589ZM1.44209 7.81155L1.39232 7.80673L1.38781 7.85329L1.43397 7.86089L1.44209 7.81155ZM19.1862 9.25296L19.1861 9.20296L19.1856 9.20296L19.1862 9.25296ZM24.1081 8.18558L24.1305 8.23029L24.1579 8.21656L24.1581 8.18587L24.1081 8.18558ZM23.1911 7.1387L23.1798 7.18741L23.1804 7.18754L23.1911 7.1387ZM18.1765 5.97366L18.1379 6.00544L18.1486 6.01853L18.1651 6.02237L18.1765 5.97366ZM18.0876 5.93363L18.1262 5.90185L18.113 5.88586L18.0924 5.88386L18.0876 5.93363ZM16.5769 5.26273L16.5981 5.21748L16.5607 5.19986L16.5364 5.23339L16.5769 5.26273ZM15.9704 6.09964L15.9296 6.07007L15.9266 6.07557L15.9704 6.09964ZM15.3747 6.19632L15.4069 6.15692L15.3987 6.15248L15.3747 6.19632ZM15.278 5.59964L15.3169 5.63135L15.319 5.62833L15.278 5.59964ZM15.7438 4.9346L15.7848 4.96329L15.8196 4.91358L15.7642 4.88892L15.7438 4.9346ZM14.6843 4.39945L14.7066 4.35473L14.6695 4.33616L14.6444 4.36923L14.6843 4.39945ZM14.1169 5.14749L14.0766 5.11695L14.0731 5.12345L14.1169 5.14749ZM13.5212 5.24417L13.5533 5.20478L13.5452 5.20033L13.5212 5.24417ZM13.4245 4.64847L13.4633 4.68008L13.4636 4.6797L13.4245 4.64847ZM13.9519 3.98929L13.9909 4.02052L14.0273 3.97507L13.9768 3.94598L13.9519 3.98929ZM12.9587 3.39847L12.9837 3.35516L12.9455 3.33313L12.9189 3.36825L12.9587 3.39847ZM12.3913 4.14652L12.351 4.11597L12.3475 4.12245L12.3913 4.14652ZM11.7956 4.2432L11.8278 4.2038L11.8196 4.19935L11.7956 4.2432ZM11.6989 3.64652L11.7377 3.67817L11.7391 3.67628L11.6989 3.64652ZM12.2321 2.92679L12.2723 2.95655L12.3249 2.88555L12.237 2.87702L12.2321 2.92679ZM12.1433 2.88675L12.1824 2.85453L12.1761 2.84906L12.1433 2.88675ZM11.5114 2.39359L11.5443 2.35587L11.543 2.35485L11.5114 2.39359ZM11.0974 1.88968L11.0525 1.91179L11.0533 1.91328L11.0974 1.88968ZM2.94502 6.01077L2.9529 5.9613L2.94984 5.96101L2.94502 6.01077ZM4.43525 6.24808L4.42738 6.29755L4.43041 6.29784L4.43525 6.24808ZM4.78877 6.74515L4.83854 6.74997L4.83854 6.74993L4.78877 6.74515ZM4.29072 7.09866L4.28285 7.14814L4.2859 7.14843L4.29072 7.09866ZM2.80049 6.86136L2.78864 6.9101L2.79263 6.91074L2.80049 6.86136ZM2.44697 6.36429L2.49605 6.3762L2.49674 6.36911L2.44697 6.36429ZM10.3171 0.0537424L10.3146 0.103682C10.6182 0.118578 10.8966 0.305375 11.145 0.573188C11.3926 0.840246 11.6042 1.18111 11.7743 1.48997L11.8181 1.46585L11.8619 1.44173C11.6905 1.13062 11.4743 0.781269 11.2183 0.505187C10.9629 0.229859 10.6616 0.0205892 10.3195 0.00380248L10.3171 0.0537424ZM11.8181 1.46585L11.7795 1.49763C11.8208 1.54787 11.8622 1.59823 11.9001 1.64443C11.938 1.69061 11.9726 1.73264 12.0002 1.76619L12.0388 1.73441L12.0774 1.70263C12.0498 1.66914 12.0153 1.62717 11.9774 1.58097C11.9395 1.53477 11.8981 1.48437 11.8567 1.43407L11.8181 1.46585ZM12.0388 1.73441L12.0059 1.7721C12.2061 1.94653 12.3807 2.08867 12.6167 2.23672L12.6433 2.19437L12.6698 2.15201C12.4402 2.00793 12.27 1.86961 12.0716 1.69671L12.0388 1.73441ZM12.6433 2.19437L12.6049 2.22648C12.6278 2.25373 12.6621 2.26774 12.6813 2.27619C12.7063 2.28724 12.7162 2.29273 12.721 2.29854L12.7595 2.26663L12.798 2.23473C12.7752 2.20725 12.7408 2.19318 12.7216 2.1847C12.6965 2.17361 12.6865 2.16813 12.6816 2.16225L12.6433 2.19437ZM12.7595 2.26663L12.7982 2.29827L12.9378 2.12737L12.8991 2.09573L12.8604 2.0641L12.7208 2.235L12.7595 2.26663ZM12.8991 2.09573L12.943 2.11977C12.99 2.03403 13.0804 1.98171 13.1823 1.96734C13.2844 1.95292 13.3908 1.97791 13.4642 2.03779L13.4958 1.99905L13.5274 1.96032C13.429 1.88001 13.2934 1.85067 13.1683 1.86832C13.0429 1.88601 12.9208 1.95213 12.8553 2.0717L12.8991 2.09573ZM13.4958 1.99905L13.4717 2.04288C13.5574 2.08994 13.6097 2.18017 13.624 2.28175C13.6384 2.38366 13.6135 2.4898 13.5537 2.56316L13.5925 2.59476L13.6312 2.62635C13.7114 2.528 13.7407 2.39261 13.723 2.26775C13.7053 2.14257 13.6392 2.0208 13.5199 1.95523L13.4958 1.99905ZM13.5925 2.59476L13.5522 2.56511L13.4458 2.70964L13.486 2.73929L13.5263 2.76894L13.6327 2.62441L13.5925 2.59476ZM13.486 2.73929L13.4611 2.7826C13.6213 2.87506 13.7886 2.97589 13.9563 3.07703C14.1239 3.17806 14.292 3.27941 14.4532 3.37244L14.4782 3.32913L14.5032 3.28582C14.3429 3.19336 14.1757 3.09253 14.0079 2.99139C13.8404 2.89035 13.6723 2.78901 13.511 2.69598L13.486 2.73929ZM14.4782 3.32913L14.5205 3.35579L14.667 3.12337L14.6247 3.09671L14.5824 3.07005L14.4359 3.30247L14.4782 3.32913ZM14.6247 3.09671L14.6686 3.12075C14.7156 3.03501 14.806 2.98269 14.9078 2.96832C15.01 2.9539 15.1164 2.97888 15.1898 3.03876L15.2214 3.00003L15.253 2.9613C15.1546 2.88098 15.019 2.85165 14.8939 2.8693C14.7685 2.88699 14.6464 2.95311 14.5809 3.07267L14.6247 3.09671ZM15.2214 3.00003L15.1973 3.04385C15.2723 3.08504 15.3214 3.1591 15.3422 3.24531C15.363 3.33182 15.3541 3.42665 15.317 3.50372L15.362 3.52542L15.4071 3.54712C15.4548 3.44799 15.4653 3.32942 15.4394 3.22191C15.4134 3.11412 15.3499 3.01358 15.2455 2.95621L15.2214 3.00003ZM15.362 3.52542L15.3196 3.49892L15.2024 3.68642L15.2448 3.71292L15.2872 3.73942L15.4044 3.55192L15.362 3.52542ZM15.2448 3.71292L15.2225 3.75764C15.6015 3.94722 15.9279 4.13539 16.2841 4.29377L16.3044 4.24808L16.3247 4.20239C15.9705 4.04489 15.6538 3.86158 15.2672 3.6682L15.2448 3.71292ZM16.3044 4.24808L16.3421 4.28095L16.5159 4.08173L16.4782 4.04886L16.4405 4.01599L16.2667 4.21521L16.3044 4.24808ZM16.4782 4.04886L16.5221 4.0729C16.5691 3.98715 16.6595 3.93483 16.7614 3.92046C16.8635 3.90605 16.9699 3.93103 17.0433 3.99091L17.0749 3.95218L17.1065 3.91345C17.0081 3.83313 16.8725 3.8038 16.7474 3.82144C16.622 3.83914 16.4999 3.90526 16.4344 4.02482L16.4782 4.04886ZM17.0749 3.95218L17.0508 3.996C17.1365 4.04307 17.1887 4.13331 17.2031 4.23489C17.2175 4.33679 17.1926 4.44293 17.1328 4.51629L17.1716 4.54788L17.2103 4.57948C17.2905 4.48113 17.3198 4.34574 17.3021 4.22088C17.2844 4.0957 17.2183 3.97394 17.099 3.90836L17.0749 3.95218ZM17.1716 4.54788L17.1397 4.50934L17.0724 4.565L17.1042 4.60355L17.136 4.6421L17.2034 4.58643L17.1716 4.54788ZM17.1042 4.60355L17.0827 4.64867C17.4071 4.80353 17.6878 4.93883 17.906 5.04099C18.1226 5.14241 18.2819 5.2133 18.3612 5.23734L18.3757 5.18948L18.3902 5.14163C18.3194 5.12017 18.1676 5.05309 17.9484 4.95042C17.7306 4.84848 17.4507 4.71356 17.1257 4.55842L17.1042 4.60355ZM18.3757 5.18948L18.3653 5.2384L18.6378 5.29602L18.6481 5.2471L18.6585 5.19818L18.386 5.14057L18.3757 5.18948ZM18.6481 5.2471L18.6367 5.29577L23.3173 6.39831L23.3288 6.34964L23.3403 6.30097L18.6596 5.19843L18.6481 5.2471ZM23.3288 6.34964L23.317 6.39823C24.0427 6.57469 24.4556 6.96205 24.6738 7.37618C24.893 7.7923 24.9171 8.23846 24.8589 8.5313L24.9079 8.54105L24.957 8.5508C25.0192 8.23752 24.9931 7.76774 24.7623 7.32957C24.5304 6.88941 24.0935 6.48412 23.3406 6.30106L23.3288 6.34964ZM24.9079 8.54105L24.8582 8.53532C24.764 9.35268 24.1342 10.0281 23.3114 10.5515C22.4902 11.0738 21.4873 11.4376 20.6686 11.635L20.6804 11.6836L20.6921 11.7322C21.5181 11.533 22.5321 11.1656 23.3651 10.6358C24.1964 10.1071 24.8581 9.4095 24.9576 8.54677L24.9079 8.54105ZM20.6804 11.6836L20.67 11.6347C18.9726 11.9936 15.829 12.2058 12.2531 12.1448C8.67798 12.0837 4.67525 11.7496 1.26019 11.0175L1.24971 11.0664L1.23923 11.1153C4.66265 11.8492 8.67227 12.1836 12.2514 12.2447C15.8297 12.3058 18.9822 12.0937 20.6907 11.7325L20.6804 11.6836ZM1.24971 11.0664L1.26 11.0175C0.733604 10.9067 0.329922 10.5325 0.172097 10.0012C0.0141399 9.4695 0.101396 8.77527 0.570385 8.02758L0.528028 8.00101L0.485671 7.97444C0.00503201 8.7407 -0.0916588 9.46452 0.0762374 10.0297C0.244265 10.5953 0.676237 10.9968 1.23941 11.1154L1.24971 11.0664ZM0.528028 8.00101L0.577924 8.00422C0.608356 7.53214 0.815025 6.3514 1.03835 5.12418C1.26118 3.89964 1.50005 2.63157 1.59313 1.99062L1.54365 1.98343L1.49417 1.97624C1.40143 2.61485 1.16315 3.8798 0.939961 5.10628C0.717262 6.33008 0.509037 7.51835 0.478131 7.99779L0.528028 8.00101ZM1.54365 1.98343L1.5929 1.99206C1.65711 1.62545 2.05955 1.34538 2.45372 1.44119L2.46553 1.39261L2.47734 1.34402C2.02656 1.23445 1.5685 1.55174 1.4944 1.9748L1.54365 1.98343ZM2.46553 1.39261L2.45552 1.4416C3.02492 1.55791 3.36105 1.73519 3.58981 1.94733C3.81964 2.16047 3.94518 2.412 4.08909 2.69001L4.1335 2.66702L4.1779 2.64404C4.03563 2.3692 3.90267 2.10109 3.6578 1.874C3.41186 1.64593 3.05711 1.46242 2.47553 1.34362L2.46553 1.39261ZM4.1335 2.66702L4.08941 2.69061C4.19225 2.88281 4.31189 3.13461 4.51361 3.32635C4.71864 3.52124 5.00621 3.65287 5.44054 3.61527L5.43623 3.56546L5.43192 3.51565C5.02561 3.55082 4.76641 3.42868 4.58251 3.25387C4.39532 3.07594 4.2839 2.84213 4.17758 2.64343L4.1335 2.66702ZM5.43623 3.56546L5.44013 3.61531C5.70283 3.59476 6.04799 3.59655 6.64054 3.43568C7.23224 3.27505 8.07009 2.95262 9.3259 2.2854L9.30244 2.24124L9.27898 2.19709C8.02728 2.86213 7.19658 3.18111 6.61434 3.33918C6.03294 3.49701 5.69875 3.49478 5.43233 3.51561L5.43623 3.56546ZM9.30244 2.24124L9.33422 2.27984C9.34894 2.26773 9.37313 2.24843 9.38741 2.22535C9.39535 2.21253 9.4024 2.19538 9.40173 2.1749C9.40105 2.15392 9.39247 2.13564 9.38013 2.12062L9.3415 2.15238L9.30288 2.18413C9.30433 2.18589 9.30196 2.18365 9.30178 2.17816C9.30162 2.17318 9.30347 2.17096 9.30239 2.17271C9.30113 2.17474 9.29819 2.17843 9.29218 2.18413C9.28627 2.18974 9.27926 2.19556 9.27066 2.20264L9.30244 2.24124ZM9.3415 2.15238L9.38981 2.13946L9.25407 1.63165L9.20576 1.64456L9.15746 1.65747L9.2932 2.16529L9.3415 2.15238ZM9.20576 1.64456L9.2545 1.6334C9.16031 1.22203 9.26606 0.822753 9.4762 0.534443C9.68685 0.245441 9.99783 0.0731484 10.3123 0.103511L10.3171 0.0537424L10.3219 0.00397383C9.96326 -0.0306542 9.62095 0.166079 9.39539 0.475542C9.16933 0.785697 9.05596 1.21433 9.15702 1.65572L9.20576 1.64456ZM1.17549 8.65042L1.13107 8.62746C0.976337 8.92679 0.867702 9.3037 0.884456 9.62544C0.892854 9.7867 0.932966 9.93759 1.01823 10.0575C1.10433 10.1786 1.23374 10.2643 1.41226 10.2982L1.42158 10.2491L1.43091 10.1999C1.27593 10.1705 1.16983 10.0982 1.09974 9.9996C1.02882 9.89984 0.992082 9.76927 0.984321 9.62024C0.968758 9.32136 1.07057 8.96227 1.21991 8.67338L1.17549 8.65042ZM1.42158 10.2491L1.41148 10.298C4.94321 11.0268 8.89986 11.3486 12.3797 11.4002C15.8586 11.4517 18.865 11.2333 20.4956 10.88L20.4851 10.8311L20.4745 10.7822C18.855 11.1332 15.8575 11.3517 12.3811 11.3002C8.90561 11.2487 4.95555 10.9273 1.43169 10.2001L1.42158 10.2491ZM20.4851 10.8311L20.4962 10.8798C20.8311 10.8031 21.3835 10.6315 21.954 10.3882C22.5239 10.1451 23.1163 9.82875 23.5281 9.46116L23.4948 9.42386L23.4615 9.38656C23.0618 9.74341 22.481 10.0547 21.9148 10.2962C21.3491 10.5374 20.8024 10.7071 20.4739 10.7823L20.4851 10.8311ZM23.4948 9.42386L23.4794 9.3763C22.7495 9.61294 21.8382 9.80168 21.0237 9.93078C20.2086 10.06 19.4946 10.1288 19.1592 10.1268L19.1589 10.1768L19.1586 10.2268C19.5025 10.2288 20.223 10.1589 21.0394 10.0295C21.8563 9.90006 22.7733 9.71033 23.5102 9.47142L23.4948 9.42386ZM19.1589 10.1768L19.1585 10.1268C9.1481 10.2062 3.98139 9.05762 1.18354 8.60108L1.17549 8.65042L1.16744 8.69977C3.96471 9.15622 9.13928 10.3063 19.1593 10.2268L19.1589 10.1768ZM10.2956 0.916047L10.3004 0.86628C10.2526 0.861646 10.2078 0.881378 10.1712 0.911544C10.1345 0.941882 10.1027 0.985291 10.0785 1.03657C10.03 1.13937 10.0088 1.28028 10.0437 1.43307L10.0925 1.42191L10.1412 1.41074C10.1111 1.27923 10.1302 1.16127 10.1689 1.07926C10.1884 1.03813 10.2119 1.00764 10.2349 0.988661C10.2581 0.969513 10.2774 0.964516 10.2908 0.965814L10.2956 0.916047ZM10.0925 1.42191L10.0442 1.43484L10.1799 1.94168L10.2282 1.92874L10.2765 1.91581L10.1408 1.40897L10.0925 1.42191ZM10.2282 1.92874L10.18 1.94211C10.2879 2.33102 10.1022 2.75229 9.73099 2.95107L9.75459 2.99515L9.77819 3.03923C10.1886 2.81947 10.3974 2.35159 10.2764 1.91538L10.2282 1.92874ZM9.75459 2.99515L9.73194 2.95057C9.19586 3.22296 8.45105 3.59739 7.68366 3.89242C6.91464 4.18808 6.13018 4.40104 5.51308 4.35641L5.50947 4.40628L5.50587 4.45615C6.14637 4.50247 6.94843 4.28223 7.71954 3.98576C8.49229 3.68868 9.24124 3.31207 9.77724 3.03972L9.75459 2.99515ZM5.50947 4.40628L5.5057 4.35642C4.80532 4.40945 4.34872 4.16886 4.04062 3.8692C3.72999 3.5671 3.56926 3.20479 3.46274 3.00574L3.41865 3.02933L3.37457 3.05292C3.47726 3.2448 3.64626 3.62516 3.9709 3.94089C4.29805 4.25907 4.78226 4.51149 5.51325 4.45614L5.50947 4.40628ZM3.41865 3.02933L3.46232 3.00497C3.34512 2.79492 3.2558 2.63187 3.11343 2.50411C2.96971 2.37513 2.77609 2.28521 2.45586 2.20731L2.44404 2.25589L2.43222 2.30447C2.74514 2.3806 2.9205 2.46533 3.04664 2.57853C3.17414 2.69295 3.25554 2.83961 3.37499 3.05369L3.41865 3.02933ZM2.44404 2.25589L2.39496 2.24634C1.96466 4.45733 1.4816 6.88559 1.39232 7.80673L1.44209 7.81155L1.49186 7.81638C1.58053 6.90149 2.06201 4.48061 2.49312 2.26544L2.44404 2.25589ZM1.44209 7.81155L1.43397 7.86089C4.62655 8.38657 9.59544 9.424 19.1869 9.30296L19.1862 9.25296L19.1856 9.20296C9.60367 9.32389 4.64226 8.28781 1.45021 7.76222L1.44209 7.81155ZM19.1862 9.25296L19.1864 9.30296C19.4998 9.302 20.3848 9.20916 21.3644 9.02972C22.3437 8.85033 23.4257 8.58298 24.1305 8.23029L24.1081 8.18558L24.0857 8.14086C23.3945 8.48676 22.3245 8.75217 21.3464 8.93135C20.3685 9.11048 19.4905 9.20203 19.1861 9.20296L19.1862 9.25296ZM24.1081 8.18558L24.1581 8.18587C24.1591 8.00866 24.1172 7.77783 23.9751 7.56896C23.8323 7.35893 23.591 7.17537 23.2018 7.08987L23.1911 7.1387L23.1804 7.18754C23.547 7.26806 23.7652 7.43818 23.8924 7.6252C24.0204 7.81337 24.0591 8.02297 24.0581 8.18528L24.1081 8.18558ZM23.1911 7.1387L23.2024 7.09L18.1878 5.92496L18.1765 5.97366L18.1651 6.02237L23.1798 7.18741L23.1911 7.1387ZM18.1765 5.97366L18.2151 5.94188C18.1874 5.90833 18.1533 5.90562 18.1373 5.90392C18.1227 5.90238 18.1262 5.90186 18.1262 5.90185L18.0876 5.93363L18.049 5.9654C18.0766 5.99896 18.1107 6.00167 18.1268 6.00337C18.1413 6.00491 18.1379 6.00543 18.1379 6.00544L18.1765 5.97366ZM18.0876 5.93363L18.0924 5.88386C18.0939 5.884 18.0919 5.88387 18.084 5.8815C18.0771 5.87943 18.0679 5.87631 18.0561 5.87204C18.0325 5.86351 18.0007 5.85103 17.961 5.83475C17.8818 5.80223 17.7729 5.75524 17.6397 5.69615C17.3735 5.57799 17.0115 5.41191 16.5981 5.21748L16.5769 5.26273L16.5556 5.30797C16.9694 5.50259 17.3321 5.669 17.5992 5.78755C17.7327 5.8468 17.8425 5.89422 17.9231 5.92726C17.9633 5.94376 17.9966 5.95685 18.022 5.96606C18.0347 5.97066 18.0459 5.97446 18.0552 5.97727C18.0636 5.97979 18.0737 5.98251 18.0828 5.98339L18.0876 5.93363ZM16.5769 5.26273L16.5364 5.23339L15.9299 6.0703L15.9704 6.09964L16.0109 6.12898L16.6173 5.29207L16.5769 5.26273ZM15.9704 6.09964L15.9266 6.07557C15.8795 6.16128 15.7893 6.21355 15.6877 6.22792C15.5858 6.24234 15.4797 6.21742 15.4063 6.15758L15.3747 6.19632L15.3431 6.23506C15.4415 6.3153 15.5768 6.3446 15.7017 6.32693C15.8269 6.30922 15.9487 6.24311 16.0142 6.12371L15.9704 6.09964ZM15.3747 6.19632L15.3987 6.15248C15.313 6.10547 15.2607 6.01505 15.2463 5.91319C15.2319 5.81101 15.2569 5.70462 15.3168 5.63126L15.278 5.59964L15.2393 5.56802C15.159 5.66641 15.1296 5.80207 15.1473 5.92716C15.165 6.05256 15.2311 6.17461 15.3507 6.24016L15.3747 6.19632ZM15.278 5.59964L15.319 5.62833L15.7848 4.96329L15.7438 4.9346L15.7029 4.90592L15.2371 5.57096L15.278 5.59964ZM15.7438 4.9346L15.7642 4.88892C15.41 4.73141 15.0932 4.54811 14.7066 4.35473L14.6843 4.39945L14.6619 4.44416C15.0409 4.63374 15.3674 4.82191 15.7235 4.98029L15.7438 4.9346ZM14.6843 4.39945L14.6444 4.36923L14.0771 5.11728L14.1169 5.14749L14.1567 5.17771L14.7241 4.42966L14.6843 4.39945ZM14.1169 5.14749L14.0731 5.12345C14.026 5.20923 13.9358 5.26151 13.8342 5.27586C13.7324 5.29026 13.6262 5.26531 13.5528 5.20543L13.5212 5.24417L13.4896 5.28291C13.5879 5.36318 13.7234 5.39253 13.8482 5.37488C13.9734 5.35718 14.0952 5.29104 14.1607 5.17153L14.1169 5.14749ZM13.5212 5.24417L13.5452 5.20033C13.4595 5.1533 13.4072 5.06309 13.3928 4.96152C13.3784 4.85963 13.4034 4.75347 13.4633 4.68008L13.4245 4.64847L13.3858 4.61686C13.3055 4.71522 13.2762 4.85064 13.2938 4.97552C13.3115 5.10073 13.3776 5.22249 13.4972 5.28801L13.5212 5.24417ZM13.4245 4.64847L13.4636 4.6797L13.9909 4.02052L13.9519 3.98929L13.9128 3.95805L13.3855 4.61723L13.4245 4.64847ZM13.9519 3.98929L13.9768 3.94598C13.8165 3.85347 13.6491 3.75243 13.4811 3.65108C13.3133 3.54982 13.145 3.44825 12.9837 3.35516L12.9587 3.39847L12.9337 3.44178C13.0941 3.53429 13.2615 3.63533 13.4294 3.73669C13.5972 3.83794 13.7655 3.93951 13.9269 4.0326L13.9519 3.98929ZM12.9587 3.39847L12.9189 3.36825L12.3515 4.1163L12.3913 4.14652L12.4311 4.17673L12.9985 3.42868L12.9587 3.39847ZM12.3913 4.14652L12.3475 4.12245C12.3004 4.20817 12.2102 4.26045 12.1086 4.27482C12.0067 4.28924 11.9006 4.26432 11.8272 4.20446L11.7956 4.2432L11.764 4.28193C11.8623 4.36219 11.9977 4.3915 12.1226 4.37383C12.2478 4.35612 12.3696 4.29 12.4351 4.17058L12.3913 4.14652ZM11.7956 4.2432L11.8196 4.19935C11.7339 4.15234 11.6816 4.06192 11.6672 3.96006C11.6528 3.85788 11.6778 3.75149 11.7377 3.67813L11.6989 3.64652L11.6602 3.6149C11.5799 3.71328 11.5505 3.84895 11.5682 3.97403C11.5859 4.09943 11.652 4.22148 11.7716 4.28704L11.7956 4.2432ZM11.6989 3.64652L11.7391 3.67628L12.2723 2.95655L12.2321 2.92679L12.192 2.89703L11.6588 3.61675L11.6989 3.64652ZM12.2321 2.92679L12.237 2.87702C12.2212 2.8755 12.2113 2.87449 12.204 2.87335C12.1969 2.87223 12.1954 2.87143 12.1959 2.87165C12.1971 2.87223 12.1974 2.87287 12.1956 2.87104C12.1928 2.86826 12.1894 2.86413 12.1819 2.85497L12.1433 2.88675L12.1047 2.91853C12.1159 2.93222 12.1305 2.95172 12.1543 2.96262C12.1659 2.9679 12.1777 2.97045 12.1886 2.97215C12.1994 2.97383 12.2124 2.97512 12.2273 2.97656L12.2321 2.92679ZM12.1433 2.88675L12.1761 2.84906C12.0747 2.76065 11.9649 2.67959 11.8571 2.59995C11.7486 2.51987 11.6422 2.44119 11.5443 2.35589L11.5114 2.39359L11.4786 2.43128C11.58 2.51969 11.6898 2.60074 11.7976 2.68038C11.9061 2.76046 12.0125 2.83914 12.1104 2.92444L12.1433 2.88675ZM11.5114 2.39359L11.543 2.35485C11.3765 2.21892 11.243 2.05578 11.1414 1.86608L11.0974 1.88968L11.0533 1.91328C11.161 2.11443 11.3029 2.28791 11.4798 2.43232L11.5114 2.39359ZM11.0974 1.88968L11.1422 1.86759C10.9728 1.52354 10.8004 1.27901 10.6535 1.11818C10.5801 1.03782 10.5125 0.977743 10.4542 0.936569C10.3976 0.8966 10.3443 0.870548 10.3004 0.866281L10.2956 0.916047L10.2908 0.965813C10.3081 0.967494 10.3437 0.980979 10.3965 1.01825C10.4476 1.05432 10.5099 1.1092 10.5797 1.18562C10.7192 1.33835 10.8865 1.57468 11.0525 1.91177L11.0974 1.88968ZM2.94502 6.01077L2.93716 6.06015L4.42739 6.29746L4.43525 6.24808L4.44312 6.1987L2.95288 5.9614L2.94502 6.01077ZM4.43525 6.24808L4.43041 6.29784C4.63872 6.3181 4.76081 6.51351 4.739 6.74036L4.78877 6.74515L4.83854 6.74993C4.86377 6.4876 4.72094 6.22562 4.44009 6.19831L4.43525 6.24808ZM4.78877 6.74515L4.739 6.74032C4.7188 6.94876 4.5227 7.07091 4.29555 7.0489L4.29072 7.09866L4.2859 7.14843C4.54836 7.17387 4.81128 7.03116 4.83854 6.74997L4.78877 6.74515ZM4.29072 7.09866L4.29859 7.04929L2.80835 6.81198L2.80049 6.86136L2.79263 6.91074L4.28286 7.14804L4.29072 7.09866ZM2.80049 6.86136L2.8123 6.81278C2.71939 6.79018 2.62769 6.7262 2.56534 6.64283C2.50293 6.55937 2.47446 6.463 2.49556 6.37608L2.44697 6.36429L2.39838 6.35249C2.36821 6.47679 2.4109 6.60328 2.48526 6.70272C2.55969 6.80224 2.67038 6.88118 2.78868 6.90994L2.80049 6.86136ZM2.44697 6.36429L2.49674 6.36911C2.51694 6.16068 2.71305 6.03852 2.9402 6.06054L2.94502 6.01077L2.94984 5.96101C2.68738 5.93557 2.42446 6.07828 2.39721 6.35947L2.44697 6.36429Z" fill="white"/>
</svg>
