<svg width="24" height="24" viewBox="0 0 24 24" fill="none" xmlns="http://www.w3.org/2000/svg">
<path fill-rule="evenodd" clip-rule="evenodd" d="M3.75 3.375C3.33579 3.375 3 3.71079 3 4.125C3 4.53921 3.33579 4.875 3.75 4.875H6.13524L6.75896 7.99131C6.76229 8.01265 6.76651 8.03369 6.77159 8.0544L8.0245 14.3142C8.12747 14.8319 8.40918 15.2969 8.82036 15.6279C9.22965 15.9574 9.74128 16.1332 10.2665 16.125H17.5435C18.0687 16.1332 18.5803 15.9574 18.9896 15.6279C19.401 15.2968 19.6828 14.8316 19.7856 14.3136L20.9867 8.01549C21.0286 7.79593 20.9703 7.56914 20.8279 7.39691C20.6854 7.22469 20.4735 7.125 20.25 7.125H8.11532L7.48541 3.97781C7.41526 3.62729 7.10747 3.375 6.75 3.375H3.75ZM9.49563 14.0214L8.41555 8.625H19.3435L18.3139 14.0238C18.2792 14.1955 18.1855 14.3496 18.049 14.4595C17.9119 14.5699 17.7404 14.6285 17.5644 14.6251L17.55 14.625H10.26L10.2456 14.6251C10.0696 14.6285 9.89807 14.5699 9.76096 14.4595C9.62384 14.3491 9.52992 14.194 9.49563 14.0214Z" fill="#292632"/>
<path d="M8.25 19.125C8.25 18.2966 8.92157 17.625 9.75 17.625C10.5784 17.625 11.25 18.2966 11.25 19.125C11.25 19.9534 10.5784 20.625 9.75 20.625C8.92157 20.625 8.25 19.9534 8.25 19.125Z" fill="#292632"/>
<path d="M16.5 19.125C16.5 18.2966 17.1716 17.625 18 17.625C18.8284 17.625 19.5 18.2966 19.5 19.125C19.5 19.9534 18.8284 20.625 18 20.625C17.1716 20.625 16.5 19.9534 16.5 19.125Z" fill="#292632"/>
</svg>
