<svg width="21" height="23" viewBox="0 0 21 23" fill="none" xmlns="http://www.w3.org/2000/svg">
<path d="M9.80817 19.1H10.8422V18.11C12.4592 17.945 13.2622 16.999 13.2622 15.778C13.2622 14.271 11.9862 13.831 10.8422 13.545V12.027C11.3372 12.148 11.8212 12.379 12.2172 12.742L13.0862 11.576C12.4922 11.026 11.7332 10.696 10.8422 10.597V9.552H9.80817V10.575C8.32317 10.729 7.44317 11.675 7.44317 12.786C7.44317 14.282 8.67517 14.711 9.80817 14.986V16.691C9.07117 16.559 8.46617 16.174 8.05917 15.745L7.20117 16.966C7.80617 17.571 8.65317 18.011 9.80817 18.11V19.1ZM11.6672 15.932C11.6672 16.284 11.4032 16.603 10.8422 16.713V15.239C11.3262 15.393 11.6672 15.569 11.6672 15.932ZM9.04917 12.665C9.04917 12.291 9.32417 12.027 9.80817 11.961V13.292C9.35717 13.149 9.04917 12.984 9.04917 12.665Z" fill="white"/>
<path d="M15 6V4.75C15 3.49022 14.4996 2.28204 13.6088 1.39124C12.718 0.500445 11.5098 0 10.25 0C8.99022 0 7.78204 0.500445 6.89124 1.39124C6.00045 2.28204 5.5 3.49022 5.5 4.75V6H0V19.42C0 20.2369 0.324499 21.0203 0.902111 21.5979C1.47972 22.1755 2.26313 22.5 3.08 22.5H17.42C18.2369 22.5 19.0203 22.1755 19.5979 21.5979C20.1755 21.0203 20.5 20.2369 20.5 19.42V6H15ZM7 4.75C7 3.88805 7.34241 3.0614 7.9519 2.4519C8.5614 1.84241 9.38805 1.5 10.25 1.5C11.112 1.5 11.9386 1.84241 12.5481 2.4519C13.1576 3.0614 13.5 3.88805 13.5 4.75V6H7V4.75ZM19 19.42C19 19.839 18.8335 20.2409 18.5372 20.5372C18.2409 20.8335 17.839 21 17.42 21H3.08C2.66096 21 2.25908 20.8335 1.96277 20.5372C1.66646 20.2409 1.5 19.839 1.5 19.42V7.5H19V19.42Z" fill="white"/>
</svg>
