<svg width="24" height="24" viewBox="0 0 24 24" fill="none" xmlns="http://www.w3.org/2000/svg">
<path d="M9.54542 10.3637C9.54542 9.91178 9.17911 9.54547 8.72724 9.54547C8.27537 9.54547 7.90906 9.91178 7.90906 10.3637C7.90906 11.4486 8.34006 12.4892 9.10726 13.2564C9.87445 14.0236 10.915 14.4546 12 14.4546C13.0849 14.4546 14.1255 14.0236 14.8927 13.2564C15.6599 12.4892 16.0909 11.4486 16.0909 10.3637C16.0909 9.91178 15.7246 9.54547 15.2727 9.54547C14.8208 9.54547 14.4545 9.91178 14.4545 10.3637C14.4545 11.0146 14.1959 11.639 13.7356 12.0993C13.2753 12.5596 12.651 12.8182 12 12.8182C11.349 12.8182 10.7247 12.5596 10.2643 12.0993C9.80402 11.639 9.54542 11.0146 9.54542 10.3637Z" fill="#292632"/>
<path fill-rule="evenodd" clip-rule="evenodd" d="M6.4363 3.32727C6.59081 3.12125 6.83331 3 7.09084 3H16.909C17.1666 3 17.4091 3.12125 17.5636 3.32727L20.0134 6.59377C20.119 6.73157 20.1818 6.90391 20.1818 7.09091V18.5455C20.1818 19.1964 19.9231 19.8208 19.4628 20.2811C19.0025 20.7414 18.3782 21 17.7272 21H6.27266C5.62167 21 4.99735 20.7414 4.53703 20.2811C4.07672 19.8208 3.81812 19.1964 3.81812 18.5455V7.09092C3.81812 6.90392 3.88085 6.73156 3.98643 6.59377L6.4363 3.32727ZM16.4999 4.63636L17.7272 6.27274H6.27265L7.49993 4.63636H16.4999ZM5.45448 18.5455V7.9091H18.5454V18.5455C18.5454 18.7624 18.4592 18.9706 18.3057 19.124C18.1523 19.2774 17.9442 19.3636 17.7272 19.3636H6.27266C6.05567 19.3636 5.84756 19.2774 5.69412 19.124C5.54068 18.9706 5.45448 18.7625 5.45448 18.5455Z" fill="#292632"/>
</svg>
