<svg width="24" height="24" viewBox="0 0 24 24" fill="none" xmlns="http://www.w3.org/2000/svg">
<path fill-rule="evenodd" clip-rule="evenodd" d="M3.64282 5.25C3.64282 4.00736 4.65018 3 5.89282 3H9.10711C9.63966 3 10.0714 3.43173 10.0714 3.96429C10.0714 4.49684 9.63966 4.92857 9.10711 4.92857H5.89282C5.7153 4.92857 5.57139 5.07248 5.57139 5.25V18.75C5.57139 18.9276 5.7153 19.0714 5.89282 19.0714H9.10711C9.63966 19.0714 10.0714 19.5032 10.0714 20.0357C10.0714 20.5683 9.63966 21 9.10711 21H5.89282C4.65018 21 3.64282 19.9926 3.64282 18.75V5.25ZM17.0648 11.0357H9.74999C9.21743 11.0357 8.7857 11.4674 8.7857 12C8.7857 12.5326 9.21743 12.9643 9.74999 12.9643H17.0648L14.5324 15.4968C14.1558 15.8733 14.1558 16.4838 14.5324 16.8604C14.909 17.237 15.5195 17.237 15.8961 16.8604L20.0746 12.6819C20.4512 12.3053 20.4512 11.6947 20.0746 11.3181L15.8961 7.13958C15.5195 6.763 14.909 6.763 14.5324 7.13958C14.1558 7.51615 14.1558 8.12671 14.5324 8.50328L17.0648 11.0357Z" fill="#292632"/>
</svg>
