<svg width="24" height="24" viewBox="0 0 24 24" fill="none" xmlns="http://www.w3.org/2000/svg">
<path fill-rule="evenodd" clip-rule="evenodd" d="M3.64282 5.25C3.64282 4.00736 4.65018 3 5.89282 3H9.10711C9.63966 3 10.0714 3.43173 10.0714 3.96429C10.0714 4.49684 9.63966 4.92857 9.10711 4.92857H5.89282C5.7153 4.92857 5.57139 5.07248 5.57139 5.25V18.75C5.57139 18.9276 5.7153 19.0714 5.89282 19.0714H9.10711C9.63966 19.0714 10.0714 19.5032 10.0714 20.0357C10.0714 20.5683 9.63966 21 9.10711 21H5.89282C4.65018 21 3.64282 19.9926 3.64282 18.75V5.25ZM12.078 11.0357L14.6104 8.50328C14.9869 8.12671 14.9869 7.51615 14.6104 7.13958C14.2338 6.763 13.6233 6.763 13.2467 7.13958L9.06811 11.3181C8.69154 11.6947 8.69154 12.3053 9.06811 12.6819L13.2467 16.8604C13.6233 17.237 14.2338 17.237 14.6104 16.8604C14.9869 16.4838 14.9869 15.8733 14.6104 15.4968L12.078 12.9643H19.3928C19.9254 12.9643 20.3571 12.5326 20.3571 12C20.3571 11.4674 19.9254 11.0357 19.3928 11.0357H12.078Z" fill="#292632"/>
</svg>
