<svg width="24" height="24" viewBox="0 0 24 24" fill="none" xmlns="http://www.w3.org/2000/svg">
<path fill-rule="evenodd" clip-rule="evenodd" d="M11.7724 9.30801C11.632 9.49434 11.5213 9.66046 11.459 9.7734C11.0343 10.5433 10.6722 11.1614 10.3365 11.7345C9.7187 12.7891 9.19003 13.6916 8.52426 15.1075C8.19853 15.8003 7.76807 17.0956 7.57416 18.0574C7.57346 18.0608 7.57263 18.065 7.57168 18.0698C7.56347 18.1111 7.54647 18.1967 7.52743 18.2591C7.5273 18.2595 7.52714 18.2601 7.52694 18.2607C7.52229 18.2762 7.49819 18.3564 7.44747 18.444L7.44647 18.4458C7.42738 18.4788 7.33967 18.6307 7.15506 18.742C7.04325 18.8094 6.87461 18.8741 6.66717 18.8599C6.45865 18.8457 6.29834 18.7576 6.19404 18.6718C6.02298 18.5311 5.9586 18.3624 5.94478 18.3262L5.94403 18.3243C5.92107 18.2643 5.90989 18.2144 5.90505 18.191C5.89483 18.1418 5.89075 18.1004 5.8892 18.0838C5.88409 18.0294 5.88083 17.9174 5.87704 17.7871C5.87498 17.7161 5.87276 17.6397 5.86999 17.5643C5.81379 16.0303 5.82006 14.5109 5.82628 13.0052C5.82698 12.8353 5.82768 12.6655 5.82829 12.4959C5.82961 12.129 5.80787 10.8663 5.62726 9.76382C5.53534 9.2027 5.41478 8.76701 5.28228 8.51339C5.16404 8.58406 5.03539 8.69625 4.88893 8.86611C4.71571 9.067 4.56697 9.28596 4.3934 9.54149C4.33443 9.62829 4.27261 9.71931 4.20598 9.81528C3.60528 10.6805 3.15518 11.6297 2.70207 12.7042C2.5233 13.1281 2.03471 13.3269 1.61078 13.1481C1.18684 12.9693 0.9881 12.4808 1.16687 12.0568C1.63283 10.9519 2.1363 9.87485 2.83739 8.86507C2.88084 8.80249 2.92762 8.73348 2.97731 8.66018C3.1611 8.38908 3.38473 8.0592 3.62712 7.77809C3.94635 7.40787 4.38026 7.0178 4.97882 6.83923C5.3839 6.71838 5.78626 6.782 6.12205 6.99961C6.42208 7.19406 6.61962 7.47816 6.75233 7.72919C7.01724 8.23028 7.17234 8.88941 7.27146 9.49446C7.47428 10.7325 7.49583 12.103 7.4944 12.5019C7.49379 12.6717 7.49309 12.8411 7.4924 13.0102C7.49182 13.1496 7.49125 13.2887 7.49073 13.4277C7.99092 12.4427 8.45043 11.6572 8.94233 10.8164C9.27292 10.2512 9.61814 9.66112 10.0002 8.96861L10.6835 9.34558L10.0002 8.96861C10.1786 8.64522 10.4923 8.21679 10.8172 7.8395C11.1268 7.47996 11.54 7.05608 11.9343 6.83356C12.0596 6.76287 12.2373 6.70164 12.4495 6.7187C12.6634 6.73591 12.8318 6.82627 12.9472 6.92161C13.1448 7.08478 13.2252 7.29158 13.2534 7.3683C13.3225 7.55668 13.3505 7.7707 13.3652 7.91078C13.3819 8.07059 13.39 8.2321 13.3946 8.35333C13.3968 8.40996 13.3982 8.46062 13.3993 8.49888L13.3996 8.50835C13.4007 8.54576 13.4012 8.55791 13.4011 8.55792C13.4011 8.55792 13.401 8.55608 13.4007 8.55317C13.4418 9.09295 13.455 9.82424 13.4685 10.571C13.4728 10.8111 13.4772 11.0528 13.4825 11.2902C13.5005 12.0931 13.5294 12.8492 13.5945 13.4331C13.6273 13.3949 13.6612 13.3544 13.6959 13.3115C14.0374 12.8908 14.4034 12.3327 14.7909 11.7221C14.8587 11.6152 14.9273 11.5066 14.9964 11.3972C15.3101 10.9001 15.634 10.3871 15.9424 9.95259C16.1322 9.68515 16.3291 9.42881 16.5284 9.21088C16.7205 9.00088 16.9535 8.78323 17.2227 8.63794C17.5257 8.47434 17.9092 8.38879 18.3052 8.53502C18.6655 8.66804 18.885 8.93996 19.0123 9.1434C19.2399 9.50717 19.3849 10.0121 19.4897 10.3769C19.4961 10.3989 19.5023 10.4205 19.5083 10.4415C19.6107 10.7965 19.6899 11.0548 19.769 11.2311C20.2906 10.9635 20.7672 10.4274 21.1997 9.31928C21.367 8.89069 21.85 8.67886 22.2786 8.84615C22.7072 9.01344 22.919 9.4965 22.7517 9.92509C22.1652 11.4278 21.3554 12.4266 20.1473 12.883C19.8028 13.0132 19.4231 13.0233 19.0676 12.8514C18.7458 12.6957 18.5412 12.4368 18.4126 12.2262C18.1775 11.8412 18.029 11.3253 17.9214 10.9515C17.9167 10.9352 17.912 10.9192 17.9075 10.9034C17.8424 10.6778 17.7886 10.4971 17.7402 10.3548C17.6102 10.4993 17.4638 10.6877 17.3011 10.917C17.0214 11.3109 16.7281 11.7754 16.4154 12.2706C16.3439 12.3839 16.2713 12.4988 16.1976 12.6149C15.8136 13.22 15.4001 13.8556 14.9896 14.3614C14.7836 14.6152 14.5612 14.8581 14.3257 15.055C14.0974 15.2458 13.8039 15.4385 13.4547 15.5161C13.1873 15.5755 12.8773 15.5505 12.6014 15.365C12.3558 15.1999 12.2353 14.9716 12.1754 14.8267C12.0856 14.6094 12.0411 14.323 12.0216 14.198C12.0185 14.1776 12.016 14.1616 12.014 14.1508C11.8789 13.391 11.8391 12.3212 11.8168 11.3276C11.8109 11.064 11.8062 10.8052 11.8016 10.555C11.7935 10.1037 11.7858 9.68049 11.7724 9.30801ZM17.585 10.0058C17.585 10.0057 17.5864 10.0072 17.5889 10.0107C17.5863 10.0077 17.585 10.006 17.585 10.0058Z" fill="#292632"/>
</svg>
