<svg width="24" height="24" viewBox="0 0 24 24" fill="none" xmlns="http://www.w3.org/2000/svg">
<path d="M6 4.5C6.41421 4.5 6.75 4.83579 6.75 5.25V10.5C6.75 10.9142 6.41421 11.25 6 11.25C5.58579 11.25 5.25 10.9142 5.25 10.5V5.25C5.25 4.83579 5.58579 4.5 6 4.5Z" fill="#292632"/>
<path d="M6.75 14.25H8.25C8.66421 14.25 9 13.9142 9 13.5C9 13.0858 8.66421 12.75 8.25 12.75H3.75C3.33579 12.75 3 13.0858 3 13.5C3 13.9142 3.33579 14.25 3.75 14.25H5.25V18.75C5.25 19.1642 5.58579 19.5 6 19.5C6.41421 19.5 6.75 19.1642 6.75 18.75V14.25Z" fill="#292632"/>
<path d="M12.75 12C12.75 11.5858 12.4142 11.25 12 11.25C11.5858 11.25 11.25 11.5858 11.25 12V18.75C11.25 19.1642 11.5858 19.5 12 19.5C12.4142 19.5 12.75 19.1642 12.75 18.75V12Z" fill="#292632"/>
<path d="M12 4.5C12.4142 4.5 12.75 4.83579 12.75 5.25V8.25H14.25C14.6642 8.25 15 8.58579 15 9C15 9.41421 14.6642 9.75 14.25 9.75H9.75C9.33579 9.75 9 9.41421 9 9C9 8.58579 9.33579 8.25 9.75 8.25H11.25V5.25C11.25 4.83579 11.5858 4.5 12 4.5Z" fill="#292632"/>
<path d="M20.25 14.25C20.6642 14.25 21 14.5858 21 15C21 15.4142 20.6642 15.75 20.25 15.75H18.75V18.75C18.75 19.1642 18.4142 19.5 18 19.5C17.5858 19.5 17.25 19.1642 17.25 18.75V15.75H15.75C15.3358 15.75 15 15.4142 15 15C15 14.5858 15.3358 14.25 15.75 14.25H20.25Z" fill="#292632"/>
<path d="M18 4.5C18.4142 4.5 18.75 4.83579 18.75 5.25V12C18.75 12.4142 18.4142 12.75 18 12.75C17.5858 12.75 17.25 12.4142 17.25 12V5.25C17.25 4.83579 17.5858 4.5 18 4.5Z" fill="#292632"/>
</svg>
