<svg width="24" height="24" viewBox="0 0 24 24" fill="none" xmlns="http://www.w3.org/2000/svg">
<path d="M19.5 6C19.5 6.41421 19.1642 6.75 18.75 6.75L13.5 6.75C13.0858 6.75 12.75 6.41421 12.75 6C12.75 5.58579 13.0858 5.25 13.5 5.25L18.75 5.25C19.1642 5.25 19.5 5.58579 19.5 6Z" fill="#292632"/>
<path d="M9.75 6.75L9.75 8.25C9.75 8.66421 10.0858 9 10.5 9C10.9142 9 11.25 8.66421 11.25 8.25L11.25 3.75C11.25 3.33579 10.9142 3 10.5 3C10.0858 3 9.75 3.33579 9.75 3.75L9.75 5.25L5.25 5.25C4.83579 5.25 4.5 5.58579 4.5 6C4.5 6.41421 4.83579 6.75 5.25 6.75L9.75 6.75Z" fill="#292632"/>
<path d="M12 12.75C12.4142 12.75 12.75 12.4142 12.75 12C12.75 11.5858 12.4142 11.25 12 11.25L5.25 11.25C4.83579 11.25 4.5 11.5858 4.5 12C4.5 12.4142 4.83579 12.75 5.25 12.75L12 12.75Z" fill="#292632"/>
<path d="M19.5 12C19.5 12.4142 19.1642 12.75 18.75 12.75L15.75 12.75L15.75 14.25C15.75 14.6642 15.4142 15 15 15C14.5858 15 14.25 14.6642 14.25 14.25L14.25 9.75C14.25 9.33579 14.5858 9 15 9C15.4142 9 15.75 9.33579 15.75 9.75L15.75 11.25L18.75 11.25C19.1642 11.25 19.5 11.5858 19.5 12Z" fill="#292632"/>
<path d="M9.75 20.25C9.75 20.6642 9.41421 21 9 21C8.58579 21 8.25 20.6642 8.25 20.25L8.25 18.75L5.25 18.75C4.83579 18.75 4.5 18.4142 4.5 18C4.5 17.5858 4.83579 17.25 5.25 17.25L8.25 17.25L8.25 15.75C8.25 15.3358 8.58579 15 9 15C9.41421 15 9.75 15.3358 9.75 15.75L9.75 20.25Z" fill="#292632"/>
<path d="M19.5 18C19.5 18.4142 19.1642 18.75 18.75 18.75L12 18.75C11.5858 18.75 11.25 18.4142 11.25 18C11.25 17.5858 11.5858 17.25 12 17.25L18.75 17.25C19.1642 17.25 19.5 17.5858 19.5 18Z" fill="#292632"/>
</svg>
