<svg width="24" height="24" viewBox="0 0 24 24" fill="none" xmlns="http://www.w3.org/2000/svg">
<path d="M11.999 3.39679C12.169 3.39671 12.336 3.44379 12.4805 3.53351C12.6249 3.62325 12.7411 3.7521 12.8164 3.9046L15.1045 8.53937L20.2187 9.28156C20.3872 9.30582 20.5456 9.37702 20.6758 9.48663C20.8058 9.59617 20.9024 9.73997 20.9551 9.90167C21.0077 10.0635 21.0145 10.2374 20.9736 10.4026C20.9327 10.5678 20.8456 10.7176 20.7236 10.8362L17.0215 14.4437L17.8955 19.5394C17.9239 19.7066 17.9057 19.8784 17.8418 20.0355C17.7777 20.1927 17.6705 20.3292 17.5332 20.429C17.3957 20.5288 17.2329 20.5886 17.0635 20.6009C16.894 20.6132 16.7246 20.5773 16.5742 20.4984L11.999 18.0931L7.42381 20.4984C7.27329 20.5774 7.10317 20.6132 6.93358 20.6009C6.76409 20.5886 6.60129 20.5289 6.46385 20.429C6.32643 20.3291 6.21928 20.1929 6.15526 20.0355C6.09123 19.8779 6.07275 19.7049 6.10154 19.5374L6.97557 14.4446L3.2744 10.8362C3.15291 10.7176 3.06688 10.5675 3.02635 10.4026C2.98565 10.2376 2.9923 10.0643 3.0449 9.90265C3.0974 9.74107 3.19425 9.59711 3.3242 9.48761C3.45403 9.37818 3.6121 9.30695 3.78026 9.28253L8.89451 8.53937L11.1816 3.9046C11.2569 3.75215 11.3731 3.62322 11.5176 3.53351C11.662 3.44386 11.829 3.39668 11.999 3.39679ZM11.999 16.1526C13.2786 16.7727 14.4739 17.3583 15.7871 18.0267L15.1455 14.2796C15.1205 14.134 15.1311 13.9845 15.1767 13.8441C15.2225 13.7035 15.3023 13.5761 15.4082 13.473L18.1289 10.8196L14.3672 10.2728C14.2213 10.2514 14.0822 10.1954 13.9629 10.1087C13.8435 10.0219 13.747 9.90702 13.6816 9.77472L11.999 6.36749V16.1526Z" fill="#292632"/>
</svg>
