<svg width="24" height="24" viewBox="0 0 24 24" fill="none" xmlns="http://www.w3.org/2000/svg">
<path fill-rule="evenodd" clip-rule="evenodd" d="M12.0012 3.39679C12.1713 3.39668 12.338 3.44419 12.4825 3.53393C12.627 3.62368 12.7435 3.75208 12.8188 3.90461L15.1052 8.53937L20.2198 9.28288C20.3881 9.30731 20.5461 9.37831 20.676 9.48785C20.806 9.59739 20.9028 9.74111 20.9553 9.90275C21.0079 10.0644 21.0142 10.2375 20.9735 10.4026C20.9329 10.5676 20.8469 10.718 20.7252 10.8367L17.0247 14.4449L17.8982 19.5377C17.927 19.7052 17.9084 19.8775 17.8444 20.035C17.7803 20.1926 17.6735 20.329 17.536 20.429C17.3985 20.529 17.2357 20.5885 17.0661 20.6008C16.8965 20.6131 16.7269 20.5777 16.5764 20.4986L12.0012 18.0932L7.42593 20.4986C7.27551 20.5776 7.10601 20.613 6.93656 20.6007C6.76712 20.5884 6.60447 20.529 6.467 20.4293C6.32953 20.3294 6.2227 20.1931 6.15859 20.0358C6.09447 19.8784 6.0756 19.7064 6.10414 19.5389L6.97885 14.4437L3.2759 10.8367C3.15388 10.718 3.06755 10.5676 3.02667 10.4024C2.98579 10.2371 2.99201 10.0638 3.04462 9.9019C3.09722 9.74003 3.19412 9.59612 3.32432 9.48651C3.45452 9.37689 3.61282 9.30593 3.78129 9.28166L8.89593 8.53937L11.1835 3.90461C11.2588 3.75208 11.3753 3.62368 11.5198 3.53393C11.6643 3.44419 11.8311 3.39668 12.0012 3.39679ZM12.0012 6.36717L10.3186 9.77491C10.2532 9.90721 10.1567 10.0217 10.0374 10.1084C9.91801 10.1952 9.77937 10.2517 9.63336 10.273L5.87088 10.8197L8.59221 13.473C8.69809 13.5761 8.77731 13.7034 8.82302 13.8439C8.86874 13.9845 8.87959 14.134 8.85462 14.2797L8.21317 18.0264L11.5772 16.2575C11.7079 16.1887 11.8534 16.1529 12.0012 16.1529C12.1489 16.1529 12.2944 16.1887 12.4252 16.2575L15.7904 18.0264L15.1465 14.2797C15.1216 14.134 15.1324 13.9845 15.1781 13.8439C15.2239 13.7034 15.3031 13.5761 15.4089 13.473L18.1302 10.8209L14.369 10.2742C14.223 10.2529 14.0843 10.1964 13.965 10.1096C13.8456 10.0229 13.7491 9.90842 13.6838 9.77612L12.0012 6.36595V6.36717Z" fill="#292632"/>
</svg>
