<svg width="20" height="19" viewBox="0 0 20 19" fill="none" xmlns="http://www.w3.org/2000/svg">
<path fill-rule="evenodd" clip-rule="evenodd" d="M9.75033 1.5C9.62079 1.5 9.53315 1.56875 9.49776 1.6765L7.67377 7.2268H1.7666C1.63759 7.2268 1.5498 7.29554 1.51444 7.40307C1.47933 7.5096 1.50884 7.60903 1.60715 7.67962L6.39335 11.1093L4.5634 16.6695C4.52867 16.7752 4.55768 16.8743 4.65677 16.9457C4.71149 16.9847 4.76653 16.9996 4.81605 16.9996C4.86561 16.9996 4.9207 16.9847 4.97546 16.9456L9.74767 13.5191L14.5252 16.9456C14.6261 17.018 14.742 17.0181 14.843 16.9457C14.9415 16.875 14.9712 16.7758 14.9363 16.6696L13.1053 11.1135L17.8924 7.67969C17.9913 7.60874 18.0207 7.50963 17.986 7.4038C17.9503 7.29559 17.8621 7.22692 17.7334 7.2268L11.8296 7.22942L10.0025 1.6769C9.96708 1.56895 9.87917 1.5 9.75033 1.5ZM8.07265 1.20846C8.31356 0.47493 8.98334 0 9.75033 0C10.5169 0 11.1864 0.474959 11.4274 1.20806L12.915 5.72894L17.7327 5.7268C18.4994 5.7268 19.1689 6.20178 19.4104 6.9338C19.6528 7.66916 19.3924 8.44962 18.7668 8.89846L14.8747 11.6903L16.3611 16.2005C16.6025 16.9347 16.3434 17.7153 15.7174 18.1644C15.0938 18.6118 14.2745 18.6119 13.6509 18.1645L9.74815 15.3654L5.85004 18.1643C5.54267 18.3844 5.18176 18.4996 4.81605 18.4996C4.45034 18.4996 4.09018 18.3849 3.78282 18.1648L3.78176 18.1641C3.15665 17.7148 2.89694 16.9355 3.13845 16.201L4.62411 11.6869L0.733192 8.89871C0.107022 8.44947 -0.152486 7.66875 0.0896568 6.93404C0.330744 6.20152 1.00023 5.7268 1.7666 5.7268H6.5878L8.07265 1.20846Z" fill="white"/>
</svg>
