<svg width="24" height="24" viewBox="0 0 24 24" fill="none" xmlns="http://www.w3.org/2000/svg">
<path d="M12 16.5C10.8065 16.5 9.66193 16.0259 8.81802 15.182C7.97411 14.3381 7.5 13.1935 7.5 12C7.5 10.8065 7.97411 9.66193 8.81802 8.81802C9.66193 7.97411 10.8065 7.5 12 7.5C13.1935 7.5 14.3381 7.97411 15.182 8.81802C16.0259 9.66193 16.5 10.8065 16.5 12C16.5 13.1935 16.0259 14.3381 15.182 15.182C14.3381 16.0259 13.1935 16.5 12 16.5ZM12 14.8125C12.7459 14.8125 13.4613 14.5162 13.9887 13.9887C14.5162 13.4613 14.8125 12.7459 14.8125 12C14.8125 11.2541 14.5162 10.5387 13.9887 10.0113C13.4613 9.48382 12.7459 9.1875 12 9.1875C11.2541 9.1875 10.5387 9.48382 10.0113 10.0113C9.48382 10.5387 9.1875 11.2541 9.1875 12C9.1875 12.7459 9.48382 13.4613 10.0113 13.9887C10.5387 14.5162 11.2541 14.8125 12 14.8125ZM18.3641 5.63587C18.4425 5.71423 18.5047 5.80727 18.5472 5.90967C18.5896 6.01208 18.6114 6.12184 18.6114 6.23269C18.6114 6.34354 18.5896 6.4533 18.5472 6.5557C18.5047 6.65811 18.4425 6.75114 18.3641 6.8295L17.1705 8.022C17.0674 8.13307 16.9362 8.21426 16.7908 8.25702C16.6454 8.29979 16.4911 8.30255 16.3443 8.265C16.1975 8.22746 16.0635 8.151 15.9564 8.04369C15.8494 7.93638 15.7733 7.80219 15.7361 7.65525C15.6985 7.50858 15.7012 7.35448 15.7437 7.20917C15.7863 7.06387 15.8672 6.93271 15.978 6.8295L17.1705 5.637C17.3287 5.47899 17.5432 5.39024 17.7668 5.39024C17.9903 5.39024 18.2048 5.47899 18.363 5.637L18.3641 5.63587ZM8.022 15.978C8.18001 16.1362 8.26876 16.3507 8.26876 16.5742C8.26876 16.7978 8.18001 17.0123 8.022 17.1705L6.8295 18.3641C6.7517 18.4447 6.65863 18.5091 6.55571 18.5533C6.45279 18.5976 6.34209 18.6209 6.23005 18.622C6.11802 18.623 6.00691 18.6017 5.9032 18.5593C5.79948 18.5169 5.70525 18.4543 5.62599 18.3751C5.54673 18.296 5.48403 18.2018 5.44156 18.0981C5.39909 17.9944 5.37769 17.8833 5.37861 17.7713C5.37953 17.6593 5.40275 17.5486 5.44692 17.4456C5.49109 17.3426 5.55533 17.2495 5.63587 17.1716L6.82838 15.978C6.90673 15.8996 6.99977 15.8374 7.10217 15.795C7.20458 15.7525 7.31434 15.7307 7.42519 15.7307C7.53604 15.7307 7.6458 15.7525 7.7482 15.795C7.85061 15.8374 7.94364 15.8996 8.022 15.978ZM12 3C12.2238 3 12.4384 3.08889 12.5966 3.24713C12.7549 3.40536 12.8438 3.61997 12.8438 3.84375V5.53125C12.8438 5.75503 12.7549 5.96964 12.5966 6.12787C12.4384 6.28611 12.2238 6.375 12 6.375C11.7762 6.375 11.5616 6.28611 11.4034 6.12787C11.2451 5.96964 11.1563 5.75503 11.1562 5.53125V3.84375C11.1562 3.61997 11.2451 3.40536 11.4034 3.24713C11.5616 3.08889 11.7762 3 12 3ZM6.375 12C6.375 12.2238 6.28611 12.4384 6.12787 12.5966C5.96964 12.7549 5.75503 12.8438 5.53125 12.8438H3.84375C3.61997 12.8438 3.40536 12.7549 3.24713 12.5966C3.08889 12.4384 3 12.2238 3 12C3 11.7762 3.08889 11.5616 3.24713 11.4034C3.40536 11.2451 3.61997 11.1563 3.84375 11.1562H5.53125C5.75503 11.1563 5.96964 11.2451 6.12787 11.4034C6.28611 11.5616 6.375 11.7762 6.375 12ZM21 12C21 12.2238 20.9111 12.4384 20.7529 12.5966C20.5946 12.7549 20.38 12.8438 20.1562 12.8438H18.4688C18.245 12.8438 18.0304 12.7549 17.8721 12.5966C17.7139 12.4384 17.625 12.2238 17.625 12C17.625 11.7762 17.7139 11.5616 17.8721 11.4034C18.0304 11.2451 18.245 11.1563 18.4688 11.1562H20.1562C20.38 11.1563 20.5946 11.2451 20.7529 11.4034C20.9111 11.5616 21 11.7762 21 12ZM12 17.625C12.2238 17.625 12.4384 17.7139 12.5966 17.8721C12.7549 18.0304 12.8438 18.245 12.8438 18.4688V20.1562C12.8438 20.38 12.7549 20.5946 12.5966 20.7529C12.4384 20.9111 12.2238 21 12 21C11.7762 21 11.5616 20.9111 11.4034 20.7529C11.2451 20.5946 11.1563 20.38 11.1562 20.1562V18.4688C11.1562 18.245 11.2451 18.0304 11.4034 17.8721C11.5616 17.7139 11.7762 17.625 12 17.625ZM15.978 15.978C16.1362 15.82 16.3507 15.7312 16.5742 15.7312C16.7978 15.7312 17.0123 15.82 17.1705 15.978L18.3641 17.1705C18.5179 17.3296 18.603 17.5427 18.6012 17.7639C18.5994 17.9851 18.5108 18.1968 18.3544 18.3533C18.198 18.5098 17.9865 18.5986 17.7652 18.6007C17.544 18.6027 17.3308 18.5177 17.1716 18.3641L15.978 17.1716C15.8996 17.0933 15.8374 17.0002 15.795 16.8978C15.7525 16.7954 15.7307 16.6857 15.7307 16.5748C15.7307 16.464 15.7525 16.3542 15.795 16.2518C15.8374 16.1494 15.8996 16.0564 15.978 15.978ZM5.63587 5.63587C5.71423 5.55747 5.80727 5.49527 5.90967 5.45283C6.01208 5.4104 6.12184 5.38856 6.23269 5.38856C6.34354 5.38856 6.4533 5.4104 6.5557 5.45283C6.65811 5.49527 6.75114 5.55747 6.8295 5.63587L8.022 6.8295C8.17096 6.98954 8.25208 7.2011 8.2483 7.41971C8.24452 7.63832 8.15615 7.84695 8.00175 8.00175C7.84695 8.15615 7.63832 8.24452 7.41971 8.2483C7.2011 8.25208 6.98954 8.17096 6.8295 8.022L5.637 6.8295C5.47899 6.6713 5.39024 6.45684 5.39024 6.23325C5.39024 6.00966 5.47899 5.7952 5.637 5.637L5.63587 5.63587Z" fill="#292632"/>
</svg>
