<svg width="24" height="24" viewBox="0 0 24 24" fill="none" xmlns="http://www.w3.org/2000/svg">
<path fill-rule="evenodd" clip-rule="evenodd" d="M4.8274 11.2538V5.13197C4.8274 5.05119 4.85949 4.97372 4.9166 4.9166C4.97372 4.85949 5.05119 4.8274 5.13197 4.8274H11.2538C11.2938 4.82733 11.3334 4.83515 11.3704 4.8504C11.4074 4.86566 11.441 4.88807 11.4694 4.91633L19.0835 12.5305C19.1119 12.5588 19.1345 12.5924 19.1498 12.6294C19.1652 12.6664 19.173 12.7061 19.173 12.7461C19.173 12.7862 19.1652 12.8259 19.1498 12.8629C19.1345 12.8999 19.1119 12.9335 19.0835 12.9618L12.9618 19.0835C12.9335 19.1119 12.8999 19.1345 12.8629 19.1498C12.8259 19.1652 12.7862 19.173 12.7461 19.173C12.7061 19.173 12.6664 19.1652 12.6294 19.1498C12.5924 19.1345 12.5588 19.1119 12.5305 19.0835L4.91633 11.4694C4.88807 11.441 4.86566 11.4074 4.8504 11.3704C4.83515 11.3334 4.82733 11.2938 4.8274 11.2538ZM3 11.2538V5.13197C3 3.95512 3.95512 3 5.13197 3H11.2538C11.819 3 12.3624 3.22416 12.762 3.62497L20.3761 11.2391C20.7756 11.6389 21 12.181 21 12.7461C21 13.3113 20.7756 13.8533 20.3761 14.2531L14.2531 20.3761C13.8533 20.7756 13.3113 21 12.7461 21C12.181 21 11.6389 20.7756 11.2391 20.3761L3.62497 12.762C3.42682 12.564 3.26964 12.3288 3.16239 12.0701C3.05516 11.8113 2.99998 11.5339 3 11.2538ZM9.09133 7.87306C8.76822 7.87306 8.45836 8.00142 8.22988 8.22988C8.00142 8.45836 7.87306 8.76822 7.87306 9.09133C7.87306 9.41444 8.00142 9.7243 8.22988 9.95278C8.45836 10.1812 8.76822 10.3096 9.09133 10.3096C9.41444 10.3096 9.7243 10.1812 9.95278 9.95278C10.1812 9.7243 10.3096 9.41444 10.3096 9.09133C10.3096 8.76822 10.1812 8.45836 9.95278 8.22988C9.7243 8.00142 9.41444 7.87306 9.09133 7.87306Z" fill="#292632"/>
</svg>
