<svg width="24" height="24" viewBox="0 0 24 24" fill="none" xmlns="http://www.w3.org/2000/svg">
<path fill-rule="evenodd" clip-rule="evenodd" d="M3 5.5714C3 5.31566 3.1016 5.07039 3.28243 4.88955C3.46327 4.70871 3.70854 4.60712 3.96429 4.60712H20.0357C20.2914 4.60712 20.5368 4.70871 20.7175 4.88955C20.8984 5.07039 21 5.31566 21 5.5714C21 5.82714 20.8984 6.07242 20.7175 6.25326C20.5368 6.43409 20.2914 6.53569 20.0357 6.53569H3.96429C3.70854 6.53569 3.46327 6.43409 3.28243 6.25326C3.1016 6.07242 3 5.82714 3 5.5714ZM3 12C3 11.7442 3.1016 11.499 3.28243 11.3181C3.46327 11.1373 3.70854 11.0357 3.96429 11.0357H20.0357C20.2914 11.0357 20.5368 11.1373 20.7175 11.3181C20.8984 11.499 21 11.7442 21 12C21 12.2557 20.8984 12.501 20.7175 12.6818C20.5368 12.8627 20.2914 12.9643 20.0357 12.9643H3.96429C3.70854 12.9643 3.46327 12.8627 3.28243 12.6818C3.1016 12.501 3 12.2557 3 12ZM3.96429 17.4643C3.70854 17.4643 3.46327 17.5658 3.28243 17.7467C3.1016 17.9275 3 18.1728 3 18.4285C3 18.6843 3.1016 18.9296 3.28243 19.1104C3.46327 19.2913 3.70854 19.3928 3.96429 19.3928H20.0357C20.2914 19.3928 20.5368 19.2913 20.7175 19.1104C20.8984 18.9296 21 18.6843 21 18.4285C21 18.1728 20.8984 17.9275 20.7175 17.7467C20.5368 17.5658 20.2914 17.4643 20.0357 17.4643H3.96429Z" fill="#292632"/>
</svg>
