<svg width="24" height="24" viewBox="0 0 24 24" fill="none" xmlns="http://www.w3.org/2000/svg">
<path d="M11.884 3C16.8488 3.00015 20.8749 7.02075 20.884 11.9834C20.893 16.9419 16.8485 20.9965 11.8899 21C9.98393 21.0013 8.21564 20.41 6.76001 19.4004L6.59888 19.2725C6.19777 18.9543 6.15616 18.3602 6.50903 17.9893C6.81737 17.6652 7.32073 17.6271 7.67407 17.9014L7.83911 18.0293C8.99458 18.8055 10.3862 19.2578 11.884 19.2578C15.8958 19.2577 19.1418 16.0112 19.1418 12C19.1418 7.98823 15.8951 4.74234 11.884 4.74219C9.86924 4.74219 8.04789 5.56134 6.73364 6.88477L8.51489 8.6416C8.79208 8.91502 8.59854 9.38659 8.20923 9.38672H3.552C3.31151 9.38672 3.11646 9.19167 3.11646 8.95117V4.3584C3.11679 3.97215 3.58258 3.77751 3.85767 4.04883L5.49438 5.66309C7.12495 4.01892 9.38545 3 11.884 3ZM11.4319 8.46875C11.6326 8.46877 11.825 8.54856 11.967 8.69043C12.1091 8.83248 12.1897 9.02567 12.1897 9.22656V12.248L14.2375 13.0684C14.418 13.1471 14.5613 13.2925 14.636 13.4746C14.7107 13.6568 14.7111 13.8611 14.6379 14.0439C14.5648 14.2267 14.4232 14.3738 14.2434 14.4541C14.0637 14.5343 13.8599 14.5412 13.675 14.4736L11.1497 13.4639C11.0095 13.4076 10.8896 13.3106 10.8049 13.1855C10.7202 13.0603 10.6741 12.912 10.6741 12.7607V9.22656C10.6741 9.02573 10.7538 8.83247 10.8958 8.69043C11.0378 8.54838 11.231 8.46875 11.4319 8.46875Z" fill="#292632"/>
</svg>
