<svg width="24" height="24" viewBox="0 0 24 24" fill="none" xmlns="http://www.w3.org/2000/svg">
<path fill-rule="evenodd" clip-rule="evenodd" d="M8.85628 4.8416C8.85389 4.84307 8.85115 4.84487 8.84804 4.84704C7.42049 5.84464 6.48982 7.4974 6.48982 9.3674C6.48982 11.3239 7.50878 13.0429 9.04931 14.022C9.68309 14.4247 10.1861 15.1525 10.153 16.0309L10.1526 16.0411L9.95289 20.1265C9.92813 20.6331 9.49738 21.0237 8.99078 20.9989C8.48418 20.9741 8.09358 20.5434 8.11834 20.0368L8.31769 15.9586C8.32015 15.8555 8.25717 15.6948 8.06417 15.5722C6.01567 14.2704 4.65308 11.9783 4.65308 9.3674C4.65308 6.87226 5.89775 4.66796 7.79594 3.34148C8.4684 2.87157 9.25662 2.91681 9.84463 3.29339C10.4102 3.65557 10.7756 4.30614 10.7756 5.03613V8.48804C10.7756 8.58945 10.8258 8.6843 10.9097 8.74128L11.8281 9.36496C11.9319 9.43547 12.0682 9.43547 12.172 9.36496L13.0904 8.74128C13.1743 8.6843 13.2245 8.58947 13.2245 8.48804V5.03613C13.2245 4.30614 13.59 3.65557 14.1555 3.29339C14.7435 2.91681 15.5317 2.87157 16.2041 3.34148C18.1023 4.66796 19.347 6.87226 19.347 9.3674C19.347 11.9783 17.9844 14.2704 15.936 15.5722C15.743 15.6948 15.6799 15.8555 15.6825 15.9586L15.8817 20.0368C15.9066 20.5434 15.5159 20.9741 15.0094 20.9989C14.5027 21.0237 14.072 20.6331 14.0472 20.1265L13.847 16.0309C13.814 15.1525 14.317 14.4247 14.9508 14.022C16.4914 13.0429 17.5103 11.3239 17.5103 9.3674C17.5103 7.4974 16.5797 5.84464 15.152 4.84704C15.149 4.84487 15.1463 4.84307 15.1438 4.8416C15.1144 4.86178 15.0613 4.9239 15.0613 5.03613V8.48804C15.0613 9.198 14.7096 9.86189 14.1223 10.2608L13.2039 10.8844C12.4772 11.378 11.5229 11.378 10.7962 10.8844L9.87779 10.2608C9.29045 9.86189 8.93881 9.198 8.93881 8.48804V5.03613C8.93881 4.9239 8.88572 4.86178 8.85628 4.8416ZM8.86876 4.83514C8.86938 4.83497 8.86876 4.83516 8.86876 4.83514V4.83514Z" fill="#292632"/>
</svg>
