<svg width="24" height="24" viewBox="0 0 24 24" fill="none" xmlns="http://www.w3.org/2000/svg">
<path fill-rule="evenodd" clip-rule="evenodd" d="M10.2 5.1C10.2 4.93432 10.3343 4.8 10.5 4.8H13.5C13.6657 4.8 13.8 4.93432 13.8 5.1V6.6H10.2V5.1ZM15.6 5.1V6.6H18.3C18.797 6.6 19.2 7.00295 19.2 7.5C19.2 7.99705 18.797 8.4 18.3 8.4H5.69999C5.20294 8.4 4.79999 7.99705 4.79999 7.5C4.79999 7.00295 5.20294 6.6 5.69999 6.6H8.39999V5.1C8.39999 3.9402 9.34019 3 10.5 3H13.5C14.6598 3 15.6 3.9402 15.6 5.1ZM7.79551 11.0104C7.74606 10.5159 7.30502 10.155 6.81043 10.2045C6.31584 10.2539 5.95499 10.695 6.00445 11.1895L6.79639 19.1089C6.90374 20.1824 7.80709 21 8.88596 21H15.114C16.1929 21 17.0963 20.1824 17.2035 19.1089L17.9955 11.1895C18.045 10.695 17.6841 10.2539 17.1895 10.2045C16.695 10.155 16.2539 10.5159 16.2044 11.0104L15.4125 18.9299C15.3972 19.0832 15.2681 19.2 15.114 19.2H8.88596C8.73185 19.2 8.60279 19.0832 8.58745 18.9299L7.79551 11.0104Z" fill="#292632"/>
</svg>
