<svg width="24" height="24" viewBox="0 0 24 24" fill="none" xmlns="http://www.w3.org/2000/svg">
<path fill-rule="evenodd" clip-rule="evenodd" d="M12.7071 3.29289C12.3166 2.90237 11.6835 2.90237 11.2929 3.29289L6.29293 8.29289C5.90241 8.68341 5.90241 9.31659 6.29293 9.70711C6.68345 10.0976 7.31663 10.0976 7.70715 9.70711L11 6.41421V15.3333C11 15.8856 11.4478 16.3333 12 16.3333C12.5523 16.3333 13 15.8856 13 15.3333V6.41421L16.293 9.70711C16.6835 10.0976 17.3166 10.0976 17.7071 9.70711C18.0976 9.31659 18.0976 8.68341 17.7071 8.29289L12.7071 3.29289ZM6.33337 19C5.78109 19 5.33337 19.4477 5.33337 20C5.33337 20.5523 5.78109 21 6.33337 21H17.6667C18.219 21 18.6667 20.5523 18.6667 20C18.6667 19.4477 18.219 19 17.6667 19H6.33337Z" fill="#292632"/>
</svg>
