<svg xmlns="http://www.w3.org/2000/svg" width="20" height="20" viewBox="5 5 20 20" fill="none">
<path fill-rule="evenodd" clip-rule="evenodd" d="M20.3036 5.45418C20.6942 5.06365 21.3273 5.06365 21.7178 5.45418L24.5463 8.2826C24.9368 8.67313 24.9368 9.30629 24.5463 9.69682C24.1558 10.0873 23.5226 10.0873 23.1321 9.69682L20.3036 6.86839C19.9131 6.47787 19.9131 5.8447 20.3036 5.45418Z" fill="white"/>
<path fill-rule="evenodd" clip-rule="evenodd" d="M22.4257 7.57561C22.8162 7.96613 22.8162 8.5993 22.4257 8.98982L20.3044 11.1111C19.9139 11.5017 19.2807 11.5017 18.8902 11.1111C18.4996 10.7206 18.4996 10.0875 18.8902 9.69693L21.0115 7.57561C21.402 7.18508 22.0352 7.18508 22.4257 7.57561Z" fill="white"/>
<path fill-rule="evenodd" clip-rule="evenodd" d="M11.8183 18.1821C12.2088 18.5726 12.2088 19.2057 11.8183 19.5963L6.86854 24.546C6.47801 24.9365 5.84485 24.9365 5.45432 24.546C5.0638 24.1555 5.0638 23.5223 5.45432 23.1318L10.4041 18.1821C10.7946 17.7915 11.4278 17.7915 11.8183 18.1821Z" fill="white"/>
<path fill-rule="evenodd" clip-rule="evenodd" d="M22.4249 14.6464C22.0344 15.0369 21.4012 15.0369 21.0107 14.6464L15.3538 8.98955C14.9633 8.59903 14.9633 7.96587 15.3538 7.57534C15.7443 7.18482 16.3775 7.18482 16.768 7.57534L22.4249 13.2322C22.8154 13.6227 22.8154 14.2559 22.4249 14.6464Z" fill="white"/>
<path fill-rule="evenodd" clip-rule="evenodd" d="M17.4756 11.1111L11.1116 17.4751L12.5258 18.8893L18.8898 12.5254L17.4756 11.1111ZM18.1827 8.98982C17.7922 8.5993 17.159 8.5993 16.7685 8.98982L8.9903 16.768C8.59978 17.1585 8.59978 17.7917 8.9903 18.1822L11.8187 21.0106C12.2093 21.4012 12.8424 21.4012 13.2329 21.0106L21.0111 13.2325C21.4016 12.8419 21.4016 12.2088 21.0111 11.8182L18.1827 8.98982Z" fill="white"/>
<rect x="10.4043" y="16.7681" width="4" height="5" rx="1" transform="rotate(45 10.4043 16.7681)" fill="white"/>
<rect x="12.5264" y="13.2324" width="6" height="5" transform="rotate(45 12.5264 13.2324)" fill="white"/>
</svg>
