<svg width="24" height="24" viewBox="0 0 24 24" fill="none" xmlns="http://www.w3.org/2000/svg">
<path fill-rule="evenodd" clip-rule="evenodd" d="M21 7.21875C21 6.91478 20.8365 6.63429 20.5719 6.48452C20.3075 6.33475 19.9828 6.33884 19.7221 6.49524L15.375 9.10353V8.34375C15.375 7.25644 14.4936 6.375 13.4062 6.375H4.96875C3.88144 6.375 3 7.25644 3 8.34375V15.6563C3 16.7436 3.88144 17.625 4.96875 17.625H13.4062C14.4936 17.625 15.375 16.7436 15.375 15.6563V14.8964L19.7221 17.5047C19.9828 17.6611 20.3075 17.6653 20.5719 17.5154C20.8365 17.3657 21 17.0852 21 16.7813V7.21875ZM15.375 12.9285L19.3125 15.2911V8.70897L15.375 11.0715V12.9285ZM13.6875 10.5938V8.34375C13.6875 8.18842 13.5616 8.0625 13.4062 8.0625H4.96875C4.81342 8.0625 4.6875 8.18842 4.6875 8.34375V15.6563C4.6875 15.8116 4.81342 15.9375 4.96875 15.9375H13.4062C13.5616 15.9375 13.6875 15.8116 13.6875 15.6563V13.4063V10.5938Z" fill="#292632"/>
</svg>
