<svg width="12" height="16" viewBox="0 0 12 16" fill="none" xmlns="http://www.w3.org/2000/svg">
<path d="M2 15C2 15.5625 2.4375 16 3 16H9C9.53125 16 10 15.5625 10 15V14.5H2V15ZM10 1C10 0.46875 9.53125 0 9 0H3C2.4375 0 2 0.46875 2 1V1.5H10V1ZM10 2.5H2C0.875 2.5 0 3.40625 0 4.5V11.5C0 12.625 0.875 13.5 2 13.5H10C11.0938 13.5 12 12.625 12 11.5V4.5C12 3.40625 11.0938 2.5 10 2.5ZM8.9375 8.21875L6.28125 10.875C6.21875 10.9688 6.09375 11 6 11C5.875 11 5.75 10.9688 5.6875 10.875L3.03125 8.21875C2.25 7.4375 2.3125 6.15625 3.15625 5.4375C3.90625 4.8125 5.03125 4.90625 5.71875 5.59375L6 5.875L6.25 5.59375C6.9375 4.90625 8.0625 4.8125 8.8125 5.4375C9.65625 6.15625 9.71875 7.4375 8.9375 8.21875Z" fill="white"/>
</svg>
