<svg width="24" height="24" viewBox="0 0 24 24" fill="none" xmlns="http://www.w3.org/2000/svg">
<path fill-rule="evenodd" clip-rule="evenodd" d="M21 12C21 16.9706 16.9706 21 12 21C7.02943 21 3 16.9706 3 12C3 7.02943 7.02943 3 12 3C16.9706 3 21 7.02943 21 12ZM15.2343 8.34899C15.1422 8.31178 15.0435 8.29349 14.9441 8.29525C14.8448 8.29701 14.7468 8.31875 14.656 8.3592C14.5661 8.39927 14.4851 8.45687 14.4177 8.52861L11.9924 10.954L9.56519 8.52679C9.42643 8.38821 9.23835 8.31037 9.04224 8.31037C8.84613 8.31037 8.65791 8.38834 8.51916 8.52693C8.38058 8.66568 8.30273 8.85377 8.30273 9.04988C8.30273 9.24598 8.38064 9.43414 8.51922 9.57289L10.9463 12L8.51916 14.427L8.51554 14.4309C8.38484 14.5712 8.31366 14.7567 8.31704 14.9484C8.32043 15.1401 8.39809 15.3231 8.53368 15.4587C8.66927 15.5942 8.85225 15.6719 9.04392 15.6753C9.23561 15.6787 9.42122 15.6076 9.56152 15.4769L11.9924 13.046L14.4177 15.4714C14.4851 15.5431 14.5661 15.6007 14.656 15.6408C14.7468 15.6813 14.8448 15.703 14.9441 15.7047C15.0436 15.7065 15.1423 15.6881 15.2343 15.651C15.3264 15.6138 15.4101 15.5584 15.4804 15.4881C15.5508 15.4178 15.6062 15.3341 15.6433 15.2419C15.6805 15.1499 15.6989 15.0512 15.6971 14.9518C15.6953 14.8525 15.6736 14.7545 15.6332 14.6637C15.5931 14.5737 15.5355 14.4927 15.4637 14.4253L13.0384 12L15.4637 9.57466C15.5355 9.50728 15.5931 9.42627 15.6332 9.33635C15.6736 9.24554 15.6953 9.14755 15.6971 9.04825C15.6989 8.94879 15.6805 8.85009 15.6433 8.75803C15.6062 8.66593 15.5508 8.58221 15.4805 8.5119C15.4102 8.44162 15.3265 8.38622 15.2343 8.34899Z" fill="#292632"/>
</svg>
