<svg width="24" height="24" viewBox="0 0 24 24" fill="none" xmlns="http://www.w3.org/2000/svg">
<path d="M9.78412 8.59088C9.45462 8.26138 8.92039 8.26138 8.59088 8.59088C8.26138 8.92039 8.26138 9.45462 8.59088 9.78412L10.8068 12L8.59088 14.2159C8.26137 14.5454 8.26137 15.0796 8.59088 15.4091C8.92038 15.7386 9.45461 15.7386 9.78412 15.4091L12 13.1932L14.2159 15.4091C14.5454 15.7386 15.0796 15.7386 15.4091 15.4091C15.7386 15.0796 15.7386 14.5454 15.4091 14.2159L13.1932 12L15.4091 9.78413C15.7386 9.45463 15.7386 8.92039 15.4091 8.59089C15.0796 8.26138 14.5454 8.26138 14.2159 8.59089L12 10.8068L9.78412 8.59088Z" fill="#292632"/>
<path fill-rule="evenodd" clip-rule="evenodd" d="M5.63604 5.63604C2.12132 9.15076 2.12132 14.8492 5.63604 18.364C9.15076 21.8787 14.8492 21.8787 18.364 18.364C21.8787 14.8492 21.8787 9.15076 18.364 5.63604C14.8492 2.12132 9.15076 2.12132 5.63604 5.63604ZM6.82928 17.1707C3.97357 14.315 3.97357 9.68499 6.82928 6.82928C9.68499 3.97357 14.315 3.97357 17.1707 6.82928C20.0264 9.68499 20.0264 14.315 17.1707 17.1707C14.315 20.0264 9.68499 20.0264 6.82928 17.1707Z" fill="#292632"/>
</svg>
