<svg width="24" height="24" viewBox="0 0 24 24" fill="none" xmlns="http://www.w3.org/2000/svg">
<path fill-rule="evenodd" clip-rule="evenodd" d="M4.86405 4.8962C5.09745 4.66308 5.41385 4.53214 5.74373 4.53214C6.07361 4.53214 6.38999 4.66308 6.6234 4.8962L11.9678 10.2406L17.3123 4.8962C17.4263 4.77389 17.5637 4.6758 17.7164 4.60776C17.8691 4.53973 18.034 4.50315 18.2011 4.50019C18.3682 4.49724 18.5342 4.528 18.6892 4.5906C18.8442 4.65321 18.985 4.74639 19.1032 4.8646C19.2215 4.9828 19.3146 5.12362 19.3772 5.27861C19.4398 5.43361 19.4706 5.59964 19.4677 5.76678C19.4647 5.93393 19.4282 6.09876 19.3601 6.25146C19.2921 6.40416 19.194 6.54159 19.0716 6.65555L13.7272 12L19.0716 17.3444C19.194 17.4585 19.2921 17.5959 19.3601 17.7486C19.4282 17.9013 19.4647 18.0661 19.4677 18.2332C19.4706 18.4004 19.4398 18.5663 19.3772 18.7214C19.3146 18.8764 19.2215 19.0171 19.1032 19.1353C18.985 19.2537 18.8442 19.3468 18.6892 19.4093C18.5342 19.4719 18.3682 19.5028 18.2011 19.4998C18.034 19.4968 17.8691 19.4603 17.7164 19.3922C17.5637 19.3242 17.4263 19.2261 17.3123 19.1038L11.9678 13.7593L6.6234 19.1038C6.38742 19.3237 6.0753 19.4434 5.75281 19.4377C5.43031 19.4319 5.12263 19.3013 4.89454 19.0732C4.66647 18.8452 4.53583 18.5375 4.53014 18.215C4.52445 17.8925 4.64417 17.5804 4.86405 17.3444L10.2085 12L4.86405 6.65555C4.63094 6.42215 4.5 6.10575 4.5 5.77587C4.5 5.44599 4.63094 5.12961 4.86405 4.8962Z" fill="#292632"/>
</svg>
