<svg width="24" height="24" viewBox="0 0 24 24" fill="none" xmlns="http://www.w3.org/2000/svg">
<path d="M11.1001 7.5C11.5971 7.5 12.0001 7.90294 12.0001 8.4V10.2H13.8C14.297 10.2 14.7 10.6029 14.7 11.1C14.7 11.597 14.297 12 13.8 12H12.0001V13.8C12.0001 14.297 11.5971 14.7 11.1001 14.7C10.603 14.7 10.2001 14.297 10.2001 13.8V12H8.4C7.90294 12 7.5 11.597 7.5 11.1C7.5 10.6029 7.90294 10.2 8.4 10.2H10.2001V8.4C10.2001 7.90294 10.603 7.5 11.1001 7.5Z" fill="#292632"/>
<path fill-rule="evenodd" clip-rule="evenodd" d="M16.1558 17.4287C14.7702 18.5372 13.0125 19.2 11.1 19.2C6.62649 19.2 3 15.5735 3 11.1C3 6.62649 6.62649 3 11.1 3C15.5735 3 19.2 6.62649 19.2 11.1C19.2 13.0125 18.5371 14.7702 17.4286 16.156L20.7363 19.4636C21.0878 19.8151 21.0878 20.3849 20.7363 20.7364C20.3848 21.0879 19.815 21.0879 19.4635 20.7364L16.1558 17.4287ZM4.8 11.1C4.8 7.6206 7.6206 4.8 11.1 4.8C14.5794 4.8 17.4 7.6206 17.4 11.1C17.4 12.7973 16.7288 14.3378 15.6374 15.4706C15.6065 15.4943 15.5768 15.5203 15.5485 15.5486C15.5202 15.5769 15.4942 15.6066 15.4705 15.6374C14.3377 16.7288 12.7972 17.4 11.1 17.4C7.6206 17.4 4.8 14.5794 4.8 11.1Z" fill="#292632"/>
</svg>
