<svg width="24" height="24" viewBox="0 0 24 24" fill="none" xmlns="http://www.w3.org/2000/svg">
<path d="M8.4 10.2C7.90294 10.2 7.5 10.6029 7.5 11.1C7.5 11.597 7.90294 12 8.4 12H13.8C14.297 12 14.7 11.597 14.7 11.1C14.7 10.6029 14.297 10.2 13.8 10.2H8.4Z" fill="#292632"/>
<path fill-rule="evenodd" clip-rule="evenodd" d="M11.1 19.2C13.0125 19.2 14.7702 18.5372 16.1558 17.4287L19.4635 20.7364C19.815 21.0879 20.3848 21.0879 20.7363 20.7364C21.0878 20.3849 21.0878 19.8151 20.7363 19.4636L17.4286 16.156C18.5371 14.7702 19.2 13.0125 19.2 11.1C19.2 6.62649 15.5735 3 11.1 3C6.62649 3 3 6.62649 3 11.1C3 15.5735 6.62649 19.2 11.1 19.2ZM11.1 4.8C7.6206 4.8 4.8 7.6206 4.8 11.1C4.8 14.5794 7.6206 17.4 11.1 17.4C12.7972 17.4 14.3377 16.7288 15.4705 15.6374C15.4942 15.6066 15.5202 15.5769 15.5485 15.5486C15.5768 15.5203 15.6065 15.4943 15.6374 15.4706C16.7288 14.3378 17.4 12.7973 17.4 11.1C17.4 7.6206 14.5794 4.8 11.1 4.8Z" fill="#292632"/>
</svg>
