<?xml version="1.0" encoding="UTF-8"?>
<svg id="Guide" xmlns="http://www.w3.org/2000/svg" viewBox="0 0 1036.41 331.42">
  <defs>
    <style>
      .cls-1 {
        fill: none;
      }

      .cls-2 {
        fill: #f15a29;
      }

      .cls-3 {
        fill: #908090;
      }
    </style>
  </defs>
  <rect class="cls-1" width="1036.41" height="331.42"/>
  <g>
    <g>
      <g>
        <path class="cls-2" d="m425.44,173.95h-15.27v-70.43h15.27v70.43Z"/>
        <path class="cls-2" d="m537.7,117.24v13.24h-12.98c-9.05,0-11.89,5.34-11.89,13.96v29.51h-15.27v-56.7h15.26v10.37c1.86-4.71,7.58-10.37,15.03-10.37h9.84Z"/>
        <path class="cls-2" d="m461.5,115.94c-16.38,0-29.65,13.27-29.65,29.65s13.27,29.65,29.65,29.65,29.65-13.27,29.65-29.65-13.27-29.65-29.65-29.65Zm0,45.65c-8.84,0-16-7.16-16-16s7.16-16,16-16,16,7.16,16,16-7.16,16-16,16Z"/>
        <polygon class="cls-2" points="334.84 117.24 324.23 117.24 306.49 134.99 288.74 117.24 278.14 117.24 278.14 127.85 295.88 145.59 278.14 163.34 278.14 173.95 288.75 173.95 306.49 156.2 324.23 173.95 334.84 173.95 334.84 163.34 317.1 145.59 334.84 127.85 334.84 117.24"/>
        <path class="cls-2" d="m375.11,115.94c-6.69,0-14.63,3.92-17.46,8.26v-6.97h-15.26v70.43h15.27v-20.7c2.88,4.39,10.67,8.26,17.45,8.26,16.38,0,28.65-13.27,28.65-29.65s-12.27-29.65-28.65-29.65Zm-1,45.65c-8.84,0-16-7.16-16-16s7.16-16,16-16,16,7.16,16,16-7.16,16-16,16Z"/>
        <g>
          <path class="cls-2" d="m233.35,140.04c25.87-17.38,43.28-46.36,44.79-79.5-33.13,1.51-62.12,18.92-79.5,44.79-11.69-2.09-24.08.69-33.91,8.33v7.21c8.31,0,16.17,1.91,23.17,5.32,10.7,5.2,19.38,13.89,24.58,24.58,3.4,7,5.32,14.86,5.32,23.17h7.21c7.64-9.83,10.42-22.22,8.33-33.91Zm6.86-54.24c6.99,0,12.66,5.67,12.66,12.66,0,6.99-5.67,12.66-12.66,12.66-6.99,0-12.66-5.67-12.66-12.66,0-6.99,5.67-12.66,12.66-12.66Z"/>
          <path class="cls-2" d="m192.68,159.97c0-1.36-.2-2.67-.56-3.91-1.33-4.58-4.94-8.18-9.51-9.51-1.24-.36-2.55-.56-3.91-.56-6.53,0-12.01,4.48-13.55,10.53-.28,1.1-.43,2.25-.43,3.43,0,0,0,0,0,.02s0,0,0,.02v13.96h13.96s0,0,.02,0,0,0,.02,0c1.18,0,2.33-.15,3.43-.43,6.05-1.54,10.53-7.02,10.53-13.55Z"/>
        </g>
      </g>
      <g>
        <g>
          <path class="cls-3" d="m719.13,253.98v-30.29h-9.44v-10.64h4.83c3.51,0,4.61-1.76,4.61-5.27v-9.77h11.96v15.04h13.06v10.64h-13.06v27.99c0,4.5,1.32,6.91,6.58,6.91h6.37v10.64h-9.77c-9.77,0-15.14-5.49-15.14-15.26Z"/>
          <path class="cls-3" d="m807.69,244.43h-43.02c.22,10.54,7.13,16.02,15.91,16.02,6.58,0,12.07-3.07,14.38-9.22h12.18c-2.96,11.41-13.06,19.1-26.78,19.1-16.79,0-27.88-11.63-27.88-29.3s11.08-29.19,27.77-29.19,27.44,11.19,27.44,28.1v4.5Zm-42.91-8.34h30.73c-.66-9.77-7.13-14.71-15.25-14.71s-14.6,4.94-15.47,14.71Z"/>
          <polygon class="cls-3" points="847.42 237.19 871.46 212.94 856.53 212.94 831.95 237.96 831.95 198.01 819.99 198.01 819.99 269.23 832.28 269.23 832.28 252.33 838.86 245.64 856.53 269.23 871.68 269.23 847.42 237.19"/>
        </g>
        <g>
          <path class="cls-3" d="m361.56,235.05v34.74h-12.09v-32.56c0-9.48-4.47-13.5-11.54-13.5s-11.98,4.25-12.31,13.83v32.24h-11.65v-31.8c0-9.69-4.36-14.27-11.44-14.27-7.73,0-12.52,4.79-12.52,13.72v32.35h-11.87v-55.76h10.78l1.41,6.32c2.94-4.9,8.5-7.4,15.03-7.4,8.06,0,14.59,3.38,17.86,10.13,3.27-7.08,10.46-10.13,17.43-10.13,11.76,0,20.91,7.62,20.91,22.11Z"/>
          <path class="cls-3" d="m427.24,260.86v8.93h-6.75c-4.57,0-8.71-1.74-9.58-7.08-3.16,4.9-10.02,8.17-18.73,8.17-12.31,0-20.15-6.42-20.15-17.1,0-9.48,5.99-16.45,21.24-16.45h16.23v-2.83c0-8.17-4.9-11.98-12.2-11.98s-12.2,3.7-12.52,9.48h-11c.33-12.09,10.24-19.06,23.96-19.06s23.74,6.53,23.74,21.67v22.54c0,3.05,1.2,3.7,3.7,3.7h2.07Zm-17.75-15.36h-14.59c-8.06,0-10.56,3.6-10.56,7.73,0,5.66,4.47,8.17,10.56,8.17,8.28,0,14.59-4.47,14.59-13.61v-2.29Z"/>
          <path class="cls-3" d="m470.48,214.03v10.67h-7.95c-9.26,0-12.85,5.88-12.85,15.36v29.73h-11.98v-55.76h10.89l1.41,7.19c2.07-3.92,6.75-7.19,13.18-7.19h7.3Z"/>
          <rect class="cls-3" x="480.93" y="214.03" width="11.87" height="55.76"/>
          <path class="cls-3" d="m558.48,260.86v8.93h-6.75c-4.57,0-8.71-1.74-9.58-7.08-3.16,4.9-10.02,8.17-18.73,8.17-12.31,0-20.15-6.42-20.15-17.1,0-9.48,5.99-16.45,21.24-16.45h16.23v-2.83c0-8.17-4.9-11.98-12.2-11.98s-12.2,3.7-12.52,9.48h-11c.33-12.09,10.24-19.06,23.96-19.06s23.74,6.53,23.74,21.67v22.54c0,3.05,1.2,3.7,3.7,3.7h2.07Zm-17.75-15.36h-14.59c-8.06,0-10.56,3.6-10.56,7.73,0,5.66,4.47,8.17,10.56,8.17,8.28,0,14.59-4.47,14.59-13.61v-2.29Z"/>
          <path class="cls-3" d="m620.56,236.46v33.33h-11.98v-30.82c0-10.46-5.34-15.57-13.51-15.57-9.26,0-14.27,6.53-14.27,16.45v29.95h-11.87v-55.76h10.78l.87,7.51c3.16-5.34,9.15-8.6,17.64-8.6,14.05,0,22.33,9.26,22.33,23.52Z"/>
          <path class="cls-3" d="m686.23,260.86v8.93h-6.75c-4.57,0-8.71-1.74-9.58-7.08-3.16,4.9-10.02,8.17-18.73,8.17-12.31,0-20.15-6.42-20.15-17.1,0-9.48,5.99-16.45,21.24-16.45h16.23v-2.83c0-8.17-4.9-11.98-12.2-11.98s-12.2,3.7-12.52,9.48h-11c.33-12.09,10.24-19.06,23.96-19.06s23.74,6.53,23.74,21.67v22.54c0,3.05,1.2,3.7,3.7,3.7h2.07Zm-17.75-15.36h-14.59c-8.06,0-10.56,3.6-10.56,7.73,0,5.66,4.47,8.17,10.56,8.17,8.28,0,14.59-4.47,14.59-13.61v-2.29Z"/>
        </g>
      </g>
    </g>
    <rect class="cls-3" x="481.28" y="197.98" width="11.87" height="10.02"/>
  </g>
</svg>