<svg width="30" height="30" viewBox="0 0 30 30" fill="none" xmlns="http://www.w3.org/2000/svg">
<circle cx="15" cy="15" r="15" fill="#004E42"/>
<path d="M19.4765 6.78584C20.2619 6.57539 21.0991 6.69275 21.7963 7.11104L27.0432 10.2587C28.4119 11.0798 28.898 12.8287 28.1495 14.2383L25.1999 19.7926C24.8094 20.5279 24.131 21.0678 23.3268 21.2833L8.28014 25.315C6.67974 25.7439 5.03474 24.7941 4.60591 23.1937L2.27654 14.5004C1.84771 12.9 2.79746 11.255 4.39786 10.8262L19.4765 6.78584Z" fill="white"/>
<path d="M6.61228 20.1715L7.27142 19.9949L7.0943 19.3339C8.09557 18.9475 8.43821 18.1787 8.21977 17.3635C7.95015 16.3573 7.05802 16.2814 6.27759 16.2859L6.00601 15.2723C6.34321 15.2686 6.69307 15.3401 7.01045 15.5149L7.3558 14.5879C6.87875 14.3221 6.33587 14.2314 5.75017 14.3175L5.56321 13.6198L4.90407 13.7964L5.08709 14.4794C4.168 14.8359 3.77628 15.6179 3.97504 16.3597C4.24269 17.3585 5.1048 17.4345 5.87625 17.4246L6.18129 18.563C5.68786 18.6008 5.23331 18.4471 4.89711 18.2302L4.56861 19.192C5.06251 19.4926 5.68117 19.6417 6.43516 19.5105L6.61228 20.1715ZM7.23055 17.7387C7.29353 17.9738 7.18231 18.2318 6.84437 18.4011L6.58066 17.4169C6.91675 17.4371 7.16561 17.4964 7.23055 17.7387ZM4.97717 16.0046C4.91026 15.7548 5.03833 15.5316 5.33506 15.4049L5.57318 16.2936C5.2601 16.2751 5.03424 16.2176 4.97717 16.0046Z" fill="#004E42"/>
<path d="M15.6355 20.2382L13.2186 11.2184L11.2037 11.7582L8.88623 15.7128L10.5847 16.7506L11.6898 14.8166L13.3095 20.8614L15.6355 20.2382Z" fill="#004E42"/>
<path d="M20.7131 19.0515C23.3501 18.345 23.9683 15.7299 23.3305 13.3498C22.6928 10.9698 20.8535 9.02765 18.2165 9.73423C15.5795 10.4408 14.9577 13.0424 15.5954 15.4224C16.2331 17.8025 18.0761 19.7581 20.7131 19.0515ZM20.1623 16.9961C19.0805 17.2859 18.376 16.3877 17.9484 14.792C17.5208 13.1962 17.6854 12.0796 18.7673 11.7897C19.8491 11.4998 20.55 12.3846 20.9776 13.9803C21.4051 15.576 21.2441 16.7062 20.1623 16.9961Z" fill="#004E42"/>
</svg>
