<svg width="30" height="30" viewBox="0 0 30 30" fill="none" xmlns="http://www.w3.org/2000/svg">
<circle cx="15" cy="15" r="15" fill="#004E42"/>
<path d="M19.4765 6.78559C20.2619 6.57515 21.0991 6.69251 21.7963 7.11079L27.0432 10.2585C28.4119 11.0795 28.898 12.8285 28.1495 14.2381L25.1999 19.7923C24.8094 20.5276 24.131 21.0676 23.3268 21.2831L8.28014 25.3148C6.67974 25.7436 5.03474 24.7939 4.60591 23.1935L2.27654 14.5001C1.84771 12.8998 2.79746 11.2547 4.39786 10.8259L19.4765 6.78559Z" fill="white"/>
<path d="M6.61228 20.1715L7.27142 19.9949L7.0943 19.3339C8.09557 18.9475 8.43821 18.1787 8.21977 17.3635C7.95015 16.3573 7.05802 16.2814 6.27759 16.2859L6.00601 15.2723C6.34321 15.2686 6.69307 15.3401 7.01045 15.5149L7.3558 14.5879C6.87875 14.3221 6.33587 14.2314 5.75017 14.3175L5.56321 13.6198L4.90407 13.7964L5.08709 14.4794C4.168 14.8359 3.77628 15.6179 3.97504 16.3597C4.24269 17.3585 5.1048 17.4345 5.87625 17.4246L6.18129 18.563C5.68786 18.6008 5.23331 18.4471 4.89711 18.2302L4.56861 19.192C5.06251 19.4926 5.68117 19.6417 6.43516 19.5105L6.61228 20.1715ZM7.23055 17.7387C7.29353 17.9738 7.18231 18.2318 6.84437 18.4011L6.58066 17.4169C6.91675 17.4371 7.16561 17.4964 7.23055 17.7387ZM4.97717 16.0046C4.91026 15.7548 5.03833 15.5316 5.33506 15.4049L5.57318 16.2936C5.2601 16.2751 5.03424 16.2176 4.97717 16.0046Z" fill="#004E42"/>
<path d="M15.6813 20.226L13.2644 11.2062L11.2495 11.7461L8.93203 15.7006L10.6305 16.7384L11.7356 14.8045L13.3553 20.8492L15.6813 20.226Z" fill="#004E42"/>
<path d="M20.7183 19.0502C23.0578 18.4234 24.1984 16.7843 23.6766 14.837C23.1875 13.0114 21.5245 12.2685 19.9829 12.6816C19.1851 12.8953 18.5616 13.3813 18.2412 13.9164L17.7737 12.172L21.9929 11.0415L21.4494 9.01301L14.9043 10.7668L16.3319 16.0948L18.0462 16.0558C18.4198 15.4484 18.9334 15.0934 19.6501 14.9013C20.5832 14.6513 21.1724 14.9572 21.3355 15.5658C21.484 16.1202 21.1277 16.7375 20.1405 17.002C19.275 17.2339 18.3397 17.1511 17.5619 16.7363L16.7427 18.7096C17.785 19.2999 19.1226 19.4778 20.7183 19.0502Z" fill="#004E42"/>
</svg>
