<svg width="30" height="30" viewBox="0 0 30 30" fill="none" xmlns="http://www.w3.org/2000/svg">
<circle cx="15" cy="15" r="15" fill="#004E42"/>
<path d="M19.4765 6.78559C20.2619 6.57515 21.0991 6.69251 21.7963 7.11079L27.0432 10.2585C28.4119 11.0795 28.898 12.8285 28.1495 14.2381L25.1999 19.7923C24.8094 20.5276 24.131 21.0676 23.3268 21.2831L8.28014 25.3148C6.67974 25.7436 5.03474 24.7939 4.60591 23.1935L2.27654 14.5001C1.84771 12.8998 2.79746 11.2547 4.39786 10.8259L19.4765 6.78559Z" fill="white"/>
<path d="M6.61228 20.1715L7.27142 19.9949L7.0943 19.3339C8.09557 18.9475 8.43821 18.1787 8.21977 17.3635C7.95015 16.3573 7.05802 16.2814 6.27759 16.2859L6.00601 15.2723C6.34321 15.2686 6.69307 15.3401 7.01045 15.5149L7.3558 14.5879C6.87875 14.3221 6.33587 14.2314 5.75017 14.3175L5.56321 13.6198L4.90407 13.7964L5.08709 14.4794C4.168 14.8359 3.77628 15.6179 3.97504 16.3597C4.24269 17.3585 5.1048 17.4345 5.87625 17.4246L6.18129 18.563C5.68786 18.6008 5.23331 18.4471 4.89711 18.2302L4.56861 19.192C5.06251 19.4926 5.68117 19.6417 6.43516 19.5105L6.61228 20.1715ZM7.23055 17.7387C7.29353 17.9738 7.18231 18.2318 6.84437 18.4011L6.58066 17.4169C6.91675 17.4371 7.16561 17.4964 7.23055 17.7387ZM4.97717 16.0046C4.91026 15.7548 5.03833 15.5316 5.33506 15.4049L5.57318 16.2936C5.2601 16.2751 5.03424 16.2176 4.97717 16.0046Z" fill="#004E42"/>
<path d="M17.0321 19.8638L16.4886 17.8354L13.189 18.7195C15.0135 16.5494 15.6854 15.1084 15.3122 13.7155C14.8302 11.9169 12.9833 11.1364 10.8602 11.7053C9.60255 12.0422 8.28869 12.8726 7.61119 14.1846L9.30895 15.382C9.79499 14.5996 10.4508 14.018 11.4515 13.7499C12.1141 13.5723 12.7826 13.7411 12.9457 14.3496C13.1884 15.2556 12.6249 16.0734 9.47403 19.9468L9.95958 21.7589L17.0321 19.8638Z" fill="#004E42"/>
<path d="M21.8008 18.76C24.1403 18.1331 25.2809 16.4941 24.7591 14.5468C24.27 12.7212 22.607 11.9783 21.0654 12.3913C20.2675 12.6051 19.6441 13.091 19.3237 13.6262L18.8562 11.8817L23.0754 10.7512L22.5319 8.72278L15.9868 10.4765L17.4144 15.8046L19.1287 15.7656C19.5022 15.1582 20.0159 14.8032 20.7326 14.6111C21.6657 14.3611 22.2549 14.667 22.418 15.2755C22.5665 15.83 22.2101 16.4473 21.223 16.7118C20.3575 16.9437 19.4222 16.8609 18.6444 16.4461L17.8252 18.4194C18.8675 19.0097 20.2051 19.1876 21.8008 18.76Z" fill="#004E42"/>
</svg>
