<svg width="30" height="30" viewBox="0 0 30 30" fill="none" xmlns="http://www.w3.org/2000/svg">
<circle cx="15" cy="15" r="15" fill="#004E42"/>
<path d="M19.4765 6.78559C20.2619 6.57515 21.0991 6.69251 21.7963 7.11079L27.0432 10.2585C28.4119 11.0795 28.898 12.8285 28.1495 14.2381L25.1999 19.7923C24.8094 20.5276 24.131 21.0676 23.3268 21.2831L8.28014 25.3148C6.67974 25.7436 5.03474 24.7939 4.60591 23.1935L2.27654 14.5001C1.84771 12.8998 2.79746 11.2547 4.39786 10.8259L19.4765 6.78559Z" fill="white"/>
<path d="M6.61228 20.1715L7.27142 19.9949L7.0943 19.3339C8.09557 18.9475 8.43821 18.1787 8.21977 17.3635C7.95015 16.3573 7.05802 16.2814 6.27759 16.2859L6.00601 15.2723C6.34321 15.2686 6.69307 15.3401 7.01045 15.5149L7.3558 14.5879C6.87875 14.3221 6.33587 14.2314 5.75017 14.3175L5.56321 13.6198L4.90407 13.7964L5.08709 14.4794C4.168 14.8359 3.77628 15.6179 3.97504 16.3597C4.24269 17.3585 5.1048 17.4345 5.87625 17.4246L6.18129 18.563C5.68786 18.6008 5.23331 18.4471 4.89711 18.2302L4.56861 19.192C5.06251 19.4926 5.68117 19.6417 6.43516 19.5105L6.61228 20.1715ZM7.23055 17.7387C7.29353 17.9738 7.18231 18.2318 6.84437 18.4011L6.58066 17.4169C6.91675 17.4371 7.16561 17.4964 7.23055 17.7387ZM4.97717 16.0046C4.91026 15.7548 5.03833 15.5316 5.33506 15.4049L5.57318 16.2936C5.2601 16.2751 5.03424 16.2176 4.97717 16.0046Z" fill="#004E42"/>
<path d="M13.3969 21.0121C15.6417 20.4106 16.8357 18.9166 16.4118 17.3344C16.0639 16.0362 14.7016 15.6041 13.7162 15.7667C14.7374 15.3046 15.4296 14.264 15.147 13.2092C14.7484 11.7217 13.1992 11.0788 10.9003 11.6947C9.23698 12.1404 8.22354 13.0642 7.68101 14.1227L9.19475 15.2824C9.67814 14.5442 10.3828 14.0365 11.2077 13.8155C12.0731 13.5836 12.7911 13.6666 12.9433 14.2345C13.0701 14.7078 12.6043 15.079 11.6712 15.3291C11.3331 15.4196 10.6299 15.6081 10.4505 15.6417L11.0049 17.7107C11.1365 17.6609 11.8226 17.4626 12.2147 17.3575C13.4453 17.0278 13.8928 17.1832 14.0305 17.6971C14.1646 18.1975 13.7521 18.7138 12.7514 18.9819C11.9671 19.1921 10.8696 19.1528 10.0366 18.6948L9.28407 20.5922C10.2182 21.2116 11.6659 21.4759 13.3969 21.0121Z" fill="#004E42"/>
<path d="M21.7617 18.7707C24.1011 18.1439 25.2418 16.5048 24.72 14.5575C24.2308 12.7319 22.5679 11.989 21.0263 12.4021C20.2284 12.6158 19.6049 13.1018 19.2845 13.6369L18.8171 11.8925L23.0363 10.7619L22.4928 8.7335L15.9476 10.4873L17.3753 15.8153L19.0896 15.7763C19.4631 15.1689 19.9767 14.8139 20.6935 14.6218C21.6265 14.3718 22.2158 14.6777 22.3789 15.2863C22.5274 15.8407 22.171 16.458 21.1839 16.7225C20.3184 16.9544 19.3831 16.8716 18.6052 16.4568L17.786 18.4301C18.8284 19.0204 20.166 19.1983 21.7617 18.7707Z" fill="#004E42"/>
</svg>
