<svg width="30" height="30" viewBox="0 0 30 30" fill="none" xmlns="http://www.w3.org/2000/svg">
<circle cx="15" cy="15" r="15" fill="#004E42"/>
<path d="M19.4765 6.78559C20.2619 6.57515 21.0991 6.69251 21.7963 7.11079L27.0432 10.2585C28.4119 11.0795 28.898 12.8285 28.1495 14.2381L25.1999 19.7923C24.8094 20.5276 24.131 21.0676 23.3268 21.2831L8.28014 25.3148C6.67974 25.7436 5.03474 24.7939 4.60591 23.1935L2.27654 14.5001C1.84771 12.8998 2.79746 11.2547 4.39786 10.8259L19.4765 6.78559Z" fill="white"/>
<path d="M6.61228 20.1715L7.27142 19.9949L7.0943 19.3339C8.09557 18.9475 8.43821 18.1787 8.21977 17.3635C7.95015 16.3573 7.05802 16.2814 6.27759 16.2859L6.00601 15.2723C6.34321 15.2686 6.69307 15.3401 7.01045 15.5149L7.3558 14.5879C6.87875 14.3221 6.33587 14.2314 5.75017 14.3175L5.56321 13.6198L4.90407 13.7964L5.08709 14.4794C4.168 14.8359 3.77628 15.6179 3.97504 16.3597C4.24269 17.3585 5.1048 17.4345 5.87625 17.4246L6.18129 18.563C5.68786 18.6008 5.23331 18.4471 4.89711 18.2302L4.56861 19.192C5.06251 19.4926 5.68117 19.6417 6.43516 19.5105L6.61228 20.1715ZM7.23055 17.7387C7.29353 17.9738 7.18231 18.2318 6.84437 18.4011L6.58066 17.4169C6.91675 17.4371 7.16561 17.4964 7.23055 17.7387ZM4.97717 16.0046C4.91026 15.7548 5.03833 15.5316 5.33506 15.4049L5.57318 16.2936C5.2601 16.2751 5.03424 16.2176 4.97717 16.0046Z" fill="#004E42"/>
<path d="M16.4804 20.0119L16.0383 18.3621L17.1337 18.0686L16.5866 16.0267L15.4912 16.3202L14.0636 10.9921L10.8316 11.8581L8.8995 18.3328L9.38505 20.1449L13.6989 18.989L14.1409 20.6388L16.4804 20.0119ZM13.1517 16.947L11.0962 17.4978L12.2676 13.6474L13.1517 16.947Z" fill="#004E42"/>
<path d="M21.8548 18.7458C24.4918 18.0392 25.11 15.4241 24.4723 13.0441C23.8345 10.664 21.9952 8.72192 19.3582 9.42849C16.7212 10.1351 16.0994 12.7367 16.7371 15.1167C17.3749 17.4967 19.2178 19.4524 21.8548 18.7458ZM21.304 16.6903C20.2222 16.9802 19.5177 16.0819 19.0901 14.4862C18.6626 12.8905 18.8272 11.7739 19.909 11.484C20.9908 11.1941 21.6917 12.0789 22.1193 13.6746C22.5468 15.2703 22.3859 16.4004 21.304 16.6903Z" fill="#004E42"/>
</svg>
