<svg width="30" height="30" viewBox="0 0 30 30" fill="none" xmlns="http://www.w3.org/2000/svg">
<circle cx="15" cy="15" r="15" fill="#C89393"/>
<path d="M19.4419 6.5268C20.2273 6.31636 21.0644 6.43372 21.7617 6.852L27.0085 9.99968C28.3772 10.8208 28.8634 12.5697 28.1148 13.9793L25.1652 19.5335C24.7748 20.2688 24.0963 20.8088 23.2921 21.0243L8.24547 25.056C6.64508 25.4848 5.00007 24.5351 4.57124 22.9347L2.24187 14.2414C1.81304 12.641 2.76279 10.996 4.36319 10.5671L19.4419 6.5268Z" fill="white"/>
<path d="M12.2546 21.1444L9.83775 12.1246L7.82283 12.6645L5.50537 16.619L7.20384 17.6568L8.30896 15.7229L9.92865 21.7677L12.2546 21.1444Z" fill="#C89393"/>
<path d="M17.3322 19.9578C19.9692 19.2512 20.5874 16.6361 19.9497 14.2561C19.312 11.876 17.4726 9.9339 14.8356 10.6405C12.1987 11.3471 11.5768 13.9486 12.2146 16.3287C12.8523 18.7087 14.6952 20.6644 17.3322 19.9578ZM16.7814 17.9023C15.6996 18.1922 14.9951 17.2939 14.5675 15.6982C14.14 14.1025 14.3046 12.9858 15.3864 12.696C16.4683 12.4061 17.1691 13.2908 17.5967 14.8865C18.0243 16.4823 17.8633 17.6124 16.7814 17.9023Z" fill="#C89393"/>
<path d="M20.4632 11.0151C21.3979 10.7647 22.2284 11.1649 22.588 11.9158L23.0024 10.6098L23.0688 10.4009L24.7497 9.95049L24.5288 10.6466L23.7314 13.1532C23.8768 13.072 24.0378 13.0044 24.2147 12.957C25.2697 12.6744 26.1968 13.2305 26.4521 14.1834C26.7064 15.1329 26.1733 16.0657 25.1231 16.3472C24.6086 16.4851 24.114 16.4286 23.7102 16.2021C23.3989 16.0273 23.1579 15.7598 23.0073 15.435L22.5952 16.7344L22.5286 16.9423L20.8561 17.3904L21.0761 16.6946L21.8631 14.2059C21.7149 14.2885 21.5513 14.3572 21.3716 14.4053C20.8571 14.5432 20.3625 14.4867 19.9587 14.2602C19.5561 14.0341 19.2695 13.6536 19.1463 13.1939C18.8917 12.2438 19.4052 11.2986 20.4632 11.0151ZM24.5991 14.5727C24.5989 14.574 24.6005 14.5758 24.6004 14.5775C24.5992 14.5922 24.5996 14.6238 24.6136 14.676C24.6255 14.7203 24.6379 14.7444 24.6451 14.7556C24.6537 14.7556 24.6698 14.756 24.6949 14.7493C24.7248 14.7412 24.7406 14.7329 24.7479 14.728C24.7489 14.7178 24.749 14.691 24.7363 14.6432C24.7228 14.5929 24.7084 14.5661 24.7004 14.5547C24.6987 14.5523 24.6969 14.5501 24.6958 14.5489C24.6886 14.548 24.6722 14.5481 24.6431 14.5559C24.6187 14.5624 24.6053 14.5688 24.5991 14.5727ZM20.8558 12.6276C20.8556 12.629 20.8563 12.6308 20.8561 12.6326C20.855 12.6477 20.8556 12.6798 20.8697 12.7321C20.882 12.7779 20.8952 12.8016 20.902 12.8114L20.9023 12.8123C20.9088 12.8127 20.9219 12.8131 20.9434 12.8074C20.9984 12.7926 21.0023 12.7752 20.9961 12.7852C20.9933 12.7897 20.9944 12.7908 20.9953 12.7824C20.9964 12.7721 20.9967 12.7462 20.9847 12.7013C20.9711 12.6503 20.9565 12.6231 20.9486 12.6119C20.9471 12.6096 20.9453 12.6082 20.9443 12.607C20.9371 12.6062 20.9207 12.6062 20.8916 12.614C20.8724 12.6192 20.8614 12.6243 20.8558 12.6276Z" fill="#C89393" stroke="white" stroke-width="0.8"/>
</svg>
