<svg width="30" height="30" viewBox="0 0 30 30" fill="none" xmlns="http://www.w3.org/2000/svg">
<path fill-rule="evenodd" clip-rule="evenodd" d="M5.17004 25.3096C4.30697 25.7956 3.85594 25.0627 3.35933 24.4987C1.79178 22.719 0.808044 20.6367 0.2432 18.3449C0.137029 17.915 0.167853 17.5253 0.412601 17.1106C1.15765 15.8505 1.09863 14.5507 0.31644 13.3443C-0.0128763 12.8366 -0.0555557 12.3582 0.0540408 11.835C0.736385 8.57475 2.29972 5.82219 4.82149 3.63289C5.14317 3.35337 5.42954 3.13233 5.95645 3.2219C7.83224 3.54147 9.17901 2.75796 9.98623 1.0442C10.1198 0.760458 10.2502 0.541792 10.5977 0.467234C13.497 -0.156096 16.3916 -0.155569 19.2914 0.467761C19.6473 0.544426 19.774 0.781534 19.8994 1.05394C20.7009 2.78826 22.0624 3.51802 23.9298 3.22875C24.3934 3.15709 24.6774 3.29883 24.9931 3.57335C27.6502 5.8841 29.2739 8.77576 29.9017 12.2407C29.9676 12.6043 29.8604 12.8627 29.6659 13.1573C28.7839 14.4956 28.6767 15.8732 29.5429 17.2721C29.6831 17.4992 29.7771 17.7145 29.7097 18.0148C29.1053 20.6978 27.9427 23.0765 25.9984 25.0516C25.6823 25.3725 25.3867 25.4402 24.9396 25.3757C23.2192 25.1267 21.6838 26.1149 21.2143 27.8097C21.0692 28.3353 20.8215 28.5969 20.3481 28.7698C16.7462 30.0847 13.1487 30.0673 9.54257 28.7845C9.06309 28.6143 8.83652 28.3301 8.67581 27.8379C8.12836 26.1642 6.88617 25.2811 5.17004 25.3096Z" fill="#31393B"/>
<path d="M9.95234 19V10.996H8.46434L5.94434 13.528L6.91634 14.548L8.24834 13.192V19H9.95234Z" fill="white"/>
<path d="M14.4659 19.144C16.7579 19.144 17.7779 17.068 17.7779 15.004C17.7779 12.94 16.7579 10.876 14.4659 10.876C12.1739 10.876 11.1539 12.94 11.1539 15.004C11.1539 17.068 12.1739 19.144 14.4659 19.144ZM14.4659 17.632C13.3259 17.632 12.8939 16.48 12.8939 15.004C12.8939 13.528 13.3259 12.388 14.4659 12.388C15.6179 12.388 16.0379 13.528 16.0379 15.004C16.0379 16.48 15.6059 17.632 14.4659 17.632Z" fill="white"/>
<path d="M20.4363 14.8911C21.3116 14.8911 21.881 14.2642 21.881 13.4543C21.881 12.6357 21.3116 12 20.4363 12C19.5694 12 19 12.6357 19 13.4543C19 14.2642 19.5694 14.8911 20.4363 14.8911ZM20.5212 17.8955L24.1501 12.0871H23.5043L19.8839 17.8955H20.5212ZM23.5552 18C24.4221 18 25 17.373 25 16.5631C25 15.7446 24.4221 15.1001 23.5552 15.1001C22.6884 15.1001 22.119 15.7446 22.119 16.5631C22.119 17.373 22.6884 18 23.5552 18ZM20.4363 14.2119C20.0538 14.2119 19.7649 13.9158 19.7649 13.4543C19.7649 12.9753 20.0538 12.6792 20.4363 12.6792C20.8272 12.6792 21.1161 12.9753 21.1161 13.4543C21.1161 13.9158 20.8272 14.2119 20.4363 14.2119ZM23.5552 17.3208C23.1643 17.3208 22.8839 17.0334 22.8839 16.5631C22.8839 16.0842 23.1643 15.7881 23.5552 15.7881C23.9462 15.7881 24.2351 16.0842 24.2351 16.5631C24.2351 17.0334 23.9462 17.3208 23.5552 17.3208Z" fill="white"/>
</svg>
