<svg width="30" height="30" viewBox="0 0 30 30" fill="none" xmlns="http://www.w3.org/2000/svg">
<circle cx="15" cy="15" r="15" fill="#FF5B00"/>
<path d="M9.01141 19.0002V10.3292H7.07441L4.04541 13.3192L5.31941 14.6582L6.77541 13.1892V19.0002H9.01141Z" fill="white"/>
<path d="M13.8509 19.1562C16.3859 19.1562 17.5689 16.9592 17.5689 14.6712C17.5689 12.3832 16.3859 10.1992 13.8509 10.1992C11.3159 10.1992 10.1329 12.3832 10.1329 14.6712C10.1329 16.9592 11.3159 19.1562 13.8509 19.1562ZM13.8509 17.1802C12.8109 17.1802 12.3949 16.2052 12.3949 14.6712C12.3949 13.1372 12.8109 12.1752 13.8509 12.1752C14.8909 12.1752 15.3069 13.1372 15.3069 14.6712C15.3069 16.2052 14.8909 17.1802 13.8509 17.1802Z" fill="white"/>
<path d="M21.9632 19.1562C24.4982 19.1562 25.6812 16.9592 25.6812 14.6712C25.6812 12.3832 24.4982 10.1992 21.9632 10.1992C19.4282 10.1992 18.2452 12.3832 18.2452 14.6712C18.2452 16.9592 19.4282 19.1562 21.9632 19.1562ZM21.9632 17.1802C20.9232 17.1802 20.5072 16.2052 20.5072 14.6712C20.5072 13.1372 20.9232 12.1752 21.9632 12.1752C23.0032 12.1752 23.4192 13.1372 23.4192 14.6712C23.4192 16.2052 23.0032 17.1802 21.9632 17.1802Z" fill="white"/>
<path d="M25.9325 16.73V15.7881H25V13.9419H25.9325V13H27.7881V13.9419H28.73V15.7881H27.7881V16.73H25.9325Z" fill="white" stroke="#FF5B00" stroke-width="0.753532"/>
</svg>
