<svg width="30" height="30" viewBox="0 0 30 30" fill="none" xmlns="http://www.w3.org/2000/svg">
<circle cx="15" cy="15" r="15" fill="#FF5271"/>
<path d="M12.0435 27.05H17.8143C19.5085 27.05 20.3689 26.1897 20.5542 24.3367L21.8513 10.7699C21.9307 10.0022 21.4939 9.49928 20.7395 9.49928H15.9481L15.9878 8.95662C16.0275 8.34777 16.2128 7.9904 16.6628 7.6595L20.8454 4.65497C21.838 3.95347 20.7924 2.44459 19.7335 3.21226L15.6966 6.12415C14.7172 6.82565 14.2936 7.60656 14.1877 8.85073L14.1348 9.49928H9.10517C8.3772 9.49928 7.94041 10.0155 8.00659 10.7699L9.31694 24.3367C9.50224 26.1897 10.3361 27.05 12.0435 27.05Z" fill="white"/>
<path d="M12.7938 20H11.3638V15.16L10.2638 16.29L9.45375 15.44L11.5538 13.33H12.7938V20ZM13.7951 16.67C13.7951 14.95 14.6451 13.23 16.5551 13.23C18.4551 13.23 19.3151 14.95 19.3151 16.67C19.3151 18.39 18.4551 20.12 16.5551 20.12C14.6451 20.12 13.7951 18.39 13.7951 16.67ZM17.8651 16.67C17.8651 15.44 17.5051 14.49 16.5551 14.49C15.5951 14.49 15.2351 15.44 15.2351 16.67C15.2351 17.9 15.5951 18.86 16.5551 18.86C17.5051 18.86 17.8651 17.9 17.8651 16.67Z" fill="#FF5271"/>
</svg>
