<svg width="30" height="30" viewBox="0 0 30 30" fill="none" xmlns="http://www.w3.org/2000/svg">
<circle cx="15" cy="15" r="15" fill="#C89393"/>
<path d="M19.6494 6.5268C20.4348 6.31636 21.2719 6.43372 21.9692 6.852L27.2161 9.99968C28.5847 10.8208 29.0709 12.5697 28.3223 13.9793L25.3728 19.5335C24.9823 20.2688 24.3038 20.8088 23.4996 21.0243L8.45299 25.056C6.8526 25.4848 5.20759 24.5351 4.77876 22.9347L2.44939 14.2414C2.02056 12.641 2.97031 10.996 4.57071 10.5671L19.6494 6.5268Z" fill="white"/>
<path d="M13.3544 20.6373L12.8108 18.6088L9.51123 19.493C11.3357 17.3228 12.0077 15.8818 11.6344 14.4889C11.1525 12.6904 9.30555 11.9098 7.18245 12.4787C5.92481 12.8157 4.61095 13.646 3.93345 14.9581L5.63121 16.1555C6.11726 15.373 6.77309 14.7915 7.77379 14.5233C8.43641 14.3458 9.10486 14.5145 9.26792 15.123C9.51069 16.0291 8.94713 16.8468 5.7963 20.7203L6.28184 22.5324L13.3544 20.6373Z" fill="#C89393"/>
<path d="M17.6227 19.6675C20.2597 18.9609 20.8779 16.3458 20.2402 13.9658C19.6024 11.5857 17.7631 9.64362 15.1261 10.3502C12.4892 11.0568 11.8673 13.6584 12.505 16.0384C13.1428 18.4184 14.9857 20.3741 17.6227 19.6675ZM17.0719 17.612C15.9901 17.9019 15.2856 17.0036 14.858 15.4079C14.4305 13.8122 14.5951 12.6956 15.6769 12.4057C16.7587 12.1158 17.4596 13.0006 17.8872 14.5963C18.3147 16.192 18.1538 17.3221 17.0719 17.612Z" fill="#C89393"/>
<path d="M20.6707 11.0151C21.6054 10.7647 22.4359 11.1649 22.7955 11.9158L23.2099 10.6098L23.2763 10.4009L24.9572 9.95049L24.7363 10.6466L23.939 13.1532C24.0843 13.072 24.2454 13.0044 24.4222 12.957C25.4772 12.6744 26.4043 13.2305 26.6596 14.1834C26.9139 15.1329 26.3809 16.0657 25.3306 16.3472C24.8161 16.4851 24.3215 16.4286 23.9178 16.2021C23.6064 16.0273 23.3654 15.7598 23.2148 15.435L22.8027 16.7344L22.7361 16.9423L21.0636 17.3904L21.2836 16.6946L22.0706 14.2059C21.9224 14.2885 21.7588 14.3572 21.5791 14.4053C21.0646 14.5432 20.57 14.4867 20.1662 14.2602C19.7636 14.0341 19.4771 13.6536 19.3538 13.1939C19.0992 12.2438 19.6127 11.2986 20.6707 11.0151ZM24.8066 14.5727C24.8065 14.574 24.808 14.5758 24.8079 14.5775C24.8067 14.5922 24.8071 14.6238 24.8211 14.676C24.833 14.7203 24.8454 14.7444 24.8526 14.7556C24.8613 14.7556 24.8773 14.756 24.9024 14.7493C24.9323 14.7412 24.9481 14.7329 24.9554 14.728C24.9564 14.7178 24.9566 14.691 24.9438 14.6432C24.9303 14.5929 24.9159 14.5661 24.9079 14.5547C24.9063 14.5523 24.9044 14.5501 24.9033 14.5489C24.8961 14.548 24.8797 14.5481 24.8506 14.5559C24.8262 14.5624 24.8128 14.5688 24.8066 14.5727ZM21.0633 12.6276C21.0632 12.629 21.0638 12.6308 21.0637 12.6326C21.0625 12.6477 21.0632 12.6798 21.0772 12.7321C21.0895 12.7779 21.1027 12.8016 21.1095 12.8114L21.1098 12.8123C21.1163 12.8127 21.1294 12.8131 21.1509 12.8074C21.2059 12.7926 21.2099 12.7752 21.2036 12.7852C21.2008 12.7897 21.202 12.7908 21.2029 12.7824C21.2039 12.7721 21.2043 12.7462 21.1923 12.7013C21.1786 12.6503 21.164 12.6231 21.1562 12.6119C21.1546 12.6096 21.1529 12.6082 21.1518 12.607C21.1446 12.6062 21.1282 12.6062 21.0991 12.614C21.0799 12.6192 21.0689 12.6243 21.0633 12.6276Z" fill="#C89393" stroke="white" stroke-width="0.8"/>
</svg>
