<svg width="30" height="30" viewBox="0 0 30 30" fill="none" xmlns="http://www.w3.org/2000/svg">
<circle cx="15" cy="15" r="15" fill="#8B066A"/>
<path d="M10.6551 18V16.5H8.21508C9.87508 15.34 10.6051 14.47 10.6051 13.44C10.6051 12.11 9.47508 11.23 7.90508 11.23C6.97508 11.23 5.91508 11.56 5.20508 12.34L6.15508 13.48C6.63508 13.03 7.19508 12.75 7.93508 12.75C8.42508 12.75 8.85508 12.99 8.85508 13.44C8.85508 14.11 8.31508 14.57 5.42508 16.66V18H10.6551Z" fill="white"/>
<path d="M14.1793 18.12C16.1293 18.12 17.0393 16.43 17.0393 14.67C17.0393 12.91 16.1293 11.23 14.1793 11.23C12.2293 11.23 11.3193 12.91 11.3193 14.67C11.3193 16.43 12.2293 18.12 14.1793 18.12ZM14.1793 16.6C13.3793 16.6 13.0593 15.85 13.0593 14.67C13.0593 13.49 13.3793 12.75 14.1793 12.75C14.9793 12.75 15.2993 13.49 15.2993 14.67C15.2993 15.85 14.9793 16.6 14.1793 16.6Z" fill="white"/>
<path d="M19.2593 14.57C20.3293 14.57 21.0193 13.84 21.0193 12.91C21.0193 11.97 20.3293 11.23 19.2593 11.23C18.2093 11.23 17.5293 11.97 17.5293 12.91C17.5293 13.84 18.2093 14.57 19.2593 14.57ZM19.4693 18L23.7393 11.33H22.8593L18.5993 18H19.4693ZM23.0393 18.12C24.0893 18.12 24.7793 17.39 24.7793 16.46C24.7793 15.52 24.0893 14.78 23.0393 14.78C21.9793 14.78 21.2993 15.52 21.2993 16.46C21.2993 17.39 21.9793 18.12 23.0393 18.12ZM19.2593 13.65C18.8793 13.65 18.5893 13.39 18.5893 12.91C18.5893 12.41 18.8793 12.15 19.2593 12.15C19.6493 12.15 19.9493 12.41 19.9493 12.91C19.9493 13.39 19.6493 13.65 19.2593 13.65ZM23.0393 17.2C22.6493 17.2 22.3593 16.95 22.3593 16.46C22.3593 15.96 22.6493 15.7 23.0393 15.7C23.4293 15.7 23.7193 15.96 23.7193 16.46C23.7193 16.95 23.4293 17.2 23.0393 17.2Z" fill="white"/>
</svg>
