<svg width="30" height="30" viewBox="0 0 30 30" fill="none" xmlns="http://www.w3.org/2000/svg">
<circle cx="15" cy="15" r="15" fill="black"/>
<path d="M9.3249 19.0001V16.8001H6.6124C8.5999 15.4876 9.2499 14.5501 9.2499 13.4126C9.2499 11.7376 7.8374 10.5376 5.6749 10.5376C4.5124 10.5376 3.1124 10.9251 2.1499 11.9501L3.5249 13.6251C4.1624 13.0876 4.8374 12.7626 5.7249 12.7626C6.2624 12.7626 6.6874 13.0126 6.6874 13.4126C6.6874 14.0376 6.3249 14.3501 2.5124 17.0376V19.0001H9.3249Z" fill="white"/>
<path d="M13.5909 19.1501C16.0784 19.1501 17.2909 17.1001 17.2909 14.8376C17.2909 12.5751 16.0784 10.5376 13.5909 10.5376C11.1034 10.5376 9.89092 12.5751 9.89092 14.8376C9.89092 17.1001 11.1034 19.1501 13.5909 19.1501ZM13.5909 16.9251C12.7909 16.9251 12.4284 16.2501 12.4284 14.8376C12.4284 13.4251 12.7909 12.7626 13.5909 12.7626C14.3909 12.7626 14.7534 13.4251 14.7534 14.8376C14.7534 16.2501 14.3909 16.9251 13.5909 16.9251Z" fill="white"/>
<path d="M21.44 19.1501C23.9275 19.1501 25.14 17.1001 25.14 14.8376C25.14 12.5751 23.9275 10.5376 21.44 10.5376C18.9525 10.5376 17.74 12.5751 17.74 14.8376C17.74 17.1001 18.9525 19.1501 21.44 19.1501ZM21.44 16.9251C20.64 16.9251 20.2775 16.2501 20.2775 14.8376C20.2775 13.4251 20.64 12.7626 21.44 12.7626C22.24 12.7626 22.6025 13.4251 22.6025 14.8376C22.6025 16.2501 22.24 16.9251 21.44 16.9251Z" fill="white"/>
<path d="M25.4652 16.73V15.7881H24.5327V13.9419H25.4652V13H27.3208V13.9419H28.2627V15.7881H27.3208V16.73H25.4652Z" fill="white" stroke="black" stroke-width="0.753532"/>
</svg>
