<svg width="30" height="30" viewBox="0 0 30 30" fill="none" xmlns="http://www.w3.org/2000/svg">
<circle cx="15" cy="15" r="15" fill="#C89393"/>
<path d="M19.6494 6.5268C20.4348 6.31636 21.2719 6.43372 21.9692 6.852L27.2161 9.99968C28.5847 10.8208 29.0709 12.5697 28.3223 13.9793L25.3728 19.5335C24.9823 20.2688 24.3038 20.8088 23.4996 21.0243L8.45299 25.056C6.8526 25.4848 5.20759 24.5351 4.77876 22.9347L2.44939 14.2414C2.02056 12.641 2.97031 10.996 4.57071 10.5671L19.6494 6.5268Z" fill="white"/>
<path fill-rule="evenodd" clip-rule="evenodd" d="M14.796 17.2415L14.0149 19.102C15.0607 19.6733 16.3685 19.814 17.9235 19.3714C20.2034 18.7227 21.2985 17.1147 20.7585 15.217C20.256 13.4512 18.6174 12.7493 17.1151 13.1768C16.3376 13.3981 15.7349 13.883 15.3541 14.4472L14.8403 12.6418L19.031 11.4493L18.4872 9.53845L12.109 11.3535L13.5753 16.5062L15.2523 16.4421C15.6124 15.8553 16.1058 15.4869 16.8043 15.2882C17.7136 15.0294 18.3023 15.3462 18.4786 15.9656C18.6398 16.5322 18.3117 17.1812 17.3497 17.4549C16.5063 17.6949 15.5634 17.6356 14.796 17.2415ZM5.87866 20.7193L6.38119 22.4852L13.2733 20.5238L12.7108 18.5471L9.32404 19.5109C11.2479 17.3109 11.8836 15.8907 11.5011 14.5465C10.9986 12.7806 9.17944 12.0447 7.11047 12.6335C5.88491 12.9823 4.61179 13.8147 3.96866 15.1088L5.6481 16.2549C6.11189 15.4819 6.74486 14.9029 7.6805 14.6366C8.36577 14.4416 9.02243 14.5966 9.19494 15.2028C9.44245 16.0726 8.90334 16.8813 5.87866 20.7193Z" fill="#C89393"/>
<path d="M20.6707 11.0151C21.6054 10.7647 22.4359 11.1649 22.7955 11.9158L23.2099 10.6098L23.2763 10.4009L24.9572 9.95049L24.7363 10.6466L23.939 13.1532C24.0843 13.072 24.2454 13.0044 24.4222 12.957C25.4772 12.6744 26.4043 13.2305 26.6596 14.1834C26.9139 15.1329 26.3809 16.0657 25.3306 16.3472C24.8161 16.4851 24.3215 16.4286 23.9178 16.2021C23.6064 16.0273 23.3654 15.7598 23.2148 15.435L22.8027 16.7344L22.7361 16.9423L21.0636 17.3904L21.2836 16.6946L22.0706 14.2059C21.9224 14.2885 21.7588 14.3572 21.5791 14.4053C21.0646 14.5432 20.57 14.4867 20.1662 14.2602C19.7636 14.0341 19.4771 13.6536 19.3538 13.1939C19.0992 12.2438 19.6127 11.2986 20.6707 11.0151ZM24.8066 14.5727C24.8065 14.574 24.808 14.5758 24.8079 14.5775C24.8067 14.5922 24.8071 14.6238 24.8211 14.676C24.833 14.7203 24.8454 14.7444 24.8526 14.7556C24.8613 14.7556 24.8773 14.756 24.9024 14.7493C24.9323 14.7412 24.9481 14.7329 24.9554 14.728C24.9564 14.7178 24.9566 14.691 24.9438 14.6432C24.9303 14.5929 24.9159 14.5661 24.9079 14.5547C24.9063 14.5523 24.9044 14.5501 24.9033 14.5489C24.8961 14.548 24.8797 14.5481 24.8506 14.5559C24.8262 14.5624 24.8128 14.5688 24.8066 14.5727ZM21.0633 12.6276C21.0632 12.629 21.0638 12.6308 21.0637 12.6326C21.0625 12.6477 21.0632 12.6798 21.0772 12.7321C21.0895 12.7779 21.1027 12.8016 21.1095 12.8114L21.1098 12.8123C21.1163 12.8127 21.1294 12.8131 21.1509 12.8074C21.2059 12.7926 21.2099 12.7752 21.2036 12.7852C21.2008 12.7897 21.202 12.7908 21.2029 12.7824C21.2039 12.7721 21.2043 12.7462 21.1923 12.7013C21.1786 12.6503 21.164 12.6231 21.1562 12.6119C21.1546 12.6096 21.1529 12.6082 21.1518 12.607C21.1446 12.6062 21.1282 12.6062 21.0991 12.614C21.0799 12.6192 21.0689 12.6243 21.0633 12.6276Z" fill="#C89393" stroke="white" stroke-width="0.8"/>
</svg>
