<svg width="30" height="30" viewBox="0 0 30 30" fill="none" xmlns="http://www.w3.org/2000/svg">
<circle cx="15" cy="15" r="15" fill="#1ACCBD"/>
<path d="M10.7119 19V17.2H7.78388C9.77588 15.808 10.6519 14.764 10.6519 13.528C10.6519 11.932 9.29588 10.876 7.41188 10.876C6.29588 10.876 5.02387 11.272 4.17188 12.208L5.31188 13.576C5.88788 13.036 6.55988 12.7 7.44788 12.7C8.03587 12.7 8.55188 12.988 8.55188 13.528C8.55188 14.332 7.90387 14.884 4.43587 17.392V19H10.7119Z" fill="white"/>
<path d="M14.9049 19.144C16.9809 19.144 18.2889 18.04 18.2889 16.312C18.2889 14.692 17.0769 13.708 15.7089 13.708C15.0009 13.708 14.3769 13.972 13.9929 14.344V12.796H17.7369V10.996H11.9289V15.724L13.3569 16.072C13.8009 15.652 14.3049 15.472 14.9409 15.472C15.7689 15.472 16.1889 15.856 16.1889 16.396C16.1889 16.888 15.7569 17.32 14.8809 17.32C14.1129 17.32 13.3569 17.044 12.8049 16.528L11.6889 17.98C12.4209 18.7 13.4889 19.144 14.9049 19.144Z" fill="white"/>
<path d="M22.3472 19.144C24.6872 19.144 25.7792 17.116 25.7792 15.004C25.7792 12.892 24.6872 10.876 22.3472 10.876C20.0072 10.876 18.9152 12.892 18.9152 15.004C18.9152 17.116 20.0072 19.144 22.3472 19.144ZM22.3472 17.32C21.3872 17.32 21.0032 16.42 21.0032 15.004C21.0032 13.588 21.3872 12.7 22.3472 12.7C23.3072 12.7 23.6912 13.588 23.6912 15.004C23.6912 16.42 23.3072 17.32 22.3472 17.32Z" fill="white"/>
<path d="M25.9325 16.73V15.7881H25V13.9419H25.9325V13H27.7881V13.9419H28.73V15.7881H27.7881V16.73H25.9325Z" fill="white" stroke="#1ACCBD" stroke-width="0.753532"/>
</svg>
