<svg width="30" height="30" viewBox="0 0 30 30" fill="none" xmlns="http://www.w3.org/2000/svg">
<circle cx="15" cy="15" r="15" fill="#57058B"/>
<path d="M7.9348 18.12C9.5948 18.12 10.6949 17.31 10.6949 16.14C10.6949 15.18 9.8348 14.63 9.1248 14.56C9.9148 14.43 10.5849 13.84 10.5849 13.06C10.5849 11.96 9.6348 11.23 7.9348 11.23C6.7048 11.23 5.8348 11.68 5.2648 12.31L6.0948 13.39C6.5648 12.97 7.1448 12.75 7.7548 12.75C8.3948 12.75 8.8748 12.94 8.8748 13.36C8.8748 13.71 8.4848 13.88 7.7948 13.88C7.5448 13.88 7.0248 13.88 6.8948 13.87V15.4C6.9948 15.39 7.5048 15.38 7.7948 15.38C8.7048 15.38 8.9848 15.57 8.9848 15.95C8.9848 16.32 8.6048 16.6 7.8648 16.6C7.2848 16.6 6.5348 16.37 6.0448 15.9L5.1748 17.07C5.7048 17.67 6.6548 18.12 7.9348 18.12Z" fill="white"/>
<path d="M14.151 18.12C16.101 18.12 17.011 16.43 17.011 14.67C17.011 12.91 16.101 11.23 14.151 11.23C12.201 11.23 11.291 12.91 11.291 14.67C11.291 16.43 12.201 18.12 14.151 18.12ZM14.151 16.6C13.351 16.6 13.031 15.85 13.031 14.67C13.031 13.49 13.351 12.75 14.151 12.75C14.951 12.75 15.271 13.49 15.271 14.67C15.271 15.85 14.951 16.6 14.151 16.6Z" fill="white"/>
<path d="M19.23 14.57C20.3 14.57 20.99 13.84 20.99 12.91C20.99 11.97 20.3 11.23 19.23 11.23C18.18 11.23 17.5 11.97 17.5 12.91C17.5 13.84 18.18 14.57 19.23 14.57ZM19.44 18L23.71 11.33H22.83L18.57 18H19.44ZM23.01 18.12C24.06 18.12 24.75 17.39 24.75 16.46C24.75 15.52 24.06 14.78 23.01 14.78C21.95 14.78 21.27 15.52 21.27 16.46C21.27 17.39 21.95 18.12 23.01 18.12ZM19.23 13.65C18.85 13.65 18.56 13.39 18.56 12.91C18.56 12.41 18.85 12.15 19.23 12.15C19.62 12.15 19.92 12.41 19.92 12.91C19.92 13.39 19.62 13.65 19.23 13.65ZM23.01 17.2C22.62 17.2 22.33 16.95 22.33 16.46C22.33 15.96 22.62 15.7 23.01 15.7C23.4 15.7 23.69 15.96 23.69 16.46C23.69 16.95 23.4 17.2 23.01 17.2Z" fill="white"/>
</svg>
