<svg width="30" height="30" viewBox="0 0 30 30" fill="none" xmlns="http://www.w3.org/2000/svg">
<path fill-rule="evenodd" clip-rule="evenodd" d="M5.17004 25.3096C4.30697 25.7956 3.85594 25.0627 3.35933 24.4987C1.79178 22.719 0.808044 20.6367 0.2432 18.3449C0.137029 17.915 0.167853 17.5253 0.412601 17.1106C1.15765 15.8505 1.09863 14.5507 0.31644 13.3443C-0.0128763 12.8366 -0.0555557 12.3582 0.0540408 11.835C0.736385 8.57475 2.29972 5.82219 4.82149 3.63289C5.14317 3.35337 5.42954 3.13233 5.95645 3.2219C7.83224 3.54147 9.17901 2.75796 9.98623 1.0442C10.1198 0.760458 10.2502 0.541792 10.5977 0.467234C13.497 -0.156096 16.3916 -0.155569 19.2914 0.467761C19.6473 0.544426 19.774 0.781534 19.8994 1.05394C20.7009 2.78826 22.0624 3.51802 23.9298 3.22875C24.3934 3.15709 24.6774 3.29883 24.9931 3.57335C27.6502 5.8841 29.2739 8.77576 29.9017 12.2407C29.9676 12.6043 29.8604 12.8627 29.6659 13.1573C28.7839 14.4956 28.6767 15.8732 29.5429 17.2721C29.6831 17.4992 29.7771 17.7145 29.7097 18.0148C29.1053 20.6978 27.9427 23.0765 25.9984 25.0516C25.6823 25.3725 25.3867 25.4402 24.9396 25.3757C23.2192 25.1267 21.6838 26.1149 21.2143 27.8097C21.0692 28.3353 20.8215 28.5969 20.3481 28.7698C16.7462 30.0847 13.1487 30.0673 9.54257 28.7845C9.06309 28.6143 8.83652 28.3301 8.67581 27.8379C8.12836 26.1642 6.88617 25.2811 5.17004 25.3096Z" fill="#31393B"/>
<path d="M13.0215 19.1441C14.9535 19.1441 16.2255 18.0641 16.2255 16.3721C16.2255 14.7521 15.0135 13.7801 13.6575 13.7801C12.9255 13.7801 12.2775 14.0681 11.8935 14.4521V12.4961H15.6855V10.9961H10.1895V15.5801L11.3775 15.9041C11.8575 15.4481 12.3975 15.2561 13.0575 15.2561C13.9695 15.2561 14.4975 15.7361 14.4975 16.4441C14.4975 17.0921 13.9575 17.6321 13.0095 17.6321C12.1695 17.6321 11.4255 17.3201 10.8855 16.7561L9.9375 17.9441C10.6215 18.6881 11.6295 19.1441 13.0215 19.1441Z" fill="white"/>
<path d="M19.4363 14.8911C20.3116 14.8911 20.881 14.2642 20.881 13.4543C20.881 12.6357 20.3116 12 19.4363 12C18.5694 12 18 12.6357 18 13.4543C18 14.2642 18.5694 14.8911 19.4363 14.8911ZM19.5212 17.8955L23.1501 12.0871H22.5043L18.8839 17.8955H19.5212ZM22.5552 18C23.4221 18 24 17.373 24 16.5631C24 15.7446 23.4221 15.1001 22.5552 15.1001C21.6884 15.1001 21.119 15.7446 21.119 16.5631C21.119 17.373 21.6884 18 22.5552 18ZM19.4363 14.2119C19.0538 14.2119 18.7649 13.9158 18.7649 13.4543C18.7649 12.9753 19.0538 12.6792 19.4363 12.6792C19.8272 12.6792 20.1161 12.9753 20.1161 13.4543C20.1161 13.9158 19.8272 14.2119 19.4363 14.2119ZM22.5552 17.3208C22.1643 17.3208 21.8839 17.0334 21.8839 16.5631C21.8839 16.0842 22.1643 15.7881 22.5552 15.7881C22.9462 15.7881 23.2351 16.0842 23.2351 16.5631C23.2351 17.0334 22.9462 17.3208 22.5552 17.3208Z" fill="white"/>
</svg>
