<svg width="30" height="30" viewBox="0 0 30 30" fill="none" xmlns="http://www.w3.org/2000/svg">
<circle cx="15" cy="15" r="15" fill="#3D2890"/>
<path d="M7.51678 19.144C9.59278 19.144 10.9008 18.04 10.9008 16.312C10.9008 14.692 9.68878 13.708 8.32078 13.708C7.61278 13.708 6.98878 13.972 6.60478 14.344V12.796H10.3488V10.996H4.54078V15.724L5.96878 16.072C6.41278 15.652 6.91678 15.472 7.55278 15.472C8.38078 15.472 8.80078 15.856 8.80078 16.396C8.80078 16.888 8.36878 17.32 7.49278 17.32C6.72478 17.32 5.96878 17.044 5.41678 16.528L4.30078 17.98C5.03278 18.7 6.10078 19.144 7.51678 19.144Z" fill="white"/>
<path d="M14.959 19.144C17.299 19.144 18.391 17.116 18.391 15.004C18.391 12.892 17.299 10.876 14.959 10.876C12.619 10.876 11.527 12.892 11.527 15.004C11.527 17.116 12.619 19.144 14.959 19.144ZM14.959 17.32C13.999 17.32 13.615 16.42 13.615 15.004C13.615 13.588 13.999 12.7 14.959 12.7C15.919 12.7 16.303 13.588 16.303 15.004C16.303 16.42 15.919 17.32 14.959 17.32Z" fill="white"/>
<path d="M22.4473 19.144C24.7873 19.144 25.8793 17.116 25.8793 15.004C25.8793 12.892 24.7873 10.876 22.4473 10.876C20.1073 10.876 19.0153 12.892 19.0153 15.004C19.0153 17.116 20.1073 19.144 22.4473 19.144ZM22.4473 17.32C21.4873 17.32 21.1033 16.42 21.1033 15.004C21.1033 13.588 21.4873 12.7 22.4473 12.7C23.4073 12.7 23.7913 13.588 23.7913 15.004C23.7913 16.42 23.4073 17.32 22.4473 17.32Z" fill="white"/>
<path d="M25.9325 16.73V15.7881H25V13.9419H25.9325V13H27.7881V13.9419H28.73V15.7881H27.7881V16.73H25.9325Z" fill="white" stroke="#3D2890" stroke-width="0.753532"/>
</svg>
