<svg width="30" height="30" viewBox="0 0 30 30" fill="none" xmlns="http://www.w3.org/2000/svg">
<circle cx="15" cy="15" r="15" fill="#9666F0"/>
<path d="M8.08856 20.1921C10.6646 20.1921 12.3606 18.7521 12.3606 16.4961C12.3606 14.3361 10.7446 13.0401 8.93656 13.0401C7.96056 13.0401 7.09656 13.4241 6.58456 13.9361V11.3281H11.6406V9.32812H4.31256V15.4401L5.89656 15.8721C6.53656 15.2641 7.25656 15.0081 8.13656 15.0081C9.35256 15.0081 10.0566 15.6481 10.0566 16.5921C10.0566 17.4561 9.33656 18.1761 8.07256 18.1761C6.95256 18.1761 5.96056 17.7601 5.24056 17.0081L3.97656 18.5921C4.88856 19.5841 6.23256 20.1921 8.08856 20.1921Z" fill="white"/>
<path d="M21.8543 20.0001V16.5101C21.8543 15.5201 21.3243 15.0501 20.4343 15.0501C19.6943 15.0501 19.0543 15.4901 18.7743 15.9201C18.6043 15.3801 18.1443 15.0501 17.4343 15.0501C16.6943 15.0501 16.0643 15.5101 15.8543 15.7901V15.1701H14.5843V20.0001H15.8543V16.7401C16.0443 16.4801 16.4143 16.1801 16.8543 16.1801C17.3743 16.1801 17.5743 16.5001 17.5743 16.9501V20.0001H18.8543V16.7401C19.0343 16.4801 19.4043 16.1801 19.8543 16.1801C20.3743 16.1801 20.5743 16.5001 20.5743 16.9501V20.0001H21.8543Z" fill="white"/>
<path d="M23.7397 14.6501C24.1597 14.6501 24.4997 14.3101 24.4997 13.8901C24.4997 13.4701 24.1597 13.1401 23.7397 13.1401C23.3297 13.1401 22.9897 13.4701 22.9897 13.8901C22.9897 14.3101 23.3297 14.6501 23.7397 14.6501ZM24.3797 20.0001V15.1701H23.1097V20.0001H24.3797Z" fill="white"/>
<path d="M25.905 20.0771C26.213 20.0771 26.472 19.8181 26.472 19.5101C26.472 19.2021 26.213 18.9431 25.905 18.9431C25.597 18.9431 25.338 19.2021 25.338 19.5101C25.338 19.8181 25.597 20.0771 25.905 20.0771Z" fill="white"/>
</svg>
