<svg width="30" height="30" viewBox="0 0 30 30" fill="none" xmlns="http://www.w3.org/2000/svg">
<circle cx="15" cy="15" r="15" fill="#FF5271"/>
<path d="M12.0435 27.05H17.8143C19.5085 27.05 20.3689 26.1897 20.5542 24.3367L21.8513 10.7699C21.9307 10.0022 21.4939 9.49928 20.7395 9.49928H15.9481L15.9878 8.95662C16.0275 8.34777 16.2128 7.9904 16.6628 7.6595L20.8454 4.65497C21.838 3.95347 20.7924 2.44459 19.7335 3.21226L15.6966 6.12415C14.7172 6.82565 14.2936 7.60656 14.1877 8.85073L14.1348 9.49928H9.10517C8.3772 9.49928 7.94041 10.0155 8.00659 10.7699L9.31694 24.3367C9.50224 26.1897 10.3361 27.05 12.0435 27.05Z" fill="white"/>
<path d="M11.9376 20.944L12.8736 19.792C13.4256 20.356 14.1696 20.656 15.0096 20.656C15.9576 20.656 16.4976 20.116 16.4976 19.456C16.4976 18.724 15.9696 18.232 15.0576 18.232C14.3976 18.232 13.8576 18.436 13.3776 18.892L12.1896 18.568V13.996H17.6856V15.46H13.8576V17.464C14.2776 17.092 14.9256 16.804 15.6576 16.804C17.0136 16.804 18.2256 17.764 18.2256 19.384C18.2256 21.076 16.9536 22.144 15.0216 22.144C13.6296 22.144 12.6216 21.688 11.9376 20.944Z" fill="#FF5271"/>
</svg>
