<svg width="30" height="30" viewBox="0 0 30 30" fill="none" xmlns="http://www.w3.org/2000/svg">
<circle cx="15" cy="15" r="15" fill="black"/>
<path d="M22.2721 19.5632L23.1566 12.8005L19.7468 19.7839L18.6111 19.8832L16.9851 13.3399L16.1007 20.1027L13.5305 20.3273L14.8558 10.1683L18.3375 9.86396L19.6752 15.3483L22.5066 9.49951L26.1677 9.17947L24.8423 19.3385L22.2721 19.5632Z" fill="white"/>
<path d="M4.36539 17.3192C4.06625 13.8973 5.8886 10.8018 9.38527 10.4962C10.8796 10.3655 12.0733 10.7581 12.9943 11.4756L11.6554 13.3844C11.0977 12.861 10.2348 12.6353 9.42786 12.7058C8.18759 12.8143 7.35706 13.8204 7.08072 14.7932C7.01776 14.9342 6.97758 15.1636 6.95815 15.2857C7.43413 14.7021 8.34157 14.2312 9.32781 14.145C11.106 13.9896 12.6456 14.8939 12.7972 16.6273C12.9866 18.7941 11.1819 20.7135 8.86571 20.916C6.28057 21.142 4.58354 19.8147 4.36539 17.3192ZM10.1401 17.236C10.0774 16.5188 9.24621 16.1397 8.28986 16.2233C7.72202 16.2729 7.23094 16.5116 6.86986 16.8594C6.86536 16.9802 6.86871 17.1907 6.87916 17.3103C6.96146 18.2517 7.76216 18.799 8.70357 18.7168C9.55533 18.6423 10.2093 18.028 10.1401 17.236Z" fill="white"/>
</svg>
