<svg width="30" height="30" viewBox="0 0 30 30" fill="none" xmlns="http://www.w3.org/2000/svg">
<circle cx="15" cy="15" r="15" fill="#62A3E8"/>
<path d="M8.3453 20.192C10.7773 20.192 12.4413 18.608 12.4413 16.528C12.4413 14.256 10.7133 13.056 8.7933 13.056C7.6253 13.056 6.5533 13.712 6.0573 14.432C6.0413 14.352 6.0413 14.288 6.0413 14.208C6.0413 12.512 7.1453 11.184 8.7133 11.184C9.6573 11.184 10.2653 11.472 10.8413 12.016L11.8653 10.272C11.0973 9.59997 10.0093 9.16797 8.7133 9.16797C5.5613 9.16797 3.7373 11.456 3.7373 14.688C3.7373 17.696 5.0973 20.192 8.3453 20.192ZM8.2173 18.176C6.7293 18.176 6.1533 17.04 6.0573 16.016C6.5693 15.376 7.3533 15.008 8.1533 15.008C9.1613 15.008 10.1213 15.488 10.1213 16.608C10.1213 17.344 9.44931 18.176 8.2173 18.176Z" fill="white"/>
<path d="M21.855 20V16.51C21.855 15.52 21.325 15.05 20.435 15.05C19.695 15.05 19.055 15.49 18.775 15.92C18.605 15.38 18.145 15.05 17.435 15.05C16.695 15.05 16.065 15.51 15.855 15.79V15.17H14.585V20H15.855V16.74C16.045 16.48 16.415 16.18 16.855 16.18C17.375 16.18 17.575 16.5 17.575 16.95V20H18.855V16.74C19.035 16.48 19.405 16.18 19.855 16.18C20.375 16.18 20.575 16.5 20.575 16.95V20H21.855Z" fill="white"/>
<path d="M23.7404 14.65C24.1604 14.65 24.5004 14.31 24.5004 13.89C24.5004 13.47 24.1604 13.14 23.7404 13.14C23.3304 13.14 22.9904 13.47 22.9904 13.89C22.9904 14.31 23.3304 14.65 23.7404 14.65ZM24.3804 20V15.17H23.1104V20H24.3804Z" fill="white"/>
<path d="M25.9057 20.077C26.2137 20.077 26.4727 19.818 26.4727 19.51C26.4727 19.202 26.2137 18.943 25.9057 18.943C25.5977 18.943 25.3387 19.202 25.3387 19.51C25.3387 19.818 25.5977 20.077 25.9057 20.077Z" fill="white"/>
</svg>
