<svg width="30" height="30" viewBox="0 0 30 30" fill="none" xmlns="http://www.w3.org/2000/svg">
<circle cx="15" cy="15" r="15" fill="#F066A8"/>
<path d="M8.26089 20.0001L12.2289 10.9121V9.32812H4.21289V11.3281H9.58889L5.76489 20.0001H8.26089Z" fill="white"/>
<path d="M21.2181 20.0001V16.5101C21.2181 15.5201 20.6881 15.0501 19.7981 15.0501C19.0581 15.0501 18.4181 15.4901 18.1381 15.9201C17.9681 15.3801 17.5081 15.0501 16.7981 15.0501C16.0581 15.0501 15.4281 15.5101 15.2181 15.7901V15.1701H13.9481V20.0001H15.2181V16.7401C15.4081 16.4801 15.7781 16.1801 16.2181 16.1801C16.7381 16.1801 16.9381 16.5001 16.9381 16.9501V20.0001H18.2181V16.7401C18.3981 16.4801 18.7681 16.1801 19.2181 16.1801C19.7381 16.1801 19.9381 16.5001 19.9381 16.9501V20.0001H21.2181Z" fill="white"/>
<path d="M23.1035 14.6501C23.5235 14.6501 23.8635 14.3101 23.8635 13.8901C23.8635 13.4701 23.5235 13.1401 23.1035 13.1401C22.6935 13.1401 22.3535 13.4701 22.3535 13.8901C22.3535 14.3101 22.6935 14.6501 23.1035 14.6501ZM23.7435 20.0001V15.1701H22.4735V20.0001H23.7435Z" fill="white"/>
<path d="M25.2688 20.0771C25.5768 20.0771 25.8358 19.8181 25.8358 19.5101C25.8358 19.2021 25.5768 18.9431 25.2688 18.9431C24.9608 18.9431 24.7018 19.2021 24.7018 19.5101C24.7018 19.8181 24.9608 20.0771 25.2688 20.0771Z" fill="white"/>
</svg>
