<svg width="30" height="30" viewBox="0 0 30 30" fill="none" xmlns="http://www.w3.org/2000/svg">
<circle cx="15" cy="15" r="15" fill="#FF5271"/>
<path d="M14.6328 22.1016H15.5156V20.8203C17.9297 20.6719 19.5469 19.4766 19.5469 17.4922V17.4766C19.5469 15.7266 18.4297 14.8516 16.2266 14.3672L15.5156 14.2188V11.9531C16.2891 12.0781 16.7969 12.5078 16.9062 13.2344L16.9141 13.25L19.3672 13.2422L19.375 13.2344C19.2891 11.3359 17.875 10.0703 15.5156 9.90625V8.59375H14.6328V9.89844C12.3359 10.0078 10.6875 11.1953 10.6875 13.1484V13.1641C10.6875 14.9219 11.8438 15.8672 13.9297 16.3281L14.6328 16.4766V18.7891C13.7188 18.7031 13.1875 18.3203 13.0625 17.6328L13.0547 17.6172L10.5938 17.625L10.5781 17.6328C10.6406 19.6328 12.25 20.7344 14.6328 20.8281V22.1016ZM13.3047 12.9531V12.9375C13.3047 12.375 13.7578 12.0156 14.6328 11.9375V14.0156C13.7266 13.7734 13.3047 13.4688 13.3047 12.9531ZM16.9297 17.7734V17.7891C16.9297 18.3906 16.4219 18.7109 15.5156 18.7891V16.6719C16.5312 16.9297 16.9297 17.1953 16.9297 17.7734Z" fill="white"/>
</svg>
