<svg width="30" height="30" viewBox="0 0 30 30" fill="none" xmlns="http://www.w3.org/2000/svg">
<circle cx="15" cy="15" r="15" fill="#003F63"/>
<path d="M20.683 13.9757C20.7828 13.6686 21.2172 13.6686 21.317 13.9757L22.2722 16.9156C22.3169 17.0529 22.4449 17.1459 22.5893 17.1459H25.6804C26.0034 17.1459 26.1376 17.5591 25.8764 17.7489L23.3756 19.5659C23.2587 19.6507 23.2098 19.8012 23.2545 19.9385L24.2097 22.8784C24.3095 23.1855 23.958 23.4409 23.6967 23.2511L21.1959 21.4341C21.0791 21.3493 20.9209 21.3493 20.8041 21.4341L18.3033 23.2511C18.042 23.4409 17.6905 23.1855 17.7903 22.8784L18.7455 19.9385C18.7902 19.8012 18.7413 19.6507 18.6244 19.5659L16.1236 17.7489C15.8624 17.5591 15.9966 17.1459 16.3196 17.1459H19.4107C19.5551 17.1459 19.6831 17.0529 19.7278 16.9156L20.683 13.9757Z" fill="white"/>
<path d="M8.68298 13.9757C8.78277 13.6686 9.21723 13.6686 9.31702 13.9757L10.2722 16.9156C10.3169 17.0529 10.4449 17.1459 10.5893 17.1459H13.6804C14.0034 17.1459 14.1376 17.5591 13.8764 17.7489L11.3756 19.5659C11.2587 19.6507 11.2098 19.8012 11.2545 19.9385L12.2097 22.8784C12.3095 23.1855 11.958 23.4409 11.6967 23.2511L9.19593 21.4341C9.0791 21.3493 8.9209 21.3493 8.80407 21.4341L6.30326 23.2511C6.04202 23.4409 5.69052 23.1855 5.79031 22.8784L6.74553 19.9385C6.79016 19.8012 6.74127 19.6507 6.62444 19.5659L4.12363 17.7489C3.86239 17.5591 3.99665 17.1459 4.31956 17.1459H7.41074C7.55514 17.1459 7.68313 17.0529 7.72775 16.9156L8.68298 13.9757Z" fill="white"/>
<path d="M14.683 3.97568C14.7828 3.66858 15.2172 3.66858 15.317 3.97568L16.2722 6.91557C16.3169 7.05291 16.4449 7.1459 16.5893 7.1459H19.6804C20.0034 7.1459 20.1376 7.5591 19.8764 7.7489L17.3756 9.56585C17.2587 9.65073 17.2098 9.80119 17.2545 9.93853L18.2097 12.8784C18.3095 13.1855 17.958 13.4409 17.6967 13.2511L15.1959 11.4341C15.0791 11.3493 14.9209 11.3493 14.8041 11.4341L12.3033 13.2511C12.042 13.4409 11.6905 13.1855 11.7903 12.8784L12.7455 9.93853C12.7902 9.80119 12.7413 9.65073 12.6244 9.56585L10.1236 7.7489C9.86239 7.5591 9.99665 7.1459 10.3196 7.1459H13.4107C13.5551 7.1459 13.6831 7.05291 13.7278 6.91557L14.683 3.97568Z" fill="white"/>
</svg>
