<svg width="30" height="30" viewBox="0 0 30 30" fill="none" xmlns="http://www.w3.org/2000/svg">
<path d="M15 30C23.2843 30 30 23.2843 30 15C30 6.71573 23.2843 0 15 0C6.71573 0 0 6.71573 0 15C0 23.2843 6.71573 30 15 30Z" fill="#DC5512"/>
<g clip-path="url(#clip0_4664_2362)">
<path d="M15.0002 8.0083C10.7949 8.0083 7.37354 11.4297 7.37354 15.635C7.37354 19.8405 10.795 23.2619 15.0002 23.2619C19.2058 23.2619 22.6269 19.8405 22.6269 15.635C22.6269 11.4297 19.2055 8.0083 15.0002 8.0083ZM15.0002 21.8797C11.5572 21.8797 8.75599 19.0783 8.75599 15.6353C8.75599 12.1922 11.5571 9.39103 15.0002 9.39103C18.4433 9.39103 21.2445 12.1922 21.2445 15.6353C21.2445 19.0785 18.4433 21.8797 15.0002 21.8797Z" fill="white"/>
<path d="M17.1198 15.4048H15.2765V12.732C15.2765 12.3502 14.9671 12.0408 14.5853 12.0408C14.2035 12.0408 13.894 12.3502 13.894 12.732V16.0961C13.894 16.4779 14.2035 16.7873 14.5853 16.7873H17.1199C17.5017 16.7873 17.8111 16.4779 17.8111 16.0961C17.8111 15.7143 17.5016 15.4048 17.1198 15.4048Z" fill="white"/>
<path d="M11.0844 20.5823C10.8005 20.3267 10.3634 20.35 10.1082 20.6336L8.03441 22.9378C7.77886 23.2214 7.80215 23.6585 8.08578 23.9138C8.21781 24.033 8.38324 24.0915 8.548 24.0915C8.73718 24.0915 8.92566 24.0143 9.06206 23.8625L11.1358 21.5583C11.3913 21.2746 11.368 20.8375 11.0844 20.5823Z" fill="white"/>
<path d="M21.9656 22.9381L19.8919 20.634C19.637 20.3501 19.1997 20.327 18.9158 20.5826C18.632 20.8379 18.6092 21.275 18.8645 21.5586L20.9382 23.8628C21.0744 24.0144 21.2629 24.0916 21.452 24.0916C21.6166 24.0916 21.782 24.033 21.9143 23.9141C22.1981 23.6588 22.2209 23.2217 21.9656 22.9381Z" fill="white"/>
<path d="M10.9673 6.91597C9.59382 5.57105 7.3798 5.57312 6.03211 6.92105C5.36157 7.59132 4.9952 8.47819 5.00005 9.41826C5.00513 10.347 5.37333 11.2167 6.03715 11.8669C6.17172 11.9984 6.34614 12.0641 6.52078 12.0641C6.69774 12.0641 6.87469 11.9964 7.00949 11.8618L10.9726 7.8987C11.103 7.76808 11.1758 7.59085 11.1749 7.40632C11.174 7.22171 11.0993 7.04523 10.9673 6.91597ZM6.5966 10.3194C6.45813 10.0404 6.38414 9.73162 6.38254 9.41088C6.37953 8.84315 6.60211 8.30581 7.00949 7.89843C7.41594 7.49222 7.95328 7.28921 8.49359 7.28921C8.80949 7.28921 9.12655 7.35855 9.4187 7.49726L6.5966 10.3194Z" fill="white"/>
<path d="M23.9678 6.92072C22.6199 5.57303 20.4058 5.57072 19.0323 6.91564C18.9005 7.04489 18.8257 7.22142 18.8247 7.40595C18.8238 7.59052 18.8968 7.76794 19.0273 7.89833L22.9904 11.8614C23.1252 11.9965 23.3021 12.064 23.4791 12.064C23.6537 12.064 23.8284 11.9983 23.9627 11.8663C24.6268 11.2163 24.995 10.3467 24.9998 9.41789C25.0047 8.47809 24.6381 7.59122 23.9678 6.92072ZM23.4033 10.3193L20.5812 7.4972C21.3733 7.12114 22.3464 7.25458 22.9904 7.89856C23.3978 8.30594 23.6204 8.84301 23.6174 9.41102C23.6157 9.73152 23.5418 10.0405 23.4033 10.3193Z" fill="white"/>
</g>
<defs>
<clipPath id="clip0_4664_2362">
<rect width="20" height="20" fill="white" transform="translate(5 5)"/>
</clipPath>
</defs>
</svg>
