<svg width="30" height="30" viewBox="0 0 30 30" fill="none" xmlns="http://www.w3.org/2000/svg">
<circle cx="15" cy="15" r="15" fill="#016FD0"/>
<g clip-path="url(#clip0_5322_3820)">
<g clip-path="url(#clip1_5322_3820)">
<path d="M-1.60156 31.6016H31.6015V-1.60156H-1.60156V31.6016Z" fill="#006FCF"/>
<path d="M10.4263 26.3476L23.5551 26.3755L25.617 24.0752L27.6937 26.3668H31.6014V23.0107L29.1539 20.3713L31.6014 17.7558V14.4694L10.4263 14.4504V26.3476Z" fill="white"/>
<path fill-rule="evenodd" clip-rule="evenodd" d="M11.8408 25.0435V15.7598H19.7124V17.8984H14.3894V19.3501H19.5855V21.4533H14.3894V22.8791H19.7124V25.0434L11.8408 25.0435Z" fill="#006FCF"/>
<path d="M28.3749 15.76L25.7058 18.7024L23.0442 15.76H19.6729L24.0286 20.3964L19.6729 25.0435H22.9526L25.6336 22.0715L28.3424 25.0435H31.6013V24.9116L27.3384 20.3964L31.6013 15.8331V15.76H28.3749Z" fill="#006FCF"/>
<path d="M26.7899 3.89084L25.6995 6.94084L24.6128 3.89084H18.3113V7.96168L16.5185 3.89084H11.4142L6.17188 15.7881H31.6017V3.89084H26.7899Z" fill="white"/>
<path fill-rule="evenodd" clip-rule="evenodd" d="M12.7344 10.5198L13.9697 7.56703L15.2042 10.5198H12.7344ZM12.3804 5.18325L8.26123 14.459H11.0865L11.8635 12.6016H16.0745L16.851 14.459H19.7465L15.6444 5.18325H12.3804Z" fill="#006FCF"/>
<path d="M19.708 14.4573L22.2058 14.4574V8.08587L24.5755 14.4574H26.8205L29.1421 8.1075V14.479L31.6016 14.4574V5.18167H27.7794L25.7227 10.8978L23.6794 5.19535L19.708 5.18163V14.4573Z" fill="#006FCF"/>
</g>
</g>
<defs>
<clipPath id="clip0_5322_3820">
<rect width="30" height="30" rx="15" fill="white"/>
</clipPath>
<clipPath id="clip1_5322_3820">
<rect width="33.2031" height="33.2031" fill="white" transform="translate(-1.60156 -1.60156)"/>
</clipPath>
</defs>
</svg>
