<svg width="30" height="30" viewBox="0 0 30 30" fill="none" xmlns="http://www.w3.org/2000/svg">
<circle cx="15" cy="15" r="15" fill="#EF4223"/>
<path d="M11 22C11 22.5625 11.4375 23 12 23H18C18.5312 23 19 22.5625 19 22V21.5H11V22ZM19 8C19 7.46875 18.5312 7 18 7H12C11.4375 7 11 7.46875 11 8V8.5H19V8ZM19 9.5H11C9.875 9.5 9 10.4062 9 11.5V18.5C9 19.625 9.875 20.5 11 20.5H19C20.0938 20.5 21 19.625 21 18.5V11.5C21 10.4062 20.0938 9.5 19 9.5ZM17.9375 15.2188L15.2812 17.875C15.2188 17.9688 15.0938 18 15 18C14.875 18 14.75 17.9688 14.6875 17.875L12.0312 15.2188C11.25 14.4375 11.3125 13.1562 12.1562 12.4375C12.9062 11.8125 14.0312 11.9062 14.7188 12.5938L15 12.875L15.25 12.5938C15.9375 11.9062 17.0625 11.8125 17.8125 12.4375C18.6562 13.1562 18.7188 14.4375 17.9375 15.2188Z" fill="white"/>
</svg>
