<svg width="30" height="30" viewBox="0 0 30 30" fill="none" xmlns="http://www.w3.org/2000/svg">
<circle cx="15" cy="15" r="15" fill="#EF4223"/>
<path fill-rule="evenodd" clip-rule="evenodd" d="M18 7C18.5312 7 19 7.46875 19 8V8.5H11V8C11 7.46875 11.4375 7 12 7H18ZM12 23C11.4375 23 11 22.5625 11 22V21.5H19V22C19 22.5625 18.5312 23 18 23H12ZM19 9.5H11C9.875 9.5 9 10.4062 9 11.5V18.5C9 19.625 9.875 20.5 11 20.5H19C20.0938 20.5 21 19.625 21 18.5V11.5C21 10.4062 20.0938 9.5 19 9.5ZM17.3698 16.65V18H12.6628V16.794C15.2638 14.913 15.7498 14.499 15.7498 13.896C15.7498 13.491 15.3628 13.275 14.9218 13.275C14.2558 13.275 13.7518 13.527 13.3198 13.932L12.4648 12.906C13.1038 12.204 14.0578 11.907 14.8948 11.907C16.3078 11.907 17.3248 12.699 17.3248 13.896C17.3248 14.823 16.6678 15.606 15.1738 16.65H17.3698Z" fill="white"/>
</svg>
