<svg width="30" height="30" viewBox="0 0 30 30" fill="none" xmlns="http://www.w3.org/2000/svg">
<circle cx="15" cy="15" r="15" fill="#ECC918"/>
<path d="M15.0073 22.216C12.9673 22.216 11.3533 21.634 10.1653 20.47L11.8573 18.31C12.7093 19.09 13.7473 19.48 14.9713 19.48C15.5953 19.48 16.0753 19.348 16.4113 19.084C16.7593 18.82 16.9333 18.49 16.9333 18.094C16.9333 17.674 16.7713 17.338 16.4473 17.086C16.1233 16.834 15.6613 16.708 15.0613 16.708C14.1133 16.708 13.3213 17.008 12.6853 17.608L10.5433 17.086V9.994H19.2553V12.694H13.6393V15.016C14.2993 14.38 15.1573 14.062 16.2133 14.062C17.2693 14.062 18.1753 14.422 18.9313 15.142C19.6993 15.862 20.0833 16.804 20.0833 17.968C20.0833 19.264 19.6273 20.296 18.7153 21.064C17.8033 21.832 16.5673 22.216 15.0073 22.216Z" fill="white"/>
</svg>
