<svg width="30" height="30" viewBox="0 0 30 30" fill="none" xmlns="http://www.w3.org/2000/svg">
<circle cx="15" cy="15" r="15" fill="#C5000C"/>
<path fill-rule="evenodd" clip-rule="evenodd" d="M8.99023 4.45508C9.47348 4.45508 9.86523 4.84683 9.86523 5.33008V6.44531H23.6201C23.9616 6.44531 24.2721 6.64395 24.415 6.9541C24.5578 7.2644 24.5073 7.6302 24.2852 7.88965L20.7822 11.9795L24.2842 16.0605C24.5067 16.3199 24.5578 16.6856 24.415 16.9961C24.2722 17.3063 23.9617 17.5049 23.6201 17.5049H9.86523V24.6104C9.86509 25.0935 9.47339 25.4854 8.99023 25.4854C8.50708 25.4854 8.11538 25.0935 8.11523 24.6104V5.33008C8.11523 4.84683 8.50699 4.45508 8.99023 4.45508ZM9.86523 15.7549H21.7158L18.9658 12.5498C18.6851 12.2223 18.6853 11.7388 18.9658 11.4111L21.7197 8.19531H9.86523V15.7549Z" fill="white"/>
<rect x="9" y="8" width="10" height="8" fill="white"/>
<rect x="17.3301" y="9.25098" width="4.37735" height="3.38728" transform="rotate(-35.868 17.3301 9.25098)" fill="white"/>
<rect x="19.5967" y="12" width="4.37735" height="2.89688" transform="rotate(50.0444 19.5967 12)" fill="white"/>
</svg>
