<svg width="30" height="30" viewBox="0 0 30 30" fill="none" xmlns="http://www.w3.org/2000/svg">
<circle cx="15" cy="15" r="15" fill="#D70036"/>
<path d="M15.1524 25C10.7905 25 8 22.5699 8 18.8669C8 15.5882 9.6381 14.6432 9.6381 11.9624C9.6381 11.5188 9.57143 10.9306 9.57143 10.6702C9.57143 10.5159 9.64762 10.4098 9.8 10.4098C10.4762 10.4098 11.7333 11.1234 12.2667 12.271C12.5238 11.8467 12.6571 11.3549 12.6571 10.8534C12.6571 9.19479 11.5048 7.38187 10.3238 5.96432C10.1619 5.76181 10.1048 5.64609 10.1048 5.51109C10.1048 5.18322 10.3524 5 10.8952 5C16.0952 5 23 8.5487 23 16.8033C23 21.7599 19.8476 25 15.1524 25ZM15.2381 22.2806C17.2476 22.2806 18.219 20.7956 18.219 19.0984C18.219 17.4301 17.2381 15.6268 15.419 14.7011C15.3429 14.6721 15.2952 14.7203 15.3048 14.7878C15.5524 16.2922 15.3333 17.5072 14.8857 18.1051C14.6476 17.623 14.3429 17.1601 13.9429 16.8322C13.8762 16.784 13.8286 16.8033 13.819 16.8804C13.6571 17.8447 12.6286 18.3848 12.6286 19.8891C12.6286 21.3259 13.6571 22.2806 15.2381 22.2806Z" fill="white"/>
</svg>
