<svg width="30" height="30" viewBox="0 0 30 30" fill="none" xmlns="http://www.w3.org/2000/svg">
<circle cx="15" cy="15" r="15" fill="#5F52A1"/>
<path d="M7.69328 19.4541C5.20246 19.4541 4 18.0553 4 16.0307V11.1227H5.76689V15.9816C5.76689 17.1228 6.42947 17.908 7.69328 17.908C8.9571 17.908 9.60741 17.1228 9.60741 15.9816V11.1227H11.3866V16.0307C11.3866 18.0553 10.1841 19.4541 7.69328 19.4541Z" fill="#E2E450"/>
<path d="M18.9372 19.3068H12.7777V17.9326C16.1274 15.454 17.109 14.6197 17.109 13.6135C17.109 12.8896 16.4587 12.546 15.7838 12.546C14.8513 12.546 14.1397 12.9141 13.5875 13.4908L12.5936 12.3374C13.3912 11.4172 14.6059 11 15.747 11C17.5017 11 18.8759 11.9816 18.8759 13.6135C18.8759 15.0123 17.7225 16.227 15.5998 17.7731H18.9372V19.3068Z" fill="#E2E450"/>
<path d="M22.957 19.3068H21.0429L23.9754 12.6565H19.8527V11.1227H26V12.3374L22.957 19.3068Z" fill="#E2E450"/>
</svg>
