<svg width="30" height="30" viewBox="0 0 30 30" fill="none" xmlns="http://www.w3.org/2000/svg">
<circle cx="15" cy="15" r="15" fill="#272431"/>
<path d="M11.543 20.0001C13.591 20.0001 14.647 18.7201 14.647 17.1041C14.647 15.7761 13.751 14.6721 12.599 14.4961C13.607 14.2881 14.439 13.3761 14.439 12.0481C14.439 10.6241 13.399 9.32812 11.367 9.32812H5.75098V20.0001H11.543ZM10.871 13.5681H8.02298V11.3281H10.871C11.639 11.3281 12.119 11.7921 12.119 12.4481C12.119 13.1361 11.639 13.5681 10.871 13.5681ZM10.967 18.0001H8.02298V15.5681H10.967C11.847 15.5681 12.327 16.1121 12.327 16.7841C12.327 17.5521 11.815 18.0001 10.967 18.0001Z" fill="white"/>
<path d="M18.6324 20.0001V16.1921H21.3524C23.6564 16.1921 24.9364 14.6241 24.9364 12.7681C24.9364 10.8961 23.6724 9.32812 21.3524 9.32812H16.3604V20.0001H18.6324ZM21.0324 14.1921H18.6324V11.3281H21.0324C21.9284 11.3281 22.6164 11.8721 22.6164 12.7681C22.6164 13.6481 21.9284 14.1921 21.0324 14.1921Z" fill="white"/>
</svg>
