<svg width="30" height="30" viewBox="0 0 30 30" fill="none" xmlns="http://www.w3.org/2000/svg">
<circle cx="15" cy="15" r="15" fill="#88000F"/>
<path d="M14.8393 12.0469C14.7585 12.0469 14.681 12.0148 14.6239 11.9576C14.5668 11.9005 14.5347 11.823 14.5347 11.7422V3.80516C14.5347 3.72423 14.5668 3.64661 14.624 3.58938C14.6813 3.53215 14.7589 3.5 14.8398 3.5C14.9208 3.5 14.9984 3.53215 15.0556 3.58938C15.1128 3.64661 15.145 3.72423 15.145 3.80516V11.7373C15.1456 11.7778 15.1382 11.8181 15.1231 11.8557C15.108 11.8933 15.0856 11.9275 15.0571 11.9563C15.0287 11.9851 14.9948 12.008 14.9574 12.0235C14.92 12.0391 14.8798 12.047 14.8393 12.0469V12.0469Z" fill="white"/>
<path d="M14.8364 26.9739C14.7556 26.9739 14.6781 26.9418 14.621 26.8847C14.5638 26.8275 14.5317 26.75 14.5317 26.6692V18.737C14.5317 18.6561 14.5639 18.5785 14.6211 18.5213C14.6783 18.464 14.756 18.4319 14.8369 18.4319C14.9178 18.4319 14.9955 18.464 15.0527 18.5213C15.1099 18.5785 15.1421 18.6561 15.1421 18.737V26.6692C15.1421 26.7093 15.1342 26.749 15.1188 26.786C15.1034 26.8231 15.0809 26.8567 15.0525 26.885C15.0241 26.9133 14.9904 26.9357 14.9533 26.951C14.9162 26.9662 14.8765 26.974 14.8364 26.9739V26.9739Z" fill="white"/>
<path d="M23.2167 23.8249C23.1748 23.8249 23.1334 23.8163 23.095 23.7996C23.0567 23.7828 23.0222 23.7583 22.9938 23.7276L17.3792 17.7062C17.3519 17.6769 17.3307 17.6425 17.3167 17.6051C17.3026 17.5676 17.2961 17.5277 17.2976 17.4877C17.299 17.4477 17.3082 17.4084 17.3248 17.3719C17.3414 17.3355 17.365 17.3027 17.3943 17.2755C17.4236 17.2482 17.4579 17.2269 17.4954 17.2129C17.5329 17.1989 17.5728 17.1924 17.6128 17.1938C17.6528 17.1952 17.6921 17.2045 17.7285 17.2211C17.7649 17.2377 17.7977 17.2613 17.825 17.2905L23.4396 23.312C23.4802 23.3554 23.5073 23.4097 23.5174 23.4683C23.5276 23.5269 23.5204 23.5872 23.4967 23.6417C23.473 23.6962 23.4338 23.7426 23.3841 23.7752C23.3343 23.8078 23.2761 23.825 23.2167 23.8249V23.8249Z" fill="white"/>
<path d="M6.34466 23.4531C6.28373 23.4534 6.22411 23.4354 6.17351 23.4014C6.12291 23.3675 6.08365 23.3191 6.0608 23.2626C6.03795 23.2062 6.03257 23.1441 6.04535 23.0845C6.05812 23.025 6.08847 22.9706 6.13246 22.9284L12.0507 17.2058C12.1089 17.1497 12.187 17.119 12.2679 17.1204C12.3488 17.1219 12.4258 17.1554 12.4819 17.2136C12.5381 17.2718 12.5688 17.35 12.5673 17.4308C12.5659 17.5117 12.5323 17.5887 12.4741 17.6448L6.552 23.3674C6.49635 23.4214 6.42217 23.452 6.34466 23.4531V23.4531Z" fill="white"/>
<path d="M17.608 13.3123C17.5468 13.3125 17.4869 13.2941 17.4363 13.2598C17.3856 13.2254 17.3465 13.1765 17.324 13.1196C17.3015 13.0626 17.2967 13.0002 17.3102 12.9405C17.3237 12.8808 17.3549 12.8265 17.3997 12.7848L23.4211 7.17023C23.4504 7.14294 23.4848 7.12168 23.5222 7.10767C23.5597 7.09366 23.5996 7.08716 23.6396 7.08857C23.6796 7.08997 23.7189 7.09923 23.7554 7.11583C23.7918 7.13243 23.8246 7.15604 23.8519 7.18532C23.8791 7.21459 23.9004 7.24895 23.9144 7.28644C23.9284 7.32393 23.9349 7.36381 23.9335 7.4038C23.9321 7.4438 23.9228 7.48313 23.9062 7.51955C23.8896 7.55596 23.866 7.58875 23.8368 7.61604L17.8153 13.2306C17.7591 13.2831 17.685 13.3123 17.608 13.3123V13.3123Z" fill="white"/>
<path d="M12.1216 13.3124C12.0443 13.3126 11.9698 13.2834 11.9133 13.2306L5.89186 7.61897C5.83274 7.56386 5.79794 7.48751 5.79511 7.40673C5.79228 7.32596 5.82165 7.24736 5.87677 7.18825C5.93189 7.12913 6.00823 7.09433 6.08901 7.0915C6.16979 7.08867 6.24838 7.11804 6.3075 7.17316L12.3289 12.7877C12.3737 12.8294 12.4049 12.8837 12.4184 12.9434C12.4319 13.0031 12.4271 13.0655 12.4046 13.1225C12.3821 13.1794 12.343 13.2283 12.2923 13.2627C12.2417 13.2971 12.1818 13.3154 12.1206 13.3153L12.1216 13.3124Z" fill="white"/>
<path d="M11.4063 15.6923H3.47801C3.39708 15.6923 3.31946 15.6602 3.26223 15.603C3.205 15.5457 3.17285 15.4681 3.17285 15.3872C3.17285 15.3063 3.205 15.2286 3.26223 15.1714C3.31946 15.1142 3.39708 15.082 3.47801 15.082H11.4063C11.4872 15.082 11.5649 15.1142 11.6221 15.1714C11.6793 15.2286 11.7115 15.3063 11.7115 15.3872C11.7115 15.4681 11.6793 15.5457 11.6221 15.603C11.5649 15.6602 11.4872 15.6923 11.4063 15.6923V15.6923Z" fill="white"/>
<path d="M26.4512 15.6923H18.519C18.4381 15.6923 18.3605 15.6602 18.3032 15.603C18.246 15.5457 18.2139 15.4681 18.2139 15.3872C18.2139 15.3063 18.246 15.2286 18.3032 15.1714C18.3605 15.1142 18.4381 15.082 18.519 15.082H26.4512C26.5321 15.082 26.6098 15.1142 26.667 15.1714C26.7242 15.2286 26.7564 15.3063 26.7564 15.3872C26.7564 15.4681 26.7242 15.5457 26.667 15.603C26.6098 15.6602 26.5321 15.6923 26.4512 15.6923Z" fill="white"/>
<path d="M13.4253 12.3204C13.3711 12.3204 13.318 12.306 13.2713 12.2786C13.2246 12.2512 13.186 12.2119 13.1595 12.1647L11.3773 9.00212C11.3375 8.93165 11.3274 8.84826 11.3491 8.77031C11.3708 8.69237 11.4226 8.62624 11.4931 8.58648C11.5636 8.54673 11.647 8.5366 11.7249 8.55832C11.8028 8.58004 11.869 8.63184 11.9087 8.70232L13.691 11.8649C13.7172 11.9113 13.7308 11.9637 13.7304 12.017C13.73 12.0703 13.7157 12.1225 13.6888 12.1685C13.6619 12.2145 13.6234 12.2527 13.5772 12.2792C13.5309 12.3056 13.4786 12.3195 13.4253 12.3194V12.3204Z" fill="white"/>
<path d="M11.1034 8.27683C11.0492 8.27682 10.9961 8.26238 10.9494 8.23501C10.9027 8.20764 10.8641 8.16831 10.8376 8.12108L10.2147 7.01628C10.195 6.98139 10.1824 6.94295 10.1775 6.90318C10.1727 6.86341 10.1757 6.82307 10.1865 6.78447C10.1972 6.74588 10.2155 6.70978 10.2402 6.67824C10.2649 6.6467 10.2956 6.62033 10.3305 6.60064C10.3654 6.58096 10.4038 6.56834 10.4436 6.56351C10.4834 6.55867 10.5237 6.56172 10.5623 6.57248C10.6009 6.58323 10.637 6.60149 10.6685 6.6262C10.7001 6.6509 10.7264 6.68158 10.7461 6.71648L11.3691 7.82128C11.3953 7.86767 11.4089 7.92012 11.4085 7.97341C11.4081 8.02669 11.3938 8.07894 11.3669 8.12494C11.34 8.17095 11.3015 8.20909 11.2553 8.23557C11.209 8.26205 11.1566 8.27594 11.1034 8.27585V8.27683Z" fill="white"/>
<path d="M19.313 23.9222C19.2588 23.9222 19.2057 23.9078 19.159 23.8804C19.1123 23.853 19.0737 23.8137 19.0472 23.7665L17.265 20.6039C17.2453 20.569 17.2326 20.5306 17.2278 20.4908C17.223 20.4511 17.226 20.4107 17.2368 20.3721C17.2475 20.3335 17.2658 20.2974 17.2905 20.2659C17.3152 20.2343 17.3459 20.208 17.3808 20.1883C17.4157 20.1686 17.4541 20.156 17.4939 20.1512C17.5337 20.1463 17.574 20.1494 17.6126 20.1601C17.6512 20.1709 17.6873 20.1891 17.7188 20.2138C17.7504 20.2385 17.7767 20.2692 17.7964 20.3041L19.5826 23.4667C19.6088 23.5131 19.6224 23.5655 19.622 23.6188C19.6216 23.6721 19.6073 23.7243 19.5804 23.7703C19.5535 23.8163 19.515 23.8545 19.4688 23.881C19.4225 23.9075 19.3702 23.9213 19.3169 23.9213L19.313 23.9222Z" fill="white"/>
<path d="M16.9916 19.8789C16.9374 19.8789 16.8843 19.8644 16.8376 19.8371C16.7908 19.8097 16.7523 19.7704 16.7258 19.7231L16.1028 18.6183C16.0631 18.5479 16.053 18.4645 16.0747 18.3865C16.0964 18.3086 16.1482 18.2425 16.2187 18.2027C16.2892 18.1629 16.3725 18.1528 16.4505 18.1745C16.5284 18.1963 16.5946 18.2481 16.6343 18.3185L17.2573 19.4233C17.2835 19.4697 17.2971 19.5222 17.2967 19.5755C17.2963 19.6287 17.282 19.681 17.2551 19.727C17.2282 19.773 17.1897 19.8111 17.1435 19.8376C17.0972 19.8641 17.0448 19.878 16.9916 19.8779V19.8789Z" fill="white"/>
<path d="M16.3285 12.3204C16.2754 12.3204 16.2232 12.3065 16.1771 12.2801C16.131 12.2537 16.0926 12.2156 16.0657 12.1698C16.0389 12.1239 16.0245 12.0718 16.0239 12.0187C16.0234 11.9656 16.0368 11.9132 16.0628 11.8668L17.9453 8.5028C17.9848 8.43219 18.0508 8.38017 18.1286 8.35817C18.2065 8.33617 18.2899 8.34601 18.3605 8.38551C18.4311 8.425 18.4831 8.49093 18.5051 8.56879C18.5271 8.64665 18.5173 8.73005 18.4778 8.80066L16.5943 12.1647C16.5678 12.2119 16.5292 12.2513 16.4825 12.2786C16.4358 12.306 16.3827 12.3204 16.3285 12.3204V12.3204Z" fill="white"/>
<path d="M18.7495 8.07639C18.6962 8.07648 18.6438 8.06259 18.5976 8.03611C18.5514 8.00963 18.5129 7.97148 18.486 7.92548C18.4591 7.87948 18.4447 7.82723 18.4443 7.77395C18.444 7.72066 18.4575 7.66821 18.4838 7.62182L19.1067 6.51702C19.1465 6.44654 19.2126 6.39474 19.2906 6.37302C19.3685 6.35129 19.4519 6.36142 19.5224 6.40118C19.5929 6.44094 19.6447 6.50706 19.6664 6.58501C19.6881 6.66296 19.678 6.74634 19.6382 6.81682L19.0152 7.92162C18.9887 7.96867 18.95 8.0078 18.9033 8.03499C18.8566 8.06219 18.8035 8.07648 18.7495 8.07639Z" fill="white"/>
<path d="M10.4805 23.8251C10.4272 23.8252 10.3748 23.8113 10.3286 23.7848C10.2823 23.7583 10.2438 23.7202 10.2169 23.6742C10.19 23.6282 10.1757 23.5759 10.1753 23.5226C10.1749 23.4693 10.1885 23.4169 10.2147 23.3705L11.997 20.2079C12.0368 20.1375 12.1029 20.0857 12.1808 20.0639C12.2588 20.0422 12.3422 20.0523 12.4126 20.0921C12.4831 20.1319 12.5349 20.198 12.5566 20.2759C12.5784 20.3539 12.5682 20.4373 12.5285 20.5077L10.7462 23.6703C10.7196 23.7174 10.681 23.7565 10.6343 23.7837C10.5876 23.8109 10.5345 23.8252 10.4805 23.8251V23.8251Z" fill="white"/>
<path d="M12.8013 19.7795C12.748 19.7796 12.6956 19.7657 12.6494 19.7392C12.6031 19.7128 12.5646 19.6746 12.5377 19.6286C12.5108 19.5826 12.4965 19.5304 12.4961 19.4771C12.4957 19.4238 12.5093 19.3713 12.5355 19.3249L13.1585 18.2201C13.1782 18.1852 13.2045 18.1546 13.2361 18.1299C13.2676 18.1051 13.3037 18.0869 13.3423 18.0761C13.3809 18.0654 13.4213 18.0623 13.461 18.0672C13.5008 18.072 13.5392 18.0846 13.5741 18.1043C13.609 18.124 13.6397 18.1504 13.6644 18.1819C13.6891 18.2134 13.7074 18.2495 13.7181 18.2881C13.7289 18.3267 13.7319 18.3671 13.7271 18.4068C13.7223 18.4466 13.7097 18.485 13.69 18.5199L13.067 19.6247C13.0404 19.6718 13.0018 19.7109 12.9551 19.7381C12.9084 19.7653 12.8553 19.7796 12.8013 19.7795V19.7795Z" fill="white"/>
<path d="M9.43231 13.4777C9.39077 13.4776 9.34968 13.469 9.3116 13.4524L5.97967 12.0099C5.94292 11.9939 5.90967 11.971 5.88181 11.9422C5.85394 11.9134 5.83202 11.8794 5.81729 11.8422C5.80255 11.805 5.7953 11.7652 5.79594 11.7251C5.79658 11.6851 5.8051 11.6456 5.82101 11.6088C5.83693 11.5721 5.85992 11.5388 5.88869 11.511C5.91746 11.4831 5.95143 11.4612 5.98867 11.4464C6.02591 11.4317 6.06569 11.4244 6.10573 11.4251C6.14577 11.4257 6.1853 11.4342 6.22205 11.4502L9.5569 12.8927C9.62111 12.9207 9.67374 12.9699 9.70592 13.0321C9.7381 13.0943 9.74788 13.1657 9.73359 13.2342C9.71931 13.3028 9.68184 13.3643 9.6275 13.4085C9.57316 13.4527 9.50526 13.4768 9.43523 13.4768L9.43231 13.4777Z" fill="white"/>
<path d="M11.5282 14.4249C11.4867 14.4248 11.4456 14.4162 11.4075 14.3996L10.2385 13.8963C10.2017 13.8804 10.1685 13.8574 10.1406 13.8287C10.1127 13.7999 10.0908 13.7659 10.0761 13.7287C10.0613 13.6914 10.0541 13.6517 10.0547 13.6116C10.0554 13.5716 10.0639 13.5321 10.0798 13.4953C10.0957 13.4585 10.1187 13.4253 10.1475 13.3974C10.1762 13.3696 10.2102 13.3476 10.2475 13.3329C10.2847 13.3182 10.3245 13.3109 10.3645 13.3116C10.4046 13.3122 10.4441 13.3207 10.4808 13.3366L11.6489 13.8409C11.7131 13.8688 11.7658 13.918 11.7979 13.9802C11.8301 14.0424 11.8399 14.1138 11.8256 14.1824C11.8113 14.2509 11.7739 14.3125 11.7195 14.3566C11.6652 14.4008 11.5973 14.4249 11.5272 14.4249H11.5282Z" fill="white"/>
<path d="M20.3614 13.3803C20.2914 13.3804 20.2235 13.3562 20.1691 13.3121C20.1148 13.2679 20.0773 13.2064 20.063 13.1378C20.0488 13.0692 20.0585 12.9979 20.0907 12.9357C20.1229 12.8735 20.1755 12.8242 20.2397 12.7963L23.5736 11.3537C23.6478 11.3216 23.7318 11.3202 23.807 11.35C23.8822 11.3798 23.9425 11.4382 23.9746 11.5124C24.0068 11.5866 24.0081 11.6706 23.9784 11.7458C23.9486 11.821 23.8902 11.8813 23.816 11.9134L20.4841 13.356C20.4453 13.3725 20.4035 13.3808 20.3614 13.3803V13.3803Z" fill="white"/>
<path d="M18.2677 14.3275C18.1976 14.3275 18.1297 14.3034 18.0754 14.2592C18.021 14.2151 17.9836 14.1535 17.9693 14.0849C17.955 14.0164 17.9648 13.945 17.997 13.8828C18.0291 13.8206 18.0818 13.7714 18.146 13.7434L19.3141 13.2392C19.3508 13.2233 19.3903 13.2148 19.4304 13.2142C19.4704 13.2135 19.5102 13.2208 19.5474 13.2355C19.5847 13.2502 19.6186 13.2722 19.6474 13.3C19.6762 13.3279 19.6992 13.3611 19.7151 13.3979C19.731 13.4346 19.7395 13.4742 19.7402 13.5142C19.7408 13.5543 19.7335 13.594 19.7188 13.6313C19.7041 13.6685 19.6822 13.7025 19.6543 13.7312C19.6264 13.76 19.5932 13.783 19.5564 13.7989L18.3884 14.3031C18.3502 14.3194 18.3091 14.3277 18.2677 14.3275V14.3275Z" fill="white"/>
<path d="M7.76476 18.3329C7.69294 18.3335 7.62322 18.3087 7.56789 18.2629C7.51257 18.2171 7.47521 18.1532 7.4624 18.0826C7.4496 18.0119 7.46217 17.939 7.4979 17.8767C7.53363 17.8144 7.59022 17.7667 7.65769 17.7421L9.25308 17.1425C9.32885 17.1141 9.4128 17.1169 9.48646 17.1504C9.56011 17.1839 9.61745 17.2453 9.64584 17.3211C9.67424 17.3968 9.67138 17.4808 9.63788 17.5544C9.60438 17.6281 9.543 17.6854 9.46723 17.7138L7.87183 18.3134C7.83759 18.3263 7.80133 18.3328 7.76476 18.3329V18.3329Z" fill="white"/>
<path d="M10.3404 17.4006C10.2686 17.4012 10.1989 17.3764 10.1436 17.3306C10.0883 17.2848 10.0509 17.2209 10.0381 17.1502C10.0253 17.0795 10.0379 17.0066 10.0736 16.9443C10.1093 16.882 10.1659 16.8343 10.2334 16.8097L11.4209 16.3639C11.4967 16.3355 11.5806 16.3384 11.6543 16.3719C11.7279 16.4053 11.7853 16.4667 11.8137 16.5425C11.8421 16.6183 11.8392 16.7022 11.8057 16.7759C11.7722 16.8495 11.7108 16.9069 11.6351 16.9353L10.4475 17.3811C10.4133 17.3939 10.377 17.4005 10.3404 17.4006V17.4006Z" fill="white"/>
<path d="M5.96398 19.0747C5.89216 19.0753 5.82243 19.0505 5.76711 19.0047C5.71179 18.9589 5.67443 18.8951 5.66162 18.8244C5.64881 18.7537 5.66139 18.6808 5.69712 18.6185C5.73285 18.5562 5.78944 18.5085 5.85691 18.4839L6.75924 18.1442C6.83501 18.1158 6.91896 18.1186 6.99261 18.1521C7.06627 18.1856 7.12361 18.247 7.152 18.3228C7.1804 18.3985 7.17754 18.4825 7.14404 18.5562C7.11054 18.6298 7.04916 18.6871 6.97339 18.7155L6.07105 19.0553C6.03681 19.0681 6.00055 19.0747 5.96398 19.0747V19.0747Z" fill="white"/>
<path d="M22.0309 18.2338C21.9943 18.2338 21.958 18.2272 21.9238 18.2143L20.3284 17.6147C20.2909 17.6007 20.2565 17.5793 20.2272 17.552C20.1979 17.5246 20.1743 17.4918 20.1577 17.4553C20.1412 17.4189 20.1319 17.3795 20.1305 17.3394C20.1292 17.2994 20.1357 17.2595 20.1498 17.2219C20.1638 17.1844 20.1852 17.1501 20.2125 17.1208C20.2398 17.0915 20.2727 17.0679 20.3092 17.0513C20.3456 17.0347 20.385 17.0255 20.4251 17.0241C20.4651 17.0227 20.505 17.0293 20.5425 17.0433L22.1379 17.6429C22.2054 17.6676 22.262 17.7153 22.2977 17.7776C22.3334 17.8399 22.346 17.9128 22.3332 17.9835C22.3204 18.0541 22.283 18.118 22.2277 18.1638C22.1724 18.2096 22.1027 18.2344 22.0309 18.2338V18.2338Z" fill="white"/>
<path d="M19.4555 17.3031C19.419 17.3031 19.3827 17.2965 19.3484 17.2837L18.1609 16.8379C18.1234 16.8238 18.089 16.8025 18.0597 16.7751C18.0305 16.7478 18.0068 16.7149 17.9903 16.6785C17.9568 16.6048 17.9539 16.5209 17.9823 16.4451C18.0107 16.3693 18.068 16.3079 18.1417 16.2744C18.2153 16.2409 18.2993 16.2381 18.3751 16.2665L19.5626 16.7123C19.6301 16.7369 19.6866 16.7846 19.7224 16.8469C19.7581 16.9092 19.7707 16.9821 19.7579 17.0528C19.7451 17.1235 19.7077 17.1874 19.6524 17.2332C19.5971 17.279 19.5273 17.3037 19.4555 17.3031Z" fill="white"/>
<path d="M23.8315 18.9756C23.7949 18.9756 23.7586 18.969 23.7244 18.9561L22.8211 18.6164C22.7453 18.588 22.6839 18.5307 22.6504 18.457C22.6169 18.3834 22.6141 18.2994 22.6425 18.2237C22.6709 18.1479 22.7282 18.0865 22.8018 18.053C22.8755 18.0195 22.9594 18.0166 23.0352 18.045L23.9385 18.3848C24.006 18.4094 24.0626 18.4571 24.0983 18.5194C24.1341 18.5817 24.1466 18.6546 24.1338 18.7253C24.121 18.7959 24.0837 18.8598 24.0283 18.9056C23.973 18.9514 23.9033 18.9762 23.8315 18.9756V18.9756Z" fill="white"/>
</svg>
