<svg width="30" height="30" viewBox="0 0 30 30" fill="none" xmlns="http://www.w3.org/2000/svg">
<circle cx="15" cy="15" r="15" fill="black"/>
<path d="M10.5719 8.01115C9.51216 8.07782 8.56123 8.47082 7.71206 9.18665C6.88044 9.88844 6.26988 10.9552 6.0804 12.0359C5.95407 12.7447 5.97513 13.2781 6.15409 14.2009C6.57165 16.3063 7.79628 18.4117 9.81393 20.4715C10.9684 21.654 12.193 22.6154 13.4562 23.3348C13.9334 23.605 14.7195 23.9699 14.8879 23.998C15.1651 24.0436 16.5687 23.3172 17.5968 22.5909C19.3127 21.3873 21.011 19.6504 22.1058 17.9731C22.9655 16.6607 23.4743 15.4747 23.7269 14.2009C23.9024 13.3062 23.9234 12.9342 23.8357 12.278C23.555 10.127 21.8847 8.40064 19.7618 8.06027C19.3127 7.98658 18.5442 7.99009 18.1091 8.06378C17.3792 8.18659 16.5687 8.53398 15.9932 8.96909C15.7055 9.18665 15.2318 9.64632 15.0353 9.90248L14.9405 10.0253L14.8493 9.90248C14.6668 9.66387 14.0071 9.03927 13.744 8.86031C12.8211 8.2287 11.7368 7.93746 10.5719 8.01115Z" fill="white"/>
</svg>
