<svg width="30" height="30" viewBox="0 0 30 30" fill="none" xmlns="http://www.w3.org/2000/svg">
<path d="M15 30C23.2843 30 30 23.2843 30 15C30 6.71573 23.2843 0 15 0C6.71573 0 0 6.71573 0 15C0 23.2843 6.71573 30 15 30Z" fill="black"/>
<path opacity="0.33" d="M21.4731 20.6695L20.2844 18.2716C20.1835 18.0699 19.979 17.9428 19.755 17.9417H10.2445C10.0205 17.9428 9.81597 18.0699 9.71511 18.2716L8.52644 20.6695C8.43393 20.8549 8.44285 21.0758 8.5504 21.2528C8.65851 21.4298 8.84967 21.5377 9.0553 21.5383H20.9443C21.1499 21.5377 21.341 21.4298 21.4492 21.2528C21.5567 21.0758 21.5656 20.8549 21.4731 20.6695H21.4731ZM10.6307 16.647C10.5243 16.4615 10.5243 16.2334 10.6307 16.0479L11.8194 13.65C11.9197 13.4606 12.1119 13.3393 12.3248 13.3325H17.6747C17.8987 13.3331 18.1032 13.4606 18.2035 13.6618L19.3922 16.0597H19.3928C19.4853 16.2452 19.4763 16.466 19.3682 16.643C19.2607 16.8201 19.0695 16.9285 18.8633 16.9291H11.1361C10.9305 16.9291 10.7394 16.8229 10.6307 16.647L10.6307 16.647Z" fill="white"/>
<path d="M13.2166 12.3192H16.7832C16.9894 12.3186 17.18 12.2102 17.2881 12.0331C17.3957 11.8561 17.4051 11.6353 17.3121 11.4498L15.5288 7.85328C15.4274 7.65322 15.2228 7.52734 14.9999 7.52734C14.777 7.52734 14.5725 7.65322 14.4711 7.85328L12.6878 11.4498C12.5947 11.6353 12.6042 11.8561 12.7118 12.0331C12.8199 12.2102 13.0105 12.3186 13.2167 12.3192H13.2166Z" fill="white"/>
</svg>
