<svg width="30" height="30" viewBox="0 0 30 30" fill="none" xmlns="http://www.w3.org/2000/svg">
<circle cx="15" cy="15" r="15" fill="black"/>
<path fill-rule="evenodd" clip-rule="evenodd" d="M10.7979 21.7266C10.5058 21.5139 10.3893 21.1551 10.5007 20.8119L11.8377 16.6975L8.33871 14.158C8.04655 13.9457 7.93007 13.5865 8.04187 13.243C8.15329 12.8998 8.45869 12.6777 8.8198 12.6777H13.1458L14.48 8.56563C14.5914 8.22204 14.8968 8 15.2583 8C15.6194 8 15.9248 8.22204 16.0362 8.56563L17.3728 12.6797L21.696 12.6777C22.0571 12.6777 22.3625 12.8998 22.4743 13.243C22.5861 13.5865 22.4693 13.9457 22.1771 14.158L18.6774 16.7006L20.0151 20.8119C20.1265 21.1551 20.01 21.5143 19.7179 21.7266C19.4257 21.9389 19.0486 21.9389 18.7564 21.7266L15.2563 19.184L11.7601 21.7266C11.614 21.8325 11.4465 21.8855 11.279 21.8855C11.1115 21.8855 10.944 21.8325 10.7979 21.7266Z" fill="white"/>
</svg>
