<svg width="30" height="30" viewBox="0 0 30 30" fill="none" xmlns="http://www.w3.org/2000/svg">
<circle cx="15" cy="15" r="15" fill="#9D19CB"/>
<path d="M19.2885 11.2327V14.3908C19.0542 14.0558 18.7919 13.7411 18.5034 13.45C18.4653 13.412 18.4264 13.3714 18.3858 13.335H18.3866C18.0897 13.0414 17.7674 12.7758 17.423 12.5406C17.1363 12.3409 16.8351 12.1641 16.5204 12.011V11.2326C16.5204 10.4247 15.8664 9.77073 15.0584 9.77073H11.643C10.8359 9.77157 10.182 10.4255 10.1811 11.2326V11.9949C9.86725 12.1463 9.56521 12.3223 9.27841 12.5202C8.95861 12.7326 8.6566 12.9712 8.37656 13.2334L8.30211 13.3054C7.96709 13.6294 7.66507 13.9838 7.39941 14.3662V11.2326C7.40026 10.1082 7.84864 9.0304 8.64474 8.23686C9.43999 7.4433 10.5186 6.99829 11.643 7H15.0541C16.1768 7.00085 17.2528 7.4467 18.0473 8.24026C18.8408 9.03383 19.2876 10.1101 19.2885 11.2327Z" fill="white"/>
<path d="M19.5777 17.3058C19.5253 17.3997 19.4796 17.497 19.4424 17.5968H17.8993C17.5287 16.6476 16.615 16.0215 15.5955 16.0181H14.9889C13.6235 16.0181 12.5143 17.1205 12.5067 18.4861V21.4192C12.5101 21.9962 12.714 22.5554 13.0846 22.9978H9.52705C9.07698 23.0021 8.65058 22.799 8.3697 22.4479C7.47969 21.332 6.99664 19.9471 7.00002 18.5198C7.00256 16.7661 7.72759 15.091 9.00337 13.8879C10.2098 12.7525 11.8145 12.1358 13.472 12.1722C15.1285 12.2086 16.7047 12.8947 17.8603 14.0825C18.7351 14.9665 19.3324 16.0866 19.5777 17.3058Z" fill="white"/>
<path d="M23.9173 18.4881V21.4212V21.4204C23.9173 21.8392 23.7515 22.241 23.4554 22.5371C23.1593 22.8332 22.7574 22.9999 22.3387 22.9999H21.7431C20.8709 22.9999 20.1636 22.2926 20.1636 21.4204H17.1629C17.1629 21.8392 16.9971 22.241 16.701 22.5371C16.4049 22.8332 16.003 22.9999 15.5843 22.9999H14.9887C14.1165 22.9999 13.4092 22.2926 13.4092 21.4204V18.4872V18.4881C13.4168 17.6209 14.1215 16.9221 14.9887 16.9221H15.5953C16.4624 16.9221 17.1672 17.6209 17.1748 18.4881H20.1748C20.1824 17.6209 20.8872 16.9221 21.7543 16.9221H22.3609C23.2196 16.934 23.9108 17.6294 23.9176 18.4881L23.9173 18.4881Z" fill="white"/>
</svg>
