<svg width="30" height="30" viewBox="0 0 30 30" fill="none" xmlns="http://www.w3.org/2000/svg">
<circle cx="15" cy="15" r="15" fill="black"/>
<path d="M15.0073 21.216C12.9673 21.216 11.3533 20.634 10.1653 19.47L11.8573 17.31C12.7093 18.09 13.7473 18.48 14.9713 18.48C15.5953 18.48 16.0753 18.348 16.4113 18.084C16.7593 17.82 16.9333 17.49 16.9333 17.094C16.9333 16.674 16.7713 16.338 16.4473 16.086C16.1233 15.834 15.6613 15.708 15.0613 15.708C14.1133 15.708 13.3213 16.008 12.6853 16.608L10.5433 16.086V8.994H19.2553V11.694H13.6393V14.016C14.2993 13.38 15.1573 13.062 16.2133 13.062C17.2693 13.062 18.1753 13.422 18.9313 14.142C19.6993 14.862 20.0833 15.804 20.0833 16.968C20.0833 18.264 19.6273 19.296 18.7153 20.064C17.8033 20.832 16.5673 21.216 15.0073 21.216Z" fill="white"/>
</svg>
