<svg width="30" height="30" viewBox="0 0 30 30" fill="none" xmlns="http://www.w3.org/2000/svg">
<circle cx="15" cy="15" r="15" fill="black"/>
<path d="M16.2182 20H12.9702L10.6502 16.416L8.33019 20H5.06619L8.79419 14.528L5.30619 9.328H8.55419L10.6502 12.672L12.7142 9.328H15.9782L12.5062 14.512L16.2182 20ZM20.9827 20.192C19.0094 20.192 17.4307 19.6267 16.2467 18.496L17.7027 16.432C18.6414 17.3707 19.7774 17.84 21.1107 17.84C21.58 17.84 21.948 17.76 22.2147 17.6C22.492 17.4293 22.6307 17.216 22.6307 16.96C22.6307 16.736 22.4814 16.5547 22.1827 16.416C21.884 16.2667 21.5107 16.16 21.0627 16.096C20.6147 16.0213 20.1294 15.9093 19.6067 15.76C19.084 15.6 18.5987 15.4187 18.1507 15.216C17.7027 15.0027 17.3294 14.6667 17.0307 14.208C16.732 13.7493 16.5827 13.2 16.5827 12.56C16.5827 11.6213 16.9614 10.8213 17.7187 10.16C18.4867 9.49867 19.5267 9.168 20.8387 9.168C22.5774 9.168 24.0227 9.664 25.1747 10.656L23.6707 12.624C22.7747 11.888 21.7347 11.52 20.5507 11.52C19.7827 11.52 19.3987 11.776 19.3987 12.288C19.3987 12.4907 19.548 12.6667 19.8467 12.816C20.1454 12.9547 20.5187 13.0613 20.9667 13.136C21.4147 13.2107 21.8947 13.328 22.4067 13.488C22.9294 13.6373 23.4147 13.8187 23.8627 14.032C24.3107 14.2453 24.684 14.576 24.9827 15.024C25.2814 15.472 25.4307 16.0053 25.4307 16.624C25.4307 17.712 25.0414 18.5813 24.2627 19.232C23.484 19.872 22.3907 20.192 20.9827 20.192Z" fill="white"/>
</svg>
