<svg width="30" height="30" viewBox="0 0 30 30" fill="none" xmlns="http://www.w3.org/2000/svg">
<circle cx="15" cy="15" r="15" fill="black"/>
<path d="M15.3673 21.216C13.5553 21.216 12.1933 20.646 11.2813 19.506C10.3693 18.354 9.91331 16.86 9.91331 15.024C9.91331 13.116 10.4473 11.604 11.5153 10.488C12.5833 9.372 14.0293 8.814 15.8533 8.814C17.3053 8.814 18.5233 9.198 19.5073 9.966L18.1573 12.342C17.5093 11.814 16.7413 11.55 15.8533 11.55C15.0973 11.55 14.4373 11.808 13.8733 12.324C13.3213 12.828 13.0453 13.482 13.0453 14.286V14.43C13.3453 14.022 13.7593 13.692 14.2873 13.44C14.8273 13.188 15.3973 13.062 15.9973 13.062C17.1493 13.062 18.1273 13.416 18.9313 14.124C19.7473 14.82 20.1553 15.78 20.1553 17.004C20.1553 18.24 19.7053 19.254 18.8053 20.046C17.9053 20.826 16.7593 21.216 15.3673 21.216ZM15.1693 18.48C15.7213 18.48 16.1653 18.342 16.5013 18.066C16.8493 17.79 17.0233 17.472 17.0233 17.112C17.0233 16.644 16.8253 16.29 16.4293 16.05C16.0453 15.81 15.5893 15.69 15.0613 15.69C14.2453 15.69 13.5733 15.96 13.0453 16.5C13.0933 17.052 13.2913 17.52 13.6393 17.904C13.9873 18.288 14.4973 18.48 15.1693 18.48Z" fill="white"/>
</svg>
