<svg width="30" height="30" viewBox="0 0 30 30" fill="none" xmlns="http://www.w3.org/2000/svg">
<circle cx="15" cy="15" r="15" fill="black"/>
<path d="M14.9985 21.216C13.5825 21.216 12.3765 20.928 11.3805 20.352C10.3965 19.776 9.90452 18.936 9.90452 17.832C9.90452 17.172 10.1265 16.572 10.5705 16.032C11.0265 15.492 11.6145 15.084 12.3345 14.808C10.8465 14.244 10.1025 13.314 10.1025 12.018C10.1025 11.466 10.2405 10.98 10.5165 10.56C10.8045 10.128 11.1885 9.792 11.6685 9.552C12.1485 9.3 12.6705 9.114 13.2345 8.994C13.7985 8.874 14.3865 8.814 14.9985 8.814C15.8385 8.814 16.6125 8.916 17.3205 9.12C18.0285 9.324 18.6345 9.678 19.1385 10.182C19.6425 10.674 19.8945 11.286 19.8945 12.018C19.8945 13.302 19.1445 14.232 17.6445 14.808C18.3645 15.084 18.9465 15.492 19.3905 16.032C19.8465 16.572 20.0745 17.172 20.0745 17.832C20.0745 18.576 19.8225 19.212 19.3185 19.74C18.8265 20.268 18.2085 20.646 17.4645 20.874C16.7205 21.102 15.8985 21.216 14.9985 21.216ZM14.9985 13.602C15.4425 13.542 15.8385 13.416 16.1865 13.224C16.5465 13.02 16.7265 12.768 16.7265 12.468C16.7265 12.132 16.5645 11.868 16.2405 11.676C15.9285 11.484 15.5145 11.388 14.9985 11.388C14.4705 11.388 14.0445 11.484 13.7205 11.676C13.4085 11.868 13.2525 12.132 13.2525 12.468C13.2525 12.768 13.4325 13.02 13.7925 13.224C14.1525 13.416 14.5545 13.542 14.9985 13.602ZM14.9985 18.642C15.5625 18.642 16.0245 18.534 16.3845 18.318C16.7565 18.102 16.9425 17.82 16.9425 17.472C16.9425 17.136 16.7325 16.86 16.3125 16.644C15.8925 16.416 15.4545 16.272 14.9985 16.212C14.5305 16.272 14.0865 16.416 13.6665 16.644C13.2585 16.86 13.0545 17.136 13.0545 17.472C13.0545 17.82 13.2345 18.102 13.5945 18.318C13.9545 18.534 14.4225 18.642 14.9985 18.642Z" fill="white"/>
</svg>
