<svg width="30" height="30" viewBox="0 0 30 30" fill="none" xmlns="http://www.w3.org/2000/svg">
<circle cx="15" cy="15" r="15" fill="black"/>
<path d="M11.1251 20.192C10.1438 20.192 9.26913 20.0373 8.50113 19.728C7.74379 19.4187 7.14646 19.0133 6.70913 18.512L8.10113 16.64C8.46379 17.0027 8.91179 17.28 9.44513 17.472C9.98913 17.664 10.5118 17.76 11.0131 17.76C11.5891 17.76 12.0318 17.664 12.3411 17.472C12.6505 17.28 12.8051 17.0293 12.8051 16.72C12.8051 16.4107 12.6611 16.1867 12.3731 16.048C12.0958 15.8987 11.6051 15.824 10.9011 15.824C10.0478 15.824 9.56779 15.8293 9.46113 15.84V13.392C9.59979 13.4027 10.0798 13.408 10.9011 13.408C12.0531 13.408 12.6291 13.1307 12.6291 12.576C12.6291 12.256 12.4638 12.016 12.1331 11.856C11.8025 11.6853 11.3705 11.6 10.8371 11.6C9.83446 11.6 8.94913 11.9413 8.18113 12.624L6.85313 10.896C7.87713 9.744 9.30113 9.168 11.1251 9.168C12.4691 9.168 13.5091 9.43467 14.2451 9.968C14.9918 10.4907 15.3651 11.2 15.3651 12.096C15.3651 12.704 15.1358 13.232 14.6771 13.68C14.2291 14.1173 13.6798 14.3893 13.0291 14.496C13.6691 14.56 14.2451 14.8213 14.7571 15.28C15.2798 15.728 15.5411 16.3093 15.5411 17.024C15.5411 17.9627 15.1358 18.7253 14.3251 19.312C13.5145 19.8987 12.4478 20.192 11.1251 20.192ZM24.0781 20H17.0381V9.328H19.7901V17.6H24.0781V20Z" fill="white"/>
</svg>
