<svg width="30" height="30" viewBox="0 0 30 30" fill="none" xmlns="http://www.w3.org/2000/svg">
<circle cx="15" cy="15" r="15" fill="#CB334E"/>
<path fill-rule="evenodd" clip-rule="evenodd" d="M14.8792 19.2084C14.3416 19.2084 13.9001 18.7833 13.8799 18.246L13.4587 7.03755C13.4374 6.47094 13.891 6 14.458 6H15.6809C16.2481 6 16.7018 6.47125 16.6802 7.03804L16.2535 18.2465C16.2331 18.7836 15.7917 19.2084 15.2542 19.2084H14.8792ZM13.962 23.8898C14.2701 24.1979 14.6391 24.3531 15.0669 24.3531C15.4936 24.3531 15.8627 24.1979 16.1708 23.8898C16.4789 23.5817 16.6329 23.2138 16.6329 22.786C16.6329 22.3582 16.4789 21.9891 16.1708 21.681C15.8627 21.3729 15.4936 21.2178 15.0669 21.2178C14.6391 21.2178 14.2701 21.3729 13.962 21.681C13.6539 21.9891 13.4998 22.3582 13.4998 22.786C13.4998 23.2138 13.6539 23.5817 13.962 23.8898Z" fill="white"/>
</svg>
