<svg width="30" height="30" viewBox="0 0 30 30" fill="none" xmlns="http://www.w3.org/2000/svg">
<circle cx="15" cy="15" r="15" fill="#666666"/>
<path d="M20.8 24.9L19.3 19.1H19.4C20 19.1 20.4 18.6 20.4 18.1V17.2C20.4 16.6 19.9 16.2 19.4 16.2L12.8 16.4L12 5.5C12 4.9 11.5 4.5 10.9 4.5L10 4.6C9.4 4.6 9 5.1 9 5.7L9.8 18.4C9.8 18.5 9.8 18.6 9.9 18.7C10.1 19.1 10.4 19.4 10.9 19.4H11L9.5 24.9C9.4 25.1 9.6 25.4 9.8 25.4C10 25.5 10.3 25.3 10.3 25.1L10.9 22.7H19.1L19.7 25.1C19.8 25.3 20 25.5 20.2 25.4C20.8 25.4 20.9 25.1 20.8 24.9ZM11.3 21.8L11.9 19.4L18.3 19.2L19 21.8H11.3V21.8Z" fill="white"/>
</svg>
