<svg width="30" height="30" viewBox="0 0 30 30" fill="none" xmlns="http://www.w3.org/2000/svg">
<circle cx="15" cy="15" r="15" fill="#3DAD77"/>
<path fill-rule="evenodd" clip-rule="evenodd" d="M10.5787 19.042H9.3169C7.76738 19.042 7 18.2746 7 16.7546V9.28739C7 7.76738 7.76738 7 9.3169 7H16.7251C18.2599 7 19.0346 7.76738 19.0346 9.28739V10.4163H20.3038C21.8385 10.4163 22.6133 11.1837 22.6133 12.7037V20.1709C22.6133 21.6909 21.8385 22.4583 20.3038 22.4583H12.8956C11.346 22.4583 10.5787 21.6909 10.5787 20.1709V19.042ZM8.18797 16.6882C8.18797 17.4556 8.59379 17.854 9.33166 17.854H10.5787V12.7037C10.5787 11.1763 11.346 10.4163 12.8956 10.4163H17.8467V9.3538C17.8467 8.58642 17.4334 8.18797 16.703 8.18797H9.33166C8.59379 8.18797 8.18797 8.58642 8.18797 9.3538V16.6882ZM16.153 19.6039C16.038 19.7744 15.8754 19.8617 15.6652 19.8617C15.4589 19.8617 15.3122 19.7823 15.1734 19.6078L13.119 17.0458C13.0159 16.9228 12.9722 16.8039 12.9722 16.6809C12.9722 16.4033 13.1785 16.201 13.464 16.201C13.6385 16.201 13.7615 16.2645 13.8804 16.4192L15.6453 18.6837L19.0839 13.2305C19.2028 13.0441 19.3218 12.9727 19.5161 12.9727C19.8017 12.9727 20 13.167 20 13.4486C20 13.5557 19.9643 13.6667 19.881 13.7976L16.153 19.6039Z" fill="white"/>
</svg>
