<svg width="30" height="30" viewBox="0 0 30 30" fill="none" xmlns="http://www.w3.org/2000/svg">
<circle cx="15" cy="15" r="15" fill="#FF870F"/>
<path d="M10.7478 20.192C13.0838 20.192 14.4438 18.896 15.1958 17.568L13.2438 16.624C12.7958 17.488 11.8358 18.176 10.7478 18.176C8.79576 18.176 7.38776 16.688 7.38776 14.672C7.38776 12.656 8.79576 11.168 10.7478 11.168C11.8358 11.168 12.7958 11.856 13.2438 12.72L15.1958 11.76C14.4438 10.416 13.0838 9.152 10.7478 9.152C7.53176 9.152 5.05176 11.376 5.05176 14.672C5.05176 17.952 7.53176 20.192 10.7478 20.192Z" fill="white"/>
<path d="M18.8201 20V16.192H21.5401C23.8441 16.192 25.1241 14.624 25.1241 12.768C25.1241 10.896 23.8601 9.328 21.5401 9.328H16.5481V20H18.8201ZM21.2201 14.192H18.8201V11.328H21.2201C22.1161 11.328 22.8041 11.872 22.8041 12.768C22.8041 13.648 22.1161 14.192 21.2201 14.192Z" fill="white"/>
</svg>
