<svg width="30" height="30" viewBox="0 0 30 30" fill="none" xmlns="http://www.w3.org/2000/svg">
<circle cx="15" cy="15" r="15" fill="#637077"/>
<path d="M22.1298 9.12H19.7498V8C19.7498 7.46957 19.5391 6.96086 19.164 6.58579C18.7889 6.21071 18.2802 6 17.7498 6H12.2798C11.7494 6 11.2407 6.21071 10.8656 6.58579C10.4905 6.96086 10.2798 7.46957 10.2798 8V9.12H7.8698C7.1882 9.12 6.53451 9.39077 6.05254 9.87274C5.57057 10.3547 5.2998 11.0084 5.2998 11.69V20.1C5.2998 20.7816 5.57057 21.4353 6.05254 21.9173C6.53451 22.3992 7.1882 22.67 7.8698 22.67H22.1298C22.8114 22.67 23.4651 22.3992 23.9471 21.9173C24.429 21.4353 24.6998 20.7816 24.6998 20.1V11.69C24.6998 11.0084 24.429 10.3547 23.9471 9.87274C23.4651 9.39077 22.8114 9.12 22.1298 9.12ZM11.6498 8C11.6498 7.91727 11.6661 7.83534 11.6978 7.75891C11.7294 7.68247 11.7758 7.61302 11.8343 7.55452C11.8928 7.49602 11.9623 7.44962 12.0387 7.41796C12.1151 7.3863 12.1971 7.37 12.2798 7.37H17.7198C17.8869 7.37 18.0471 7.43638 18.1653 7.55452C18.2834 7.67267 18.3498 7.83291 18.3498 8V9.12H11.6498V8ZM7.8698 21.32C7.71186 21.3201 7.55552 21.2883 7.41021 21.2264C7.2649 21.1645 7.13362 21.0738 7.0243 20.9598C6.91497 20.8458 6.82986 20.7109 6.77409 20.5631C6.71833 20.4153 6.69305 20.2578 6.6998 20.1V11.69C6.6998 11.3797 6.82307 11.0821 7.04249 10.8627C7.26191 10.6433 7.5595 10.52 7.8698 10.52H10.2498V21.32H7.8698ZM11.6498 21.32V10.52H18.3498V21.32H11.6498ZM23.2998 20.1C23.3066 20.2578 23.2813 20.4153 23.2255 20.5631C23.1697 20.7109 23.0846 20.8458 22.9753 20.9598C22.866 21.0738 22.7347 21.1645 22.5894 21.2264C22.4441 21.2883 22.2877 21.3201 22.1298 21.32H19.7498V10.52H22.1298C22.4401 10.52 22.7377 10.6433 22.9571 10.8627C23.1765 11.0821 23.2998 11.3797 23.2998 11.69V20.1Z" fill="white"/>
<rect x="10" y="10.52" width="10" height="10.8" fill="#637077"/>
<path d="M13.0226 20.0001V11.9961H11.5346L9.01465 14.5281L9.98665 15.5481L11.3186 14.1921V20.0001H13.0226Z" fill="white"/>
<path d="M17.4882 20.1441C19.4202 20.1441 20.6922 19.0641 20.6922 17.3721C20.6922 15.7521 19.4802 14.7801 18.1242 14.7801C17.3922 14.7801 16.7442 15.0681 16.3602 15.4521V13.4961H20.1522V11.9961H14.6562V16.5801L15.8442 16.9041C16.3242 16.4481 16.8642 16.2561 17.5242 16.2561C18.4362 16.2561 18.9642 16.7361 18.9642 17.4441C18.9642 18.0921 18.4242 18.6321 17.4762 18.6321C16.6362 18.6321 15.8922 18.3201 15.3522 17.7561L14.4042 18.9441C15.0882 19.6881 16.0962 20.1441 17.4882 20.1441Z" fill="white"/>
</svg>
