<svg width="30" height="30" viewBox="0 0 30 30" fill="none" xmlns="http://www.w3.org/2000/svg">
<circle cx="15" cy="15" r="15" fill="#45198C"/>
<path d="M9.5 19C9.5 16.1765 6.5 14.0588 5 13.3529C6.47266 12.6599 9.49763 9.35219 9.5 7C9.49763 9.35741 12.498 12.7292 14 13.3529C12.875 14.0588 9.5 16.1765 9.5 19Z" fill="#45198C" stroke="white" stroke-width="2" stroke-linejoin="round"/>
<path d="M19.5 13C19.5 10.8824 17.1667 9.29411 16 8.7647C17.1454 8.24494 19.4982 5.76414 19.5 4C19.4982 5.76806 21.8318 8.2969 23 8.7647C22.125 9.29411 19.5 10.8824 19.5 13Z" fill="#45198C" stroke="white" stroke-width="2" stroke-linejoin="round"/>
<path d="M17.5 26C17.5 23.8824 15.1667 22.2941 14 21.7647C15.1454 21.2449 17.4982 18.7641 17.5 17C17.4982 18.7681 19.8318 21.2969 21 21.7647C20.125 22.2941 17.5 23.8824 17.5 26Z" fill="#45198C" stroke="white" stroke-width="2" stroke-linejoin="round"/>
</svg>
