<svg width="30" height="30" viewBox="0 0 30 30" fill="none" xmlns="http://www.w3.org/2000/svg">
<circle cx="15" cy="15" r="15" fill="black"/>
<path d="M11.4271 8.59317C10.7362 7.50063 9.35432 6.77229 7.62699 7.06503C5.89966 7.35776 4.44425 9.14237 5.20873 11.5066C6.1954 14.558 10.0453 16.8978 11.4271 18.426" stroke="#E7E765" stroke-width="1.2" stroke-linecap="round" stroke-linejoin="round"/>
<path d="M19.4272 13.5932C20.1338 12.5006 21.547 11.7723 23.3135 12.065C25.08 12.3578 26.5685 14.1424 25.7866 16.5066C24.7776 19.558 20.8404 21.8978 19.4272 23.426" stroke="#E7E765" stroke-width="1.2" stroke-linecap="round" stroke-linejoin="round"/>
<path fill-rule="evenodd" clip-rule="evenodd" d="M15.7273 12.6565C17.2244 12.4027 18.3629 13.0328 18.92 13.9137C19.0971 14.1938 19.4678 14.2773 19.7478 14.1002C20.0279 13.923 20.1113 13.5524 19.9342 13.2724C19.1095 11.9682 17.4842 11.1416 15.5267 11.4733C13.4526 11.8249 11.7565 13.9655 12.6378 16.6911C13.1819 18.3736 14.4926 19.8102 15.7636 20.979C16.3066 21.4784 16.8593 21.9436 17.3588 22.3639C17.4491 22.4399 17.5377 22.5145 17.6242 22.5875C18.2004 23.0742 18.6683 23.4813 18.9821 23.8283C19.2043 24.0741 19.5838 24.0931 19.8296 23.8709C20.0753 23.6486 20.0944 23.2692 19.8722 23.0234C19.495 22.6063 18.9635 22.1479 18.3984 21.6707C18.3092 21.5954 18.2188 21.5193 18.1274 21.4423C17.6276 21.0216 17.0977 20.5757 16.5759 20.0957C15.3298 18.9498 14.2223 17.6907 13.7796 16.3219C13.132 14.319 14.3467 12.8904 15.7273 12.6565Z" fill="#E7E765"/>
<path fill-rule="evenodd" clip-rule="evenodd" d="M11.931 8.91881C12.5008 8.03779 13.6716 7.40091 15.2155 7.65675C16.6468 7.89396 17.8743 9.33017 17.217 11.318C17.1681 11.4658 17.1113 11.6123 17.0472 11.7576C17.45 11.9434 17.7527 12.25 17.9002 12.7398C18.0826 12.4029 18.2374 12.0545 18.3563 11.6948C19.2626 8.95417 17.5133 6.82117 15.4116 6.4729C13.4225 6.14326 11.7668 6.96307 10.9234 8.26712C10.7435 8.54537 10.8231 8.91682 11.1014 9.09678C11.3796 9.27674 11.7511 9.19706 11.931 8.91881ZM13.772 17.1676C13.514 16.8714 13.3088 16.5094 13.175 16.1042C13.0385 16.2173 12.9034 16.3285 12.7703 16.438L12.7699 16.4384C12.6765 16.5152 12.5842 16.5912 12.4931 16.6664C11.9153 17.1436 11.3721 17.6017 10.9867 18.0184C10.7617 18.2617 10.7766 18.6413 11.0199 18.8663C11.2631 19.0913 11.6427 19.0764 11.8677 18.8331C12.189 18.4858 12.6679 18.0783 13.2572 17.5917C13.3454 17.5188 13.4357 17.4445 13.5278 17.3687L13.5287 17.368C13.6086 17.3023 13.6897 17.2355 13.772 17.1676Z" fill="#E7E765"/>
</svg>
