<svg width="30" height="30" viewBox="0 0 30 30" fill="none" xmlns="http://www.w3.org/2000/svg">
<circle cx="15" cy="15" r="15" fill="#1E376D"/>
<path d="M9.65818 21H9.47818C9.07818 21 8.74318 20.97 8.47318 20.91C8.21318 20.85 7.98318 20.73 7.78318 20.55C7.59318 20.36 7.44318 20.15 7.33318 19.92C7.23318 19.69 7.15318 19.345 7.09318 18.885C7.00318 18.195 6.95818 17.27 6.95818 16.11C6.95818 14.94 6.96318 14.115 6.97318 13.635C6.99318 13.155 7.03318 12.69 7.09318 12.24C7.15318 11.78 7.23318 11.44 7.33318 11.22C7.44318 10.99 7.59318 10.785 7.78318 10.605C7.98318 10.415 8.21318 10.295 8.47318 10.245C8.74318 10.185 9.07818 10.155 9.47818 10.155H9.65818V21ZM10.2582 10.155H12.1632C12.8932 10.155 13.4432 10.28 13.8132 10.53C14.1932 10.78 14.3832 11.215 14.3832 11.835V13.185C14.3832 13.395 14.3132 13.5 14.1732 13.5H12.2832C12.1432 13.5 12.0582 13.48 12.0282 13.44C11.9982 13.4 11.9832 13.315 11.9832 13.185V12.015C11.9832 11.855 11.9582 11.745 11.9082 11.685C11.8682 11.615 11.7582 11.58 11.5782 11.58H10.2582V10.155ZM12.2832 17.655H14.1732C14.3132 17.655 14.3832 17.76 14.3832 17.97V19.32C14.3832 19.94 14.1932 20.375 13.8132 20.625C13.4432 20.875 12.8932 21 12.1632 21H10.2582V19.575H11.5782C11.7582 19.575 11.8682 19.545 11.9082 19.485C11.9582 19.415 11.9832 19.3 11.9832 19.14V17.97C11.9832 17.84 11.9982 17.755 12.0282 17.715C12.0582 17.675 12.1432 17.655 12.2832 17.655ZM18.6188 21H17.0438C16.7038 21 16.4788 20.945 16.3688 20.835C16.2688 20.725 16.2188 20.495 16.2188 20.145V10.755C16.2188 10.575 16.2688 10.43 16.3688 10.32C16.4688 10.21 16.5988 10.155 16.7588 10.155H18.6188V21ZM19.2188 10.155H21.1238C22.0738 10.155 22.7038 10.38 23.0138 10.83C23.3338 11.27 23.4938 12.16 23.4938 13.5C23.4938 14.39 23.3938 15.085 23.1938 15.585C23.0038 16.085 22.7488 16.42 22.4288 16.59C22.1088 16.75 21.6738 16.83 21.1238 16.83H19.2188V15.405H20.3288C20.5888 15.405 20.7538 15.37 20.8238 15.3C20.9038 15.23 20.9438 15.12 20.9438 14.97V12.03C20.9438 11.87 20.9038 11.755 20.8238 11.685C20.7538 11.615 20.5888 11.58 20.3288 11.58H19.2188V10.155Z" fill="white"/>
</svg>
