<svg width="30" height="30" viewBox="0 0 30 30" fill="none" xmlns="http://www.w3.org/2000/svg">
<circle cx="15" cy="15" r="15" fill="#DE552A"/>
<path d="M13.7516 25.2769H15.8841V23.2031C19.2189 22.8575 20.875 20.8759 20.875 18.3183C20.875 15.1616 18.2434 14.24 15.8841 13.6409V10.4612C16.9049 10.7146 17.9031 11.1985 18.7198 11.9589L20.512 9.51649C19.287 8.36441 17.7216 7.67317 15.8841 7.4658V5.27686H13.7516V7.41971C10.689 7.74229 8.87409 9.72386 8.87409 12.051C8.87409 15.1847 11.4149 16.0833 13.7516 16.6593V20.2308C12.2316 19.9543 10.9839 19.1478 10.1445 18.2492L8.375 20.8068C9.62273 22.0741 11.3696 22.9958 13.7516 23.2031V25.2769ZM17.5855 18.6409C17.5855 19.3782 17.0411 20.0464 15.8841 20.2769V17.1893C16.8823 17.5119 17.5855 17.8805 17.5855 18.6409ZM12.1863 11.7976C12.1863 11.0142 12.7534 10.4612 13.7516 10.3229V13.111C12.8215 12.8114 12.1863 12.4658 12.1863 11.7976Z" fill="white"/>
</svg>
