<svg width="30" height="30" viewBox="0 0 30 30" fill="none" xmlns="http://www.w3.org/2000/svg">
<circle cx="15" cy="15" r="15" fill="black"/>
<path d="M24.75 14H24V11.75C24 10.8125 23.1875 10 22.25 10H21.25C21.1562 10 21.0625 10.0312 21 10.0312V9.75C21 8.8125 20.1875 8 19.25 8H18.25C17.2812 8 16.5 8.8125 16.5 9.75V14H13.5V9.75C13.5 8.8125 12.6875 8 11.75 8H10.75C9.78125 8 9 8.8125 9 9.75V10.0312C8.90625 10.0312 8.8125 10 8.75 10H7.75C6.78125 10 6 10.8125 6 11.75V14H5.25C5.09375 14 5 14.125 5 14.25V15.75C5 15.9062 5.09375 16 5.25 16H6V18.25C6 19.2188 6.78125 20 7.75 20H8.75C8.8125 20 8.90625 20 9 20V20.25C9 21.2188 9.78125 22 10.75 22H11.75C12.6875 22 13.5 21.2188 13.5 20.25V16H16.5V20.25C16.5 21.2188 17.2812 22 18.25 22H19.25C20.1875 22 21 21.2188 21 20.25V20C21.0625 20 21.1562 20 21.25 20H22.25C23.1875 20 24 19.2188 24 18.25V16H24.75C24.875 16 25 15.9062 25 15.75V14.25C25 14.125 24.875 14 24.75 14ZM8.75 18.5H7.75C7.59375 18.5 7.5 18.4062 7.5 18.25V11.75C7.5 11.625 7.59375 11.5 7.75 11.5H8.75C8.875 11.5 9 11.625 9 11.75V18.25C9 18.4062 8.875 18.5 8.75 18.5ZM12 20.25C12 20.4062 11.875 20.5 11.75 20.5H10.75C10.5938 20.5 10.5 20.4062 10.5 20.25V9.75C10.5 9.625 10.5938 9.5 10.75 9.5H11.75C11.875 9.5 12 9.625 12 9.75V20.25ZM19.5 20.25C19.5 20.4062 19.375 20.5 19.25 20.5H18.25C18.0938 20.5 18 20.4062 18 20.25V9.75C18 9.625 18.0938 9.5 18.25 9.5H19.25C19.375 9.5 19.5 9.625 19.5 9.75V20.25ZM22.5 18.25C22.5 18.4062 22.375 18.5 22.25 18.5H21.25C21.0938 18.5 21 18.4062 21 18.25V11.75C21 11.625 21.0938 11.5 21.25 11.5H22.25C22.375 11.5 22.5 11.625 22.5 11.75V18.25Z" fill="white"/>
</svg>
