<svg width="30" height="30" viewBox="0 0 30 30" fill="none" xmlns="http://www.w3.org/2000/svg">
<path d="M15 30C23.2843 30 30 23.2843 30 15C30 6.71573 23.2843 0 15 0C6.71573 0 0 6.71573 0 15C0 23.2843 6.71573 30 15 30Z" fill="#C76D41"/>
<g clip-path="url(#clip0_5322_2895)">
<path d="M14.9997 8.0083C10.7944 8.0083 7.37305 11.4297 7.37305 15.635C7.37305 19.8405 10.7945 23.2619 14.9997 23.2619C19.2053 23.2619 22.6264 19.8405 22.6264 15.635C22.6264 11.4297 19.205 8.0083 14.9997 8.0083ZM14.9997 21.8797C11.5567 21.8797 8.7555 19.0783 8.7555 15.6353C8.7555 12.1922 11.5566 9.39103 14.9997 9.39103C18.4428 9.39103 21.244 12.1922 21.244 15.6353C21.244 19.0785 18.4428 21.8797 14.9997 21.8797Z" fill="white"/>
<path d="M17.1203 15.4046H15.277V12.7318C15.277 12.35 14.9676 12.0405 14.5858 12.0405C14.204 12.0405 13.8945 12.35 13.8945 12.7318V16.0958C13.8945 16.4776 14.204 16.7871 14.5858 16.7871H17.1203C17.5021 16.7871 17.8116 16.4776 17.8116 16.0958C17.8116 15.714 17.5021 15.4046 17.1203 15.4046Z" fill="white"/>
<path d="M11.0849 20.5823C10.801 20.3267 10.3639 20.35 10.1086 20.6336L8.0349 22.9378C7.77935 23.2214 7.80263 23.6585 8.08627 23.9138C8.2183 24.033 8.38372 24.0915 8.54849 24.0915C8.73767 24.0915 8.92614 24.0143 9.06255 23.8625L11.1363 21.5583C11.3918 21.2746 11.3685 20.8375 11.0849 20.5823Z" fill="white"/>
<path d="M21.9661 22.9383L19.8924 20.6342C19.6375 20.3503 19.2002 20.3273 18.9163 20.5828C18.6325 20.8381 18.6097 21.2752 18.865 21.5589L20.9387 23.863C21.0749 24.0146 21.2633 24.0918 21.4525 24.0918C21.6171 24.0918 21.7825 24.0333 21.9147 23.9144C22.1986 23.6591 22.2214 23.222 21.9661 22.9383Z" fill="white"/>
<path d="M10.9673 6.91597C9.59382 5.57105 7.3798 5.57312 6.03211 6.92105C5.36157 7.59132 4.9952 8.47819 5.00005 9.41826C5.00513 10.347 5.37333 11.2167 6.03715 11.8669C6.17172 11.9984 6.34614 12.0641 6.52078 12.0641C6.69774 12.0641 6.87469 11.9964 7.00949 11.8618L10.9726 7.8987C11.103 7.76808 11.1758 7.59085 11.1749 7.40632C11.174 7.22171 11.0993 7.04523 10.9673 6.91597ZM6.5966 10.3194C6.45813 10.0404 6.38414 9.73162 6.38254 9.41088C6.37953 8.84315 6.60211 8.30581 7.00949 7.89843C7.41594 7.49222 7.95328 7.28921 8.49359 7.28921C8.80949 7.28921 9.12655 7.35855 9.4187 7.49726L6.5966 10.3194Z" fill="white"/>
<path d="M23.9683 6.92047C22.6203 5.57278 20.4063 5.57048 19.0328 6.91539C18.901 7.04465 18.8261 7.22117 18.8252 7.4057C18.8243 7.59027 18.8973 7.76769 19.0277 7.89808L22.9909 11.8612C23.1257 11.9962 23.3026 12.0637 23.4796 12.0637C23.6542 12.0637 23.8289 11.9981 23.9632 11.866C24.6273 11.216 24.9955 10.3465 25.0003 9.41765C25.0051 8.47785 24.6385 7.59098 23.9683 6.92047ZM23.4038 10.3191L20.5817 7.49695C21.3738 7.1209 22.3469 7.25434 22.9909 7.89832C23.3983 8.3057 23.6208 8.84277 23.6178 9.41077C23.6162 9.73128 23.5423 10.0403 23.4038 10.3191Z" fill="white"/>
</g>
<defs>
<clipPath id="clip0_5322_2895">
<rect width="20" height="20" fill="white" transform="translate(5 5)"/>
</clipPath>
</defs>
</svg>
