<svg width="30" height="30" viewBox="0 0 30 30" fill="none" xmlns="http://www.w3.org/2000/svg">
<circle cx="15" cy="15" r="15" fill="#287D99"/>
<path d="M15.0669 20.192C17.9309 20.192 19.339 18.72 19.339 16.768C19.339 12.784 13.2109 13.92 13.2109 12.24C13.2109 11.6 13.7549 11.184 14.7149 11.184C15.8029 11.184 16.955 11.552 17.819 12.352L19.083 10.656C18.027 9.67997 16.6189 9.16797 14.9229 9.16797C12.4109 9.16797 10.8749 10.64 10.8749 12.416C10.8749 16.432 17.0189 15.136 17.0189 16.992C17.0189 17.616 16.4269 18.176 15.1629 18.176C13.6909 18.176 12.5229 17.504 11.7709 16.72L10.5229 18.496C11.5309 19.504 13.0029 20.192 15.0669 20.192Z" fill="white"/>
</svg>
