<svg width="30" height="30" viewBox="0 0 30 30" fill="none" xmlns="http://www.w3.org/2000/svg">
<circle cx="15" cy="15" r="15" fill="#57058B"/>
<path d="M17.8616 16.9011L15.078 19.6847L12.2651 16.9011C10.1848 16.989 8.51465 18.7178 8.51465 20.8274V21.0911C8.51465 21.8823 9.12997 22.4976 9.92109 22.4976H20.2349C20.9968 22.4976 21.6414 21.8823 21.6414 21.0911V20.8274C21.6414 18.7178 19.9419 16.989 17.8616 16.9011ZM8.89556 9.83966L9.10067 9.89826V11.5977C8.89556 11.7149 8.74906 11.9493 8.74906 12.1837C8.74906 12.4474 8.86626 12.6525 9.07136 12.7697L8.60255 14.5864C8.54395 14.7915 8.66115 14.9966 8.83696 14.9966H10.0383C10.2141 14.9966 10.3313 14.7915 10.2727 14.5864L9.80388 12.7697C10.009 12.6525 10.1555 12.4474 10.1555 12.1837C10.1555 11.9493 10.009 11.7149 9.80388 11.5977V10.0741L11.7377 10.5136C11.474 11.041 11.3275 11.5977 11.3275 12.1837C11.3275 14.2641 12.9977 15.9342 15.078 15.9342C17.1291 15.9342 18.8285 14.2641 18.8285 12.1837C18.8285 11.5977 18.6527 11.041 18.4183 10.5136L21.2312 9.83966C21.7586 9.72246 21.7586 9.04854 21.2312 8.93134L15.6347 7.5835C15.2538 7.4956 14.8729 7.4956 14.492 7.5835L8.89556 8.93134C8.36815 9.04854 8.36815 9.72246 8.89556 9.83966Z" fill="white"/>
</svg>
