<svg width="30" height="30" viewBox="0 0 30 30" fill="none" xmlns="http://www.w3.org/2000/svg">
<circle cx="15" cy="15" r="15" fill="#EE520F"/>
<path d="M8.88238 17.208H4.66838V15.5H8.05638V13.722H4.66838V12.042H8.88238V10.25H2.48438V19H8.88238V17.208Z" fill="white"/>
<path d="M13.6904 10.25H10.4004V19H13.5364C16.7424 19 18.5204 17.25 18.5204 14.562C18.5204 11.958 16.7704 10.25 13.6904 10.25ZM13.6624 17.222H12.6264V12.028H13.5504C15.3704 12.028 16.2804 12.84 16.2804 14.646C16.2804 16.396 15.2724 17.222 13.6624 17.222Z" fill="white"/>
<path d="M27.5877 10.25H25.3757V15.416C25.3757 16.76 24.8297 17.334 23.7797 17.334C22.6177 17.334 22.0857 16.648 22.0857 15.332V10.25H19.8737V15.626C19.8737 18.09 21.4417 19.21 23.7237 19.21C26.0757 19.21 27.5877 17.964 27.5877 15.43V10.25Z" fill="white"/>
</svg>
