<svg width="30" height="30" viewBox="0 0 30 30" fill="none" xmlns="http://www.w3.org/2000/svg">
<circle cx="15" cy="15" r="15" fill="#003F63"/>
<path d="M18.7887 17.6505C18.8552 17.4457 19.1448 17.4457 19.2113 17.6505L19.8482 19.6104C19.8779 19.7019 19.9632 19.7639 20.0595 19.7639H22.1203C22.3356 19.7639 22.4251 20.0394 22.2509 20.1659L20.5837 21.3772C20.5058 21.4338 20.4732 21.5341 20.503 21.6257L21.1398 23.5856C21.2063 23.7903 20.972 23.9606 20.7978 23.8341L19.1306 22.6228C19.0527 22.5662 18.9473 22.5662 18.8694 22.6228L17.2022 23.8341C17.028 23.9606 16.7937 23.7903 16.8602 23.5856L17.497 21.6257C17.5268 21.5341 17.4942 21.4338 17.4163 21.3772L15.7491 20.1659C15.5749 20.0394 15.6644 19.7639 15.8797 19.7639H17.9405C18.0368 19.7639 18.1221 19.7019 18.1518 19.6104L18.7887 17.6505Z" fill="white"/>
<path d="M10.7887 17.6505C10.8552 17.4457 11.1448 17.4457 11.2113 17.6505L11.8482 19.6104C11.8779 19.7019 11.9632 19.7639 12.0595 19.7639H14.1203C14.3356 19.7639 14.4251 20.0394 14.2509 20.1659L12.5837 21.3772C12.5058 21.4338 12.4732 21.5341 12.503 21.6257L13.1398 23.5856C13.2063 23.7903 12.972 23.9606 12.7978 23.8341L11.1306 22.6228C11.0527 22.5662 10.9473 22.5662 10.8694 22.6228L9.20217 23.8341C9.02801 23.9606 8.79368 23.7903 8.8602 23.5856L9.49702 21.6257C9.52677 21.5341 9.49418 21.4338 9.4163 21.3772L7.74908 20.1659C7.57493 20.0394 7.66443 19.7639 7.8797 19.7639H9.94049C10.0368 19.7639 10.1221 19.7019 10.1518 19.6104L10.7887 17.6505Z" fill="white"/>
<path d="M7.78865 9.65046C7.85518 9.44572 8.14482 9.44572 8.21135 9.65046L8.84816 11.6104C8.87791 11.7019 8.96324 11.7639 9.05951 11.7639H11.1203C11.3356 11.7639 11.4251 12.0394 11.2509 12.1659L9.5837 13.3772C9.50582 13.4338 9.47323 13.5341 9.50298 13.6257L10.1398 15.5856C10.2063 15.7903 9.97199 15.9606 9.79783 15.8341L8.13062 14.6228C8.05273 14.5662 7.94727 14.5662 7.86938 14.6228L6.20217 15.8341C6.02801 15.9606 5.79368 15.7903 5.8602 15.5856L6.49702 13.6257C6.52677 13.5341 6.49418 13.4338 6.4163 13.3772L4.74908 12.1659C4.57493 12.0394 4.66443 11.7639 4.8797 11.7639H6.94049C7.03676 11.7639 7.12209 11.7019 7.15184 11.6104L7.78865 9.65046Z" fill="white"/>
<path d="M21.7887 9.65046C21.8552 9.44572 22.1448 9.44572 22.2113 9.65046L22.8482 11.6104C22.8779 11.7019 22.9632 11.7639 23.0595 11.7639H25.1203C25.3356 11.7639 25.4251 12.0394 25.2509 12.1659L23.5837 13.3772C23.5058 13.4338 23.4732 13.5341 23.503 13.6257L24.1398 15.5856C24.2063 15.7903 23.972 15.9606 23.7978 15.8341L22.1306 14.6228C22.0527 14.5662 21.9473 14.5662 21.8694 14.6228L20.2022 15.8341C20.028 15.9606 19.7937 15.7903 19.8602 15.5856L20.497 13.6257C20.5268 13.5341 20.4942 13.4338 20.4163 13.3772L18.7491 12.1659C18.5749 12.0394 18.6644 11.7639 18.8797 11.7639H20.9405C21.0368 11.7639 21.1221 11.7019 21.1518 11.6104L21.7887 9.65046Z" fill="white"/>
<path d="M14.7887 4.65046C14.8552 4.44572 15.1448 4.44572 15.2113 4.65046L15.8482 6.61038C15.8779 6.70194 15.9632 6.76393 16.0595 6.76393H18.1203C18.3356 6.76393 18.4251 7.0394 18.2509 7.16594L16.5837 8.37724C16.5058 8.43382 16.4732 8.53413 16.503 8.62569L17.1398 10.5856C17.2063 10.7903 16.972 10.9606 16.7978 10.8341L15.1306 9.62276C15.0527 9.56618 14.9473 9.56618 14.8694 9.62276L13.2022 10.8341C13.028 10.9606 12.7937 10.7903 12.8602 10.5856L13.497 8.62569C13.5268 8.53413 13.4942 8.43382 13.4163 8.37724L11.7491 7.16594C11.5749 7.0394 11.6644 6.76393 11.8797 6.76393H13.9405C14.0368 6.76393 14.1221 6.70194 14.1518 6.61038L14.7887 4.65046Z" fill="white"/>
</svg>
