<svg width="30" height="30" viewBox="0 0 30 30" fill="none" xmlns="http://www.w3.org/2000/svg">
<circle cx="15" cy="15" r="15" fill="#0D201B"/>
<path d="M9.30566 21.2811V9.02354C9.30566 8.82431 9.34373 8.682 9.42936 8.61559C9.515 8.54918 9.67676 8.51123 9.92416 8.51123H20.3815C20.6289 8.51123 20.7907 8.54918 20.8763 8.61559C20.962 8.682 21 8.82431 21 9.02354V10.6174C21 10.8166 20.962 10.959 20.8763 11.0254C20.7907 11.0918 20.6289 11.1297 20.3815 11.1297H13.0547V13.8051H20.077C20.3244 13.8051 20.4862 13.8431 20.5718 13.9095C20.6575 13.9759 20.6955 14.1182 20.6955 14.3175V15.9113C20.6955 16.1105 20.6575 16.2529 20.5718 16.3193C20.4862 16.3857 20.3244 16.4236 20.077 16.4236H13.0547V19.1749H20.3815C20.6289 19.1749 20.7907 19.2129 20.8763 19.2793C20.962 19.3457 21 19.488 21 19.6873V21.2811C21 21.4804 20.962 21.6227 20.8763 21.6891C20.7907 21.7555 20.6289 21.7934 20.3815 21.7934H9.92416C9.67676 21.7934 9.515 21.7555 9.42936 21.6891C9.34373 21.6227 9.30566 21.4804 9.30566 21.2811Z" fill="white"/>
</svg>
