<svg width="30" height="30" viewBox="0 0 30 30" fill="none" xmlns="http://www.w3.org/2000/svg">
<circle cx="15" cy="15" r="15" fill="black"/>
<path d="M4.48633 20.0757V9.92429C4.48633 9.75929 4.51785 9.64143 4.58877 9.58643C4.6597 9.53143 4.79366 9.5 4.99855 9.5H13.6591C13.864 9.5 13.998 9.53143 14.0689 9.58643C14.1398 9.64143 14.1713 9.75929 14.1713 9.92429V11.2443C14.1713 11.4093 14.1398 11.5271 14.0689 11.5821C13.998 11.6371 13.864 11.6686 13.6591 11.6686H7.5912V13.8843H13.4069C13.6118 13.8843 13.7458 13.9157 13.8167 13.9707C13.8876 14.0257 13.9192 14.1436 13.9192 14.3086V15.6286C13.9192 15.7936 13.8876 15.9114 13.8167 15.9664C13.7458 16.0214 13.6118 16.0529 13.4069 16.0529H7.5912V18.3314H13.6591C13.864 18.3314 13.998 18.3629 14.0689 18.4179C14.1398 18.4729 14.1713 18.5907 14.1713 18.7557V20.0757C14.1713 20.2407 14.1398 20.3586 14.0689 20.4136C13.998 20.4686 13.864 20.5 13.6591 20.5H4.99855C4.79366 20.5 4.6597 20.4686 4.58877 20.4136C4.51785 20.3586 4.48633 20.2407 4.48633 20.0757Z" fill="#F8EDDC"/>
<path d="M15.8281 20.0757V9.92429C15.8281 9.75929 15.8596 9.64143 15.9306 9.58643C16.0015 9.53143 16.1355 9.5 16.3404 9.5H25.0009C25.2058 9.5 25.3398 9.53143 25.4107 9.58643C25.4816 9.64143 25.5131 9.75929 25.5131 9.92429V11.2443C25.5131 11.4093 25.4816 11.5271 25.4107 11.5821C25.3398 11.6371 25.2058 11.6686 25.0009 11.6686H18.933V13.8843H24.7487C24.9536 13.8843 25.0876 13.9157 25.1585 13.9707C25.2294 14.0257 25.2609 14.1436 25.2609 14.3086V15.6286C25.2609 15.7936 25.2294 15.9114 25.1585 15.9664C25.0876 16.0214 24.9536 16.0529 24.7487 16.0529H18.933V18.3314H25.0009C25.2058 18.3314 25.3398 18.3629 25.4107 18.4179C25.4816 18.4729 25.5131 18.5907 25.5131 18.7557V20.0757C25.5131 20.2407 25.4816 20.3586 25.4107 20.4136C25.3398 20.4686 25.2058 20.5 25.0009 20.5H16.3404C16.1355 20.5 16.0015 20.4686 15.9306 20.4136C15.8596 20.3586 15.8281 20.2407 15.8281 20.0757Z" fill="#F8EDDC"/>
</svg>
