<svg width="30" height="30" viewBox="0 0 30 30" fill="none" xmlns="http://www.w3.org/2000/svg">
<circle cx="15" cy="15" r="15" fill="#FF5271"/>
<path fill-rule="evenodd" clip-rule="evenodd" d="M21.505 11.0059C22.1555 10.8316 22.8178 11.214 22.9921 11.8646C23.1665 12.5152 22.7841 13.1774 22.1335 13.3517L23.0764 16.8705C23.2482 17.5119 22.8592 18.1858 22.2177 18.3577C20.2233 17.4385 17.0949 16.2831 13.8441 16.8693C12.8518 17.528 12.8174 18.9024 13.7286 19.444C13.3695 20.6696 14.3931 21.1909 15.5682 21.6912C15.2996 22.9613 12.9404 23.6131 11.8887 23.0601C10.9201 21.5715 9.69504 20.1515 9.78403 17.9179L8.6661 18.2175C7.85972 18.4335 7.02318 17.9505 6.80711 17.1442L6.33569 15.3848C6.11962 14.5784 6.6026 13.7419 7.40898 13.5258L11.8074 12.3473C15.3261 11.4044 17.7084 8.56613 19.0749 6.62857C19.7164 6.4567 20.3902 6.84576 20.5621 7.4872L21.505 11.0059ZM21.815 16.8549L19.4727 8.11303C17.5721 10.5865 15.5361 12.2615 13.2774 13.1417L13.9403 15.6159C16.3366 15.2488 18.9324 15.663 21.815 16.8549Z" fill="white"/>
</svg>
