<svg width="30" height="30" viewBox="0 0 30 30" fill="none" xmlns="http://www.w3.org/2000/svg">
<circle cx="15" cy="15" r="15" fill="#307BC6"/>
<path d="M7.09631 19H4.86031V10.329H11.2173V12.279H7.09631V13.631H11.1263V15.581H7.09631V19ZM19.6339 19H17.1379L16.6179 18.467C15.9246 18.9263 15.1706 19.156 14.3559 19.156C13.4979 19.156 12.7916 18.935 12.2369 18.493C11.6822 18.051 11.4049 17.4183 11.4049 16.595C11.4049 15.997 11.5652 15.5073 11.8859 15.126C12.2152 14.7447 12.6659 14.4153 13.2379 14.138C12.8912 13.4447 12.7179 12.838 12.7179 12.318C12.7179 11.72 12.9649 11.2173 13.4589 10.81C13.9529 10.4027 14.5812 10.199 15.3439 10.199C16.0112 10.199 16.5832 10.3723 17.0599 10.719C17.5366 11.0657 17.7749 11.525 17.7749 12.097C17.7749 12.695 17.5929 13.163 17.2289 13.501C16.8649 13.839 16.3492 14.1553 15.6819 14.45C15.8552 14.6753 16.0632 14.9397 16.3059 15.243C16.4446 15.4337 16.6439 15.6807 16.9039 15.984C17.2072 15.4987 17.4456 14.9873 17.6189 14.45L19.1919 15.191C18.8279 15.971 18.4206 16.6427 17.9699 17.206C18.4379 17.7347 18.9926 18.3327 19.6339 19ZM14.6419 17.609C14.9452 17.609 15.2572 17.518 15.5779 17.336C15.1619 16.8767 14.8889 16.556 14.7589 16.374C14.4382 15.9667 14.1826 15.6287 13.9919 15.36C13.6626 15.646 13.4979 15.9927 13.4979 16.4C13.4979 16.7553 13.6106 17.0457 13.8359 17.271C14.0612 17.4963 14.3299 17.609 14.6419 17.609ZM14.6939 12.357C14.6939 12.6343 14.7936 12.9723 14.9929 13.371C15.3482 13.2063 15.6169 13.0373 15.7989 12.864C15.9809 12.682 16.0719 12.4653 16.0719 12.214C16.0719 12.032 16.0112 11.889 15.8899 11.785C15.7772 11.6723 15.6299 11.616 15.4479 11.616C15.2312 11.616 15.0492 11.6853 14.9019 11.824C14.7632 11.9627 14.6939 12.1403 14.6939 12.357ZM22.3693 19H20.1333V10.329H26.4903V12.279H22.3693V13.631H26.3993V15.581H22.3693V19Z" fill="white"/>
</svg>
