<svg width="30" height="30" viewBox="0 0 30 30" fill="none" xmlns="http://www.w3.org/2000/svg">
<circle cx="15" cy="15" r="15" fill="#E40857"/>
<path fill-rule="evenodd" clip-rule="evenodd" d="M12.1816 5C9.54949 5.0001 7.36328 7.2094 7.36328 10C7.36328 10.5443 7.40957 10.9413 7.52148 11.3311C7.63543 11.7278 7.83168 12.165 8.18652 12.7734C8.65663 13.5795 9.34195 14.5866 10.3602 16.0829C10.8766 16.8417 11.4786 17.7264 12.1816 18.7744C12.8847 17.7263 13.4867 16.8417 14.0031 16.0828C14.0316 16.041 14.0598 15.9996 14.0877 15.9585C14.3661 14.318 15.2908 12.9067 16.5811 12.0139C16.6989 11.7621 16.7825 11.5409 16.8428 11.3311C16.9547 10.9414 17 10.5443 17 10C17 7.20934 14.8139 5 12.1816 5ZM17.8707 11.3445C17.965 10.9258 18 10.5002 18 10C18 6.68628 15.3949 4 12.1816 4L11.8828 4.00781C8.80847 4.16831 6.36328 6.7897 6.36328 10L6.37402 10.4346C6.45968 12.1284 7.11598 13.0925 9.55385 16.674C10.1269 17.5158 10.7984 18.5022 11.584 19.6768C11.8548 20.0802 12.4146 20.1058 12.7217 19.7529L12.7793 19.6768C13.2373 18.992 13.6566 18.3712 14.0401 17.8057C14.205 19.2884 14.936 20.3622 17.1913 23.6755C17.7641 24.5171 18.4353 25.5032 19.2206 26.6772C19.5095 27.1076 20.1276 27.1076 20.4165 26.6772C21.2017 25.5032 21.873 24.5171 22.4458 23.6755C25.085 19.7983 25.6367 18.9877 25.6367 17C25.6367 13.6863 23.0318 11 19.8185 11C19.1353 11 18.4797 11.1214 17.8707 11.3445ZM11.9336 7.5127C10.7113 7.64088 9.75781 8.70569 9.75781 10C9.75781 11.3807 10.8428 12.4999 12.1816 12.5L12.4297 12.4873C13.6521 12.3593 14.6064 11.2944 14.6064 10C14.6064 8.61928 13.5205 7.5 12.1816 7.5L11.9336 7.5127ZM12.1816 13.5C10.2618 13.4999 8.75781 11.9037 8.75781 10C8.75781 8.09628 10.2618 6.5001 12.1816 6.5C14.1016 6.5 15.6064 8.09623 15.6064 10C15.6064 11.9038 14.1016 13.5 12.1816 13.5ZM17.3943 17C17.3943 18.3807 18.4797 19.5 19.8185 19.5C21.1574 19.5 22.2428 18.3807 22.2428 17C22.2428 15.6193 21.1574 14.5 19.8185 14.5C18.4797 14.5 17.3943 15.6193 17.3943 17Z" fill="white"/>
</svg>
