<svg width="30" height="30" viewBox="0 0 30 30" fill="none" xmlns="http://www.w3.org/2000/svg">
<circle cx="15" cy="15" r="15" fill="#CC4721"/>
<path d="M11.8994 7.2998C9.3678 7.2998 7.2998 9.41915 7.2998 12.0527C7.29981 12.5438 7.34073 12.9318 7.45312 13.3232C7.56612 13.7167 7.75546 14.1279 8.06641 14.6611C8.69578 15.7403 9.78136 17.2487 11.6445 20.0342C11.769 20.2196 12.0289 20.2196 12.1533 20.0342H12.1543C14.0174 17.2488 15.1031 15.7403 15.7324 14.6611C16.0433 14.1281 16.2317 13.7166 16.3447 13.3232C16.4571 12.9318 16.499 12.5438 16.499 12.0527C16.499 9.41919 14.431 7.29986 11.8994 7.2998ZM11.8994 9.64746C13.2012 9.64752 14.2412 10.7331 14.2412 12.0527C14.2412 13.3723 13.2011 14.4579 11.8994 14.458C10.5977 14.458 9.55767 13.3723 9.55762 12.0527C9.55762 10.7331 10.5976 9.64746 11.8994 9.64746Z" stroke="white" stroke-width="0.6"/>
<path d="M17.9912 22.7282C21.699 17.1851 22.3872 16.6162 22.3872 14.579C22.3872 11.7885 20.1936 9.52637 17.4877 9.52637C14.7817 9.52637 12.5882 11.7885 12.5882 14.579C12.5882 16.6162 13.2764 17.1851 16.9842 22.7282C17.2275 23.0907 17.7479 23.0907 17.9912 22.7282Z" fill="white" stroke="#CC4721" stroke-width="2.8"/>
<circle cx="17.6409" cy="14.5789" r="3.36842" fill="#CC4721"/>
<path d="M17.9917 22.7282C21.6995 17.1851 22.3877 16.6162 22.3877 14.579C22.3877 11.7885 20.1941 9.52637 17.4882 9.52637C14.7822 9.52637 12.5887 11.7885 12.5887 14.579C12.5887 16.6162 13.2769 17.1851 16.9846 22.7282C17.228 23.0907 17.7484 23.0907 17.9917 22.7282ZM17.4882 16.6843C16.3607 16.6843 15.4467 15.7417 15.4467 14.579C15.4467 13.4163 16.3607 12.4737 17.4882 12.4737C18.6157 12.4737 19.5296 13.4163 19.5296 14.579C19.5296 15.7417 18.6157 16.6843 17.4882 16.6843Z" fill="white"/>
</svg>
