<svg width="31" height="31" viewBox="0 0 31 31" fill="none" xmlns="http://www.w3.org/2000/svg">
<g clip-path="url(#clip0_5322_2568)">
<path d="M15.1475 30.1265C23.4317 30.1265 30.1475 23.4108 30.1475 15.1265C30.1475 6.84223 23.4317 0.126499 15.1475 0.126499C6.86319 0.126499 0.147461 6.84223 0.147461 15.1265C0.147461 23.4108 6.86319 30.1265 15.1475 30.1265Z" fill="#6923F4"/>
<path d="M15.1475 2.12646L18.0411 4.32741L21.6475 3.86813L23.0529 7.22101L26.4058 8.62646L25.9465 12.2329L28.1475 15.1265L25.9465 18.0201L26.4058 21.6265L23.0529 23.0319L21.6475 26.3848L18.0411 25.9255L15.1475 28.1265L12.2539 25.9255L8.64746 26.3848L7.24201 23.0319L3.88913 21.6265L4.34841 18.0201L2.14746 15.1265L4.34841 12.2329L3.88913 8.62646L7.24201 7.22101L8.64746 3.86813L12.2539 4.32741L15.1475 2.12646Z" fill="white"/>
<path d="M7.69922 21.1265H10.5664L12.9648 9.85303H10.0977L6.81641 11.8062L6.26953 14.3608L9.37891 12.5327H9.52734L7.69922 21.1265Z" fill="#6923F4"/>
<path d="M12.9355 14.6265C12.9355 15.4761 13.4395 16.0444 14.4883 16.4136L15.5195 16.7769C15.9707 16.9351 16.1172 17.0815 16.1172 17.3101C16.1172 17.6616 15.7656 17.8784 15.1973 17.8784C14.6289 17.8784 14.207 17.5913 14.1484 17.1987H12.1797C12.2031 18.4409 13.416 19.2788 15.2148 19.2788C17.002 19.2788 18.1797 18.4058 18.1797 17.0757C18.1797 16.2612 17.7344 15.7456 16.6914 15.3823L15.5371 14.978C15.0918 14.8198 14.916 14.6675 14.916 14.4214C14.916 14.0874 15.2734 13.8589 15.7832 13.8589C16.3047 13.8589 16.6855 14.0991 16.7441 14.4565H18.6074C18.5664 13.2495 17.4648 12.4526 15.7773 12.4526C14.0664 12.4526 12.9355 13.3081 12.9355 14.6265ZM21.4966 19.1382C21.9712 19.1382 22.3755 19.1089 22.5747 19.0562L22.8852 17.6089C22.7387 17.6265 22.5278 17.644 22.3403 17.644C21.895 17.644 21.6665 17.48 21.6665 17.1167C21.6665 17.0405 21.6841 16.9292 21.7016 16.8179L22.2524 14.2339H23.5884L23.9282 12.6929H22.5747L22.9204 11.1108H20.8403L20.5005 12.6929H19.4868L19.147 14.2339H20.1723L19.5571 17.1636C19.5161 17.3569 19.4927 17.562 19.4927 17.7261C19.4927 18.6108 20.2837 19.1382 21.4966 19.1382Z" fill="#6923F4"/>
</g>
<defs>
<clipPath id="clip0_5322_2568">
<rect width="31" height="31" fill="white"/>
</clipPath>
</defs>
</svg>
