<svg width="30" height="30" viewBox="0 0 30 30" fill="none" xmlns="http://www.w3.org/2000/svg">
<circle cx="15" cy="15" r="15" fill="#93BB53"/>
<path d="M11.3092 16.2329C11.0737 16.2435 10.8576 16.0708 10.8249 15.8384L10.8241 15.8329C10.7362 15.2077 11.2344 14.6186 11.937 14.5197C12.6396 14.4208 13.281 14.8496 13.369 15.4748L13.3698 15.4803C13.4025 15.7127 13.2424 15.9383 13.0132 15.9931C12.7404 16.0597 12.4551 16.1168 12.1674 16.1573C11.8797 16.1977 11.5952 16.2209 11.3092 16.2329Z" fill="white"/>
<path d="M16.381 15.9828C16.1523 15.9256 15.9946 15.6983 16.0298 15.4663L16.0306 15.4608C16.1252 14.8366 16.7711 14.4146 17.4726 14.5208C18.1742 14.6271 18.6661 15.2215 18.5716 15.8457L18.5707 15.8512C18.5356 16.0832 18.3176 16.2536 18.0823 16.2406C17.8019 16.2264 17.5122 16.1994 17.2249 16.1559C16.9377 16.1124 16.6585 16.0531 16.381 15.9828Z" fill="white"/>
<path d="M14.5811 7.15698C17.0129 7.15698 18.9532 8.03117 20.2891 9.47144C21.6303 10.9176 22.4131 12.9905 22.4131 15.4656C22.4129 21.6596 17.76 24.2498 14.5811 24.2498C11.579 24.2496 6.75024 21.6503 6.75 15.4656C6.75 12.9904 7.53269 10.9177 8.87402 9.47144C10.2098 8.03124 12.1494 7.15706 14.5811 7.15698Z" stroke="white" stroke-width="1.5"/>
<path d="M6.95361 14.9884C7.7164 13.8442 8.54276 13.5582 8.86059 13.5582L9.33733 12.128C11.7211 11.1745 17.442 11.1745 19.349 12.128L20.3025 13.5582C20.7792 13.7171 21.828 14.2256 22.2094 14.9884" stroke="white" stroke-width="1.5" stroke-linecap="round" stroke-linejoin="round"/>
<path d="M6.95361 17.8489C8.0978 20.5186 11.88 21.1861 13.628 21.1861" stroke="white" stroke-width="1.5" stroke-linecap="round" stroke-linejoin="round"/>
<path d="M13.1514 6.88372C13.6281 5.45349 14.5816 4.5 16.0118 4.5C19.1266 4.5 19.349 7.36047 21.256 10.6977M22.2095 18.8023C22.2095 20.7093 23.163 21.6628 24.1165 22.1395C23.163 23.5698 20.7793 24.0465 19.349 22.6163" stroke="white" stroke-width="1.5" stroke-linecap="round" stroke-linejoin="round"/>
</svg>
