<svg width="30" height="30" viewBox="0 0 30 30" fill="none" xmlns="http://www.w3.org/2000/svg">
<circle cx="15" cy="15" r="15" fill="black"/>
<path d="M6.29102 20H8.979V16.0596H13.0659V14.0015H8.979V11.5918H13.4834V9.43115H6.29102V20Z" fill="white"/>
<path d="M15.4609 20H18.1489V16.3013H19.5405L21.3496 20H24.3672L22.2578 15.9058C23.4004 15.4004 24.0522 14.2212 24.0522 12.9321V12.9175C24.0522 10.7349 22.6533 9.43115 20.0532 9.43115H15.4609V20ZM18.1489 14.4629V11.46H19.7383C20.7051 11.46 21.313 12.0605 21.313 12.9541V12.9688C21.313 13.8843 20.7197 14.4629 19.7529 14.4629H18.1489Z" fill="white"/>
</svg>
