<svg width="30" height="30" viewBox="0 0 30 30" fill="none" xmlns="http://www.w3.org/2000/svg">
<circle cx="15" cy="15" r="15" fill="#6073B8"/>
<path d="M5.53701 19V15.676H9.41301V14.176H5.53701V12.496H9.49701V10.996H3.83301V19H5.53701Z" fill="white"/>
<path d="M14.2525 19V12.496H16.5805V10.996H10.1965V12.496H12.5365V19H14.2525Z" fill="white"/>
<path d="M19.406 16.744V15.448H16.526V16.744H19.406Z" fill="white"/>
<path d="M26.3517 19V17.5H23.0877C25.1637 15.988 26.2917 14.8 26.2917 13.432C26.2917 11.836 24.9477 10.876 23.2317 10.876C22.1157 10.876 20.9277 11.284 20.1477 12.184L21.1197 13.312C21.6597 12.748 22.3557 12.388 23.2677 12.388C23.9277 12.388 24.5637 12.724 24.5637 13.432C24.5637 14.416 23.6037 15.232 20.3277 17.656V19H26.3517Z" fill="white"/>
</svg>
