<svg width="30" height="30" viewBox="0 0 30 30" fill="none" xmlns="http://www.w3.org/2000/svg">
<path fill-rule="evenodd" clip-rule="evenodd" d="M5.17004 25.3096C4.30697 25.7956 3.85594 25.0627 3.35933 24.4987C1.79178 22.719 0.808044 20.6367 0.2432 18.3449C0.137029 17.915 0.167853 17.5253 0.412601 17.1106C1.15765 15.8505 1.09863 14.5507 0.31644 13.3443C-0.0128763 12.8366 -0.0555557 12.3582 0.0540408 11.835C0.736385 8.57475 2.29972 5.82219 4.82149 3.63289C5.14317 3.35337 5.42954 3.13233 5.95645 3.2219C7.83224 3.54147 9.17901 2.75796 9.98623 1.0442C10.1198 0.760458 10.2502 0.541792 10.5977 0.467234C13.497 -0.156096 16.3916 -0.155569 19.2914 0.467761C19.6473 0.544426 19.774 0.781534 19.8994 1.05394C20.7009 2.78826 22.0624 3.51802 23.9298 3.22875C24.3934 3.15709 24.6774 3.29883 24.9931 3.57335C27.6502 5.8841 29.2739 8.77576 29.9017 12.2407C29.9676 12.6043 29.8604 12.8627 29.6659 13.1573C28.7839 14.4956 28.6767 15.8732 29.5429 17.2721C29.6831 17.4992 29.7771 17.7145 29.7097 18.0148C29.1053 20.6978 27.9427 23.0765 25.9984 25.0516C25.6823 25.3725 25.3867 25.4402 24.9396 25.3757C23.2192 25.1267 21.6838 26.1149 21.2143 27.8097C21.0692 28.3353 20.8215 28.5969 20.3481 28.7698C16.7462 30.0847 13.1487 30.0673 9.54257 28.7845C9.06309 28.6143 8.83652 28.3301 8.67581 27.8379C8.12836 26.1642 6.88617 25.2811 5.17004 25.3096Z" fill="#4C7572"/>
<path d="M19.3747 14.5311H10.6248V13.9059H19.3747V14.5311ZM19.9999 12.6561H19.3249C19.2376 12.049 19.0261 11.483 18.7155 10.9832C18.7161 10.9809 18.7167 10.9803 18.7173 10.9785L19.2962 9.24362L20.4417 8.0981C20.6861 7.85377 20.6861 7.45884 20.4417 7.2145C20.1974 6.97017 19.8025 6.97017 19.5581 7.2145L18.3077 8.46432C18.2398 8.53287 18.1882 8.61666 18.1571 8.70866L17.7622 9.89226C17.0087 9.27701 16.0465 8.90612 15.0001 8.90612C12.8005 8.90612 10.9799 10.5392 10.6746 12.6562H9.99962C9.65391 12.6562 9.375 12.9362 9.375 13.2814V15.1564C9.375 15.5015 9.65391 15.781 9.99962 15.781H10.7373L11.8875 21.5291C11.9456 21.8215 12.2016 22.0312 12.4999 22.0312H17.4997C17.798 22.0312 18.054 21.8215 18.1126 21.5291L19.2622 15.781H19.9999C20.3457 15.781 20.6252 15.5015 20.6252 15.1564V13.2814C20.6252 12.9362 20.3457 12.6562 19.9999 12.6562L19.9999 12.6561Z" fill="white"/>
</svg>
