<svg width="30" height="30" viewBox="0 0 30 30" fill="none" xmlns="http://www.w3.org/2000/svg">
<circle cx="15" cy="15" r="15" fill="#6C589F"/>
<path d="M19.4414 6.5268C20.2268 6.31636 21.0639 6.43372 21.7612 6.852L27.0081 9.99968C28.3767 10.8208 28.8629 12.5697 28.1143 13.9793L25.1648 19.5335C24.7743 20.2688 24.0958 20.8088 23.2916 21.0243L8.24499 25.056C6.64459 25.4848 4.99958 24.5351 4.57075 22.9347L2.24138 14.2414C1.81256 12.641 2.7623 10.996 4.3627 10.5671L19.4414 6.5268Z" fill="white"/>
<path d="M10.5319 10.8582C12.3646 10.3674 13.9239 11.3157 14.3564 12.9292C14.4072 13.1188 14.4381 13.3086 14.4527 13.4958L15.6084 9.8478L15.6738 9.63919L18.0434 9.00427L17.8218 9.7016L15.9371 15.6287C16.3371 15.1345 16.9178 14.7492 17.661 14.55C19.4805 14.0625 21.0389 15.0117 21.4711 16.6238C21.9004 18.2258 21.0158 19.8102 19.2008 20.2965C18.3041 20.5367 17.463 20.4336 16.7862 20.0538C16.1101 19.6744 15.624 19.033 15.4133 18.247C15.3555 18.0311 15.3226 17.8152 15.3103 17.6023L14.1457 21.2699L14.0803 21.4785L11.7268 22.1091L11.9477 21.413L13.8082 15.5318C13.4014 16.0217 12.8168 16.406 12.0719 16.6057C11.1751 16.846 10.3334 16.7431 9.65637 16.3632C8.98038 15.9838 8.49417 15.3424 8.28355 14.5564C7.85251 12.9471 8.70945 11.3466 10.5319 10.8582ZM18.2883 16.8913C18.1216 16.936 18.0331 17.0098 17.9893 17.0846C17.9468 17.1573 17.907 17.2979 17.9772 17.56C18.0448 17.8123 18.1451 17.9055 18.2132 17.9426C18.2861 17.9823 18.4008 18.0005 18.5732 17.9543C18.746 17.908 18.8425 17.8334 18.8897 17.7583C18.9327 17.6899 18.9737 17.5589 18.9073 17.3108C18.8381 17.053 18.7325 16.9513 18.656 16.909C18.5754 16.8645 18.4555 16.8465 18.2883 16.8913ZM11.1595 13.2004C11.0029 13.2424 10.9163 13.3137 10.8732 13.3883C10.831 13.4616 10.7924 13.6036 10.8625 13.8654C10.9275 14.1081 11.0279 14.2052 11.0999 14.2456C11.1752 14.2878 11.2876 14.3055 11.4444 14.2635C11.6115 14.2186 11.7083 14.1429 11.757 14.0645C11.8021 13.9915 11.8413 13.8585 11.7775 13.6202C11.7084 13.3625 11.6037 13.2605 11.5272 13.2182C11.4466 13.1736 11.3267 13.1557 11.1595 13.2004Z" fill="#6C589F" stroke="white" stroke-width="0.8"/>
</svg>
