<svg width="30" height="30" viewBox="0 0 30 30" fill="none" xmlns="http://www.w3.org/2000/svg">
<circle cx="15" cy="15" r="15" fill="#FF7518"/>
<path fill-rule="evenodd" clip-rule="evenodd" d="M10.8926 13.795L8.86523 15.8224V21.5435C8.86523 21.9739 8.51808 22.3211 8.08761 22.3211C7.65714 22.3211 7.30998 21.9739 7.30998 21.5435V18.8773H6.86563V21.5435C6.86563 21.9739 6.51847 22.3211 6.088 22.3211C5.65753 22.3211 5.31038 21.9739 5.31038 21.5435V15.8224L3.283 13.795C3.02611 13.5311 3.02611 13.1146 3.283 12.8507C3.54684 12.5938 3.96342 12.5938 4.22726 12.8507L5.81028 14.4337H8.36533L9.94835 12.8507C10.2122 12.5938 10.6288 12.5938 10.8926 12.8507C11.1495 13.1146 11.1495 13.5311 10.8926 13.795ZM8.64305 12.6563C8.64305 13.5173 7.94874 14.2116 7.0878 14.2116C6.22686 14.2116 5.53256 13.5173 5.53256 12.6563C5.53256 11.7954 6.22686 11.1011 7.0878 11.1011C7.94874 11.1011 8.64305 11.7954 8.64305 12.6563Z" fill="white"/>
<path fill-rule="evenodd" clip-rule="evenodd" d="M26.7261 13.795L24.6987 15.8224V21.5435C24.6987 21.9739 24.3516 22.3211 23.9211 22.3211C23.4906 22.3211 23.1435 21.9739 23.1435 21.5435V18.8773H22.6991V21.5435C22.6991 21.9739 22.352 22.3211 21.9215 22.3211C21.491 22.3211 21.1439 21.9739 21.1439 21.5435V15.8224L19.1165 13.795C18.8596 13.5311 18.8596 13.1146 19.1165 12.8507C19.3803 12.5938 19.7969 12.5938 20.0608 12.8507L21.6438 14.4337H24.1988L25.7818 12.8507C26.0457 12.5938 26.4623 12.5938 26.7261 12.8507C26.983 13.1146 26.983 13.5311 26.7261 13.795ZM24.4765 12.6563C24.4765 13.5173 23.7822 14.2116 22.9213 14.2116C22.0604 14.2116 21.3661 13.5173 21.3661 12.6563C21.3661 11.7954 22.0604 11.1011 22.9213 11.1011C23.7822 11.1011 24.4765 11.7954 24.4765 12.6563Z" fill="white"/>
<path d="M15.0566 6.5C16.6372 6.5 17.9131 7.77585 17.9131 9.35645C17.9131 9.89976 17.7591 10.4051 17.4971 10.8369L19.0371 9.29785L19.042 9.29297C19.5989 8.75073 20.4608 8.7167 21.0557 9.19141L21.1709 9.29297L21.1797 9.30176C21.7579 9.89564 21.7579 10.8368 21.1797 11.4307L18.25 14.3604V22.8223C18.2497 23.7504 17.4995 24.5 16.5713 24.5C15.901 24.4999 15.3256 24.1079 15.0566 23.541C14.7876 24.1079 14.2124 24.5 13.542 24.5C12.6138 24.5 11.8635 23.7504 11.8633 22.8223V14.3604L8.93359 11.4307C8.35534 10.8368 8.35534 9.89564 8.93359 9.30176L8.94336 9.29297C9.50014 8.75085 10.3612 8.71701 10.9561 9.19141L11.0713 9.29297L12.6162 10.8379C12.3539 10.4059 12.2002 9.90001 12.2002 9.35645C12.2002 7.77589 13.4761 6.50007 15.0566 6.5Z" fill="white" stroke="#FF7518"/>
</svg>
