<svg width="30" height="30" viewBox="0 0 30 30" fill="none" xmlns="http://www.w3.org/2000/svg">
<circle cx="15" cy="15" r="15" fill="#E0838B"/>
<path fill-rule="evenodd" clip-rule="evenodd" d="M20.8216 11.0817L17.7498 14.1535V22.8218C17.7498 23.474 17.2239 24 16.5716 24C15.9194 24 15.3934 23.474 15.3934 22.8218V18.7822H14.7201V22.8218C14.7201 23.474 14.1942 24 13.5419 24C12.8897 24 12.3637 23.474 12.3637 22.8218V14.1535L9.29192 11.0817C8.90269 10.6819 8.90269 10.0507 9.29192 9.65099C9.69168 9.26176 10.3229 9.26176 10.7226 9.65099L13.1211 12.0495H16.9924L19.3909 9.65099C19.7907 9.26176 20.4219 9.26176 20.8216 9.65099C21.2109 10.0507 21.2109 10.6819 20.8216 11.0817ZM17.4132 9.35644C17.4132 10.6609 16.3612 11.7129 15.0568 11.7129C13.7523 11.7129 12.7003 10.6609 12.7003 9.35644C12.7003 8.05198 13.7523 7 15.0568 7C16.3612 7 17.4132 8.05198 17.4132 9.35644Z" fill="white"/>
</svg>
