<svg width="30" height="30" viewBox="0 0 30 30" fill="none" xmlns="http://www.w3.org/2000/svg">
<circle cx="15" cy="15" r="15" fill="#808000"/>
<path d="M9 8.5H13L15 10L17.5 8.5H19.5L23 9L24.5 12L22.5 17.5L15 23.5L7 15.5L6.5 10L9 8.5Z" fill="#F5F5DC"/>
<path d="M9.55393 7.35145C11.8265 6.96643 13.7697 7.71047 15.0061 9.02137C16.2681 7.7087 18.2502 6.96803 20.5647 7.35145C23.4572 7.83079 25.8676 10.7647 24.6174 14.5458C23.8453 16.8803 21.9831 18.8788 20.1662 20.5126C19.2501 21.3364 18.3146 22.0941 17.5051 22.7626C16.6881 23.4373 16.0171 24.0073 15.5627 24.496C15.5442 24.5169 15.5243 24.5374 15.5032 24.5565C15.5018 24.5578 15.4997 24.5582 15.4983 24.5595C15.4758 24.5795 15.4521 24.5973 15.428 24.6141C15.3995 24.634 15.3693 24.6495 15.3391 24.6649C15.3197 24.6748 15.3005 24.6842 15.2805 24.6923C15.2564 24.702 15.232 24.7096 15.2073 24.7167C15.1849 24.7231 15.1627 24.729 15.1399 24.7333C15.1152 24.7379 15.0906 24.7409 15.0657 24.7431C15.0431 24.745 15.0209 24.747 14.9983 24.747C14.9734 24.7469 14.9488 24.7456 14.924 24.7431C14.8994 24.7405 14.8752 24.7363 14.8508 24.7313C14.828 24.7267 14.8058 24.7205 14.7834 24.7138C14.762 24.7073 14.7408 24.7007 14.7199 24.6923C14.6939 24.6817 14.6687 24.6697 14.6438 24.6561C14.6176 24.6419 14.5913 24.6278 14.5666 24.6102C14.5425 24.593 14.5187 24.5749 14.4963 24.5546C14.4948 24.5532 14.4929 24.5521 14.4914 24.5507L14.4436 24.5028C13.9994 24.0117 13.3394 23.4374 12.5334 22.7567C11.742 22.0883 10.8269 21.3307 9.93088 20.5067C8.15312 18.8718 6.33352 16.8732 5.57932 14.5409C4.36295 10.7787 6.70178 7.83496 9.55393 7.35145ZM20.3196 8.83094C18.1244 8.46728 16.4485 9.37313 15.6301 10.6386C15.627 10.6434 15.6226 10.6475 15.6194 10.6522C15.6161 10.6571 15.613 10.6621 15.6096 10.6669C15.5847 10.7017 15.5571 10.7333 15.5276 10.7626C15.4998 10.7901 15.4694 10.8153 15.4367 10.8388C15.4283 10.8448 15.42 10.8507 15.4114 10.8563C15.4076 10.8588 15.4044 10.8627 15.4006 10.8651C15.371 10.8838 15.3399 10.8989 15.3088 10.913C15.3001 10.9169 15.2913 10.9202 15.2824 10.9237C15.2601 10.9328 15.2369 10.9384 15.2141 10.9452C15.1894 10.9526 15.1652 10.9609 15.1399 10.9657C15.1152 10.9704 15.0904 10.9714 15.0657 10.9735C15.0425 10.9755 15.0196 10.9785 14.9963 10.9784C14.9733 10.9783 14.9508 10.9758 14.928 10.9735C14.9015 10.9709 14.8751 10.9682 14.8489 10.9628C14.8283 10.9585 14.8085 10.9521 14.7883 10.9462C14.7605 10.9379 14.7324 10.9305 14.7053 10.9188C14.6997 10.9164 14.6943 10.9136 14.6887 10.911C14.6563 10.8961 14.6238 10.8802 14.593 10.8602C14.5879 10.8569 14.5833 10.8529 14.5783 10.8495C14.5735 10.8462 14.5685 10.8432 14.5637 10.8397C14.5285 10.8146 14.4965 10.7866 14.467 10.7567C14.4377 10.7269 14.4106 10.6944 14.386 10.6591C14.3828 10.6545 14.3793 10.6501 14.3762 10.6454C14.3731 10.6407 14.3694 10.6365 14.3664 10.6317C13.5662 9.36633 11.9351 8.4688 9.80393 8.82997C7.8188 9.16663 6.08169 11.2212 7.00608 14.08C7.63358 16.0203 9.19983 17.7969 10.9465 19.4032C11.8127 20.1998 12.6945 20.93 13.5012 21.6112C14.0457 22.0711 14.5642 22.5179 15.0061 22.9393C15.4588 22.5163 15.9907 22.0673 16.55 21.6054C17.3748 20.9243 18.2773 20.1941 19.1633 19.3974C20.9509 17.7898 22.5526 16.0133 23.1936 14.0751C24.1327 11.2349 22.3743 9.17145 20.3196 8.83094Z" fill="#F5F5DC"/>
</svg>
