<svg width="30" height="30" viewBox="0 0 30 30" fill="none" xmlns="http://www.w3.org/2000/svg">
<circle cx="15" cy="15" r="15" fill="#9D19CB"/>
<path d="M18.8164 14.6387C17.249 14.6387 15.894 13.2324 15.894 11.416C15.8867 9.62158 17.2563 8.25195 18.8164 8.25195C20.3838 8.25195 21.7461 9.59229 21.7461 11.4014C21.7461 13.2324 20.3911 14.6387 18.8164 14.6387ZM10.3862 14.8071C9.02393 14.8071 7.8374 13.5767 7.8374 12.002C7.83008 10.4419 9.03125 9.24805 10.3862 9.24805C11.7485 9.24805 12.9351 10.4126 12.9351 11.9873C12.9351 13.5767 11.7559 14.8071 10.3862 14.8071ZM6.30664 21.4209C5.37646 21.4209 5.01758 21.0547 5.01758 20.3955C5.01758 18.3667 7.08301 15.9277 10.3862 15.9277C11.7485 15.9277 12.7959 16.3306 13.6162 16.8726C12.0342 18.0884 11.104 20.3149 11.8657 21.4209H6.30664ZM14.2168 21.4209C13.0596 21.4209 12.6494 21.0913 12.6494 20.4468C12.6494 18.5571 15.0151 15.9497 18.8164 15.9497C22.6104 15.9497 24.9761 18.5571 24.9761 20.4468C24.9761 21.0913 24.5659 21.4209 23.416 21.4209H14.2168Z" fill="white"/>
</svg>
