<svg width="30" height="30" viewBox="0 0 30 30" fill="none" xmlns="http://www.w3.org/2000/svg">
<circle cx="15" cy="15" r="15" fill="#CB6419"/>
<path d="M22.8394 13.65L15.9957 8.02714C15.7161 7.79381 15.3634 7.66602 14.9992 7.66602C14.635 7.66602 14.2823 7.79381 14.0026 8.02714L7.1592 13.65C7.11444 13.6875 7.07749 13.7334 7.05048 13.7851C7.02346 13.8369 7.0069 13.8934 7.00174 13.9516C6.99658 14.0097 7.00292 14.0683 7.02041 14.124C7.03789 14.1797 7.06618 14.2314 7.10364 14.2761L7.38809 14.6178C7.46374 14.7081 7.57216 14.7647 7.68951 14.7751C7.80687 14.7855 7.92356 14.7489 8.01394 14.6733L8.777 14.0469V15.6661H8.76839V21.444C8.76934 21.5621 8.81685 21.675 8.9006 21.7582C8.98434 21.8414 9.09755 21.8882 9.21562 21.8885H20.7772C20.8951 21.8885 21.0081 21.8416 21.0915 21.7583C21.1748 21.6749 21.2216 21.5619 21.2216 21.444V14.0469L21.9855 14.6745C22.0759 14.75 22.1926 14.7866 22.31 14.7762C22.4273 14.7658 22.5357 14.7092 22.6114 14.6189L22.8964 14.2772C22.9339 14.2324 22.9623 14.1805 22.9797 14.1247C22.9972 14.0688 23.0035 14.0101 22.9982 13.9518C22.9929 13.8935 22.9761 13.8368 22.9489 13.7851C22.9217 13.7333 22.8845 13.6874 22.8394 13.65ZM19.8883 13.8883H19.8824V20.5551H16.7771H13.2215H10.1017V13.0683L10.1104 13.0614V12.9503L14.9993 8.93409L19.8883 12.9514V13.8883Z" fill="white"/>
<path d="M16.5632 14.1442C16.0816 13.7338 15.3653 13.8076 14.9232 14.2638L14.7501 14.4422L14.5769 14.2638C14.1357 13.8076 13.4185 13.7338 12.9369 14.1442C12.385 14.6153 12.356 15.4608 12.8499 15.9714L14.5506 17.7275C14.6604 17.8408 14.8388 17.8408 14.9487 17.7275L16.6493 15.9714C17.1442 15.4608 17.1152 14.6153 16.5632 14.1442V14.1442Z" fill="white"/>
</svg>
