<svg width="30" height="30" viewBox="0 0 30 30" fill="none" xmlns="http://www.w3.org/2000/svg">
<path d="M15 30C23.2843 30 30 23.2843 30 15C30 6.71573 23.2843 0 15 0C6.71573 0 0 6.71573 0 15C0 23.2843 6.71573 30 15 30Z" fill="#DB321F"/>
<path d="M14.591 11.4154H14.5644C14.4975 11.3976 14.4286 11.3887 14.3593 11.3888C14.1476 11.3888 13.9445 11.4728 13.7946 11.6223C13.6447 11.7718 13.5602 11.9747 13.5597 12.1864V16.5332C13.5597 16.5876 13.5381 16.6397 13.4996 16.6782C13.4612 16.7166 13.409 16.7382 13.3546 16.7382C13.3003 16.7382 13.2481 16.7166 13.2097 16.6782C13.1712 16.6397 13.1496 16.5876 13.1496 16.5332V12.1782C13.1528 11.8562 13.2822 11.5482 13.5099 11.3205C13.7376 11.0928 14.0455 10.9635 14.3675 10.9603H14.468L15.0852 5.88144C15.1016 5.75893 15.069 5.6349 14.9945 5.53625C14.9201 5.4376 14.8097 5.37229 14.6874 5.35449H14.6115C14.5168 5.35482 14.4244 5.38351 14.3462 5.43687C14.268 5.49023 14.2076 5.56581 14.1727 5.65385L12.2433 10.585C11.6203 12.1743 11.2816 13.8608 11.2427 15.5675L11.1894 18.2555C11.1827 18.6079 11.0626 18.9487 10.847 19.2274L8.83969 21.8335C8.76851 21.9272 8.72998 22.0417 8.72998 22.1595C8.72998 22.2772 8.76851 22.3917 8.83969 22.4855C9.50131 23.4085 10.4014 24.1342 11.4437 24.5851C11.5411 24.6267 11.6486 24.6387 11.7529 24.6198C11.8571 24.6008 11.9535 24.5517 12.0301 24.4785L13.9739 22.6167C14.3471 22.2565 14.6442 21.825 14.8475 21.3477C15.0507 20.8704 15.1559 20.3572 15.1569 19.8384V12.1782C15.1565 12.0073 15.1013 11.841 14.9995 11.7037C14.8976 11.5664 14.7545 11.4654 14.591 11.4154Z" fill="white"/>
<path d="M15.3641 11.5055C15.4888 11.3198 15.6617 11.1717 15.8644 11.077L15.3641 6.99463L14.8638 11.0708C15.0677 11.1663 15.241 11.3168 15.3641 11.5055Z" fill="white"/>
<path d="M19.8891 19.2273C19.6742 18.9482 19.5542 18.6076 19.5467 18.2554L19.4852 15.5674C19.447 13.8608 19.109 12.1743 18.4866 10.5849L16.5572 5.66398C16.5201 5.56107 16.4487 5.47408 16.355 5.41769C16.2612 5.36129 16.1509 5.33893 16.0426 5.35437C15.9226 5.37363 15.8148 5.43866 15.7417 5.53578C15.6687 5.6329 15.6362 5.75456 15.651 5.87517L16.2661 10.9581H16.3645C16.6865 10.9613 16.9944 11.0906 17.2222 11.3184C17.4499 11.5461 17.5792 11.854 17.5824 12.176V16.5228C17.5824 16.5772 17.5608 16.6294 17.5224 16.6678C17.4839 16.7063 17.4318 16.7279 17.3774 16.7279C17.323 16.7279 17.2709 16.7063 17.2324 16.6678C17.194 16.6294 17.1724 16.5772 17.1724 16.5228V12.1781C17.1718 11.9663 17.0873 11.7635 16.9374 11.614C16.7875 11.4644 16.5844 11.3805 16.3727 11.3805C16.3035 11.38 16.2345 11.389 16.1677 11.4071H16.139C15.9761 11.4575 15.8337 11.5588 15.7325 11.6961C15.6314 11.8333 15.577 11.9994 15.5771 12.1699V19.8383C15.5781 20.3571 15.6834 20.8703 15.8866 21.3476C16.0899 21.8248 16.3869 22.2564 16.7602 22.6166L18.7019 24.4783C18.779 24.5515 18.8757 24.6006 18.9803 24.6195C19.0848 24.6384 19.1926 24.6264 19.2904 24.585C20.3313 24.1337 21.23 23.408 21.8903 22.4854C21.9615 22.3916 22 22.2771 22 22.1594C22 22.0416 21.9615 21.9271 21.8903 21.8333L19.8891 19.2273Z" fill="white"/>
</svg>
