<svg width="30" height="30" viewBox="0 0 30 30" fill="none" xmlns="http://www.w3.org/2000/svg">
<circle cx="15" cy="15" r="15" fill="#9D19CB"/>
<path d="M15.0058 14.3348C16.2605 14.3348 17.3401 13.1602 17.3401 11.6307C17.3401 10.1196 16.2546 9 15.0058 9C13.7629 9 12.6716 10.144 12.6775 11.6429C12.6775 13.1602 13.757 14.3348 15.0058 14.3348ZM8.27745 14.4755C9.3687 14.4755 10.3082 13.4477 10.3082 12.1201C10.3082 10.8048 9.36286 9.83204 8.27745 9.83204C7.19788 9.83204 6.24085 10.8293 6.24668 12.1324C6.24668 13.4477 7.19204 14.4755 8.27745 14.4755ZM21.7167 14.4755C22.808 14.4755 23.7533 13.4477 23.7533 12.1324C23.7533 10.8293 22.8021 9.83204 21.7167 9.83204C20.6371 9.83204 19.6859 10.8048 19.6859 12.1201C19.6859 13.4477 20.6313 14.4755 21.7167 14.4755ZM5.02706 20H9.45623C8.84934 19.0762 9.59045 17.2164 10.8509 16.2008C10.1973 15.7481 9.36286 15.4116 8.27745 15.4116C5.64562 15.4116 4 17.4488 4 19.1435C4 19.6941 4.28594 20 5.02706 20ZM24.9729 20C25.7141 20 26 19.6941 26 19.1435C26 17.4488 24.3544 15.4116 21.7225 15.4116C20.6313 15.4116 19.7968 15.7481 19.1491 16.2008C20.4037 17.2164 21.1448 19.0762 20.5379 20H24.9729ZM11.3411 20H18.6706C19.5867 20 19.9135 19.7247 19.9135 19.1863C19.9135 17.6079 18.0286 15.4299 15.0058 15.4299C11.9772 15.4299 10.0923 17.6079 10.0923 19.1863C10.0923 19.7247 10.4191 20 11.3411 20Z" fill="white"/>
</svg>
