<svg width="30" height="30" viewBox="0 0 30 30" fill="none" xmlns="http://www.w3.org/2000/svg">
<circle cx="15" cy="15" r="15" fill="#00C1DC"/>
<path d="M25 22C23.5002 22.5 19.5002 22.5 18 22C17.9998 20 18.5 16.5 21.5 16.5C24.7 16.5 25 20 25 22Z" stroke="white"/>
<path d="M12 22C10.5002 22.5 6.50015 22.5 5 22C4.99985 20 5.5 16.5 8.5 16.5C11.7 16.5 12 20 12 22Z" stroke="white"/>
<path d="M8 15.5C7.99985 13.5 8.5 10 11.5 10C14.7 10 15 13.5 15 15.5" stroke="white"/>
<path d="M15 15.5C14.9998 13.5 15.5 10 18.5 10C21.7 10 22 13.5 22 15.5" stroke="white"/>
<circle cx="21.5" cy="14" r="2.5" fill="#00C1DC" stroke="white"/>
<circle cx="8.5" cy="14" r="2.5" fill="#00C1DC" stroke="white"/>
<circle cx="11.5" cy="7.5" r="2" stroke="white"/>
<circle cx="18.5" cy="7.5" r="2" stroke="white"/>
<path d="M18.5 24C17.0002 24.5 13.0002 24.5 11.5 24C11.4998 22 12 18.5 15 18.5C18.2 18.5 18.5 22 18.5 24Z" fill="#00C1DC" stroke="white"/>
<circle cx="15" cy="16" r="2.5" fill="#00C1DC" stroke="white"/>
</svg>
