<svg width="30" height="30" viewBox="0 0 30 30" fill="none" xmlns="http://www.w3.org/2000/svg">
<circle cx="15" cy="15" r="15" fill="#E98F7A"/>
<path fill-rule="evenodd" clip-rule="evenodd" d="M22.2662 13.6515L23.9768 17.5876C24.0503 17.7348 23.94 17.9003 23.7744 17.9003H22.1926C22.0823 17.9003 21.9903 17.9923 21.9719 18.1026C21.906 18.8825 21.8336 19.6099 21.778 20.1673C21.7406 20.5433 21.7108 20.8419 21.696 21.0271C21.696 21.1375 21.5857 21.2294 21.4753 21.2294H19.2498C19.0842 21.2294 18.9555 21.3582 18.9555 21.5237V23.2895H10.3475V20.0707C10.3475 19.9787 10.2924 19.8867 10.2188 19.8316C8.26912 18.4521 7 16.1897 7 13.6147C7 9.40271 10.4027 6 14.6147 6C18.8267 6 22.2294 9.38432 22.2478 13.5595V13.5595C22.2478 13.5963 22.2478 13.6331 22.2662 13.6515ZM13.879 17.2749C13.6399 15.2885 15.8471 14.6631 16.8403 14.6263C21.0707 14.4792 20.85 12.4008 19.9855 10.6718C18.9923 8.66699 16.8219 7.36108 14.4308 7.45305C11.1016 7.5818 8.52662 10.3775 8.65537 13.6883C8.72538 15.3686 9.3665 15.6783 9.999 15.9839C10.5296 16.2402 11.0542 16.4936 11.2304 17.5508C11.5431 19.4085 14.0813 19.0407 13.879 17.2749ZM15.5896 10.5613H16.8587C17.0242 10.5613 17.153 10.6901 17.1346 10.8556V12.0144C17.1346 12.1799 17.0058 12.3087 16.8403 12.3087H15.5712C15.4792 12.3087 15.3873 12.3822 15.3873 12.4926V13.7617C15.3873 13.9273 15.2585 14.056 15.093 14.056H13.9342C13.7687 14.056 13.6399 13.9273 13.6399 13.7617V12.603C13.6399 12.4374 13.5112 12.3271 13.364 12.3087H13.3456H12.1869C12.0213 12.3087 11.8926 12.1799 11.8926 12.0144V10.8556C11.8926 10.6901 12.0213 10.5613 12.1869 10.5613H13.4744C13.5663 10.5613 13.6583 10.4878 13.6583 10.3774V9.10826C13.6583 8.94272 13.7871 8.81396 13.9526 8.81396H15.1114C15.2401 8.81396 15.3505 8.88754 15.3873 8.9979C15.4056 9.03468 15.4056 9.07147 15.4056 9.10826V10.3774C15.4056 10.4694 15.4792 10.5613 15.5896 10.5613Z" fill="white"/>
</svg>
