<svg width="30" height="30" viewBox="0 0 30 30" fill="none" xmlns="http://www.w3.org/2000/svg">
<circle cx="15" cy="15" r="15" fill="#8B066A"/>
<path d="M22.8398 13.9805L21.2539 12.5586V8.8125C21.2539 8.59375 21.0352 8.375 20.8164 8.375H19.0664C18.8203 8.375 18.6289 8.59375 18.6289 8.8125V10.2344L15.8398 7.80078C15.6758 7.63672 15.3477 7.5 15.1289 7.5C14.8828 7.5 14.5547 7.63672 14.3906 7.80078L7.39062 13.9805C7.30859 14.0352 7.22656 14.1992 7.22656 14.3086C7.22656 14.3906 7.28125 14.5273 7.36328 14.582L7.9375 15.2383C8.01953 15.3203 8.15625 15.375 8.26562 15.375C8.34766 15.375 8.48437 15.3203 8.56641 15.2656L9.00391 14.8828V20.625C9.00391 21.1172 9.38672 21.5 9.87891 21.5H20.3789C20.8437 21.5 21.2539 21.1172 21.2539 20.625V14.8828L21.6641 15.2656C21.7461 15.3203 21.8828 15.375 21.9648 15.375C22.0742 15.375 22.2109 15.3203 22.293 15.2383L22.8672 14.582C22.9219 14.5273 22.9766 14.3906 23.0039 14.3086C22.9766 14.1992 22.9219 14.0352 22.8398 13.9805ZM16.8789 15.6758C16.8516 16.0039 16.6055 16.25 16.2773 16.25H13.9531C13.625 16.25 13.3789 16.0039 13.3789 15.6758V13.3516C13.3789 13.0234 13.625 12.7773 13.9531 12.75H16.2773C16.6055 12.7773 16.8516 13.0234 16.8789 13.3516V15.6758Z" fill="white"/>
</svg>
