<svg width="30" height="30" viewBox="0 0 30 30" fill="none" xmlns="http://www.w3.org/2000/svg">
<circle cx="15" cy="15" r="15" fill="#D69C00"/>
<mask id="path-2-outside-1_5322_3442" maskUnits="userSpaceOnUse" x="4.00293" y="5.99951" width="22" height="18" fill="black">
<rect fill="white" x="4.00293" y="5.99951" width="22" height="18"/>
<path d="M15.8092 20.9926H19.3752C19.6617 20.7078 19.9758 20.4116 20.2948 20.1105C20.9638 19.4773 21.662 18.8165 22.3798 17.9897C23.2001 17.0441 23.288 16.7169 23.537 15.7908C23.5842 15.6166 23.6363 15.4213 23.7047 15.1788L24.1311 13.6798L24.136 13.6635C24.3638 12.9962 24.3817 12.5551 24.2873 12.3012C24.258 12.2231 24.2206 12.171 24.1767 12.1433C24.1425 12.1205 24.0969 12.1124 24.0497 12.1173C23.939 12.1287 23.8137 12.1987 23.6998 12.324L22.4335 15.34C22.4221 15.3676 22.4058 15.3937 22.3879 15.4164C22.3131 15.5515 22.2121 15.6834 22.0819 15.8087L19.8342 18.312C19.7121 18.4487 19.5022 18.4601 19.3671 18.338C19.2304 18.2159 19.219 18.006 19.3411 17.8709L21.5888 15.366C21.5985 15.3546 21.6083 15.3432 21.6197 15.3334C21.8524 15.1121 21.9257 14.8728 21.885 14.6987C21.872 14.645 21.8492 14.5994 21.8166 14.5685C21.7857 14.5408 21.745 14.5213 21.6946 14.5164C21.4944 14.4952 21.1998 14.6433 20.8401 15.0681C20.8303 15.0795 20.8189 15.0909 20.8075 15.1023L19.9368 15.8705L19.9319 15.8754C18.9895 16.7674 18.5842 16.9789 17.8453 17.3647C17.6907 17.4461 17.5214 17.534 17.3114 17.6479C17.2284 17.6935 17.147 17.7488 17.0673 17.809C16.9827 17.8741 16.9013 17.9409 16.8248 18.006C16.4342 18.3347 16.2291 18.6017 16.1119 18.8963C15.9898 19.2023 15.9459 19.575 15.8857 20.086C15.8612 20.2927 15.8433 20.4962 15.8287 20.6996C15.8189 20.7989 15.814 20.8966 15.8092 20.9926ZM14.9807 8.42426C15.6448 7.73253 16.1086 7.1352 17.1308 7.01638C19.0481 6.79666 20.8124 8.76117 19.844 10.6948C19.5673 11.2449 19.0074 11.9008 18.3857 12.5437C17.7037 13.2501 16.9501 13.9402 16.4211 14.4643L14.9807 15.8933L13.7909 14.7475C12.3586 13.3673 10.023 11.6323 9.94652 9.48058C9.89281 7.97341 11.081 7.00824 12.4498 7.02615C13.6721 7.0408 14.1848 7.64952 14.9807 8.42426ZM14.1913 20.9926H10.6236C10.3371 20.7078 10.023 20.4116 9.70401 20.1105C9.03506 19.4773 8.33682 18.8165 7.61905 17.9897C6.79874 17.0441 6.71084 16.7169 6.46182 15.7908C6.41462 15.6166 6.36254 15.4213 6.29418 15.1788L5.86775 13.6798L5.86286 13.6635C5.635 12.9962 5.61709 12.5551 5.7115 12.3012C5.74079 12.2231 5.77823 12.171 5.82217 12.1433C5.85635 12.1205 5.90193 12.1124 5.94913 12.1173C6.06306 12.1271 6.18838 12.1987 6.30232 12.3224L7.56859 15.3383C7.57999 15.366 7.59626 15.392 7.61416 15.4148C7.68903 15.5499 7.78995 15.6817 7.92015 15.8071L10.1662 18.312C10.2883 18.4487 10.4983 18.4601 10.6334 18.338C10.7701 18.2159 10.7815 18.006 10.6594 17.8709L8.41169 15.3644C8.40193 15.353 8.39216 15.3416 8.38077 15.3318C8.14802 15.1105 8.07478 14.8712 8.11547 14.697C8.12849 14.6433 8.15127 14.5978 8.18383 14.5668C8.21475 14.5392 8.25544 14.5196 8.3059 14.5148C8.50609 14.4936 8.80232 14.6417 9.16039 15.0665C9.17015 15.0779 9.18155 15.0893 9.19294 15.1007L10.0637 15.8689L10.0686 15.8738C11.011 16.7657 11.4162 16.9773 12.1552 17.3631C12.3098 17.4444 12.4791 17.5323 12.689 17.6463C12.772 17.6918 12.8534 17.7472 12.9332 17.8074C13.0178 17.8725 13.0992 17.9392 13.1757 18.0043C13.5663 18.3331 13.7714 18.6 13.8886 18.8946C14.0107 19.2006 14.0546 19.5733 14.1148 20.0844C14.1392 20.2911 14.1571 20.4946 14.1718 20.698C14.1815 20.7989 14.1864 20.8966 14.1913 20.9926ZM9.79353 21.1066C9.74307 21.1651 9.71215 21.2416 9.71215 21.3247V23.3006C9.71215 23.4845 9.86189 23.6326 10.0442 23.6326H14.5331C14.717 23.6326 14.8651 23.4845 14.8651 23.3006V21.3067C14.8651 21.0952 14.8521 20.8673 14.8375 20.6557C14.8228 20.4392 14.8033 20.2244 14.7789 20.0112C14.7138 19.4529 14.6649 19.0444 14.5087 18.6521C14.3476 18.2501 14.0888 17.9034 13.6086 17.4982C13.5207 17.4233 13.4312 17.3484 13.3368 17.2784C13.2375 17.2036 13.1301 17.1319 13.0097 17.0652C12.8144 16.9594 12.6321 16.8634 12.4661 16.7755C11.7825 16.4174 11.4081 16.2221 10.5276 15.3888C10.5211 15.3823 10.5129 15.3758 10.5064 15.3709L9.65681 14.6205C9.1376 14.0135 8.62979 13.8116 8.24079 13.8539H8.23916C8.04874 13.8735 7.88597 13.9483 7.75577 14.0623L6.89802 12.018H6.89639C6.88337 11.9887 6.86709 11.961 6.84594 11.935C6.60831 11.6502 6.3072 11.4842 6.01911 11.4549C5.82217 11.4353 5.63174 11.4776 5.46573 11.5851C5.30785 11.6876 5.17764 11.8471 5.09626 12.0668C4.95303 12.4493 4.95629 13.0434 5.23624 13.8653L5.65941 15.3546C5.72126 15.5694 5.77497 15.7761 5.82543 15.9584C6.10212 16.992 6.19978 17.3582 7.12263 18.4194C7.85342 19.2608 8.56794 19.9379 9.25479 20.5873C9.4322 20.7615 9.61124 20.9324 9.79353 21.1066ZM10.4283 21.6567C10.4722 21.6664 10.5178 21.6664 10.5634 21.6567H14.1995V22.9685H10.3762V21.6567H10.4283ZM20.2069 21.1066C20.2574 21.1651 20.2883 21.2416 20.2883 21.3247V23.3006C20.2883 23.4845 20.1402 23.6326 19.9563 23.6326H15.469C15.2851 23.6326 15.137 23.4845 15.137 23.3006V21.3067C15.137 21.2954 15.137 21.2823 15.1386 21.2709C15.1435 21.0577 15.1516 20.851 15.1646 20.6557C15.1793 20.4392 15.1988 20.2244 15.2232 20.0112C15.2883 19.4529 15.3371 19.0444 15.4934 18.6521C15.6545 18.2501 15.9133 17.9034 16.3935 17.4982C16.4814 17.4233 16.5709 17.3484 16.6653 17.2784C16.7646 17.2036 16.872 17.1319 16.9924 17.0652C17.1877 16.9594 17.37 16.8634 17.536 16.7755C18.2196 16.4174 18.594 16.2221 19.4745 15.3888C19.481 15.3823 19.4892 15.3758 19.4957 15.3709L20.3453 14.6205C20.8645 14.0135 21.3723 13.8116 21.7613 13.8539H21.7629C21.9534 13.8735 22.1161 13.9483 22.2463 14.0623L23.1041 12.018H23.1057C23.1187 11.9887 23.135 11.961 23.1562 11.935C23.3938 11.6502 23.6949 11.4842 23.983 11.4549C24.1799 11.4353 24.3704 11.4776 24.5364 11.5851C24.6942 11.6876 24.8245 11.8471 24.9058 12.0668C25.0491 12.4493 25.0458 13.0434 24.7659 13.8653L24.3427 15.3546C24.2808 15.5694 24.2271 15.7761 24.1767 15.9584C23.9 16.992 23.8023 17.3582 22.8795 18.4194C22.1487 19.2608 21.4342 19.9379 20.7473 20.5873C20.5683 20.7615 20.3892 20.9324 20.2069 21.1066ZM19.5722 21.6567C19.5282 21.6664 19.4827 21.6664 19.4371 21.6567H15.801V22.9685H19.6243V21.6567H19.5722Z"/>
</mask>
<path d="M15.8092 20.9926H19.3752C19.6617 20.7078 19.9758 20.4116 20.2948 20.1105C20.9638 19.4773 21.662 18.8165 22.3798 17.9897C23.2001 17.0441 23.288 16.7169 23.537 15.7908C23.5842 15.6166 23.6363 15.4213 23.7047 15.1788L24.1311 13.6798L24.136 13.6635C24.3638 12.9962 24.3817 12.5551 24.2873 12.3012C24.258 12.2231 24.2206 12.171 24.1767 12.1433C24.1425 12.1205 24.0969 12.1124 24.0497 12.1173C23.939 12.1287 23.8137 12.1987 23.6998 12.324L22.4335 15.34C22.4221 15.3676 22.4058 15.3937 22.3879 15.4164C22.3131 15.5515 22.2121 15.6834 22.0819 15.8087L19.8342 18.312C19.7121 18.4487 19.5022 18.4601 19.3671 18.338C19.2304 18.2159 19.219 18.006 19.3411 17.8709L21.5888 15.366C21.5985 15.3546 21.6083 15.3432 21.6197 15.3334C21.8524 15.1121 21.9257 14.8728 21.885 14.6987C21.872 14.645 21.8492 14.5994 21.8166 14.5685C21.7857 14.5408 21.745 14.5213 21.6946 14.5164C21.4944 14.4952 21.1998 14.6433 20.8401 15.0681C20.8303 15.0795 20.8189 15.0909 20.8075 15.1023L19.9368 15.8705L19.9319 15.8754C18.9895 16.7674 18.5842 16.9789 17.8453 17.3647C17.6907 17.4461 17.5214 17.534 17.3114 17.6479C17.2284 17.6935 17.147 17.7488 17.0673 17.809C16.9827 17.8741 16.9013 17.9409 16.8248 18.006C16.4342 18.3347 16.2291 18.6017 16.1119 18.8963C15.9898 19.2023 15.9459 19.575 15.8857 20.086C15.8612 20.2927 15.8433 20.4962 15.8287 20.6996C15.8189 20.7989 15.814 20.8966 15.8092 20.9926ZM14.9807 8.42426C15.6448 7.73253 16.1086 7.1352 17.1308 7.01638C19.0481 6.79666 20.8124 8.76117 19.844 10.6948C19.5673 11.2449 19.0074 11.9008 18.3857 12.5437C17.7037 13.2501 16.9501 13.9402 16.4211 14.4643L14.9807 15.8933L13.7909 14.7475C12.3586 13.3673 10.023 11.6323 9.94652 9.48058C9.89281 7.97341 11.081 7.00824 12.4498 7.02615C13.6721 7.0408 14.1848 7.64952 14.9807 8.42426ZM14.1913 20.9926H10.6236C10.3371 20.7078 10.023 20.4116 9.70401 20.1105C9.03506 19.4773 8.33682 18.8165 7.61905 17.9897C6.79874 17.0441 6.71084 16.7169 6.46182 15.7908C6.41462 15.6166 6.36254 15.4213 6.29418 15.1788L5.86775 13.6798L5.86286 13.6635C5.635 12.9962 5.61709 12.5551 5.7115 12.3012C5.74079 12.2231 5.77823 12.171 5.82217 12.1433C5.85635 12.1205 5.90193 12.1124 5.94913 12.1173C6.06306 12.1271 6.18838 12.1987 6.30232 12.3224L7.56859 15.3383C7.57999 15.366 7.59626 15.392 7.61416 15.4148C7.68903 15.5499 7.78995 15.6817 7.92015 15.8071L10.1662 18.312C10.2883 18.4487 10.4983 18.4601 10.6334 18.338C10.7701 18.2159 10.7815 18.006 10.6594 17.8709L8.41169 15.3644C8.40193 15.353 8.39216 15.3416 8.38077 15.3318C8.14802 15.1105 8.07478 14.8712 8.11547 14.697C8.12849 14.6433 8.15127 14.5978 8.18383 14.5668C8.21475 14.5392 8.25544 14.5196 8.3059 14.5148C8.50609 14.4936 8.80232 14.6417 9.16039 15.0665C9.17015 15.0779 9.18155 15.0893 9.19294 15.1007L10.0637 15.8689L10.0686 15.8738C11.011 16.7657 11.4162 16.9773 12.1552 17.3631C12.3098 17.4444 12.4791 17.5323 12.689 17.6463C12.772 17.6918 12.8534 17.7472 12.9332 17.8074C13.0178 17.8725 13.0992 17.9392 13.1757 18.0043C13.5663 18.3331 13.7714 18.6 13.8886 18.8946C14.0107 19.2006 14.0546 19.5733 14.1148 20.0844C14.1392 20.2911 14.1571 20.4946 14.1718 20.698C14.1815 20.7989 14.1864 20.8966 14.1913 20.9926ZM9.79353 21.1066C9.74307 21.1651 9.71215 21.2416 9.71215 21.3247V23.3006C9.71215 23.4845 9.86189 23.6326 10.0442 23.6326H14.5331C14.717 23.6326 14.8651 23.4845 14.8651 23.3006V21.3067C14.8651 21.0952 14.8521 20.8673 14.8375 20.6557C14.8228 20.4392 14.8033 20.2244 14.7789 20.0112C14.7138 19.4529 14.6649 19.0444 14.5087 18.6521C14.3476 18.2501 14.0888 17.9034 13.6086 17.4982C13.5207 17.4233 13.4312 17.3484 13.3368 17.2784C13.2375 17.2036 13.1301 17.1319 13.0097 17.0652C12.8144 16.9594 12.6321 16.8634 12.4661 16.7755C11.7825 16.4174 11.4081 16.2221 10.5276 15.3888C10.5211 15.3823 10.5129 15.3758 10.5064 15.3709L9.65681 14.6205C9.1376 14.0135 8.62979 13.8116 8.24079 13.8539H8.23916C8.04874 13.8735 7.88597 13.9483 7.75577 14.0623L6.89802 12.018H6.89639C6.88337 11.9887 6.86709 11.961 6.84594 11.935C6.60831 11.6502 6.3072 11.4842 6.01911 11.4549C5.82217 11.4353 5.63174 11.4776 5.46573 11.5851C5.30785 11.6876 5.17764 11.8471 5.09626 12.0668C4.95303 12.4493 4.95629 13.0434 5.23624 13.8653L5.65941 15.3546C5.72126 15.5694 5.77497 15.7761 5.82543 15.9584C6.10212 16.992 6.19978 17.3582 7.12263 18.4194C7.85342 19.2608 8.56794 19.9379 9.25479 20.5873C9.4322 20.7615 9.61124 20.9324 9.79353 21.1066ZM10.4283 21.6567C10.4722 21.6664 10.5178 21.6664 10.5634 21.6567H14.1995V22.9685H10.3762V21.6567H10.4283ZM20.2069 21.1066C20.2574 21.1651 20.2883 21.2416 20.2883 21.3247V23.3006C20.2883 23.4845 20.1402 23.6326 19.9563 23.6326H15.469C15.2851 23.6326 15.137 23.4845 15.137 23.3006V21.3067C15.137 21.2954 15.137 21.2823 15.1386 21.2709C15.1435 21.0577 15.1516 20.851 15.1646 20.6557C15.1793 20.4392 15.1988 20.2244 15.2232 20.0112C15.2883 19.4529 15.3371 19.0444 15.4934 18.6521C15.6545 18.2501 15.9133 17.9034 16.3935 17.4982C16.4814 17.4233 16.5709 17.3484 16.6653 17.2784C16.7646 17.2036 16.872 17.1319 16.9924 17.0652C17.1877 16.9594 17.37 16.8634 17.536 16.7755C18.2196 16.4174 18.594 16.2221 19.4745 15.3888C19.481 15.3823 19.4892 15.3758 19.4957 15.3709L20.3453 14.6205C20.8645 14.0135 21.3723 13.8116 21.7613 13.8539H21.7629C21.9534 13.8735 22.1161 13.9483 22.2463 14.0623L23.1041 12.018H23.1057C23.1187 11.9887 23.135 11.961 23.1562 11.935C23.3938 11.6502 23.6949 11.4842 23.983 11.4549C24.1799 11.4353 24.3704 11.4776 24.5364 11.5851C24.6942 11.6876 24.8245 11.8471 24.9058 12.0668C25.0491 12.4493 25.0458 13.0434 24.7659 13.8653L24.3427 15.3546C24.2808 15.5694 24.2271 15.7761 24.1767 15.9584C23.9 16.992 23.8023 17.3582 22.8795 18.4194C22.1487 19.2608 21.4342 19.9379 20.7473 20.5873C20.5683 20.7615 20.3892 20.9324 20.2069 21.1066ZM19.5722 21.6567C19.5282 21.6664 19.4827 21.6664 19.4371 21.6567H15.801V22.9685H19.6243V21.6567H19.5722Z" fill="white"/>
<path d="M15.8092 20.9926H19.3752C19.6617 20.7078 19.9758 20.4116 20.2948 20.1105C20.9638 19.4773 21.662 18.8165 22.3798 17.9897C23.2001 17.0441 23.288 16.7169 23.537 15.7908C23.5842 15.6166 23.6363 15.4213 23.7047 15.1788L24.1311 13.6798L24.136 13.6635C24.3638 12.9962 24.3817 12.5551 24.2873 12.3012C24.258 12.2231 24.2206 12.171 24.1767 12.1433C24.1425 12.1205 24.0969 12.1124 24.0497 12.1173C23.939 12.1287 23.8137 12.1987 23.6998 12.324L22.4335 15.34C22.4221 15.3676 22.4058 15.3937 22.3879 15.4164C22.3131 15.5515 22.2121 15.6834 22.0819 15.8087L19.8342 18.312C19.7121 18.4487 19.5022 18.4601 19.3671 18.338C19.2304 18.2159 19.219 18.006 19.3411 17.8709L21.5888 15.366C21.5985 15.3546 21.6083 15.3432 21.6197 15.3334C21.8524 15.1121 21.9257 14.8728 21.885 14.6987C21.872 14.645 21.8492 14.5994 21.8166 14.5685C21.7857 14.5408 21.745 14.5213 21.6946 14.5164C21.4944 14.4952 21.1998 14.6433 20.8401 15.0681C20.8303 15.0795 20.8189 15.0909 20.8075 15.1023L19.9368 15.8705L19.9319 15.8754C18.9895 16.7674 18.5842 16.9789 17.8453 17.3647C17.6907 17.4461 17.5214 17.534 17.3114 17.6479C17.2284 17.6935 17.147 17.7488 17.0673 17.809C16.9827 17.8741 16.9013 17.9409 16.8248 18.006C16.4342 18.3347 16.2291 18.6017 16.1119 18.8963C15.9898 19.2023 15.9459 19.575 15.8857 20.086C15.8612 20.2927 15.8433 20.4962 15.8287 20.6996C15.8189 20.7989 15.814 20.8966 15.8092 20.9926ZM14.9807 8.42426C15.6448 7.73253 16.1086 7.1352 17.1308 7.01638C19.0481 6.79666 20.8124 8.76117 19.844 10.6948C19.5673 11.2449 19.0074 11.9008 18.3857 12.5437C17.7037 13.2501 16.9501 13.9402 16.4211 14.4643L14.9807 15.8933L13.7909 14.7475C12.3586 13.3673 10.023 11.6323 9.94652 9.48058C9.89281 7.97341 11.081 7.00824 12.4498 7.02615C13.6721 7.0408 14.1848 7.64952 14.9807 8.42426ZM14.1913 20.9926H10.6236C10.3371 20.7078 10.023 20.4116 9.70401 20.1105C9.03506 19.4773 8.33682 18.8165 7.61905 17.9897C6.79874 17.0441 6.71084 16.7169 6.46182 15.7908C6.41462 15.6166 6.36254 15.4213 6.29418 15.1788L5.86775 13.6798L5.86286 13.6635C5.635 12.9962 5.61709 12.5551 5.7115 12.3012C5.74079 12.2231 5.77823 12.171 5.82217 12.1433C5.85635 12.1205 5.90193 12.1124 5.94913 12.1173C6.06306 12.1271 6.18838 12.1987 6.30232 12.3224L7.56859 15.3383C7.57999 15.366 7.59626 15.392 7.61416 15.4148C7.68903 15.5499 7.78995 15.6817 7.92015 15.8071L10.1662 18.312C10.2883 18.4487 10.4983 18.4601 10.6334 18.338C10.7701 18.2159 10.7815 18.006 10.6594 17.8709L8.41169 15.3644C8.40193 15.353 8.39216 15.3416 8.38077 15.3318C8.14802 15.1105 8.07478 14.8712 8.11547 14.697C8.12849 14.6433 8.15127 14.5978 8.18383 14.5668C8.21475 14.5392 8.25544 14.5196 8.3059 14.5148C8.50609 14.4936 8.80232 14.6417 9.16039 15.0665C9.17015 15.0779 9.18155 15.0893 9.19294 15.1007L10.0637 15.8689L10.0686 15.8738C11.011 16.7657 11.4162 16.9773 12.1552 17.3631C12.3098 17.4444 12.4791 17.5323 12.689 17.6463C12.772 17.6918 12.8534 17.7472 12.9332 17.8074C13.0178 17.8725 13.0992 17.9392 13.1757 18.0043C13.5663 18.3331 13.7714 18.6 13.8886 18.8946C14.0107 19.2006 14.0546 19.5733 14.1148 20.0844C14.1392 20.2911 14.1571 20.4946 14.1718 20.698C14.1815 20.7989 14.1864 20.8966 14.1913 20.9926ZM9.79353 21.1066C9.74307 21.1651 9.71215 21.2416 9.71215 21.3247V23.3006C9.71215 23.4845 9.86189 23.6326 10.0442 23.6326H14.5331C14.717 23.6326 14.8651 23.4845 14.8651 23.3006V21.3067C14.8651 21.0952 14.8521 20.8673 14.8375 20.6557C14.8228 20.4392 14.8033 20.2244 14.7789 20.0112C14.7138 19.4529 14.6649 19.0444 14.5087 18.6521C14.3476 18.2501 14.0888 17.9034 13.6086 17.4982C13.5207 17.4233 13.4312 17.3484 13.3368 17.2784C13.2375 17.2036 13.1301 17.1319 13.0097 17.0652C12.8144 16.9594 12.6321 16.8634 12.4661 16.7755C11.7825 16.4174 11.4081 16.2221 10.5276 15.3888C10.5211 15.3823 10.5129 15.3758 10.5064 15.3709L9.65681 14.6205C9.1376 14.0135 8.62979 13.8116 8.24079 13.8539H8.23916C8.04874 13.8735 7.88597 13.9483 7.75577 14.0623L6.89802 12.018H6.89639C6.88337 11.9887 6.86709 11.961 6.84594 11.935C6.60831 11.6502 6.3072 11.4842 6.01911 11.4549C5.82217 11.4353 5.63174 11.4776 5.46573 11.5851C5.30785 11.6876 5.17764 11.8471 5.09626 12.0668C4.95303 12.4493 4.95629 13.0434 5.23624 13.8653L5.65941 15.3546C5.72126 15.5694 5.77497 15.7761 5.82543 15.9584C6.10212 16.992 6.19978 17.3582 7.12263 18.4194C7.85342 19.2608 8.56794 19.9379 9.25479 20.5873C9.4322 20.7615 9.61124 20.9324 9.79353 21.1066ZM10.4283 21.6567C10.4722 21.6664 10.5178 21.6664 10.5634 21.6567H14.1995V22.9685H10.3762V21.6567H10.4283ZM20.2069 21.1066C20.2574 21.1651 20.2883 21.2416 20.2883 21.3247V23.3006C20.2883 23.4845 20.1402 23.6326 19.9563 23.6326H15.469C15.2851 23.6326 15.137 23.4845 15.137 23.3006V21.3067C15.137 21.2954 15.137 21.2823 15.1386 21.2709C15.1435 21.0577 15.1516 20.851 15.1646 20.6557C15.1793 20.4392 15.1988 20.2244 15.2232 20.0112C15.2883 19.4529 15.3371 19.0444 15.4934 18.6521C15.6545 18.2501 15.9133 17.9034 16.3935 17.4982C16.4814 17.4233 16.5709 17.3484 16.6653 17.2784C16.7646 17.2036 16.872 17.1319 16.9924 17.0652C17.1877 16.9594 17.37 16.8634 17.536 16.7755C18.2196 16.4174 18.594 16.2221 19.4745 15.3888C19.481 15.3823 19.4892 15.3758 19.4957 15.3709L20.3453 14.6205C20.8645 14.0135 21.3723 13.8116 21.7613 13.8539H21.7629C21.9534 13.8735 22.1161 13.9483 22.2463 14.0623L23.1041 12.018H23.1057C23.1187 11.9887 23.135 11.961 23.1562 11.935C23.3938 11.6502 23.6949 11.4842 23.983 11.4549C24.1799 11.4353 24.3704 11.4776 24.5364 11.5851C24.6942 11.6876 24.8245 11.8471 24.9058 12.0668C25.0491 12.4493 25.0458 13.0434 24.7659 13.8653L24.3427 15.3546C24.2808 15.5694 24.2271 15.7761 24.1767 15.9584C23.9 16.992 23.8023 17.3582 22.8795 18.4194C22.1487 19.2608 21.4342 19.9379 20.7473 20.5873C20.5683 20.7615 20.3892 20.9324 20.2069 21.1066ZM19.5722 21.6567C19.5282 21.6664 19.4827 21.6664 19.4371 21.6567H15.801V22.9685H19.6243V21.6567H19.5722Z" stroke="white" stroke-width="0.4" mask="url(#path-2-outside-1_5322_3442)"/>
</svg>
