<svg width="30" height="30" viewBox="0 0 30 30" fill="none" xmlns="http://www.w3.org/2000/svg">
<circle cx="15" cy="15" r="15" fill="black"/>
<path d="M5.31921 18.0001V11.6636H3.97021V18.0001H5.31921Z" fill="white"/>
<path d="M9.65515 18.1141C11.0421 18.1141 11.8496 17.3446 12.2961 16.5561L11.1371 15.9956C10.8711 16.5086 10.3011 16.9171 9.65515 16.9171C8.49615 16.9171 7.66015 16.0336 7.66015 14.8366C7.66015 13.6396 8.49615 12.7561 9.65515 12.7561C10.3011 12.7561 10.8711 13.1646 11.1371 13.6776L12.2961 13.1076C11.8496 12.3096 11.0421 11.5591 9.65515 11.5591C7.74565 11.5591 6.27315 12.8796 6.27315 14.8366C6.27315 16.7841 7.74565 18.1141 9.65515 18.1141Z" fill="white"/>
<path d="M16.1106 18.1141C18.0201 18.1141 19.4166 16.7461 19.4166 14.8366C19.4166 12.9271 18.0201 11.5591 16.1106 11.5591C14.1916 11.5591 12.7951 12.9271 12.7951 14.8366C12.7951 16.7461 14.1916 18.1141 16.1106 18.1141ZM16.1106 16.9171C14.9326 16.9171 14.1821 16.0146 14.1821 14.8366C14.1821 13.6491 14.9326 12.7561 16.1106 12.7561C17.2791 12.7561 18.0296 13.6491 18.0296 14.8366C18.0296 16.0146 17.2791 16.9171 16.1106 16.9171Z" fill="white"/>
<path d="M26.0348 18.0001V11.6636H24.6858V15.6441L21.7503 11.6636H20.3633V18.0001H21.7123V13.8676L24.7333 18.0001H26.0348Z" fill="white"/>
</svg>
