<svg width="30" height="30" viewBox="0 0 30 30" fill="none" xmlns="http://www.w3.org/2000/svg">
<circle cx="15" cy="15" r="15" fill="#003546"/>
<path d="M8.43625 21.5355C8.37997 20.7842 7.7648 20.1979 7.57607 19.4829C7.3823 18.7489 7.58083 18.0652 7.78402 17.3593C7.84435 17.4464 7.81946 17.6442 7.83928 17.75C7.86399 17.882 7.902 18.0118 7.95125 18.1366C8.04764 18.3811 8.18852 18.6012 8.35074 18.8068C8.66503 19.2051 9.10167 19.6199 9.08338 20.1686C9.33898 19.4966 8.71883 18.8027 8.42251 18.2535C8.26295 17.9577 8.13881 17.6409 8.09153 17.3066C8.03606 16.9145 8.12303 16.5349 8.16308 16.1462C8.28962 16.6517 8.50009 17.1123 8.83157 17.5169C8.88626 17.4649 8.7287 17.2062 8.70758 17.1481C8.65562 17.0052 8.61469 16.8585 8.58661 16.709C8.53675 16.4436 8.52776 16.1716 8.55579 15.9032C8.61896 15.2986 8.86634 14.7357 9.15634 14.208C9.4756 13.627 9.84449 13.0719 10.1995 12.5124C10.5688 11.9304 10.9534 11.3577 11.3635 10.8035C10.9254 11.6925 10.6476 12.5718 10.8088 13.5735C10.9627 14.53 11.4058 15.4418 11.3451 16.4289C11.6235 15.802 11.4946 15.004 11.4141 14.3465C11.3361 13.7097 11.2437 13.0865 11.3263 12.4446C11.4772 11.2731 12.1191 10.2646 12.9874 9.48623C13.524 9.00525 14.1354 8.61833 14.779 8.29705C14.1158 8.94828 13.6391 9.66487 13.5518 10.6133C13.4605 11.6054 13.8016 12.5753 13.7129 13.5698C14.4144 12.3897 14.1633 10.9232 14.4886 9.64259C14.6298 9.08659 14.8795 8.57862 15.2991 8.18078C15.7136 7.78769 16.2307 7.53379 16.7511 7.31196C16.1827 7.89579 16.2422 8.67884 16.0768 9.39002C16.4059 8.82197 16.4461 8.12557 16.8065 7.57583C17.0991 7.1295 17.5645 6.85311 18.0549 6.66998C17.2886 7.37494 17.3313 8.52289 17.1449 9.46434C17.4907 8.75875 17.5678 7.92729 17.9607 7.24597C18.3146 6.63214 18.9251 6.31566 19.571 6.08663C20.3344 5.81597 21.1355 5.63272 21.9258 5.46008C22.7211 5.28636 23.526 5.14098 24.3357 5.05479C24.2152 5.79376 24.0657 6.5105 23.7942 7.21111C23.5305 7.89184 23.1871 8.54028 22.7913 9.15317C22.0729 10.2659 21.167 11.3448 19.8519 11.7285C19.5036 11.8301 19.1522 11.8641 18.7946 11.913C18.4469 11.9606 18.0225 12.0594 17.7898 12.3459C18.3687 12.1134 18.9931 12.2417 19.597 12.1891C19.8715 12.1651 20.1414 12.1045 20.3978 12.0031C20.524 11.9531 20.6461 11.894 20.7638 11.8263C20.8553 11.7737 20.9842 11.6459 21.0896 11.6291C20.5169 12.5018 19.5589 13.0856 18.5389 13.2575C17.9646 13.3543 17.3774 13.3083 16.8042 13.4171C16.2732 13.5179 15.7741 13.7484 15.4092 14.1555C15.4984 14.1841 15.6782 14.0038 15.7612 13.9594C15.8994 13.8854 16.0477 13.8306 16.2 13.7939C16.503 13.7209 16.818 13.7223 17.1265 13.7536C17.8671 13.8286 18.5563 13.9777 19.3033 13.872C18.6656 14.6094 18.0819 15.3475 17.1524 15.7238C16.7352 15.8928 16.3011 15.9753 15.8561 16.0281C15.3626 16.0866 14.7749 16.185 14.3898 16.5256C14.9704 16.3187 15.5325 16.3624 16.1361 16.3685C16.3995 16.3711 16.6623 16.3456 16.9191 16.2861C17.0578 16.2539 17.1943 16.2126 17.3277 16.1629C17.4205 16.1283 17.6178 15.9926 17.7168 16.0098C17.049 16.6416 16.2845 17.0471 15.3589 17.1195C14.9017 17.1553 14.4412 17.1325 13.9855 17.1893C13.6089 17.2361 13.0411 17.3372 12.7774 17.6425C13.3711 17.3624 14.0301 17.3521 14.6691 17.4399C15.3245 17.5299 15.994 17.6449 16.6325 17.4016C16.0316 18.0819 15.3197 18.5431 14.4492 18.7985C14.0437 18.9174 13.6291 19.0011 13.2336 19.153C13.0385 19.228 12.8486 19.3168 12.6696 19.4251C12.5356 19.5061 12.2889 19.6287 12.2273 19.7839C13.1097 19.2222 14.1955 19.3723 15.1504 19.0262C14.7472 19.5968 14.0718 20.0139 13.4166 20.231C13.0442 20.3544 12.6553 20.4203 12.2809 20.5366C12.0305 20.6145 11.5531 20.7964 11.5074 21.1036C12.3018 20.4254 13.4081 21.1872 14.2417 20.5965C13.7688 21.2893 13.0562 21.5957 12.2354 21.621C11.3484 21.6484 10.4419 21.7199 9.9327 22.5551C10.6352 21.9396 11.6457 21.9602 12.4346 22.3935C11.249 22.3633 10.1519 22.9224 9.85486 23.6965C10.2868 23.4973 10.7702 23.4465 11.2111 23.6484C11.5834 23.8189 11.9546 24.157 11.94 24.6004C11.6354 23.8021 10.5838 23.9579 10.0127 24.3453C9.36597 24.784 9.03951 25.4669 8.77961 26.1771C8.70007 25.8675 8.63019 25.5957 8.55927 25.3197C8.96417 24.7382 9.19526 24.0634 9.39733 23.3904C9.61003 22.682 9.8244 21.9759 10.0793 21.2812C10.5801 19.9165 11.199 18.5986 11.9196 17.3363C13.2299 15.0408 14.8777 12.945 16.8067 11.1375C17.3714 10.6084 17.96 10.1061 18.5656 9.62446C18.8976 9.36039 19.2343 9.1021 19.5745 8.84866C19.7502 8.71786 19.9268 8.58834 20.1042 8.45998C20.2486 8.35547 20.4409 8.26202 20.5632 8.13374C20.4669 8.08519 20.2796 8.27153 20.2039 8.32307C20.052 8.42662 19.9007 8.53105 19.75 8.63643C19.4596 8.83952 19.1717 9.04609 18.8866 9.25656C18.3166 9.67745 17.7579 10.1139 17.2143 10.5685C16.1661 11.4451 15.1817 12.3943 14.2828 13.424C12.4563 15.5161 10.9669 17.9126 9.89829 20.4759C9.58595 21.2251 9.30476 21.9895 9.07122 22.7671C8.83544 23.5521 8.70561 24.3502 8.53132 25.1484C8.35559 24.4081 8.19523 23.664 7.85968 22.9753C7.69967 22.6469 7.50322 22.336 7.26478 22.0588C7.06332 21.8246 6.69971 21.3918 6.36006 21.4008C7.26584 21.2244 8.09182 21.6146 8.3204 22.959C8.45893 22.5879 8.32947 22.092 8.17488 21.7467C7.97932 21.3098 7.65738 20.9269 7.28684 20.6277C7.76386 20.8114 8.19344 21.0525 8.43625 21.5355Z" fill="white"/>
</svg>
