<svg width="30" height="30" viewBox="0 0 30 30" fill="none" xmlns="http://www.w3.org/2000/svg">
<circle cx="15" cy="15" r="15" fill="#06B1E8"/>
<path fill-rule="evenodd" clip-rule="evenodd" d="M15.0003 6.75C14.8708 6.75 14.7831 6.81875 14.7478 6.9265L12.9238 12.4768H7.0166C6.88759 12.4768 6.7998 12.5455 6.76444 12.6531C6.72933 12.7596 6.75884 12.859 6.85715 12.9296L11.6433 16.3593L9.8134 21.9195C9.77867 22.0252 9.80768 22.1243 9.90677 22.1957C9.96149 22.2347 10.0165 22.2496 10.066 22.2496C10.1156 22.2496 10.1707 22.2347 10.2255 22.1956L14.9977 18.7691L19.7752 22.1956C19.8761 22.268 19.992 22.2681 20.093 22.1957C20.1915 22.125 20.2212 22.0258 20.1863 21.9196L18.3553 16.3635L23.1424 12.9297C23.2413 12.8587 23.2707 12.7596 23.236 12.6538C23.2003 12.5456 23.1121 12.4769 22.9834 12.4768L17.0796 12.4794L15.2525 6.9269C15.2171 6.81895 15.1292 6.75 15.0003 6.75ZM13.3227 6.45846C13.5636 5.72493 14.2333 5.25 15.0003 5.25C15.7669 5.25 16.4364 5.72496 16.6774 6.45806L18.165 10.9789L22.9827 10.9768C23.7494 10.9768 24.4189 11.4518 24.6604 12.1838C24.9028 12.9192 24.6424 13.6996 24.0168 14.1485L20.1247 16.9403L21.6111 21.4505C21.8525 22.1847 21.5934 22.9653 20.9674 23.4144C20.3438 23.8618 19.5245 23.8619 18.9009 23.4145L14.9982 20.6154L11.1 23.4143C10.7927 23.6344 10.4318 23.7496 10.066 23.7496C9.70034 23.7496 9.34018 23.6349 9.03282 23.4148L9.03176 23.4141C8.40665 22.9648 8.14694 22.1855 8.38845 21.451L9.87411 16.9369L5.98319 14.1487C5.35702 13.6995 5.09751 12.9187 5.33966 12.184C5.58074 11.4515 6.25023 10.9768 7.0166 10.9768H11.8378L13.3227 6.45846Z" fill="white"/>
</svg>
