<svg width="30" height="30" viewBox="0 0 30 30" fill="none" xmlns="http://www.w3.org/2000/svg">
<circle cx="15" cy="15" r="15" fill="#CB334E"/>
<path fill-rule="evenodd" clip-rule="evenodd" d="M22.333 12.336H17.6667V7.667C17.6667 7.2938 17.3729 7 16.9997 7H13.0003C12.6245 7 12.3333 7.2938 12.3333 7.667V12.336H7.667C7.29115 12.336 7 12.6271 7 13.003V17.0023C7 17.3755 7.29115 17.6693 7.667 17.6693H12.3333V22.3356C12.3333 22.7115 12.6245 23 13.0003 23H16.9997C17.3729 23 17.6667 22.7115 17.6667 22.3356V17.6693H22.333C22.7088 17.6693 23 17.3755 23 17.0023V13.003C23 12.6271 22.7088 12.336 22.333 12.336Z" fill="white"/>
</svg>
