<svg width="30" height="30" viewBox="0 0 30 30" fill="none" xmlns="http://www.w3.org/2000/svg">
<circle cx="15" cy="15" r="15" fill="#003F63"/>
<path d="M21.6301 9.1383C21.7466 8.78001 22.2534 8.78001 22.3699 9.1383L23.4843 12.5682C23.5363 12.7284 23.6857 12.8369 23.8541 12.8369H27.4605C27.8372 12.8369 27.9939 13.319 27.6891 13.5404L24.7715 15.6602C24.6352 15.7592 24.5781 15.9347 24.6302 16.095L25.7446 19.5248C25.8611 19.8831 25.451 20.181 25.1462 19.9596L22.2286 17.8398C22.0923 17.7408 21.9077 17.7408 21.7714 17.8398L18.8538 19.9596C18.549 20.181 18.1389 19.8831 18.2554 19.5248L19.3698 16.095C19.4219 15.9347 19.3648 15.7592 19.2285 15.6602L16.3109 13.5404C16.0061 13.319 16.1628 12.8369 16.5395 12.8369H20.1459C20.3143 12.8369 20.4637 12.7284 20.5157 12.5682L21.6301 9.1383Z" fill="white"/>
<path d="M7.63014 9.1383C7.74656 8.78001 8.25344 8.78001 8.36986 9.1383L9.48429 12.5682C9.53635 12.7284 9.68567 12.8369 9.85414 12.8369H13.4605C13.8372 12.8369 13.9939 13.319 13.6891 13.5404L10.7715 15.6602C10.6352 15.7592 10.5781 15.9347 10.6302 16.095L11.7446 19.5248C11.8611 19.8831 11.451 20.181 11.1462 19.9596L8.22858 17.8398C8.09228 17.7408 7.90772 17.7408 7.77142 17.8398L4.8538 19.9596C4.54902 20.181 4.13894 19.8831 4.25536 19.5248L5.36979 16.095C5.42185 15.9347 5.36482 15.7592 5.22852 15.6602L2.3109 13.5404C2.00612 13.319 2.16276 12.8369 2.53948 12.8369H6.14586C6.31433 12.8369 6.46365 12.7284 6.51571 12.5682L7.63014 9.1383Z" fill="white"/>
</svg>
