<svg width="30" height="30" viewBox="0 0 30 30" fill="none" xmlns="http://www.w3.org/2000/svg">
<circle cx="15" cy="15" r="15" fill="#009D48"/>
<path fill-rule="evenodd" clip-rule="evenodd" d="M11.818 22.4431C11.0053 22.6036 10.2163 22.0749 10.0558 21.2622L9.85116 20.226C7.37463 20.2481 5.29049 19.5592 3.59596 18.4237C2.99046 18.0179 2.7643 17.2356 3.05988 16.5693L4.5053 13.3112C4.68772 12.9 5.04507 12.5923 5.47884 12.4731C5.9126 12.3539 6.37698 12.4356 6.74397 12.6958C7.24687 13.0523 7.85606 13.3624 8.53609 13.5675L8.37571 12.7554C7.25004 12.6548 6.02523 12.4426 4.92616 11.9303C3.43085 11.2334 2.22736 10.0093 1.70459 8.04827C2.07637 7.3387 2.50328 6.66256 2.97965 6.02556C2.9538 6.43684 2.9813 6.85415 3.06362 7.27093C3.75595 10.7764 6.84133 11.2115 9.62347 11.3315L10.4125 15.3267C9.87415 15.3363 9.35321 15.2866 8.85656 15.1901C8.26134 15.0745 7.701 14.8917 7.18736 14.6634C6.70616 14.4495 6.26595 14.1956 5.87643 13.9194L4.43101 17.1776C6.12864 18.3153 8.31698 18.9543 11.0692 18.6517L11.5274 20.9715L13.9503 20.493L13.4921 18.1732C17.2047 17.0383 18.6485 14.45 18.0835 11.5889C17.3861 8.05765 14.1925 7.61715 11.3795 7.47642L10.677 3.91941C11.2013 3.94289 11.7302 4.01524 12.2502 4.14345C12.5009 4.20526 12.7495 4.28005 12.9944 4.3686C13.4198 4.52236 13.8342 4.71762 14.2298 4.95848L15.7264 1.82413C14.3477 0.9751 12.7693 0.541121 11.0395 0.528359C12.3011 0.183893 13.629 0 14.9999 0C15.1731 0 15.3457 0.00293689 15.5175 0.00876359C15.8574 0.168315 16.1894 0.347619 16.513 0.546881C17.1658 0.948918 17.4104 1.77858 17.08 2.47047L15.5834 5.60482C15.4036 5.98145 15.0751 6.26583 14.6773 6.39016C15.1799 6.51561 15.6773 6.68028 16.1517 6.89848C17.789 7.65165 19.1054 9.02169 19.5551 11.2982C19.7507 12.2888 19.7544 13.2814 19.5438 14.2298C20.6357 13.731 21.9263 13.613 23.2496 13.9002L23.5048 13.4329C23.9019 12.7059 24.8132 12.4384 25.5403 12.8355L27.103 13.689C27.83 14.0862 28.0975 14.9975 27.7004 15.7245L27.4348 16.2107C28.3175 17.0429 28.9933 18.0253 29.4204 19.1432C29.2027 19.9021 28.9268 20.6363 28.5978 21.3407L26.4546 22.3247C26.3735 22.3619 26.2899 22.3916 26.2048 22.4136C26.265 22.5213 26.322 22.6311 26.3753 22.743C26.5993 23.2129 26.755 23.7129 26.8198 24.2363C26.281 24.9249 25.6833 25.5652 25.0344 26.1496C26.0245 24.0019 24.5228 22.3632 23.0879 21.0401L24.3409 18.7459C24.734 19.1045 25.0875 19.5209 25.3715 19.9883C25.3869 20.0136 25.402 20.039 25.417 20.0645C25.5815 20.346 25.7209 20.6455 25.8288 20.9615L28.1046 19.9167C27.9652 19.5015 27.7832 19.1057 27.56 18.7306C27.5266 18.6744 27.4922 18.6187 27.4569 18.5634C26.978 17.8135 26.3293 17.1502 25.5213 16.5848L26.3839 15.0055L24.8213 14.152L23.9768 15.698C21.6054 14.705 19.4946 15.4082 18.5775 17.0873C17.3427 19.3482 18.8505 21.0135 20.3358 22.3643L18.9284 24.9411C18.4969 24.5942 18.1408 24.197 17.8541 23.7786C17.7807 23.6715 17.7118 23.5629 17.6474 23.4535C17.3776 22.9951 17.1862 22.5211 17.066 22.0677L14.7614 23.2047C15.1763 24.6185 16.0932 25.9826 17.757 27.0856L16.9398 28.5818L18.5025 29.4353L19.3197 27.9391C20.1742 28.2986 20.9645 28.4549 21.6759 28.4361C20.0339 29.2536 18.2208 29.7789 16.3047 29.944L16.2208 29.8982C15.4938 29.5011 15.2263 28.5898 15.6234 27.8628L15.8251 27.4935C14.5363 26.3582 13.7332 25.0278 13.3221 23.6272C13.1507 23.0429 13.3507 22.4264 13.8023 22.0512L11.818 22.4431ZM15.2106 19.1331C15.7259 18.9047 16.2027 18.6431 16.6383 18.3495C16.5705 19.135 16.7175 19.8809 17.0171 20.5685C16.8061 20.5753 16.5963 20.6268 16.4023 20.7225L15.2067 21.3124C15.413 20.9961 15.5008 20.6021 15.4218 20.2024L15.2106 19.1331ZM12.5803 5.81493L12.6284 6.05864C12.8349 6.0778 13.0448 6.10053 13.2569 6.12795C13.039 6.00794 12.8129 5.9038 12.5803 5.81493Z" fill="white"/>
<path d="M7.2217 6.91235C7.59104 7.16428 8.1549 7.28507 8.8395 7.36211L8.22353 4.24328C7.56699 4.46854 7.11622 4.82378 6.89519 5.25915C6.7447 5.55558 6.70072 5.88917 6.77083 6.24417C6.82846 6.53596 6.9852 6.75104 7.2217 6.91235Z" fill="white"/>
<path d="M14.176 13.8944C13.922 14.2855 13.4854 14.6378 12.8456 14.8997L12.1634 11.4458C12.8147 11.5198 13.371 11.6281 13.7715 11.8462C14.1122 12.0318 14.3401 12.2968 14.4173 12.6879C14.4977 13.0951 14.4237 13.5132 14.176 13.8944Z" fill="white"/>
<path d="M22.8327 17.7927C22.0468 17.4929 21.4133 17.6649 21.1046 18.2301C20.8412 18.7122 21.1705 19.2158 21.7341 19.8042L22.8327 17.7927Z" fill="white"/>
<path d="M22.3644 25.3285C22.0738 25.8605 21.4115 26.1247 20.4729 25.8278L21.6896 23.6002C22.2939 24.2325 22.664 24.7799 22.3644 25.3285Z" fill="white"/>
</svg>
