<svg width="30" height="30" viewBox="0 0 30 30" fill="none" xmlns="http://www.w3.org/2000/svg">
<circle cx="15" cy="15" r="15" fill="#307BC6"/>
<path d="M9.72573 22.216C8.62173 22.216 7.63773 22.042 6.77373 21.694C5.92173 21.346 5.24973 20.89 4.75773 20.326L6.32373 18.22C6.73173 18.628 7.23573 18.94 7.83573 19.156C8.44773 19.372 9.03573 19.48 9.59973 19.48C10.2477 19.48 10.7457 19.372 11.0937 19.156C11.4417 18.94 11.6157 18.658 11.6157 18.31C11.6157 17.962 11.4537 17.71 11.1297 17.554C10.8177 17.386 10.2657 17.302 9.47373 17.302C8.51373 17.302 7.97373 17.308 7.85373 17.32V14.566C8.00973 14.578 8.54973 14.584 9.47373 14.584C10.7697 14.584 11.4177 14.272 11.4177 13.648C11.4177 13.288 11.2317 13.018 10.8597 12.838C10.4877 12.646 10.0017 12.55 9.40173 12.55C8.27373 12.55 7.27773 12.934 6.41373 13.702L4.91973 11.758C6.07173 10.462 7.67373 9.814 9.72573 9.814C11.2377 9.814 12.4077 10.114 13.2357 10.714C14.0757 11.302 14.4957 12.1 14.4957 13.108C14.4957 13.792 14.2377 14.386 13.7217 14.89C13.2177 15.382 12.5997 15.688 11.8677 15.808C12.5877 15.88 13.2357 16.174 13.8117 16.69C14.3997 17.194 14.6937 17.848 14.6937 18.652C14.6937 19.708 14.2377 20.566 13.3257 21.226C12.4137 21.886 11.2137 22.216 9.72573 22.216ZM23.1819 21.694C22.5219 22.042 21.7659 22.216 20.9139 22.216C20.0619 22.216 19.2999 22.042 18.6279 21.694C17.9679 21.346 17.4279 20.878 17.0079 20.29C16.5999 19.702 16.2879 19.048 16.0719 18.328C15.8679 17.596 15.7659 16.822 15.7659 16.006C15.7659 14.902 15.9459 13.894 16.3059 12.982C16.6659 12.07 17.2419 11.314 18.0339 10.714C18.8379 10.114 19.7979 9.814 20.9139 9.814C22.0299 9.814 22.9839 10.114 23.7759 10.714C24.5799 11.314 25.1619 12.07 25.5219 12.982C25.8819 13.894 26.0619 14.902 26.0619 16.006C26.0619 16.822 25.9539 17.596 25.7379 18.328C25.5339 19.048 25.2219 19.702 24.8019 20.29C24.3939 20.878 23.8539 21.346 23.1819 21.694ZM18.8979 16.006C18.8979 18.322 19.5699 19.48 20.9139 19.48C22.2579 19.48 22.9299 18.322 22.9299 16.006C22.9299 13.702 22.2579 12.55 20.9139 12.55C19.5699 12.55 18.8979 13.702 18.8979 16.006Z" fill="white"/>
</svg>
