<svg width="30" height="30" viewBox="0 0 30 30" fill="none" xmlns="http://www.w3.org/2000/svg">
<circle cx="15" cy="15" r="15" fill="#D2CEB2"/>
<path d="M20.2206 16.424L19.5629 15.7673C19.989 15.3419 20.2287 14.7645 20.2292 14.1623C20.2296 13.5602 19.9909 12.9825 19.5654 12.5563C19.1399 12.1302 18.5626 11.8905 17.9604 11.8901C17.3582 11.8896 16.7805 12.1284 16.3544 12.5539L15.6977 11.8962C16.3008 11.3096 17.1106 10.984 17.952 10.9898C18.7933 10.9956 19.5985 11.3323 20.1935 11.9272C20.7885 12.5221 21.1254 13.3272 21.1314 14.1686C21.1374 15.0099 20.812 15.8198 20.2255 16.423L20.2206 16.424ZM18.285 14.4825C18.3292 14.4405 18.3645 14.39 18.3889 14.334C18.4133 14.2781 18.4262 14.2178 18.427 14.1568C18.4277 14.0958 18.4162 14.0352 18.3932 13.9787C18.3702 13.9222 18.3361 13.8709 18.293 13.8277C18.2498 13.7846 18.1985 13.7505 18.142 13.7275C18.0855 13.7045 18.0249 13.693 17.9639 13.6937C17.9029 13.6945 17.8426 13.7074 17.7867 13.7318C17.7308 13.7562 17.6803 13.7915 17.6382 13.8357L17.0012 13.1987C17.1254 13.0639 17.2756 12.9555 17.4427 12.8802C17.6099 12.8049 17.7905 12.7642 17.9738 12.7606C18.1571 12.7569 18.3392 12.7904 18.5092 12.859C18.6792 12.9276 18.8336 13.0299 18.963 13.1598C19.0925 13.2896 19.1943 13.4443 19.2624 13.6145C19.3305 13.7847 19.3634 13.967 19.3592 14.1502C19.355 14.3335 19.3137 14.514 19.2379 14.681C19.1621 14.8479 19.0533 14.9977 18.918 15.1215L18.285 14.4825ZM15.0508 11.2493L15.0429 11.2415C13.5126 9.71113 11.0397 9.5652 9.39989 10.9733C8.96924 11.3424 8.61953 11.7966 8.37268 12.3072C8.12584 12.8179 7.98719 13.3741 7.96543 13.9409C7.94368 14.5077 8.03928 15.0728 8.24625 15.6009C8.45322 16.129 8.76709 16.6087 9.16817 17.0097L14.7274 22.568C14.8139 22.6503 14.9291 22.6956 15.0485 22.6942C15.1679 22.6927 15.282 22.6446 15.3665 22.5602C15.4509 22.4758 15.499 22.3617 15.5004 22.2423C15.5019 22.1229 15.4566 22.0076 15.3742 21.9212L9.86924 16.4171C8.64163 15.1885 8.55091 13.1889 9.73514 11.9179C10.0282 11.603 10.3816 11.3504 10.7744 11.1751C11.1672 10.9999 11.5913 10.9055 12.0214 10.8978C12.4515 10.8901 12.8787 10.9691 13.2775 11.1301C13.6764 11.2911 14.0387 11.5309 14.3429 11.835L19.8972 17.3972C19.983 17.483 20.0993 17.5312 20.2206 17.5312C20.3419 17.5312 20.4582 17.483 20.544 17.3972L20.8024 17.1389C22.4332 15.508 22.4737 12.8004 20.8132 11.1981C20.0365 10.4501 18.9972 10.0367 17.919 10.0469C16.8407 10.057 15.8094 10.4898 15.0469 11.2523L15.0508 11.2493ZM10.382 12.5657C9.55272 13.4768 9.63259 14.8947 10.5033 15.7654L16.0162 21.2783C16.1026 21.3606 16.2179 21.4059 16.3373 21.4044C16.4567 21.403 16.5708 21.3549 16.6552 21.2705C16.7396 21.186 16.7877 21.0719 16.7892 20.9525C16.7906 20.8331 16.7453 20.7179 16.663 20.6314L11.1412 15.1097C10.6245 14.593 10.5624 13.7519 11.0426 13.2027C11.1663 13.0612 11.3178 12.9466 11.4876 12.8661C11.6575 12.7856 11.842 12.7408 12.0299 12.7345C12.2177 12.7282 12.4049 12.7605 12.5797 12.8296C12.7545 12.8986 12.9133 13.0027 13.0462 13.1356L18.6055 18.6949C18.6919 18.7772 18.8072 18.8225 18.9266 18.821C19.046 18.8196 19.1601 18.7715 19.2445 18.6871C19.329 18.6026 19.377 18.4885 19.3785 18.3691C19.3799 18.2497 19.3347 18.1345 19.2523 18.048L13.6921 12.4819C13.4732 12.2629 13.2121 12.0907 12.9247 11.9757C12.6372 11.8607 12.3294 11.8052 12.0199 11.8127C11.7104 11.8202 11.4056 11.8904 11.1241 12.0192C10.8425 12.1479 10.5901 12.3325 10.382 12.5618V12.5657ZM11.6924 13.8436C11.6339 13.9352 11.609 14.0442 11.622 14.1521C11.6349 14.26 11.6849 14.3601 11.7634 14.4352L17.3098 19.9816C17.3963 20.064 17.5115 20.1093 17.6309 20.1078C17.7503 20.1064 17.8644 20.0583 17.9489 19.9738C18.0333 19.8894 18.0814 19.7753 18.0828 19.6559C18.0843 19.5365 18.039 19.4213 17.9567 19.3348L12.3984 13.7765C12.3504 13.7286 12.2923 13.6919 12.2283 13.6691C12.1644 13.6463 12.0961 13.638 12.0286 13.6448C11.961 13.6516 11.8958 13.6733 11.8377 13.7084C11.7796 13.7434 11.7299 13.791 11.6924 13.8475" fill="white"/>
</svg>
