<svg width="30" height="30" viewBox="0 0 30 30" fill="none" xmlns="http://www.w3.org/2000/svg">
<circle cx="15" cy="15" r="15" fill="#BF355F"/>
<path d="M15 10.2309C15.9895 8.70104 17.9684 7.68113 20.4421 8.09106C22.9157 8.50098 25 11 23.9052 14.3107C22.4922 18.5836 16.9789 21.8601 15 24" stroke="white" stroke-width="1.5" stroke-linecap="round" stroke-linejoin="round"/>
<path d="M11.4998 10.9999C8.49982 9.99991 6.99982 13.4999 12.4998 17.9999M18.4998 10.9999C16.9998 10.9999 16.4998 12.4999 16.4998 12.4999" stroke="white" stroke-width="1.5" stroke-linecap="round" stroke-linejoin="round"/>
<path d="M15 10.2309C14.0325 8.70104 12.0974 7.68113 9.67862 8.09106C7.25981 8.50098 5.22178 11 6.29229 14.3107C7.67395 18.5836 13.065 21.8601 15 24" stroke="white" stroke-width="1.5" stroke-linecap="round" stroke-linejoin="round"/>
</svg>
