<svg width="30" height="30" viewBox="0 0 30 30" fill="none" xmlns="http://www.w3.org/2000/svg">
<circle cx="15" cy="15" r="15" fill="#D22030"/>
<path d="M25.208 22.0981C24.6499 22.3785 23.5997 22.8335 22.6864 22.8335C22.2185 22.83 21.7626 22.6845 21.3791 22.4162C19.0379 20.8568 19.838 18.987 21.4357 16.0939C22.112 14.8664 22.8096 13.6019 23.1207 12.2971C23.4545 10.8917 23.7581 8.84589 22.5406 7.29848C21.9674 6.57129 21.095 6.01128 19.953 5.63229C18.7626 5.23947 17.2303 5.02514 15.3988 5.00377L15.2731 5L14.8086 5.00377C12.9765 5.02703 11.4435 5.24135 10.255 5.63229C9.10986 6.01254 8.24 6.57506 7.66742 7.29974C6.4481 8.84715 6.75167 10.893 7.08667 12.2983C7.40093 13.6056 8.0967 14.8702 8.77109 16.0952C10.3688 18.9864 11.1689 20.8581 8.82703 22.4174C8.44397 22.6856 7.98854 22.8311 7.52098 22.8348C6.60837 22.8348 5.55749 22.3797 5 22.0994L5.13513 22.3395C6.29286 24.0773 7.78055 25 9.43292 25C10.1582 25 10.9231 24.8246 11.7075 24.4777C12.5359 24.11 13.2656 23.4375 13.7603 22.5821C14.2549 21.7267 14.4516 20.8065 14.3108 19.9863C14.1386 19.2535 13.7571 18.2648 13.3153 17.1209C12.1619 14.1386 10.585 10.0614 11.947 8.0659C12.5221 7.22306 13.5547 6.81264 15.1028 6.80887C16.6533 6.81453 17.6872 7.22495 18.2604 8.0659C19.623 10.0602 18.0467 14.1386 16.8947 17.1165C16.4509 18.2611 16.0694 19.2535 15.8991 19.9769C15.7577 20.8053 15.9531 21.7267 16.4484 22.5821C16.9437 23.4375 17.6734 24.11 18.5018 24.479C19.2868 24.8246 20.0511 25 20.7751 25C22.4281 25 23.9177 24.0773 25.0792 22.3326L25.208 22.0981Z" fill="white"/>
</svg>
