<svg width="30" height="30" viewBox="0 0 30 30" fill="none" xmlns="http://www.w3.org/2000/svg">
<circle cx="15" cy="15" r="15" fill="#2E235B"/>
<path d="M24.9661 15.7419C24.9468 15.7002 24.9194 15.6627 24.8856 15.6316C24.8517 15.6004 24.812 15.5763 24.7689 15.5606C24.7257 15.545 24.6799 15.538 24.634 15.5401C24.5881 15.5422 24.5431 15.5534 24.5016 15.5731C24.2884 15.6721 24.0675 15.7537 23.8412 15.8171C23.6351 15.0991 23.7472 14.0399 24.6601 13.5979C24.7015 13.5779 24.7386 13.5499 24.7692 13.5155C24.7998 13.4811 24.8234 13.4409 24.8385 13.3974C24.8537 13.3539 24.8601 13.3078 24.8575 13.2618C24.8549 13.2157 24.8433 13.1707 24.8233 13.1292C24.8033 13.0876 24.7754 13.0505 24.7411 13.0198C24.7067 12.9891 24.6667 12.9654 24.6233 12.9503C24.5357 12.9196 24.4394 12.9251 24.3558 12.9655C23.2024 13.5234 22.8621 14.8557 23.1467 15.9388C22.8847 15.9591 22.6215 15.9226 22.3749 15.8316C22.0838 15.7153 21.8457 15.4953 21.7064 15.2138C21.8967 15.109 22.0815 14.9943 22.2599 14.8702C22.3361 14.817 22.3881 14.7355 22.4045 14.6438C22.4208 14.552 22.4001 14.4576 22.347 14.3811C22.2939 14.3047 22.2126 14.2525 22.1211 14.2361C22.0296 14.2197 21.9354 14.2405 21.8592 14.2938C21.5402 14.515 21.1997 14.7032 20.8429 14.8557C20.9329 14.3689 20.8916 13.8658 20.4241 13.4582C20.3894 13.4279 20.3491 13.4048 20.3055 13.3902C20.2619 13.3756 20.2159 13.3697 20.17 13.3729C20.1242 13.3761 20.0794 13.3884 20.0382 13.4089C19.9971 13.4295 19.9604 13.458 19.9302 13.4928C19.9001 13.5276 19.877 13.568 19.8624 13.6117C19.8479 13.6554 19.842 13.7016 19.8452 13.7476C19.8484 13.7936 19.8606 13.8385 19.8811 13.8797C19.9017 13.921 19.9301 13.9578 19.9648 13.988C20.2551 14.239 20.2244 14.5605 20.0472 15.1329C19.7728 15.2092 19.4931 15.2652 19.2104 15.3006C19.2506 15.1075 19.2715 14.9108 19.2725 14.7136C19.2728 14.6675 19.2641 14.6218 19.2468 14.5791C19.2294 14.5363 19.2039 14.4975 19.1716 14.4646C19.1393 14.4318 19.1009 14.4057 19.0585 14.3878C19.0161 14.3698 18.9707 14.3604 18.9247 14.3601C18.8787 14.3598 18.8331 14.3686 18.7905 14.386C18.7479 14.4033 18.7091 14.4289 18.6764 14.4613C18.6436 14.4937 18.6176 14.5323 18.5997 14.5747C18.5818 14.6172 18.5725 14.6628 18.5722 14.7089C18.5706 14.9224 18.5379 15.1345 18.4752 15.3384C18.2522 15.3334 18.0301 15.309 17.8114 15.2656C17.3601 15.173 16.7504 14.9465 16.406 14.3922C16.3562 14.3133 16.2771 14.2574 16.1862 14.2369C16.0953 14.2165 16.0001 14.233 15.9213 14.283C15.8426 14.3329 15.787 14.4122 15.7665 14.5033C15.7461 14.5945 15.7626 14.69 15.8125 14.7689C16.1888 15.3739 16.8317 15.7845 17.6708 15.9574C17.8206 15.9878 17.9718 16.0104 18.1238 16.0249C17.7492 16.5228 17.1563 16.9036 16.4077 17.1057C16.3903 16.841 16.3903 16.5755 16.4077 16.3109C16.4104 16.2648 16.4039 16.2186 16.3888 16.1751C16.3736 16.1315 16.35 16.0913 16.3194 16.0569C16.2888 16.0225 16.2517 15.9944 16.2102 15.9743C16.1688 15.9543 16.1238 15.9426 16.0779 15.9399C16.0319 15.9373 15.9859 15.9438 15.9424 15.959C15.899 15.9741 15.8589 15.9978 15.8246 16.0285C15.7902 16.0592 15.7622 16.0964 15.7422 16.1379C15.7222 16.1795 15.7106 16.2246 15.7079 16.2707C15.68 16.7651 15.6864 17.1971 15.7631 17.589C15.7631 17.589 15.7631 17.5943 15.7631 17.5966C15.7631 17.5989 15.7677 17.6123 15.7695 17.6199C15.8804 18.1562 16.1278 18.6185 16.6058 19.0663C16.4715 19.2476 16.3476 19.4364 16.2347 19.6317L16.2318 19.637C15.5929 20.7434 15.2904 22.0949 15.6539 23.5011C15.2963 23.511 14.9405 23.4469 14.6086 23.3131C14.7522 22.8996 14.8765 22.5013 14.9814 22.1182C14.9849 22.1083 14.9895 22.0984 14.9924 22.0879C14.9953 22.0774 14.9924 22.0762 14.9924 22.0704C15.8194 19.0197 15.4059 16.9275 13.7375 15.5841C13.6072 15.4788 13.4826 15.3666 13.364 15.2482C13.5786 15.0731 13.7822 14.8851 13.9738 14.6851C14.1986 14.9465 14.4181 15.2144 14.5064 15.3466C14.5319 15.3848 14.5648 15.4176 14.603 15.4431C14.6413 15.4686 14.6841 15.4863 14.7292 15.4952C14.7742 15.5041 14.8206 15.504 14.8656 15.495C14.9106 15.4859 14.9534 15.468 14.9916 15.4424C15.0297 15.4167 15.0624 15.3838 15.0879 15.3454C15.1133 15.3071 15.131 15.2641 15.1398 15.2189C15.1487 15.1738 15.1486 15.1273 15.1396 15.0821C15.1305 15.037 15.1127 14.9941 15.0871 14.9558C14.9576 14.7619 14.6707 14.4195 14.4373 14.1499C14.858 13.6158 15.1893 13.0165 15.4181 12.3756C15.8391 12.4468 16.2653 12.4826 16.6923 12.4828C16.8607 12.4828 17.028 12.4758 17.1958 12.4653C17.2237 13.1321 17.2724 13.8075 17.6958 14.2646C17.7271 14.2984 17.7647 14.3257 17.8066 14.3448C17.8484 14.364 17.8935 14.3747 17.9395 14.3764C17.9854 14.3781 18.0312 14.3707 18.0743 14.3546C18.1174 14.3385 18.1569 14.3141 18.1906 14.2827C18.2243 14.2513 18.2515 14.2136 18.2706 14.1717C18.2897 14.1297 18.3004 14.0844 18.3021 14.0384C18.3038 13.9923 18.2964 13.9464 18.2803 13.9032C18.2643 13.8599 18.2399 13.8203 18.2086 13.7866C17.9479 13.5047 17.9182 12.9667 17.8938 12.389C18.5077 12.2965 19.1076 12.1275 19.6796 11.8859C20.2284 12.3861 21.0601 12.6429 21.9207 12.6429C22.7541 12.6429 23.6142 12.403 24.2698 11.9127C24.3067 11.8852 24.3378 11.8506 24.3614 11.811C24.3849 11.7713 24.4004 11.7275 24.4071 11.6818C24.4137 11.6362 24.4113 11.5897 24.4 11.545C24.3887 11.5003 24.3688 11.4582 24.3413 11.4213C24.3138 11.3843 24.2793 11.3531 24.2398 11.3295C24.2003 11.3059 24.1565 11.2903 24.111 11.2837C24.0655 11.277 24.0191 11.2794 23.9745 11.2907C23.9299 11.302 23.888 11.3221 23.8511 11.3496C22.8668 12.0857 21.272 12.1363 20.3725 11.5412C20.7043 11.3504 21.0149 11.1246 21.2987 10.8675C21.3674 10.8047 21.4084 10.7171 21.4128 10.624C21.4171 10.5309 21.3843 10.4399 21.3217 10.3711C21.2591 10.3022 21.1717 10.2611 21.0789 10.2568C20.986 10.2524 20.8953 10.2853 20.8266 10.3481C20.4259 10.7149 19.8812 11.0521 19.2377 11.3071C18.9287 10.6343 18.8697 9.87277 19.0716 9.16017C19.4368 9.33533 19.8364 9.42645 20.2412 9.42686C20.9207 9.42686 21.635 9.16949 22.2233 8.55341C22.2551 8.52011 22.2801 8.48084 22.2968 8.43786C22.3135 8.39487 22.3216 8.34901 22.3207 8.30289C22.3197 8.25676 22.3097 8.21128 22.2912 8.16904C22.2727 8.1268 22.2461 8.08863 22.2128 8.0567C22.1796 8.02478 22.1405 7.99972 22.0976 7.98297C22.0547 7.96622 22.009 7.9581 21.963 7.95907C21.917 7.96005 21.8716 7.9701 21.8295 7.98864C21.7874 8.00719 21.7493 8.03388 21.7175 8.06719C20.9666 8.85271 20.0136 8.85388 19.3422 8.51207C19.6354 8.00099 20.0799 7.59399 20.614 7.34746C20.6978 7.3073 20.7623 7.23542 20.7932 7.14762C20.8241 7.05982 20.819 6.9633 20.779 6.87929C20.7389 6.79527 20.6672 6.73065 20.5797 6.69964C20.4921 6.66862 20.3959 6.67376 20.3121 6.71391C19.863 6.92394 19.4628 7.22583 19.137 7.60019C18.8113 7.97455 18.5672 8.41309 18.4206 8.88765C18.1551 9.75852 18.2076 10.6957 18.5687 11.5313C18.3335 11.5964 18.0951 11.6487 17.8544 11.6879C17.7916 11.0422 17.6221 10.4185 17.0169 10.075C16.977 10.0522 16.9329 10.0376 16.8873 10.0319C16.8417 10.0262 16.7954 10.0296 16.7511 10.0418C16.7068 10.0541 16.6654 10.075 16.6291 10.1033C16.5929 10.1316 16.5625 10.1668 16.5398 10.2069C16.5171 10.2469 16.5026 10.2911 16.4969 10.3368C16.4912 10.3825 16.4946 10.4289 16.5068 10.4734C16.519 10.5178 16.5398 10.5593 16.5681 10.5957C16.5963 10.6321 16.6314 10.6625 16.6714 10.6852C17.0053 10.8762 17.1127 11.2838 17.158 11.7666C16.6389 11.8 16.1176 11.775 15.604 11.692C15.6109 11.6553 15.6202 11.6187 15.6266 11.582C15.7177 11.0669 15.6967 10.5381 15.5651 10.0319C17.0611 8.99363 18.057 7.09416 17.7469 5.56794C17.7284 5.47667 17.6744 5.39652 17.5969 5.34514C17.5194 5.29376 17.4247 5.27535 17.3337 5.29396C17.2427 5.31257 17.1628 5.36668 17.1115 5.44438C17.0603 5.52207 17.0419 5.617 17.0605 5.70827C17.1163 6.00299 17.1187 6.30539 17.0674 6.60094C16.0262 6.61958 15.1371 6.09318 14.7619 5.21331C14.7255 5.12768 14.6566 5.06006 14.5705 5.02533C14.4843 4.99061 14.3879 4.99162 14.3025 5.02814C14.2171 5.06467 14.1497 5.13371 14.115 5.22009C14.0804 5.30647 14.0814 5.40311 14.1178 5.48874C14.5824 6.5794 15.6336 7.25487 16.8741 7.30029C16.5464 8.11843 16.0013 8.83081 15.2979 9.3599C15.1211 9.03306 14.8926 8.7371 14.6213 8.48353C14.5537 8.41967 14.4634 8.38539 14.3705 8.38823C14.2776 8.39107 14.1897 8.4308 14.126 8.49867C14.0623 8.56655 14.0281 8.65701 14.0309 8.75016C14.0338 8.84331 14.0734 8.93152 14.1411 8.99538C14.3686 9.20723 14.5575 9.4573 14.6992 9.73432C14.5492 9.81145 14.3939 9.87781 14.2346 9.93289C13.8187 10.08 13.3748 10.13 12.9367 10.079C12.4986 10.028 12.0779 9.87749 11.7066 9.63882C12.1425 9.17355 12.4587 8.6087 12.6277 7.99323C12.7512 8.0125 12.876 8.02262 13.0011 8.02351C13.6788 8.02351 14.0789 7.7114 14.2787 7.48954C14.3403 7.42004 14.3719 7.32885 14.3664 7.23603C14.361 7.14321 14.319 7.05636 14.2497 6.99458C14.1804 6.93281 14.0894 6.90117 13.9968 6.90663C13.9043 6.91209 13.8176 6.9542 13.756 7.0237C13.5354 7.27059 13.1945 7.36376 12.763 7.30437C12.8248 6.74986 12.8026 6.18918 12.6973 5.64131C12.689 5.59596 12.6718 5.55271 12.6468 5.51402C12.6218 5.47533 12.5894 5.44196 12.5515 5.41581C12.5136 5.38967 12.471 5.37127 12.426 5.36165C12.381 5.35203 12.3346 5.35139 12.2894 5.35976C12.2441 5.36814 12.201 5.38536 12.1624 5.41045C12.1238 5.43554 12.0906 5.468 12.0645 5.50599C12.0384 5.54397 12.0201 5.58674 12.0105 5.63184C12.0009 5.67693 12.0002 5.72349 12.0086 5.76883C12.2705 7.18849 11.9708 8.37755 11.145 9.21491C10.6264 8.74557 10.1037 8.0503 9.61301 7.04408C9.59284 7.00263 9.56472 6.96557 9.53027 6.93502C9.49581 6.90447 9.45569 6.88102 9.4122 6.86602C9.36871 6.85101 9.3227 6.84475 9.27679 6.84757C9.23088 6.8504 9.18598 6.86226 9.14464 6.88249C9.1033 6.90271 9.06635 6.93091 9.03588 6.96545C9.00541 7 8.98202 7.04023 8.96706 7.08384C8.95209 7.12744 8.94584 7.17358 8.94866 7.21961C8.95148 7.26565 8.96331 7.31067 8.98348 7.35212C9.45389 8.31874 10.0015 9.09088 10.6043 9.6592C10.0201 10.0493 9.29709 10.2893 8.49508 10.3632C8.53921 9.72267 8.40971 9.0274 7.62745 8.57146C7.58767 8.54806 7.54369 8.53274 7.49802 8.52639C7.45234 8.52003 7.40587 8.52275 7.36124 8.53441C7.31662 8.54606 7.27472 8.56641 7.23794 8.5943C7.20116 8.62219 7.17022 8.65707 7.14688 8.69695C7.12354 8.73683 7.10827 8.78092 7.10193 8.82672C7.09559 8.87252 7.0983 8.91912 7.10993 8.96386C7.1334 9.05423 7.19171 9.13155 7.27203 9.1788C7.69365 9.42454 7.84464 9.76111 7.78715 10.3859C7.34622 10.3744 6.90736 10.3212 6.47641 10.2269C6.38561 10.2073 6.29073 10.2245 6.21265 10.275C6.13456 10.3254 6.07965 10.4049 6.06002 10.496C6.04038 10.587 6.05761 10.6821 6.10793 10.7604C6.15825 10.8387 6.23752 10.8938 6.32832 10.9135C6.85666 11.0287 7.39572 11.0873 7.9364 11.0882C9.18094 11.0882 10.3099 10.7528 11.1653 10.1186C11.8158 10.5763 12.5179 10.8093 13.2485 10.8093H13.2647C13.4901 11.423 13.3333 12.1107 13.1143 12.385C13.0856 12.421 13.0642 12.4623 13.0514 12.5066C13.0385 12.5509 13.0345 12.5973 13.0396 12.6432C13.0447 12.6891 13.0587 12.7335 13.0809 12.7739C13.1031 12.8143 13.133 12.8499 13.1689 12.8788C13.2048 12.9076 13.2461 12.929 13.2902 12.9419C13.3344 12.9547 13.3807 12.9587 13.4264 12.9537C13.4722 12.9486 13.5165 12.9345 13.5568 12.9123C13.5971 12.89 13.6326 12.86 13.6614 12.824C14.0151 12.3809 14.1962 11.5168 13.9744 10.7312C14.1382 10.6985 14.2998 10.6553 14.4582 10.602C14.6187 10.5467 14.7758 10.4817 14.9286 10.4075C14.9937 10.7589 14.9958 11.1191 14.935 11.4713C14.7433 12.6359 13.9384 13.8803 12.9082 14.713C12.3559 13.9222 12.3019 13.153 12.3855 12.5835C12.3993 12.4914 12.376 12.3976 12.3208 12.3227C12.2656 12.2477 12.1829 12.1979 12.091 12.1841C11.9992 12.1703 11.9056 12.1936 11.8309 12.249C11.7562 12.3043 11.7064 12.3872 11.6927 12.4793C11.6764 12.5864 11.6671 12.693 11.6607 12.799C11.501 12.7642 11.3538 12.6863 11.235 12.5736C11.1263 12.4668 11.0403 12.3389 10.9823 12.1978C10.9243 12.0567 10.8955 11.9052 10.8976 11.7526C10.8976 11.6595 10.8607 11.5701 10.795 11.5043C10.7294 11.4384 10.6403 11.4015 10.5474 11.4015C10.4546 11.4015 10.3655 11.4384 10.2998 11.5043C10.2341 11.5701 10.1972 11.6595 10.1972 11.7526C10.196 12.0003 10.2449 12.2456 10.341 12.4738C10.437 12.702 10.5781 12.9083 10.7559 13.0802C11.0107 13.3238 11.339 13.4756 11.6892 13.5117C11.7758 14.0894 11.9971 14.6384 12.335 15.1142C12.1812 15.2094 12.0218 15.2949 11.8576 15.3704C11.7729 15.409 11.7069 15.4798 11.6743 15.5672C11.6416 15.6545 11.6449 15.7513 11.6834 15.8363C11.7219 15.9212 11.7925 15.9873 11.8796 16.0201C11.9667 16.0529 12.0632 16.0496 12.148 16.011C12.3686 15.9093 12.5821 15.7926 12.7868 15.6616C12.9466 15.8287 13.1169 15.9855 13.2967 16.1309C14.6556 17.2274 15.0267 18.9679 14.414 21.5097C13.896 21.1743 13.4999 20.3992 13.1062 19.5339C13.4471 19.315 13.7688 18.9801 13.8646 18.5527C13.9297 18.2616 13.914 17.8097 13.4703 17.3019C13.44 17.2672 13.4032 17.2388 13.3619 17.2184C13.3206 17.1979 13.2758 17.1859 13.2299 17.1828C13.1839 17.1797 13.1379 17.1858 13.0943 17.2006C13.0507 17.2154 13.0104 17.2386 12.9758 17.269C12.9412 17.2994 12.9129 17.3364 12.8925 17.3777C12.8721 17.4191 12.86 17.4641 12.857 17.5101C12.8539 17.5562 12.86 17.6024 12.8747 17.6461C12.8895 17.6898 12.9127 17.7302 12.943 17.7649C13.1439 17.9943 13.2235 18.2074 13.1811 18.399C13.1387 18.5906 12.9906 18.7525 12.8135 18.8835C12.6393 18.5021 12.4592 18.1096 12.2548 17.7375C12.2441 17.7104 12.2301 17.6848 12.213 17.6612C11.8198 16.9625 11.346 16.3417 10.7164 16.0209C10.8378 15.2848 10.7745 14.5826 10.5341 13.9688C10.5341 13.9688 10.5341 13.9624 10.53 13.9589C10.3756 13.5618 10.1434 13.1996 9.84705 12.8939C9.81494 12.8609 9.77667 12.8346 9.73441 12.8164C9.69215 12.7982 9.64674 12.7886 9.60077 12.788C9.5548 12.7875 9.50916 12.796 9.46647 12.8131C9.42378 12.8302 9.38487 12.8556 9.35197 12.8878C9.31906 12.92 9.2928 12.9584 9.27468 13.0007C9.25656 13.0431 9.24695 13.0886 9.24638 13.1347C9.24582 13.1808 9.25431 13.2266 9.27138 13.2694C9.28845 13.3122 9.31376 13.3512 9.34587 13.3842C9.51496 13.559 9.65725 13.758 9.76807 13.9747C9.04969 14.3887 8.07346 14.5424 7.15007 14.4329C7.1518 14.0115 7.10207 13.5914 7.00198 13.1821C7.42535 12.9871 7.84116 12.8805 8.19774 12.8805H8.22852C8.32139 12.8812 8.41074 12.8449 8.4769 12.7795C8.54307 12.7142 8.58063 12.6251 8.58132 12.532C8.58201 12.4389 8.54578 12.3493 8.4806 12.2829C8.41541 12.2166 8.32662 12.1789 8.23374 12.1782C7.77902 12.1718 7.27087 12.2912 6.75459 12.523C6.58174 12.1892 6.35108 11.8889 6.07337 11.6361C6.03966 11.6048 6.00013 11.5804 5.95702 11.5644C5.91391 11.5483 5.86807 11.541 5.82213 11.5427C5.77618 11.5444 5.73103 11.5552 5.68924 11.5744C5.64745 11.5937 5.60985 11.621 5.57858 11.6548C5.54731 11.6886 5.52299 11.7282 5.507 11.7714C5.49101 11.8147 5.48367 11.8606 5.4854 11.9067C5.48712 11.9527 5.49788 11.998 5.51706 12.0399C5.53623 12.0818 5.56345 12.1195 5.59716 12.1509C6.16281 12.675 6.41543 13.2992 6.44737 14.2926C6.12636 14.2052 5.81881 14.0741 5.53328 13.903C5.45404 13.8544 5.35876 13.8393 5.26842 13.8611C5.17808 13.8829 5.10007 13.9397 5.05155 14.0192C5.00304 14.0987 4.98799 14.1942 5.00971 14.2848C5.03144 14.3754 5.08817 14.4536 5.16741 14.5022C5.64325 14.7865 6.1667 14.9817 6.71219 15.0781C6.73 15.082 6.74804 15.0847 6.7662 15.0863C7.08356 15.1421 7.40513 15.1703 7.72733 15.1707C8.54038 15.1707 9.34645 14.9914 10.0062 14.642C10.0859 15.0251 10.0975 15.4194 10.0404 15.8066C9.61591 15.7484 9.13215 15.8136 8.57464 16.0395C7.92046 15.7756 7.20436 15.7061 6.51184 15.8392C6.50487 15.8392 6.4979 15.8392 6.49151 15.8427C6.04096 15.9355 5.6153 16.1234 5.24291 16.3941C5.16767 16.4488 5.11717 16.5312 5.10252 16.6232C5.08787 16.7152 5.11027 16.8093 5.1648 16.8847C5.21932 16.9602 5.3015 17.0108 5.39326 17.0255C5.48502 17.0402 5.57884 17.0177 5.65408 16.963C5.82047 16.8426 6.0011 16.7432 6.19185 16.6672C6.21391 17.143 6.31845 17.5913 6.48861 17.9058C6.53296 17.9876 6.60793 18.0485 6.69702 18.0749C6.78611 18.1013 6.88202 18.0912 6.96365 18.0467C7.04529 18.0022 7.10595 17.9271 7.13231 17.8377C7.15867 17.7484 7.14855 17.6522 7.1042 17.5704C6.99734 17.373 6.88874 16.9881 6.88816 16.4925C7.34908 16.4453 7.81465 16.5051 8.24884 16.6672C8.3284 17.9134 7.32488 18.7635 6.2476 19.0669C6.15897 19.0831 6.08006 19.1332 6.02743 19.2065C5.9748 19.2798 5.95253 19.3707 5.9653 19.4601C5.97807 19.5495 6.02489 19.6305 6.09593 19.6861C6.16697 19.7416 6.25672 19.7675 6.34632 19.7581C6.37831 19.7581 6.41015 19.7538 6.44098 19.7453C6.5914 19.7028 6.73136 19.6533 6.86841 19.6003C6.98456 19.9275 7.07748 20.3771 6.95901 20.8447C6.94744 20.8894 6.94482 20.9359 6.95131 20.9817C6.9578 21.0274 6.97326 21.0714 6.99681 21.1111C7.02035 21.1507 7.05152 21.1854 7.08849 21.2129C7.12546 21.2404 7.16751 21.2604 7.21221 21.2715C7.24055 21.2784 7.26959 21.2819 7.29874 21.282C7.37668 21.2822 7.45245 21.2562 7.51393 21.2082C7.57542 21.1602 7.61906 21.0929 7.6379 21.017C7.80864 20.3439 7.66403 19.7168 7.4991 19.2876C8.56302 18.6319 8.99684 17.5989 8.95096 16.6492C10.1746 16.2002 10.8848 16.754 11.5475 17.9093C11.3693 18.3773 11.0935 18.8018 10.7385 19.1542C10.701 18.6898 10.4931 18.2557 10.1548 17.9361C10.0888 17.8706 9.99961 17.8341 9.90676 17.8346C9.81392 17.8351 9.72507 17.8725 9.65976 17.9387C9.59445 18.0049 9.55804 18.0943 9.55853 18.1874C9.55902 18.2805 9.59638 18.3696 9.66237 18.4351C9.9452 18.7158 10.0817 18.9871 10.055 19.6871C9.6666 19.9208 9.24989 20.1036 8.81507 20.2309C8.73145 20.2522 8.65867 20.3038 8.61082 20.3758C8.56296 20.4477 8.54343 20.5349 8.55601 20.6205C8.56858 20.7061 8.61236 20.7839 8.67889 20.839C8.74541 20.8941 8.82994 20.9224 8.91612 20.9186C8.95054 20.9184 8.98475 20.9133 9.01775 20.9035C9.06072 20.8901 9.10195 20.8755 9.14435 20.8616C9.24424 21.5149 9.10776 21.947 8.69021 22.3703C8.65765 22.403 8.63188 22.4418 8.61439 22.4846C8.59689 22.5273 8.58802 22.5731 8.58829 22.6193C8.58856 22.6655 8.59797 22.7111 8.61596 22.7537C8.63395 22.7962 8.66017 22.8347 8.69311 22.867C8.7255 22.8998 8.76404 22.9258 8.8065 22.9435C8.84897 22.9612 8.89451 22.9704 8.94051 22.9704C8.98651 22.9704 9.03205 22.9612 9.07451 22.9435C9.11697 22.9258 9.15551 22.8998 9.18791 22.867C9.79594 22.2509 9.98817 21.5638 9.81046 20.6106C10.0782 20.4903 10.3354 20.3477 10.5794 20.1843V20.1843C10.749 20.0716 10.9108 19.9475 11.0637 19.8128C11.393 20.4132 11.6445 20.9908 11.6961 21.5562C11.4566 21.5444 11.2171 21.5806 10.9917 21.6628C10.7663 21.745 10.5596 21.8715 10.3837 22.0349C10.3503 22.0666 10.3234 22.1047 10.3047 22.1468C10.2859 22.1889 10.2756 22.2344 10.2744 22.2805C10.2731 22.3266 10.281 22.3725 10.2974 22.4156C10.3139 22.4587 10.3387 22.4981 10.3703 22.5316C10.4342 22.5993 10.5223 22.6387 10.6152 22.6412C10.6612 22.6424 10.707 22.6346 10.75 22.6181C10.793 22.6016 10.8323 22.5767 10.8657 22.545C10.9693 22.4477 11.0911 22.3719 11.2241 22.3219C11.357 22.272 11.4985 22.2488 11.6404 22.2538C11.5242 22.7011 11.2443 23.1424 10.7292 23.5838C10.6586 23.6443 10.6148 23.7304 10.6075 23.8232C10.6002 23.9161 10.63 24.008 10.6903 24.0788C10.7506 24.1496 10.8365 24.1935 10.929 24.2008C11.0216 24.2081 11.1133 24.1783 11.1839 24.1178C13.2008 22.3907 12.2699 20.4965 11.5678 19.2742C11.7115 19.0912 11.8395 18.8964 11.9505 18.6919C12.0585 18.9178 12.1677 19.1577 12.2804 19.4087C12.2966 19.4442 12.3123 19.4798 12.328 19.5153C12.8507 20.6863 13.3652 21.7816 14.2253 22.2055C13.9909 22.9882 13.7134 23.7572 13.3942 24.5091C13.3578 24.5954 13.357 24.6926 13.3921 24.7794C13.4272 24.8662 13.4952 24.9355 13.5812 24.972C13.6673 25.0086 13.7642 25.0093 13.8508 24.9742C13.9374 24.939 14.0065 24.8708 14.0429 24.7845C14.1591 24.507 14.2679 24.2352 14.3693 23.9693C14.7441 24.1154 15.1416 24.1943 15.5436 24.2022C15.7431 24.2027 15.942 24.179 16.1359 24.1318C16.1652 24.1293 16.194 24.1235 16.2219 24.1143C16.237 24.1088 16.2515 24.102 16.2654 24.0939C16.7881 23.9326 17.2469 23.5891 17.6372 23.065C18.1761 23.4819 18.7475 23.6939 19.3469 23.6939C19.7445 23.6882 20.1371 23.6037 20.502 23.4452C20.5445 23.4276 20.5831 23.4018 20.6157 23.3692C20.6482 23.3366 20.6741 23.2979 20.6917 23.2553C20.7093 23.2126 20.7184 23.167 20.7185 23.1208C20.7185 23.0747 20.7094 23.029 20.6919 22.9864C20.6743 22.9438 20.6485 22.905 20.616 22.8724C20.5835 22.8397 20.5449 22.8138 20.5024 22.7961C20.4599 22.7785 20.4143 22.7694 20.3683 22.7693C20.3223 22.7693 20.2768 22.7783 20.2342 22.796C19.4299 23.1291 18.7005 23.0196 18.0106 22.4635C18.0652 22.361 18.1186 22.2556 18.1691 22.1438C18.2076 22.0589 18.2109 21.9621 18.1782 21.8747C18.1456 21.7873 18.0796 21.7166 17.9949 21.678C17.9102 21.6393 17.8136 21.6361 17.7265 21.6688C17.6394 21.7016 17.5688 21.7677 17.5303 21.8526C17.4522 22.025 17.3648 22.193 17.2684 22.3558L17.2632 22.3657C16.9902 22.8216 16.6824 23.1366 16.334 23.3183C16.0599 22.2527 16.2341 21.2179 16.658 20.3317C17.2475 20.7049 18.028 20.914 18.7615 20.914H18.794C18.7969 20.9192 18.7992 20.925 18.8027 20.9309C19.233 21.6535 20.0078 21.9161 20.8318 21.9161C20.9265 21.9161 21.0223 21.9115 21.1176 21.905C21.1367 21.9083 21.1562 21.9101 21.1756 21.9103C21.1905 21.9112 21.2055 21.9112 21.2203 21.9103C21.2447 21.9071 21.2686 21.9015 21.2918 21.8934C21.7233 21.8441 22.1474 21.7431 22.5549 21.5924C22.6422 21.5602 22.7131 21.4945 22.7521 21.4099C22.7911 21.3253 22.7949 21.2286 22.7628 21.1411C22.7307 21.0536 22.6652 20.9825 22.5808 20.9434C22.4964 20.9043 22.4 20.9004 22.3127 20.9326C22.0464 21.0333 21.7721 21.1112 21.4927 21.1655C21.4561 20.3503 21.671 19.6807 22.1228 19.2107C22.6043 18.7105 23.3157 18.4741 24.1258 18.5481C24.2182 18.5564 24.3102 18.5276 24.3814 18.468C24.4526 18.4083 24.4973 18.3228 24.5056 18.2301C24.5139 18.1375 24.4852 18.0453 24.4257 17.9739C24.3663 17.9025 24.2809 17.8576 24.1885 17.8493C23.1769 17.7585 22.2407 18.077 21.6182 18.7228C21.1936 19.1647 20.729 19.9491 20.7958 21.2267C20.2476 21.215 19.8521 21.0444 19.603 20.8132C19.6703 20.7952 19.7371 20.7765 19.801 20.755C19.8886 20.7241 19.9603 20.6596 20.0004 20.5757C20.0406 20.4918 20.0458 20.3953 20.015 20.3075C19.9842 20.2197 19.9199 20.1478 19.8362 20.1075C19.7525 20.0673 19.6563 20.062 19.5687 20.0929C19.4704 20.1272 19.3697 20.1539 19.2673 20.1727C19.1947 19.6585 19.4717 19.0599 20.0472 18.5498C20.0816 18.5192 20.1095 18.4822 20.1296 18.4407C20.1496 18.3993 20.1613 18.3543 20.164 18.3084C20.1667 18.2624 20.1603 18.2164 20.1453 18.1729C20.1302 18.1294 20.1068 18.0893 20.0763 18.0549C20.0458 18.0204 20.0088 17.9924 19.9675 17.9723C19.9262 17.9522 19.8813 17.9405 19.8355 17.9378C19.7896 17.9351 19.7437 17.9415 19.7003 17.9566C19.657 17.9716 19.617 17.9952 19.5826 18.0257C18.8399 18.6837 18.4792 19.485 18.5629 20.2158C18.0082 20.1832 17.4345 20.0097 17.0065 19.7272C17.1159 19.5615 17.2346 19.4021 17.3619 19.2497L17.3677 19.2439L17.3706 19.2393C17.603 18.9603 17.8641 18.7066 18.1494 18.4823C18.1857 18.4539 18.216 18.4186 18.2388 18.3785C18.2615 18.3384 18.2761 18.2941 18.2817 18.2483C18.2874 18.2025 18.284 18.1561 18.2718 18.1116C18.2595 18.0671 18.2386 18.0255 18.2104 17.9891C18.1821 17.9527 18.1469 17.9222 18.1069 17.8994C18.0668 17.8767 18.0227 17.862 17.977 17.8563C17.9314 17.8507 17.885 17.8541 17.8406 17.8663C17.7963 17.8786 17.7548 17.8995 17.7185 17.9279C17.4835 18.1124 17.2631 18.3149 17.0593 18.5335C16.8346 18.3313 16.6603 18.079 16.5506 17.7969C17.6708 17.5057 18.517 16.871 18.9485 16.0354C19.2362 16.0169 19.5223 15.978 19.8045 15.919C19.6262 16.6375 19.6372 17.4807 20.8551 17.9786C20.8972 17.9955 20.9421 18.0042 20.9875 18.0042C21.0686 18.0049 21.1474 17.9773 21.2104 17.926C21.2733 17.8747 21.3165 17.803 21.3324 17.7233C21.3483 17.6435 21.3359 17.5607 21.2974 17.4891C21.259 17.4175 21.1968 17.3616 21.1216 17.3311C20.2598 16.9788 20.3248 16.5449 20.599 15.7047C20.7592 15.6499 20.9182 15.5892 21.0757 15.5224C21.2912 15.962 21.6622 16.3054 22.1164 16.4856C22.4033 16.5962 22.7086 16.6512 23.016 16.6474C23.7634 16.6474 24.4644 16.3662 24.796 16.2101C24.8381 16.1909 24.8759 16.1635 24.9074 16.1294C24.9388 16.0954 24.9631 16.0554 24.9789 16.0118C24.9948 15.9682 25.0018 15.9219 24.9996 15.8756C24.9974 15.8293 24.986 15.7838 24.9661 15.7419V15.7419Z" fill="white"/>
</svg>
