<svg width="30" height="30" viewBox="0 0 30 30" fill="none" xmlns="http://www.w3.org/2000/svg">
<circle cx="15" cy="15" r="15" fill="#1F1A30"/>
<path d="M18.0143 13.013C19.3349 12.8793 20.642 12.6708 21.9382 12.39C23.4056 12.0718 24.8703 11.751 26.3349 11.4328C26.8893 11.3125 27.4464 11.2002 28.0007 11.0852C27.9627 11.0745 27.9273 11.0718 27.892 11.0745C26.7072 11.1895 25.536 11.4061 24.3703 11.6414C22.0877 12.0986 19.805 12.5585 17.479 12.7643C17.2045 12.7884 16.93 12.8071 16.6529 12.8312C16.6474 12.7964 16.642 12.775 16.642 12.7536C16.5877 11.3766 16.6855 10.0103 16.9844 8.66275C17.055 8.33922 17.1909 8.02906 17.2752 7.70553C17.3186 7.53708 17.3349 7.35259 17.3213 7.17879C17.305 6.99965 17.1583 6.94617 17.0061 7.0558C16.9165 7.11997 16.8241 7.19751 16.7643 7.28842C16.5279 7.6467 16.2806 7.99964 16.0768 8.37665C15.3213 9.77237 14.7018 11.2296 14.0822 12.6868C13.979 12.9274 13.979 12.9274 13.7099 12.9061C12.536 12.8098 11.3621 12.7296 10.1936 12.6119C9.54145 12.5451 8.89742 12.4194 8.25068 12.3178C8.16373 12.3045 8.05503 12.2403 8.01155 12.3499C7.96808 12.4595 8.09036 12.4943 8.16373 12.5344C9.78873 13.398 11.305 14.4248 12.7534 15.5504C12.8322 15.6119 12.8458 15.6601 12.8023 15.751C12.4518 16.497 12.104 17.2483 11.7534 17.9943C11.7181 18.0692 11.6637 18.1387 11.6067 18.1975C10.9137 18.8954 10.2507 19.6226 9.64471 20.3954C9.20449 20.9568 8.82134 21.5478 8.60938 22.2296C8.56047 22.3847 8.52786 22.5504 8.51699 22.7135C8.50068 22.9515 8.61753 23.0397 8.85666 22.9889C8.90829 22.9782 8.96536 22.9649 9.00884 22.9355C9.14471 22.8392 9.29688 22.7563 9.40286 22.6333C9.68275 22.3125 9.96264 21.9889 10.2045 21.6413C10.9708 20.5371 11.5985 19.3526 12.2235 18.1654C12.2588 18.0986 12.2996 18.0317 12.3567 17.9863C12.9001 17.5558 13.4463 17.1306 13.9925 16.7055C14.017 16.6868 14.0442 16.6734 14.0768 16.6547C14.1692 16.7376 14.2616 16.8178 14.3512 16.9007C16.1474 18.521 17.7208 20.3258 18.9246 22.4274C18.9681 22.505 19.0279 22.5745 19.0931 22.636C19.2045 22.7429 19.354 22.8044 19.4898 22.7376C19.6474 22.6601 19.7833 22.5397 19.9165 22.4221C19.979 22.3659 19.9708 22.2804 19.9083 22.2055C19.8186 22.0932 19.7371 21.9756 19.6583 21.8579C18.4925 20.1226 17.6719 18.2349 17.1583 16.2189C17.0523 15.8018 16.9681 15.3793 16.873 14.9542C17.6637 14.5558 18.4409 14.1734 19.2589 13.882C19.7425 13.7109 20.2371 13.5879 20.7534 13.5692C21.4083 13.5451 22.0061 13.6708 22.4464 14.2189C22.4464 14.1975 22.4491 14.1841 22.4464 14.1734C22.4328 14.1413 22.4192 14.1066 22.4029 14.0745C22.1665 13.6039 21.7589 13.3766 21.2507 13.3098C20.68 13.2376 20.123 13.3285 19.5714 13.4595C18.6583 13.6734 17.8105 14.0531 16.979 14.4676C16.93 14.4916 16.8784 14.5157 16.8078 14.5504C16.7561 14.0504 16.7045 13.5799 16.6529 13.0932C16.7887 13.0852 16.9002 13.0772 17.0116 13.0718C17.3458 13.0558 17.6828 13.0478 18.0143 13.013ZM8.98438 22.5424C8.96536 22.5344 8.94905 22.529 8.93003 22.521C8.93275 22.4729 8.9246 22.4194 8.94362 22.374C8.99797 22.2376 9.0496 22.0986 9.1284 21.9756C9.69906 21.0504 10.2751 20.1306 11.0034 19.3151C11.036 19.2777 11.0686 19.2429 11.1012 19.2082C10.4817 20.3793 9.82677 21.521 8.98438 22.5424ZM15.9002 10.382C15.9165 10.3847 15.9328 10.3873 15.9491 10.3873C16.0306 11.2082 15.8974 12.0344 16.0061 12.8847C15.5741 12.8847 15.1773 12.8847 14.7724 12.8847C15.1447 12.0585 15.5224 11.2216 15.9002 10.382ZM9.80503 12.9515C11.1828 13.0077 12.5333 13.0611 13.9001 13.1173C13.6393 13.7483 13.3811 14.3713 13.1175 15.013C12.0768 14.2216 10.9925 13.5264 9.80503 12.9515ZM12.7969 17.0772C12.7915 17.0718 12.7833 17.0692 12.7779 17.0638C12.9518 16.7109 13.1257 16.3579 13.305 15.9943C13.4518 16.1173 13.5795 16.2242 13.7154 16.3392C13.4029 16.5905 13.1012 16.8339 12.7969 17.0772ZM14.3404 15.9274C14.3105 15.9435 14.2425 15.9355 14.2154 15.9114C14.0088 15.7456 13.8078 15.5718 13.5985 15.3927C13.9463 14.6494 14.2887 13.9141 14.6338 13.1788C14.6474 13.1494 14.6909 13.1146 14.7208 13.1146C15.1447 13.1093 15.5713 13.1119 16.0088 13.1119C16.0333 13.3419 16.0523 13.5718 16.0795 13.7991C16.1203 14.1253 16.1637 14.4515 16.2127 14.7777C16.2235 14.8499 16.2045 14.882 16.1447 14.9141C15.5415 15.2536 14.9436 15.5932 14.3404 15.9274ZM17.3078 19.1039C16.8757 18.62 16.4518 18.128 16.0088 17.6574C15.5632 17.1841 15.0958 16.7349 14.6203 16.2563C15.1692 15.9274 15.7154 15.5986 16.2887 15.2536C16.5333 16.5798 16.8703 17.8526 17.3078 19.1039Z" fill="white"/>
</svg>
