<svg width="30" height="30" viewBox="0 0 30 30" fill="none" xmlns="http://www.w3.org/2000/svg">
<g clip-path="url(#clip0_5322_2911)">
<path d="M15 30C23.2843 30 30 23.2843 30 15C30 6.71573 23.2843 0 15 0C6.71573 0 0 6.71573 0 15C0 23.2843 6.71573 30 15 30Z" fill="#4C7572"/>
<path d="M10.7792 21.962L11.5223 13.5646L11.5576 13.5615C11.6723 15.2785 11.8116 15.8539 11.9927 16.9063L12.8112 21.7842L15.9209 21.5122L17.6468 16.4116C18.0004 15.3658 18.2988 14.5029 18.6407 13.1199L18.676 13.1168L17.9528 21.3344L21.3276 21.0391L22.4807 7.76313L17.6924 8.18205L14.9346 17.3611L14.8993 17.3641L13.4695 8.5515L8.7872 8.96115L7.63415 22.2372L10.7792 21.962Z" fill="white"/>
</g>
<defs>
<clipPath id="clip0_5322_2911">
<rect width="30" height="30" fill="white"/>
</clipPath>
</defs>
</svg>
