<svg width="30" height="30" viewBox="0 0 30 30" fill="none" xmlns="http://www.w3.org/2000/svg">
<circle cx="15" cy="15" r="15" fill="#BFD68F"/>
<path d="M18.3778 26.001H9.6909V19.6139C8.6808 18.9549 6.00403 16.8766 5.54949 13.0747C4.99393 8.36044 8.6808 4.5586 12.3172 4.10238C16.2566 3.59546 19.8424 5.21758 21.004 8.05629C21.6101 9.47565 22.6202 11.554 23.4788 13.2268C24.2869 14.8489 24.7919 15.8121 24.9434 16.2683C24.9939 16.471 25.0949 16.6738 25.1454 16.8259C25.398 17.3835 25.6 17.8904 25.3475 18.3973C25.2465 18.6001 24.9939 18.8535 24.5394 18.9549C24.0343 19.0563 22.9737 18.9549 22.1656 18.8535C22.1656 19.4111 22.1656 20.1715 22.1151 20.9319C22.0141 22.1991 21.7111 23.5171 19.8929 23.6185C19.3879 23.6692 18.8323 23.6185 18.4283 23.6185L18.3778 26.001ZM11.2061 24.4803H16.9131V21.9457L17.7717 22.0471C17.7717 22.0471 18.9333 22.1991 19.7919 22.1485C20.297 22.0978 20.5495 22.0978 20.6 20.8812C20.701 19.5632 20.6 18.0932 20.6 18.0932L20.5495 17.1807L21.4586 17.3328C22.2667 17.4342 23.2263 17.5356 23.7818 17.5862C23.7818 17.5356 23.7818 17.5356 23.7313 17.4849C23.6303 17.2821 23.5798 17.0793 23.4788 16.8259C23.3778 16.471 22.7212 15.2544 22.1151 13.9872C21.2566 12.2637 20.196 10.1853 19.5899 8.71528C18.6808 6.53555 15.701 5.26827 12.5192 5.6738C9.58989 5.97795 6.61009 9.07012 7.06464 12.9227C7.51918 16.7752 10.7515 18.5494 10.802 18.5494L11.2061 18.7521V24.4803Z" fill="white"/>
<path d="M14.2878 17.2814L13.7828 16.8252C13.2272 16.3183 10.4999 13.8344 10.0454 12.5671C9.74237 11.7561 9.99489 10.8436 10.601 10.134C11.207 9.42428 12.0656 9.12013 12.9242 9.3229C13.5807 9.47497 14.0858 9.82981 14.4393 10.134C14.9444 9.72843 15.702 9.2722 16.51 9.2722C17.3686 9.2722 18.1767 9.82981 18.6313 10.6916C19.0353 11.4519 19.0353 12.3644 18.6313 13.0234C18.0252 13.9865 15.0959 16.5717 14.7929 16.8759L14.2878 17.2814ZM12.4696 10.8436C12.2171 10.8436 11.9646 10.9957 11.7626 11.1985C11.5605 11.4012 11.409 11.8068 11.51 12.1109C11.6616 12.6178 13.0252 14.0372 14.3383 15.2538C15.4999 14.1893 17.0656 12.6685 17.4191 12.1616C17.5201 12.0095 17.5201 11.6547 17.3686 11.4012C17.2171 11.1478 16.9141 10.8436 16.5605 10.7929C15.9545 10.7929 15.2979 11.5026 15.0959 11.7561L14.4393 12.5671L13.8838 11.7054C13.8838 11.7054 13.3787 10.9957 12.7222 10.8436C12.5706 10.8436 12.5201 10.8436 12.4696 10.8436Z" fill="white"/>
</svg>
