<svg width="30" height="30" viewBox="0 0 30 30" fill="none" xmlns="http://www.w3.org/2000/svg">
<circle cx="15" cy="15" r="15" fill="#307BC6"/>
<g clip-path="url(#clip0_5322_3438)">
<path d="M14.9107 7.36222C15.3974 6.60213 16.0435 6.19686 16.7206 6.05525C17.3635 5.92179 18.0227 6.03735 18.5907 6.32381C19.1506 6.60701 19.6308 7.05949 19.9254 7.60636C20.0361 7.81144 20.1223 8.02954 20.1777 8.25415C20.5081 8.24764 20.845 8.3046 21.1721 8.41528C21.7939 8.62524 22.3912 9.03703 22.8534 9.58227C23.3173 10.1308 23.6477 10.8225 23.7323 11.5891C23.7714 11.9423 23.7568 12.3101 23.6803 12.6861C24.0204 12.9905 24.3036 13.3339 24.5168 13.7001C24.8473 14.2649 25.0198 14.8915 25.0019 15.5279C24.984 16.1692 24.7724 16.8105 24.3362 17.4013C24.0611 17.774 23.6982 18.1239 23.2408 18.4381C23.2831 19.4179 22.9934 20.2968 22.5247 20.9771C21.9941 21.7454 21.2258 22.2662 20.4283 22.4062C20.2525 23.0881 19.8001 23.6887 19.2157 24.107C18.4768 24.636 17.5133 24.885 16.6327 24.6441C15.9833 24.4667 15.3925 24.037 14.9872 23.2802C14.4941 24.1119 13.817 24.5513 13.1073 24.6995C12.2561 24.8769 11.3756 24.6148 10.7115 24.0972C10.1809 23.6838 9.78215 23.1028 9.63892 22.4436C9.3606 22.4322 9.07902 22.3769 8.80396 22.2841C8.19686 22.079 7.61255 21.6819 7.15519 21.1529C6.69621 20.6239 6.36255 19.9582 6.25838 19.2177C6.20467 18.8319 6.21281 18.4283 6.29745 18.0133C5.9996 17.7431 5.74406 17.4387 5.54061 17.1083C5.18579 16.5435 4.99211 15.9055 5.00025 15.2496C5.00838 14.5888 5.21835 13.9182 5.67407 13.2965C5.93937 12.9351 6.28931 12.5901 6.73202 12.2743C6.72713 12.1539 6.72713 12.0334 6.73039 11.9146C6.7662 10.9495 7.12101 10.1015 7.64022 9.46834C8.17733 8.81242 8.89673 8.38273 9.63566 8.27856H9.63892C9.66496 8.16951 9.69588 8.06372 9.73495 7.95955C9.97258 7.31339 10.4625 6.76489 11.0631 6.41495C11.6669 6.06339 12.3928 5.90877 13.0992 6.05525C13.7779 6.19523 14.4241 6.60213 14.9107 7.36222ZM20.1402 9.56274C20.0328 9.91756 19.8407 10.274 19.5478 10.6207C19.3248 10.886 18.9293 10.9202 18.664 10.6972C18.3987 10.4742 18.3645 10.0787 18.5875 9.81339C19.0595 9.25187 19.0644 8.66268 18.8154 8.20206C18.6428 7.88305 18.358 7.61613 18.0227 7.44686C17.6956 7.28247 17.3261 7.21248 16.9745 7.28572C16.5058 7.38338 16.0517 7.74633 15.7376 8.48364C15.7424 8.51619 15.7457 8.55037 15.7457 8.58455V21.5549C15.7555 21.5859 15.7636 21.62 15.7701 21.6526C15.9508 22.7512 16.426 23.2802 16.9599 23.4267C17.453 23.5618 18.0211 23.4039 18.4736 23.0784C18.9179 22.7594 19.2353 22.2939 19.2385 21.804C19.2434 21.2457 18.8333 20.6142 17.7362 20.0543C17.4254 19.8964 17.3033 19.5155 17.4612 19.2047C17.6191 18.8938 17.9999 18.7717 18.3108 18.9296C19.5217 19.5481 20.1598 20.3066 20.3941 21.0732C20.7831 20.9462 21.1607 20.65 21.4472 20.2366C21.8069 19.7174 22.0103 19.0191 21.9127 18.2346C21.8557 17.9661 21.9729 17.6796 22.2219 17.5347C22.6972 17.2564 23.0471 16.9488 23.2848 16.6249C23.5549 16.2603 23.6851 15.873 23.6965 15.4921C23.7079 15.108 23.5973 14.7206 23.3857 14.3593C23.192 14.0289 22.9185 13.7245 22.5751 13.4674C22.3359 13.3079 22.2219 13.0002 22.3196 12.7154C22.4351 12.3736 22.4661 12.0416 22.4319 11.7291C22.3782 11.2375 22.1601 10.79 21.8557 10.427C21.5481 10.0624 21.1542 9.78898 20.7522 9.65389C20.5439 9.58227 20.3355 9.54972 20.1402 9.56274ZM9.69588 21.1415C9.94654 20.3538 10.6073 19.5676 11.8541 18.9312C12.165 18.7734 12.5442 18.8954 12.7037 19.2063C12.8616 19.5172 12.7395 19.8964 12.4286 20.0559C11.273 20.6467 10.8385 21.3238 10.8385 21.9146C10.8385 22.3752 11.1005 22.8066 11.483 23.1044C11.8704 23.4055 12.3717 23.5618 12.8437 23.4641C13.4329 23.342 14.0009 22.7968 14.2955 21.6103V9.12817C14.0009 7.94979 13.4329 7.40779 12.8453 7.28572C12.4579 7.20434 12.0461 7.29712 11.6946 7.50219C11.3398 7.7089 11.0533 8.02628 10.9182 8.39249C10.7376 8.88077 10.845 9.48136 11.4553 10.0461C11.7092 10.2821 11.7255 10.6776 11.4895 10.9316C11.2535 11.1855 10.858 11.2017 10.6041 10.9657C10.1288 10.5263 9.83586 10.0592 9.68937 9.59367C9.31503 9.68318 8.94556 9.93058 8.64771 10.2935C8.29777 10.72 8.05851 11.2961 8.0341 11.9586C8.02759 12.1344 8.03736 12.3199 8.0634 12.5103H8.06177C8.09595 12.7577 7.98527 13.0133 7.75904 13.1532C7.30168 13.4348 6.96314 13.7441 6.72713 14.0663C6.44068 14.4569 6.30884 14.8671 6.30396 15.2626C6.29907 15.6646 6.42277 16.0634 6.64413 16.4231C6.8313 16.7275 7.08846 17.0041 7.40096 17.2369C7.63534 17.398 7.74601 17.7008 7.64999 17.984C7.52629 18.3502 7.49862 18.7066 7.54582 19.037C7.61255 19.5139 7.83391 19.9485 8.13664 20.2984C8.441 20.65 8.82512 20.912 9.219 21.0455C9.3785 21.1041 9.53963 21.135 9.69588 21.1415ZM9.83911 12.2727C10.0865 12.0302 10.4836 12.0334 10.7278 12.2808C10.9703 12.5282 10.967 12.9254 10.7196 13.1695C10.1809 13.7001 9.89934 14.3837 9.87004 15.0836C9.84074 15.8046 10.0751 16.5452 10.5667 17.1555C10.7848 17.4257 10.7408 17.8212 10.4706 18.0393C10.2004 18.2574 9.80493 18.2135 9.58684 17.9433C8.89836 17.0904 8.57121 16.052 8.61353 15.0347C8.65747 14.0224 9.06275 13.036 9.83911 12.2727ZM18.7551 12.8765C18.4736 12.6731 18.4117 12.2792 18.6152 11.9976C18.8186 11.7161 19.2125 11.6526 19.4941 11.8577C19.6194 11.9488 19.7382 12.0448 19.8489 12.1457C20.6676 12.8847 21.1152 13.8596 21.1965 14.8687C21.2779 15.8681 20.9996 16.9 20.3697 17.7659C20.2769 17.8928 20.1777 18.0165 20.0702 18.1353C19.8375 18.3941 19.4404 18.4153 19.1816 18.1825C18.9228 17.9498 18.9016 17.5527 19.1344 17.2939C19.2125 17.2076 19.2841 17.1181 19.3508 17.0269C19.8001 16.4084 19.9986 15.676 19.9417 14.9664C19.8847 14.2681 19.5754 13.5927 19.0074 13.0816C18.9277 13.01 18.8446 12.9416 18.7551 12.8765Z" fill="white"/>
</g>
<defs>
<clipPath id="clip0_5322_3438">
<rect width="20" height="18.7549" fill="white" transform="translate(5 6)"/>
</clipPath>
</defs>
</svg>
