<svg width="30" height="30" viewBox="0 0 30 30" fill="none" xmlns="http://www.w3.org/2000/svg">
<circle cx="15" cy="15" r="15" fill="#1A91CC"/>
<path d="M7.52441 10.8916C8.08293 10.8916 8.59758 10.9591 9.06836 11.0947C9.53931 11.2304 9.94307 11.4655 10.2783 11.8008C10.6135 12.128 10.7803 12.5356 10.7803 13.0225C10.7803 13.8765 10.2818 14.4948 9.28418 14.8779C9.76304 15.0615 10.15 15.3333 10.4453 15.6924C10.7486 16.0515 10.9004 16.4507 10.9004 16.8896C10.9004 17.3845 10.7327 17.808 10.3975 18.1592C10.0702 18.5103 9.65886 18.7615 9.16406 18.9131C8.66933 19.0647 8.12283 19.1406 7.52441 19.1406C6.58252 19.1406 5.7797 18.9495 5.11719 18.5664C4.46266 18.1833 4.13574 17.624 4.13574 16.8896C4.13577 16.4507 4.28379 16.0515 4.5791 15.6924C4.88239 15.3333 5.27315 15.0615 5.75195 14.8779C4.76229 14.5028 4.26759 13.8845 4.26758 13.0225C4.26758 12.6553 4.35938 12.3321 4.54297 12.0527C4.7345 11.7655 4.98942 11.5415 5.30859 11.3818C5.62787 11.2142 5.97544 11.0906 6.35059 11.0107C6.72575 10.9309 7.11733 10.8916 7.52441 10.8916ZM14.9609 10.8916C15.7033 10.8916 16.3384 11.0911 16.8652 11.4902C17.3998 11.8892 17.7869 12.3917 18.0264 12.998C18.2658 13.6046 18.3857 14.2755 18.3857 15.0098C18.3857 15.5526 18.3136 16.0678 18.1699 16.5547C18.0343 17.0334 17.8271 17.4684 17.5479 17.8594C17.2765 18.2505 16.9167 18.5625 16.4697 18.7939C16.0308 19.0253 15.5275 19.1406 14.9609 19.1406C14.3944 19.1406 13.8873 19.0254 13.4404 18.7939C13.0015 18.5625 12.6426 18.2505 12.3633 17.8594C12.0919 17.4683 11.8839 17.0336 11.7402 16.5547C11.6045 16.0678 11.5371 15.5526 11.5371 15.0098C11.5371 14.2755 11.657 13.6046 11.8965 12.998C12.136 12.3916 12.5192 11.8892 13.0459 11.4902C13.5806 11.0912 14.2188 10.8917 14.9609 10.8916ZM22.4326 10.8916C23.175 10.8916 23.8101 11.0911 24.3369 11.4902C24.8458 11.8701 25.2195 12.3444 25.4609 12.9121V13.5869H24.5283V16.1865H25.4609V17.0693C25.3421 17.35 25.1952 17.6134 25.0195 17.8594C24.7481 18.2505 24.3884 18.5625 23.9414 18.7939C23.5025 19.0253 22.9992 19.1406 22.4326 19.1406C21.866 19.1406 21.359 19.0254 20.9121 18.7939C20.4731 18.5625 20.1143 18.2505 19.835 17.8594C19.5636 17.4683 19.3556 17.0336 19.2119 16.5547C19.0762 16.0678 19.0088 15.5526 19.0088 15.0098C19.0088 14.2755 19.1287 13.6046 19.3682 12.998C19.6076 12.3916 19.9909 11.8892 20.5176 11.4902C21.0523 11.0912 21.6904 10.8917 22.4326 10.8916ZM7.52441 15.8125C7.21311 15.8524 6.91707 15.9479 6.6377 16.0996C6.36649 16.2433 6.23047 16.427 6.23047 16.6504C6.23049 16.8817 6.35059 17.0692 6.58984 17.2129C6.82931 17.3566 7.14127 17.4287 7.52441 17.4287C7.8994 17.4287 8.2069 17.3565 8.44629 17.2129C8.69351 17.0692 8.81736 16.8817 8.81738 16.6504C8.81738 16.427 8.67761 16.2433 8.39844 16.0996C8.11919 15.948 7.82759 15.8524 7.52441 15.8125ZM14.9609 12.7109C14.0673 12.7112 13.6202 13.4776 13.6201 15.0098C13.6201 16.5501 14.0672 17.321 14.9609 17.3213C15.8549 17.3213 16.3027 16.5503 16.3027 15.0098C16.3027 13.4773 15.8549 12.7109 14.9609 12.7109ZM22.4326 12.7109C21.5389 12.7111 21.0918 13.4775 21.0918 15.0098C21.0918 16.5501 21.5388 17.3211 22.4326 17.3213C23.3266 17.3213 23.7734 16.5503 23.7734 15.0098C23.7734 13.4773 23.3266 12.7109 22.4326 12.7109ZM7.52441 12.6035C7.1732 12.6035 6.88935 12.6672 6.67383 12.7949C6.46649 12.9225 6.36245 13.098 6.3623 13.3213C6.3623 13.5208 6.48242 13.6886 6.72168 13.8242C6.96114 13.9519 7.22908 14.0363 7.52441 14.0762C7.81961 14.0362 8.08306 13.9519 8.31445 13.8242C8.5537 13.6886 8.67383 13.5208 8.67383 13.3213C8.67367 13.0981 8.56576 12.9225 8.35059 12.7949C8.14313 12.6673 7.86747 12.6036 7.52441 12.6035Z" fill="white"/>
<path d="M25.9325 16.73V15.7881H25V13.9419H25.9325V13H27.7881V13.9419H28.73V15.7881H27.7881V16.73H25.9325Z" fill="white" stroke="#1A91CC" stroke-width="0.753532"/>
</svg>
