<svg width="30" height="30" viewBox="0 0 30 30" fill="none" xmlns="http://www.w3.org/2000/svg">
<circle cx="15" cy="15" r="15" fill="#CC1A1A"/>
<path d="M14.8975 10.8916C15.6396 10.8917 16.2741 11.0912 16.8008 11.4902C17.3354 11.8892 17.7225 12.3917 17.9619 12.998C18.2014 13.6046 18.3213 14.2755 18.3213 15.0098C18.3213 15.5526 18.2491 16.0678 18.1055 16.5547C17.9698 17.0334 17.7626 17.4684 17.4834 17.8594C17.212 18.2505 16.8523 18.5625 16.4053 18.7939C15.9665 19.0252 15.4638 19.1406 14.8975 19.1406C14.3307 19.1406 13.823 19.0254 13.376 18.7939C12.9371 18.5625 12.5782 18.2504 12.2988 17.8594C12.0275 17.4683 11.8194 17.0335 11.6758 16.5547C11.5401 16.0678 11.4727 15.5526 11.4727 15.0098C11.4727 14.2755 11.5926 13.6046 11.832 12.998C12.0715 12.3916 12.4548 11.8892 12.9814 11.4902C13.5162 11.0911 14.1551 10.8916 14.8975 10.8916ZM22.3682 10.8916C23.1105 10.8916 23.7456 11.0911 24.2725 11.4902C24.807 11.8892 25.1942 12.3917 25.4336 12.998C25.4432 13.0224 25.4517 13.0477 25.4609 13.0723V13.5869H24.5283V16.1865H25.4609V16.9072C25.3324 17.2491 25.1641 17.5667 24.9551 17.8594C24.6837 18.2505 24.324 18.5625 23.877 18.7939C23.438 19.0253 22.9347 19.1406 22.3682 19.1406C21.8016 19.1406 21.2945 19.0254 20.8477 18.7939C20.4087 18.5625 20.0499 18.2505 19.7705 17.8594C19.4992 17.4683 19.2911 17.0335 19.1475 16.5547C19.0118 16.0678 18.9443 15.5526 18.9443 15.0098C18.9444 14.2755 19.0643 13.6046 19.3037 12.998C19.5432 12.3916 19.9265 11.8892 20.4531 11.4902C20.9878 11.0912 21.626 10.8917 22.3682 10.8916ZM7.38477 10.8916C8.33464 10.8916 9.10935 11.1342 9.70801 11.6211C10.3145 12.1079 10.6171 12.7508 10.6172 13.5488C10.6172 14.1474 10.3941 14.7303 9.94727 15.2969C9.50027 15.8636 8.76959 16.4987 7.75586 17.2012H10.6777V18.9971H4.41504V17.3926C6.18702 16.1155 7.31304 15.2537 7.79199 14.8066C8.2789 14.3596 8.52246 13.94 8.52246 13.5488C8.52234 13.2857 8.41456 13.0821 8.19922 12.9385C7.99172 12.7868 7.73212 12.711 7.4209 12.7109C6.62268 12.7109 5.91167 13.0023 5.28906 13.585L4.15234 12.2207C4.55943 11.7737 5.05029 11.4421 5.625 11.2266C6.19964 11.0031 6.78618 10.8916 7.38477 10.8916ZM14.8975 12.7109C14.0035 12.7109 13.5557 13.4773 13.5557 15.0098C13.5557 16.5503 14.0035 17.3213 14.8975 17.3213C15.7912 17.3211 16.2383 16.5501 16.2383 15.0098C16.2382 13.4776 15.7911 12.7112 14.8975 12.7109ZM22.3682 12.7109C21.4745 12.7112 21.0274 13.4776 21.0273 15.0098C21.0273 16.5501 21.4745 17.321 22.3682 17.3213C23.2622 17.3213 23.71 16.5503 23.71 15.0098C23.7099 13.4773 23.2621 12.7109 22.3682 12.7109Z" fill="white"/>
<path d="M25.9325 16.73V15.7881H25V13.9419H25.9325V13H27.7881V13.9419H28.73V15.7881H27.7881V16.73H25.9325Z" fill="white" stroke="#CC1A1A" stroke-width="0.753532"/>
</svg>
