<svg width="30" height="30" viewBox="0 0 30 30" fill="none" xmlns="http://www.w3.org/2000/svg">
<circle cx="15" cy="15" r="15" fill="#DD0F65"/>
<path d="M14.0721 20H5.70405V17.856C10.3281 14.512 11.1921 13.776 11.1921 12.704C11.1921 11.984 10.5041 11.6 9.72005 11.6C8.53605 11.6 7.64005 12.048 6.87205 12.768L5.35205 10.944C6.48805 9.69597 8.18405 9.16797 9.67205 9.16797C12.1841 9.16797 13.9921 10.576 13.9921 12.704C13.9921 14.352 12.8241 15.744 10.1681 17.6H14.0721V20Z" fill="white"/>
<path d="M19.3428 20.192C17.4548 20.192 16.0308 19.6 15.0548 18.64L16.5428 16.704C17.2788 17.392 18.2868 17.76 19.3108 17.76C20.4788 17.76 21.0548 17.184 21.0548 16.528C21.0548 15.808 20.4948 15.296 19.3908 15.296C18.5428 15.296 17.8708 15.536 17.2788 16.096L15.3748 15.632V9.32797H23.1188V11.728H18.1268V13.792C18.6388 13.296 19.4708 12.944 20.4148 12.944C22.2388 12.944 23.8548 14.256 23.8548 16.416C23.8548 18.72 22.1108 20.192 19.3428 20.192Z" fill="white"/>
<path d="M24 17V15.9899H23V14.0101H24V13H25.9899V14.0101H27V15.9899H25.9899V17H24Z" fill="white" stroke="#DD0F65" stroke-width="0.808081"/>
</svg>
