<svg width="30" height="30" viewBox="0 0 30 30" fill="none" xmlns="http://www.w3.org/2000/svg">
<circle cx="15" cy="15" r="15" fill="#515A75"/>
<path d="M6.3023 19.156C8.3823 19.156 9.7213 18.103 9.7213 16.608C9.7213 15.308 8.5773 14.619 7.6933 14.528C8.6553 14.359 9.5913 13.644 9.5913 12.552C9.5913 11.109 8.3433 10.199 6.3153 10.199C4.7943 10.199 3.7023 10.784 3.0003 11.577L3.9233 12.734C4.5343 12.149 5.2883 11.837 6.1333 11.837C7.0303 11.837 7.7453 12.175 7.7453 12.864C7.7453 13.501 7.0953 13.787 6.1333 13.787C5.8083 13.787 5.2103 13.787 5.0543 13.774V15.438C5.1843 15.425 5.7693 15.412 6.1333 15.412C7.3423 15.412 7.8753 15.724 7.8753 16.413C7.8753 17.063 7.2903 17.518 6.2373 17.518C5.3923 17.518 4.4433 17.154 3.8583 16.53L2.8833 17.765C3.5203 18.545 4.7163 19.156 6.3023 19.156Z" fill="white"/>
<path d="M14.2832 19.156C16.7662 19.156 17.8712 16.907 17.8712 14.671C17.8712 12.435 16.7662 10.199 14.2832 10.199C11.8002 10.199 10.6952 12.435 10.6952 14.671C10.6952 16.907 11.8002 19.156 14.2832 19.156ZM14.2832 17.518C13.0482 17.518 12.5802 16.27 12.5802 14.671C12.5802 13.072 13.0482 11.837 14.2832 11.837C15.5312 11.837 15.9862 13.072 15.9862 14.671C15.9862 16.27 15.5182 17.518 14.2832 17.518Z" fill="white"/>
<path d="M22.3447 19.156C24.8277 19.156 25.9327 16.907 25.9327 14.671C25.9327 12.435 24.8277 10.199 22.3447 10.199C19.8617 10.199 18.7567 12.435 18.7567 14.671C18.7567 16.907 19.8617 19.156 22.3447 19.156ZM22.3447 17.518C21.1097 17.518 20.6417 16.27 20.6417 14.671C20.6417 13.072 21.1097 11.837 22.3447 11.837C23.5927 11.837 24.0477 13.072 24.0477 14.671C24.0477 16.27 23.5797 17.518 22.3447 17.518Z" fill="white"/>
<path d="M26.26 16.96V15.96H25.27V14H26.26V13H28.23V14H29.23V15.96H28.23V16.96H26.26Z" fill="white" stroke="#515A75"/>
</svg>
