<svg width="30" height="30" viewBox="0 0 30 30" fill="none" xmlns="http://www.w3.org/2000/svg">
<circle cx="15" cy="15" r="15" fill="#1ACCBD"/>
<path d="M14.9551 10.8916C15.6974 10.8916 16.3326 11.0911 16.8594 11.4902C17.3939 11.8892 17.7811 12.3917 18.0205 12.998C18.2599 13.6046 18.3799 14.2755 18.3799 15.0098C18.3799 15.5526 18.3077 16.0678 18.1641 16.5547C18.0284 17.0334 17.8212 17.4684 17.542 17.8594C17.2706 18.2505 16.9109 18.5625 16.4639 18.7939C16.0249 19.0253 15.5216 19.1406 14.9551 19.1406C14.3885 19.1406 13.8815 19.0254 13.4346 18.7939C12.9956 18.5625 12.6368 18.2505 12.3574 17.8594C12.0861 17.4683 11.878 17.0335 11.7344 16.5547C11.5987 16.0678 11.5312 15.5526 11.5312 15.0098C11.5313 14.2755 11.6512 13.6046 11.8906 12.998C12.1301 12.3916 12.5134 11.8892 13.04 11.4902C13.5747 11.0912 14.2129 10.8917 14.9551 10.8916ZM22.4268 10.8916C23.1691 10.8916 23.8042 11.0911 24.3311 11.4902C24.844 11.8731 25.2197 12.3519 25.4609 12.9258V13.5869H24.5283V16.1865H25.4609V17.0547C25.3411 17.3408 25.1923 17.6092 25.0137 17.8594C24.7423 18.2505 24.3825 18.5625 23.9355 18.7939C23.4966 19.0253 22.9934 19.1406 22.4268 19.1406C21.8602 19.1406 21.3532 19.0254 20.9062 18.7939C20.4672 18.5625 20.1085 18.2505 19.8291 17.8594C19.5577 17.4683 19.3497 17.0336 19.2061 16.5547C19.0704 16.0678 19.0029 15.5526 19.0029 15.0098C19.003 14.2755 19.1229 13.6046 19.3623 12.998C19.6018 12.3916 19.985 11.8892 20.5117 11.4902C21.0464 11.0912 21.6846 10.8917 22.4268 10.8916ZM7.2666 10.8789C8.47173 10.8789 9.37775 11.2622 9.98438 12.0283C10.591 12.7866 10.8945 13.7768 10.8945 14.998C10.8945 16.2672 10.5395 17.2733 9.8291 18.0156C9.11872 18.7579 8.15656 19.1289 6.94336 19.1289C5.96954 19.1289 5.16299 18.8732 4.52441 18.3623L5.41016 16.7822C5.84119 17.1334 6.35268 17.3086 6.94336 17.3086C7.50191 17.3086 7.95273 17.1332 8.2959 16.7822C8.63905 16.4231 8.81047 15.992 8.81055 15.4893V15.3936C8.61102 15.6647 8.33163 15.888 7.97266 16.0635C7.62148 16.2311 7.25045 16.3154 6.85938 16.3154C6.10108 16.3154 5.44627 16.0793 4.89551 15.6084C4.35291 15.1375 4.08203 14.4947 4.08203 13.6807C4.0821 12.8588 4.38109 12.1887 4.97949 11.6699C5.57815 11.1431 6.34067 10.8789 7.2666 10.8789ZM14.9551 12.7109C14.0614 12.7112 13.6143 13.4776 13.6143 15.0098C13.6143 16.5501 14.0614 17.321 14.9551 17.3213C15.8491 17.3213 16.2969 16.5503 16.2969 15.0098C16.2968 13.4773 15.849 12.7109 14.9551 12.7109ZM22.4268 12.7109C21.533 12.7111 21.086 13.4775 21.0859 15.0098C21.0859 16.5501 21.533 17.3211 22.4268 17.3213C23.3208 17.3213 23.7686 16.5503 23.7686 15.0098C23.7685 13.4773 23.3207 12.7109 22.4268 12.7109ZM7.38574 12.6992C7.02676 12.6993 6.73512 12.7911 6.51172 12.9746C6.28842 13.1581 6.17676 13.37 6.17676 13.6094C6.17683 13.9204 6.30448 14.1558 6.55957 14.3154C6.82291 14.475 7.12662 14.5546 7.46973 14.5547C8.02825 14.5547 8.47534 14.3755 8.81055 14.0166C8.7866 13.6494 8.65548 13.3375 8.41602 13.082C8.18453 12.8267 7.84067 12.6992 7.38574 12.6992Z" fill="white"/>
<path d="M25.9325 16.73V15.7881H25V13.9419H25.9325V13H27.7881V13.9419H28.73V15.7881H27.7881V16.73H25.9325Z" fill="white" stroke="#1ACCBD" stroke-width="0.753532"/>
</svg>
