<svg width="30" height="30" viewBox="0 0 30 30" fill="none" xmlns="http://www.w3.org/2000/svg">
<circle cx="15" cy="15" r="15" fill="#76CC1A"/>
<path d="M14.1104 10.8916C14.8527 10.8916 15.4878 11.0911 16.0146 11.4902C16.5491 11.8892 16.9364 12.3917 17.1758 12.998C17.4152 13.6046 17.5351 14.2755 17.5352 15.0098C17.5352 15.5526 17.463 16.0678 17.3193 16.5547C17.1837 17.0334 16.9765 17.4684 16.6973 17.8594C16.4259 18.2505 16.0661 18.5625 15.6191 18.7939C15.1802 19.0253 14.677 19.1406 14.1104 19.1406C13.5437 19.1406 13.0368 19.0254 12.5898 18.7939C12.1508 18.5625 11.7921 18.2505 11.5127 17.8594C11.2413 17.4683 11.0333 17.0336 10.8896 16.5547C10.754 16.0678 10.6865 15.5526 10.6865 15.0098C10.6865 14.2755 10.8065 13.6046 11.0459 12.998C11.2854 12.3916 11.6686 11.8892 12.1953 11.4902C12.73 11.0912 13.3682 10.8916 14.1104 10.8916ZM21.582 10.8916C22.3244 10.8916 22.9595 11.0911 23.4863 11.4902C24.0208 11.8892 24.4081 12.3917 24.6475 12.998C24.7224 13.1878 24.7835 13.3847 24.835 13.5869H24.5283V16.1865H24.8848C24.8579 16.3109 24.8267 16.4337 24.791 16.5547C24.6553 17.0336 24.4473 17.4683 24.168 17.8594C23.8966 18.2505 23.5378 18.5625 23.0908 18.7939C22.6518 19.0254 22.1487 19.1406 21.582 19.1406C21.0154 19.1406 20.5085 19.0254 20.0615 18.7939C19.6225 18.5625 19.2637 18.2505 18.9844 17.8594C18.713 17.4683 18.505 17.0336 18.3613 16.5547C18.2256 16.0678 18.1582 15.5526 18.1582 15.0098C18.1582 14.2755 18.2772 13.6046 18.5166 12.998C18.756 12.3917 19.1395 11.8892 19.666 11.4902C20.2008 11.0911 20.8397 10.8916 21.582 10.8916ZM10.1885 12.4355L7.375 18.9971H5.1123L7.81738 12.8066H3.92676V11.0107H10.1885V12.4355ZM14.1104 12.7109C13.2166 12.7111 12.7696 13.4775 12.7695 15.0098C12.7695 16.5502 13.2165 17.3212 14.1104 17.3213C15.0044 17.3213 15.4512 16.5503 15.4512 15.0098C15.4511 13.4773 15.0043 12.7109 14.1104 12.7109ZM21.582 12.7109C20.6882 12.711 20.2413 13.4774 20.2412 15.0098C20.2412 16.5503 20.6881 17.3212 21.582 17.3213C22.476 17.3213 22.9229 16.5503 22.9229 15.0098C22.9228 13.4773 22.476 12.7109 21.582 12.7109Z" fill="white"/>
<path d="M25.9325 16.73V15.7881H25V13.9419H25.9325V13H27.7881V13.9419H28.73V15.7881H27.7881V16.73H25.9325Z" fill="white" stroke="#76CC1A" stroke-width="0.753532"/>
</svg>
