<svg width="30" height="30" viewBox="0 0 30 30" fill="none" xmlns="http://www.w3.org/2000/svg">
<circle cx="15" cy="15" r="15" fill="#0322F4"/>
<path d="M9.94376 20.192C8.05576 20.192 6.63176 19.6 5.65576 18.64L7.14376 16.704C7.87976 17.392 8.88776 17.76 9.91176 17.76C11.0798 17.76 11.6558 17.184 11.6558 16.528C11.6558 15.808 11.0958 15.296 9.99176 15.296C9.14376 15.296 8.47176 15.536 7.87976 16.096L5.97576 15.632V9.32797H13.7198V11.728H8.72776V13.792C9.23976 13.296 10.0718 12.944 11.0158 12.944C12.8398 12.944 14.4558 14.256 14.4558 16.416C14.4558 18.72 12.7118 20.192 9.94376 20.192Z" fill="white"/>
<path d="M19.5468 20.192C16.4268 20.192 14.9708 17.488 14.9708 14.672C14.9708 11.856 16.4268 9.16797 19.5468 9.16797C22.6668 9.16797 24.1228 11.856 24.1228 14.672C24.1228 17.488 22.6668 20.192 19.5468 20.192ZM19.5468 17.76C20.8268 17.76 21.3388 16.56 21.3388 14.672C21.3388 12.784 20.8268 11.6 19.5468 11.6C18.2668 11.6 17.7548 12.784 17.7548 14.672C17.7548 16.56 18.2668 17.76 19.5468 17.76Z" fill="white"/>
<path d="M24 17V15.9899H23V14.0101H24V13H25.9899V14.0101H27V15.9899H25.9899V17H24Z" fill="white" stroke="#0322F4" stroke-width="0.808081"/>
</svg>
