<svg width="30" height="30" viewBox="0 0 30 30" fill="none" xmlns="http://www.w3.org/2000/svg">
<circle cx="15" cy="15" r="15" fill="#BEB209"/>
<path d="M8.09277 10.8916C9.05855 10.8916 9.86894 11.1464 10.5234 11.6572L9.625 13.2383C9.194 12.8871 8.68339 12.711 8.09277 12.7109C7.58994 12.7109 7.15053 12.8824 6.77539 13.2256C6.40821 13.5608 6.22461 13.9964 6.22461 14.5312V14.627C6.4241 14.3556 6.69971 14.1364 7.05078 13.9688C7.40998 13.8011 7.78937 13.7168 8.18848 13.7168C8.95452 13.7168 9.60494 13.9522 10.1396 14.4229C10.6824 14.8858 10.9541 15.5248 10.9541 16.3389C10.9541 17.1609 10.6551 17.8355 10.0566 18.3623C9.45802 18.8811 8.69538 19.1406 7.76953 19.1406C6.56423 19.1406 5.6584 18.7612 5.05176 18.0029C4.44515 17.2367 4.1416 16.2427 4.1416 15.0215C4.14169 13.7526 4.49678 12.7471 5.20703 12.0049C5.91744 11.2625 6.87949 10.8916 8.09277 10.8916ZM14.9551 10.8916C15.6974 10.8916 16.3326 11.0911 16.8594 11.4902C17.3939 11.8892 17.7811 12.3917 18.0205 12.998C18.2599 13.6046 18.3799 14.2755 18.3799 15.0098C18.3799 15.5526 18.3077 16.0678 18.1641 16.5547C18.0284 17.0334 17.8212 17.4684 17.542 17.8594C17.2706 18.2505 16.9109 18.5625 16.4639 18.7939C16.0249 19.0253 15.5216 19.1406 14.9551 19.1406C14.3885 19.1406 13.8815 19.0254 13.4346 18.7939C12.9956 18.5625 12.6368 18.2505 12.3574 17.8594C12.0861 17.4683 11.878 17.0335 11.7344 16.5547C11.5987 16.0678 11.5312 15.5526 11.5312 15.0098C11.5313 14.2755 11.6512 13.6046 11.8906 12.998C12.1301 12.3916 12.5134 11.8892 13.04 11.4902C13.5747 11.0912 14.2129 10.8917 14.9551 10.8916ZM22.4268 10.8916C23.1691 10.8916 23.8042 11.0911 24.3311 11.4902C24.844 11.8731 25.2197 12.3519 25.4609 12.9258V13.5869H24.5283V16.1865H25.4609V17.0547C25.3411 17.3408 25.1923 17.6092 25.0137 17.8594C24.7423 18.2505 24.3825 18.5625 23.9355 18.7939C23.4966 19.0253 22.9934 19.1406 22.4268 19.1406C21.8602 19.1406 21.3532 19.0254 20.9062 18.7939C20.4672 18.5625 20.1085 18.2505 19.8291 17.8594C19.5577 17.4683 19.3497 17.0336 19.2061 16.5547C19.0704 16.0678 19.0029 15.5526 19.0029 15.0098C19.003 14.2755 19.1229 13.6046 19.3623 12.998C19.6018 12.3916 19.985 11.8892 20.5117 11.4902C21.0464 11.0912 21.6846 10.8917 22.4268 10.8916ZM7.56543 15.4648C7.02281 15.4649 6.57574 15.6448 6.22461 16.0039C6.25656 16.371 6.38866 16.6821 6.62012 16.9375C6.8516 17.1929 7.1907 17.3213 7.6377 17.3213C8.00465 17.3213 8.29999 17.2293 8.52344 17.0459C8.75483 16.8624 8.87101 16.6505 8.87109 16.4111C8.87109 16.0998 8.739 15.8637 8.47559 15.7041C8.22022 15.5446 7.91651 15.4648 7.56543 15.4648ZM14.9551 12.7109C14.0614 12.7112 13.6143 13.4776 13.6143 15.0098C13.6143 16.5501 14.0614 17.321 14.9551 17.3213C15.8491 17.3213 16.2969 16.5503 16.2969 15.0098C16.2968 13.4773 15.849 12.7109 14.9551 12.7109ZM22.4268 12.7109C21.533 12.7111 21.086 13.4775 21.0859 15.0098C21.0859 16.5501 21.533 17.3211 22.4268 17.3213C23.3208 17.3213 23.7686 16.5503 23.7686 15.0098C23.7685 13.4773 23.3207 12.7109 22.4268 12.7109Z" fill="white"/>
<path d="M25.9325 16.73V15.7881H25V13.9419H25.9325V13H27.7881V13.9419H28.73V15.7881H27.7881V16.73H25.9325Z" fill="white" stroke="#BEB209" stroke-width="0.753532"/>
</svg>
