<svg width="30" height="30" viewBox="0 0 30 30" fill="none" xmlns="http://www.w3.org/2000/svg">
<circle cx="15" cy="15" r="15" fill="#CC881A"/>
<path d="M14.9492 10.8916C15.6916 10.8916 16.3267 11.0911 16.8535 11.4902C17.3881 11.8892 17.7752 12.3917 18.0146 12.998C18.2541 13.6046 18.374 14.2755 18.374 15.0098C18.374 15.5526 18.3019 16.0678 18.1582 16.5547C18.0225 17.0334 17.8154 17.4684 17.5361 17.8594C17.2647 18.2505 16.905 18.5625 16.458 18.7939C16.0191 19.0253 15.5158 19.1406 14.9492 19.1406C14.3827 19.1406 13.8756 19.0254 13.4287 18.7939C12.9897 18.5625 12.6309 18.2505 12.3516 17.8594C12.0802 17.4683 11.8722 17.0335 11.7285 16.5547C11.5928 16.0678 11.5254 15.5526 11.5254 15.0098C11.5254 14.2755 11.6453 13.6046 11.8848 12.998C12.1242 12.3916 12.5075 11.8892 13.0342 11.4902C13.5689 11.0912 14.2071 10.8917 14.9492 10.8916ZM22.4209 10.8916C23.1632 10.8916 23.7984 11.0911 24.3252 11.4902C24.8422 11.8762 25.22 12.3595 25.4609 12.9395V13.5869H24.5283V16.1865H25.4609V17.04C25.34 17.3316 25.1895 17.605 25.0078 17.8594C24.7364 18.2505 24.3767 18.5625 23.9297 18.7939C23.4907 19.0253 22.9875 19.1406 22.4209 19.1406C21.8543 19.1406 21.3473 19.0254 20.9004 18.7939C20.4614 18.5625 20.1026 18.2505 19.8232 17.8594C19.5519 17.4683 19.3439 17.0336 19.2002 16.5547C19.0645 16.0678 18.9971 15.5526 18.9971 15.0098C18.9971 14.2755 19.117 13.6046 19.3564 12.998C19.5959 12.3916 19.9792 11.8892 20.5059 11.4902C21.0406 11.0912 21.6787 10.8917 22.4209 10.8916ZM9.99023 15.7285H10.96V17.5361H9.99023V18.9971H7.91895V17.5361H4.09961V15.9316L7.12891 11.0107H9.99023V15.7285ZM14.9492 12.7109C14.0556 12.7112 13.6084 13.4776 13.6084 15.0098C13.6084 16.5501 14.0555 17.321 14.9492 17.3213C15.8432 17.3213 16.291 16.5503 16.291 15.0098C16.291 13.4773 15.8432 12.7109 14.9492 12.7109ZM22.4209 12.7109C21.5272 12.7111 21.0801 13.4775 21.0801 15.0098C21.0801 16.5501 21.5271 17.3211 22.4209 17.3213C23.3149 17.3213 23.7627 16.5503 23.7627 15.0098C23.7627 13.4773 23.3149 12.7109 22.4209 12.7109ZM6.09863 15.7285H7.91895V12.8066L6.09863 15.7285Z" fill="white"/>
<path d="M25.9325 16.73V15.7881H25V13.9419H25.9325V13H27.7881V13.9419H28.73V15.7881H27.7881V16.73H25.9325Z" fill="white" stroke="#CC881A" stroke-width="0.753532"/>
</svg>
