<svg width="30" height="30" viewBox="0 0 30 30" fill="none" xmlns="http://www.w3.org/2000/svg">
<circle cx="15" cy="15" r="15" fill="#1ACCBD"/>
<path d="M10.7124 19V17.2H7.78436C9.77636 15.808 10.6524 14.764 10.6524 13.528C10.6524 11.932 9.29636 10.876 7.41236 10.876C6.29636 10.876 5.02436 11.272 4.17236 12.208L5.31236 13.576C5.88836 13.036 6.56036 12.7 7.44836 12.7C8.03636 12.7 8.55236 12.988 8.55236 13.528C8.55236 14.332 7.90436 14.884 4.43636 17.392V19H10.7124Z" fill="white"/>
<path d="M14.9054 19.144C16.9814 19.144 18.2894 18.04 18.2894 16.312C18.2894 14.692 17.0774 13.708 15.7094 13.708C15.0014 13.708 14.3774 13.972 13.9934 14.344V12.796H17.7374V10.996H11.9294V15.724L13.3574 16.072C13.8014 15.652 14.3054 15.472 14.9414 15.472C15.7694 15.472 16.1894 15.856 16.1894 16.396C16.1894 16.888 15.7574 17.32 14.8814 17.32C14.1134 17.32 13.3574 17.044 12.8054 16.528L11.6894 17.98C12.4214 18.7 13.4894 19.144 14.9054 19.144Z" fill="white"/>
<path d="M22.3477 19.144C24.6877 19.144 25.7797 17.116 25.7797 15.004C25.7797 12.892 24.6877 10.876 22.3477 10.876C20.0077 10.876 18.9157 12.892 18.9157 15.004C18.9157 17.116 20.0077 19.144 22.3477 19.144ZM22.3477 17.32C21.3877 17.32 21.0037 16.42 21.0037 15.004C21.0037 13.588 21.3877 12.7 22.3477 12.7C23.3077 12.7 23.6917 13.588 23.6917 15.004C23.6917 16.42 23.3077 17.32 22.3477 17.32Z" fill="white"/>
<path d="M25.9325 16.73V15.7881H25V13.9419H25.9325V13H27.7881V13.9419H28.73V15.7881H27.7881V16.73H25.9325Z" fill="white" stroke="#1ACCBD" stroke-width="0.753532"/>
</svg>
