<svg width="30" height="30" viewBox="0 0 30 30" fill="none" xmlns="http://www.w3.org/2000/svg">
<circle cx="15" cy="15" r="15" fill="#4C7572"/>
<path d="M13.3653 6.00005L8.73205 8.67505C7.77547 9.22733 7.44772 10.4505 8 11.4071L14.5 22.6654C15.0523 23.622 16.2755 23.9498 17.2321 23.3975L21.8653 20.7225C22.8219 20.1702 23.1496 18.947 22.5973 17.9904L16.0973 6.7321C15.5451 5.77551 14.3219 5.44776 13.3653 6.00005Z" fill="white"/>
<path d="M13.5989 11.7542C14.2087 11.4021 14.4177 10.6224 14.0656 10.0125C13.7135 9.40271 12.9337 9.19377 12.3239 9.54585C11.7141 9.89793 11.5051 10.6777 11.8572 11.2875C12.2093 11.8974 12.9891 12.1063 13.5989 11.7542Z" fill="#4C7572"/>
</svg>
