<svg width="30" height="30" viewBox="0 0 30 30" fill="none" xmlns="http://www.w3.org/2000/svg">
<circle cx="15" cy="15" r="15" fill="#0029FF"/>
<path d="M4.68046 10.25H2.27246V19H4.35846V13.33L8.04046 19.084H10.4065V10.25H8.32046V15.934L4.68046 10.25Z" fill="white"/>
<path d="M18.6236 17.208H14.4096V15.5H17.7976V13.722H14.4096V12.042H18.6236V10.25H12.2256V19H18.6236V17.208Z" fill="white"/>
<path d="M27.7996 10.25H25.5876V15.416C25.5876 16.76 25.0416 17.334 23.9916 17.334C22.8296 17.334 22.2976 16.648 22.2976 15.332V10.25H20.0856V15.626C20.0856 18.09 21.6536 19.21 23.9356 19.21C26.2876 19.21 27.7996 17.964 27.7996 15.43V10.25Z" fill="white"/>
</svg>
