<svg width="30" height="30" viewBox="0 0 30 30" fill="none" xmlns="http://www.w3.org/2000/svg">
<circle cx="15" cy="15" r="15" fill="#B20000"/>
<g clip-path="url(#clip0_5322_3644)">
<path fill-rule="evenodd" clip-rule="evenodd" d="M15.2248 11.3865C15.7298 11.3866 16.2298 11.4866 16.6964 11.6799C17.1631 11.8732 17.5878 12.1563 17.945 12.5135C18.302 12.8706 18.5854 13.2945 18.7787 13.761C18.972 14.2277 19.0708 14.7286 19.0708 15.2338C19.0708 15.7388 18.9719 16.2389 18.7787 16.7054C18.5853 17.1722 18.3023 17.5969 17.945 17.9541C17.5878 18.3113 17.1631 18.5944 16.6964 18.7877C16.2298 18.9809 15.7298 19.0798 15.2248 19.0799C14.2046 19.0799 13.2259 18.6753 12.5045 17.9541C11.7831 17.2327 11.3776 16.2539 11.3775 15.2338C11.3775 14.2136 11.7831 13.2349 12.5045 12.5135C13.2259 11.7921 14.2045 11.3865 15.2248 11.3865ZM15.2248 13.0967C14.658 13.0967 14.1146 13.322 13.7138 13.7228C13.313 14.1236 13.0877 14.667 13.0877 15.2338C13.0877 15.8005 13.313 16.3441 13.7138 16.7448C14.1145 17.1454 14.6581 17.3709 15.2248 17.3709C15.5053 17.3709 15.7837 17.3149 16.0429 17.2075C16.3019 17.1001 16.5375 16.9431 16.7358 16.7448C16.9341 16.5465 17.0911 16.311 17.1985 16.0519C17.3059 15.7927 17.3618 15.5144 17.3619 15.2338C17.3619 14.9532 17.3059 14.675 17.1985 14.4157C17.0911 14.1566 16.9341 13.9211 16.7358 13.7228C16.5374 13.5244 16.302 13.3663 16.0429 13.2589C15.7837 13.1515 15.5053 13.0967 15.2248 13.0967Z" fill="white"/>
<path d="M10.4008 11.4664C10.5112 11.5007 10.6134 11.558 10.7001 11.6346C10.7868 11.7112 10.8565 11.8058 10.904 11.9113C10.9516 12.0169 10.9768 12.1317 10.9768 12.2476C10.9768 12.3634 10.9516 12.4782 10.904 12.5839C10.8565 12.6894 10.7868 12.7839 10.7001 12.8606C10.6134 12.9372 10.5113 12.9944 10.4008 13.0287C10.2902 13.063 10.1734 13.0738 10.0585 13.0597C9.94358 13.0738 9.8268 13.063 9.71623 13.0287C9.60569 12.9944 9.50359 12.9373 9.41689 12.8606C9.33013 12.7838 9.26055 12.6895 9.21296 12.5839C9.16536 12.4782 9.1414 12.3634 9.1414 12.2476C9.14142 12.1317 9.16538 12.0169 9.21296 11.9113C9.26055 11.8057 9.33018 11.7113 9.41689 11.6346C9.50358 11.5579 9.60571 11.5008 9.71623 11.4664C9.82679 11.4321 9.94359 11.4213 10.0585 11.4354C10.1734 11.4213 10.2902 11.4321 10.4008 11.4664Z" fill="white"/>
<path fill-rule="evenodd" clip-rule="evenodd" d="M16.9266 6.50171C17.321 6.5037 17.7052 6.62643 18.0285 6.85233C18.3512 7.07784 18.5981 7.39587 18.7357 7.76465L19.078 8.67579H20.9277C21.7309 8.67583 22.5016 8.99513 23.0696 9.56307C23.6372 10.1309 23.9555 10.9009 23.9557 11.7038V18.7627C23.9557 19.5658 23.6374 20.3366 23.0696 20.9045C22.5016 21.4725 21.7309 21.7918 20.9277 21.7918H9.52184C8.71864 21.7918 7.94792 21.4725 7.37996 20.9045C6.81199 20.3366 6.49268 19.5659 6.49268 18.7627V11.7038C6.49281 10.9008 6.81222 10.1309 7.37996 9.56307C7.94793 8.9951 8.7186 8.67579 9.52184 8.67579H11.3715L11.7126 7.76465C11.8502 7.39588 12.0972 7.07787 12.4198 6.85233C12.7433 6.62626 13.1283 6.5036 13.523 6.50171H16.9266ZM13.4621 8.22261C13.4399 8.22966 13.4183 8.2401 13.3989 8.25361C13.3604 8.28061 13.3306 8.31926 13.3142 8.36333V8.36572L12.7645 9.83021C12.6394 10.1638 12.3204 10.3858 11.9642 10.386H9.52184C9.17224 10.386 8.83654 10.5241 8.58924 10.7712C8.34202 11.0184 8.20298 11.3541 8.20284 11.7038V18.7627C8.20284 19.1124 8.34189 19.4479 8.58924 19.6953C8.83657 19.9426 9.17208 20.0816 9.52184 20.0816H20.9277C21.2774 20.0816 21.613 19.9426 21.8603 19.6953C22.1075 19.4479 22.2467 19.1124 22.2467 18.7627V11.7038C22.2466 11.3541 22.1075 11.0184 21.8603 10.7712C21.613 10.524 21.2774 10.386 20.9277 10.386H18.4853C18.129 10.386 17.8102 10.1639 17.6851 9.83021L17.1353 8.36572L17.1341 8.36333C17.1177 8.31912 17.0881 8.28063 17.0494 8.25361C17.0302 8.24023 17.0094 8.22964 16.9874 8.22261L16.9182 8.21187H13.5313L13.4621 8.22261Z" fill="white"/>
<path d="M20.0967 26.212C23.469 26.212 26.2028 23.4782 26.2028 20.106C26.2028 16.7338 23.469 14 20.0967 14C16.7245 14 13.9907 16.7338 13.9907 20.106C13.9907 23.4782 16.7245 26.212 20.0967 26.212Z" fill="#B20000"/>
<path d="M20.0968 24.0748C22.2888 24.0748 24.0658 22.2978 24.0658 20.1059C24.0658 17.9139 22.2888 16.137 20.0968 16.137C17.9049 16.137 16.1279 17.9139 16.1279 20.1059C16.1279 22.2978 17.9049 24.0748 20.0968 24.0748Z" stroke="white" stroke-width="1.83181" stroke-linecap="round" stroke-linejoin="round"/>
<path d="M17.2905 22.9122L22.8959 17.3069" stroke="white" stroke-width="1.83181" stroke-linecap="round" stroke-linejoin="round"/>
</g>
<defs>
<clipPath id="clip0_5322_3644">
<rect width="20" height="22" fill="white" transform="translate(5 3)"/>
</clipPath>
</defs>
</svg>
