<svg width="30" height="30" viewBox="0 0 30 30" fill="none" xmlns="http://www.w3.org/2000/svg">
<circle cx="15" cy="15" r="15" fill="#F7C14B"/>
<path d="M22.2752 10.9137L17.4873 5.68359H7.73291V24.1633H22.2752V10.9137ZM19.962 10.9137H17.4873V8.20936L19.962 10.9137ZM20.5743 22.4625H9.43376V7.37594H15.7864V12.6146H20.5658L20.5743 22.4625Z" fill="white"/>
<path d="M11.3729 14.3916C11.1473 14.3916 10.931 14.4812 10.7715 14.6407C10.6121 14.8002 10.5225 15.0165 10.5225 15.242C10.5225 15.4676 10.6121 15.6839 10.7715 15.8434C10.931 16.0029 11.1473 16.0925 11.3729 16.0925H15.676C15.9016 16.0925 16.1179 16.0029 16.2774 15.8434C16.4369 15.6839 16.5265 15.4676 16.5265 15.242C16.5265 15.0165 16.4369 14.8002 16.2774 14.6407C16.1179 14.4812 15.9016 14.3916 15.676 14.3916H11.3729Z" fill="white"/>
<path d="M10.5225 18.6356C10.5225 18.8611 10.6121 19.0774 10.7715 19.2369C10.931 19.3964 11.1473 19.486 11.3729 19.486H17.5555C17.781 19.486 17.9973 19.3964 18.1568 19.2369C18.3163 19.0774 18.4059 18.8611 18.4059 18.6356C18.4059 18.41 18.3163 18.1937 18.1568 18.0342C17.9973 17.8748 17.781 17.7852 17.5555 17.7852H11.3729C11.1473 17.7852 10.931 17.8748 10.7715 18.0342C10.6121 18.1937 10.5225 18.41 10.5225 18.6356Z" fill="white"/>
</svg>
