<svg width="30" height="30" viewBox="0 0 30 30" fill="none" xmlns="http://www.w3.org/2000/svg">
<circle cx="15" cy="15" r="15" fill="#F7C14B"/>
<path d="M22.2747 10.9137L17.4868 5.68359H7.73242V24.1633H22.2747V10.9137ZM19.9615 10.9137H17.4868V8.20936L19.9615 10.9137ZM20.5738 22.4625H9.43327V7.37594H15.7859V12.6146H20.5653L20.5738 22.4625Z" fill="white"/>
<path d="M11.3719 14.3916C11.1464 14.3916 10.9301 14.4812 10.7706 14.6407C10.6111 14.8002 10.5215 15.0165 10.5215 15.242C10.5215 15.4676 10.6111 15.6839 10.7706 15.8434C10.9301 16.0029 11.1464 16.0925 11.3719 16.0925H15.6751C15.9006 16.0925 16.1169 16.0029 16.2764 15.8434C16.4359 15.6839 16.5255 15.4676 16.5255 15.242C16.5255 15.0165 16.4359 14.8002 16.2764 14.6407C16.1169 14.4812 15.9006 14.3916 15.6751 14.3916H11.3719Z" fill="white"/>
<path d="M10.5215 18.6356C10.5215 18.8611 10.6111 19.0774 10.7706 19.2369C10.9301 19.3964 11.1464 19.486 11.3719 19.486H17.5545C17.78 19.486 17.9964 19.3964 18.1558 19.2369C18.3153 19.0774 18.4049 18.8611 18.4049 18.6356C18.4049 18.41 18.3153 18.1937 18.1558 18.0342C17.9964 17.8748 17.78 17.7852 17.5545 17.7852H11.3719C11.1464 17.7852 10.9301 17.8748 10.7706 18.0342C10.6111 18.1937 10.5215 18.41 10.5215 18.6356Z" fill="white"/>
</svg>
