<svg width="30" height="30" viewBox="0 0 30 30" fill="none" xmlns="http://www.w3.org/2000/svg">
<circle cx="15" cy="15" r="15" fill="black"/>
<path d="M4.57789 18.605L5.88289 16.91C6.60289 17.615 7.74289 17.99 8.61289 17.99C9.72289 17.99 10.2929 17.54 10.2929 16.955C10.2929 16.37 9.87289 16.04 8.50789 16.04C8.07289 16.04 7.30789 16.055 7.15789 16.07V13.85C7.35289 13.865 8.13289 13.865 8.50789 13.865C9.54289 13.865 10.1279 13.565 10.1279 13.01C10.1279 12.38 9.40789 12.05 8.44789 12.05C7.53289 12.05 6.63289 12.425 5.92789 13.04L4.71289 11.465C5.55289 10.52 6.87289 9.845 8.71789 9.845C11.2679 9.845 12.6929 10.94 12.6929 12.59C12.6929 13.76 11.6879 14.645 10.5029 14.84C11.5679 14.945 12.8579 15.77 12.8579 17.21C12.8579 18.965 11.2079 20.18 8.71789 20.18C6.79789 20.18 5.35789 19.505 4.57789 18.605ZM13.9613 18.77C13.9613 18.005 14.6063 17.36 15.3713 17.36C16.1363 17.36 16.7813 18.005 16.7813 18.77C16.7813 19.535 16.1363 20.18 15.3713 20.18C14.6063 20.18 13.9613 19.535 13.9613 18.77ZM18.0043 18.725L19.3843 17C20.0743 17.645 21.0493 17.99 22.0093 17.99C23.1043 17.99 23.6443 17.405 23.6443 16.76C23.6443 16.055 23.1193 15.545 22.0843 15.545C21.2893 15.545 20.6593 15.785 20.1043 16.295L18.3193 15.86V9.995H25.5793V12.17H20.8093V14.225C21.3793 13.745 22.1593 13.415 23.0443 13.415C24.7543 13.415 26.2693 14.645 26.2693 16.655C26.2693 18.815 24.6343 20.18 22.0393 20.18C20.2693 20.18 18.9343 19.64 18.0043 18.725Z" fill="white"/>
</svg>
