<svg width="30" height="30" viewBox="0 0 30 30" fill="none" xmlns="http://www.w3.org/2000/svg">
<circle cx="15" cy="15" r="15" fill="black"/>
<path d="M16.1182 19.4286L17.6011 17.5655C18.3426 18.2621 19.3904 18.6348 20.422 18.6348C21.5987 18.6348 22.179 18.0029 22.179 17.3063C22.179 16.5449 21.6148 15.9941 20.5026 15.9941C19.6483 15.9941 18.9713 16.2533 18.3749 16.8041L16.4567 16.3343V10H24.2584V12.349H19.1325V14.5685C19.745 14.0501 20.5832 13.6937 21.5342 13.6937C23.3718 13.6937 24.9999 15.0221 24.9999 17.1929C24.9999 19.5258 23.2429 21 20.4542 21C18.5522 21 17.1176 20.4168 16.1182 19.4286Z" fill="white"/>
<path d="M11.7739 19.4769C11.7739 18.6507 12.4671 17.9541 13.2891 17.9541C14.1112 17.9541 14.8043 18.6507 14.8043 19.4769C14.8043 20.3031 14.1112 20.9998 13.2891 20.9998C12.4671 20.9998 11.7739 20.3031 11.7739 19.4769Z" fill="white"/>
<path d="M7.38505 20.8056V13.5641L5.57969 15.3947L4 13.7261L7.75579 10H10.1576V20.8056H7.38505Z" fill="white"/>
</svg>
