<svg width="30" height="30" viewBox="0 0 30 30" fill="none" xmlns="http://www.w3.org/2000/svg">
<circle cx="15" cy="15" r="15" fill="black"/>
<path d="M20.1157 17.8949L21.3117 16.3999C21.9097 16.9589 22.7547 17.2579 23.5867 17.2579C24.5357 17.2579 25.0037 16.7509 25.0037 16.1919C25.0037 15.5809 24.5487 15.1389 23.6517 15.1389C22.9627 15.1389 22.4167 15.3469 21.9357 15.7889L20.3887 15.4119V10.3289H26.6807V12.2139H22.5467V13.9949C23.0407 13.5789 23.7167 13.2929 24.4837 13.2929C25.9657 13.2929 27.2787 14.3589 27.2787 16.1009C27.2787 17.9729 25.8617 19.1559 23.6127 19.1559C22.0787 19.1559 20.9217 18.6879 20.1157 17.8949Z" fill="white"/>
<path d="M16.6118 17.9339C16.6118 17.2709 17.1708 16.7119 17.8338 16.7119C18.4968 16.7119 19.0558 17.2709 19.0558 17.9339C19.0558 18.5969 18.4968 19.1559 17.8338 19.1559C17.1708 19.1559 16.6118 18.5969 16.6118 17.9339Z" fill="white"/>
<path d="M8.76745 19V17.258C12.5244 14.541 13.2264 13.943 13.2264 13.085C13.2264 12.487 12.6674 12.175 11.9914 12.175C11.0684 12.175 10.3404 12.539 9.71644 13.124L8.48145 11.642C9.40445 10.628 10.7824 10.199 11.9914 10.199C14.0324 10.199 15.5014 11.343 15.5014 13.085C15.5014 14.411 14.5524 15.542 12.2254 17.05H15.5664V19H8.76745Z" fill="white"/>
<path d="M5.1758 18.9999V13.1889L3.7198 14.6579L2.4458 13.3189L5.4748 10.3289H7.4118V18.9999H5.1758Z" fill="white"/>
</svg>
