<svg width="30" height="30" viewBox="0 0 30 30" fill="none" xmlns="http://www.w3.org/2000/svg">
<circle cx="15" cy="15" r="15" fill="black"/>
<path d="M18.1216 18.7249L19.5016 16.9999C20.1916 17.6449 21.1666 17.9899 22.1266 17.9899C23.2216 17.9899 23.7616 17.4049 23.7616 16.7599C23.7616 16.0549 23.2366 15.5449 22.2016 15.5449C21.4066 15.5449 20.7766 15.7849 20.2216 16.2949L18.4366 15.8599V9.99487H25.6966V12.1699H20.9266V14.2249C21.4966 13.7449 22.2766 13.4149 23.1616 13.4149C24.8716 13.4149 26.3866 14.6449 26.3866 16.6549C26.3866 18.8149 24.7516 20.1799 22.1566 20.1799C20.3866 20.1799 19.0516 19.6399 18.1216 18.7249Z" fill="white"/>
<path d="M14.0786 18.7699C14.0786 18.0049 14.7236 17.3599 15.4886 17.3599C16.2536 17.3599 16.8986 18.0049 16.8986 18.7699C16.8986 19.5349 16.2536 20.1799 15.4886 20.1799C14.7236 20.1799 14.0786 19.5349 14.0786 18.7699Z" fill="white"/>
<path d="M4.61084 15.02C4.61084 11.825 6.53084 9.84497 9.56084 9.84497C10.7458 9.84497 11.8558 10.22 12.6058 10.805L11.4808 12.695C10.9258 12.245 10.3858 12.035 9.56084 12.035C8.24084 12.035 7.22084 13.04 7.22084 14.45V14.57C7.71584 13.91 8.66084 13.415 9.68084 13.415C11.4808 13.415 13.1458 14.54 13.1458 16.67C13.1458 18.725 11.4808 20.18 9.15584 20.18C5.99084 20.18 4.61084 17.885 4.61084 15.02ZM10.5358 16.775C10.5358 15.89 9.72584 15.53 8.90084 15.53C8.27084 15.53 7.67084 15.77 7.22084 16.205C7.29584 17.03 7.77584 17.99 9.03584 17.99C10.0108 17.99 10.5358 17.375 10.5358 16.775Z" fill="white"/>
</svg>
