<svg width="30" height="30" viewBox="0 0 30 30" fill="none" xmlns="http://www.w3.org/2000/svg">
<circle cx="15" cy="15" r="15" fill="black"/>
<path d="M18.1216 18.7251L19.5016 17.0001C20.1916 17.6451 21.1666 17.9901 22.1266 17.9901C23.2216 17.9901 23.7616 17.4051 23.7616 16.7601C23.7616 16.0551 23.2366 15.5451 22.2016 15.5451C21.4066 15.5451 20.7766 15.7851 20.2216 16.2951L18.4366 15.8601V9.99512H25.6966V12.1701H20.9266V14.2251C21.4966 13.7451 22.2766 13.4151 23.1616 13.4151C24.8716 13.4151 26.3866 14.6451 26.3866 16.6551C26.3866 18.8151 24.7516 20.1801 22.1566 20.1801C20.3866 20.1801 19.0516 19.6401 18.1216 18.7251Z" fill="white"/>
<path d="M14.0786 18.7701C14.0786 18.0051 14.7236 17.3601 15.4886 17.3601C16.2536 17.3601 16.8986 18.0051 16.8986 18.7701C16.8986 19.5351 16.2536 20.1801 15.4886 20.1801C14.7236 20.1801 14.0786 19.5351 14.0786 18.7701Z" fill="white"/>
<path d="M4.8208 18.7251L6.2008 17.0001C6.8908 17.6451 7.8658 17.9901 8.8258 17.9901C9.9208 17.9901 10.4608 17.4051 10.4608 16.7601C10.4608 16.0551 9.9358 15.5451 8.9008 15.5451C8.1058 15.5451 7.4758 15.7851 6.9208 16.2951L5.1358 15.8601V9.99512H12.3958V12.1701H7.6258V14.2251C8.1958 13.7451 8.9758 13.4151 9.8608 13.4151C11.5708 13.4151 13.0858 14.6451 13.0858 16.6551C13.0858 18.8151 11.4508 20.1801 8.8558 20.1801C7.0858 20.1801 5.7508 19.6401 4.8208 18.7251Z" fill="white"/>
</svg>
