<svg width="30" height="30" viewBox="0 0 30 30" fill="none" xmlns="http://www.w3.org/2000/svg">
<circle cx="15" cy="15" r="15" fill="black"/>
<path d="M20.1284 17.8949L21.3244 16.3999C21.9224 16.9589 22.7674 17.2579 23.5994 17.2579C24.5484 17.2579 25.0164 16.7509 25.0164 16.1919C25.0164 15.5809 24.5614 15.1389 23.6644 15.1389C22.9754 15.1389 22.4294 15.3469 21.9484 15.7889L20.4014 15.4119V10.3289H26.6934V12.2139H22.5594V13.9949C23.0534 13.5789 23.7294 13.2929 24.4964 13.2929C25.9784 13.2929 27.2914 14.3589 27.2914 16.1009C27.2914 17.9729 25.8744 19.1559 23.6254 19.1559C22.0914 19.1559 20.9344 18.6879 20.1284 17.8949Z" fill="white"/>
<path d="M16.6245 17.9339C16.6245 17.2709 17.1835 16.7119 17.8465 16.7119C18.5095 16.7119 19.0685 17.2709 19.0685 17.9339C19.0685 18.5969 18.5095 19.1559 17.8465 19.1559C17.1835 19.1559 16.6245 18.5969 16.6245 17.9339Z" fill="white"/>
<path d="M8.52051 14.671C8.52051 12.383 9.70351 10.199 12.2385 10.199C14.7735 10.199 15.9565 12.383 15.9565 14.671C15.9565 16.959 14.7735 19.156 12.2385 19.156C9.70351 19.156 8.52051 16.959 8.52051 14.671ZM13.6945 14.671C13.6945 13.137 13.2785 12.175 12.2385 12.175C11.1985 12.175 10.7825 13.137 10.7825 14.671C10.7825 16.205 11.1985 17.18 12.2385 17.18C13.2785 17.18 13.6945 16.205 13.6945 14.671Z" fill="white"/>
<path d="M5.16311 18.9999V13.1889L3.70711 14.6579L2.43311 13.3189L5.46211 10.3289H7.39911V18.9999H5.16311Z" fill="white"/>
</svg>
