<svg width="30" height="30" viewBox="0 0 30 30" fill="none" xmlns="http://www.w3.org/2000/svg">
<circle cx="15" cy="15" r="15" fill="black"/>
<path d="M17.9976 19.4514L19.3337 17.6154C20.0018 18.3019 20.9458 18.6691 21.8753 18.6691C22.9355 18.6691 23.4583 18.0465 23.4583 17.36C23.4583 16.6096 22.95 16.0668 21.9479 16.0668C21.1782 16.0668 20.5682 16.3222 20.0308 16.865L18.3025 16.4021V10.1597H25.3318V12.4746H20.7134V14.6619C21.2653 14.151 22.0205 13.7997 22.8774 13.7997C24.5331 13.7997 25.9999 15.1089 25.9999 17.2482C25.9999 19.5472 24.4169 21 21.9043 21C20.1906 21 18.898 20.4253 17.9976 19.4514Z" fill="white"/>
<path d="M14.083 19.4993C14.083 18.685 14.7075 17.9985 15.4482 17.9985C16.1889 17.9985 16.8134 18.685 16.8134 19.4993C16.8134 20.3135 16.1889 21 15.4482 21C14.7075 21 14.083 20.3135 14.083 19.4993Z" fill="white"/>
<path d="M5.31951 20.8084V18.6691C9.51675 15.3324 10.301 14.598 10.301 13.5443C10.301 12.8099 9.67651 12.4267 8.9213 12.4267C7.89014 12.4267 7.07684 12.8737 6.37972 13.5922L5 11.7721C6.03116 10.5269 7.57063 10 8.9213 10C11.2015 10 12.8426 11.4049 12.8426 13.5443C12.8426 15.1727 11.7824 16.5617 9.18272 18.4137H12.9152V20.8084H5.31951Z" fill="white"/>
</svg>
