<svg width="30" height="30" viewBox="0 0 30 30" fill="none" xmlns="http://www.w3.org/2000/svg">
<circle cx="15" cy="15" r="15" fill="black"/>
<path d="M18.1289 18.7249L19.5089 16.9999C20.1989 17.6449 21.1739 17.9899 22.1339 17.9899C23.2289 17.9899 23.7689 17.4049 23.7689 16.7599C23.7689 16.0549 23.2439 15.5449 22.2089 15.5449C21.4139 15.5449 20.7839 15.7849 20.2289 16.2949L18.4439 15.8599V9.99487H25.7039V12.1699H20.9339V14.2249C21.5039 13.7449 22.2839 13.4149 23.1689 13.4149C24.8789 13.4149 26.3939 14.6449 26.3939 16.6549C26.3939 18.8149 24.7589 20.1799 22.1639 20.1799C20.3939 20.1799 19.0589 19.6399 18.1289 18.7249Z" fill="white"/>
<path d="M14.0859 18.7699C14.0859 18.0049 14.7309 17.3599 15.4959 17.3599C16.2609 17.3599 16.9059 18.0049 16.9059 18.7699C16.9059 19.5349 16.2609 20.1799 15.4959 20.1799C14.7309 20.1799 14.0859 19.5349 14.0859 18.7699Z" fill="white"/>
<path d="M4.60352 17.36C4.60352 16.22 5.47352 15.29 6.62852 14.84C5.56352 14.435 4.76852 13.715 4.76852 12.515C4.76852 10.58 6.88352 9.84497 8.84852 9.84497C10.7985 9.84497 12.9285 10.58 12.9285 12.515C12.9285 13.715 12.1185 14.435 11.0535 14.84C12.2085 15.29 13.0785 16.22 13.0785 17.36C13.0785 19.31 11.0085 20.18 8.84852 20.18C6.68852 20.18 4.60352 19.325 4.60352 17.36ZM10.2885 12.89C10.2885 12.35 9.70352 11.99 8.84852 11.99C7.96352 11.99 7.39352 12.35 7.39352 12.89C7.39352 13.475 8.23352 13.805 8.84852 13.91C9.46352 13.805 10.2885 13.475 10.2885 12.89ZM10.4685 17.075C10.4685 16.415 9.47852 16.04 8.84852 15.95C8.20352 16.04 7.22852 16.415 7.22852 17.075C7.22852 17.66 7.88852 18.035 8.84852 18.035C9.77852 18.035 10.4685 17.66 10.4685 17.075Z" fill="white"/>
</svg>
