<svg width="30" height="30" viewBox="0 0 30 30" fill="none" xmlns="http://www.w3.org/2000/svg">
<circle cx="15" cy="15" r="15" fill="black"/>
<path d="M14.9986 21.228C17.7346 21.228 20.3756 20.126 20.3756 17.656C20.3756 16.212 19.2736 15.034 17.7916 14.464C19.1596 13.951 20.1666 13.039 20.1666 11.519C20.1666 9.06796 17.4686 8.13696 14.9986 8.13696C12.5286 8.13696 9.83058 9.06796 9.83058 11.519C9.83058 13.039 10.8376 13.951 12.1866 14.464C10.7236 15.034 9.62158 16.212 9.62158 17.656C9.62158 20.145 12.2626 21.228 14.9986 21.228ZM14.9986 13.191C14.2196 13.077 13.1556 12.716 13.1556 12.07C13.1556 11.405 13.8966 11.025 14.9986 11.025C16.1006 11.025 16.8226 11.405 16.8226 12.07C16.8226 12.716 15.7776 13.077 14.9986 13.191ZM14.9986 18.34C13.7826 18.34 12.9466 17.884 12.9466 17.2C12.9466 16.44 14.1816 16.041 14.9986 15.946C15.7966 16.041 17.0506 16.44 17.0506 17.2C17.0506 17.884 16.1766 18.34 14.9986 18.34Z" fill="white"/>
</svg>
