<svg width="30" height="30" viewBox="0 0 30 30" fill="none" xmlns="http://www.w3.org/2000/svg">
<circle cx="15" cy="15" r="15" fill="black"/>
<path d="M20.1792 17.8951L21.3752 16.4001C21.9732 16.9591 22.8182 17.2581 23.6502 17.2581C24.5992 17.2581 25.0672 16.7511 25.0672 16.1921C25.0672 15.5811 24.6122 15.1391 23.7152 15.1391C23.0262 15.1391 22.4802 15.3471 21.9992 15.7891L20.4522 15.4121V10.3291H26.7442V12.2141H22.6102V13.9951C23.1042 13.5791 23.7802 13.2931 24.5472 13.2931C26.0292 13.2931 27.3422 14.3591 27.3422 16.1011C27.3422 17.9731 25.9252 19.1561 23.6762 19.1561C22.1422 19.1561 20.9852 18.6881 20.1792 17.8951Z" fill="white"/>
<path d="M16.6753 17.9342C16.6753 17.2712 17.2343 16.7122 17.8973 16.7122C18.5603 16.7122 19.1193 17.2712 19.1193 17.9342C19.1193 18.5972 18.5603 19.1562 17.8973 19.1562C17.2343 19.1562 16.6753 18.5972 16.6753 17.9342Z" fill="white"/>
<path d="M8.65186 17.8951L9.84786 16.4001C10.4459 16.9591 11.2909 17.2581 12.1229 17.2581C13.0719 17.2581 13.5399 16.7511 13.5399 16.1921C13.5399 15.5811 13.0849 15.1391 12.1879 15.1391C11.4989 15.1391 10.9529 15.3471 10.4719 15.7891L8.92486 15.4121V10.3291H15.2169V12.2141H11.0829V13.9951C11.5769 13.5791 12.2529 13.2931 13.0199 13.2931C14.5019 13.2931 15.8149 14.3591 15.8149 16.1011C15.8149 17.9731 14.3979 19.1561 12.1489 19.1561C10.6149 19.1561 9.45786 18.6881 8.65186 17.8951Z" fill="white"/>
<path d="M5.11232 19.0001V13.1891L3.65632 14.6581L2.38232 13.3191L5.41132 10.3291H7.34832V19.0001H5.11232Z" fill="white"/>
</svg>
