<svg width="30" height="30" viewBox="0 0 30 30" fill="none" xmlns="http://www.w3.org/2000/svg">
<circle cx="15" cy="15" r="15" fill="black"/>
<path d="M5.21395 19V13.189L3.75795 14.658L2.48395 13.319L5.51295 10.329H7.44995V19H5.21395ZM8.4414 17.791L9.5724 16.322C10.1964 16.933 11.1844 17.258 11.9384 17.258C12.9004 17.258 13.3944 16.868 13.3944 16.361C13.3944 15.854 13.0304 15.568 11.8474 15.568C11.4704 15.568 10.8074 15.581 10.6774 15.594V13.67C10.8464 13.683 11.5224 13.683 11.8474 13.683C12.7444 13.683 13.2514 13.423 13.2514 12.942C13.2514 12.396 12.6274 12.11 11.7954 12.11C11.0024 12.11 10.2224 12.435 9.6114 12.968L8.5584 11.603C9.2864 10.784 10.4304 10.199 12.0294 10.199C14.2394 10.199 15.4744 11.148 15.4744 12.578C15.4744 13.592 14.6034 14.359 13.5764 14.528C14.4994 14.619 15.6174 15.334 15.6174 16.582C15.6174 18.103 14.1874 19.156 12.0294 19.156C10.3654 19.156 9.1174 18.571 8.4414 17.791ZM16.5737 17.934C16.5737 17.271 17.1327 16.712 17.7957 16.712C18.4587 16.712 19.0177 17.271 19.0177 17.934C19.0177 18.597 18.4587 19.156 17.7957 19.156C17.1327 19.156 16.5737 18.597 16.5737 17.934ZM20.0776 17.895L21.2736 16.4C21.8716 16.959 22.7166 17.258 23.5486 17.258C24.4976 17.258 24.9656 16.751 24.9656 16.192C24.9656 15.581 24.5106 15.139 23.6136 15.139C22.9246 15.139 22.3786 15.347 21.8976 15.789L20.3506 15.412V10.329H26.6426V12.214H22.5086V13.995C23.0026 13.579 23.6786 13.293 24.4456 13.293C25.9276 13.293 27.2406 14.359 27.2406 16.101C27.2406 17.973 25.8236 19.156 23.5746 19.156C22.0406 19.156 20.8836 18.688 20.0776 17.895Z" fill="white"/>
</svg>
