<svg width="30" height="30" viewBox="0 0 30 30" fill="none" xmlns="http://www.w3.org/2000/svg">
<circle cx="15" cy="15" r="15" fill="black"/>
<path d="M19.0747 17.8951L20.2707 16.4001C20.8687 16.9591 21.7137 17.2581 22.5457 17.2581C23.4947 17.2581 23.9627 16.7511 23.9627 16.1921C23.9627 15.5811 23.5077 15.1391 22.6107 15.1391C21.9217 15.1391 21.3757 15.3471 20.8947 15.7891L19.3477 15.4121V10.3291H25.6397V12.2141H21.5057V13.9951C21.9997 13.5791 22.6757 13.2931 23.4427 13.2931C24.9247 13.2931 26.2377 14.3591 26.2377 16.1011C26.2377 17.9731 24.8207 19.1561 22.5717 19.1561C21.0377 19.1561 19.8807 18.6881 19.0747 17.8951Z" fill="white"/>
<path d="M15.5708 17.9342C15.5708 17.2712 16.1298 16.7122 16.7928 16.7122C17.4558 16.7122 18.0148 17.2712 18.0148 17.9342C18.0148 18.5972 17.4558 19.1562 16.7928 19.1562C16.1298 19.1562 15.5708 18.5972 15.5708 17.9342Z" fill="white"/>
<path d="M12.0313 19.0001V13.1891L10.5753 14.6581L9.30127 13.3191L12.3303 10.3291H14.2673V19.0001H12.0313Z" fill="white"/>
<path d="M6.21682 19.0001V13.1891L4.76082 14.6581L3.48682 13.3191L6.51582 10.3291H8.45282V19.0001H6.21682Z" fill="white"/>
</svg>
