<svg width="30" height="30" viewBox="0 0 30 30" fill="none" xmlns="http://www.w3.org/2000/svg">
<circle cx="15" cy="15" r="15" fill="black"/>
<path d="M17.001 18.7251L18.381 17.0001C19.071 17.6451 20.046 17.9901 21.006 17.9901C22.101 17.9901 22.641 17.4051 22.641 16.7601C22.641 16.0551 22.116 15.5451 21.081 15.5451C20.286 15.5451 19.656 15.7851 19.101 16.2951L17.316 15.8601V9.99512H24.576V12.1701H19.806V14.2251C20.376 13.7451 21.156 13.4151 22.041 13.4151C23.751 13.4151 25.266 14.6451 25.266 16.6551C25.266 18.8151 23.631 20.1801 21.036 20.1801C19.266 20.1801 17.931 19.6401 17.001 18.7251Z" fill="white"/>
<path d="M12.958 18.7701C12.958 18.0051 13.603 17.3601 14.368 17.3601C15.133 17.3601 15.778 18.0051 15.778 18.7701C15.778 19.5351 15.133 20.1801 14.368 20.1801C13.603 20.1801 12.958 19.5351 12.958 18.7701Z" fill="white"/>
<path d="M7.14125 20.0001L10.5312 12.2451H5.65625V9.99512H13.5013V11.7801L9.97625 20.0001H7.14125Z" fill="white"/>
</svg>
