<svg width="30" height="30" viewBox="0 0 30 30" fill="none" xmlns="http://www.w3.org/2000/svg">
<circle cx="15" cy="15" r="15" fill="black"/>
<path d="M14.8334 21.2277C17.9874 21.2277 20.0774 19.6887 20.0774 17.4657C20.0774 15.6417 18.4434 14.5967 17.0944 14.4637C18.5954 14.2167 19.8684 13.0957 19.8684 11.6137C19.8684 9.52372 18.0634 8.13672 14.8334 8.13672C12.4964 8.13672 10.8434 8.99172 9.76036 10.1887L11.3374 12.2407C12.2304 11.4427 13.3324 11.0247 14.4914 11.0247C15.7074 11.0247 16.6194 11.3857 16.6194 12.1837C16.6194 12.8487 15.8784 13.1717 14.5674 13.1717C14.0924 13.1717 13.1044 13.1717 12.8574 13.1527V16.0597C13.0474 16.0407 14.0164 16.0217 14.5674 16.0217C16.2964 16.0217 16.8284 16.3827 16.8284 17.1047C16.8284 17.8077 16.1064 18.3397 14.7004 18.3397C13.5984 18.3397 12.1734 17.9027 11.2424 17.0097L9.58936 19.2327C10.5964 20.3727 12.4014 21.2277 14.8334 21.2277Z" fill="white"/>
</svg>
