<svg width="30" height="30" viewBox="0 0 30 30" fill="none" xmlns="http://www.w3.org/2000/svg">
<circle cx="15" cy="15" r="15" fill="black"/>
<path d="M15.3879 21.228C18.3329 21.228 20.4419 19.385 20.4419 16.782C20.4419 14.084 18.3329 12.621 16.0529 12.621C14.7799 12.621 13.5639 13.229 12.9369 14.065V13.913C12.9369 12.146 14.3619 11.025 15.9199 11.025C16.9459 11.025 17.6489 11.291 18.3519 11.861L19.7579 9.35296C18.8079 8.61196 17.4019 8.13696 15.9199 8.13696C12.0819 8.13696 9.63086 10.645 9.63086 14.692C9.63086 18.321 11.3789 21.228 15.3879 21.228ZM15.1789 18.34C13.6399 18.34 13.0319 17.276 12.9369 16.25C13.4879 15.661 14.2669 15.395 15.0649 15.395C16.0529 15.395 17.1359 15.832 17.1359 16.896C17.1359 17.599 16.3949 18.34 15.1789 18.34Z" fill="white"/>
</svg>
