<svg width="30" height="30" viewBox="0 0 30 30" fill="none" xmlns="http://www.w3.org/2000/svg">
<circle cx="15" cy="15" r="15" fill="black"/>
<path d="M18.0117 18.7251L19.3917 17.0001C20.0817 17.6451 21.0567 17.9901 22.0167 17.9901C23.1117 17.9901 23.6517 17.4051 23.6517 16.7601C23.6517 16.0551 23.1267 15.5451 22.0917 15.5451C21.2967 15.5451 20.6667 15.7851 20.1117 16.2951L18.3267 15.8601V9.99512H25.5867V12.1701H20.8167V14.2251C21.3867 13.7451 22.1667 13.4151 23.0517 13.4151C24.7617 13.4151 26.2767 14.6451 26.2767 16.6551C26.2767 18.8151 24.6417 20.1801 22.0467 20.1801C20.2767 20.1801 18.9417 19.6401 18.0117 18.7251Z" fill="white"/>
<path d="M13.9688 18.7701C13.9688 18.0051 14.6137 17.3601 15.3787 17.3601C16.1437 17.3601 16.7887 18.0051 16.7887 18.7701C16.7887 19.5351 16.1437 20.1801 15.3787 20.1801C14.6137 20.1801 13.9688 19.5351 13.9688 18.7701Z" fill="white"/>
<path d="M5.20051 19.2051L6.31051 17.3151C6.86551 17.7651 7.42051 17.9751 8.23051 17.9751C9.61051 17.9751 10.5705 16.9251 10.5705 15.5601V15.4401C10.0755 16.1001 9.13051 16.5951 8.12551 16.5951C6.32551 16.5951 4.64551 15.4701 4.64551 13.3401C4.64551 11.2851 6.31051 9.83008 8.63551 9.83008C11.8005 9.83008 13.1805 12.1101 13.1805 14.9901C13.1805 18.1701 11.2605 20.1651 8.23051 20.1651C7.06051 20.1651 5.95051 19.8051 5.20051 19.2051ZM10.5705 13.8051C10.5105 12.9801 10.0155 12.0201 8.75551 12.0201C7.79551 12.0201 7.27051 12.6351 7.27051 13.2201C7.27051 14.1201 8.08051 14.4801 8.89051 14.4801C9.52051 14.4801 10.1355 14.2401 10.5705 13.8051Z" fill="white"/>
</svg>
