<svg width="30" height="30" viewBox="0 0 30 30" fill="none" xmlns="http://www.w3.org/2000/svg">
<circle cx="15" cy="15" r="15" fill="black"/>
<path d="M20.1729 17.8951L21.3689 16.4001C21.9669 16.9591 22.8119 17.2581 23.6439 17.2581C24.5929 17.2581 25.0609 16.7511 25.0609 16.1921C25.0609 15.5811 24.6059 15.1391 23.7089 15.1391C23.0199 15.1391 22.4739 15.3471 21.9929 15.7891L20.4459 15.4121V10.3291H26.7379V12.2141H22.6039V13.9951C23.0979 13.5791 23.7739 13.2931 24.5409 13.2931C26.0229 13.2931 27.3359 14.3591 27.3359 16.1011C27.3359 17.9731 25.9189 19.1561 23.6699 19.1561C22.1359 19.1561 20.9789 18.6881 20.1729 17.8951Z" fill="white"/>
<path d="M16.6689 17.9342C16.6689 17.2712 17.2279 16.7122 17.8909 16.7122C18.5539 16.7122 19.1129 17.2712 19.1129 17.9342C19.1129 18.5972 18.5539 19.1562 17.8909 19.1562C17.2279 19.1562 16.6689 18.5972 16.6689 17.9342Z" fill="white"/>
<path d="M12.5713 19.0001V17.4141H8.42432V15.6721L11.7133 10.3291H14.8203V15.4511H15.8733V17.4141H14.8203V19.0001H12.5713ZM12.5713 12.2791L10.5953 15.4511H12.5713V12.2791Z" fill="white"/>
<path d="M5.11867 19.0001V13.1891L3.66267 14.6581L2.38867 13.3191L5.41767 10.3291H7.35467V19.0001H5.11867Z" fill="white"/>
</svg>
