<svg width="30" height="30" viewBox="0 0 30 30" fill="none" xmlns="http://www.w3.org/2000/svg">
<circle cx="15" cy="15" r="15" fill="black"/>
<path d="M15.0075 21.2282C18.2945 21.2282 20.3655 19.4801 20.3655 16.7441C20.3655 14.1791 18.4465 12.6211 16.2805 12.6211C15.1595 12.6211 14.1715 13.0391 13.5635 13.6281V11.1771H19.4915V8.32715H10.2955V15.8131L12.5565 16.3641C13.2595 15.6991 14.0575 15.4141 15.0645 15.4141C16.3755 15.4141 17.0405 16.0221 17.0405 16.8771C17.0405 17.6561 16.3565 18.3401 14.9695 18.3401C13.7535 18.3401 12.5565 17.9031 11.6825 17.0861L9.91553 19.3851C11.0745 20.5252 12.7655 21.2282 15.0075 21.2282Z" fill="white"/>
</svg>
