<svg width="30" height="30" viewBox="0 0 30 30" fill="none" xmlns="http://www.w3.org/2000/svg">
<circle cx="15" cy="15" r="15" fill="black"/>
<path d="M14.0766 21.2089C17.9146 21.2089 20.3466 18.6819 20.3466 14.6539C20.3466 11.0059 18.5986 8.11792 14.5896 8.11792C11.6636 8.11792 9.53564 9.96092 9.53564 12.5639C9.53564 15.2619 11.6636 16.7249 13.9436 16.7249C15.2166 16.7249 16.4326 16.1169 17.0406 15.2809V15.4329C17.0406 16.9719 15.9386 18.3209 14.0766 18.3209C13.0506 18.3209 12.3476 18.0549 11.6446 17.4849L10.2386 19.9929C11.1886 20.7339 12.5946 21.2089 14.0766 21.2089ZM14.9126 13.9509C13.9436 13.9509 12.8606 13.5139 12.8606 12.4499C12.8606 11.7469 13.5826 11.0059 14.7796 11.0059C16.3566 11.0059 16.9646 12.0699 17.0406 13.0959C16.4896 13.6849 15.7106 13.9509 14.9126 13.9509Z" fill="white"/>
</svg>
