<svg width="30" height="30" viewBox="0 0 30 30" fill="none" xmlns="http://www.w3.org/2000/svg">
<circle cx="15" cy="15" r="15" fill="#57058B"/>
<path d="M9.93291 7.8C9.9329 9.72 8.9233 10.68 9.00467 12.6C9.06074 13.9231 10.8611 15 15.0382 15M15.0382 15C7.61231 11.64 13.6459 7.32 14.5741 3C14.5741 3 15.5023 3.96 15.5023 5.4M15.0382 15C15.5023 10.2 20.6076 11.16 22 7.8C22 11.64 21.0718 15 15.0382 15ZM15.0382 15C11.9046 8.76 16.8947 8.76 17.8229 4.92C18.287 5.88 18.7512 7.32 18.7512 8.76" stroke="white" stroke-width="1.5" stroke-linecap="round" stroke-linejoin="round"/>
<rect x="12" y="17" width="6" height="2" stroke="white" stroke-width="1.5" stroke-linejoin="round"/>
<path d="M13 19L13.6667 28M17 19L16.3333 28" stroke="white" stroke-width="1.5" stroke-linecap="round" stroke-linejoin="round"/>
</svg>
