<svg width="30" height="30" viewBox="0 0 30 30" fill="none" xmlns="http://www.w3.org/2000/svg">
<circle cx="15" cy="15" r="15" fill="#384252"/>
<path d="M7.59462 19.156C10.2076 19.156 12.1186 17.284 12.1186 14.671C12.1186 12.058 10.2076 10.186 7.59462 10.186C4.96862 10.186 3.05762 12.058 3.05762 14.671C3.05762 17.284 4.96862 19.156 7.59462 19.156ZM7.59462 17.518C5.98262 17.518 4.95562 16.283 4.95562 14.671C4.95562 13.046 5.98262 11.824 7.59462 11.824C9.19362 11.824 10.2206 13.046 10.2206 14.671C10.2206 16.283 9.19362 17.518 7.59462 17.518Z" fill="white"/>
<path d="M16.9577 19V11.954H19.4797V10.329H12.5637V11.954H15.0987V19H16.9577Z" fill="white"/>
<path d="M26.7991 19V17.375H22.5091V15.399H26.7081V13.774H22.5091V11.954H26.7991V10.329H20.6631V19H26.7991Z" fill="white"/>
</svg>
