<svg width="30" height="30" viewBox="0 0 30 30" fill="none" xmlns="http://www.w3.org/2000/svg">
<circle cx="15" cy="15" r="15" fill="#272431"/>
<path d="M9.25295 20.1919C12.4689 20.1919 14.8209 17.8879 14.8209 14.6719C14.8209 11.4559 12.4689 9.15186 9.25295 9.15186C6.02095 9.15186 3.66895 11.4559 3.66895 14.6719C3.66895 17.8879 6.02095 20.1919 9.25295 20.1919ZM9.25295 18.1759C7.26895 18.1759 6.00495 16.6559 6.00495 14.6719C6.00495 12.6719 7.26895 11.1679 9.25295 11.1679C11.2209 11.1679 12.4849 12.6719 12.4849 14.6719C12.4849 16.6559 11.2209 18.1759 9.25295 18.1759Z" fill="white"/>
<path d="M21.5993 20.1919C23.5193 20.1919 25.0393 19.4079 26.1273 18.1919V14.0959H21.0393V16.0799H23.8553V17.3599C23.4233 17.7599 22.5433 18.1759 21.5993 18.1759C19.6473 18.1759 18.2393 16.6879 18.2393 14.6719C18.2393 12.6559 19.6473 11.1679 21.5993 11.1679C22.7193 11.1679 23.6313 11.8079 24.1273 12.5599L25.9993 11.5359C25.1993 10.2719 23.8073 9.15186 21.5993 9.15186C18.4633 9.15186 15.9033 11.2959 15.9033 14.6719C15.9033 18.0319 18.4633 20.1919 21.5993 20.1919Z" fill="white"/>
</svg>
