<svg width="30" height="30" viewBox="0 0 30 30" fill="none" xmlns="http://www.w3.org/2000/svg">
<circle cx="15" cy="15" r="15" fill="#FFDE34"/>
<path d="M23.2907 19.1358V12.6318H20.9507V11.1318H27.3347V12.6318H25.0067V19.1358H23.2907Z" fill="black"/>
<path d="M12.1758 15.14C12.1758 12.728 13.9398 11 16.3518 11C18.7758 11 20.5398 12.728 20.5398 15.14C20.5398 17.552 18.7758 19.28 16.3518 19.28C13.9398 19.28 12.1758 17.552 12.1758 15.14ZM18.7878 15.14C18.7878 13.64 17.8278 12.512 16.3518 12.512C14.8758 12.512 13.9278 13.64 13.9278 15.14C13.9278 16.628 14.8758 17.768 16.3518 17.768C17.8278 17.768 18.7878 16.628 18.7878 15.14Z" fill="black"/>
<path d="M3 15.14C3 12.728 4.764 11 7.176 11C9.6 11 11.364 12.728 11.364 15.14C11.364 17.552 9.6 19.28 7.176 19.28C4.764 19.28 3 17.552 3 15.14ZM9.612 15.14C9.612 13.64 8.652 12.512 7.176 12.512C5.7 12.512 4.752 13.64 4.752 15.14C4.752 16.628 5.7 17.768 7.176 17.768C8.652 17.768 9.612 16.628 9.612 15.14Z" fill="black"/>
</svg>
