<svg width="30" height="30" viewBox="0 0 30 30" fill="none" xmlns="http://www.w3.org/2000/svg">
<circle cx="15" cy="15" r="15" fill="#FF8000"/>
<path fill-rule="evenodd" clip-rule="evenodd" d="M21.5986 13.1973L26.2795 14.2996C27.7582 14.6592 27.9791 15.8852 27.8586 16.4913C27.6649 18.1714 25.2758 19.2372 23.6312 19.6338C20.2254 20.3539 11.0391 20.4828 4.20038 19.0169C3.11061 18.7877 2.52839 17.4649 3.47824 15.9508C3.51526 15.3764 3.80996 13.7691 4.07862 12.3037C4.25505 11.3415 4.42026 10.4404 4.4939 9.93329C4.56305 9.53845 4.99349 9.24039 5.41597 9.34312C6.54483 9.5737 6.78865 10.0454 7.06761 10.585C7.07308 10.5955 7.07856 10.6061 7.08405 10.6168C7.096 10.6391 7.10808 10.662 7.12041 10.6854C7.32403 11.0718 7.5939 11.584 8.38695 11.5153C8.42869 11.512 8.47229 11.5093 8.51844 11.5064C9.05733 11.4731 9.94306 11.4183 12.2528 10.1911C12.2864 10.1634 12.3199 10.1358 12.2923 10.1022L12.1561 9.59483C11.9608 8.74191 12.5947 7.93847 13.2679 8.00372C13.9135 8.0354 14.4267 8.79558 14.7681 9.41555L14.9892 9.68409C15.1886 9.85785 15.3603 9.99805 15.5933 10.1442C15.6071 10.161 15.6293 10.1708 15.6515 10.1807C15.6737 10.1906 15.6959 10.2005 15.7098 10.2172L15.8499 10.0455C15.9625 9.8402 16.2745 9.80865 16.4462 9.94885C16.6515 10.0614 16.6831 10.3734 16.5429 10.5451L16.4362 10.6892C16.5971 10.782 16.7649 10.8832 16.9327 10.9844C17.1005 11.0856 17.2683 11.1868 17.4292 11.2797L17.5753 11.0467C17.6879 10.8414 17.9998 10.8099 18.1716 10.9501C18.3769 11.0626 18.4084 11.3746 18.2682 11.5463L18.1952 11.6628C18.3356 11.733 18.4679 11.8025 18.5965 11.8701C18.8187 11.9868 19.0303 12.0979 19.2553 12.198L19.429 11.9986C19.5416 11.7933 19.8535 11.7617 20.0253 11.9019C20.2306 12.0145 20.2621 12.3264 20.1219 12.4982L20.0548 12.5535C20.16 12.6037 20.2605 12.6518 20.3557 12.6974C20.8487 12.9335 21.2004 13.1019 21.3262 13.14L21.5986 13.1973ZM6.36363 10.9697C6.13074 10.5523 6.02276 10.3587 5.39413 10.2059C5.35415 10.4113 5.31373 10.6185 5.27322 10.8262C4.87731 12.8561 4.47308 14.9285 4.39236 15.7614C4.70095 15.8122 5.02612 15.8678 5.37042 15.9266C8.58783 16.4767 13.4766 17.3125 22.137 17.2032C22.755 17.2013 25.6631 16.8345 27.059 16.1358C27.0611 15.7962 26.8973 15.2553 26.1412 15.0893L21.1266 13.9238C21.1128 13.907 21.0975 13.9055 21.0822 13.904C21.0669 13.9025 21.0516 13.901 21.0378 13.8843C20.9766 13.8783 20.3547 13.6018 19.5276 13.2128L18.9214 14.0498C18.8088 14.2551 18.4968 14.2866 18.3251 14.1464C18.1198 14.0339 18.0883 13.7219 18.2285 13.5502L18.6945 12.8849C18.4695 12.7849 18.2579 12.6738 18.0357 12.5571C17.9071 12.4895 17.7748 12.42 17.6344 12.3498L17.0676 13.0979C16.9551 13.3032 16.6431 13.3348 16.4714 13.1946C16.2661 13.082 16.2345 12.7701 16.3747 12.5983L16.902 11.939C16.7411 11.8462 16.5733 11.745 16.4055 11.6438C16.2377 11.5426 16.0699 11.4414 15.909 11.3485L15.3423 12.0967C15.2297 12.302 14.9178 12.3336 14.746 12.1934C14.5407 12.0808 14.5092 11.7689 14.6494 11.5971L15.1825 10.8766C15.1213 10.8706 15.1213 10.8706 15.0937 10.8371C14.994 10.7502 14.8859 10.6702 14.7778 10.5902C14.6698 10.5103 14.5617 10.4303 14.462 10.3434C14.2902 10.2032 14.1521 10.0354 14.0475 9.83992C13.7119 9.15874 13.3684 8.87834 13.246 8.86648C13.1236 8.85461 12.9775 9.08756 13.0426 9.37186L13.1788 9.87928C13.2932 10.2919 13.0957 10.7361 12.7048 10.9453C11.6327 11.4901 9.71748 12.4473 8.45988 12.3563C7.12864 12.4571 6.64629 11.518 6.41701 11.0717C6.39976 11.0381 6.38395 11.0073 6.36931 10.9799L6.36363 10.9697ZM4.37226 18.1996C11.4281 19.6557 20.1861 19.4852 23.4358 18.7808C24.0992 18.6289 25.6333 18.0981 26.4449 17.3736C24.9779 17.8492 22.7884 18.1312 22.1092 18.1272C13.277 18.1973 8.21257 17.3114 5.22069 16.788C4.81985 16.7179 4.45622 16.6543 4.12571 16.6004C3.82158 17.1887 3.70497 18.0731 4.37226 18.1996ZM7.24137 15.0491L5.75082 14.8119C5.53958 14.7606 5.34613 14.5256 5.39749 14.3144C5.42122 14.0695 5.65026 13.9373 5.89507 13.961L7.38561 14.1982C7.63042 14.2219 7.76266 14.4509 7.73894 14.6957C7.71521 14.9405 7.48618 15.0728 7.24137 15.0491Z" fill="white"/>
<path d="M26.2795 14.2996L26.2913 14.251L26.2909 14.251L26.2795 14.2996ZM21.5986 13.1973L21.6101 13.1486L21.6089 13.1484L21.5986 13.1973ZM27.8586 16.4913L27.8094 16.4815L27.8089 16.4856L27.8586 16.4913ZM23.6312 19.6338L23.6415 19.6827L23.6429 19.6824L23.6312 19.6338ZM4.20038 19.0169L4.21086 18.968L4.21067 18.968L4.20038 19.0169ZM3.47824 15.9508L3.52059 15.9773L3.52732 15.9666L3.52813 15.954L3.47824 15.9508ZM4.07862 12.3037L4.02944 12.2947V12.2947L4.07862 12.3037ZM4.4939 9.93329L4.44462 9.92466L4.44441 9.92611L4.4939 9.93329ZM5.41597 9.34312L5.40415 9.39173L5.40596 9.3921L5.41597 9.34312ZM7.06761 10.585L7.02319 10.6079V10.6079L7.06761 10.585ZM7.08405 10.6168L7.03965 10.6398L7.03997 10.6404L7.08405 10.6168ZM7.12041 10.6854L7.07617 10.7087V10.7087L7.12041 10.6854ZM8.38695 11.5153L8.38305 11.4654L8.38263 11.4654L8.38695 11.5153ZM8.51844 11.5064L8.51535 11.4565V11.4565L8.51844 11.5064ZM12.2528 10.1911L12.2767 10.2361L12.2846 10.2297L12.2528 10.1911ZM12.2923 10.1022L12.244 10.1152L12.2468 10.1257L12.2537 10.134L12.2923 10.1022ZM12.1561 9.59483L12.1074 9.606L12.1078 9.60779L12.1561 9.59483ZM13.2679 8.00372L13.2631 8.05354L13.2654 8.05366L13.2679 8.00372ZM14.7681 9.41555L14.7236 9.44009L14.7295 9.44733L14.7681 9.41555ZM14.9892 9.68409L14.9501 9.7163L14.9564 9.72178L14.9892 9.68409ZM15.5933 10.1442L15.6319 10.1124L15.6267 10.1061L15.6199 10.1018L15.5933 10.1442ZM15.6515 10.1807L15.6312 10.2264V10.2264L15.6515 10.1807ZM15.7098 10.2172L15.6712 10.249L15.7099 10.2961L15.7485 10.2489L15.7098 10.2172ZM15.8499 10.0455L15.8893 10.0777L15.8938 10.0695L15.8499 10.0455ZM16.4462 9.94885L16.414 9.98824L16.4222 9.99269L16.4462 9.94885ZM16.5429 10.5451L16.5041 10.5134L16.5027 10.5154L16.5429 10.5451ZM16.4362 10.6892L16.396 10.6595L16.3627 10.7045L16.4112 10.7325L16.4362 10.6892ZM16.9327 10.9844L16.9585 10.9416V10.9416L16.9327 10.9844ZM17.4292 11.2797L17.4042 11.323L17.4459 11.347L17.4716 11.3062L17.4292 11.2797ZM17.5753 11.0467L17.6178 11.0733L17.6192 11.0708L17.5753 11.0467ZM18.1716 10.9501L18.1394 10.9895L18.1475 10.9939L18.1716 10.9501ZM18.2682 11.5463L18.2292 11.5144L18.2259 11.5197L18.2682 11.5463ZM18.1952 11.6628L18.1528 11.6362L18.1235 11.6829L18.1728 11.7075L18.1952 11.6628ZM18.5965 11.8701L18.5733 11.9144V11.9144L18.5965 11.8701ZM19.2553 12.198L19.235 12.2437L19.2687 12.2587L19.293 12.2308L19.2553 12.198ZM19.429 11.9986L19.4676 12.0322L19.4729 12.0226L19.429 11.9986ZM20.0253 11.9019L19.9931 11.9413L20.0012 11.9458L20.0253 11.9019ZM20.1219 12.4982L20.1544 12.5375L20.1607 12.5298L20.1219 12.4982ZM20.0548 12.5535L20.023 12.5149L19.9624 12.5648L20.0333 12.5986L20.0548 12.5535ZM20.3557 12.6974L20.3341 12.7425V12.7425L20.3557 12.6974ZM21.3262 13.14L21.3116 13.188L21.3159 13.1889L21.3262 13.14ZM5.39413 10.2059L5.40594 10.1573L5.35505 10.1449L5.34505 10.1963L5.39413 10.2059ZM6.36363 10.9697L6.31996 10.9941L6.31996 10.9941L6.36363 10.9697ZM5.27322 10.8262L5.22414 10.8167V10.8167L5.27322 10.8262ZM4.39236 15.7614L4.34259 15.7565L4.33808 15.8031L4.38424 15.8107L4.39236 15.7614ZM5.37042 15.9266L5.37885 15.8773V15.8773L5.37042 15.9266ZM22.137 17.2032L22.1368 17.1532L22.1364 17.1532L22.137 17.2032ZM27.059 16.1358L27.0814 16.1805L27.1089 16.1668L27.109 16.1361L27.059 16.1358ZM26.1412 15.0893L26.1298 15.138L26.1304 15.1382L26.1412 15.0893ZM21.1266 13.9238L21.088 13.9555L21.0988 13.9686L21.1153 13.9725L21.1266 13.9238ZM21.0378 13.8843L21.0764 13.8525L21.0632 13.8365L21.0426 13.8345L21.0378 13.8843ZM19.5276 13.2128L19.5489 13.1675L19.5114 13.1499L19.4871 13.1835L19.5276 13.2128ZM18.9214 14.0498L18.8805 14.0202L18.8775 14.0258L18.9214 14.0498ZM18.3251 14.1464L18.3573 14.1071L18.3491 14.1026L18.3251 14.1464ZM18.2285 13.5502L18.2673 13.5819L18.2694 13.5789L18.2285 13.5502ZM18.6945 12.8849L18.7354 12.9136L18.7703 12.8639L18.7148 12.8392L18.6945 12.8849ZM18.0357 12.5571L18.0125 12.6013V12.6013L18.0357 12.5571ZM17.6344 12.3498L17.6567 12.305L17.6196 12.2865L17.5945 12.3196L17.6344 12.3498ZM17.0676 13.0979L17.0274 13.0674L17.0238 13.0739L17.0676 13.0979ZM16.4714 13.1946L16.5035 13.1552L16.4954 13.1507L16.4714 13.1946ZM16.3747 12.5983L16.4135 12.6299L16.4138 12.6296L16.3747 12.5983ZM16.902 11.939L16.941 11.9702L16.9774 11.9248L16.927 11.8957L16.902 11.939ZM15.909 11.3485L15.934 11.3052L15.8958 11.2832L15.8691 11.3183L15.909 11.3485ZM15.3423 12.0967L15.302 12.0662L15.2984 12.0727L15.3423 12.0967ZM14.746 12.1934L14.7782 12.154L14.7701 12.1495L14.746 12.1934ZM14.6494 11.5971L14.6881 11.6288L14.6896 11.6269L14.6494 11.5971ZM15.1825 10.8766L15.2227 10.9063L15.2752 10.8353L15.1873 10.8268L15.1825 10.8766ZM15.0937 10.8371L15.1328 10.8049L15.1265 10.7994L15.0937 10.8371ZM14.7778 10.5902L14.8076 10.5501V10.5501L14.7778 10.5902ZM14.462 10.3434L14.4949 10.3057L14.4936 10.3047L14.462 10.3434ZM14.0475 9.83992L14.0026 9.86202L14.0034 9.86351L14.0475 9.83992ZM13.246 8.86648L13.2509 8.81671V8.81671L13.246 8.86648ZM13.0426 9.37186L12.9938 9.38303L12.9943 9.38482L13.0426 9.37186ZM13.1788 9.87928L13.1305 9.89223L13.1306 9.89264L13.1788 9.87928ZM12.7048 10.9453L12.7274 10.9899L12.7284 10.9894L12.7048 10.9453ZM8.45988 12.3563L8.46352 12.3059L8.4561 12.3065L8.45988 12.3563ZM6.41701 11.0717L6.37253 11.0945V11.0945L6.41701 11.0717ZM6.36931 10.9799L6.4134 10.9563L6.41298 10.9556L6.36931 10.9799ZM23.4358 18.7808L23.4464 18.8297L23.447 18.8296L23.4358 18.7808ZM4.37226 18.1996L4.38237 18.1506L4.38157 18.1505L4.37226 18.1996ZM26.4449 17.3736L26.4782 17.4109L26.4294 17.326L26.4449 17.3736ZM22.1092 18.1272L22.1095 18.0771L22.1088 18.0772L22.1092 18.1272ZM5.22069 16.788L5.21207 16.8373H5.21207L5.22069 16.788ZM4.12571 16.6004L4.13376 16.551L4.09795 16.5452L4.08129 16.5774L4.12571 16.6004ZM5.75082 14.8119L5.73897 14.8607L5.74296 14.8613L5.75082 14.8119ZM7.24137 15.0491L7.2335 15.0985L7.23654 15.0988L7.24137 15.0491ZM5.39749 14.3144L5.44657 14.3263L5.44726 14.3192L5.39749 14.3144ZM5.89507 13.961L5.90294 13.9116L5.89989 13.9113L5.89507 13.961ZM7.38561 14.1982L7.37774 14.2476L7.38079 14.2479L7.38561 14.1982ZM7.73894 14.6957L7.7887 14.7006V14.7006L7.73894 14.6957ZM26.2795 14.2996L26.2909 14.251L21.6101 13.1486L21.5986 13.1973L21.5871 13.246L26.268 14.3483L26.2795 14.2996ZM27.8586 16.4913L27.9076 16.5011C27.9699 16.1878 27.9438 15.718 27.713 15.2797C27.4811 14.8395 27.0442 14.4341 26.2913 14.251L26.2795 14.2996L26.2677 14.3482C26.9934 14.5247 27.4063 14.9121 27.6245 15.3263C27.8437 15.7425 27.8678 16.1887 27.8095 16.4816L27.8586 16.4913ZM23.6312 19.6338L23.6429 19.6824C24.4689 19.4832 25.4828 19.1158 26.3158 18.586C27.1471 18.0573 27.8088 17.3598 27.9082 16.497L27.8586 16.4913L27.8089 16.4856C27.7147 17.3029 27.0849 17.9783 26.2621 18.5017C25.441 19.0239 24.4381 19.3877 23.6195 19.5851L23.6312 19.6338ZM4.20038 19.0169L4.1899 19.0658C7.61343 19.7997 11.6231 20.1341 15.2023 20.1951C18.7806 20.2561 21.9331 20.0439 23.6415 19.6827L23.6312 19.6338L23.6208 19.5848C21.9235 19.9437 18.7799 20.1561 15.204 20.0951C11.6288 20.0342 7.62603 19.7001 4.21086 18.968L4.20038 19.0169ZM3.47824 15.9508L3.43588 15.9242C2.95513 16.6905 2.85851 17.4146 3.02652 17.9799C3.19467 18.5457 3.62681 18.9474 4.19009 19.0659L4.20038 19.0169L4.21067 18.968C3.68418 18.8573 3.28032 18.4829 3.12238 17.9515C2.96431 17.4196 3.0515 16.7251 3.52059 15.9773L3.47824 15.9508ZM4.07862 12.3037L4.02944 12.2947C3.76119 13.7578 3.46561 15.3693 3.42834 15.9475L3.47824 15.9508L3.52813 15.954C3.56492 15.3834 3.85872 13.7804 4.1278 12.3128L4.07862 12.3037ZM4.4939 9.93329L4.44441 9.92611C4.37095 10.432 4.20597 11.3319 4.02944 12.2947L4.07862 12.3037L4.1278 12.3128C4.30414 11.351 4.46957 10.4487 4.54338 9.94048L4.4939 9.93329ZM5.41597 9.34312L5.42778 9.29453C4.97707 9.18494 4.51876 9.50152 4.44464 9.92467L4.4939 9.93329L4.54315 9.94192C4.60735 9.57537 5.00991 9.29584 5.40416 9.3917L5.41597 9.34312ZM7.06761 10.585L7.11203 10.562C6.97301 10.2931 6.83865 10.0322 6.59403 9.81107C6.3486 9.58919 5.99633 9.41063 5.42598 9.29413L5.41597 9.34312L5.40596 9.3921C5.96447 9.50619 6.29854 9.67875 6.52697 9.88525C6.75622 10.0925 6.88325 10.3372 7.02319 10.6079L7.06761 10.585ZM7.08405 10.6168L7.12846 10.5938C7.12297 10.5832 7.11749 10.5726 7.11203 10.562L7.06761 10.585L7.02319 10.6079C7.02866 10.6185 7.03414 10.6291 7.03965 10.6398L7.08405 10.6168ZM7.12041 10.6854L7.16464 10.6621C7.15233 10.6387 7.14017 10.6157 7.12814 10.5932L7.08405 10.6168L7.03997 10.6404C7.05182 10.6625 7.06383 10.6853 7.07617 10.7087L7.12041 10.6854ZM8.38695 11.5153L8.38263 11.4654C7.99901 11.4987 7.74688 11.3918 7.56554 11.2334C7.38157 11.0727 7.26707 10.8565 7.16464 10.6621L7.12041 10.6854L7.07617 10.7087C7.17736 10.9008 7.29961 11.1339 7.49975 11.3087C7.70251 11.4858 7.98184 11.6006 8.39127 11.5651L8.38695 11.5153ZM8.51844 11.5064L8.51535 11.4565C8.46929 11.4594 8.42527 11.4621 8.38305 11.4654L8.38695 11.5153L8.39085 11.5651C8.43211 11.5619 8.4753 11.5592 8.52153 11.5563L8.51844 11.5064ZM12.2528 10.1911L12.2293 10.1469C11.0764 10.7595 10.2807 11.0785 9.70733 11.2485C9.13499 11.4182 8.78307 11.44 8.51535 11.4565L8.51844 11.5064L8.52153 11.5563C8.7927 11.5396 9.15309 11.5172 9.73576 11.3444C10.3174 11.1719 11.1195 10.8498 12.2762 10.2352L12.2528 10.1911ZM12.2923 10.1022L12.2537 10.134C12.2551 10.1357 12.2527 10.1334 12.2525 10.1278C12.2524 10.1227 12.2543 10.1205 12.2531 10.1223C12.2518 10.1244 12.2488 10.1281 12.2427 10.1339C12.2367 10.1395 12.2297 10.1453 12.221 10.1525L12.2528 10.1911L12.2846 10.2297C12.2992 10.2177 12.3235 10.1984 12.3378 10.1755C12.3458 10.1627 12.353 10.1456 12.3525 10.125C12.3519 10.1039 12.3433 10.0855 12.3309 10.0705L12.2923 10.1022ZM12.1561 9.59483L12.1078 9.60779L12.244 10.1152L12.2923 10.1022L12.3406 10.0893L12.2044 9.58187L12.1561 9.59483ZM13.2679 8.00372L13.2727 7.95395C12.914 7.91919 12.5716 8.11596 12.3459 8.42551C12.1197 8.73575 12.0063 9.16452 12.1074 9.60599L12.1561 9.59483L12.2049 9.58367C12.1106 9.17222 12.2165 8.77281 12.4267 8.48442C12.6375 8.19532 12.9486 8.023 13.2631 8.05349L13.2679 8.00372ZM14.7681 9.41555L14.8119 9.39143C14.6406 9.08033 14.4246 8.73105 14.1687 8.45503C13.9136 8.17977 13.6124 7.97057 13.2703 7.95378L13.2679 8.00372L13.2654 8.05366C13.569 8.06856 13.8472 8.25528 14.0954 8.52302C14.3429 8.79001 14.5542 9.1308 14.7243 9.43967L14.7681 9.41555ZM14.9892 9.68409L15.0278 9.65231L14.8067 9.38377L14.7681 9.41555L14.7295 9.44733L14.9506 9.71587L14.9892 9.68409ZM15.5933 10.1442L15.6199 10.1018C15.3901 9.9577 15.2206 9.81943 15.0221 9.64639L14.9892 9.68409L14.9564 9.72178C15.1566 9.89627 15.3306 10.0384 15.5667 10.1865L15.5933 10.1442ZM15.6515 10.1807L15.6718 10.135C15.6467 10.1238 15.6367 10.1183 15.6319 10.1124L15.5933 10.1442L15.5547 10.176C15.5775 10.2036 15.612 10.2178 15.6312 10.2264L15.6515 10.1807ZM15.7098 10.2172L15.7484 10.1855C15.7256 10.1578 15.6911 10.1436 15.6718 10.135L15.6515 10.1807L15.6312 10.2264C15.6564 10.2376 15.6663 10.2431 15.6712 10.249L15.7098 10.2172ZM15.8499 10.0455L15.8112 10.0139L15.671 10.1856L15.7098 10.2172L15.7485 10.2489L15.8887 10.0771L15.8499 10.0455ZM16.4462 9.94885L16.4778 9.91012C16.3794 9.82981 16.2439 9.80046 16.1189 9.8181C15.9936 9.83579 15.8717 9.90192 15.8061 10.0215L15.8499 10.0455L15.8938 10.0695C15.9408 9.98378 16.0311 9.93148 16.1329 9.91712C16.2349 9.90272 16.3412 9.92769 16.4146 9.98758L16.4462 9.94885ZM16.5429 10.5451L16.5816 10.5767C16.6619 10.4783 16.6912 10.3428 16.6736 10.2178C16.6559 10.0925 16.5898 9.97055 16.4702 9.90501L16.4462 9.94885L16.4222 9.99269C16.5079 10.0397 16.5602 10.13 16.5746 10.2318C16.589 10.3338 16.564 10.4401 16.5041 10.5135L16.5429 10.5451ZM16.4362 10.6892L16.4764 10.7189L16.583 10.5748L16.5429 10.5451L16.5027 10.5154L16.396 10.6595L16.4362 10.6892ZM16.9327 10.9844L16.9585 10.9416C16.7908 10.8405 16.6226 10.739 16.4612 10.6459L16.4362 10.6892L16.4112 10.7325C16.5716 10.825 16.739 10.926 16.9069 11.0273L16.9327 10.9844ZM17.4292 11.2797L17.4542 11.2364C17.2938 11.1438 17.1264 11.0429 16.9585 10.9416L16.9327 10.9844L16.9069 11.0273C17.0746 11.1284 17.2428 11.2299 17.4042 11.323L17.4292 11.2797ZM17.5753 11.0467L17.533 11.0201L17.3868 11.2531L17.4292 11.2797L17.4716 11.3062L17.6177 11.0733L17.5753 11.0467ZM18.1716 10.9501L18.2032 10.9113C18.1048 10.831 17.9693 10.8017 17.8443 10.8193C17.719 10.837 17.597 10.9031 17.5315 11.0227L17.5753 11.0467L17.6192 11.0708C17.6662 10.985 17.7565 10.9327 17.8582 10.9183C17.9603 10.9039 18.0666 10.9289 18.14 10.9888L18.1716 10.9501ZM18.2682 11.5463L18.307 11.5779C18.3873 11.4796 18.4166 11.344 18.399 11.219C18.3813 11.0937 18.3152 10.9718 18.1956 10.9062L18.1716 10.9501L18.1475 10.9939C18.2333 11.0409 18.2856 11.1313 18.3 11.233C18.3144 11.335 18.2894 11.4413 18.2295 11.5147L18.2682 11.5463ZM18.1952 11.6628L18.2375 11.6894L18.3106 11.5729L18.2682 11.5463L18.2259 11.5197L18.1528 11.6362L18.1952 11.6628ZM18.5965 11.8701L18.6198 11.8258C18.4912 11.7583 18.3585 11.6886 18.2175 11.6181L18.1952 11.6628L18.1728 11.7075C18.3127 11.7775 18.4445 11.8467 18.5733 11.9144L18.5965 11.8701ZM19.2553 12.198L19.2756 12.1523C19.0523 12.053 18.8422 11.9426 18.6198 11.8258L18.5965 11.8701L18.5733 11.9144C18.7952 12.0309 19.0082 12.1428 19.235 12.2437L19.2553 12.198ZM19.429 11.9986L19.3913 11.9657L19.2176 12.1651L19.2553 12.198L19.293 12.2308L19.4667 12.0314L19.429 11.9986ZM20.0253 11.9019L20.0569 11.8632C19.9585 11.7829 19.823 11.7535 19.698 11.7712C19.5727 11.7889 19.4507 11.855 19.3852 11.9746L19.429 11.9986L19.4729 12.0226C19.5199 11.9369 19.6102 11.8846 19.712 11.8702C19.814 11.8558 19.9203 11.8808 19.9937 11.9407L20.0253 11.9019ZM20.1219 12.4982L20.1607 12.5298C20.241 12.4314 20.2703 12.2959 20.2527 12.1709C20.235 12.0456 20.1689 11.9236 20.0493 11.8581L20.0253 11.9019L20.0012 11.9458C20.087 11.9928 20.1393 12.0831 20.1537 12.1849C20.1681 12.2869 20.1431 12.3932 20.0832 12.4666L20.1219 12.4982ZM20.0548 12.5535L20.0866 12.5921L20.1537 12.5368L20.1219 12.4982L20.0902 12.4596L20.023 12.5149L20.0548 12.5535ZM20.3557 12.6974L20.3773 12.6523C20.2821 12.6067 20.1815 12.5586 20.0763 12.5083L20.0548 12.5535L20.0333 12.5986C20.1384 12.6488 20.2389 12.6969 20.3341 12.7425L20.3557 12.6974ZM21.3262 13.14L21.3407 13.0921C21.2818 13.0743 21.1658 13.0244 20.9996 12.9476C20.8347 12.8714 20.6239 12.7704 20.3773 12.6523L20.3557 12.6974L20.3341 12.7425C20.5805 12.8605 20.792 12.9618 20.9577 13.0383C21.122 13.1143 21.2448 13.1676 21.3117 13.1879L21.3262 13.14ZM21.5986 13.1973L21.6089 13.1484L21.3365 13.0911L21.3262 13.14L21.3159 13.1889L21.5883 13.2462L21.5986 13.1973ZM5.39413 10.2059L5.38232 10.2545C5.69302 10.33 5.86813 10.414 5.99407 10.526C6.12124 10.639 6.20252 10.7836 6.31996 10.9941L6.36363 10.9697L6.40729 10.9454C6.29186 10.7385 6.2027 10.5776 6.06049 10.4512C5.91707 10.3238 5.72387 10.2346 5.40594 10.1573L5.39413 10.2059ZM5.27322 10.8262L5.32229 10.8358C5.3628 10.6281 5.40323 10.4209 5.44321 10.2154L5.39413 10.2059L5.34505 10.1963C5.30507 10.4017 5.26465 10.609 5.22414 10.8167L5.27322 10.8262ZM4.39236 15.7614L4.44213 15.7662C4.52254 14.9365 4.92604 12.8674 5.32229 10.8358L5.27322 10.8262L5.22414 10.8167C4.82857 12.8447 4.42361 14.9206 4.34259 15.7565L4.39236 15.7614ZM5.37042 15.9266L5.37885 15.8773C5.03458 15.8185 4.70926 15.7629 4.40048 15.712L4.39236 15.7614L4.38424 15.8107C4.69265 15.8615 5.01766 15.917 5.36199 15.9759L5.37042 15.9266ZM22.137 17.2032L22.1364 17.1532C13.4802 17.2625 8.59464 16.4271 5.37885 15.8773L5.37042 15.9266L5.36199 15.9759C8.58102 16.5263 13.4731 17.3626 22.1376 17.2532L22.137 17.2032ZM27.059 16.1358L27.0367 16.0911C26.3455 16.4371 25.2755 16.7025 24.2973 16.8816C23.3194 17.0607 22.4413 17.1523 22.1368 17.1532L22.137 17.2032L22.1372 17.2532C22.4506 17.2522 23.3356 17.1594 24.3153 16.98C25.2946 16.8006 26.3767 16.5333 27.0814 16.1805L27.059 16.1358ZM26.1412 15.0893L26.1304 15.1382C26.4972 15.2187 26.7157 15.3887 26.8431 15.5756C26.9712 15.7637 27.01 15.9732 27.009 16.1355L27.059 16.1358L27.109 16.1361C27.1101 15.9589 27.068 15.7281 26.9257 15.5193C26.7827 15.3094 26.5412 15.1259 26.1519 15.0405L26.1412 15.0893ZM21.1266 13.9238L21.1153 13.9725L26.1298 15.138L26.1412 15.0893L26.1525 15.0406L21.138 13.8751L21.1266 13.9238ZM21.0822 13.904L21.0774 13.9538C21.0815 13.9542 21.0838 13.9544 21.0858 13.9547C21.0876 13.955 21.0882 13.9552 21.0882 13.9553C21.0883 13.9553 21.0881 13.9552 21.088 13.9551C21.0878 13.955 21.0876 13.9549 21.0874 13.9548C21.0871 13.9546 21.0873 13.9546 21.088 13.9555L21.1266 13.9238L21.1652 13.892C21.1375 13.8582 21.1031 13.8558 21.087 13.8542L21.0822 13.904ZM21.0378 13.8843L20.9992 13.916C21.027 13.9498 21.0614 13.9522 21.0774 13.9538L21.0822 13.904L21.087 13.8542C21.083 13.8539 21.0807 13.8536 21.0787 13.8533C21.0769 13.853 21.0763 13.8528 21.0762 13.8528C21.0762 13.8528 21.0763 13.8528 21.0765 13.8529C21.0767 13.853 21.0769 13.8531 21.077 13.8532C21.0774 13.8535 21.0772 13.8534 21.0764 13.8525L21.0378 13.8843ZM19.5276 13.2128L19.5063 13.258C19.9201 13.4527 20.2827 13.6192 20.5496 13.7379C20.683 13.7972 20.7929 13.8447 20.8733 13.8778C20.9135 13.8943 20.9468 13.9074 20.9722 13.9167C20.9849 13.9213 20.9961 13.9251 21.0054 13.9279C21.0138 13.9304 21.0239 13.9331 21.033 13.934L21.0378 13.8843L21.0426 13.8345C21.0441 13.8346 21.0421 13.8345 21.0343 13.8321C21.0274 13.8301 21.0181 13.8269 21.0063 13.8227C20.9828 13.8141 20.951 13.8016 20.9114 13.7853C20.8322 13.7527 20.7233 13.7057 20.5902 13.6465C20.3242 13.5282 19.9622 13.362 19.5489 13.1675L19.5276 13.2128ZM18.9214 14.0498L18.9618 14.0791L19.5681 13.2421L19.5276 13.2128L19.4871 13.1835L18.8809 14.0205L18.9214 14.0498ZM18.3251 14.1464L18.2935 14.1852C18.3919 14.2655 18.5274 14.2948 18.6524 14.2772C18.7777 14.2595 18.8997 14.1934 18.9652 14.0738L18.9214 14.0498L18.8775 14.0258C18.8305 14.1115 18.7402 14.1638 18.6384 14.1782C18.5364 14.1926 18.4301 14.1676 18.3567 14.1077L18.3251 14.1464ZM18.2285 13.5502L18.1897 13.5186C18.1094 13.617 18.0801 13.7525 18.0977 13.8775C18.1154 14.0028 18.1815 14.1247 18.3011 14.1903L18.3251 14.1464L18.3491 14.1026C18.2634 14.0556 18.2111 13.9653 18.1967 13.8635C18.1823 13.7615 18.2073 13.6552 18.2672 13.5818L18.2285 13.5502ZM18.6945 12.8849L18.6535 12.8562L18.1875 13.5215L18.2285 13.5502L18.2694 13.5789L18.7354 12.9136L18.6945 12.8849ZM18.0357 12.5571L18.0125 12.6013C18.2344 12.7179 18.4474 12.8298 18.6742 12.9306L18.6945 12.8849L18.7148 12.8392C18.4915 12.74 18.2814 12.6296 18.059 12.5128L18.0357 12.5571ZM17.6344 12.3498L17.612 12.3945C17.7519 12.4645 17.8837 12.5337 18.0125 12.6013L18.0357 12.5571L18.059 12.5128C17.9304 12.4452 17.7977 12.3755 17.6567 12.305L17.6344 12.3498ZM17.0676 13.0979L17.1075 13.1281L17.6742 12.3799L17.6344 12.3498L17.5945 12.3196L17.0278 13.0677L17.0676 13.0979ZM16.4714 13.1946L16.4398 13.2333C16.5381 13.3136 16.6737 13.343 16.7987 13.3253C16.924 13.3076 17.0459 13.2415 17.1115 13.122L17.0676 13.0979L17.0238 13.0739C16.9768 13.1596 16.8864 13.2119 16.7847 13.2263C16.6827 13.2407 16.5764 13.2157 16.503 13.1558L16.4714 13.1946ZM16.3747 12.5983L16.336 12.5667C16.2557 12.6651 16.2263 12.8006 16.244 12.9256C16.2617 13.0509 16.3278 13.1729 16.4474 13.2384L16.4714 13.1946L16.4954 13.1507C16.4097 13.1037 16.3574 13.0134 16.343 12.9117C16.3286 12.8096 16.3536 12.7033 16.4135 12.6299L16.3747 12.5983ZM16.902 11.939L16.8629 11.9078L16.3357 12.5671L16.3747 12.5983L16.4138 12.6296L16.941 11.9702L16.902 11.939ZM16.4055 11.6438L16.3797 11.6866C16.5474 11.7877 16.7156 11.8892 16.877 11.9823L16.902 11.939L16.927 11.8957C16.7666 11.8032 16.5992 11.7022 16.4313 11.601L16.4055 11.6438ZM15.909 11.3485L15.884 11.3918C16.0444 11.4844 16.2118 11.5853 16.3797 11.6866L16.4055 11.6438L16.4313 11.601C16.2636 11.4998 16.0954 11.3983 15.934 11.3052L15.909 11.3485ZM15.3423 12.0967L15.3821 12.1269L15.9488 11.3787L15.909 11.3485L15.8691 11.3183L15.3024 12.0665L15.3423 12.0967ZM14.746 12.1934L14.7144 12.2321C14.8128 12.3124 14.9483 12.3418 15.0733 12.3241C15.1986 12.3064 15.3206 12.2403 15.3861 12.1207L15.3423 12.0967L15.2984 12.0727C15.2514 12.1584 15.1611 12.2107 15.0593 12.2251C14.9573 12.2395 14.851 12.2145 14.7776 12.1546L14.746 12.1934ZM14.6494 11.5971L14.6106 11.5655C14.5303 11.6639 14.501 11.7994 14.5186 11.9244C14.5363 12.0497 14.6024 12.1717 14.722 12.2372L14.746 12.1934L14.7701 12.1495C14.6843 12.1025 14.632 12.0122 14.6176 11.9104C14.6032 11.8084 14.6282 11.7021 14.6881 11.6287L14.6494 11.5971ZM15.1825 10.8766L15.1423 10.8468L14.6092 11.5674L14.6494 11.5971L14.6896 11.6269L15.2227 10.9063L15.1825 10.8766ZM15.0937 10.8371L15.0551 10.8689C15.0665 10.8827 15.0811 10.9022 15.1052 10.9129C15.1168 10.918 15.1285 10.9204 15.1393 10.9221C15.1499 10.9237 15.1629 10.9249 15.1777 10.9263L15.1825 10.8766L15.1873 10.8268C15.1715 10.8253 15.1616 10.8243 15.1541 10.8232C15.1468 10.8221 15.1454 10.8213 15.1458 10.8215C15.1478 10.8224 15.1485 10.825 15.1323 10.8053L15.0937 10.8371ZM14.7778 10.5902L14.7481 10.6304C14.8565 10.7106 14.9629 10.7894 15.0608 10.8748L15.0937 10.8371L15.1265 10.7994C15.0251 10.711 14.9154 10.6298 14.8076 10.5501L14.7778 10.5902ZM14.462 10.3434L14.4291 10.3811C14.5306 10.4695 14.6403 10.5507 14.7481 10.6304L14.7778 10.5902L14.8076 10.5501C14.6992 10.4699 14.5928 10.3911 14.4948 10.3057L14.462 10.3434ZM14.0475 9.83992L14.0034 9.86351C14.1111 10.0648 14.2535 10.2378 14.4304 10.3822L14.462 10.3434L14.4936 10.3047C14.327 10.1687 14.193 10.006 14.0915 9.81632L14.0475 9.83992ZM13.246 8.86648L13.2412 8.91624C13.2585 8.91792 13.2941 8.93139 13.3469 8.96863C13.3979 9.00468 13.4602 9.05953 13.5299 9.13592C13.6693 9.2886 13.8366 9.52489 14.0026 9.86201L14.0475 9.83992L14.0923 9.81782C13.9228 9.47376 13.7506 9.22927 13.6038 9.06849C13.5304 8.98815 13.4628 8.9281 13.4046 8.88695C13.348 8.847 13.2948 8.82097 13.2509 8.81671L13.246 8.86648ZM13.0426 9.37186L13.0914 9.3607C13.0612 9.22921 13.0804 9.11138 13.1192 9.0295C13.1386 8.98844 13.1622 8.958 13.1852 8.93906C13.2085 8.91995 13.2278 8.91494 13.2412 8.91624L13.246 8.86648L13.2509 8.81671C13.2031 8.81208 13.1583 8.83175 13.1217 8.86186C13.0849 8.89214 13.0531 8.93549 13.0288 8.98671C12.9802 9.08941 12.9589 9.23022 12.9939 9.38303L13.0426 9.37186ZM13.1788 9.87928L13.2271 9.86632L13.0909 9.35891L13.0426 9.37186L12.9943 9.38482L13.1305 9.89223L13.1788 9.87928ZM12.7048 10.9453L12.7284 10.9894C13.1389 10.7697 13.348 10.3022 13.227 9.86591L13.1788 9.87928L13.1306 9.89264C13.2385 10.2816 13.0526 10.7025 12.6812 10.9012L12.7048 10.9453ZM8.45988 12.3563L8.45627 12.4062C9.09677 12.4525 9.89877 12.2323 10.6698 11.9359C11.4425 11.6388 12.1914 11.2622 12.7274 10.9899L12.7048 10.9453L12.6821 10.9007C12.146 11.1731 11.4013 11.5475 10.6339 11.8426C9.86498 12.1382 9.08059 12.3511 8.46349 12.3064L8.45988 12.3563ZM6.41701 11.0717L6.37253 11.0945C6.48706 11.3175 6.66863 11.6718 6.99217 11.9567C7.31756 12.2432 7.78412 12.4576 8.46365 12.4062L8.45988 12.3563L8.4561 12.3065C7.8044 12.3558 7.36417 12.151 7.05825 11.8816C6.75049 11.6106 6.57624 11.2722 6.46149 11.0488L6.41701 11.0717ZM6.36931 10.9799L6.32523 11.0035C6.33962 11.0304 6.35523 11.0608 6.37253 11.0945L6.41701 11.0717L6.46149 11.0488C6.44429 11.0153 6.42827 10.9841 6.4134 10.9563L6.36931 10.9799ZM6.36363 10.9697L6.31996 10.9941L6.32565 11.0043L6.36931 10.9799L6.41298 10.9556L6.40729 10.9454L6.36363 10.9697ZM23.4358 18.7808L23.4253 18.732C21.8059 19.0829 18.8085 19.3017 15.3321 19.2504C11.8565 19.1991 7.90637 18.8779 4.38237 18.1506L4.37226 18.1996L4.36216 18.2486C7.89403 18.9774 11.8508 19.299 15.3306 19.3504C18.8096 19.4017 21.816 19.1831 23.4464 18.8297L23.4358 18.7808ZM26.4449 17.3736L26.4116 17.3363C26.0118 17.6932 25.4312 18.0044 24.8652 18.2459C24.2997 18.4871 23.7532 18.6569 23.4247 18.7321L23.4358 18.7808L23.447 18.8296C23.7819 18.7529 24.3341 18.5812 24.9044 18.3379C25.4741 18.0949 26.0664 17.7785 26.4782 17.4109L26.4449 17.3736ZM22.1092 18.1272L22.1089 18.1772C22.4527 18.1792 23.1732 18.1092 23.9895 17.9796C24.8063 17.85 25.7233 17.6601 26.4603 17.4212L26.4449 17.3736L26.4294 17.326C25.6995 17.5627 24.7882 17.7516 23.9738 17.8809C23.1588 18.0102 22.4449 18.0792 22.1095 18.0772L22.1092 18.1272ZM5.22069 16.788L5.21207 16.8373C8.20559 17.3609 13.2732 18.2473 22.1096 18.1772L22.1092 18.1272L22.1088 18.0772C13.2807 18.1472 8.21954 17.2618 5.2293 16.7388L5.22069 16.788ZM4.12571 16.6004L4.11766 16.6497C4.44783 16.7036 4.81116 16.7672 5.21207 16.8373L5.22069 16.788L5.2293 16.7388C4.82854 16.6687 4.46461 16.605 4.13376 16.551L4.12571 16.6004ZM4.37226 18.1996L4.38157 18.1505C4.22652 18.1211 4.12035 18.0488 4.0502 17.9501C3.97923 17.8503 3.94244 17.7197 3.93464 17.5706C3.91899 17.2715 4.02077 16.9123 4.17012 16.6234L4.12571 16.6004L4.08129 16.5774C3.92652 16.8768 3.81793 17.2539 3.83477 17.5758C3.84321 17.7371 3.88338 17.8881 3.96871 18.0081C4.05487 18.1292 4.18435 18.2149 4.36295 18.2487L4.37226 18.1996ZM5.75082 14.8119L5.74296 14.8613L7.23351 15.0984L7.24137 15.0491L7.24922 14.9997L5.75867 14.7625L5.75082 14.8119ZM5.39749 14.3144L5.34891 14.3025C5.31869 14.4268 5.36131 14.5534 5.43561 14.653C5.50999 14.7526 5.62066 14.8317 5.73901 14.8605L5.75082 14.8119L5.76263 14.7633C5.66974 14.7408 5.57807 14.6767 5.51575 14.5932C5.45336 14.5096 5.42494 14.4131 5.44608 14.3262L5.39749 14.3144ZM5.89507 13.961L5.89989 13.9113C5.6374 13.8858 5.37498 14.0284 5.34773 14.3095L5.39749 14.3144L5.44726 14.3192C5.46746 14.1107 5.66312 13.9888 5.89024 14.0108L5.89507 13.961ZM7.38561 14.1982L7.39347 14.1488L5.90292 13.9116L5.89507 13.961L5.88721 14.0104L7.37776 14.2475L7.38561 14.1982ZM7.73894 14.6957L7.7887 14.7006C7.81415 14.4381 7.6716 14.1756 7.39044 14.1484L7.38561 14.1982L7.38079 14.2479C7.58924 14.2681 7.71118 14.4638 7.68917 14.6909L7.73894 14.6957ZM7.24137 15.0491L7.23654 15.0988C7.49903 15.1243 7.76145 14.9817 7.7887 14.7006L7.73894 14.6957L7.68917 14.6909C7.66897 14.8994 7.47332 15.0213 7.24619 14.9993L7.24137 15.0491Z" fill="white"/>
</svg>
