<svg width="30" height="30" viewBox="0 0 30 30" fill="none" xmlns="http://www.w3.org/2000/svg">
<circle cx="15" cy="15" r="15" fill="#0091B3"/>
<path d="M8 14C9.09375 14 10 13.125 10 12C10 10.9062 9.09375 10 8 10C6.875 10 6 10.9062 6 12C6 13.125 6.875 14 8 14ZM22 14C23.0938 14 24 13.125 24 12C24 10.9062 23.0938 10 22 10C20.875 10 20 10.9062 20 12C20 13.125 20.875 14 22 14ZM23 15H21C20.4375 15 19.9375 15.25 19.5625 15.5938C20.8438 16.2812 21.7188 17.5312 21.9375 19H24C24.5312 19 25 18.5625 25 18V17C25 15.9062 24.0938 15 23 15ZM15 15C16.9062 15 18.5 13.4375 18.5 11.5C18.5 9.59375 16.9062 8 15 8C13.0625 8 11.5 9.59375 11.5 11.5C11.5 13.4375 13.0625 15 15 15ZM17.375 16H17.125C16.4688 16.3125 15.75 16.5 15 16.5C14.2188 16.5 13.5 16.3125 12.8438 16H12.5938C10.5938 16 9 17.625 9 19.625V20.5C9 21.3438 9.65625 22 10.5 22H19.5C20.3125 22 21 21.3438 21 20.5V19.625C21 17.625 19.375 16 17.375 16ZM10.4062 15.5938C10.0312 15.25 9.53125 15 9 15H7C5.875 15 5 15.9062 5 17V18C5 18.5625 5.4375 19 6 19H8.03125C8.25 17.5312 9.125 16.2812 10.4062 15.5938Z" fill="white"/>
</svg>
