<svg width="30" height="30" viewBox="0 0 30 30" fill="none" xmlns="http://www.w3.org/2000/svg">
<path d="M29.7491 14.1094L28.398 11.9122C28.2243 11.6302 28.1382 11.3052 28.1462 10.9753L28.2179 8.39582C28.2354 7.75532 27.8913 7.15945 27.3273 6.85513L25.0584 5.62671C24.7684 5.47057 24.5294 5.23157 24.3733 4.94159L23.1449 2.67275C22.8406 2.10873 22.2447 1.76456 21.6042 1.78209L19.0247 1.85379C18.6948 1.86176 18.3698 1.77572 18.0878 1.60205L15.8891 0.250942H15.8907C15.3442 -0.0836474 14.6559 -0.0836474 14.1094 0.250942L11.9122 1.60205C11.6302 1.77572 11.3052 1.86176 10.9753 1.85379L8.39582 1.78209C7.75532 1.76457 7.15945 2.10872 6.85513 2.67275L5.62671 4.94159C5.47057 5.23157 5.23157 5.47057 4.94159 5.62671L2.67275 6.85513C2.10873 7.15944 1.76456 7.75532 1.78209 8.39582L1.85379 10.9753C1.86176 11.3052 1.77572 11.6302 1.60205 11.9122L0.250942 14.1109V14.1093C-0.0836474 14.6558 -0.0836474 15.3441 0.250942 15.8907L1.60205 18.0878C1.77572 18.3698 1.86176 18.6948 1.85379 19.0247L1.78369 21.6042H1.78209C1.76457 22.2447 2.10872 22.8406 2.67274 23.1449L4.94159 24.3733C5.23157 24.5294 5.47057 24.7684 5.62671 25.0584L6.85513 27.3273C7.15944 27.8913 7.75532 28.2354 8.39582 28.2179L10.9753 28.1462C11.3052 28.1382 11.6302 28.2243 11.9122 28.3979L14.1109 29.7491H14.1093C14.6558 30.0836 15.3441 30.0836 15.8907 29.7491L18.0894 28.3979H18.0878C18.3698 28.2243 18.6948 28.1382 19.0247 28.1462L21.6042 28.2179C22.2447 28.2354 22.8406 27.8913 23.1449 27.3273L24.3733 25.0584C24.5294 24.7684 24.7684 24.5294 25.0584 24.3733L27.3273 23.1449C27.8913 22.8406 28.2354 22.2447 28.2179 21.6042L28.1462 19.0247C28.1382 18.6948 28.2243 18.3698 28.3979 18.0878L29.7491 15.8891V15.8907C30.0836 15.3442 30.0836 14.6559 29.7491 14.1094H29.7491Z" fill="#D4AF37"/>
<path d="M20.1557 19.6873C20.437 19.6873 20.6244 19.8754 20.625 20.1561V21.5625H9.3757V20.1561C9.3757 19.8747 9.56308 19.6873 9.84445 19.6873H20.1557ZM15.234 7.5C15.8907 7.5 16.4061 8.01549 16.4061 8.67168C16.4061 9.09379 16.2188 9.42186 15.8907 9.65596C17.3436 10.8277 17.5783 14.6247 17.1096 16.8746H18.0471C18.4691 14.812 18.2817 12.562 17.719 10.9216C18.0471 10.8276 18.3751 10.7809 18.7499 10.7809C20.8117 10.7809 22.4994 12.4687 22.5 14.5318C22.5 15.8908 21.7498 17.1099 20.625 17.7661V18.2816C20.625 18.5162 20.4376 18.7503 20.1562 18.7503H9.84441C9.60974 18.7503 9.37567 18.5156 9.37567 18.2816L9.37505 17.7654C8.25011 17.1093 7.5 15.9376 7.5 14.5312C7.5 12.4687 9.18764 10.7809 11.2499 10.7809C11.766 10.7809 12.2347 10.8749 12.7029 11.0623C12.1401 12.7495 12.0467 14.9527 12.4215 16.8746H13.359C12.8902 14.7654 13.0782 10.8749 14.5778 9.65596C14.2498 9.42186 14.0624 9.09377 14.0624 8.67168C14.0624 8.01549 14.5778 7.5 15.234 7.5Z" fill="white"/>
</svg>
