<svg width="30" height="30" viewBox="0 0 30 30" fill="none" xmlns="http://www.w3.org/2000/svg">
<circle cx="15" cy="15" r="15" fill="#22C4EF"/>
<path d="M5.83008 21V10.4312H10.3784C12.7441 10.4312 14.2676 11.9106 14.2676 14.1738V14.1885C14.2676 16.4517 12.7441 17.9019 10.3784 17.9019H8.51807V21H5.83008ZM9.73389 12.4893H8.51807V15.8804H9.73389C10.8765 15.8804 11.5503 15.2871 11.5503 14.1885V14.1738C11.5503 13.0752 10.8765 12.4893 9.73389 12.4893ZM16.2451 21V10.4312H20.7935C23.1592 10.4312 24.6826 11.9106 24.6826 14.1738V14.1885C24.6826 16.4517 23.1592 17.9019 20.7935 17.9019H18.9331V21H16.2451ZM20.1489 12.4893H18.9331V15.8804H20.1489C21.2915 15.8804 21.9653 15.2871 21.9653 14.1885V14.1738C21.9653 13.0752 21.2915 12.4893 20.1489 12.4893Z" fill="white"/>
</svg>
