<svg width="31" height="30" viewBox="0 0 31 30" fill="none" xmlns="http://www.w3.org/2000/svg">
<circle cx="15.0117" cy="15" r="15" fill="#F18079"/>
<circle cx="15.0117" cy="15" r="15" fill="#FF9F99"/>
<path d="M0.0117188 15C0.0117188 23.2843 6.72472 30 15.0056 30V22L16.505 14.5L15.0056 10V0C6.72472 0 0.0117188 6.71573 0.0117188 15Z" fill="#89D8E8"/>
<mask id="mask0_5322_3966" style="mask-type:alpha" maskUnits="userSpaceOnUse" x="0" y="7" width="23" height="19">
<path d="M10.2131 9.55055C9.99558 9.55061 9.78218 9.49108 9.59606 9.37842C9.40995 9.26576 9.25822 9.10427 9.15734 8.91146C8.85058 8.30377 8.34865 7.81678 7.7321 7.52864C7.11554 7.24051 6.42011 7.16793 5.75738 7.32255C5.09466 7.47718 4.50307 7.85003 4.07754 8.3813C3.65201 8.91258 3.41722 9.57146 3.41084 10.2522V12.1278C3.41084 12.3853 3.3601 12.6404 3.26153 12.8784C3.16295 13.1163 3.01846 13.3325 2.83633 13.5146C2.6542 13.6966 2.438 13.841 2.20007 13.9394C1.96214 14.0379 1.70715 14.0884 1.44967 14.0882C1.04906 14.0882 0.652363 14.0093 0.282259 13.8559C-0.0878458 13.7024 0.0123673 13.5 0.0123673 13.5L0.0124271 15C0.0124271 15 0.0122315 15.9008 0.0124271 15.5C0.0124271 15.5 0.00857567 15.8048 0.0124271 16C0.0307534 16.9289 0.282395 18.3637 0.282395 18.3637H2.33867C3.405 18.3637 4.42767 17.94 5.18168 17.1857C5.93569 16.4313 6.35928 15.4083 6.35928 14.3415V13.2406C6.3596 12.9484 6.46815 12.6667 6.66397 12.4499C6.85979 12.233 7.12898 12.0965 7.41953 12.0667L13.4773 11.4514C11.4967 13.7039 9.62938 16.3854 9.3673 19.4632C9.35687 19.5868 9.35092 19.7105 9.34943 19.8326C9.34794 19.9548 9.33751 20.0546 9.33751 20.1678C9.33644 21.1378 9.5863 22.0915 10.0628 22.9362C10.5393 23.781 11.2261 24.488 12.0566 24.9885C12.6405 25.4042 13.3248 25.6562 14.0387 25.7185C14.6403 25.8158 15.2537 25.8158 15.8554 25.7185C16.6178 25.6947 17.4606 25.3386 18.2231 24.7427C18.8753 24.277 19.4205 23.6771 19.8222 22.9834C20.2238 22.2898 20.4727 21.5182 20.552 20.7205C20.6094 20.3029 20.6204 19.8802 20.5848 19.4602C20.3123 16.2513 18.296 13.4789 16.2306 11.1669L21.4008 10.6425C21.6279 10.6181 21.8372 10.5085 21.9864 10.3356C22.1357 10.1628 22.2138 9.93969 22.205 9.71144L10.2131 9.55055ZM15.2895 16.9485C15.2535 16.9984 15.2061 17.0389 15.1514 17.0669C15.0966 17.0949 15.036 17.1095 14.9746 17.1095C14.9131 17.1095 14.8525 17.0949 14.7977 17.0669C14.743 17.0389 14.6956 16.9984 14.6596 16.9485C14.1384 16.2117 13.8584 15.3313 13.8584 14.4286C13.8584 13.526 14.1384 12.6456 14.6596 11.9088C14.6956 11.8589 14.743 11.8184 14.7977 11.7904C14.8525 11.7624 14.9131 11.7478 14.9746 11.7478C15.036 11.7478 15.0966 11.7624 15.1514 11.7904C15.2061 11.8184 15.2535 11.8589 15.2895 11.9088C15.8097 12.646 16.089 13.5262 16.089 14.4286C16.089 15.331 15.8097 16.2113 15.2895 16.9485Z" fill="white"/>
</mask>
<g mask="url(#mask0_5322_3966)">
<ellipse cx="15.0066" cy="15" rx="14.9939" ry="15" fill="white"/>
</g>
<path d="M16.2335 5.99779C15.5076 6.72379 15.0614 7.683 14.9737 8.7061C14.8836 7.65872 14.4182 6.6792 13.6632 5.948C12.9082 5.2168 11.9146 4.78318 10.8652 4.72705V4.72705C10.9211 5.7735 11.352 6.76478 12.0789 7.51933C12.8058 8.27389 13.7801 8.74121 14.8233 8.8357C14.8695 8.8357 15.1405 8.8357 15.2194 8.82527C16.2437 8.70969 17.1938 8.23446 17.9008 7.48407C18.6078 6.73368 19.0259 5.75677 19.0807 4.72705C18.0074 4.78455 16.9932 5.23716 16.2335 5.99779V5.99779Z" fill="white"/>
</svg>
