<svg width="30" height="30" viewBox="0 0 30 30" fill="none" xmlns="http://www.w3.org/2000/svg">
<circle cx="15" cy="15" r="15" fill="#9EDA32"/>
<path d="M12.3244 22H9.2284V13.954L7.2124 15.988L5.4484 14.134L9.6424 9.994H12.3244V22ZM21.2932 21.694C20.6332 22.042 19.8772 22.216 19.0252 22.216C18.1732 22.216 17.4112 22.042 16.7392 21.694C16.0792 21.346 15.5392 20.878 15.1192 20.29C14.7112 19.702 14.3992 19.048 14.1832 18.328C13.9792 17.596 13.8772 16.822 13.8772 16.006C13.8772 14.902 14.0572 13.894 14.4172 12.982C14.7772 12.07 15.3532 11.314 16.1452 10.714C16.9492 10.114 17.9092 9.814 19.0252 9.814C20.1412 9.814 21.0952 10.114 21.8872 10.714C22.6912 11.314 23.2732 12.07 23.6332 12.982C23.9932 13.894 24.1732 14.902 24.1732 16.006C24.1732 16.822 24.0652 17.596 23.8492 18.328C23.6452 19.048 23.3332 19.702 22.9132 20.29C22.5052 20.878 21.9652 21.346 21.2932 21.694ZM17.0092 16.006C17.0092 18.322 17.6812 19.48 19.0252 19.48C20.3692 19.48 21.0412 18.322 21.0412 16.006C21.0412 13.702 20.3692 12.55 19.0252 12.55C17.6812 12.55 17.0092 13.702 17.0092 16.006Z" fill="white"/>
</svg>
