<svg width="30" height="30" viewBox="0 0 30 30" fill="none" xmlns="http://www.w3.org/2000/svg">
<circle cx="15" cy="15" r="15" fill="#9EDA32"/>
<path d="M14.623 22H5.20899V19.588C7.87299 17.668 9.56499 16.372 10.285 15.7C11.017 15.028 11.383 14.398 11.383 13.81C11.383 13.414 11.221 13.108 10.897 12.892C10.585 12.664 10.195 12.55 9.72699 12.55C8.52699 12.55 7.45899 12.988 6.52299 13.864L4.81299 11.812C5.42499 11.14 6.16299 10.642 7.02699 10.318C7.89099 9.982 8.77299 9.814 9.67299 9.814C11.101 9.814 12.265 10.18 13.165 10.912C14.077 11.644 14.533 12.61 14.533 13.81C14.533 14.71 14.197 15.586 13.525 16.438C12.853 17.29 11.755 18.244 10.231 19.3H14.623V22ZM23.2346 21.694C22.5746 22.042 21.8186 22.216 20.9666 22.216C20.1146 22.216 19.3526 22.042 18.6806 21.694C18.0206 21.346 17.4806 20.878 17.0606 20.29C16.6526 19.702 16.3406 19.048 16.1246 18.328C15.9206 17.596 15.8186 16.822 15.8186 16.006C15.8186 14.902 15.9986 13.894 16.3586 12.982C16.7186 12.07 17.2946 11.314 18.0866 10.714C18.8906 10.114 19.8506 9.814 20.9666 9.814C22.0826 9.814 23.0366 10.114 23.8286 10.714C24.6326 11.314 25.2146 12.07 25.5746 12.982C25.9346 13.894 26.1146 14.902 26.1146 16.006C26.1146 16.822 26.0066 17.596 25.7906 18.328C25.5866 19.048 25.2746 19.702 24.8546 20.29C24.4466 20.878 23.9066 21.346 23.2346 21.694ZM18.9506 16.006C18.9506 18.322 19.6226 19.48 20.9666 19.48C22.3106 19.48 22.9826 18.322 22.9826 16.006C22.9826 13.702 22.3106 12.55 20.9666 12.55C19.6226 12.55 18.9506 13.702 18.9506 16.006Z" fill="white"/>
</svg>
