<svg width="30" height="30" viewBox="0 0 30 30" fill="none" xmlns="http://www.w3.org/2000/svg">
<circle cx="15" cy="15" r="15" fill="#E0723C"/>
<path fill-rule="evenodd" clip-rule="evenodd" d="M23.1146 7.39931C23.4618 7.74646 23.4618 8.31031 23.1146 8.65746C22.7675 9.00443 22.2043 9.00386 21.8572 8.65677L21.2287 8.02831L21.2285 8.02856L19.3428 9.9142L21.229 11.8004C21.5759 12.1475 21.5759 12.7101 21.229 13.0572C20.8819 13.4043 20.3187 13.4048 19.9716 13.0579L19.3426 12.429L13.057 18.7146L12.9894 18.7753C12.6404 19.0601 12.1257 19.0394 11.8001 18.7145L10.5433 19.9712C10.1962 20.3184 9.63335 20.3184 9.2862 19.9712L9.28561 19.9706L7.39929 21.857C7.05213 22.204 6.48963 22.2041 6.14252 21.857C5.79541 21.5099 5.7955 20.9473 6.14252 20.6002L8.02884 18.7139C7.68193 18.3667 7.68202 17.804 8.02908 17.457L9.28587 16.2002L9.28533 16.1996C8.93836 15.8525 8.93824 15.29 9.28533 14.9429L9.28551 14.9427L12.4283 11.7999L15.571 8.65725L14.9431 8.02941C14.596 7.68226 14.596 7.1184 14.9431 6.77125C15.2903 6.42429 15.8535 6.42486 16.2006 6.77194L18.086 8.65743L19.9717 6.77179L19.9719 6.77153L19.3429 6.14254C18.996 5.79544 18.996 5.23287 19.3429 4.88577C19.69 4.53868 20.2532 4.53811 20.6004 4.88508L23.1146 7.39931ZM14.9426 14.3141L13.6858 13.0573L16.828 9.9151L18.0848 11.1719L14.9426 14.3141Z" fill="white"/>
<path d="M18.7756 23.1142C21.0596 23.1142 22.9448 21.2289 22.9448 18.9489C22.9448 16.6689 21.0556 14.7837 18.7716 14.7837C16.4916 14.7837 14.6104 16.6689 14.6104 18.9489C14.6104 21.2289 16.4956 23.1142 18.7756 23.1142ZM18.7675 20.8261C18.5218 20.8261 18.3728 20.6489 18.3728 20.3951V19.3477H17.261C17.0112 19.3477 16.8259 19.1987 16.8259 18.957C16.8259 18.7072 17.0031 18.5542 17.261 18.5542H18.3728V17.4464C18.3728 17.1926 18.5218 17.0154 18.7675 17.0154C19.0133 17.0154 19.1704 17.1845 19.1704 17.4464V18.5542H20.2862C20.544 18.5542 20.7172 18.7072 20.7172 18.957C20.7172 19.1987 20.54 19.3477 20.2862 19.3477H19.1704V20.3951C19.1704 20.6569 19.0133 20.8261 18.7675 20.8261Z" fill="white"/>
<path fill-rule="evenodd" clip-rule="evenodd" d="M23.9922 18.9487C23.9922 21.8079 21.6373 24.1615 18.7753 24.1615C15.9168 24.1615 13.5625 21.8073 13.5625 18.9487C13.5625 16.0914 15.9114 13.7358 18.7713 13.7358C21.6319 13.7358 23.9922 16.0881 23.9922 18.9487ZM22.9446 18.9487C22.9446 21.2287 21.0594 23.1139 18.7753 23.1139C16.4953 23.1139 14.6101 21.2287 14.6101 18.9487C14.6101 16.6687 16.4913 14.7834 18.7713 14.7834C21.0553 14.7834 22.9446 16.6687 22.9446 18.9487Z" fill="#E0723C"/>
</svg>
