<svg width="30" height="30" viewBox="0 0 30 30" fill="none" xmlns="http://www.w3.org/2000/svg">
<circle cx="15" cy="15" r="15" fill="#68C111"/>
<path fill-rule="evenodd" clip-rule="evenodd" d="M20.3031 5.45418C20.6937 5.06365 21.3268 5.06365 21.7174 5.45418L24.5458 8.2826C24.9363 8.67313 24.9363 9.30629 24.5458 9.69682C24.1553 10.0873 23.5221 10.0873 23.1316 9.69682L20.3031 6.86839C19.9126 6.47787 19.9126 5.8447 20.3031 5.45418Z" fill="white"/>
<path fill-rule="evenodd" clip-rule="evenodd" d="M22.4252 7.57561C22.8157 7.96613 22.8157 8.5993 22.4252 8.98982L20.3039 11.1111C19.9134 11.5017 19.2802 11.5017 18.8897 11.1111C18.4992 10.7206 18.4992 10.0875 18.8897 9.69693L21.011 7.57561C21.4015 7.18508 22.0347 7.18508 22.4252 7.57561Z" fill="white"/>
<path fill-rule="evenodd" clip-rule="evenodd" d="M11.8178 18.1821C12.2083 18.5726 12.2083 19.2057 11.8178 19.5963L6.86805 24.546C6.47752 24.9365 5.84436 24.9365 5.45384 24.546C5.06331 24.1555 5.06331 23.5223 5.45384 23.1318L10.4036 18.1821C10.7941 17.7915 11.4273 17.7915 11.8178 18.1821Z" fill="white"/>
<path fill-rule="evenodd" clip-rule="evenodd" d="M22.4244 14.6464C22.0339 15.0369 21.4007 15.0369 21.0102 14.6464L15.3533 8.98955C14.9628 8.59903 14.9628 7.96587 15.3533 7.57534C15.7438 7.18482 16.377 7.18482 16.7675 7.57534L22.4244 13.2322C22.8149 13.6227 22.8149 14.2559 22.4244 14.6464Z" fill="white"/>
<path fill-rule="evenodd" clip-rule="evenodd" d="M17.4751 11.1111L11.1111 17.4751L12.5254 18.8893L18.8893 12.5254L17.4751 11.1111ZM18.1822 8.98982C17.7917 8.5993 17.1585 8.5993 16.768 8.98982L8.98982 16.768C8.59929 17.1585 8.59929 17.7917 8.98982 18.1822L11.8182 21.0106C12.2088 21.4012 12.8419 21.4012 13.2325 21.0106L21.0106 13.2325C21.4012 12.8419 21.4012 12.2088 21.0106 11.8182L18.1822 8.98982Z" fill="white"/>
<rect x="10.4038" y="16.7681" width="4" height="5" rx="1" transform="rotate(45 10.4038 16.7681)" fill="white"/>
<rect x="12.5259" y="13.2324" width="6" height="5" transform="rotate(45 12.5259 13.2324)" fill="white"/>
</svg>
