<svg width="30" height="30" viewBox="0 0 30 30" fill="none" xmlns="http://www.w3.org/2000/svg">
<circle cx="15" cy="15" r="15" fill="#003F63"/>
<path d="M19.7358 15.8131C19.819 15.5571 20.181 15.5571 20.2642 15.8131L21.0602 18.263C21.0974 18.3774 21.204 18.4549 21.3244 18.4549H23.9004C24.1695 18.4549 24.2813 18.7993 24.0636 18.9574L21.9796 20.4715C21.8823 20.5423 21.8415 20.6677 21.8787 20.7821L22.6747 23.232C22.7579 23.4879 22.465 23.7007 22.2473 23.5426L20.1633 22.0285C20.0659 21.9577 19.9341 21.9577 19.8367 22.0285L17.7527 23.5426C17.535 23.7007 17.2421 23.4879 17.3253 23.232L18.1213 20.7821C18.1585 20.6677 18.1177 20.5423 18.0204 20.4715L15.9364 18.9574C15.7187 18.7993 15.8305 18.4549 16.0996 18.4549H18.6756C18.796 18.4549 18.9026 18.3774 18.9398 18.263L19.7358 15.8131Z" fill="white"/>
<path d="M9.73582 15.8131C9.81897 15.5571 10.181 15.5571 10.2642 15.8131L11.0602 18.263C11.0974 18.3774 11.204 18.4549 11.3244 18.4549H13.9004C14.1695 18.4549 14.2813 18.7993 14.0636 18.9574L11.9796 20.4715C11.8823 20.5423 11.8415 20.6677 11.8787 20.7821L12.6747 23.232C12.7579 23.4879 12.465 23.7007 12.2473 23.5426L10.1633 22.0285C10.0659 21.9577 9.93408 21.9577 9.83673 22.0285L7.75271 23.5426C7.53501 23.7007 7.2421 23.4879 7.32526 23.232L8.12128 20.7821C8.15847 20.6677 8.11773 20.5423 8.02037 20.4715L5.93636 18.9574C5.71866 18.7993 5.83054 18.4549 6.09963 18.4549H8.67561C8.79595 18.4549 8.90261 18.3774 8.93979 18.263L9.73582 15.8131Z" fill="white"/>
<path d="M9.73582 5.81307C9.81897 5.55715 10.181 5.55715 10.2642 5.81307L11.0602 8.26298C11.0974 8.37743 11.204 8.45492 11.3244 8.45492H13.9004C14.1695 8.45492 14.2813 8.79925 14.0636 8.95742L11.9796 10.4715C11.8823 10.5423 11.8415 10.6677 11.8787 10.7821L12.6747 13.232C12.7579 13.4879 12.465 13.7007 12.2473 13.5426L10.1633 12.0285C10.0659 11.9577 9.93408 11.9577 9.83673 12.0285L7.75271 13.5426C7.53501 13.7007 7.2421 13.4879 7.32526 13.232L8.12128 10.7821C8.15847 10.6677 8.11773 10.5423 8.02037 10.4715L5.93636 8.95742C5.71866 8.79925 5.83054 8.45492 6.09963 8.45492H8.67561C8.79595 8.45492 8.90261 8.37743 8.93979 8.26298L9.73582 5.81307Z" fill="white"/>
<path d="M19.7358 5.81307C19.819 5.55715 20.181 5.55715 20.2642 5.81307L21.0602 8.26298C21.0974 8.37743 21.204 8.45492 21.3244 8.45492H23.9004C24.1695 8.45492 24.2813 8.79925 24.0636 8.95742L21.9796 10.4715C21.8823 10.5423 21.8415 10.6677 21.8787 10.7821L22.6747 13.232C22.7579 13.4879 22.465 13.7007 22.2473 13.5426L20.1633 12.0285C20.0659 11.9577 19.9341 11.9577 19.8367 12.0285L17.7527 13.5426C17.535 13.7007 17.2421 13.4879 17.3253 13.232L18.1213 10.7821C18.1585 10.6677 18.1177 10.5423 18.0204 10.4715L15.9364 8.95742C15.7187 8.79925 15.8305 8.45492 16.0996 8.45492H18.6756C18.796 8.45492 18.9026 8.37743 18.9398 8.26298L19.7358 5.81307Z" fill="white"/>
</svg>
