<svg width="30" height="30" viewBox="0 0 30 30" fill="none" xmlns="http://www.w3.org/2000/svg">
<circle cx="15" cy="15" r="15" fill="#100A8C"/>
<path d="M23.25 6.74992L24.1667 5.83325" stroke="white" stroke-width="1.33333" stroke-miterlimit="10" stroke-linecap="round" stroke-linejoin="round"/>
<path d="M11.6511 23.4333C12.25 23.8977 12.9833 24.1544 13.7533 24.1666H13.7411C15.6233 24.1666 16.7722 22.6388 17.1511 20.8299C18.0189 16.6621 21.4167 16.6621 21.4167 11.6633C21.4167 8.43659 18.7522 5.83325 15.4644 5.83325C12.2867 5.83325 9.69554 8.26547 9.51221 11.3333" stroke="white" stroke-width="1.33333" stroke-miterlimit="10" stroke-linecap="round" stroke-linejoin="round"/>
<path d="M17.7503 11.6633C17.7503 10.4656 16.7237 9.5 15.4525 9.5C14.2303 9.5 13.2281 10.3922 13.167 11.5411" stroke="white" stroke-width="1.33333" stroke-miterlimit="10" stroke-linecap="round" stroke-linejoin="round"/>
<path d="M5.8335 24.1667L15.0002 15" stroke="white" stroke-width="1.33333" stroke-miterlimit="10" stroke-linecap="round" stroke-linejoin="round"/>
</svg>
