<svg width="30" height="30" viewBox="0 0 30 30" fill="none" xmlns="http://www.w3.org/2000/svg">
<circle cx="15" cy="15" r="15" fill="#2F303B"/>
<path d="M14.4859 20H11.3339L9.54188 16.384H8.13388V20H5.38188V9.328H10.7259C13.0939 9.328 14.4379 10.896 14.4379 12.88C14.4379 14.736 13.3019 15.728 12.3099 16.08L14.4859 20ZM11.6379 12.848C11.6379 12.112 11.0299 11.648 10.3099 11.648H8.13388V14.048H10.3099C11.0299 14.048 11.6379 13.584 11.6379 12.848ZM25.064 20H21.912L20.12 16.384H18.712V20H15.96V9.328H21.304C23.672 9.328 25.016 10.896 25.016 12.88C25.016 14.736 23.88 15.728 22.888 16.08L25.064 20ZM22.216 12.848C22.216 12.112 21.608 11.648 20.888 11.648H18.712V14.048H20.888C21.608 14.048 22.216 13.584 22.216 12.848Z" fill="white"/>
</svg>
