<svg width="30" height="30" viewBox="0 0 30 30" fill="none" xmlns="http://www.w3.org/2000/svg">
<path d="M15 30C23.2843 30 30 23.2843 30 15C30 6.71573 23.2843 0 15 0C6.71573 0 0 6.71573 0 15C0 23.2843 6.71573 30 15 30Z" fill="#D11635"/>
<path d="M21.4731 20.6682L20.2844 18.2703C20.1835 18.0686 19.979 17.9416 19.755 17.9404H10.2445C10.0205 17.9416 9.81597 18.0686 9.71511 18.2703L8.52644 20.6682C8.43393 20.8536 8.44285 21.0745 8.5504 21.2515C8.65851 21.4285 8.84967 21.5364 9.0553 21.537H20.9443C21.1499 21.5364 21.341 21.4285 21.4492 21.2515C21.5567 21.0745 21.5656 20.8536 21.4731 20.6682H21.4731Z" fill="white"/>
<path opacity="0.33" d="M10.6306 16.6461C10.5242 16.4607 10.5242 16.2325 10.6306 16.0471L11.8193 13.6492C11.9196 13.4598 12.1119 13.3384 12.3247 13.3317H17.6746C17.8986 13.3322 18.1031 13.4598 18.2035 13.661L19.3921 16.0589H19.3927C19.4852 16.2443 19.4763 16.4652 19.3682 16.6422C19.2606 16.8192 19.0694 16.9277 18.8633 16.9282H11.1361C10.9304 16.9282 10.7393 16.822 10.6306 16.6461L10.6306 16.6461ZM13.2164 12.3192H16.783C16.9891 12.3186 17.1797 12.2102 17.2879 12.0331C17.3954 11.8561 17.4049 11.6353 17.3118 11.4498L15.5285 7.85328C15.4271 7.65322 15.2226 7.52734 14.9997 7.52734C14.7768 7.52734 14.5722 7.65322 14.4708 7.85328L12.6875 11.4498C12.5945 11.6353 12.6039 11.8561 12.7115 12.0331C12.8196 12.2102 13.0102 12.3186 13.2164 12.3192H13.2164Z" fill="white"/>
</svg>
