<svg width="30" height="30" viewBox="0 0 30 30" fill="none" xmlns="http://www.w3.org/2000/svg">
<circle cx="15" cy="15" r="15" fill="#15D2A5"/>
<path d="M7.09273 16.06L8.84273 19H11.3487L9.10873 15.542C10.2847 15.094 10.9007 14.198 10.9007 13.022C10.9007 11.328 9.68273 10.25 7.35873 10.25H3.84473V19H6.07073V16.144L7.09273 16.06ZM6.02873 12.014H6.96673C8.08673 12.014 8.61873 12.392 8.61873 13.162C8.61873 14.002 8.10073 14.394 7.14873 14.464L6.02873 14.492V12.014Z" fill="white"/>
<path d="M18.8834 17.208H14.6694V15.5H18.0574V13.722H14.6694V12.042H18.8834V10.25H12.4854V19H18.8834V17.208Z" fill="white"/>
<path d="M22.5994 19V15.71H25.8334V13.89H22.5994V12.084H26.6594V10.25H20.4014V19H22.5994Z" fill="white"/>
</svg>
