<svg width="30" height="30" viewBox="0 0 30 30" fill="none" xmlns="http://www.w3.org/2000/svg">
<circle cx="15" cy="15" r="15" fill="black"/>
<path d="M14.2359 19.8037H11.0839L9.29188 16.1877H7.88388V19.8037H5.13188V9.13171H10.4759C12.8439 9.13171 14.1879 10.6997 14.1879 12.6837C14.1879 14.5397 13.0519 15.5317 12.0599 15.8837L14.2359 19.8037ZM11.3879 12.6517C11.3879 11.9157 10.7799 11.4517 10.0599 11.4517H7.88388V13.8517H10.0599C10.7799 13.8517 11.3879 13.3877 11.3879 12.6517ZM20.862 19.9957C17.662 19.9957 15.166 17.7557 15.166 14.4757C15.166 11.1797 17.662 8.95571 20.862 8.95571C23.518 8.95571 24.894 10.4117 25.598 11.8197L23.23 12.9397C22.878 12.0917 21.966 11.3877 20.862 11.3877C19.198 11.3877 17.966 12.7317 17.966 14.4757C17.966 16.2197 19.198 17.5637 20.862 17.5637C21.966 17.5637 22.878 16.8597 23.23 16.0117L25.598 17.1317C24.91 18.5077 23.518 19.9957 20.862 19.9957Z" fill="white"/>
</svg>
