<svg width="30" height="30" viewBox="0 0 30 30" fill="none" xmlns="http://www.w3.org/2000/svg">
<circle cx="15" cy="15" r="15" fill="black"/>
<path d="M7.6802 19.1438C9.4322 19.1438 10.4522 18.1718 11.0162 17.1758L9.5522 16.4678C9.2162 17.1158 8.4962 17.6318 7.6802 17.6318C6.2162 17.6318 5.1602 16.5158 5.1602 15.0038C5.1602 13.4918 6.2162 12.3758 7.6802 12.3758C8.4962 12.3758 9.2162 12.8918 9.5522 13.5398L11.0162 12.8198C10.4522 11.8118 9.4322 10.8638 7.6802 10.8638C5.2682 10.8638 3.4082 12.5318 3.4082 15.0038C3.4082 17.4638 5.2682 19.1438 7.6802 19.1438Z" fill="white"/>
<path d="M15.5945 19.1438C18.0065 19.1438 19.7705 17.4158 19.7705 15.0038C19.7705 12.5918 18.0065 10.8638 15.5945 10.8638C13.1705 10.8638 11.4065 12.5918 11.4065 15.0038C11.4065 17.4158 13.1705 19.1438 15.5945 19.1438ZM15.5945 17.6318C14.1065 17.6318 13.1585 16.4918 13.1585 15.0038C13.1585 13.5038 14.1065 12.3758 15.5945 12.3758C17.0705 12.3758 18.0185 13.5038 18.0185 15.0038C18.0185 16.4918 17.0705 17.6318 15.5945 17.6318Z" fill="white"/>
<path d="M23.5823 19.1438C25.7303 19.1438 26.7863 18.0398 26.7863 16.5758C26.7863 13.5878 22.1903 14.4398 22.1903 13.1798C22.1903 12.6998 22.5983 12.3878 23.3183 12.3878C24.1343 12.3878 24.9983 12.6638 25.6463 13.2638L26.5943 11.9918C25.8023 11.2598 24.7463 10.8758 23.4743 10.8758C21.5903 10.8758 20.4383 11.9798 20.4383 13.3118C20.4383 16.3238 25.0463 15.3518 25.0463 16.7438C25.0463 17.2118 24.6023 17.6318 23.6543 17.6318C22.5503 17.6318 21.6743 17.1278 21.1103 16.5398L20.1743 17.8718C20.9303 18.6278 22.0343 19.1438 23.5823 19.1438Z" fill="white"/>
</svg>
