<svg width="30" height="30" viewBox="0 0 30 30" fill="none" xmlns="http://www.w3.org/2000/svg">
<circle cx="15" cy="15" r="15" fill="#F7931E"/>
<path d="M5.50977 19.2285C3.61719 19.2285 2.43359 18.1211 2.41016 16.3398V16.3047H4.47852V16.3281C4.49023 16.9902 4.86523 17.4062 5.48047 17.4062C6.13086 17.4062 6.46484 17.0078 6.46484 16.252V10.5449H8.61523V16.2695C8.61523 18.1445 7.48438 19.2285 5.50977 19.2285ZM9.58227 19L12.4241 10.5449H15.0549L17.8967 19H15.6409L15.1194 17.1426H12.3596L11.8381 19H9.58227ZM13.6838 12.4082L12.7932 15.5957H14.6858L13.7952 12.4082H13.6838ZM19.0747 19V10.5449H23.018C24.7055 10.5449 25.7016 11.3418 25.7016 12.6484V12.6602C25.7016 13.5625 25.022 14.3301 24.1255 14.4531V14.5645C25.2329 14.623 26.0884 15.4844 26.0884 16.5566V16.5684C26.0884 18.0449 24.9458 19 23.1352 19H19.0747ZM22.4438 12.0625H21.2251V13.9902H22.3618C23.147 13.9902 23.604 13.627 23.604 13.0352V13.0234C23.604 12.4258 23.1763 12.0625 22.4438 12.0625ZM22.5141 15.2969H21.2251V17.4824H22.5259C23.4165 17.4824 23.9028 17.0898 23.9028 16.3809V16.3691C23.9028 15.6777 23.4048 15.2969 22.5141 15.2969Z" fill="white"/>
</svg>
