<svg width="30" height="30" viewBox="0 0 30 30" fill="none" xmlns="http://www.w3.org/2000/svg">
<circle cx="15" cy="15" r="15" fill="#D0021B"/>
<path d="M6.00977 19.2285C4.11719 19.2285 2.93359 18.1211 2.91016 16.3398V16.3047H4.97852V16.3281C4.99023 16.9902 5.36523 17.4062 5.98047 17.4062C6.63086 17.4062 6.96484 17.0078 6.96484 16.252V10.5449H9.11523V16.2695C9.11523 18.1445 7.98438 19.2285 6.00977 19.2285ZM10.0823 19L12.9241 10.5449H15.5549L18.3967 19H16.1409L15.6194 17.1426H12.8596L12.3381 19H10.0823ZM14.1838 12.4082L13.2932 15.5957H15.1858L14.2952 12.4082H14.1838ZM19.5747 19V10.5449H23.518C25.2055 10.5449 26.2016 11.3418 26.2016 12.6484V12.6602C26.2016 13.5625 25.522 14.3301 24.6255 14.4531V14.5645C25.7329 14.623 26.5884 15.4844 26.5884 16.5566V16.5684C26.5884 18.0449 25.4458 19 23.6352 19H19.5747ZM22.9438 12.0625H21.7251V13.9902H22.8618C23.647 13.9902 24.104 13.627 24.104 13.0352V13.0234C24.104 12.4258 23.6763 12.0625 22.9438 12.0625ZM23.0141 15.2969H21.7251V17.4824H23.0259C23.9165 17.4824 24.4028 17.0898 24.4028 16.3809V16.3691C24.4028 15.6777 23.9048 15.2969 23.0141 15.2969Z" fill="white"/>
</svg>
