<svg width="30" height="30" viewBox="0 0 30 30" fill="none" xmlns="http://www.w3.org/2000/svg">
<circle cx="15" cy="15" r="15" fill="black"/>
<path d="M20.1918 6C19.0346 6 18.0975 6.93708 18.0975 8.0943C18.0975 9.25152 19.0346 10.1886 20.1918 10.1886C21.349 10.1886 22.2861 9.25152 22.2861 8.0943C22.2861 6.93708 21.349 6 20.1918 6ZM13.683 8.32695C13.323 8.32145 13.0073 8.54144 12.7933 8.71712L9.91878 11.0783C9.528 11.3993 9.4747 11.9741 9.79565 12.3649C10.1165 12.7557 10.6846 12.8158 11.0756 12.4949L13.553 10.4555L15.4624 10.8523L12.4717 15.4718L10.3637 18.141C8.87187 18.0817 7.4956 17.904 6.20252 17.785C5.59419 17.729 5.06091 18.1689 5.00482 18.7774C4.94876 19.3859 5.38766 19.9409 5.9972 19.982C7.51344 20.084 9.03221 20.1812 10.5486 20.2831C10.9393 20.3094 11.2265 20.3026 11.4999 20.0915C11.6195 19.9991 11.7065 19.8827 11.801 19.7631C12.3557 19.0615 13.464 17.6552 13.464 17.6552L16.4823 19.7836L14.8877 22.8565C14.6155 23.3799 14.816 24.0215 15.3394 24.2937C15.8628 24.5659 16.5046 24.3654 16.7767 23.842L18.7545 20.0367C18.8247 19.9018 18.8505 19.7533 18.871 19.6123C18.9278 19.221 18.7908 18.8185 18.4466 18.5719L15.5994 16.5325L17.9468 12.9394L18.9939 14.801C19.1491 15.0757 19.4349 15.2715 19.774 15.2801C21.1073 15.3134 23.7709 15.3759 23.7709 15.3759C24.2764 15.3886 24.6959 14.9917 24.7086 14.4862C24.7213 13.9807 24.3244 13.5612 23.8189 13.5485L20.6911 13.4732L19.1033 10.6534C18.8423 10.1896 18.0686 9.21964 17.3923 9.07924L13.8406 8.34045C13.7877 8.32945 13.7346 8.32746 13.6832 8.3267L13.683 8.32695Z" fill="white"/>
</svg>
