<svg width="30" height="30" viewBox="0 0 30 30" fill="none" xmlns="http://www.w3.org/2000/svg">
<circle cx="15" cy="15" r="15" fill="black"/>
<path d="M3.2547 13.107L3.9957 12.081C4.4422 12.5465 5.1357 12.936 6.0097 12.936C6.7507 12.936 7.1117 12.5845 7.1117 12.2235C7.1117 11.7485 6.5607 11.587 5.8292 11.416C4.7937 11.1785 3.4637 10.8935 3.4637 9.478C3.4637 8.4235 4.3757 7.5685 5.8672 7.5685C6.8742 7.5685 7.7102 7.8725 8.3372 8.452L7.5867 9.44C7.0737 8.965 6.3897 8.7465 5.7722 8.7465C5.1642 8.7465 4.8412 9.0125 4.8412 9.3925C4.8412 9.82 5.3732 9.953 6.1047 10.124C7.1497 10.3615 8.4797 10.675 8.4797 12.081C8.4797 13.24 7.6532 14.114 5.9432 14.114C4.7272 14.114 3.8532 13.7055 3.2547 13.107ZM12.409 14.114C10.5565 14.114 9.08399 12.784 9.08399 10.8365C9.08399 8.889 10.5565 7.559 12.409 7.559C13.853 7.559 14.6605 8.319 15.107 9.1075L13.948 9.6775C13.682 9.1645 13.112 8.756 12.409 8.756C11.307 8.756 10.471 9.6395 10.471 10.8365C10.471 12.0335 11.307 12.917 12.409 12.917C13.112 12.917 13.682 12.518 13.948 11.9955L15.107 12.556C14.651 13.3445 13.853 14.114 12.409 14.114ZM18.7315 14H17.373V8.851H15.5205V7.6635H20.5745V8.851H18.7315V14ZM24.5553 14H23.2063V11.4065L20.7648 7.6635H22.3038L23.8808 10.2095L25.4388 7.6635H26.9778L24.5553 11.4065V14ZM14.591 25H13.2895L10.2685 20.744V25H8.91948V18.6635H10.3065L13.242 22.7675V18.6635H14.591V25ZM19.3079 25H17.6169L15.1659 18.6635H16.7049L18.4624 23.537L20.2104 18.6635H21.7494L19.3079 25Z" fill="#FFA500"/>
</svg>
