<svg width="30" height="30" viewBox="0 0 30 30" fill="none" xmlns="http://www.w3.org/2000/svg">
<circle cx="15" cy="15" r="15" fill="#A5AD8A"/>
<path d="M14.8334 21.228C17.9874 21.228 20.0774 19.689 20.0774 17.466C20.0774 15.642 18.4434 14.597 17.0944 14.464C18.5954 14.217 19.8684 13.096 19.8684 11.614C19.8684 9.52396 18.0634 8.13696 14.8334 8.13696C12.4964 8.13696 10.8434 8.99196 9.76036 10.189L11.3374 12.241C12.2304 11.443 13.3324 11.025 14.4914 11.025C15.7074 11.025 16.6194 11.386 16.6194 12.184C16.6194 12.849 15.8784 13.172 14.5674 13.172C14.0924 13.172 13.1044 13.172 12.8574 13.153V16.06C13.0474 16.041 14.0164 16.022 14.5674 16.022C16.2964 16.022 16.8284 16.383 16.8284 17.105C16.8284 17.808 16.1064 18.34 14.7004 18.34C13.5984 18.34 12.1734 17.903 11.2424 17.01L9.58936 19.233C10.5964 20.373 12.4014 21.228 14.8334 21.228Z" fill="white"/>
</svg>
