<svg width="30" height="30" viewBox="0 0 30 30" fill="none" xmlns="http://www.w3.org/2000/svg">
<circle cx="15" cy="15" r="15" fill="#0322F4"/>
<path d="M15.3879 21.2277C18.3329 21.2277 20.4419 19.3847 20.4419 16.7817C20.4419 14.0837 18.3329 12.6207 16.0529 12.6207C14.7799 12.6207 13.5639 13.2287 12.9369 14.0647V13.9127C12.9369 12.1457 14.3619 11.0247 15.9199 11.0247C16.9459 11.0247 17.6489 11.2907 18.3519 11.8607L19.7579 9.35272C18.8079 8.61172 17.4019 8.13672 15.9199 8.13672C12.0819 8.13672 9.63086 10.6447 9.63086 14.6917C9.63086 18.3207 11.3789 21.2277 15.3879 21.2277ZM15.1789 18.3397C13.6399 18.3397 13.0319 17.2757 12.9369 16.2497C13.4879 15.6607 14.2669 15.3947 15.0649 15.3947C16.0529 15.3947 17.1359 15.8317 17.1359 16.8957C17.1359 17.5987 16.3949 18.3397 15.1789 18.3397Z" fill="white"/>
</svg>
