<svg width="30" height="30" viewBox="0 0 30 30" fill="none" xmlns="http://www.w3.org/2000/svg">
<circle cx="15" cy="15" r="15" fill="#0322F4"/>
<path d="M14.0771 21.2092C17.9151 21.2092 20.3471 18.6822 20.3471 14.6542C20.3471 11.0062 18.5991 8.11816 14.5901 8.11816C11.6641 8.11816 9.53613 9.96116 9.53613 12.5642C9.53613 15.2622 11.6641 16.7252 13.9441 16.7252C15.2171 16.7252 16.4331 16.1172 17.0411 15.2812V15.4332C17.0411 16.9722 15.9391 18.3212 14.0771 18.3212C13.0511 18.3212 12.3481 18.0552 11.6451 17.4852L10.2391 19.9932C11.1891 20.7342 12.5951 21.2092 14.0771 21.2092ZM14.9131 13.9512C13.9441 13.9512 12.8611 13.5142 12.8611 12.4502C12.8611 11.7472 13.5831 11.0062 14.7801 11.0062C16.3571 11.0062 16.9651 12.0702 17.0411 13.0962C16.4901 13.6852 15.7111 13.9512 14.9131 13.9512Z" fill="white"/>
</svg>
