<svg width="30" height="30" viewBox="0 0 30 30" fill="none" xmlns="http://www.w3.org/2000/svg">
<circle cx="15" cy="15" r="15" fill="#0322F4"/>
<path d="M14.9981 21.2277C17.7341 21.2277 20.3751 20.1257 20.3751 17.6557C20.3751 16.2117 19.2731 15.0337 17.7911 14.4637C19.1591 13.9507 20.1661 13.0387 20.1661 11.5187C20.1661 9.06772 17.4681 8.13672 14.9981 8.13672C12.5281 8.13672 9.83009 9.06772 9.83009 11.5187C9.83009 13.0387 10.8371 13.9507 12.1861 14.4637C10.7231 15.0337 9.62109 16.2117 9.62109 17.6557C9.62109 20.1447 12.2621 21.2277 14.9981 21.2277ZM14.9981 13.1907C14.2191 13.0767 13.1551 12.7157 13.1551 12.0697C13.1551 11.4047 13.8961 11.0247 14.9981 11.0247C16.1001 11.0247 16.8221 11.4047 16.8221 12.0697C16.8221 12.7157 15.7771 13.0767 14.9981 13.1907ZM14.9981 18.3397C13.7821 18.3397 12.9461 17.8837 12.9461 17.1997C12.9461 16.4397 14.1811 16.0407 14.9981 15.9457C15.7961 16.0407 17.0501 16.4397 17.0501 17.1997C17.0501 17.8837 16.1761 18.3397 14.9981 18.3397Z" fill="white"/>
</svg>
