<svg width="30" height="30" viewBox="0 0 30 30" fill="none" xmlns="http://www.w3.org/2000/svg">
<circle cx="15" cy="15" r="15" fill="#9A9A9A"/>
<path d="M24.7033 13.6621C23.9709 12.8535 22.7404 12.4902 20.7072 12.4902C18.4982 12.4902 17.1857 12.9004 16.4416 13.8203C16.2131 14.1074 16.049 14.4297 15.9436 14.8047C15.633 14.7461 15.3166 14.7168 14.9943 14.7168C14.6721 14.7168 14.3557 14.7461 14.0451 14.8047C13.9397 14.4355 13.7756 14.1074 13.5471 13.8203C12.8088 12.9004 11.4963 12.4902 9.28731 12.4902C7.25996 12.4902 6.02364 12.8535 5.29121 13.6621C4.42989 14.6172 4.4416 16.0234 4.57051 17.2773C4.82832 19.8145 6.43379 21.1035 9.34004 21.1035C10.7814 21.1035 11.7482 20.8398 12.4807 20.2422C13.2072 19.6504 13.6701 18.7598 13.9807 17.3535C14.0744 16.9199 14.133 16.5273 14.1564 16.1582C14.4318 16.0996 14.7072 16.0645 14.9943 16.0645C15.2756 16.0645 15.5568 16.0938 15.8264 16.1582C15.8498 16.5215 15.9084 16.9199 16.0022 17.3535C16.3127 18.7598 16.7756 19.6504 17.5022 20.2422C18.2346 20.8398 19.2072 21.1035 20.6428 21.1035C23.549 21.1035 25.1545 19.8145 25.4123 17.2773C25.5529 16.0234 25.5647 14.6172 24.7033 13.6621ZM12.674 17.0605C12.4338 18.1504 12.1174 18.8066 11.6428 19.1934C11.1682 19.5801 10.4592 19.7559 9.35176 19.7559C7.13692 19.7559 6.11153 18.9707 5.91817 17.1367C5.7834 15.8008 5.90059 15.0039 6.29903 14.5645C6.74434 14.0664 7.69942 13.8379 9.29317 13.8379C11.01 13.8379 12.0588 14.1074 12.51 14.6641C12.8674 15.127 12.926 15.9062 12.674 17.0605ZM24.0822 17.1367C23.8947 18.9707 22.8693 19.7559 20.6486 19.7559C19.5412 19.7559 18.8322 19.5859 18.3576 19.1934C17.883 18.8066 17.5607 18.1504 17.3264 17.0605C17.0744 15.9062 17.1272 15.1211 17.4963 14.6641C17.9475 14.1074 18.9963 13.8379 20.7131 13.8379C22.3068 13.8379 23.2561 14.0664 23.7072 14.5645C24.0998 15.0098 24.217 15.8008 24.0822 17.1367Z" fill="white"/>
<path d="M9.00601 11.1485C12.9201 10.75 17.0802 10.75 21.0001 11.1543C21.0236 11.1543 21.047 11.1602 21.0705 11.1602C21.4103 11.1602 21.7033 10.9024 21.7384 10.5567C21.7794 10.1875 21.5099 9.85353 21.1349 9.81837C17.1271 9.40822 12.8732 9.40236 8.87125 9.81252C8.50211 9.84767 8.23258 10.1817 8.26773 10.5508C8.30289 10.9141 8.63101 11.1836 9.00601 11.1485Z" fill="white"/>
<path d="M11.7892 8.50002C13.8869 8.28908 16.1193 8.28909 18.2169 8.50588C18.2404 8.50588 18.2638 8.51174 18.2872 8.51174C18.6271 8.51174 18.9201 8.25393 18.9552 7.90823C18.9962 7.53909 18.7267 7.20511 18.3517 7.16995C16.1662 6.94729 13.84 6.94144 11.6544 7.16409C11.2853 7.19925 11.0158 7.53323 11.0509 7.90237C11.0861 8.27151 11.4142 8.54104 11.7892 8.50002Z" fill="white"/>
<path d="M8.44336 17.1016C8.19727 17.0781 7.99805 16.8672 7.99805 16.6211V16.6152C7.99805 15.9531 8.60156 15.4141 9.3457 15.4141C10.0898 15.4141 10.6934 15.9531 10.6934 16.6152V16.6211C10.6934 16.8672 10.4941 17.0781 10.248 17.1016C9.95508 17.1309 9.65039 17.1484 9.3457 17.1484C9.04102 17.1484 8.74219 17.1309 8.44336 17.1016Z" fill="white"/>
<path d="M19.752 17.1016C19.5059 17.0781 19.3066 16.8672 19.3066 16.6211V16.6152C19.3066 15.9531 19.9102 15.4141 20.6543 15.4141C21.3984 15.4141 22.002 15.9531 22.002 16.6152V16.6211C22.002 16.8672 21.8027 17.0781 21.5566 17.1016C21.2637 17.1309 20.959 17.1484 20.6543 17.1484C20.3496 17.1484 20.0508 17.1309 19.752 17.1016Z" fill="white"/>
</svg>
