<svg width="30" height="30" viewBox="0 0 30 30" fill="none" xmlns="http://www.w3.org/2000/svg">
<circle cx="15" cy="15" r="15" fill="#87A3AA"/>
<path d="M24.7028 13.6621C23.9704 12.8535 22.7399 12.4902 20.7067 12.4902C18.4978 12.4902 17.1853 12.9004 16.4411 13.8203C16.2126 14.1074 16.0485 14.4297 15.9431 14.8047C15.6325 14.7461 15.3161 14.7168 14.9939 14.7168C14.6716 14.7168 14.3552 14.7461 14.0446 14.8047C13.9392 14.4355 13.7751 14.1074 13.5466 13.8203C12.8083 12.9004 11.4958 12.4902 9.28682 12.4902C7.25948 12.4902 6.02315 12.8535 5.29073 13.6621C4.4294 14.6172 4.44112 16.0234 4.57002 17.2773C4.82783 19.8145 6.4333 21.1035 9.33955 21.1035C10.781 21.1035 11.7478 20.8398 12.4802 20.2422C13.2067 19.6504 13.6696 18.7598 13.9802 17.3535C14.0739 16.9199 14.1325 16.5273 14.156 16.1582C14.4314 16.0996 14.7067 16.0645 14.9939 16.0645C15.2751 16.0645 15.5564 16.0938 15.8259 16.1582C15.8493 16.5215 15.9079 16.9199 16.0017 17.3535C16.3122 18.7598 16.7751 19.6504 17.5017 20.2422C18.2341 20.8398 19.2067 21.1035 20.6423 21.1035C23.5485 21.1035 25.154 19.8145 25.4118 17.2773C25.5524 16.0234 25.5642 14.6172 24.7028 13.6621ZM12.6735 17.0605C12.4333 18.1504 12.1169 18.8066 11.6423 19.1934C11.1677 19.5801 10.4587 19.7559 9.35127 19.7559C7.13643 19.7559 6.11104 18.9707 5.91768 17.1367C5.78291 15.8008 5.9001 15.0039 6.29854 14.5645C6.74385 14.0664 7.69893 13.8379 9.29268 13.8379C11.0095 13.8379 12.0583 14.1074 12.5095 14.6641C12.8669 15.127 12.9255 15.9062 12.6735 17.0605ZM24.0817 17.1367C23.8942 18.9707 22.8688 19.7559 20.6481 19.7559C19.5407 19.7559 18.8317 19.5859 18.3571 19.1934C17.8825 18.8066 17.5603 18.1504 17.3259 17.0605C17.0739 15.9062 17.1267 15.1211 17.4958 14.6641C17.947 14.1074 18.9958 13.8379 20.7126 13.8379C22.3063 13.8379 23.2556 14.0664 23.7067 14.5645C24.0993 15.0098 24.2165 15.8008 24.0817 17.1367Z" fill="white"/>
<path d="M9.00601 11.1485C12.9201 10.75 17.0802 10.75 21.0001 11.1543C21.0236 11.1543 21.047 11.1602 21.0705 11.1602C21.4103 11.1602 21.7033 10.9024 21.7384 10.5567C21.7794 10.1875 21.5099 9.85353 21.1349 9.81837C17.1271 9.40822 12.8732 9.40236 8.87125 9.81252C8.50211 9.84767 8.23258 10.1817 8.26773 10.5508C8.30289 10.9141 8.63101 11.1836 9.00601 11.1485Z" fill="white"/>
<path d="M11.7892 8.50002C13.8869 8.28908 16.1193 8.28909 18.2169 8.50588C18.2404 8.50588 18.2638 8.51174 18.2872 8.51174C18.6271 8.51174 18.9201 8.25393 18.9552 7.90823C18.9962 7.53909 18.7267 7.20511 18.3517 7.16995C16.1662 6.94729 13.84 6.94144 11.6544 7.16409C11.2853 7.19925 11.0158 7.53323 11.0509 7.90237C11.0861 8.27151 11.4142 8.54104 11.7892 8.50002Z" fill="white"/>
<path d="M8.44336 17.1016C8.19727 17.0781 7.99805 16.8672 7.99805 16.6211V16.6152C7.99805 15.9531 8.60156 15.4141 9.3457 15.4141C10.0898 15.4141 10.6934 15.9531 10.6934 16.6152V16.6211C10.6934 16.8672 10.4941 17.0781 10.248 17.1016C9.95508 17.1309 9.65039 17.1484 9.3457 17.1484C9.04102 17.1484 8.74219 17.1309 8.44336 17.1016Z" fill="white"/>
<path d="M19.752 17.1016C19.5059 17.0781 19.3066 16.8672 19.3066 16.6211V16.6152C19.3066 15.9531 19.9102 15.4141 20.6543 15.4141C21.3984 15.4141 22.002 15.9531 22.002 16.6152V16.6211C22.002 16.8672 21.8027 17.0781 21.5566 17.1016C21.2637 17.1309 20.959 17.1484 20.6543 17.1484C20.3496 17.1484 20.0508 17.1309 19.752 17.1016Z" fill="white"/>
</svg>
