<svg width="30" height="30" viewBox="0 0 30 30" fill="none" xmlns="http://www.w3.org/2000/svg">
<circle cx="15" cy="15" r="15" fill="#5A7994"/>
<path d="M10.3126 22.216C8.50063 22.216 7.13863 21.646 6.22663 20.506C5.31463 19.354 4.85863 17.86 4.85863 16.024C4.85863 14.116 5.39263 12.604 6.46063 11.488C7.52863 10.372 8.97463 9.814 10.7986 9.814C12.2506 9.814 13.4686 10.198 14.4526 10.966L13.1026 13.342C12.4546 12.814 11.6866 12.55 10.7986 12.55C10.0426 12.55 9.38263 12.808 8.81863 13.324C8.26663 13.828 7.99063 14.482 7.99063 15.286V15.43C8.29063 15.022 8.70463 14.692 9.23263 14.44C9.77263 14.188 10.3426 14.062 10.9426 14.062C12.0946 14.062 13.0726 14.416 13.8766 15.124C14.6926 15.82 15.1006 16.78 15.1006 18.004C15.1006 19.24 14.6506 20.254 13.7506 21.046C12.8506 21.826 11.7046 22.216 10.3126 22.216ZM10.1146 19.48C10.6666 19.48 11.1106 19.342 11.4466 19.066C11.7946 18.79 11.9686 18.472 11.9686 18.112C11.9686 17.644 11.7706 17.29 11.3746 17.05C10.9906 16.81 10.5346 16.69 10.0066 16.69C9.19063 16.69 8.51863 16.96 7.99063 17.5C8.03863 18.052 8.23663 18.52 8.58463 18.904C8.93263 19.288 9.44263 19.48 10.1146 19.48ZM21.062 22.216C19.022 22.216 17.408 21.634 16.22 20.47L17.912 18.31C18.764 19.09 19.802 19.48 21.026 19.48C21.65 19.48 22.13 19.348 22.466 19.084C22.814 18.82 22.988 18.49 22.988 18.094C22.988 17.674 22.826 17.338 22.502 17.086C22.178 16.834 21.716 16.708 21.116 16.708C20.168 16.708 19.376 17.008 18.74 17.608L16.598 17.086V9.994H25.31V12.694H19.694V15.016C20.354 14.38 21.212 14.062 22.268 14.062C23.324 14.062 24.23 14.422 24.986 15.142C25.754 15.862 26.138 16.804 26.138 17.968C26.138 19.264 25.682 20.296 24.77 21.064C23.858 21.832 22.622 22.216 21.062 22.216Z" fill="white"/>
</svg>
