<svg width="30" height="30" viewBox="0 0 30 30" fill="none" xmlns="http://www.w3.org/2000/svg">
<circle cx="15" cy="15" r="15" fill="#DB321F"/>
<path d="M21.7501 20.1074H8.25027C7.89674 20.1074 7.60742 20.3967 7.60742 20.7503V22.3574C7.60742 22.7109 7.89674 23.0002 8.25027 23.0002H21.7501C22.1036 23.0002 22.3929 22.7109 22.3929 22.3574V20.7503C22.3929 20.3967 22.1036 20.1074 21.7501 20.1074Z" fill="white"/>
<path d="M9.68043 19.4645H10.4614L11.5446 12.1135C11.7632 10.9435 12.496 10.4646 13.4507 10.4646H14.3314C14.3314 10.4646 12.6922 11.0592 12.4287 12.7146C12.2712 13.7046 11.7988 17.6259 11.5801 19.4645H20.9689L19.7379 11.101C19.5772 10.0049 18.6192 9.17896 17.5136 9.17896H12.4866C11.3809 9.17896 10.423 10.0051 10.2623 11.101L9.03125 19.4645H9.68043Z" fill="white"/>
<path d="M15.0001 8.21424C15.1777 8.21424 15.3216 8.07039 15.3216 7.89281V5.32142C15.3216 5.14385 15.1777 5 15.0001 5C14.8226 5 14.6787 5.14385 14.6787 5.32142V7.89281C14.6787 8.07039 14.8226 8.21424 15.0001 8.21424Z" fill="white"/>
<path d="M20.1979 9.12351C20.2802 9.12351 20.3624 9.09212 20.4251 9.02934L22.2436 7.21128C22.3691 7.08572 22.3691 6.88232 22.2436 6.75676C22.118 6.63121 21.9146 6.63121 21.7891 6.75676L19.9706 8.57483C19.8451 8.70039 19.8451 8.90379 19.9706 9.02934C20.0334 9.09212 20.1157 9.12351 20.1979 9.12351Z" fill="white"/>
<path d="M9.57471 9.02934C9.63749 9.09212 9.71982 9.12351 9.80196 9.12351C9.88411 9.12351 9.96644 9.09212 10.0292 9.02934C10.1548 8.90378 10.1548 8.70038 10.0292 8.57483L8.21079 6.75677C8.08523 6.63121 7.88183 6.63121 7.75628 6.75677C7.63072 6.88232 7.63072 7.08572 7.75628 7.21128L9.57471 9.02934Z" fill="white"/>
<path d="M8.89281 13.0355C8.89281 12.858 8.74896 12.7141 8.57139 12.7141H6.32142C6.14385 12.7141 6 12.858 6 13.0355C6 13.2131 6.14385 13.357 6.32142 13.357H8.57139C8.74896 13.357 8.89281 13.2131 8.89281 13.0355Z" fill="white"/>
<path d="M23.6788 12.7141H21.4288C21.2513 12.7141 21.1074 12.858 21.1074 13.0355C21.1074 13.2131 21.2513 13.357 21.4288 13.357H23.6788C23.8564 13.357 24.0002 13.2131 24.0002 13.0355C24.0002 12.858 23.8564 12.7141 23.6788 12.7141Z" fill="white"/>
</svg>
