<svg width="30" height="30" viewBox="0 0 30 30" fill="none" xmlns="http://www.w3.org/2000/svg">
<circle cx="15" cy="15" r="15" fill="black"/>
<path d="M13.5935 20H11.1795V17.654H5.75654V15.75L10.2615 8.661H13.5935V15.529H15.0555V17.654H13.5935V20ZM11.1795 15.529V10.803L8.11954 15.529H11.1795ZM24.8081 20H16.2741V18.096C20.9151 14.662 22.2751 13.506 22.2751 12.112C22.2751 11.109 21.3741 10.633 20.4391 10.633C19.1471 10.633 18.1611 11.143 17.3961 11.942L16.0191 10.344C17.1241 9.069 18.8071 8.491 20.3881 8.491C22.8191 8.491 24.7231 9.851 24.7231 12.112C24.7231 14.05 23.1251 15.733 20.1841 17.875H24.8081V20Z" fill="white"/>
</svg>
