<svg width="30" height="30" viewBox="0 0 30 30" fill="none" xmlns="http://www.w3.org/2000/svg">
<circle cx="15" cy="15" r="15" fill="black"/>
<path d="M6.06493 18.504L7.39093 16.872C8.17293 17.671 9.22693 18.096 10.4169 18.096C11.7599 18.096 12.5249 17.331 12.5249 16.396C12.5249 15.359 11.7769 14.662 10.4849 14.662C9.54993 14.662 8.78493 14.951 8.10493 15.597L6.42193 15.138V8.661H14.2079V10.735H8.78493V13.574C9.37993 13.047 10.2979 12.639 11.3349 12.639C13.2559 12.639 14.9729 13.999 14.9729 16.294C14.9729 18.691 13.1709 20.204 10.4339 20.204C8.46193 20.204 7.03393 19.558 6.06493 18.504ZM24.9077 20H16.3737V18.096C21.0147 14.679 22.3747 13.506 22.3747 12.112C22.3747 11.126 21.4737 10.633 20.5217 10.633C19.2467 10.633 18.2607 11.143 17.4957 11.942L16.1187 10.344C17.2237 9.069 18.9067 8.491 20.4877 8.491C22.9017 8.491 24.8227 9.851 24.8227 12.112C24.8227 14.05 23.2247 15.733 20.1817 17.875H24.9077V20Z" fill="white"/>
</svg>
