<svg width="30" height="30" viewBox="0 0 30 30" fill="none" xmlns="http://www.w3.org/2000/svg">
<circle cx="15" cy="15" r="15" fill="black"/>
<path d="M13.5354 20H11.1214V17.654H5.69844V15.75L10.2034 8.661H13.5354V15.529H14.9974V17.654H13.5354V20ZM11.1214 15.529V10.803L8.06144 15.529H11.1214ZM16.012 17.059C16.012 15.682 17.083 14.628 18.443 14.152C17.185 13.727 16.199 12.894 16.199 11.483C16.199 9.358 18.46 8.491 20.568 8.491C22.659 8.491 24.937 9.358 24.937 11.483C24.937 12.894 23.934 13.727 22.676 14.152C24.036 14.628 25.124 15.682 25.124 17.059C25.124 19.167 22.948 20.204 20.568 20.204C18.188 20.204 16.012 19.184 16.012 17.059ZM22.472 11.857C22.472 11.058 21.673 10.565 20.568 10.565C19.446 10.565 18.647 11.058 18.647 11.857C18.647 12.741 19.871 13.132 20.568 13.234C21.265 13.132 22.472 12.741 22.472 11.857ZM22.676 16.77C22.676 15.784 21.265 15.308 20.568 15.223C19.854 15.308 18.46 15.784 18.46 16.77C18.46 17.603 19.378 18.13 20.568 18.13C21.724 18.13 22.676 17.603 22.676 16.77Z" fill="white"/>
</svg>
