<svg width="30" height="30" viewBox="0 0 30 30" fill="none" xmlns="http://www.w3.org/2000/svg">
<circle cx="15" cy="15" r="15" fill="black"/>
<path d="M10.1508 20.204C8.07684 20.204 6.51284 19.405 5.67984 18.385L6.95484 16.77C7.71984 17.586 8.96084 18.062 10.0658 18.062C11.4428 18.062 12.2078 17.467 12.2078 16.617C12.2078 15.716 11.5108 15.308 9.92984 15.308C9.45384 15.308 8.68884 15.325 8.51884 15.342V13.166C8.72284 13.183 9.50484 13.183 9.92984 13.183C11.1878 13.183 12.0378 12.809 12.0378 11.976C12.0378 11.075 11.1028 10.633 9.92984 10.633C8.82484 10.633 7.83884 11.041 7.03984 11.806L5.83284 10.293C6.75084 9.256 8.17884 8.491 10.1678 8.491C12.8198 8.491 14.4518 9.681 14.4518 11.568C14.4518 12.996 13.2278 13.931 11.9698 14.152C13.1258 14.271 14.6218 15.172 14.6218 16.872C14.6218 18.827 12.8708 20.204 10.1508 20.204ZM19.7884 20.187C18.4114 20.187 17.2554 19.728 16.4564 19.014L17.5274 17.161C18.1394 17.739 18.7854 18.045 19.7884 18.045C21.6584 18.045 22.6274 16.464 22.6274 14.849C22.6274 14.764 22.6274 14.679 22.6274 14.594C22.0834 15.359 20.9444 16.056 19.7034 16.056C17.6634 16.056 15.8444 14.781 15.8444 12.367C15.8444 10.157 17.5954 8.474 20.1794 8.474C23.6304 8.474 25.0754 11.126 25.0754 14.322C25.0754 17.756 23.1374 20.187 19.7884 20.187ZM20.3834 13.982C21.2504 13.982 22.0664 13.591 22.6104 12.911C22.5084 11.823 21.8964 10.616 20.3154 10.616C19.0064 10.616 18.2924 11.5 18.2924 12.282C18.2924 13.472 19.3294 13.982 20.3834 13.982Z" fill="white"/>
</svg>
