<svg width="30" height="30" viewBox="0 0 30 30" fill="none" xmlns="http://www.w3.org/2000/svg">
<circle cx="15" cy="15" r="15" fill="black"/>
<path d="M5.67984 18.385L6.93784 16.804C7.71984 17.62 8.96084 18.096 10.0658 18.096C11.4428 18.096 12.2078 17.501 12.2078 16.634C12.2078 15.716 11.5108 15.291 9.92984 15.291C9.45384 15.291 8.68884 15.291 8.51884 15.308V13.2C8.72284 13.217 9.48784 13.217 9.92984 13.217C11.1878 13.217 12.0208 12.809 12.0208 11.959C12.0208 11.058 11.1028 10.599 9.91284 10.599C8.80784 10.599 7.82184 11.024 7.02284 11.789L5.83284 10.293C6.75084 9.256 8.17884 8.491 10.1678 8.491C12.8198 8.491 14.4518 9.681 14.4518 11.568C14.4518 12.996 13.2278 13.931 11.9698 14.152C13.1258 14.271 14.6218 15.172 14.6218 16.872C14.6218 18.827 12.8708 20.204 10.1508 20.204C8.05984 20.204 6.51284 19.405 5.67984 18.385ZM16.1504 18.504L17.4764 16.872C18.2584 17.671 19.3124 18.096 20.5024 18.096C21.8454 18.096 22.6104 17.331 22.6104 16.396C22.6104 15.359 21.8624 14.662 20.5704 14.662C19.6354 14.662 18.8704 14.951 18.1904 15.597L16.5074 15.138V8.661H24.2934V10.735H18.8704V13.574C19.4654 13.047 20.3834 12.639 21.4204 12.639C23.3414 12.639 25.0584 13.999 25.0584 16.294C25.0584 18.691 23.2564 20.204 20.5194 20.204C18.5474 20.204 17.1194 19.558 16.1504 18.504Z" fill="white"/>
</svg>
