<svg width="30" height="30" viewBox="0 0 30 30" fill="none" xmlns="http://www.w3.org/2000/svg">
<circle cx="15" cy="15" r="15" fill="black"/>
<path d="M9.84269 20V11.772L7.97269 13.693L6.59569 12.248L10.1657 8.661H12.2737V20H9.84269ZM14.1969 20V18.096C18.8379 14.679 20.1979 13.506 20.1979 12.112C20.1979 11.126 19.2969 10.633 18.3449 10.633C17.0699 10.633 16.0839 11.143 15.3189 11.942L13.9419 10.344C15.0469 9.069 16.7299 8.491 18.3109 8.491C20.7249 8.491 22.6459 9.851 22.6459 12.112C22.6459 14.05 21.0479 15.733 18.0049 17.875H22.7309V20H14.1969Z" fill="white"/>
</svg>
