<svg width="30" height="30" viewBox="0 0 30 30" fill="none" xmlns="http://www.w3.org/2000/svg">
<circle cx="15" cy="15" r="15" fill="black"/>
<path d="M13.5188 20H11.1048V17.654H5.68184V15.75L10.1868 8.661H13.5188V15.529H14.9808V17.654H13.5188V20ZM11.1048 15.529V10.803L8.04484 15.529H11.1048ZM16.5394 19.014L17.6104 17.212C18.2224 17.773 18.8684 18.079 19.8714 18.079C21.6904 18.079 22.7104 16.532 22.7104 14.815V14.577C22.1664 15.342 21.0274 16.039 19.7864 16.039C17.7464 16.039 15.9104 14.781 15.9104 12.367C15.9104 10.157 17.6784 8.474 20.2624 8.474C23.6964 8.474 25.1414 11.126 25.1414 14.339C25.1414 17.756 23.2204 20.187 19.8714 20.187C18.4944 20.187 17.3384 19.728 16.5394 19.014ZM22.6764 12.945C22.5914 11.857 21.9794 10.565 20.3644 10.565C19.0724 10.565 18.3754 11.466 18.3754 12.265C18.3754 13.472 19.3784 13.999 20.4664 13.999C21.3164 13.999 22.1494 13.608 22.6764 12.945Z" fill="white"/>
</svg>
