<svg width="30" height="30" viewBox="0 0 30 30" fill="none" xmlns="http://www.w3.org/2000/svg">
<circle cx="15" cy="15" r="15" fill="black"/>
<path d="M10.1904 20.204C8.11639 20.204 6.55239 19.405 5.71939 18.385L6.99439 16.77C7.75939 17.586 9.00039 18.062 10.1054 18.062C11.4824 18.062 12.2474 17.467 12.2474 16.617C12.2474 15.716 11.5504 15.308 9.96939 15.308C9.49339 15.308 8.72839 15.325 8.55839 15.342V13.166C8.76239 13.183 9.54439 13.183 9.96939 13.183C11.2274 13.183 12.0774 12.809 12.0774 11.976C12.0774 11.075 11.1424 10.633 9.96939 10.633C8.86439 10.633 7.87839 11.041 7.07939 11.806L5.87239 10.293C6.79039 9.256 8.21839 8.491 10.2074 8.491C12.8594 8.491 14.4914 9.681 14.4914 11.568C14.4914 12.996 13.2674 13.931 12.0094 14.152C13.1654 14.271 14.6614 15.172 14.6614 16.872C14.6614 18.827 12.9104 20.204 10.1904 20.204ZM20.0659 20H17.4139L21.4769 10.786H15.7649V8.661H24.2819V10.344L20.0659 20Z" fill="white"/>
</svg>
