<svg width="30" height="30" viewBox="0 0 30 30" fill="none" xmlns="http://www.w3.org/2000/svg">
<circle cx="15" cy="15" r="15" fill="black"/>
<path d="M13.5188 20H11.1048V17.654H5.68184V15.75L10.1868 8.661H13.5188V15.529H14.9808V17.654H13.5188V20ZM11.1048 15.529V10.803L8.04484 15.529H11.1048ZM20.6024 20.204C18.6304 20.204 17.2024 19.558 16.2334 18.504L17.5764 16.821C18.3414 17.62 19.3954 18.062 20.5854 18.062C21.9284 18.062 22.6934 17.297 22.6934 16.379C22.6934 15.376 21.9454 14.696 20.6534 14.696C19.7184 14.696 18.9534 14.968 18.2734 15.614L16.5904 15.155V8.661H24.3764V10.786H19.0044V13.557C19.5484 13.013 20.4664 12.605 21.5034 12.605C23.4244 12.605 25.1414 13.982 25.1414 16.277C25.1414 18.674 23.3394 20.204 20.6024 20.204Z" fill="white"/>
</svg>
