<svg width="30" height="30" viewBox="0 0 30 30" fill="none" xmlns="http://www.w3.org/2000/svg">
<circle cx="15" cy="15" r="15" fill="black"/>
<path d="M5.67984 18.385L6.93784 16.804C7.71984 17.62 8.96084 18.096 10.0658 18.096C11.4428 18.096 12.2078 17.501 12.2078 16.634C12.2078 15.716 11.5108 15.291 9.92984 15.291C9.45384 15.291 8.68884 15.291 8.51884 15.308V13.2C8.72284 13.217 9.48784 13.217 9.92984 13.217C11.1878 13.217 12.0208 12.809 12.0208 11.959C12.0208 11.058 11.1028 10.599 9.91284 10.599C8.80784 10.599 7.82184 11.024 7.02284 11.789L5.83284 10.293C6.75084 9.256 8.17884 8.491 10.1678 8.491C12.8198 8.491 14.4518 9.681 14.4518 11.568C14.4518 12.996 13.2278 13.931 11.9698 14.152C13.1258 14.271 14.6218 15.172 14.6218 16.872C14.6218 18.827 12.8708 20.204 10.1508 20.204C8.05984 20.204 6.51284 19.405 5.67984 18.385ZM15.8954 14.356C15.8954 10.922 17.8334 8.491 21.1824 8.491C22.5594 8.491 23.7154 8.967 24.5314 9.664L23.4434 11.483C22.8314 10.905 22.1854 10.582 21.1824 10.582C19.4654 10.582 18.3434 12.061 18.3434 13.863C18.3434 13.948 18.3434 14.033 18.3604 14.101C18.8874 13.336 20.0264 12.656 21.2674 12.656C23.3074 12.656 25.1264 13.897 25.1264 16.311C25.1264 18.521 23.3754 20.204 20.7914 20.204C17.3404 20.204 15.8954 17.552 15.8954 14.356ZM22.6784 16.413C22.6784 15.189 21.6754 14.662 20.5704 14.662C19.7204 14.662 18.9044 15.087 18.3604 15.75C18.4624 16.838 19.0744 18.096 20.6724 18.096C21.9814 18.096 22.6784 17.212 22.6784 16.413Z" fill="white"/>
</svg>
