<svg width="30" height="30" viewBox="0 0 30 30" fill="none" xmlns="http://www.w3.org/2000/svg">
<circle cx="15" cy="15" r="15" fill="black"/>
<path d="M10.1674 20.204C8.09345 20.204 6.52945 19.405 5.69645 18.385L6.97145 16.77C7.73645 17.586 8.97745 18.062 10.0824 18.062C11.4594 18.062 12.2244 17.467 12.2244 16.617C12.2244 15.716 11.5274 15.308 9.94645 15.308C9.47045 15.308 8.70545 15.325 8.53545 15.342V13.166C8.73945 13.183 9.52145 13.183 9.94645 13.183C11.2044 13.183 12.0544 12.809 12.0544 11.976C12.0544 11.075 11.1194 10.633 9.94645 10.633C8.84145 10.633 7.85545 11.041 7.05645 11.806L5.84945 10.293C6.76745 9.256 8.19545 8.491 10.1844 8.491C12.8364 8.491 14.4684 9.681 14.4684 11.568C14.4684 12.996 13.2444 13.931 11.9864 14.152C13.1424 14.271 14.6384 15.172 14.6384 16.872C14.6384 18.827 12.8874 20.204 10.1674 20.204ZM20.485 20.204C18.105 20.204 15.929 19.167 15.929 17.059C15.929 15.682 17 14.628 18.36 14.152C17.102 13.71 16.116 12.894 16.116 11.483C16.116 9.341 18.377 8.491 20.485 8.491C22.576 8.491 24.854 9.341 24.854 11.483C24.854 12.894 23.851 13.71 22.61 14.152C23.953 14.628 25.041 15.682 25.041 17.059C25.041 19.167 22.865 20.204 20.485 20.204ZM20.485 13.2C21.182 13.081 22.389 12.724 22.389 11.891C22.389 11.092 21.59 10.633 20.485 10.633C19.363 10.633 18.564 11.092 18.564 11.891C18.564 12.724 19.788 13.081 20.485 13.2ZM20.485 18.062C21.641 18.062 22.593 17.535 22.593 16.719C22.593 15.784 21.182 15.342 20.485 15.24C19.771 15.342 18.377 15.784 18.377 16.719C18.377 17.535 19.295 18.062 20.485 18.062Z" fill="white"/>
</svg>
