<svg width="30" height="30" viewBox="0 0 30 30" fill="none" xmlns="http://www.w3.org/2000/svg">
<circle cx="15" cy="15" r="15" fill="black"/>
<path d="M10.4506 20V11.772L8.5806 13.693L7.2036 12.248L10.7736 8.661H12.8816V20H10.4506ZM14.3459 18.385L15.6039 16.804C16.3859 17.62 17.6269 18.096 18.7319 18.096C20.1089 18.096 20.8739 17.501 20.8739 16.634C20.8739 15.716 20.1769 15.291 18.5959 15.291C18.1199 15.291 17.3549 15.291 17.1849 15.308V13.2C17.3889 13.217 18.1539 13.217 18.5959 13.217C19.8539 13.217 20.6869 12.809 20.6869 11.959C20.6869 11.058 19.7689 10.599 18.5789 10.599C17.4739 10.599 16.4879 11.024 15.6889 11.789L14.4989 10.293C15.4169 9.256 16.8449 8.491 18.8339 8.491C21.4859 8.491 23.1179 9.681 23.1179 11.568C23.1179 12.996 21.8939 13.931 20.6359 14.152C21.7919 14.271 23.2879 15.172 23.2879 16.872C23.2879 18.827 21.5369 20.204 18.8169 20.204C16.7259 20.204 15.1789 19.405 14.3459 18.385Z" fill="white"/>
</svg>
