<svg width="30" height="30" viewBox="0 0 30 30" fill="none" xmlns="http://www.w3.org/2000/svg">
<circle cx="15" cy="15" r="15" fill="black"/>
<path d="M7.16698 18.504L8.49298 16.872C9.27498 17.671 10.329 18.096 11.519 18.096C12.862 18.096 13.627 17.331 13.627 16.396C13.627 15.359 12.879 14.662 11.587 14.662C10.652 14.662 9.88698 14.951 9.20698 15.597L7.52398 15.138V8.661H15.31V10.735H9.88698V13.574C10.482 13.047 11.4 12.639 12.437 12.639C14.358 12.639 16.075 13.999 16.075 16.294C16.075 18.691 14.273 20.204 11.536 20.204C9.56398 20.204 8.13598 19.558 7.16698 18.504ZM22.5418 20H20.1108V11.772L18.2408 13.693L16.8638 12.248L20.4338 8.661H22.5418V20Z" fill="white"/>
</svg>
