<svg width="30" height="30" viewBox="0 0 30 30" fill="none" xmlns="http://www.w3.org/2000/svg">
<circle cx="15" cy="15" r="15" fill="black"/>
<path d="M5.89062 18.504L7.21662 16.872C7.99862 17.671 9.05262 18.096 10.2426 18.096C11.5856 18.096 12.3506 17.331 12.3506 16.396C12.3506 15.359 11.6026 14.662 10.3106 14.662C9.37562 14.662 8.61062 14.951 7.93062 15.597L6.24762 15.138V8.661H14.0336V10.735H8.61062V13.574C9.20562 13.047 10.1236 12.639 11.1606 12.639C13.0816 12.639 14.7986 13.999 14.7986 16.294C14.7986 18.691 12.9966 20.204 10.2596 20.204C8.28762 20.204 6.85962 19.558 5.89062 18.504ZM15.9784 14.339C15.9784 11.415 17.4234 8.491 20.6704 8.491C23.9004 8.491 25.3624 11.415 25.3624 14.339C25.3624 17.263 23.9004 20.204 20.6704 20.204C17.4234 20.204 15.9784 17.263 15.9784 14.339ZM22.8974 14.339C22.8974 12.248 22.2854 10.633 20.6704 10.633C19.0384 10.633 18.4264 12.248 18.4264 14.339C18.4264 16.43 19.0384 18.062 20.6704 18.062C22.2854 18.062 22.8974 16.43 22.8974 14.339Z" fill="white"/>
</svg>
