<svg width="30" height="30" viewBox="0 0 30 30" fill="none" xmlns="http://www.w3.org/2000/svg">
<circle cx="15" cy="15" r="15" fill="black"/>
<path d="M13.7015 20H11.2875V17.654H5.86445V15.75L10.3695 8.661H13.7015V15.529H15.1635V17.654H13.7015V20ZM11.2875 15.529V10.803L8.22745 15.529H11.2875ZM20.394 20.204C18.32 20.204 16.756 19.405 15.923 18.385L17.198 16.77C17.963 17.586 19.204 18.062 20.309 18.062C21.686 18.062 22.451 17.467 22.451 16.617C22.451 15.716 21.754 15.308 20.173 15.308C19.697 15.308 18.932 15.325 18.762 15.342V13.166C18.966 13.183 19.748 13.183 20.173 13.183C21.431 13.183 22.281 12.809 22.281 11.976C22.281 11.075 21.346 10.633 20.173 10.633C19.068 10.633 18.082 11.041 17.283 11.806L16.076 10.293C16.994 9.256 18.422 8.491 20.411 8.491C23.063 8.491 24.695 9.681 24.695 11.568C24.695 12.996 23.471 13.931 22.213 14.152C23.369 14.271 24.865 15.172 24.865 16.872C24.865 18.827 23.114 20.204 20.394 20.204Z" fill="white"/>
</svg>
