<svg width="30" height="30" viewBox="0 0 30 30" fill="none" xmlns="http://www.w3.org/2000/svg">
<circle cx="15" cy="15" r="15" fill="black"/>
<path d="M9.76798 20V11.772L7.89798 13.693L6.52098 12.248L10.091 8.661H12.199V20H9.76798ZM14.1562 18.504L15.4822 16.872C16.2642 17.671 17.3182 18.096 18.5082 18.096C19.8512 18.096 20.6162 17.331 20.6162 16.396C20.6162 15.359 19.8682 14.662 18.5762 14.662C17.6412 14.662 16.8762 14.951 16.1962 15.597L14.5132 15.138V8.661H22.2992V10.735H16.8762V13.574C17.4712 13.047 18.3892 12.639 19.4262 12.639C21.3472 12.639 23.0642 13.999 23.0642 16.294C23.0642 18.691 21.2622 20.204 18.5252 20.204C16.5532 20.204 15.1252 19.558 14.1562 18.504Z" fill="white"/>
</svg>
