<svg width="30" height="30" viewBox="0 0 30 30" fill="none" xmlns="http://www.w3.org/2000/svg">
<circle cx="15" cy="15" r="15" fill="black"/>
<path d="M13.5188 20H11.1048V17.654H5.68184V15.75L10.1868 8.661H13.5188V15.529H14.9808V17.654H13.5188V20ZM11.1048 15.529V10.803L8.04484 15.529H11.1048ZM20.8744 20.204C17.4234 20.204 15.9784 17.552 15.9784 14.356C15.9784 10.922 17.9164 8.491 21.2654 8.491C22.6424 8.491 23.7984 8.95 24.6144 9.664L23.5264 11.517C22.9144 10.939 22.2684 10.633 21.2654 10.633C19.5994 10.633 18.4264 12.044 18.4264 13.846C18.4264 13.931 18.4264 13.999 18.4434 14.084C18.9704 13.319 20.1094 12.622 21.3504 12.622C23.3904 12.622 25.2264 13.897 25.2264 16.311C25.2264 18.521 23.4584 20.204 20.8744 20.204ZM20.7384 18.062C22.0474 18.062 22.7614 17.178 22.7614 16.396C22.7614 15.206 21.7414 14.696 20.6704 14.696C19.8204 14.696 18.9874 15.087 18.4434 15.767C18.5454 16.855 19.1574 18.062 20.7384 18.062Z" fill="white"/>
</svg>
