<svg width="30" height="30" viewBox="0 0 30 30" fill="none" xmlns="http://www.w3.org/2000/svg">
<circle cx="15" cy="15" r="15" fill="black"/>
<path d="M13.4192 20H11.0052V17.654H5.58223V15.75L10.0872 8.661H13.4192V15.529H14.8812V17.654H13.4192V20ZM11.0052 15.529V10.803L7.94523 15.529H11.0052ZM20.5708 20.204C17.3238 20.204 15.8788 17.263 15.8788 14.339C15.8788 11.415 17.3238 8.491 20.5708 8.491C23.8178 8.491 25.2628 11.415 25.2628 14.339C25.2628 17.263 23.8178 20.204 20.5708 20.204ZM20.5708 18.062C22.1858 18.062 22.7978 16.43 22.7978 14.339C22.7978 12.248 22.2028 10.633 20.5708 10.633C18.9558 10.633 18.3438 12.248 18.3438 14.339C18.3438 16.43 18.9558 18.062 20.5708 18.062Z" fill="white"/>
</svg>
