<svg width="30" height="30" viewBox="0 0 30 30" fill="none" xmlns="http://www.w3.org/2000/svg">
<path d="M15 30C23.2843 30 30 23.2843 30 15C30 6.71573 23.2843 0 15 0C6.71573 0 0 6.71573 0 15C0 23.2843 6.71573 30 15 30Z" fill="#959499"/>
<path opacity="0.33" d="M21.4731 20.6692L20.2844 18.2713C20.1835 18.0695 19.979 17.9425 19.755 17.9414H10.2445C10.0205 17.9425 9.81597 18.0695 9.71511 18.2713L8.52644 20.6692C8.43393 20.8546 8.44285 21.0755 8.5504 21.2525C8.65851 21.4295 8.84967 21.5374 9.0553 21.538H20.9443C21.1499 21.5374 21.341 21.4295 21.4492 21.2525C21.5567 21.0755 21.5656 20.8546 21.4731 20.6692H21.4731Z" fill="white"/>
<path d="M10.6306 16.647C10.5242 16.4615 10.5242 16.2334 10.6306 16.0479L11.8193 13.65C11.9196 13.4606 12.1119 13.3393 12.3247 13.3325H17.6746C17.8986 13.3331 18.1031 13.4606 18.2035 13.6618L19.3921 16.0597H19.3927C19.4852 16.2452 19.4763 16.466 19.3682 16.643C19.2606 16.8201 19.0694 16.9285 18.8633 16.9291H11.1361C10.9304 16.9291 10.7393 16.8229 10.6306 16.647L10.6306 16.647Z" fill="white"/>
<path opacity="0.33" d="M13.2166 12.3192H16.7832C16.9894 12.3186 17.18 12.2102 17.2881 12.0331C17.3957 11.8561 17.4051 11.6353 17.3121 11.4498L15.5288 7.85328C15.4274 7.65322 15.2228 7.52734 14.9999 7.52734C14.777 7.52734 14.5725 7.65322 14.4711 7.85328L12.6878 11.4498C12.5947 11.6353 12.6042 11.8561 12.7118 12.0331C12.8199 12.2102 13.0105 12.3186 13.2167 12.3192H13.2166Z" fill="white"/>
</svg>
