<svg width="30" height="30" viewBox="0 0 30 30" fill="none" xmlns="http://www.w3.org/2000/svg">
<circle cx="15" cy="15" r="15" fill="#307BC6"/>
<path d="M9.62798 22.216C7.40798 22.216 5.63198 21.58 4.29998 20.308L5.93798 17.986C6.99398 19.042 8.27198 19.57 9.77198 19.57C10.3 19.57 10.714 19.48 11.014 19.3C11.326 19.108 11.482 18.868 11.482 18.58C11.482 18.328 11.314 18.124 10.978 17.968C10.642 17.8 10.222 17.68 9.71798 17.608C9.21398 17.524 8.66798 17.398 8.07998 17.23C7.49198 17.05 6.94598 16.846 6.44198 16.618C5.93798 16.378 5.51798 16 5.18198 15.484C4.84598 14.968 4.67798 14.35 4.67798 13.63C4.67798 12.574 5.10398 11.674 5.95598 10.93C6.81998 10.186 7.98998 9.814 9.46598 9.814C11.422 9.814 13.048 10.372 14.344 11.488L12.652 13.702C11.644 12.874 10.474 12.46 9.14198 12.46C8.27798 12.46 7.84598 12.748 7.84598 13.324C7.84598 13.552 8.01398 13.75 8.34998 13.918C8.68598 14.074 9.10598 14.194 9.60998 14.278C10.114 14.362 10.654 14.494 11.23 14.674C11.818 14.842 12.364 15.046 12.868 15.286C13.372 15.526 13.792 15.898 14.128 16.402C14.464 16.906 14.632 17.506 14.632 18.202C14.632 19.426 14.194 20.404 13.318 21.136C12.442 21.856 11.212 22.216 9.62798 22.216ZM20.544 22.216C18.324 22.216 16.548 21.58 15.216 20.308L16.854 17.986C17.91 19.042 19.188 19.57 20.688 19.57C21.216 19.57 21.63 19.48 21.93 19.3C22.242 19.108 22.398 18.868 22.398 18.58C22.398 18.328 22.23 18.124 21.894 17.968C21.558 17.8 21.138 17.68 20.634 17.608C20.13 17.524 19.584 17.398 18.996 17.23C18.408 17.05 17.862 16.846 17.358 16.618C16.854 16.378 16.434 16 16.098 15.484C15.762 14.968 15.594 14.35 15.594 13.63C15.594 12.574 16.02 11.674 16.872 10.93C17.736 10.186 18.906 9.814 20.382 9.814C22.338 9.814 23.964 10.372 25.26 11.488L23.568 13.702C22.56 12.874 21.39 12.46 20.058 12.46C19.194 12.46 18.762 12.748 18.762 13.324C18.762 13.552 18.93 13.75 19.266 13.918C19.602 14.074 20.022 14.194 20.526 14.278C21.03 14.362 21.57 14.494 22.146 14.674C22.734 14.842 23.28 15.046 23.784 15.286C24.288 15.526 24.708 15.898 25.044 16.402C25.38 16.906 25.548 17.506 25.548 18.202C25.548 19.426 25.11 20.404 24.234 21.136C23.358 21.856 22.128 22.216 20.544 22.216Z" fill="white"/>
</svg>
