<svg width="30" height="30" viewBox="0 0 30 30" fill="none" xmlns="http://www.w3.org/2000/svg">
<circle cx="15" cy="15" r="15" fill="#F066A8"/>
<path d="M11.3887 12.1152C11.7718 12.1248 12.2133 12.2435 12.6836 12.4531C13.5645 12.8444 14.5829 13.5616 15.5361 14.5127C16.4893 15.4623 17.2107 16.4771 17.6035 17.3535C17.8141 17.8222 17.9337 18.2625 17.9434 18.6445C17.953 19.0274 17.8514 19.3594 17.6133 19.5967C17.3947 19.8143 17.0946 19.9157 16.749 19.9229L9.2959 23.2314L9.29688 23.2324C8.34863 23.6996 7.63162 23.9727 7.10742 24.0645C6.58574 24.1557 6.21754 24.0717 6.02441 23.7686C5.93539 23.6288 5.89904 23.4566 5.90039 23.2617C5.90175 23.067 5.94018 22.8432 6.00781 22.5947C6.14302 22.0981 6.39769 21.4842 6.72266 20.7715L10.1143 13.1592C10.145 12.8757 10.2458 12.6304 10.4336 12.4434C10.6717 12.2062 11.0047 12.1056 11.3887 12.1152ZM22.1504 18.957C22.413 18.6954 22.8378 18.6959 23.1016 18.957L23.1875 19.0625C23.3599 19.3228 23.3314 19.6772 23.1016 19.9062C22.8391 20.1674 22.4128 20.1675 22.1504 19.9062C21.8877 19.6445 21.8878 19.2188 22.1504 18.957ZM11.4551 12.751C11.1864 12.7289 10.9988 12.7828 10.8867 12.8945L10.8857 12.8936C10.8092 12.9713 10.7611 13.0843 10.7451 13.2363L10.7441 13.2354C10.7445 13.2456 10.7451 13.2557 10.7441 13.2656C10.7306 13.467 10.7697 13.7136 10.8613 13.9961H10.8604C10.9047 14.1316 10.9616 14.276 11.0293 14.4268V14.4277C11.3877 15.228 12.0613 16.1744 12.9648 17.0762C13.8685 17.9765 14.8205 18.6478 15.624 19.0049C15.7961 19.0812 15.9594 19.1441 16.1113 19.1895H16.1123C16.3227 19.2522 16.5114 19.2873 16.6758 19.29H16.6748C16.6907 19.2901 16.7061 19.2907 16.7178 19.292C16.9207 19.2899 17.0678 19.2375 17.1611 19.1445C17.2731 19.0329 17.3269 18.8456 17.3047 18.5781C17.2826 18.3123 17.1859 17.9839 17.0195 17.6133C16.6612 16.8128 15.9869 15.8658 15.083 14.9639V14.9629C14.1796 14.0629 13.2281 13.3922 12.4248 13.0352C12.0527 12.8692 11.7222 12.773 11.4551 12.751ZM19.9746 16.3711L20.1562 17.085L20.9082 17.1221L21.2178 17.1367L20.958 17.3057L20.3232 17.7178L20.5049 18.4082L20.5801 18.6924L20.3477 18.5127L19.7744 18.0703L19.1562 18.4512L18.9053 18.6055L19.0107 18.3301L19.2666 17.6602L18.7139 17.1973L18.4873 17.0078L18.7822 17.0205L19.5029 17.0518L19.7852 16.3584L19.8994 16.0762L19.9746 16.3711ZM18.2266 15.3916C18.9514 14.7087 19.6055 14.5353 20.2188 14.6445C20.8592 14.7586 21.4364 15.1791 21.9756 15.5703C22.2638 15.7787 22.5386 15.9779 22.8066 16.1133C23.0744 16.2485 23.3223 16.3135 23.5566 16.2695C23.769 16.2304 23.975 16.3699 24.0146 16.583C24.0539 16.7953 23.9132 16.9988 23.7002 17.0381L23.7012 17.0391C23.2858 17.1173 22.9058 17.0287 22.5479 16.8613C22.3701 16.7782 22.1961 16.6745 22.0244 16.5615L21.5156 16.2041C21.0662 15.8785 20.6287 15.5633 20.1621 15.4697C19.7663 15.3904 19.3376 15.4699 18.8535 15.8828L18.6426 16.0801C18.4918 16.2362 18.2438 16.237 18.0889 16.0889C17.9318 15.9383 17.9308 15.6897 18.0801 15.5352L18.2266 15.3916ZM21.8223 12.7715C22.0847 12.51 22.5109 12.5102 22.7734 12.7715C23.0361 13.0332 23.0361 13.459 22.7734 13.7207C22.5109 13.9817 22.0846 13.982 21.8223 13.7207C21.5596 13.4591 21.5598 13.0332 21.8223 12.7715ZM23.709 7.57812C23.9259 7.57817 24.0996 7.75289 24.0996 7.96777C24.0996 8.15771 23.9648 8.31362 23.7871 8.34961L23.709 8.35742C23.0708 8.35885 22.6758 8.61275 22.3906 9.00098C22.0991 9.39784 21.9225 9.93571 21.7344 10.5098C21.5185 11.1694 21.2906 11.8651 20.8838 12.4336C20.4986 12.9719 19.9541 13.3947 19.1152 13.5771L18.9434 13.6104C18.7735 13.6398 18.5986 13.6678 18.4062 13.6943C18.2226 13.7194 18.0389 13.74 17.8535 13.752C17.6371 13.7655 17.4516 13.6028 17.4375 13.3867C17.4237 13.1702 17.5877 12.9847 17.8037 12.9707C17.9718 12.9592 18.1371 12.942 18.3008 12.9189C18.4582 12.8972 18.6329 12.8695 18.8115 12.8389C19.5174 12.7187 19.9636 12.3668 20.2822 11.9033C20.6045 11.4344 20.7958 10.8521 20.9863 10.2686C21.2061 9.60003 21.4261 8.92695 21.8193 8.42383C22.2194 7.91199 22.7954 7.58039 23.709 7.57812ZM13.7451 5.90625C13.9316 5.94079 14.0622 6.10216 14.0654 6.28418L14.0586 6.36328C14.0163 6.5855 14.0709 6.82305 14.1875 7.08008C14.3042 7.33729 14.4772 7.60212 14.6582 7.87891C15.0286 8.44661 15.4309 9.05734 15.4756 9.72754C15.5211 10.4113 15.1964 11.1314 14.1914 11.9238C14.0215 12.0576 13.7746 12.0272 13.6406 11.8584C13.5063 11.6887 13.5366 11.4431 13.7061 11.3096C14.4716 10.7061 14.678 10.1828 14.6416 9.71289C14.6135 9.34988 14.4409 9.00333 14.2266 8.6543L14.002 8.30371C13.5812 7.66333 13.1385 6.99647 13.2871 6.21875C13.3271 6.00605 13.533 5.86712 13.7451 5.90625ZM16.5039 10.5967C16.7664 10.3352 17.1926 10.3352 17.4551 10.5967C17.7175 10.8584 17.7175 11.2833 17.4551 11.5449C17.1926 11.8064 16.7664 11.8064 16.5039 11.5449C16.2412 11.2832 16.2413 10.8584 16.5039 10.5967ZM11.9688 9.51562C12.2314 9.25408 12.6552 9.25458 12.9189 9.51562H12.9199C13.1822 9.77726 13.1822 10.2022 12.9199 10.4639C12.6575 10.7254 12.2312 10.7253 11.9688 10.4639C11.7061 10.2021 11.7061 9.77735 11.9688 9.51562ZM18.1582 6.73145L18.9521 7.54395L19.9814 7.01367L20.2578 6.87109L20.1172 7.14746L19.5908 8.18066L20.3643 8.96094L20.5723 9.16992L20.2803 9.12988L19.1797 8.98047L18.6494 9.96094L18.5098 10.2197L18.4629 9.92871L18.2891 8.8418L17.1934 8.64941L16.9014 8.59766L17.165 8.46191L18.1475 7.95312L17.9883 6.81543L17.9453 6.51367L18.1582 6.73145ZM15.667 6.68945C15.9294 6.42817 16.3557 6.42832 16.6182 6.68945C16.8809 6.95117 16.8809 7.37695 16.6182 7.63867C16.3557 7.90006 15.9294 7.90015 15.667 7.63867C15.4044 7.37694 15.4043 6.95115 15.667 6.68945Z" fill="white" stroke="white" stroke-width="0.2"/>
</svg>
