<svg width="30" height="30" viewBox="0 0 30 30" fill="none" xmlns="http://www.w3.org/2000/svg">
<circle cx="15" cy="15" r="15" fill="#6C589F"/>
<path d="M15.5955 22.24C13.1289 22.24 11.1555 21.5333 9.67555 20.12L11.4955 17.54C12.6689 18.7133 14.0889 19.3 15.7555 19.3C16.3422 19.3 16.8022 19.2 17.1355 19C17.4822 18.7867 17.6555 18.52 17.6555 18.2C17.6555 17.92 17.4689 17.6933 17.0955 17.52C16.7222 17.3333 16.2555 17.2 15.6955 17.12C15.1355 17.0267 14.5289 16.8867 13.8755 16.7C13.2222 16.5 12.6155 16.2733 12.0555 16.02C11.4955 15.7533 11.0289 15.3333 10.6555 14.76C10.2822 14.1867 10.0955 13.5 10.0955 12.7C10.0955 11.5267 10.5689 10.5267 11.5155 9.7C12.4755 8.87333 13.7755 8.46 15.4155 8.46C17.5889 8.46 19.3955 9.08 20.8355 10.32L18.9555 12.78C17.8355 11.86 16.5355 11.4 15.0555 11.4C14.0955 11.4 13.6155 11.72 13.6155 12.36C13.6155 12.6133 13.8022 12.8333 14.1755 13.02C14.5489 13.1933 15.0155 13.3267 15.5755 13.42C16.1355 13.5133 16.7355 13.66 17.3755 13.86C18.0289 14.0467 18.6355 14.2733 19.1955 14.54C19.7555 14.8067 20.2222 15.22 20.5955 15.78C20.9689 16.34 21.1555 17.0067 21.1555 17.78C21.1555 19.14 20.6689 20.2267 19.6955 21.04C18.7222 21.84 17.3555 22.24 15.5955 22.24Z" fill="white"/>
</svg>
