<svg width="30" height="30" viewBox="0 0 30 30" fill="none" xmlns="http://www.w3.org/2000/svg">
<circle cx="15" cy="15" r="15" fill="#0091B3"/>
<path d="M16.9688 12H15.4688C15.3125 12 15.1562 12.0625 14.9688 12.0938V7.5C14.9688 7.25 15.2188 7 15.4688 7H16.4688C16.75 7 16.9688 7.25 16.9688 7.5V12ZM20.9688 15L21 17.7812C21 18.5938 20.6562 19.3438 20.0938 19.9062L18.9688 21.0312V23H10.9688V21L10.1562 20.1875C9.40625 19.4375 9 18.4062 9 17.3438V14.9375C9.15625 14.9688 9.3125 15 9.5 15H10.5C10.875 15 11.2188 14.875 11.5 14.625C11.75 14.875 12.0938 15 12.5 15H13.5C13.7188 15 13.9688 14.9375 14.1562 14.8438C14.4062 15.3438 14.8438 15.75 15.375 15.9062C14.8438 16.375 14.4062 17 13.9062 17.7188L13.7188 18.0312C13.6875 18.0625 13.6562 18.125 13.6562 18.1562C13.6562 18.25 13.7188 18.3438 13.7812 18.375L14.1875 18.6562C14.2188 18.6875 14.2812 18.6875 14.3438 18.6875C14.4062 18.6875 14.5 18.6562 14.5312 18.5938L14.75 18.2812C15.7188 16.7812 16.3438 16.0938 17.75 16.0312C17.875 16 17.9688 15.9062 17.9688 15.7812V15.25C17.9688 15.125 17.875 15 17.5625 15H16.4688C15.6562 15 14.9688 14.3438 14.9688 13.5312V13.5C14.9688 13.25 15.2188 13 15.4688 13H18.9688C20.0938 13 20.9688 13.9062 20.9688 15ZM19.9688 12.1875C19.6562 12.0938 19.3438 12 18.9688 12H17.9688V8.5C17.9688 8.25 18.2188 8 18.4688 8H19.4688C19.75 8 19.9688 8.25 19.9688 8.5V12.1875ZM9.5 14C9.21875 14 9 13.7812 9 13.5V9.5C9 9.25 9.21875 9 9.5 9H10.5C10.75 9 11 9.25 11 9.5V13.5C11 13.7812 10.75 14 10.5 14H9.5ZM12.4688 14C12.2188 14 11.9688 13.7812 11.9688 13.5V8.5C11.9688 8.25 12.2188 8 12.4688 8H13.4688C13.75 8 13.9688 8.25 13.9688 8.5V13.5C13.9688 13.7812 13.75 14 13.4688 14H12.4688Z" fill="white"/>
</svg>
