<svg width="30" height="30" viewBox="0 0 30 30" fill="none" xmlns="http://www.w3.org/2000/svg">
<circle cx="15" cy="15" r="15" fill="#74B72E"/>
<g clip-path="url(#clip0_5322_3817)">
<path d="M21.5545 11.4771C21.4548 11.5626 19.6936 12.6589 19.6936 15.0966C19.6936 17.9162 21.9346 18.9137 22.0017 18.9384C21.9914 18.9992 21.6457 20.3045 20.8201 21.6345C20.084 22.8049 19.3152 23.9734 18.1457 23.9734C16.9762 23.9734 16.6752 23.2229 15.3251 23.2229C14.0093 23.2229 13.5415 23.9981 12.4717 23.9981C11.402 23.9981 10.6555 22.9151 9.7973 21.5851C8.80319 20.0233 8 17.597 8 15.2942C8 11.6006 10.174 9.6417 12.3135 9.6417C13.4504 9.6417 14.398 10.4663 15.1118 10.4663C15.7912 10.4663 16.8506 9.5923 18.144 9.5923C18.6342 9.5923 20.3953 9.6417 21.5545 11.4771ZM17.53 8.0286C18.0649 7.3275 18.4432 6.3547 18.4432 5.3819C18.4432 5.247 18.4329 5.1102 18.4106 5C17.5403 5.0361 16.5049 5.6403 15.8806 6.4402C15.3904 7.0558 14.9329 8.0286 14.9329 9.0147C14.9329 9.1629 14.9553 9.3111 14.9656 9.3586C15.0206 9.37 15.1101 9.3833 15.1995 9.3833C15.9803 9.3833 16.9624 8.8057 17.53 8.0286Z" fill="white"/>
</g>
<defs>
<clipPath id="clip0_5322_3817">
<rect width="14" height="19" fill="white" transform="translate(8 5)"/>
</clipPath>
</defs>
</svg>
