<svg width="31" height="31" viewBox="0 0 31 31" fill="none" xmlns="http://www.w3.org/2000/svg">
<circle cx="15.5" cy="15.5" r="15.5" fill="#5088D6"/>
<path fill-rule="evenodd" clip-rule="evenodd" d="M15.7745 10.8506C15.7745 8.74528 17.3928 7.03044 19.3791 7.03044C21.3806 7.03044 22.9837 8.71246 22.9837 10.8346C22.9837 12.9676 21.3774 14.7426 19.3791 14.7426C17.3809 14.7426 15.7828 12.9752 15.7745 10.8506ZM16.2751 22.1289H14.3565C13.6839 22.1289 13.1582 22.0287 12.7969 21.7945C12.4223 21.5517 12.2451 21.1789 12.2451 20.6963C12.2451 19.5908 12.9382 18.2714 14.1635 17.2342C15.3939 16.1927 17.174 15.4228 19.3791 15.4228C21.5803 15.4228 23.3584 16.1928 24.5878 17.2342C25.8121 18.2714 26.5051 19.5908 26.5051 20.6963C26.5051 21.1789 26.3279 21.5517 25.9533 21.7945C25.592 22.0287 25.0663 22.1289 24.3938 22.1289H22.1651V20.6131H24.777C24.823 20.6131 24.855 20.6099 24.8771 20.6052C24.8927 20.6019 24.9003 20.5984 24.9033 20.5968C24.9057 20.5912 24.9095 20.5766 24.9095 20.5445C24.9095 19.9557 24.4417 19.0553 23.496 18.2937C22.559 17.539 21.1718 16.9386 19.3791 16.9386C17.5823 16.9386 16.1932 17.539 15.2551 18.2937C14.3085 19.0553 13.8407 19.9557 13.8407 20.5445C13.8407 20.5739 13.8447 20.5879 13.8467 20.5929C13.8467 20.5929 13.8579 20.6006 13.8793 20.6051C13.9025 20.61 13.9353 20.6131 13.9812 20.6131H16.2751V22.1289ZM24.9015 20.5997L24.9033 20.5968ZM19.3791 13.2269C20.4457 13.2269 21.3881 12.1857 21.3881 10.8346C21.3881 9.5146 20.4679 8.54619 19.3791 8.54619C18.2992 8.54619 17.3701 9.52957 17.3701 10.8506C17.3701 12.2 18.319 13.2269 19.3791 13.2269Z" fill="white"/>
<path fill-rule="evenodd" clip-rule="evenodd" d="M16.6244 16.2081L16.4746 16.2794L17.9832 18.9643C17.4549 19.254 17.0967 19.8153 17.0967 20.4603V22.3203C17.0967 23.262 17.8601 24.0253 18.8017 24.0253H19.7317C20.6734 24.0253 21.4367 23.262 21.4367 22.3203V20.4603C21.4367 19.8556 21.1219 19.3244 20.6472 19.0217C20.65 19.017 20.6527 19.0121 20.6554 19.0073L22.2085 16.2432L22.056 16.1729C21.7457 16.0298 21.4212 15.9098 21.0831 15.8163L20.9661 15.784L19.5926 18.2285C19.5233 18.3518 19.4216 18.4011 19.3314 18.4011C19.2413 18.4011 19.1395 18.3518 19.0703 18.2285L17.7088 15.8056L17.5907 15.8399C17.2548 15.9376 16.9325 16.0615 16.6244 16.2081ZM18.4917 20.4603C18.4917 20.2891 18.6305 20.1503 18.8017 20.1503H19.7317C19.9029 20.1503 20.0417 20.2891 20.0417 20.4603V22.3203C20.0417 22.4916 19.9029 22.6303 19.7317 22.6303H18.8017C18.6305 22.6303 18.4917 22.4916 18.4917 22.3203V20.4603Z" fill="white"/>
<path d="M9.30039 20.15V10.85H7.57404L4.65039 13.792L5.77809 14.9771L7.32344 13.4016V20.15H9.30039Z" fill="white"/>
</svg>
