<svg width="30" height="30" viewBox="0 0 30 30" fill="none" xmlns="http://www.w3.org/2000/svg">
<circle cx="15" cy="15" r="15" fill="#CB334E"/>
<path fill-rule="evenodd" clip-rule="evenodd" d="M21.8359 12.7278V18.6485C21.8359 19.9866 20.7415 21.0707 19.3905 21.0707H13.4128C12.9629 21.0707 12.5977 20.709 12.5977 20.2633C12.5977 19.8176 12.9629 19.4559 13.4128 19.4559H19.3905C19.8405 19.4559 20.2057 19.0942 20.2057 18.6485V12.7278C20.2057 12.2821 20.5708 11.9204 21.0208 11.9204C21.4708 11.9204 21.8359 12.2821 21.8359 12.7278Z" fill="white"/>
<path fill-rule="evenodd" clip-rule="evenodd" d="M9.60924 21.0699C8.25828 21.0699 7.16382 19.9858 7.16382 18.6477V12.1887C7.16382 10.8506 8.25828 9.7666 9.60924 9.7666H19.3909C19.8409 9.7666 20.2061 10.1283 20.2061 10.574C20.2061 11.0196 19.8409 11.3814 19.3909 11.3814H9.60924C9.15928 11.3814 8.7941 11.7431 8.7941 12.1887V18.6477C8.7941 19.0934 9.15928 19.4551 9.60924 19.4551C10.0592 19.4551 10.4244 19.8168 10.4244 20.2625C10.4244 20.7082 10.0592 21.0699 9.60924 21.0699Z" fill="white"/>
<path fill-rule="evenodd" clip-rule="evenodd" d="M19.9339 12.9968H21.0208C21.4708 12.9968 21.8359 13.3585 21.8359 13.8042C21.8359 14.2499 21.4708 14.6116 21.0208 14.6116H19.9339C19.484 14.6116 19.1188 14.2499 19.1188 13.8042C19.1188 13.3585 19.484 12.9968 19.9339 12.9968Z" fill="white"/>
<path fill-rule="evenodd" clip-rule="evenodd" d="M7.97923 12.9968H15.5872C16.0372 12.9968 16.4023 13.3585 16.4023 13.8042C16.4023 14.2499 16.0372 14.6116 15.5872 14.6116H7.97923C7.52928 14.6116 7.1641 14.2499 7.1641 13.8042C7.1641 13.3585 7.52928 12.9968 7.97923 12.9968Z" fill="white"/>
<path fill-rule="evenodd" clip-rule="evenodd" d="M18.7386 17.5181H17.4343C16.9844 17.5181 16.6192 17.1564 16.6192 16.7107C16.6192 16.265 16.9844 15.9033 17.4343 15.9033H18.7386C19.1885 15.9033 19.5537 16.265 19.5537 16.7107C19.5537 17.1564 19.1885 17.5181 18.7386 17.5181Z" fill="white"/>
<path fill-rule="evenodd" clip-rule="evenodd" d="M6.23883 22.4605L21.6091 7.23656C21.9265 6.92115 22.4438 6.92115 22.7612 7.23656C23.0796 7.5509 23.0796 8.06331 22.7612 8.37765L7.39089 23.6015C7.07353 23.917 6.55619 23.917 6.23883 23.6015C5.92038 23.2872 5.92038 22.7748 6.23883 22.4605Z" fill="white"/>
</svg>
