<svg width="30" height="30" viewBox="0 0 30 30" fill="none" xmlns="http://www.w3.org/2000/svg">
<circle cx="15" cy="15" r="15" fill="#7208B5"/>
<path d="M6.61719 19.2168C4.16797 19.2168 2.65039 17.5176 2.65039 14.7754V14.7637C2.65039 12.0215 4.16211 10.3281 6.61719 10.3281C8.62109 10.3281 10.1211 11.6055 10.2852 13.3926V13.4629H8.5625V13.4219C8.38086 12.4727 7.625 11.8281 6.61719 11.8281C5.28711 11.8281 4.46094 12.9473 4.46094 14.7637V14.7754C4.46094 16.5918 5.28711 17.7168 6.62305 17.7168C7.63672 17.7168 8.36914 17.125 8.55664 16.2227L8.56836 16.1758H10.291L10.2852 16.2402C10.1035 18.0098 8.65625 19.2168 6.61719 19.2168ZM11.6799 19V10.5449H13.4495V13.9785H17.258V10.5449H19.0276V19H17.258V15.4375H13.4495V19H11.6799ZM20.8384 19V10.5449H26.4399V12.0039H22.6079V14.043H26.2231V15.4023H22.6079V17.541H26.4399V19H20.8384Z" fill="#F3F547"/>
</svg>
