<svg width="30" height="30" viewBox="0 0 30 30" fill="none" xmlns="http://www.w3.org/2000/svg">
<circle cx="15" cy="15" r="15" fill="#0FE7FF"/>
<path d="M7.34213 21.192C5.73146 21.192 4.52079 20.6853 3.71013 19.672C2.89946 18.648 2.49413 17.32 2.49413 15.688C2.49413 13.992 2.96879 12.648 3.91813 11.656C4.86746 10.664 6.15279 10.168 7.77413 10.168C9.06479 10.168 10.1475 10.5093 11.0221 11.192L9.82213 13.304C9.24613 12.8347 8.56346 12.6 7.77413 12.6C7.10213 12.6 6.51546 12.8293 6.01413 13.288C5.52346 13.736 5.27813 14.3173 5.27813 15.032V15.16C5.54479 14.7973 5.91279 14.504 6.38213 14.28C6.86213 14.056 7.36879 13.944 7.90213 13.944C8.92613 13.944 9.79546 14.2587 10.5101 14.888C11.2355 15.5067 11.5981 16.36 11.5981 17.448C11.5981 18.5467 11.1981 19.448 10.3981 20.152C9.59813 20.8453 8.57946 21.192 7.34213 21.192ZM7.16613 18.76C7.65679 18.76 8.05146 18.6373 8.35013 18.392C8.65946 18.1467 8.81413 17.864 8.81413 17.544C8.81413 17.128 8.63813 16.8133 8.28613 16.6C7.94479 16.3867 7.53946 16.28 7.07013 16.28C6.34479 16.28 5.74746 16.52 5.27813 17C5.32079 17.4907 5.49679 17.9067 5.80613 18.248C6.11546 18.5893 6.56879 18.76 7.16613 18.76ZM23.9691 21H21.0571L19.4411 14.312L17.8251 21H14.9131L11.8571 10.328H14.9451L16.5611 17.448L18.3851 10.328H20.4971L22.3211 17.448L23.9211 10.328H27.0251L23.9691 21Z" fill="black"/>
</svg>
