<svg width="30" height="30" viewBox="0 0 30 30" fill="none" xmlns="http://www.w3.org/2000/svg">
<circle cx="15" cy="15" r="15" fill="#0FE7FF"/>
<path d="M15.586 21.216C13.366 21.216 11.59 20.58 10.258 19.308L11.896 16.986C12.952 18.042 14.23 18.57 15.73 18.57C16.258 18.57 16.672 18.48 16.972 18.3C17.284 18.108 17.44 17.868 17.44 17.58C17.44 17.328 17.272 17.124 16.936 16.968C16.6 16.8 16.18 16.68 15.676 16.608C15.172 16.524 14.626 16.398 14.038 16.23C13.45 16.05 12.904 15.846 12.4 15.618C11.896 15.378 11.476 15 11.14 14.484C10.804 13.968 10.636 13.35 10.636 12.63C10.636 11.574 11.062 10.674 11.914 9.93C12.778 9.186 13.948 8.814 15.424 8.814C17.38 8.814 19.006 9.372 20.302 10.488L18.61 12.702C17.602 11.874 16.432 11.46 15.1 11.46C14.236 11.46 13.804 11.748 13.804 12.324C13.804 12.552 13.972 12.75 14.308 12.918C14.644 13.074 15.064 13.194 15.568 13.278C16.072 13.362 16.612 13.494 17.188 13.674C17.776 13.842 18.322 14.046 18.826 14.286C19.33 14.526 19.75 14.898 20.086 15.402C20.422 15.906 20.59 16.506 20.59 17.202C20.59 18.426 20.152 19.404 19.276 20.136C18.4 20.856 17.17 21.216 15.586 21.216Z" fill="black"/>
</svg>
