<svg width="30" height="30" viewBox="0 0 30 30" fill="none" xmlns="http://www.w3.org/2000/svg">
<circle cx="15" cy="15" r="15" fill="#0FE7FF"/>
<path d="M11.484 19H9.04795L7.30795 16.312L5.56795 19H3.11995L5.91595 14.896L3.29995 10.996H5.73595L7.30795 13.504L8.85595 10.996H11.304L8.69995 14.884L11.484 19ZM19.5933 19H17.1573L15.4173 16.312L13.6773 19H11.2293L14.0253 14.896L11.4093 10.996H13.8453L15.4173 13.504L16.9653 10.996H19.4133L16.8093 14.884L19.5933 19ZM23.1667 19.144C21.6867 19.144 20.5027 18.72 19.6147 17.872L20.7067 16.324C21.4107 17.028 22.2627 17.38 23.2627 17.38C23.6147 17.38 23.8907 17.32 24.0907 17.2C24.2987 17.072 24.4027 16.912 24.4027 16.72C24.4027 16.552 24.2907 16.416 24.0667 16.312C23.8427 16.2 23.5627 16.12 23.2267 16.072C22.8907 16.016 22.5267 15.932 22.1347 15.82C21.7427 15.7 21.3787 15.564 21.0427 15.412C20.7067 15.252 20.4267 15 20.2027 14.656C19.9787 14.312 19.8667 13.9 19.8667 13.42C19.8667 12.716 20.1507 12.116 20.7187 11.62C21.2947 11.124 22.0747 10.876 23.0587 10.876C24.3627 10.876 25.4467 11.248 26.3107 11.992L25.1827 13.468C24.5107 12.916 23.7307 12.64 22.8427 12.64C22.2667 12.64 21.9787 12.832 21.9787 13.216C21.9787 13.368 22.0907 13.5 22.3147 13.612C22.5387 13.716 22.8187 13.796 23.1547 13.852C23.4907 13.908 23.8507 13.996 24.2347 14.116C24.6267 14.228 24.9907 14.364 25.3267 14.524C25.6627 14.684 25.9427 14.932 26.1667 15.268C26.3907 15.604 26.5027 16.004 26.5027 16.468C26.5027 17.284 26.2107 17.936 25.6267 18.424C25.0427 18.904 24.2227 19.144 23.1667 19.144Z" fill="black"/>
</svg>
