<svg width="30" height="30" viewBox="0 0 30 30" fill="none" xmlns="http://www.w3.org/2000/svg">
<circle cx="15" cy="15" r="15" fill="#0FE7FF"/>
<path d="M7.02213 21.192C5.20879 21.192 3.77413 20.6747 2.71813 19.64L4.22213 17.72C4.97946 18.4133 5.90213 18.76 6.99013 18.76C7.54479 18.76 7.97146 18.6427 8.27013 18.408C8.57946 18.1733 8.73413 17.88 8.73413 17.528C8.73413 17.1547 8.59013 16.856 8.30213 16.632C8.01413 16.408 7.60346 16.296 7.07013 16.296C6.22746 16.296 5.52346 16.5627 4.95813 17.096L3.05413 16.632V10.328H10.7981V12.728H5.80613V14.792C6.39279 14.2267 7.15546 13.944 8.09413 13.944C9.03279 13.944 9.83813 14.264 10.5101 14.904C11.1928 15.544 11.5341 16.3813 11.5341 17.416C11.5341 18.568 11.1288 19.4853 10.3181 20.168C9.50746 20.8507 8.40879 21.192 7.02213 21.192ZM23.9691 21H21.0571L19.4411 14.312L17.8251 21H14.9131L11.8571 10.328H14.9451L16.5611 17.448L18.3851 10.328H20.4971L22.3211 17.448L23.9211 10.328H27.0251L23.9691 21Z" fill="black"/>
</svg>
