<svg width="30" height="30" viewBox="0 0 30 30" fill="none" xmlns="http://www.w3.org/2000/svg">
<circle cx="15" cy="15" r="15" fill="#47D3EF"/>
<path d="M25.9973 20.0222C25.9973 20.2318 25.8285 20.4015 25.618 20.4015H25.3202C25.2055 20.4015 25.0908 20.4603 25.0064 20.5636C24.1672 21.5763 22.5287 21.6844 21.8651 21.6844C21.702 21.6844 21.5986 21.6778 21.5797 21.6768L17.4949 21.6778C16.6406 21.6778 15.9455 20.9827 15.9455 20.1284V20.0782C15.9455 19.752 16.047 19.4485 16.2205 19.1992C15.6194 18.9858 15.187 18.4112 15.187 17.738V17.6878C15.187 17.2212 15.3946 16.8022 15.7218 16.5177C15.3946 16.2332 15.187 15.8141 15.187 15.3476V15.2974C15.187 14.8128 15.4108 14.3795 15.7597 14.0951C15.4525 13.8115 15.26 13.4067 15.26 12.9563V12.906C15.26 12.0517 15.955 11.3567 16.8094 11.3567H17.4655L18.7825 9.6338C19.1561 9.14453 19.7232 8.84206 20.3376 8.80317C20.9549 8.76714 21.5532 8.99376 21.9855 9.43181L23.8478 11.3197C24.0621 11.5368 24.3608 11.662 24.6661 11.662H25.6162C25.8258 11.662 25.9955 11.8307 25.9955 12.0412C25.9955 12.2508 25.8258 12.4205 25.6162 12.4205H24.6661C24.1588 12.4205 23.6639 12.2138 23.3073 11.8526L21.4451 9.96472C21.1673 9.6831 20.7823 9.53425 20.385 9.56078C19.9896 9.58543 19.6255 9.78076 19.3846 10.0956L18.4194 11.3576H20.3385C20.548 11.3576 20.7178 11.5273 20.7178 11.7369C20.7178 11.9464 20.548 12.1162 20.3385 12.1162H16.8074C16.3712 12.1162 16.0166 12.4708 16.0166 12.9069V12.9572C16.0166 13.3934 16.3712 13.748 16.8074 13.748H18.0723C18.2818 13.748 18.4515 13.9187 18.4515 14.1273C18.4515 14.3368 18.2818 14.5066 18.0723 14.5066H16.7344C16.2982 14.5066 15.9436 14.8612 15.9436 15.2973V15.3476C15.9436 15.7838 16.2982 16.1384 16.7344 16.1384H18.0723C18.2818 16.1384 18.4515 16.3081 18.4515 16.5177C18.4515 16.7272 18.2818 16.8969 18.0723 16.8969H16.7344C16.2982 16.8969 15.9436 17.2516 15.9436 17.6877V17.738C15.9436 18.1742 16.2982 18.5288 16.7344 18.5288H18.0723C18.2818 18.5288 18.4515 18.6985 18.4515 18.9081C18.4515 19.1176 18.2818 19.2873 18.0723 19.2873H17.4929C17.0568 19.2873 16.7021 19.642 16.7021 20.0781V20.1284C16.7021 20.5646 17.0568 20.9192 17.4929 20.9192H21.6035C21.649 20.9211 23.625 21.0405 24.4204 20.08C24.6499 19.8032 24.977 19.6439 25.3174 19.6439H25.6152C25.8247 19.6439 25.9944 19.8136 25.9944 20.0231L25.9973 20.0222ZM15.3775 8.79751V5.37928C15.3775 5.16973 15.2077 5 14.9982 5C14.7886 5 14.6189 5.16973 14.6189 5.37928V8.79751C14.6189 9.00706 14.7886 9.17679 14.9982 9.17679C15.2077 9.17679 15.3775 9.00706 15.3775 8.79751ZM16.5295 8.74347C16.5912 8.78044 16.6585 8.79846 16.7249 8.79846C16.8538 8.79846 16.979 8.73304 17.0501 8.61546L17.8541 7.28229C17.9622 7.10308 17.9044 6.86983 17.7252 6.76174C17.545 6.65365 17.3118 6.71054 17.2046 6.8907L16.4006 8.22386C16.2925 8.40307 16.3503 8.63632 16.5295 8.74441L16.5295 8.74347ZM12.9462 8.61451C13.0173 8.73304 13.1435 8.79751 13.2714 8.79751C13.3378 8.79751 13.4061 8.78045 13.4668 8.74252C13.646 8.63443 13.7038 8.40118 13.5957 8.22197L12.7917 6.8888C12.6836 6.70864 12.4513 6.65175 12.2711 6.75985C12.0919 6.86794 12.0341 7.10119 12.1422 7.2804L12.9462 8.61356L12.9462 8.61451ZM14.7355 12.9554V12.9051C14.7355 12.0508 14.0404 11.3558 13.1861 11.3558H12.53L11.2129 9.63291C10.8393 9.14365 10.2723 8.84117 9.65791 8.80229C9.04157 8.76436 8.44232 8.99287 8.00993 9.43093L6.14767 11.3188C5.93338 11.5359 5.63469 11.6611 5.32938 11.6611H4.37928C4.16973 11.6611 4 11.8299 4 12.0404C4 12.2499 4.16973 12.4196 4.37928 12.4196H5.32938C5.83665 12.4196 6.33162 12.2129 6.68815 11.8517L8.55041 9.96384C8.82823 9.68221 9.21226 9.53431 9.6105 9.5599C10.0059 9.58455 10.37 9.77988 10.6108 10.0947L11.5761 11.3567H9.65698C9.44743 11.3567 9.27771 11.5264 9.27771 11.736C9.27771 11.9455 9.44743 12.1153 9.65698 12.1153H13.1881C13.6243 12.1153 13.9789 12.4699 13.9789 12.9061V12.9563C13.9789 13.3925 13.6243 13.7471 13.1881 13.7471H11.9232C11.7137 13.7471 11.5439 13.9178 11.5439 14.1264C11.5439 14.3359 11.7137 14.5057 11.9232 14.5057H13.2611C13.6973 14.5057 14.0519 14.8603 14.0519 15.2965V15.3467C14.0519 15.7829 13.6973 16.1375 13.2611 16.1375H11.9232C11.7137 16.1375 11.5439 16.3072 11.5439 16.5168C11.5439 16.7263 11.7137 16.8961 11.9232 16.8961H13.2611C13.6973 16.8961 14.0519 17.2507 14.0519 17.6868V17.7371C14.0519 18.1733 13.6973 18.5279 13.2611 18.5279H11.9232C11.7137 18.5279 11.5439 18.6976 11.5439 18.9072C11.5439 19.1167 11.7137 19.2865 11.9232 19.2865H12.5026C12.9387 19.2865 13.2933 19.6411 13.2933 20.0772V20.1275C13.2933 20.5637 12.9387 20.9183 12.5026 20.9183L8.36654 20.9192C8.34568 20.9202 6.37153 21.0397 5.57602 20.0791C5.34656 19.8023 5.01943 19.643 4.67904 19.643H4.38129C4.17174 19.643 4.00201 19.8127 4.00201 20.0222C4.00201 20.2318 4.17079 20.4015 4.38129 20.4015H4.67904C4.79282 20.4015 4.90755 20.4603 4.9929 20.5637C5.83299 21.5782 7.47805 21.6844 8.1247 21.6844C8.28115 21.6844 8.37977 21.6778 8.39399 21.6769H12.5045C13.3588 21.6769 14.0539 20.9818 14.0539 20.1275V20.0772C14.0539 19.7511 13.9524 19.4476 13.7789 19.1983C14.3801 18.9849 14.8124 18.4103 14.8124 17.7371V17.6869C14.8124 17.2203 14.6048 16.8013 14.2776 16.5168C14.6048 16.2323 14.8124 15.8132 14.8124 15.3467V15.2965C14.8124 14.8119 14.5886 14.3786 14.2397 14.0942C14.5469 13.8106 14.7394 13.4058 14.7394 12.9554L14.7355 12.9554Z" fill="white"/>
</svg>
