<svg width="30" height="30" viewBox="0 0 30 30" fill="none" xmlns="http://www.w3.org/2000/svg">
<circle cx="15" cy="15" r="15" fill="#F26DDC"/>
<path d="M23.295 8.51501L24.5588 7.98316L23.2377 7.65469C23.0813 7.61324 22.6478 7.44534 22.486 7.16146L21.6905 7.68388C21.8282 7.89354 22.0063 8.05935 22.1925 8.18417C21.8644 8.54631 21.7394 9.01502 21.7266 9.39241C21.1606 9.3107 20.6382 9.31983 20.2594 9.47801C20.2204 9.21882 20.0539 8.8754 19.7853 8.62309C19.7853 8.62309 19.5692 8.37932 19.3335 8.25017C19.626 7.96764 19.9262 7.56436 20.0526 7.0271C20.4218 7.15371 20.92 7.21282 21.3909 7.0509C21.4424 7.2622 21.5374 7.48383 21.6907 7.68331L22.4853 7.16073C22.2699 6.91037 22.2669 6.46128 22.2839 6.30536L22.4515 5L21.4753 5.93946C21.3191 6.09046 21.1543 6.18339 20.9772 6.22005C20.4552 6.32854 19.9444 5.93423 19.943 5.93168L19.0554 5.2228L19.1548 6.33167C19.2502 7.42066 18.2532 7.92197 18.2123 7.94201L17.1647 8.43869L18.2603 8.78602C18.27 8.78902 18.826 8.97398 19.2329 9.29826L19.2344 9.29766C19.3659 9.68765 19.3755 10.1292 19.3743 10.2922C19.2044 10.7241 19.0449 10.7876 18.652 10.7703C18.5565 10.7669 18.4116 10.7187 18.2719 10.6712C18.0528 10.5981 17.805 10.517 17.5377 10.5215C16.951 10.5358 16.6249 10.83 16.4387 11.122L15.6397 10.5683C15.2653 10.3096 14.7664 10.3239 14.4068 10.6038L13.2282 11.5247C12.9164 11.4768 12.5977 11.4521 12.2728 11.4521C8.81387 11.4521 6 14.2672 6 17.7268C6 21.1859 8.8141 24 12.2728 24C15.7326 24 18.5467 21.1857 18.5467 17.7268C18.5467 16.5924 18.2425 15.5281 17.7137 14.6088L18.1741 13.2382C18.322 12.7997 18.1614 12.3164 17.7812 12.0524L17.2954 11.7158C17.3762 11.5668 17.4563 11.5638 17.5634 11.5611C17.6415 11.5615 17.804 11.6111 17.9404 11.657C18.1416 11.7247 18.369 11.801 18.6153 11.8098C19.7072 11.8375 20.1268 11.2567 20.3821 10.5626C20.7007 10.3727 21.3409 10.1076 22.067 10.4543L23.102 10.9481L22.7409 9.89464C22.7395 9.89059 22.5474 9.28797 22.8423 8.86013C22.9436 8.71362 23.0909 8.59989 23.2948 8.51489L23.295 8.51501ZM12.2726 14.0864H12.271C11.3081 14.0864 10.3863 14.5347 9.74254 15.3169C9.05385 16.1534 8.76519 17.2761 8.97007 18.3191C9.02559 18.6007 8.84152 18.8743 8.56005 18.9301C8.52637 18.9365 8.49241 18.9398 8.45918 18.9398C8.21541 18.9398 7.99844 18.7677 7.94921 18.5199C7.68119 17.1548 8.04184 15.7462 8.93943 14.6556C9.78147 13.6328 10.9956 13.0462 12.2707 13.0462H12.2733C12.5601 13.0463 12.7927 13.2792 12.7927 13.5662C12.793 13.8537 12.56 14.0862 12.2727 14.0862L12.2726 14.0864Z" fill="white"/>
</svg>
