<svg width="30" height="30" viewBox="0 0 30 30" fill="none" xmlns="http://www.w3.org/2000/svg">
<circle cx="15" cy="15" r="15" fill="#FF8000"/>
<path d="M13.0498 16.6904C13.4916 16.6905 13.8496 17.0484 13.8496 17.4902C13.8495 17.9319 13.4915 18.29 13.0498 18.29H9.71973C9.27798 18.29 8.92005 17.9319 8.91992 17.4902C8.91992 17.0484 9.2779 16.6904 9.71973 16.6904H13.0498Z" fill="white"/>
<path d="M20.2607 16.6904C20.7022 16.6909 21.0605 17.0487 21.0605 17.4902C21.0604 17.9317 20.7021 18.2896 20.2607 18.29H19.1504C18.7086 18.29 18.3507 17.9319 18.3506 17.4902C18.3506 17.0484 18.7086 16.6904 19.1504 16.6904H20.2607Z" fill="white"/>
<path fill-rule="evenodd" clip-rule="evenodd" d="M20.8203 8.36035C21.6833 8.36043 22.478 8.57672 23.0508 9.14941C23.6234 9.72227 23.8408 10.5169 23.8408 11.3799V18.6006C23.8407 19.4636 23.6235 20.2583 23.0508 20.8311C22.478 21.4037 21.6833 21.62 20.8203 21.6201H9.16016C8.29717 21.6201 7.50254 21.4036 6.92969 20.8311C6.35689 20.2583 6.13976 19.4636 6.13965 18.6006V11.3799C6.13969 10.5167 6.3568 9.7223 6.92969 9.14941C7.50256 8.57662 8.29701 8.3604 9.16016 8.36035H20.8203ZM7.74023 18.6006C7.74035 19.2168 7.89453 19.5322 8.06152 19.6992C8.22867 19.8661 8.5442 20.0205 9.16016 20.0205H20.8203C21.4367 20.0204 21.7529 19.8662 21.9199 19.6992C22.0868 19.5321 22.2401 19.2164 22.2402 18.6006V13.8496H7.74023V18.6006ZM9.16016 9.95996C8.5438 9.96001 8.22859 10.1143 8.06152 10.2812C7.89449 10.4483 7.74028 10.7634 7.74023 11.3799V12.25H22.2402V11.3799C22.2402 10.7642 22.0867 10.4485 21.9199 10.2812C21.7529 10.1142 21.4367 9.96004 20.8203 9.95996H9.16016Z" fill="white"/>
</svg>
