<svg width="30" height="30" viewBox="0 0 30 30" fill="none" xmlns="http://www.w3.org/2000/svg">
<circle cx="15" cy="15" r="15" fill="#0BA6A6"/>
<path d="M20.0428 20.0002L18.2278 17.2722L19.9218 14.6872H18.0628L17.1608 16.1282L16.2478 14.6872H14.3888L16.0938 17.2722L14.2788 20.0002H16.1268L17.1718 18.3942L18.1838 20.0002H20.0428Z" fill="white"/>
<path d="M26.2107 20.0002V18.3502H23.5267C25.3527 17.0742 26.1557 16.1172 26.1557 14.9842C26.1557 13.5212 24.9127 12.5532 23.1857 12.5532C22.1627 12.5532 20.9967 12.9162 20.2157 13.7742L21.2607 15.0282C21.7887 14.5332 22.4047 14.2252 23.2187 14.2252C23.7577 14.2252 24.2307 14.4892 24.2307 14.9842C24.2307 15.7212 23.6367 16.2272 20.4577 18.5262V20.0002H26.2107Z" fill="white"/>
<path fill-rule="evenodd" clip-rule="evenodd" d="M16.2048 9.20433C16.4625 9.46213 16.4625 9.88018 16.2048 10.1379C15.9471 10.3957 15.529 10.3956 15.2712 10.1379L14.8043 9.67099L14.8042 9.67111L13.404 11.0713L13.8711 11.5383L13.8716 11.5389L14.8043 12.4717C15.0621 12.7294 15.0621 13.1475 14.8043 13.4053C14.5465 13.663 14.1285 13.663 13.8707 13.4053L13.4042 12.9388L8.73626 17.6067L8.63268 17.691C8.41306 17.8359 8.12581 17.836 7.90624 17.691L7.80266 17.6067L7.80251 17.6066L6.86929 18.5398C6.6115 18.7976 6.19354 18.7976 5.93574 18.5398L5.93556 18.5396L4.5349 19.9403C4.27709 20.1979 3.85903 20.198 3.60129 19.9403C3.34356 19.6825 3.34369 19.2645 3.60129 19.0067L5.00195 17.606C4.7444 17.3482 4.74448 16.9304 5.00219 16.6727L5.93541 15.7395L5.85121 15.6359C5.70608 15.4164 5.70629 15.1292 5.85121 14.9095L5.93545 14.8059L5.93568 14.8057L5.93557 14.8056L8.26944 12.4717L8.26956 12.4718L10.6034 10.138L10.1363 9.67085C9.87874 9.41305 9.8786 8.99496 10.1363 8.73725C10.394 8.47953 10.8121 8.47969 11.0699 8.73725L12.0032 9.67061L12.0039 9.67111L12.4704 10.1377L13.8706 8.73751L13.8707 8.73739L13.404 8.27073C13.1462 8.01294 13.1462 7.59492 13.404 7.33713C13.6618 7.07936 14.0798 7.07934 14.3376 7.33713L16.2048 9.20433ZM10.1368 14.339L9.20316 13.4054L11.537 11.0716L12.4706 12.0052L10.1368 14.339Z" fill="white"/>
</svg>
