<svg width="30" height="30" viewBox="0 0 30 30" fill="none" xmlns="http://www.w3.org/2000/svg">
<circle cx="15" cy="15" r="15" fill="#EBC918"/>
<path d="M9.23148 20L13.3435 9.328H10.7675L7.80748 17.52L4.84748 9.328H2.27148L6.38348 20H9.23148Z" fill="white"/>
<path d="M16.601 20V9.328H14.329V20H16.601Z" fill="white"/>
<path d="M20.9916 20V16.192H23.7116C26.0156 16.192 27.2956 14.624 27.2956 12.768C27.2956 10.896 26.0316 9.328 23.7116 9.328H18.7196V20H20.9916ZM23.3916 14.192H20.9916V11.328H23.3916C24.2876 11.328 24.9756 11.872 24.9756 12.768C24.9756 13.648 24.2876 14.192 23.3916 14.192Z" fill="white"/>
</svg>
