<svg width="30" height="30" viewBox="0 0 30 30" fill="none" xmlns="http://www.w3.org/2000/svg">
<circle cx="15" cy="15" r="15" fill="#22C4EF"/>
<path d="M17.3401 10.26L18.5901 8.67L17.6301 7H12.3701L11.3701 8.67L15.0001 13.25L16.3601 11.51C17.5567 11.6983 18.6525 12.2916 19.4643 13.1907C20.2761 14.0899 20.7547 15.2404 20.8201 16.45C20.8201 19.26 18.2101 21.55 15.0001 21.55C11.7901 21.55 9.18009 19.26 9.18009 16.45C9.23408 15.3215 9.65341 14.2412 10.3749 13.3718C11.0964 12.5024 12.0809 11.8911 13.1801 11.63L12.2301 10.42C10.9619 10.8461 9.85379 11.6486 9.05339 12.7206C8.25298 13.7926 7.79835 15.083 7.75009 16.42C7.73009 20.06 11.0001 23 15.0001 23C19.0001 23 22.2701 20.06 22.2701 16.45C22.2198 15.0262 21.7136 13.6563 20.826 12.5419C19.9385 11.4275 18.7165 10.6276 17.3401 10.26ZM15.0001 12.09L15.7301 7.73L17.1801 9.18L15.0001 12.09Z" fill="white"/>
</svg>
