<svg width="30" height="30" viewBox="0 0 30 30" fill="none" xmlns="http://www.w3.org/2000/svg">
<circle cx="15" cy="15" r="15" fill="#93BB53"/>
<path fill-rule="evenodd" clip-rule="evenodd" d="M14.9719 19.6598C15.8689 19.4105 16.7182 19.0574 17.5593 18.6632C17.6298 17.5412 17.7002 16.5364 17.7711 15.6777C18.6965 16.9074 20.9196 17.4922 22.6639 17.4428L23.0002 16.5177C21.3029 15.9225 19.7901 14.6795 19.3145 12.7219C18.6244 10.5003 17.7087 10.4932 15.0003 10.4932C12.2918 10.4932 11.3761 10.5003 10.686 12.7219C10.21 14.6793 8.69724 15.9226 7 16.5177L7.33624 17.4428C9.0803 17.4919 11.3034 16.9072 12.2291 15.6777C12.3 16.5368 12.3704 17.5414 12.4409 18.6632C13.2649 19.0496 14.0925 19.4151 14.9722 19.6598M14.9722 9.66327C16.2602 9.66327 17.3041 8.61941 17.3041 7.33144C17.3041 6.0435 16.2602 5 14.9722 5C13.6842 5 12.6404 6.04387 12.6404 7.33144C12.6404 8.61938 13.6842 9.66327 14.9722 9.66327ZM14.9722 22.9898C16.5274 23.4017 17.7354 23.6199 19.7844 23.7414L20.7357 22.678C20.1109 22.4718 19.1495 22.0495 18.8676 21.923C19.3617 21.6607 20.3295 21.2555 21.0184 20.7846C22.6478 19.6711 21.2021 17.2863 19.2811 18.3223C18.6414 18.6672 18.0337 18.9734 17.464 19.2369C16.5161 19.6758 15.6746 19.9963 14.9721 20.1804C14.2697 19.9967 13.4282 19.6763 12.4803 19.2369C11.911 18.9734 11.3029 18.6672 10.6632 18.3223C8.74222 17.2863 7.29639 19.6709 8.92589 20.7846C9.61524 21.2554 10.583 21.6606 11.0767 21.923C10.7948 22.0493 9.83331 22.4718 9.20855 22.678L10.16 23.7414C12.2088 23.6199 13.4169 23.4017 14.9725 22.9898H14.9722Z" fill="white"/>
</svg>
