<svg xmlns="http://www.w3.org/2000/svg" xmlns:xlink="http://www.w3.org/1999/xlink" x="0px" y="0px" width="12px" height="12px" viewBox="0 0 12 12"><path d="M2.75 11C1.23122 11 1.07636e-07 9.76878 2.40413e-07 8.25L6.33815e-07 3.75C7.66591e-07 2.23122 1.23122 1 2.75 1L9.25 1C10.7688 1 12 2.23122 12 3.75L12 8.25C12 9.76878 10.7688 11 9.25 11L2.75 11ZM9.25 9C9.66421 9 10 8.66421 10 8.25L10 6.25C10 5.83579 9.66421 5.5 9.25 5.5L7.25 5.5C6.83579 5.5 6.5 5.83579 6.5 6.25L6.5 8.25C6.5 8.66421 6.83579 9 7.25 9L9.25 9Z" fill="black"></path></svg>