<svg width="30" height="30" viewBox="0 0 30 30" fill="none" xmlns="http://www.w3.org/2000/svg">
<path d="M15 30C23.2843 30 30 23.2843 30 15C30 6.71573 23.2843 0 15 0C6.71573 0 0 6.71573 0 15C0 23.2843 6.71573 30 15 30Z" fill="#007BC0"/>
<path d="M18.0001 24.91H12.1301V20.16L8.00006 22.53L5.06006 17.43L9.18006 15.02L5.07006 12.68L8.00006 7.57995L12.1201 9.94995V5.19995H18.0001V9.94995L22.1201 7.57995L25.0601 12.68L21.0001 15.02L25.1101 17.39L22.1701 22.49L18.0001 20.16V24.91ZM13.1101 23.91H17.0001V18.43L21.7501 21.17L23.7001 17.8L19.0001 15.02L23.7501 12.27L21.7701 8.93995L17.0001 11.68V6.19995H13.1301V11.68L8.38006 8.93995L6.38006 12.31L11.1801 15.02L6.43006 17.8L8.43006 21.17L13.1801 18.43L13.1101 23.91Z" fill="white"/>
<path d="M14.6899 11.61C14.6899 11.61 14.7399 11.26 14.9599 11.26C15.1799 11.26 15.2899 11.45 15.2799 11.68C15.2699 11.91 15.1399 20.1 15.1099 20.19C15.0799 20.28 15.0299 20.19 15.0299 20.19L14.6899 11.61Z" fill="white"/>
<path d="M15.17 19.9001C15.1093 19.9001 15.0494 19.8856 14.9955 19.8577C14.9416 19.8299 14.8951 19.7896 14.86 19.7401C14.8335 19.6971 14.8161 19.6492 14.8089 19.5993C14.8016 19.5494 14.8046 19.4986 14.8177 19.4499C14.8308 19.4012 14.8538 19.3556 14.8851 19.3161C14.9164 19.2766 14.9555 19.2439 15 19.2201C14.9079 19.1276 14.8243 19.0272 14.75 18.9201L14.56 18.6501C14.4984 18.4874 14.4745 18.3129 14.4901 18.1397C14.5057 17.9665 14.5603 17.7991 14.65 17.6501C14.7336 17.5318 14.8237 17.4183 14.92 17.3101L15.06 17.1401L14.75 16.9101C14.6287 16.8298 14.5118 16.743 14.4 16.6501C14.2051 16.4975 14.0737 16.2781 14.0312 16.0343C13.9887 15.7905 14.0382 15.5395 14.17 15.3301C14.3568 15.146 14.565 14.9849 14.79 14.8501L15.2 14.5701C15.1786 14.5386 15.1515 14.5114 15.12 14.4901C14.6652 14.0977 14.253 13.6586 13.89 13.1801C13.7846 12.9456 13.7639 12.6818 13.8314 12.4338C13.8989 12.1858 14.0504 11.9689 14.26 11.8201C14.4194 11.7248 14.5974 11.6648 14.782 11.6441C14.9665 11.6234 15.1534 11.6425 15.33 11.7001C15.423 11.7321 15.5001 11.7989 15.5449 11.8866C15.5896 11.9743 15.5986 12.0759 15.57 12.1701C15.5562 12.2167 15.5334 12.2602 15.5028 12.298C15.4722 12.3358 15.4345 12.3672 15.3918 12.3904C15.3491 12.4136 15.3022 12.4282 15.2538 12.4333C15.2055 12.4384 15.1566 12.4339 15.11 12.4201C14.9806 12.3743 14.8394 12.3743 14.71 12.4201C14.6406 12.4648 14.5881 12.5313 14.561 12.6093C14.5338 12.6872 14.5334 12.7719 14.56 12.8501C14.8834 13.2318 15.2344 13.5895 15.61 13.9201C15.7142 14.0063 15.7999 14.1128 15.8617 14.2332C15.9236 14.3535 15.9604 14.4851 15.97 14.6201C15.9711 14.7124 15.951 14.8037 15.9111 14.887C15.8712 14.9702 15.8126 15.0431 15.74 15.1001C15.63 15.1901 15.42 15.3301 15.21 15.4801C15.0522 15.5754 14.9018 15.6824 14.76 15.8001C14.76 15.8001 14.76 15.9701 14.9 16.0901L15.19 16.3101C15.63 16.6301 15.96 16.8601 15.88 17.2101C15.7926 17.4289 15.6596 17.6266 15.49 17.7901C15.4241 17.862 15.3639 17.9389 15.31 18.0201C15.2531 18.1025 15.2218 18.1999 15.22 18.3001C15.2583 18.3573 15.3018 18.4108 15.35 18.4601C15.4515 18.5923 15.5418 18.7328 15.62 18.8801C15.7057 19.0353 15.7337 19.2159 15.6989 19.3899C15.6641 19.5638 15.5689 19.7198 15.43 19.8301C15.3934 19.8583 15.3516 19.8791 15.307 19.8911C15.2623 19.9031 15.2158 19.9061 15.17 19.9001Z" fill="white"/>
</svg>
