<svg width="30" height="30" viewBox="0 0 30 30" fill="none" xmlns="http://www.w3.org/2000/svg">
<circle cx="15" cy="15" r="15" fill="#611CF2"/>
<path d="M6.67246 16.379L7.38216 11.766L7.5 11L4.5 10.5L2.5 16.5L6.5 17.5L6.67246 16.379ZM7.38216 11.766C10 11.766 12 9.5 14 9.5C16 9.5 17 10 17.4036 11.1459M22.1094 11.766L23 18L27 16.5L24.5 10.5L22 11L22.1094 11.766ZM19.5 20C21 20.75 22.3 19.3 21.5 18.5C20.7 17.7 18 17 15.5 14C14.8333 14.1667 13.2 14.5 12 14.5C10.5 14.5 9 13.5 10.5 13C12 12.5 13.5 11 16 11C16.6093 11 17.0405 11.0594 17.4036 11.1459C18.5301 11.4142 19.0016 11.943 22.1094 11.766M19.5 20C18.4881 19.494 16 18 15 17M19.5 20C19 21 18 21.5 16.5 21M16.5 21C15.4267 20.6422 14.3333 19.8333 14 19.5M16.5 21C16 22 15 22.5 13.5 22C12.1584 21.5528 10 20.5 9 19.5C8 18.5 7.84491 16.7581 6.67246 16.379" stroke="white" stroke-width="1.5" stroke-linecap="round" stroke-linejoin="round"/>
</svg>
