<svg width="30" height="30" viewBox="0 0 30 30" fill="none" xmlns="http://www.w3.org/2000/svg">
<circle cx="15" cy="15" r="15" fill="#BFD68F"/>
<path d="M18.3778 26.0007H9.6909V19.6137C8.6808 18.9547 6.00403 16.8763 5.54949 13.0745C4.99393 8.3602 8.6808 4.55835 12.3172 4.10213C16.2566 3.59522 19.8424 5.21734 21.004 8.05605C21.6101 9.4754 22.6202 11.5537 23.4788 13.2266C24.2869 14.8487 24.7919 15.8118 24.9434 16.268C24.9939 16.4708 25.0949 16.6736 25.1454 16.8256C25.398 17.3832 25.6 17.8901 25.3475 18.3971C25.2465 18.5998 24.9939 18.8533 24.5394 18.9547C24.0343 19.056 22.9737 18.9547 22.1656 18.8533C22.1656 19.4109 22.1656 20.1713 22.1151 20.9316C22.0141 22.1989 21.7111 23.5169 19.8929 23.6183C19.3879 23.669 18.8323 23.6183 18.4283 23.6183L18.3778 26.0007ZM11.2061 24.48H16.9131V21.9454L17.7717 22.0468C17.7717 22.0468 18.9333 22.1989 19.7919 22.1482C20.297 22.0975 20.5495 22.0975 20.6 20.8809C20.701 19.563 20.6 18.0929 20.6 18.0929L20.5495 17.1805L21.4586 17.3325C22.2667 17.4339 23.2263 17.5353 23.7818 17.586C23.7818 17.5353 23.7818 17.5353 23.7313 17.4846C23.6303 17.2819 23.5798 17.0791 23.4788 16.8256C23.3778 16.4708 22.7212 15.2542 22.1151 13.9869C21.2566 12.2634 20.196 10.1851 19.5899 8.71503C18.6808 6.53531 15.701 5.26803 12.5192 5.67356C9.58989 5.97771 6.61009 9.06987 7.06464 12.9224C7.51918 16.7749 10.7515 18.5491 10.802 18.5491L11.2061 18.7519V24.48Z" fill="white"/>
<path d="M14.2878 17.2809L13.7828 16.8247C13.2272 16.3178 10.4999 13.8339 10.0454 12.5666C9.74237 11.7556 9.99489 10.8431 10.601 10.1335C11.207 9.42379 12.0656 9.11964 12.9242 9.32241C13.5807 9.47448 14.0858 9.82932 14.4393 10.1335C14.9444 9.72794 15.702 9.27172 16.51 9.27172C17.3686 9.27172 18.1767 9.82932 18.6313 10.6911C19.0353 11.4514 19.0353 12.3639 18.6313 13.0229C18.0252 13.986 15.0959 16.5713 14.7929 16.8754L14.2878 17.2809ZM12.4696 10.8431C12.2171 10.8431 11.9646 10.9952 11.7626 11.198C11.5605 11.4007 11.409 11.8063 11.51 12.1104C11.6616 12.6173 13.0252 14.0367 14.3383 15.2533C15.4999 14.1888 17.0656 12.668 17.4191 12.1611C17.5201 12.009 17.5201 11.6542 17.3686 11.4007C17.2171 11.1473 16.9141 10.8431 16.5605 10.7925C15.9545 10.7925 15.2979 11.5021 15.0959 11.7556L14.4393 12.5666L13.8838 11.7049C13.8838 11.7049 13.3787 10.9952 12.7222 10.8431C12.5706 10.8431 12.5201 10.8431 12.4696 10.8431Z" fill="white"/>
</svg>
