<svg width="30" height="30" viewBox="0 0 30 30" fill="none" xmlns="http://www.w3.org/2000/svg">
<circle cx="15" cy="15" r="15" fill="#8CCDDB"/>
<path d="M23.8125 14.7188L22 13.2188V10.2188C22 10.0938 21.875 9.96875 21.75 9.96875H20.75C20.5938 10 20.5 10.0938 20.5 10.2188V12L16.0938 8.375C15.8125 8.125 15.4062 8 15 8C14.5625 8 14.1562 8.125 13.875 8.375L6.15625 14.7188C6.0625 14.8125 6 14.9375 6 15.0938C6 15.2188 6.03125 15.3438 6.09375 15.4062L6.4375 15.8125C6.5 15.9062 6.65625 15.9688 6.8125 15.9688C6.9375 15.9688 7.03125 15.9375 7.125 15.875L8 15.1562V20.9688C8 21.5312 8.4375 21.9688 9 21.9688H13C13.5312 21.9688 13.9688 21.5312 14 20.9688V17.7188H16V20.9688C16 21.5312 16.4375 21.9688 17 21.9688H21C21.5312 21.9688 21.9688 21.5312 22 21V15.1562L22.8438 15.875C22.9375 15.9375 23.0312 16 23.1562 16C23.3125 16 23.4688 15.9062 23.5625 15.8125L23.875 15.4062C23.9375 15.3438 24 15.2188 24 15.0938C24 14.9375 23.9062 14.8125 23.8125 14.7188ZM20.4688 20.4688H17.5V17.2188C17.4688 16.6875 17.0312 16.25 16.5 16.2188H13.5C12.9375 16.25 12.5 16.6875 12.5 17.2188V20.4688H9.5V13.9375L15 9.40625L20.5 13.9375L20.4688 20.4688Z" fill="white"/>
</svg>
