<svg width="30" height="30" viewBox="0 0 30 30" fill="none" xmlns="http://www.w3.org/2000/svg">
<circle cx="15" cy="15" r="15" fill="black"/>
<path d="M12.176 21V8.32696H9.34497L4.91797 12.697L6.77997 14.654L8.90797 12.507V21H12.176Z" fill="white"/>
<path d="M19.249 21.228C22.954 21.228 24.683 18.017 24.683 14.673C24.683 11.329 22.954 8.13696 19.249 8.13696C15.544 8.13696 13.815 11.329 13.815 14.673C13.815 18.017 15.544 21.228 19.249 21.228ZM19.249 18.34C17.729 18.34 17.121 16.915 17.121 14.673C17.121 12.431 17.729 11.025 19.249 11.025C20.769 11.025 21.377 12.431 21.377 14.673C21.377 16.915 20.769 18.34 19.249 18.34Z" fill="white"/>
</svg>
