<svg width="30" height="30" viewBox="0 0 30 30" fill="none" xmlns="http://www.w3.org/2000/svg">
<circle cx="15" cy="15" r="15" fill="#68C111"/>
<path d="M14.5587 21.1H15.5927V20.11C17.2097 19.945 18.0127 18.999 18.0127 17.778C18.0127 16.271 16.7367 15.831 15.5927 15.545V14.027C16.0877 14.148 16.5717 14.379 16.9677 14.742L17.8367 13.576C17.2427 13.026 16.4837 12.696 15.5927 12.597V11.552H14.5587V12.575C13.0737 12.729 12.1937 13.675 12.1937 14.786C12.1937 16.282 13.4257 16.711 14.5587 16.986V18.691C13.8217 18.559 13.2167 18.174 12.8097 17.745L11.9517 18.966C12.5567 19.571 13.4037 20.011 14.5587 20.11V21.1ZM16.4177 17.932C16.4177 18.284 16.1537 18.603 15.5927 18.713V17.239C16.0767 17.393 16.4177 17.569 16.4177 17.932ZM13.7997 14.665C13.7997 14.291 14.0747 14.027 14.5587 13.961V15.292C14.1077 15.149 13.7997 14.984 13.7997 14.665Z" fill="white"/>
<path d="M19.75 8V6.75C19.75 5.49022 19.2496 4.28204 18.3588 3.39124C17.468 2.50044 16.2598 2 15 2C13.7402 2 12.532 2.50044 11.6412 3.39124C10.7504 4.28204 10.25 5.49022 10.25 6.75V8H4.75V21.42C4.75 22.2369 5.0745 23.0203 5.65211 23.5979C6.22972 24.1755 7.01313 24.5 7.83 24.5H22.17C22.9869 24.5 23.7703 24.1755 24.3479 23.5979C24.9255 23.0203 25.25 22.2369 25.25 21.42V8H19.75ZM11.75 6.75C11.75 5.88805 12.0924 5.0614 12.7019 4.4519C13.3114 3.84241 14.138 3.5 15 3.5C15.862 3.5 16.6886 3.84241 17.2981 4.4519C17.9076 5.0614 18.25 5.88805 18.25 6.75V8H11.75V6.75ZM23.75 21.42C23.75 21.839 23.5835 22.2409 23.2872 22.5372C22.9909 22.8335 22.589 23 22.17 23H7.83C7.41096 23 7.00908 22.8335 6.71277 22.5372C6.41646 22.2409 6.25 21.839 6.25 21.42V9.5H23.75V21.42Z" fill="white"/>
</svg>
