<svg xmlns="http://www.w3.org/2000/svg" xmlns:xlink="http://www.w3.org/1999/xlink" x="0px" y="0px" width="12px" height="12px" viewBox="0 0 12 12"><path d="M1.25 4.75H10.75" stroke="black" stroke-width="1.5" stroke-linecap="round" stroke-linejoin="round" fill="none"></path> <path d="M6.25 11.25H3.25C2.14543 11.25 1.25 10.3546 1.25 9.25V3.75C1.25 2.64543 2.14543 1.75 3.25 1.75L8.75 1.75C9.85457 1.75 10.75 2.64543 10.75 3.75V4.75" stroke="black" stroke-width="1.5" stroke-linecap="round" stroke-linejoin="round" fill="none"></path> <path d="M3.75 0.75V1.75" stroke="black" stroke-width="1.5" stroke-linecap="round" stroke-linejoin="round" fill="none"></path> <path d="M8.25 0.75V1.75" stroke="black" stroke-width="1.5" stroke-linecap="round" stroke-linejoin="round" fill="none"></path> <path d="M11.36 11.8895L10 10.5295L8.64 11.8895C8.404 12.1255 8 11.9585 8 11.6245V8.02954C8 7.47726 8.44772 7.02954 9 7.02954H11C11.5523 7.02954 12 7.47726 12 8.02954V11.6245C12 11.9585 11.596 12.1255 11.36 11.8895Z" fill="#000" data-color="color-2" data-stroke="none"></path></svg>